<svg version="1.2" baseProfile="tiny" viewBox="0 0 14.0 14.0" xmlns:xlink="http://www.w3.org/1999/xlink" xmlns="http://www.w3.org/2000/svg">
<path style="fill:#ffffff;" d="M 6.9999999,11.432938 C 6.5443173,11.432938 6.1752147,11.063834 6.1752147,10.61043 6.1752147,10.154748 6.5443173,9.7856449 6.9999999,9.7856449 7.4556825,9.7856449 7.8247857,10.154748 7.8247857,10.61043 7.8247857,11.063834 7.4556825,11.432938 6.9999999,11.432938 M 6.3939423,3.7774698 C 6.3939423,3.431151 6.6787438,3.1486278 7.0250626,3.1486278 7.3736597,3.1486278 7.6561829,3.431151 7.6561829,3.7774698 V 7.7350731 C 7.6561829,8.0836702 7.3736597,8.3661934 7.0250626,8.3661934 6.6787438,8.3661934 6.3939423,8.0836702 6.3939423,7.7350731 Z M 13.776001,6.4568836 7.5422625,0.22314547 C 7.2437903,-0.07304852 6.7562096,-0.07304852 6.4577379,0.22314547 L 0.22399982,6.4568836 C -0.07447244,6.7553552 -0.07447244,7.2429359 0.22399982,7.5414082 L 6.4577379,13.775146 C 6.7562096,14.073618 7.2437903,14.073618 7.5422625,13.775146 L 13.776001,7.5414082 C 14.074472,7.2429359 14.074472,6.7553552 13.776001,6.4568836"/>
</svg>