<svg version="1.2" baseProfile="tiny" viewBox="0 0 14.0 14.0" xmlns:xlink="http://www.w3.org/1999/xlink" xmlns="http://www.w3.org/2000/svg">
<path style="fill:#ffffff;" d="M 8.91862,11.491211 C 8.4651694,11.491211 8.09375,11.12207 8.09375,10.666341 8.09375,10.212891 8.4651694,9.8414714 8.91862,9.8414714 9.3743492,9.8414714 9.7434895,10.212891 9.7434895,10.666341 9.7434895,11.12207 9.3743492,11.491211 8.91862,11.491211 M 8.3147785,3.8349611 C 8.3147785,3.4863284 8.5973305,3.2037763 8.9459638,3.2037763 9.2945964,3.2037763 9.5771485,3.4863284 9.5771485,3.8349611 V 7.7906902 C 9.5771485,8.1393229 9.2945964,8.421875 8.9459638,8.421875 8.5973305,8.421875 8.3147785,8.1393229 8.3147785,7.7906902 Z M 5.0813805,11.297526 C 4.6256513,11.297526 4.2565104,10.926107 4.2565104,10.472656 4.2565104,10.016927 4.6256513,9.6477867 5.0813805,9.6477867 5.5348306,9.6477867 5.90625,10.016927 5.90625,10.472656 5.90625,10.926107 5.5348306,11.297526 5.0813805,11.297526 M 4.4752604,3.6412763 C 4.4752604,3.2926431 4.760091,3.010091 5.1064451,3.010091 5.4550784,3.010091 5.7376305,3.2926431 5.7376305,3.6412763 V 7.5970055 C 5.7376305,7.9456381 5.4550784,8.2281902 5.1064451,8.2281902 4.760091,8.2281902 4.4752604,7.9456381 4.4752604,7.5970055 Z M 7,0 C 3.1354166,0 0,3.1354166 0,7 0,10.866862 3.1354166,14 7,14 10.866862,14 14,10.866862 14,7 14,3.1354166 10.866862,0 7,0"/>
</svg>