<svg version="1.2" baseProfile="tiny" viewBox="0 0 6.0 12.0" xmlns:xlink="http://www.w3.org/1999/xlink" xmlns="http://www.w3.org/2000/svg">
<path style="fill:#ffffff;" d="M0.0,1.0L0.0,11.0L6.0,11.0L6.0,1.0L0.0,1.0L0.0,-12.0M4.0,7.834C4.0,8.109,3.776,8.334,3.5,8.334C3.224,8.334,3.0,8.109,3.0,7.834L3.0,5.916C3.0,5.641,3.224,5.416,3.5,5.416C3.776,5.416,4.0,5.641,4.0,5.916L4.0,7.834M3.5,4.0C3.224,4.0,3.0,3.776,3.0,3.5C3.0,3.224,3.224,3.0,3.5,3.0C3.776,3.0,4.0,3.224,4.0,3.5C4.0,3.776,3.776,4.0,3.5,4.0Z"/>
</svg>