<svg version="1.2" baseProfile="tiny" id="EdgeSVG_M79Y0" x="0px" y="0px" width="6px" height="12px" viewBox="0 0 6 12" xmlns:xlink="http://www.w3.org/1999/xlink" xmlns="http://www.w3.org/2000/svg">
  <linearGradient id="SVGID_1_" gradientUnits="userSpaceOnUse" x1="0" y1="6" x2="6" y2="6">
    <stop offset="0" style="stop-color:#1A1919;stop-opacity:0.5"/>
    <stop offset="1" style="stop-color:#000000;stop-opacity:0.5"/>
  </linearGradient>
  <path fill="url(#SVGID_1_)" d="M0,0v12h6V0H0z M4,7.834c0,0.275-0.224,0.5-0.5,0.5S3,8.109,3,7.834V5.916&#xD;&#xA;&#x9;&#x9;c0-0.275,0.224-0.5,0.5-0.5S4,5.641,4,5.916V7.834z M3.5,4C3.224,4,3,3.776,3,3.5S3.224,3,3.5,3S4,3.224,4,3.5S3.776,4,3.5,4z"/>
</svg>