<svg version="1.2" baseProfile="tiny" viewBox="0 0 45.500 40.000" xmlns:xlink="http://www.w3.org/1999/xlink" xmlns="http://www.w3.org/2000/svg">
<path style="fill:#ffffff;" d="M44.09,37.135L23.729,1.688c-0.184-0.32-0.524-0.518-0.894-0.519c-0.001,0-0.001,0-0.002,0    c-0.368,0-0.709,0.196-0.894,0.515L1.309,37.279c-0.185,0.321-0.186,0.714-0.001,1.034c0.185,0.319,0.525,0.517,0.895,0.517h41.076    c0.007,0,0.014,0,0.018,0c0.57,0,1.034-0.462,1.034-1.032C44.33,37.545,44.239,37.315,44.09,37.135z M3.995,36.766l10.908-18.82    l1.038-1.789L22.829,4.27l6.828,11.887l0.584,1.019l11.254,19.591H3.995z M21.593,22.592l2.043,2.806l2.99-6.437l-1.159,9.241    l2.013-2.194l-0.792,3.141l5.948-4.879l-5.612,9.638l3.386-0.793l-2.469,2.135h-2.565l1.648-4.026l-3.051,1.952l0.184-3.661    l-1.222,2.258l-0.387-1.586l-0.62,2.256l-1.677-3.688l-0.58,4.391l-1.708-2.074l0.275,4.18h-1.616l-2.899-7.015l2.899,2.896    l-1.45-6.892l2.944,3.904l-1.341-10.278l5.094,9.422L21.593,22.592z"/>
</svg>