<svg version="1.2" baseProfile="tiny" id="EdgeSVG_Ymh2s" x="0px" y="0px" width="11.852px" height="37px" viewBox="0 0 11.852 37" xmlns:xlink="http://www.w3.org/1999/xlink" xmlns="http://www.w3.org/2000/svg">
  <linearGradient id="SVGID_1_" gradientUnits="userSpaceOnUse" x1="0" y1="18.6514" x2="11.8521" y2="18.6514">
    <stop offset="0" style="stop-color:#000000;stop-opacity:0.5"/>
    <stop offset="1" style="stop-color:#000000;stop-opacity:0.5"/>
  </linearGradient>
  <path fill="url(#SVGID_1_)" d="M11.792,32.232c-0.031-0.372-0.065-0.77-0.065-1.405V19.178c0-0.312,0.015-0.579,0.029-0.825&#xD;&#xA;&#x9;&#x9;c0.041-0.751,0.08-1.461-0.293-2.613c-0.335-1.025-0.895-1.776-1.265-2.273c-0.121-0.162-0.229-0.293-0.277-0.391&#xD;&#xA;&#x9;&#x9;c-0.072-0.182-0.064-0.869-0.059-1.422l0.007-0.747c0-1.08-0.458-5.039-0.632-6.456C9.419,4.209,9.467,3.953,9.467,3.75&#xD;&#xA;&#x9;&#x9;c0-0.094-0.015-0.196-0.038-0.324c-0.033-0.17-0.088-0.391-0.182-0.741c-0.025-0.094-0.052-0.188-0.073-0.27&#xD;&#xA;&#x9;&#x9;c0.145-0.23,0.167-0.463,0.167-0.587c0-0.706-0.666-1.525-1.525-1.525h-3.78c-0.859,0-1.525,0.82-1.525,1.525&#xD;&#xA;&#x9;&#x9;c0,0.124,0.022,0.355,0.167,0.586C2.655,2.5,2.629,2.592,2.604,2.685c-0.093,0.35-0.148,0.57-0.182,0.741&#xD;&#xA;&#x9;&#x9;C2.398,3.553,2.385,3.656,2.385,3.75c0,0.203,0.047,0.458,0.23,0.699c-0.174,1.413-0.634,5.393-0.634,6.458l0.006,0.749&#xD;&#xA;&#x9;&#x9;c0.006,0.552,0.015,1.24-0.052,1.409c-0.053,0.109-0.161,0.239-0.282,0.402c-0.37,0.498-0.93,1.249-1.263,2.273&#xD;&#xA;&#x9;&#x9;c-0.376,1.151-0.337,1.862-0.295,2.614c0.014,0.246,0.029,0.513,0.029,0.825v11.649c0,0.637-0.033,1.033-0.064,1.406&#xD;&#xA;&#x9;&#x9;C0.029,32.607,0,32.96,0,33.459c0,1.078,0.073,1.602,0.311,2.241C0.657,36.623,1.225,37,2.27,37h7.312&#xD;&#xA;&#x9;&#x9;c1.049,0,1.616-0.377,1.957-1.297c0.241-0.638,0.313-1.162,0.313-2.244C11.852,32.959,11.824,32.606,11.792,32.232z"/>
</svg>