<svg version="1.2" baseProfile="tiny" id="EdgeSVG_S9bH2" x="0px" y="0px" width="14.001px" height="37.094px" viewBox="0 0 14.001 37.094" xmlns:xlink="http://www.w3.org/1999/xlink" xmlns="http://www.w3.org/2000/svg">
  <linearGradient id="SVGID_3_" gradientUnits="userSpaceOnUse" x1="1" y1="18.7559" x2="13.002" y2="18.7559">
    <stop offset="0" style="stop-color:#000000;stop-opacity:0.05"/>
    <stop offset="0.0314" style="stop-color:#252525;stop-opacity:0.05"/>
    <stop offset="0.0801" style="stop-color:#585858;stop-opacity:0.05"/>
    <stop offset="0.1311" style="stop-color:#848484;stop-opacity:0.05"/>
    <stop offset="0.1834" style="stop-color:#AAAAAA;stop-opacity:0.05"/>
    <stop offset="0.2375" style="stop-color:#C9C9C9;stop-opacity:0.05"/>
    <stop offset="0.2939" style="stop-color:#E1E1E1;stop-opacity:0.05"/>
    <stop offset="0.3536" style="stop-color:#F2F2F2;stop-opacity:0.05"/>
    <stop offset="0.4188" style="stop-color:#FCFCFC;stop-opacity:0.05"/>
    <stop offset="0.5" style="stop-color:#FFFFFF;stop-opacity:0.05"/>
    <stop offset="0.5812" style="stop-color:#FCFCFC;stop-opacity:0.05"/>
    <stop offset="0.6464" style="stop-color:#F2F2F2;stop-opacity:0.05"/>
    <stop offset="0.7061" style="stop-color:#E1E1E1;stop-opacity:0.05"/>
    <stop offset="0.7625" style="stop-color:#C9C9C9;stop-opacity:0.05"/>
    <stop offset="0.8166" style="stop-color:#AAAAAA;stop-opacity:0.05"/>
    <stop offset="0.8689" style="stop-color:#848484;stop-opacity:0.05"/>
    <stop offset="0.9199" style="stop-color:#585858;stop-opacity:0.05"/>
    <stop offset="0.9686" style="stop-color:#252525;stop-opacity:0.05"/>
    <stop offset="1" style="stop-color:#000000;stop-opacity:0.05"/>
  </linearGradient>
  <path fill="url(#SVGID_3_)" d="M7,1.418c0,0,1.234,0,1.563,0c0.326,0,0.326,0.125,0.326,0.287s0,1.699,0,1.816&#xD;&#xA;&#x9;&#x9;c0,0.117,0.051,0.147,0.168,0.147c0.118,0,0.118,0.177,0,0.177c-0.117,0-0.168,0.014-0.168,0.147c0,0.132,0.034,0.22,0.137,0.22&#xD;&#xA;&#x9;&#x9;c0.099,0,0.156,0,0.156,0c0.593,0,0.624,0.074,0.624,0.192S9.592,4.552,9.044,4.552c0,0-0.125,0.708,0,0.917&#xD;&#xA;&#x9;&#x9;c0,0,2.459,1.792,3.375,4.417s0.416,4.208,0.291,4.542s-0.25,0.542-0.25,0.709c0,0.166,0,12.499,0,12.708&#xD;&#xA;&#x9;&#x9;c0,0.208,0.48,0.834,0.532,1.291c0.052,0.459-0.096,3.206-0.596,5.039c-0.219,0.672-0.582,1.371-0.827,1.549&#xD;&#xA;&#x9;&#x9;c-0.244,0.178-0.714,0.371-1.202,0.371c-0.487,0-0.751-0.064-0.994-0.162c-0.246-0.097-1.016-0.37-1.016-0.37&#xD;&#xA;&#x9;&#x9;s-0.149,0.161-0.263,0.322c-0.112,0.161-0.226,0.21-0.394,0.21c-0.17,0-0.701,0-0.701,0h0.002c0,0-0.531,0-0.701,0&#xD;&#xA;&#x9;&#x9;c-0.168,0-0.281-0.049-0.394-0.21c-0.113-0.161-0.263-0.322-0.263-0.322s-0.77,0.273-1.016,0.37&#xD;&#xA;&#x9;&#x9;c-0.243,0.098-0.507,0.162-0.994,0.162c-0.488,0-0.958-0.193-1.202-0.371c-0.245-0.178-0.608-0.877-0.827-1.549&#xD;&#xA;&#x9;&#x9;c-0.5-1.833-0.647-4.58-0.596-5.039c0.052-0.457,0.532-1.083,0.532-1.291c0-0.209,0-12.542,0-12.708&#xD;&#xA;&#x9;&#x9;c0-0.167-0.125-0.375-0.25-0.709S0.667,12.51,1.583,9.885s3.375-4.417,3.375-4.417c0.125-0.208,0-0.917,0-0.917&#xD;&#xA;&#x9;&#x9;c-0.548,0-0.762-0.029-0.762-0.146S4.228,4.213,4.82,4.213c0,0,0.058,0,0.156,0c0.103,0,0.137-0.088,0.137-0.22&#xD;&#xA;&#x9;&#x9;c0-0.133-0.051-0.147-0.168-0.147c-0.118,0-0.118-0.177,0-0.177c0.117,0,0.168-0.03,0.168-0.147c0-0.118,0-1.655,0-1.816&#xD;&#xA;&#x9;&#x9;s0-0.287,0.326-0.287c0.328,0,1.563,0,1.563,0H7z"/>
  <linearGradient id="SVGID_4_" gradientUnits="userSpaceOnUse" x1="7.001" y1="1.6685" x2="7.001" y2="35.8442">
    <stop offset="0" style="stop-color:#FFFFFF;stop-opacity:0"/>
    <stop offset="0.1448" style="stop-color:#FFFFFF;stop-opacity:0.05"/>
    <stop offset="0.7929" style="stop-color:#FFFFFF;stop-opacity:0.05"/>
    <stop offset="0.8567" style="stop-color:#FFFFFF;stop-opacity:0.05"/>
    <stop offset="1" style="stop-color:#FFFFFF;stop-opacity:0"/>
  </linearGradient>
  <path fill="url(#SVGID_4_)" d="M10.367,35.844c-0.45,0-0.686-0.058-0.901-0.145c-0.249-0.098-1.024-0.373-1.024-0.373l-0.155-0.056&#xD;&#xA;&#x9;&#x9;l-0.112,0.121c0,0-0.161,0.174-0.283,0.349c-0.066,0.095-0.103,0.104-0.189,0.104h-1.4c-0.087,0-0.123-0.009-0.188-0.103&#xD;&#xA;&#x9;&#x9;c-0.123-0.176-0.284-0.35-0.284-0.35l-0.112-0.121l-0.155,0.056c0,0-0.775,0.275-1.023,0.373c-0.217,0.087-0.452,0.145-0.902,0.145&#xD;&#xA;&#x9;&#x9;c-0.42,0-0.841-0.168-1.055-0.323c-0.17-0.123-0.514-0.737-0.737-1.424c-0.493-1.81-0.629-4.539-0.585-4.934&#xD;&#xA;&#x9;&#x9;c0.024-0.212,0.183-0.508,0.31-0.745c0.13-0.245,0.225-0.422,0.225-0.574V15.136c0-0.162-0.066-0.316-0.149-0.512&#xD;&#xA;&#x9;&#x9;c-0.036-0.083-0.076-0.178-0.116-0.285c-0.149-0.399-0.571-1.896,0.293-4.371c0.88-2.522,3.262-4.28,3.286-4.297&#xD;&#xA;&#x9;&#x9;c0.223-0.333,0.142-0.921,0.099-1.162L5.186,4.402c0.092-0.06,0.178-0.178,0.178-0.409c0-0.081-0.015-0.169-0.062-0.241&#xD;&#xA;&#x9;&#x9;c0.055-0.087,0.062-0.184,0.062-0.23V1.706C5.323,1.68,5.352,1.668,5.439,1.668h3.123c0.088,0,0.116,0.011,0.117,0.012L8.639,3.522&#xD;&#xA;&#x9;&#x9;c0,0.046,0.007,0.143,0.062,0.23c-0.047,0.072-0.062,0.16-0.062,0.241c0,0.231,0.086,0.349,0.178,0.409L8.798,4.508&#xD;&#xA;&#x9;&#x9;C8.755,4.749,8.674,5.337,8.83,5.597c0.091,0.09,2.475,1.853,3.353,4.371c0.864,2.475,0.442,3.972,0.293,4.371&#xD;&#xA;&#x9;&#x9;c-0.04,0.107-0.08,0.202-0.116,0.285c-0.083,0.195-0.149,0.35-0.149,0.512v12.708c0,0.152,0.095,0.329,0.225,0.574&#xD;&#xA;&#x9;&#x9;c0.127,0.237,0.285,0.533,0.31,0.745c0.044,0.395-0.092,3.124-0.589,4.945c-0.22,0.675-0.563,1.289-0.732,1.412&#xD;&#xA;&#x9;&#x9;C11.208,35.676,10.787,35.844,10.367,35.844z"/>
  <linearGradient id="SVGID_5_" gradientUnits="userSpaceOnUse" x1="7.001" y1="1.4185" x2="7.001" y2="36.0942">
    <stop offset="0" style="stop-color:#000000;stop-opacity:0.05"/>
    <stop offset="0.009" style="stop-color:#000000;stop-opacity:0.1"/>
    <stop offset="0.0588" style="stop-color:#000000;stop-opacity:0.08"/>
    <stop offset="0.0679" style="stop-color:#000000;stop-opacity:0.15"/>
    <stop offset="0.0775" style="stop-color:#000000;stop-opacity:0.0863"/>
    <stop offset="0.0784" style="stop-color:#000000;stop-opacity:0.08"/>
    <stop offset="0.086" style="stop-color:#000000;stop-opacity:0.15"/>
    <stop offset="0.092" style="stop-color:#000000;stop-opacity:0.05"/>
    <stop offset="0.0928" style="stop-color:#000000;stop-opacity:0.052"/>
    <stop offset="0.1041" style="stop-color:#000000;stop-opacity:0.08"/>
    <stop offset="0.1297" style="stop-color:#000000;stop-opacity:0.25"/>
    <stop offset="0.1825" style="stop-color:#000000;stop-opacity:0.0819"/>
    <stop offset="0.2428" style="stop-color:#000000;stop-opacity:0.15"/>
    <stop offset="0.4827" style="stop-color:#000000;stop-opacity:0"/>
    <stop offset="0.7602" style="stop-color:#000000;stop-opacity:0.15"/>
    <stop offset="0.9367" style="stop-color:#000000;stop-opacity:0.09"/>
    <stop offset="1" style="stop-color:#000000;stop-opacity:0.2"/>
  </linearGradient>
  <path fill="url(#SVGID_5_)" d="M7,1.418c0,0,1.234,0,1.563,0c0.326,0,0.326,0.125,0.326,0.287s0,1.699,0,1.816&#xD;&#xA;&#x9;&#x9;c0,0.117,0.051,0.147,0.168,0.147c0.118,0,0.118,0.177,0,0.177c-0.117,0-0.168,0.014-0.168,0.147c0,0.132,0.034,0.22,0.137,0.22&#xD;&#xA;&#x9;&#x9;c0.099,0,0.156,0,0.156,0c0.593,0,0.624,0.074,0.624,0.192S9.592,4.552,9.044,4.552c0,0-0.125,0.708,0,0.917&#xD;&#xA;&#x9;&#x9;c0,0,2.459,1.792,3.375,4.417s0.416,4.208,0.291,4.542s-0.25,0.542-0.25,0.709c0,0.166,0,12.499,0,12.708&#xD;&#xA;&#x9;&#x9;c0,0.208,0.48,0.834,0.532,1.291c0.052,0.459-0.096,3.206-0.596,5.039c-0.219,0.672-0.582,1.371-0.827,1.549&#xD;&#xA;&#x9;&#x9;c-0.244,0.178-0.714,0.371-1.202,0.371c-0.487,0-0.751-0.064-0.994-0.162c-0.246-0.097-1.016-0.37-1.016-0.37&#xD;&#xA;&#x9;&#x9;s-0.149,0.161-0.263,0.322c-0.112,0.161-0.226,0.21-0.394,0.21c-0.17,0-0.701,0-0.701,0h0.002c0,0-0.531,0-0.701,0&#xD;&#xA;&#x9;&#x9;c-0.168,0-0.281-0.049-0.394-0.21c-0.113-0.161-0.263-0.322-0.263-0.322s-0.77,0.273-1.016,0.37&#xD;&#xA;&#x9;&#x9;c-0.243,0.098-0.507,0.162-0.994,0.162c-0.488,0-0.958-0.193-1.202-0.371c-0.245-0.178-0.608-0.877-0.827-1.549&#xD;&#xA;&#x9;&#x9;c-0.5-1.833-0.647-4.58-0.596-5.039c0.052-0.457,0.532-1.083,0.532-1.291c0-0.209,0-12.542,0-12.708&#xD;&#xA;&#x9;&#x9;c0-0.167-0.125-0.375-0.25-0.709S0.667,12.51,1.583,9.885s3.375-4.417,3.375-4.417c0.125-0.208,0-0.917,0-0.917&#xD;&#xA;&#x9;&#x9;c-0.548,0-0.762-0.029-0.762-0.146S4.228,4.213,4.82,4.213c0,0,0.058,0,0.156,0c0.103,0,0.137-0.088,0.137-0.22&#xD;&#xA;&#x9;&#x9;c0-0.133-0.051-0.147-0.168-0.147c-0.118,0-0.118-0.177,0-0.177c0.117,0,0.168-0.03,0.168-0.147c0-0.118,0-1.655,0-1.816&#xD;&#xA;&#x9;&#x9;s0-0.287,0.326-0.287c0.328,0,1.563,0,1.563,0H7z"/>
  <linearGradient id="SVGID_6_" gradientUnits="userSpaceOnUse" x1="7.002" y1="1.4229" x2="7.002" y2="5.5132">
    <stop offset="0" style="stop-color:#FFFFFF;stop-opacity:0.1"/>
    <stop offset="0.0181" style="stop-color:#FFFFFF;stop-opacity:0.45"/>
    <stop offset="0.0215" style="stop-color:#FFFFFF;stop-opacity:0.4183"/>
    <stop offset="0.0664" style="stop-color:#FFFFFF;stop-opacity:0"/>
    <stop offset="0.2519" style="stop-color:#FFFFFF;stop-opacity:0.1"/>
    <stop offset="0.54" style="stop-color:#FFFFFF;stop-opacity:0"/>
    <stop offset="0.549" style="stop-color:#FFFFFF;stop-opacity:0.35"/>
    <stop offset="0.5656" style="stop-color:#FFFFFF;stop-opacity:0.1"/>
    <stop offset="0.6742" style="stop-color:#FFFFFF;stop-opacity:0"/>
    <stop offset="0.6982" style="stop-color:#FFFFFF;stop-opacity:0.3281"/>
    <stop offset="0.6998" style="stop-color:#FFFFFF;stop-opacity:0.35"/>
    <stop offset="0.7421" style="stop-color:#FFFFFF;stop-opacity:0.0343"/>
    <stop offset="1" style="stop-color:#FFFFFF;stop-opacity:0"/>
  </linearGradient>
  <path fill="url(#SVGID_6_)" d="M9.048,4.553c0,0-0.13,0.71,0,0.92c0,0,0.02,0.02,0.06,0.04h-4.21c0.04-0.02,0.061-0.04,0.061-0.04&#xD;&#xA;&#x9;&#x9;c0.13-0.21,0-0.92,0-0.92c-0.55,0-0.761-0.03-0.761-0.15c0-0.12,0.03-0.19,0.62-0.19c0,0,0.061,0,0.16,0&#xD;&#xA;&#x9;&#x9;c0.101,0,0.141-0.09,0.141-0.22s-0.061-0.15-0.171-0.15c-0.119,0-0.119-0.17,0-0.17c0.11,0,0.171-0.03,0.171-0.15v-1.82&#xD;&#xA;&#x9;&#x9;c0-0.16,0-0.28,0.319-0.28c0.33,0,1.561,0,1.561,0s1.239,0,1.56,0c0.33,0,0.33,0.12,0.33,0.28v1.82c0,0.12,0.05,0.15,0.17,0.15&#xD;&#xA;&#x9;&#x9;s0.12,0.17,0,0.17s-0.17,0.02-0.17,0.15s0.04,0.22,0.14,0.22c0.101,0,0.15,0,0.15,0c0.6,0,0.63,0.07,0.63,0.19&#xD;&#xA;&#x9;&#x9;C9.808,4.523,9.588,4.553,9.048,4.553z"/>
  <g>
    <linearGradient id="SVGID_7_" gradientUnits="userSpaceOnUse" x1="4.9297" y1="1.4229" x2="4.9297" y2="35.9937">
      <stop offset="0.003" style="stop-color:#FFFFFF;stop-opacity:0.05"/>
      <stop offset="0.0196" style="stop-color:#FFFFFF;stop-opacity:0.1"/>
      <stop offset="0.0377" style="stop-color:#FFFFFF;stop-opacity:0"/>
      <stop offset="0.0754" style="stop-color:#FFFFFF;stop-opacity:0"/>
      <stop offset="0.0867" style="stop-color:#FFFFFF;stop-opacity:0"/>
      <stop offset="0.1554" style="stop-color:#FFFFFF;stop-opacity:0"/>
      <stop offset="0.2202" style="stop-color:#FFFFFF;stop-opacity:0.15"/>
      <stop offset="0.3469" style="stop-color:#FFFFFF;stop-opacity:0"/>
      <stop offset="0.3877" style="stop-color:#FFFFFF;stop-opacity:0.0221"/>
      <stop offset="0.6244" style="stop-color:#FFFFFF;stop-opacity:0.15"/>
      <stop offset="0.7557" style="stop-color:#FFFFFF;stop-opacity:0"/>
      <stop offset="0.8763" style="stop-color:#FFFFFF;stop-opacity:0.1"/>
      <stop offset="0.9563" style="stop-color:#FFFFFF;stop-opacity:0"/>
    </linearGradient>
    <path fill="url(#SVGID_7_)" d="M6.658,1.423c-0.08,0-0.08,0.12-0.08,0.28v1.82c0,0.12-0.011,0.15-0.03,0.15&#xD;&#xA;&#x9;&#x9;&#x9;c-0.03,0-0.03,0.17,0,0.17c0.02,0,0.03,0.02,0.03,0.15s0,0.22-0.03,0.22c-0.021,0-0.03,0-0.03,0c-0.13,0-0.14,0.07-0.14,0.19&#xD;&#xA;&#x9;&#x9;&#x9;c0,0.12,0.05,0.15,0.17,0.15c0,0,0.03,0.71,0,0.92c0,0-0.55,1.79-0.75,4.41c-0.21,2.63-0.101,4.209-0.07,4.54&#xD;&#xA;&#x9;&#x9;&#x9;c0.03,0.34,0.061,0.55,0.061,0.71v12.71c0,0.21-0.11,0.83-0.12,1.29s0.02,3.21,0.13,5.04c0.05,0.601,0.11,1.23,0.18,1.48&#xD;&#xA;&#x9;&#x9;&#x9;c-0.05,0.029-0.109,0.06-0.17,0.1c-0.08-0.109-0.16-0.189-0.16-0.189s-0.77,0.27-1.02,0.369c-0.05,0.021-0.101,0.04-0.16,0.061&#xD;&#xA;&#x9;&#x9;&#x9;c-0.15-0.07-0.271-0.17-0.36-0.271c-0.149-0.18-0.38-0.88-0.52-1.55c-0.32-1.83-0.41-4.58-0.38-5.04&#xD;&#xA;&#x9;&#x9;&#x9;c0.029-0.46,0.34-1.08,0.34-1.29v-12.71c0-0.16-0.08-0.37-0.16-0.71c-0.08-0.33-0.4-1.91,0.18-4.54&#xD;&#xA;&#x9;&#x9;&#x9;c0.58-2.62,2.141-4.41,2.141-4.41c0.08-0.21,0-0.92,0-0.92c-0.351,0-0.48-0.03-0.48-0.15c0-0.12,0.021-0.19,0.391-0.19&#xD;&#xA;&#x9;&#x9;&#x9;c0,0,0.04,0,0.1,0c0.07,0,0.09-0.09,0.09-0.22s-0.03-0.15-0.11-0.15c-0.069,0-0.069-0.17,0-0.17c0.08,0,0.11-0.03,0.11-0.15v-1.82&#xD;&#xA;&#x9;&#x9;&#x9;c0-0.16,0-0.28,0.2-0.28H6.658z"/>
    <linearGradient id="SVGID_8_" gradientUnits="userSpaceOnUse" x1="9.0723" y1="1.4229" x2="9.0723" y2="35.9937">
      <stop offset="0.003" style="stop-color:#FFFFFF;stop-opacity:0.05"/>
      <stop offset="0.0196" style="stop-color:#FFFFFF;stop-opacity:0.1"/>
      <stop offset="0.0377" style="stop-color:#FFFFFF;stop-opacity:0"/>
      <stop offset="0.0754" style="stop-color:#FFFFFF;stop-opacity:0"/>
      <stop offset="0.0867" style="stop-color:#FFFFFF;stop-opacity:0"/>
      <stop offset="0.1554" style="stop-color:#FFFFFF;stop-opacity:0"/>
      <stop offset="0.2202" style="stop-color:#FFFFFF;stop-opacity:0.15"/>
      <stop offset="0.3469" style="stop-color:#FFFFFF;stop-opacity:0"/>
      <stop offset="0.3877" style="stop-color:#FFFFFF;stop-opacity:0.0221"/>
      <stop offset="0.6244" style="stop-color:#FFFFFF;stop-opacity:0.15"/>
      <stop offset="0.7557" style="stop-color:#FFFFFF;stop-opacity:0"/>
      <stop offset="0.8763" style="stop-color:#FFFFFF;stop-opacity:0.1"/>
      <stop offset="0.9563" style="stop-color:#FFFFFF;stop-opacity:0"/>
    </linearGradient>
    <path fill="url(#SVGID_8_)" d="M10.418,34.173c-0.141,0.67-0.37,1.37-0.53,1.55c-0.08,0.101-0.21,0.2-0.36,0.271&#xD;&#xA;&#x9;&#x9;&#x9;c-0.05-0.021-0.1-0.04-0.149-0.061c-0.25-0.1-1.021-0.369-1.021-0.369s-0.08,0.08-0.16,0.189c-0.06-0.03-0.119-0.06-0.17-0.09&#xD;&#xA;&#x9;&#x9;&#x9;c0.051-0.24,0.131-0.88,0.17-1.49c0.12-1.83,0.15-4.58,0.141-5.04s-0.12-1.08-0.12-1.29v-12.71c0-0.16,0.03-0.37,0.05-0.71&#xD;&#xA;&#x9;&#x9;&#x9;c0.03-0.33,0.141-1.91-0.06-4.54c-0.2-2.62-0.75-4.41-0.75-4.41c-0.03-0.21,0-0.92,0-0.92c0.12,0,0.17-0.03,0.17-0.15&#xD;&#xA;&#x9;&#x9;&#x9;c0-0.12-0.01-0.19-0.141-0.19c0,0-0.01,0-0.04,0c-0.02,0-0.029-0.09-0.029-0.22s0.01-0.15,0.04-0.15c0.029,0,0.029-0.17,0-0.17&#xD;&#xA;&#x9;&#x9;&#x9;c-0.03,0-0.04-0.03-0.04-0.15v-1.82c0-0.16,0-0.28-0.07-0.28h0.64c0.21,0,0.21,0.12,0.21,0.28v1.82c0,0.12,0.03,0.15,0.101,0.15&#xD;&#xA;&#x9;&#x9;&#x9;c0.08,0,0.08,0.17,0,0.17c-0.07,0-0.101,0.02-0.101,0.15s0.021,0.22,0.08,0.22c0.07,0,0.101,0,0.101,0&#xD;&#xA;&#x9;&#x9;&#x9;c0.38,0,0.399,0.07,0.399,0.19c0,0.12-0.14,0.15-0.479,0.15c0,0-0.08,0.71,0,0.92c0,0,1.55,1.79,2.13,4.41&#xD;&#xA;&#x9;&#x9;&#x9;c0.58,2.63,0.27,4.209,0.19,4.54c-0.08,0.34-0.16,0.55-0.16,0.71v12.71c0,0.21,0.3,0.83,0.33,1.29&#xD;&#xA;&#x9;&#x9;&#x9;C10.828,29.593,10.728,32.343,10.418,34.173z"/>
  </g>
  <g>
    <linearGradient id="SVGID_9_" gradientUnits="userSpaceOnUse" x1="4.6328" y1="33.6279" x2="4.6328" y2="36.0938">
      <stop offset="0" style="stop-color:#000000;stop-opacity:0.1"/>
      <stop offset="0.0896" style="stop-color:#000000;stop-opacity:0.0955"/>
      <stop offset="1" style="stop-color:#000000;stop-opacity:0.05"/>
    </linearGradient>
    <path fill="url(#SVGID_9_)" d="M5.984,35.955c-0.025-0.023-0.043-0.044-0.061-0.071c-0.111-0.167-0.258-0.328-0.258-0.328&#xD;&#xA;&#x9;&#x9;&#x9;s-0.768,0.278-1.014,0.376c-0.238,0.096-0.503,0.162-0.987,0.162c-0.098,0-0.189-0.005-0.282-0.022&#xD;&#xA;&#x9;&#x9;&#x9;c-0.012-0.012-0.018-0.017-0.031-0.021c-0.251-0.154,0.245-2.279,0.354-2.363c0.104-0.078,0.825-0.078,1.146,0&#xD;&#xA;&#x9;&#x9;&#x9;C5.172,33.771,5.652,35.269,5.984,35.955z"/>
    <linearGradient id="SVGID_10_" gradientUnits="userSpaceOnUse" x1="9.3691" y1="33.6279" x2="9.3691" y2="36.0938">
      <stop offset="0" style="stop-color:#000000;stop-opacity:0.1"/>
      <stop offset="0.0896" style="stop-color:#000000;stop-opacity:0.0955"/>
      <stop offset="1" style="stop-color:#000000;stop-opacity:0.05"/>
    </linearGradient>
    <path fill="url(#SVGID_10_)" d="M8.019,35.955c0.023-0.023,0.042-0.044,0.061-0.071c0.11-0.167,0.258-0.328,0.258-0.328&#xD;&#xA;&#x9;&#x9;&#x9;s0.767,0.278,1.012,0.376c0.24,0.096,0.504,0.162,0.988,0.162c0.099,0,0.19-0.005,0.283-0.022&#xD;&#xA;&#x9;&#x9;&#x9;c0.012-0.012,0.018-0.017,0.029-0.021c0.252-0.154-0.245-2.279-0.354-2.363c-0.103-0.078-0.823-0.078-1.146,0&#xD;&#xA;&#x9;&#x9;&#x9;C8.831,33.771,8.349,35.269,8.019,35.955z"/>
  </g>
  <g>
    <linearGradient id="SVGID_11_" gradientUnits="userSpaceOnUse" x1="3.1309" y1="4.8232" x2="3.1309" y2="34.0737">
      <stop offset="0" style="stop-color:#FFFFFF;stop-opacity:0.05"/>
      <stop offset="0.2655" style="stop-color:#FFFFFF;stop-opacity:0.2"/>
      <stop offset="0.9342" style="stop-color:#FFFFFF;stop-opacity:0.109"/>
      <stop offset="1" style="stop-color:#FFFFFF;stop-opacity:0.1"/>
    </linearGradient>
    <path fill="url(#SVGID_11_)" d="M5.218,6.413c-0.08,0.52-1.18,1.9-2.021,2.62c-0.829,0.73-1.46,1.44-1.71,2.71&#xD;&#xA;&#x9;&#x9;&#x9;s-0.159,2.04,0,2.689c0.171,0.65,0.171,0.94,0.171,2.601v10.46c0,0.35,0,0.689,0.1,0.96c0.11,0.27-0.4,0.36-0.5,0.71&#xD;&#xA;&#x9;&#x9;&#x9;s-0.04,2.46,0.21,3.73c0.12,0.59,0.16,0.97,0.12,1.18c-0.49-1.83-0.63-4.49-0.58-4.94c0.05-0.46,0.53-1.08,0.53-1.29v-12.71&#xD;&#xA;&#x9;&#x9;&#x9;c0-0.16-0.12-0.37-0.25-0.71c-0.12-0.33-0.62-1.91,0.3-4.54c0.91-2.62,3.37-4.41,3.37-4.41c0.08-0.12,0.06-0.42,0.04-0.65&#xD;&#xA;&#x9;&#x9;&#x9;c0.14,0.02,0.21,0.07,0.22,0.15C5.237,5.243,5.308,5.893,5.218,6.413z"/>
    <linearGradient id="SVGID_12_" gradientUnits="userSpaceOnUse" x1="10.8691" y1="4.8232" x2="10.8691" y2="34.0737">
      <stop offset="0" style="stop-color:#FFFFFF;stop-opacity:0.05"/>
      <stop offset="0.2655" style="stop-color:#FFFFFF;stop-opacity:0.2"/>
      <stop offset="0.9342" style="stop-color:#FFFFFF;stop-opacity:0.109"/>
      <stop offset="1" style="stop-color:#FFFFFF;stop-opacity:0.1"/>
    </linearGradient>
    <path fill="url(#SVGID_12_)" d="M8.782,6.413c0.08,0.52,1.18,1.9,2.021,2.62c0.829,0.73,1.46,1.44,1.71,2.71s0.159,2.04,0,2.689&#xD;&#xA;&#x9;&#x9;&#x9;c-0.171,0.65-0.171,0.94-0.171,2.601v10.46c0,0.35,0,0.689-0.1,0.96c-0.11,0.27,0.4,0.36,0.5,0.71s0.04,2.46-0.21,3.73&#xD;&#xA;&#x9;&#x9;&#x9;c-0.12,0.59-0.16,0.97-0.12,1.18c0.49-1.83,0.63-4.49,0.58-4.94c-0.05-0.46-0.53-1.08-0.53-1.29v-12.71&#xD;&#xA;&#x9;&#x9;&#x9;c0-0.16,0.12-0.37,0.25-0.71c0.12-0.33,0.62-1.91-0.3-4.54c-0.91-2.62-3.37-4.41-3.37-4.41c-0.08-0.12-0.06-0.42-0.04-0.65&#xD;&#xA;&#x9;&#x9;&#x9;c-0.14,0.02-0.21,0.07-0.22,0.15C8.763,5.243,8.692,5.893,8.782,6.413z"/>
  </g>
</svg>