<svg version="1.2" baseProfile="tiny" viewBox="0 0 11.502 34.425" xmlns:xlink="http://www.w3.org/1999/xlink" xmlns="http://www.w3.org/2000/svg">
<path style="fill:#ffffff;" d="M9.117,34.425c-0.45,0-0.686-0.058-0.901-0.145c-0.249-0.098-1.024-0.373-1.024-0.373l-0.155-0.056   l-0.112,0.121c0,0-0.161,0.174-0.283,0.349c-0.066,0.095-0.103,0.104-0.189,0.104h-1.4c-0.087,0-0.123-0.009-0.188-0.103   c-0.123-0.176-0.284-0.35-0.284-0.35l-0.112-0.121l-0.155,0.056c0,0-0.775,0.275-1.023,0.373c-0.217,0.087-0.452,0.145-0.902,0.145   c-0.42,0-0.841-0.168-1.055-0.323c-0.17-0.123-0.514-0.737-0.737-1.424c-0.493-1.81-0.629-4.539-0.585-4.934   C0.032,27.533,0.19,27.237,0.317,27c0.13-0.245,0.225-0.422,0.225-0.574V13.717c0-0.162-0.066-0.316-0.149-0.512   c-0.036-0.083-0.076-0.178-0.116-0.285c-0.149-0.399-0.571-1.896,0.293-4.371c0.88-2.522,3.262-4.28,3.286-4.297   C4.078,3.918,3.997,3.331,3.954,3.09L3.936,2.983c0.092-0.06,0.178-0.178,0.178-0.409c0-0.081-0.015-0.169-0.062-0.241   c0.055-0.087,0.062-0.184,0.062-0.23V0c0.58,0,3.267,0.004,3.268,0.004l0.008,2.099c0,0.046,0.007,0.143,0.062,0.23   c-0.047,0.072-0.062,0.16-0.062,0.241c0,0.231,0.086,0.349,0.178,0.409L7.548,3.09C7.505,3.331,7.424,3.918,7.58,4.179   c0.091,0.09,2.475,1.853,3.353,4.371c0.864,2.475,0.442,3.972,0.293,4.371c-0.04,0.107-0.08,0.202-0.116,0.285   c-0.083,0.195-0.149,0.35-0.149,0.512v12.708c0,0.152,0.095,0.329,0.225,0.574c0.127,0.237,0.285,0.533,0.31,0.745   c0.044,0.395-0.092,3.124-0.589,4.945c-0.22,0.675-0.563,1.289-0.732,1.412C9.958,34.257,9.537,34.425,9.117,34.425z"/>
</svg>