<svg version="1.2" baseProfile="tiny" viewBox="0 0 13.376 37.0" xmlns:xlink="http://www.w3.org/1999/xlink" xmlns="http://www.w3.org/2000/svg">
<path style="fill:#ffffff;" d="M1.0,33.889C1.0,35.0501,1.949,35.9999,3.1101,35.9999L10.2639,35.9999C11.425,35.9999,12.3749,35.0501,12.3749,33.889L12.3749,10.4921C12.3749,10.2009,12.229,9.7769,12.05,9.549L8.74,5.3239L8.74,4.0471L9.158,4.0471L9.158,3.6959L8.745,3.6959L8.745,3.6959L8.745,1.6639L8.44,1.416L4.878,1.416L4.878,1.416L4.636,1.6639L4.636,3.6959L4.208,3.6959L4.208,4.0482L4.208,4.0482L4.636,5.325L4.636,5.325L1.325,9.5478C1.1461,9.7769,1.0,10.2009,1.0,10.4921L1.0,33.889Z"/>
</svg>