<svg version="1.2" baseProfile="tiny" viewBox="0 0 10.984 34.040" xmlns:xlink="http://www.w3.org/1999/xlink" xmlns="http://www.w3.org/2000/svg">
<path style="fill:#ffffff;" d="M1.962,34.04C0.88,34.04,0,33.16,0,32.079v-5.813c0-0.255,0.14-0.61,0.304-0.774   c0.235-0.235,0.235-0.617,0-0.852c-0.14-0.148-0.14-1.366,0.001-1.515c0.234-0.235,0.234-0.617-0.001-0.852   c-0.14-0.148-0.14-1.366,0.001-1.515c0.234-0.235,0.234-0.617-0.001-0.852c-0.14-0.149-0.14-1.366,0.001-1.515   c0.234-0.234,0.234-0.617-0.001-0.852c-0.14-0.148-0.14-1.366,0.001-1.515c0.234-0.235,0.234-0.617-0.001-0.852   C0.14,15.01,0,14.655,0,14.4V8.988c0-0.259,0.136-0.651,0.296-0.855l3.292-4.202V0.274L3.854,0h3.301L7.4,0.29L7.396,3.931   l3.293,4.202c0.16,0.204,0.296,0.596,0.296,0.855v5.411c0,0.255-0.14,0.61-0.305,0.775c-0.234,0.235-0.234,0.617,0,0.852   c0.14,0.149,0.14,1.366,0,1.515c-0.234,0.235-0.234,0.617,0,0.852c0.14,0.148,0.14,1.366,0,1.515c-0.234,0.235-0.234,0.617,0,0.852   c0.14,0.148,0.14,1.366,0,1.515c-0.113,0.113-0.176,0.264-0.176,0.425s0.063,0.313,0.176,0.426c0.14,0.148,0.14,1.366,0,1.515   c-0.113,0.113-0.176,0.264-0.176,0.426c0,0.161,0.063,0.313,0.176,0.426c0.164,0.164,0.304,0.518,0.305,0.772v5.815   c0,1.081-0.881,1.961-1.962,1.961H1.962z"/>
</svg>