<svg version="1.2" baseProfile="tiny" viewBox="0 0 8.85 34.202" xmlns:xlink="http://www.w3.org/1999/xlink" xmlns="http://www.w3.org/2000/svg">
<path style="fill:#ffffff;" d="M8.798,31.061c-0.034-0.405-0.067-0.837-0.067-1.529v-11.65c0-0.338,0.015-0.628,0.028-0.896   c0.036-0.69,0.063-1.19-0.224-2.077c-0.264-0.795-0.718-1.406-1.048-1.852c-0.208-0.278-0.37-0.498-0.461-0.717   c-0.186-0.457-0.177-1.091-0.163-1.969C6.865,10.135,6.87,9.882,6.87,9.612c0-1.162-0.646-6.515-0.669-6.682   C6.17,2.787,6.164,2.535,6.431,2.311C6.398,2.167,6.344,1.971,6.292,1.774C6.148,1.236,6.09,1.001,6.09,0.842   c0-0.102,0.02-0.716,0.087-0.834H4.42L2.662,0C2.72,0.101,2.75,0.71,2.75,0.842c0,0.159-0.059,0.395-0.202,0.933   c-0.052,0.196-0.107,0.392-0.139,0.53C2.658,2.5,2.682,2.732,2.654,2.898C2.624,3.097,1.979,8.43,1.979,9.612l0.005,0.716   c0.01,0.896,0.018,1.544-0.163,2.015c-0.089,0.215-0.253,0.435-0.459,0.711c-0.333,0.445-0.79,1.057-1.048,1.854   c-0.292,0.883-0.264,1.379-0.226,2.066c0.015,0.271,0.031,0.564,0.031,0.907v11.65c0,0.692-0.035,1.124-0.068,1.529   C0.025,31.397,0,31.713,0,32.162c0,0.981,0.064,1.309,0.219,1.717c0.119,0.323,0.119,0.323,0.551,0.323h0.175   c0.788,0,1.132-0.152,1.53-0.329c0.445-0.197,0.949-0.421,1.975-0.421c1.024,0,1.528,0.224,1.974,0.421   c0.398,0.177,0.742,0.329,1.531,0.329h0.125c0.434,0,0.434,0,0.554-0.327c0.153-0.405,0.217-0.732,0.217-1.713   C8.85,31.713,8.825,31.397,8.798,31.061z"/>
</svg>