<svg version="1.2" baseProfile="tiny" id="EdgeSVG_Ymh2s" x="0px" y="0px" width="11.852px" height="37px" viewBox="0 0 11.852 37" xmlns:xlink="http://www.w3.org/1999/xlink" xmlns="http://www.w3.org/2000/svg">
  <linearGradient id="SVGID_3_" gradientUnits="userSpaceOnUse" x1="1" y1="18.6514" x2="10.8521" y2="18.6514">
    <stop offset="0" style="stop-color:#000000;stop-opacity:0.15"/>
    <stop offset="0.0448" style="stop-color:#000000;stop-opacity:0.1366"/>
    <stop offset="0.5" style="stop-color:#000000;stop-opacity:0"/>
    <stop offset="0.9552" style="stop-color:#000000;stop-opacity:0.1366"/>
    <stop offset="1" style="stop-color:#000000;stop-opacity:0.15"/>
  </linearGradient>
  <path fill="url(#SVGID_3_)" d="M5.926,36c0,0,2.975,0,3.656,0c0.68,0,0.838-0.155,1.021-0.65c0.188-0.496,0.25-0.898,0.25-1.891&#xD;&#xA;&#x9;&#x9;s-0.125-1.362-0.125-2.632c0-1.301,0-10.41,0-11.649s0.218-1.797-0.216-3.127c-0.434-1.334-1.332-2.139-1.52-2.604&#xD;&#xA;&#x9;&#x9;c-0.187-0.465-0.122-1.333-0.122-2.541c0-1.208-0.651-6.599-0.683-6.786c-0.031-0.184,0.28-0.155,0.28-0.371&#xD;&#xA;&#x9;&#x9;c0-0.217-0.371-1.394-0.371-1.61c0-0.218,0.245-0.155,0.245-0.312c0-0.152-0.217-0.525-0.525-0.525c-0.311,0-1.89,0-1.89,0&#xD;&#xA;&#x9;&#x9;s-1.579,0-1.89,0c-0.309,0-0.525,0.373-0.525,0.525c0,0.157,0.246,0.094,0.246,0.312c0,0.216-0.371,1.393-0.371,1.61&#xD;&#xA;&#x9;&#x9;c0,0.216,0.311,0.188,0.279,0.371c-0.032,0.187-0.683,5.578-0.683,6.786c0,1.208,0.063,2.075-0.123,2.541&#xD;&#xA;&#x9;&#x9;c-0.187,0.465-1.085,1.27-1.518,2.604c-0.435,1.33-0.217,1.888-0.217,3.127s0,10.349,0,11.649c0,1.27-0.124,1.64-0.124,2.632&#xD;&#xA;&#x9;&#x9;s0.063,1.395,0.248,1.891C1.434,35.845,1.589,36,2.27,36C2.951,36,5.926,36,5.926,36z"/>
  <linearGradient id="SVGID_4_" gradientUnits="userSpaceOnUse" x1="5.9258" y1="1.3022" x2="5.9258" y2="36.0005">
    <stop offset="0.006" style="stop-color:#000000;stop-opacity:0.2"/>
    <stop offset="0.0181" style="stop-color:#000000;stop-opacity:0.35"/>
    <stop offset="0.0347" style="stop-color:#000000;stop-opacity:0.3"/>
    <stop offset="0.0649" style="stop-color:#000000;stop-opacity:0.4"/>
    <stop offset="0.0841" style="stop-color:#000000;stop-opacity:0.2634"/>
    <stop offset="0.086" style="stop-color:#000000;stop-opacity:0.25"/>
    <stop offset="0.1192" style="stop-color:#000000;stop-opacity:0.15"/>
    <stop offset="0.2624" style="stop-color:#000000;stop-opacity:0.0572"/>
    <stop offset="0.3725" style="stop-color:#000000;stop-opacity:0.2"/>
    <stop offset="0.4827" style="stop-color:#000000;stop-opacity:0.0675"/>
    <stop offset="0.7602" style="stop-color:#000000;stop-opacity:0.25"/>
    <stop offset="0.9367" style="stop-color:#000000;stop-opacity:0.15"/>
    <stop offset="1" style="stop-color:#000000;stop-opacity:0.35"/>
  </linearGradient>
  <path fill="url(#SVGID_4_)" d="M5.926,36c0,0,2.975,0,3.656,0c0.68,0,0.838-0.155,1.021-0.65c0.188-0.496,0.25-0.898,0.25-1.891&#xD;&#xA;&#x9;&#x9;s-0.125-1.362-0.125-2.632c0-1.301,0-10.41,0-11.649s0.218-1.797-0.216-3.127c-0.434-1.334-1.332-2.139-1.52-2.604&#xD;&#xA;&#x9;&#x9;c-0.187-0.465-0.122-1.333-0.122-2.541c0-1.208-0.651-6.599-0.683-6.786c-0.031-0.184,0.28-0.155,0.28-0.371&#xD;&#xA;&#x9;&#x9;c0-0.217-0.371-1.394-0.371-1.61c0-0.218,0.245-0.155,0.245-0.312c0-0.152-0.217-0.525-0.525-0.525c-0.311,0-1.89,0-1.89,0&#xD;&#xA;&#x9;&#x9;s-1.579,0-1.89,0c-0.309,0-0.525,0.373-0.525,0.525c0,0.157,0.246,0.094,0.246,0.312c0,0.216-0.371,1.393-0.371,1.61&#xD;&#xA;&#x9;&#x9;c0,0.216,0.311,0.188,0.279,0.371c-0.032,0.187-0.683,5.578-0.683,6.786c0,1.208,0.063,2.075-0.123,2.541&#xD;&#xA;&#x9;&#x9;c-0.187,0.465-1.085,1.27-1.518,2.604c-0.435,1.33-0.217,1.888-0.217,3.127s0,10.349,0,11.649c0,1.27-0.124,1.64-0.124,2.632&#xD;&#xA;&#x9;&#x9;s0.063,1.395,0.248,1.891C1.434,35.845,1.589,36,2.27,36C2.951,36,5.926,36,5.926,36z"/>
  <linearGradient id="SVGID_5_" gradientUnits="userSpaceOnUse" x1="5.9258" y1="1.7954" x2="5.9258" y2="35.5005">
    <stop offset="0" style="stop-color:#FFFFFF;stop-opacity:0"/>
    <stop offset="0.1448" style="stop-color:#FFFFFF;stop-opacity:0.05"/>
    <stop offset="0.7929" style="stop-color:#FFFFFF;stop-opacity:0.05"/>
    <stop offset="0.8567" style="stop-color:#FFFFFF;stop-opacity:0.05"/>
    <stop offset="1" style="stop-color:#FFFFFF;stop-opacity:0"/>
  </linearGradient>
  <path fill="url(#SVGID_5_)" d="M2.27,35.5c-0.432,0-0.432,0-0.554-0.326C1.563,34.767,1.5,34.438,1.5,33.459&#xD;&#xA;&#x9;&#x9;c0-0.448,0.027-0.766,0.055-1.102c0.034-0.405,0.069-0.838,0.069-1.53V19.178c0-0.343-0.016-0.637-0.031-0.907&#xD;&#xA;&#x9;&#x9;c-0.038-0.686-0.065-1.181,0.224-2.066c0.258-0.791,0.691-1.374,1.041-1.842c0.211-0.284,0.377-0.507,0.466-0.729&#xD;&#xA;&#x9;&#x9;c0.183-0.458,0.175-1.104,0.165-1.998l-0.006-0.73c0-1.148,0.643-6.491,0.676-6.704c0.03-0.17,0.006-0.405-0.243-0.603&#xD;&#xA;&#x9;&#x9;c0.033-0.138,0.087-0.333,0.139-0.529c0.144-0.539,0.203-0.774,0.203-0.932c0-0.103-0.021-0.226-0.089-0.344l1.759,0.007h1.756&#xD;&#xA;&#x9;&#x9;C7.615,1.919,7.596,2.039,7.596,2.139c0,0.158,0.059,0.393,0.201,0.932c0.053,0.195,0.106,0.39,0.14,0.533&#xD;&#xA;&#x9;&#x9;c-0.25,0.205-0.272,0.434-0.242,0.603c0.03,0.188,0.675,5.522,0.675,6.699l-0.007,0.729c-0.011,0.895-0.019,1.54,0.166,1.998&#xD;&#xA;&#x9;&#x9;c0.088,0.223,0.256,0.447,0.467,0.73c0.349,0.469,0.783,1.051,1.041,1.842c0.287,0.884,0.26,1.38,0.222,2.066&#xD;&#xA;&#x9;&#x9;c-0.016,0.27-0.031,0.564-0.031,0.907v11.649c0,0.692,0.037,1.125,0.07,1.53c0.029,0.336,0.055,0.653,0.055,1.102&#xD;&#xA;&#x9;&#x9;c0,0.979-0.063,1.308-0.217,1.714C10.014,35.5,10.014,35.5,9.582,35.5H2.27z"/>
  <linearGradient id="SVGID_6_" gradientUnits="userSpaceOnUse" x1="2.4468" y1="35.625" x2="9.4565" y2="35.625">
    <stop offset="0" style="stop-color:#000000;stop-opacity:0.2"/>
    <stop offset="0.4229" style="stop-color:#000000;stop-opacity:0.1545"/>
    <stop offset="0.4646" style="stop-color:#000000;stop-opacity:0.15"/>
    <stop offset="1" style="stop-color:#000000;stop-opacity:0.2"/>
  </linearGradient>
  <path fill="url(#SVGID_6_)" d="M5.952,36h3.505c-1.797,0-1.676-0.75-3.505-0.75c-1.83,0-1.709,0.75-3.505,0.75H5.952z"/>
  <g>
    <linearGradient id="SVGID_7_" gradientUnits="userSpaceOnUse" x1="2.6104" y1="4.4844" x2="2.6104" y2="35.3501">
      <stop offset="0" style="stop-color:#FFFFFF;stop-opacity:0.05"/>
      <stop offset="0.2655" style="stop-color:#FFFFFF;stop-opacity:0.2"/>
      <stop offset="0.9342" style="stop-color:#FFFFFF;stop-opacity:0.109"/>
      <stop offset="1" style="stop-color:#FFFFFF;stop-opacity:0.1"/>
    </linearGradient>
    <path fill="url(#SVGID_7_)" d="M4.19,5.32C4.07,6.15,3.53,9.91,3.61,11.35c0.081,1.44,0.46,2.45,0.291,2.641&#xD;&#xA;&#x9;&#x9;&#x9;C3.73,14.19,1.98,15,1.63,16.67c-0.35,1.669,0,1.25,0,3.27c0,2.02-0.16,10.489-0.16,11.77c0,1.29-0.49,2.53-0.22,3.64&#xD;&#xA;&#x9;&#x9;&#x9;C1.06,34.85,1,34.45,1,33.46s0.12-1.36,0.12-2.63V19.18c0-1.24-0.219-1.8,0.22-3.129c0.43-1.33,1.33-2.14,1.52-2.6&#xD;&#xA;&#x9;&#x9;&#x9;c0.18-0.47,0.121-1.34,0.121-2.54c0-1.01,0.45-4.93,0.629-6.31C3.96,4.39,4.331,4.38,4.19,5.32z"/>
    <linearGradient id="SVGID_8_" gradientUnits="userSpaceOnUse" x1="9.2427" y1="4.4844" x2="9.2427" y2="35.3501">
      <stop offset="0" style="stop-color:#FFFFFF;stop-opacity:0.05"/>
      <stop offset="0.2655" style="stop-color:#FFFFFF;stop-opacity:0.2"/>
      <stop offset="0.9342" style="stop-color:#FFFFFF;stop-opacity:0.109"/>
      <stop offset="1" style="stop-color:#FFFFFF;stop-opacity:0.1"/>
    </linearGradient>
    <path fill="url(#SVGID_8_)" d="M7.664,5.32c0.118,0.83,0.66,4.59,0.579,6.03c-0.079,1.44-0.461,2.45-0.29,2.641&#xD;&#xA;&#x9;&#x9;&#x9;c0.171,0.199,1.921,1.009,2.27,2.68c0.352,1.669,0,1.25,0,3.27c0,2.02,0.16,10.489,0.16,11.77c0,1.29,0.491,2.53,0.22,3.64&#xD;&#xA;&#x9;&#x9;&#x9;c0.19-0.5,0.25-0.899,0.25-1.89s-0.118-1.36-0.118-2.63V19.18c0-1.24,0.219-1.8-0.221-3.129c-0.43-1.33-1.33-2.14-1.521-2.6&#xD;&#xA;&#x9;&#x9;&#x9;c-0.18-0.47-0.119-1.34-0.119-2.54c0-1.01-0.451-4.93-0.631-6.31C7.894,4.39,7.523,4.38,7.664,5.32z"/>
  </g>
  <g>
    <linearGradient id="SVGID_9_" gradientUnits="userSpaceOnUse" x1="4.0068" y1="1.3003" x2="4.0068" y2="36.0005">
      <stop offset="0.0226" style="stop-color:#FFFFFF;stop-opacity:0"/>
      <stop offset="0.0588" style="stop-color:#FFFFFF;stop-opacity:0.05"/>
      <stop offset="0.0845" style="stop-color:#FFFFFF;stop-opacity:0"/>
      <stop offset="0.106" style="stop-color:#FFFFFF;stop-opacity:0.0071"/>
      <stop offset="0.2368" style="stop-color:#FFFFFF;stop-opacity:0.05"/>
      <stop offset="0.3994" style="stop-color:#FFFFFF;stop-opacity:0.0043"/>
      <stop offset="0.4148" style="stop-color:#FFFFFF;stop-opacity:0"/>
      <stop offset="0.4698" style="stop-color:#FFFFFF;stop-opacity:0.0145"/>
      <stop offset="0.7934" style="stop-color:#FFFFFF;stop-opacity:0.1"/>
      <stop offset="1" style="stop-color:#FFFFFF;stop-opacity:0"/>
    </linearGradient>
    <path fill="url(#SVGID_9_)" d="M5.461,2.14c0,0.22-0.079,1.39-0.079,1.61s0.06,0.19,0.06,0.371C5.432,4.31,5.292,9.7,5.292,10.91&#xD;&#xA;&#x9;&#x9;&#x9;c0,1.2,0.01,2.07-0.03,2.54c-0.04,0.46-0.23,1.27-0.319,2.6c-0.101,1.33-0.051,1.89-0.051,3.129v11.65c0,1.27-0.03,1.64-0.03,2.63&#xD;&#xA;&#x9;&#x9;&#x9;s0.021,1.39,0.06,1.89C4.961,35.84,4.992,36,5.142,36H3.383c-0.48,0-0.591-0.16-0.72-0.65c-0.131-0.5-0.17-0.899-0.17-1.89&#xD;&#xA;&#x9;&#x9;&#x9;s0.09-1.36,0.09-2.63V19.18c0-1.24-0.15-1.8,0.15-3.129c0.3-1.33,0.931-2.14,1.06-2.6c0.13-0.47,0.081-1.34,0.081-2.54&#xD;&#xA;&#x9;&#x9;&#x9;c0-1.21,0.459-6.6,0.479-6.79c0.021-0.181-0.2-0.15-0.2-0.371s0.26-1.39,0.26-1.61c0-0.22-0.17-0.16-0.17-0.311&#xD;&#xA;&#x9;&#x9;&#x9;c0-0.159,0.15-0.529,0.37-0.529h0.91c-0.07,0-0.12,0.37-0.12,0.529C5.402,1.98,5.461,1.92,5.461,2.14z"/>
    <linearGradient id="SVGID_10_" gradientUnits="userSpaceOnUse" x1="7.8481" y1="1.3003" x2="7.8481" y2="36.0005">
      <stop offset="0.0226" style="stop-color:#FFFFFF;stop-opacity:0"/>
      <stop offset="0.0588" style="stop-color:#FFFFFF;stop-opacity:0.05"/>
      <stop offset="0.0845" style="stop-color:#FFFFFF;stop-opacity:0"/>
      <stop offset="0.106" style="stop-color:#FFFFFF;stop-opacity:0.0071"/>
      <stop offset="0.2368" style="stop-color:#FFFFFF;stop-opacity:0.05"/>
      <stop offset="0.3994" style="stop-color:#FFFFFF;stop-opacity:0.0043"/>
      <stop offset="0.4148" style="stop-color:#FFFFFF;stop-opacity:0"/>
      <stop offset="0.4698" style="stop-color:#FFFFFF;stop-opacity:0.0145"/>
      <stop offset="0.7934" style="stop-color:#FFFFFF;stop-opacity:0.1"/>
      <stop offset="1" style="stop-color:#FFFFFF;stop-opacity:0"/>
    </linearGradient>
    <path fill="url(#SVGID_10_)" d="M9.363,33.46c0,0.99-0.051,1.39-0.18,1.89C9.062,35.84,8.953,36,8.472,36H6.711&#xD;&#xA;&#x9;&#x9;&#x9;c0.151,0,0.182-0.16,0.222-0.65c0.039-0.5,0.059-0.899,0.059-1.89s-0.03-1.36-0.03-2.63V19.18c0-1.24,0.05-1.8-0.049-3.129&#xD;&#xA;&#x9;&#x9;&#x9;c-0.09-1.33-0.28-2.14-0.32-2.6c-0.04-0.47-0.03-1.34-0.03-2.54c0-1.21-0.14-6.6-0.149-6.79c0-0.181,0.06-0.15,0.06-0.371&#xD;&#xA;&#x9;&#x9;&#x9;s-0.08-1.39-0.08-1.61c0-0.22,0.06-0.16,0.06-0.311c0-0.159-0.05-0.529-0.12-0.529h0.91c0.22,0,0.371,0.37,0.371,0.529&#xD;&#xA;&#x9;&#x9;&#x9;c0,0.15-0.17,0.091-0.17,0.311c0,0.22,0.25,1.39,0.25,1.61s-0.21,0.19-0.19,0.371c0.021,0.189,0.48,5.58,0.48,6.79&#xD;&#xA;&#x9;&#x9;&#x9;c0,1.2-0.05,2.07,0.079,2.54c0.131,0.46,0.761,1.27,1.061,2.6c0.299,1.33,0.15,1.89,0.15,3.129v11.65&#xD;&#xA;&#x9;&#x9;&#x9;C9.273,32.1,9.363,32.47,9.363,33.46z"/>
  </g>
  <radialGradient id="SVGID_11_" cx="7.2173" cy="15.584" r="1.6943" gradientUnits="userSpaceOnUse">
    <stop offset="0.2202" style="stop-color:#FFFFFF;stop-opacity:0.35"/>
    <stop offset="0.9548" style="stop-color:#FFFFFF;stop-opacity:0"/>
  </radialGradient>
  <circle fill="url(#SVGID_11_)" cx="7.217" cy="15.583" r="1.695"/>
  <linearGradient id="SVGID_12_" gradientUnits="userSpaceOnUse" x1="5.9219" y1="1.3003" x2="5.9219" y2="4.7202">
    <stop offset="0.0121" style="stop-color:#FFFFFF;stop-opacity:0.1"/>
    <stop offset="0.0437" style="stop-color:#FFFFFF;stop-opacity:0.45"/>
    <stop offset="0.0482" style="stop-color:#FFFFFF;stop-opacity:0.4183"/>
    <stop offset="0.1071" style="stop-color:#FFFFFF;stop-opacity:0"/>
    <stop offset="0.1433" style="stop-color:#FFFFFF;stop-opacity:0.1"/>
    <stop offset="0.1795" style="stop-color:#FFFFFF;stop-opacity:0"/>
    <stop offset="0.3183" style="stop-color:#FFFFFF;stop-opacity:0.1"/>
    <stop offset="0.5204" style="stop-color:#FFFFFF;stop-opacity:0"/>
    <stop offset="0.7183" style="stop-color:#FFFFFF;stop-opacity:0.1406"/>
    <stop offset="0.7315" style="stop-color:#FFFFFF;stop-opacity:0.15"/>
    <stop offset="0.7843" style="stop-color:#FFFFFF;stop-opacity:0"/>
    <stop offset="0.816" style="stop-color:#FFFFFF;stop-opacity:0"/>
    <stop offset="0.8492" style="stop-color:#FFFFFF;stop-opacity:0.05"/>
    <stop offset="1" style="stop-color:#FFFFFF;stop-opacity:0"/>
  </linearGradient>
  <path fill="url(#SVGID_12_)" d="M8.193,4.121c0.01,0.04,0.029,0.259,0.068,0.6H3.592c0.041-0.34,0.07-0.56,0.07-0.6&#xD;&#xA;&#x9;&#x9;c0.03-0.181-0.28-0.15-0.28-0.371s0.37-1.39,0.37-1.61c0-0.22-0.24-0.16-0.24-0.311c0-0.159,0.21-0.529,0.52-0.529&#xD;&#xA;&#x9;&#x9;c0.311,0,1.891,0,1.891,0s1.58,0,1.89,0c0.311,0,0.53,0.37,0.53,0.529c0,0.15-0.25,0.091-0.25,0.311c0,0.22,0.369,1.39,0.369,1.61&#xD;&#xA;&#x9;&#x9;S8.152,3.94,8.193,4.121z"/>
</svg>