<svg version="1.2" baseProfile="tiny" id="EdgeSVG_NaGzN" x="0px" y="0px" width="13.227px" height="36.541px" viewBox="0 0 13.227 36.541" xmlns:xlink="http://www.w3.org/1999/xlink" xmlns="http://www.w3.org/2000/svg">
  <linearGradient id="SVGID_3_" gradientUnits="userSpaceOnUse" x1="6.6133" y1="16.6558" x2="6.6133" y2="15.7788">
    <stop offset="0.1902" style="stop-color:#FFFFFF;stop-opacity:0.1"/>
    <stop offset="0.7791" style="stop-color:#000000;stop-opacity:0.1"/>
    <stop offset="0.8546" style="stop-color:#020202;stop-opacity:0.0627"/>
    <stop offset="0.8818" style="stop-color:#090909;stop-opacity:0.0493"/>
    <stop offset="0.9011" style="stop-color:#141414;stop-opacity:0.0397"/>
    <stop offset="0.9168" style="stop-color:#252525;stop-opacity:0.032"/>
    <stop offset="0.9302" style="stop-color:#3B3B3B;stop-opacity:0.0254"/>
    <stop offset="0.9421" style="stop-color:#575757;stop-opacity:0.0195"/>
    <stop offset="0.9529" style="stop-color:#777777;stop-opacity:0.0142"/>
    <stop offset="0.9627" style="stop-color:#9D9D9D;stop-opacity:0.0093"/>
    <stop offset="0.9719" style="stop-color:#C8C8C8;stop-opacity:0.0048"/>
    <stop offset="0.9801" style="stop-color:#F6F6F6;stop-opacity:7.380128e-004"/>
    <stop offset="0.9816" style="stop-color:#FFFFFF;stop-opacity:0"/>
  </linearGradient>
  <path fill="url(#SVGID_3_)" d="M11.887,16.656H1.34c0,0-0.34-0.438-0.34-0.877h11.227C12.227,16.162,11.887,16.656,11.887,16.656z"/>
  <linearGradient id="SVGID_4_" gradientUnits="userSpaceOnUse" x1="6.6172" y1="19.0122" x2="6.6172" y2="17.4087">
    <stop offset="0" style="stop-color:#FFFFFF;stop-opacity:0"/>
    <stop offset="0.638" style="stop-color:#000000;stop-opacity:0.1"/>
    <stop offset="0.7111" style="stop-color:#030303;stop-opacity:0.0795"/>
    <stop offset="0.7591" style="stop-color:#0B0B0B;stop-opacity:0.066"/>
    <stop offset="0.7998" style="stop-color:#1A1A1A;stop-opacity:0.0545"/>
    <stop offset="0.8366" style="stop-color:#303030;stop-opacity:0.0442"/>
    <stop offset="0.8706" style="stop-color:#4B4B4B;stop-opacity:0.0346"/>
    <stop offset="0.9027" style="stop-color:#6D6D6D;stop-opacity:0.0256"/>
    <stop offset="0.9332" style="stop-color:#959595;stop-opacity:0.0171"/>
    <stop offset="0.9624" style="stop-color:#C3C3C3;stop-opacity:0.0088"/>
    <stop offset="0.9897" style="stop-color:#F7F7F7;stop-opacity:0.0012"/>
    <stop offset="0.9939" style="stop-color:#FFFFFF;stop-opacity:0"/>
  </linearGradient>
  <path fill="url(#SVGID_4_)" d="M11.887,19.012H1.34c0,0-0.246-0.676-0.052-1.604h10.649C12.153,18.21,11.887,19.012,11.887,19.012z&#xD;&#xA;&#x9;&#x9;"/>
  <linearGradient id="SVGID_5_" gradientUnits="userSpaceOnUse" x1="6.6172" y1="21.3784" x2="6.6172" y2="19.7744">
    <stop offset="0" style="stop-color:#FFFFFF;stop-opacity:0"/>
    <stop offset="0.638" style="stop-color:#000000;stop-opacity:0.1"/>
    <stop offset="0.7111" style="stop-color:#030303;stop-opacity:0.0795"/>
    <stop offset="0.7591" style="stop-color:#0B0B0B;stop-opacity:0.066"/>
    <stop offset="0.7998" style="stop-color:#1A1A1A;stop-opacity:0.0545"/>
    <stop offset="0.8366" style="stop-color:#303030;stop-opacity:0.0442"/>
    <stop offset="0.8706" style="stop-color:#4B4B4B;stop-opacity:0.0346"/>
    <stop offset="0.9027" style="stop-color:#6D6D6D;stop-opacity:0.0256"/>
    <stop offset="0.9332" style="stop-color:#959595;stop-opacity:0.0171"/>
    <stop offset="0.9624" style="stop-color:#C3C3C3;stop-opacity:0.0088"/>
    <stop offset="0.9897" style="stop-color:#F7F7F7;stop-opacity:0.0012"/>
    <stop offset="0.9939" style="stop-color:#FFFFFF;stop-opacity:0"/>
  </linearGradient>
  <path fill="url(#SVGID_5_)" d="M11.887,21.378H1.34c0,0-0.246-0.676-0.052-1.604h10.649C12.153,20.576,11.887,21.378,11.887,21.378&#xD;&#xA;&#x9;&#x9;z"/>
  <linearGradient id="SVGID_6_" gradientUnits="userSpaceOnUse" x1="6.5996" y1="17.2925" x2="6.5996" y2="16.6558">
    <stop offset="0" style="stop-color:#FFFFFF;stop-opacity:0"/>
    <stop offset="0.0727" style="stop-color:#FFFFFF;stop-opacity:0.0439"/>
    <stop offset="0.4969" style="stop-color:#FFFFFF;stop-opacity:0.3"/>
    <stop offset="0.93" style="stop-color:#FFFFFF;stop-opacity:0.0385"/>
    <stop offset="0.9939" style="stop-color:#FFFFFF;stop-opacity:0"/>
  </linearGradient>
  <path fill="url(#SVGID_6_)" d="M11.859,17.292l-10.472-0.03c0,0,0.26-0.333-0.048-0.607h10.52&#xD;&#xA;&#x9;&#x9;C11.859,16.656,11.565,16.974,11.859,17.292z"/>
  <linearGradient id="SVGID_7_" gradientUnits="userSpaceOnUse" x1="6.6152" y1="10.1948" x2="6.6152" y2="9.5576">
    <stop offset="0" style="stop-color:#FFFFFF;stop-opacity:0"/>
    <stop offset="0.0727" style="stop-color:#FFFFFF;stop-opacity:0.022"/>
    <stop offset="0.4969" style="stop-color:#FFFFFF;stop-opacity:0.15"/>
    <stop offset="0.93" style="stop-color:#FFFFFF;stop-opacity:0.0193"/>
    <stop offset="0.9939" style="stop-color:#FFFFFF;stop-opacity:0"/>
  </linearGradient>
  <path fill="url(#SVGID_7_)" d="M12.212,10.195L1.02,10.165c0,0,0.096-0.342,0.221-0.607h10.747&#xD;&#xA;&#x9;&#x9;C11.987,9.558,12.131,9.876,12.212,10.195z"/>
  <linearGradient id="SVGID_8_" gradientUnits="userSpaceOnUse" x1="6.5996" y1="19.6587" x2="6.5996" y2="19.0215">
    <stop offset="0" style="stop-color:#FFFFFF;stop-opacity:0"/>
    <stop offset="0.0727" style="stop-color:#FFFFFF;stop-opacity:0.0439"/>
    <stop offset="0.4969" style="stop-color:#FFFFFF;stop-opacity:0.3"/>
    <stop offset="0.93" style="stop-color:#FFFFFF;stop-opacity:0.0385"/>
    <stop offset="0.9939" style="stop-color:#FFFFFF;stop-opacity:0"/>
  </linearGradient>
  <path fill="url(#SVGID_8_)" d="M11.859,19.659l-10.472-0.03c0,0,0.26-0.333-0.048-0.607h10.52&#xD;&#xA;&#x9;&#x9;C11.859,19.021,11.565,19.34,11.859,19.659z"/>
  <linearGradient id="SVGID_9_" gradientUnits="userSpaceOnUse" x1="6.6172" y1="23.7441" x2="6.6172" y2="22.1401">
    <stop offset="0" style="stop-color:#FFFFFF;stop-opacity:0"/>
    <stop offset="0.638" style="stop-color:#000000;stop-opacity:0.1"/>
    <stop offset="0.7111" style="stop-color:#030303;stop-opacity:0.0795"/>
    <stop offset="0.7591" style="stop-color:#0B0B0B;stop-opacity:0.066"/>
    <stop offset="0.7998" style="stop-color:#1A1A1A;stop-opacity:0.0545"/>
    <stop offset="0.8366" style="stop-color:#303030;stop-opacity:0.0442"/>
    <stop offset="0.8706" style="stop-color:#4B4B4B;stop-opacity:0.0346"/>
    <stop offset="0.9027" style="stop-color:#6D6D6D;stop-opacity:0.0256"/>
    <stop offset="0.9332" style="stop-color:#959595;stop-opacity:0.0171"/>
    <stop offset="0.9624" style="stop-color:#C3C3C3;stop-opacity:0.0088"/>
    <stop offset="0.9897" style="stop-color:#F7F7F7;stop-opacity:0.0012"/>
    <stop offset="0.9939" style="stop-color:#FFFFFF;stop-opacity:0"/>
  </linearGradient>
  <path fill="url(#SVGID_9_)" d="M11.881,23.744H1.34c0,0-0.246-0.676-0.052-1.604h10.649C12.153,22.942,11.881,23.744,11.881,23.744&#xD;&#xA;&#x9;&#x9;z"/>
  <linearGradient id="SVGID_10_" gradientUnits="userSpaceOnUse" x1="6.5996" y1="22.0244" x2="6.5996" y2="21.3872">
    <stop offset="0" style="stop-color:#FFFFFF;stop-opacity:0"/>
    <stop offset="0.0727" style="stop-color:#FFFFFF;stop-opacity:0.0439"/>
    <stop offset="0.4969" style="stop-color:#FFFFFF;stop-opacity:0.3"/>
    <stop offset="0.93" style="stop-color:#FFFFFF;stop-opacity:0.0385"/>
    <stop offset="0.9939" style="stop-color:#FFFFFF;stop-opacity:0"/>
  </linearGradient>
  <path fill="url(#SVGID_10_)" d="M11.859,22.024l-10.472-0.03c0,0,0.26-0.333-0.048-0.607h10.52&#xD;&#xA;&#x9;&#x9;C11.859,21.387,11.565,21.706,11.859,22.024z"/>
  <linearGradient id="SVGID_11_" gradientUnits="userSpaceOnUse" x1="6.6172" y1="26.1104" x2="6.6172" y2="24.5063">
    <stop offset="0" style="stop-color:#FFFFFF;stop-opacity:0"/>
    <stop offset="0.638" style="stop-color:#000000;stop-opacity:0.1"/>
    <stop offset="0.7111" style="stop-color:#030303;stop-opacity:0.0795"/>
    <stop offset="0.7591" style="stop-color:#0B0B0B;stop-opacity:0.066"/>
    <stop offset="0.7998" style="stop-color:#1A1A1A;stop-opacity:0.0545"/>
    <stop offset="0.8366" style="stop-color:#303030;stop-opacity:0.0442"/>
    <stop offset="0.8706" style="stop-color:#4B4B4B;stop-opacity:0.0346"/>
    <stop offset="0.9027" style="stop-color:#6D6D6D;stop-opacity:0.0256"/>
    <stop offset="0.9332" style="stop-color:#959595;stop-opacity:0.0171"/>
    <stop offset="0.9624" style="stop-color:#C3C3C3;stop-opacity:0.0088"/>
    <stop offset="0.9897" style="stop-color:#F7F7F7;stop-opacity:0.0012"/>
    <stop offset="0.9939" style="stop-color:#FFFFFF;stop-opacity:0"/>
  </linearGradient>
  <path fill="url(#SVGID_11_)" d="M11.882,26.11H1.34c0,0-0.246-0.676-0.052-1.604h10.649C12.153,25.308,11.882,26.11,11.882,26.11z"/>
  <linearGradient id="SVGID_12_" gradientUnits="userSpaceOnUse" x1="6.5996" y1="24.3906" x2="6.5996" y2="23.7534">
    <stop offset="0" style="stop-color:#FFFFFF;stop-opacity:0"/>
    <stop offset="0.0727" style="stop-color:#FFFFFF;stop-opacity:0.0439"/>
    <stop offset="0.4969" style="stop-color:#FFFFFF;stop-opacity:0.3"/>
    <stop offset="0.93" style="stop-color:#FFFFFF;stop-opacity:0.0385"/>
    <stop offset="0.9939" style="stop-color:#FFFFFF;stop-opacity:0"/>
  </linearGradient>
  <path fill="url(#SVGID_12_)" d="M11.859,24.391L1.388,24.36c0,0,0.26-0.333-0.048-0.606h10.52&#xD;&#xA;&#x9;&#x9;C11.859,23.753,11.565,24.072,11.859,24.391z"/>
  <linearGradient id="SVGID_13_" gradientUnits="userSpaceOnUse" x1="6.6133" y1="28.4766" x2="6.6133" y2="26.8721">
    <stop offset="0" style="stop-color:#FFFFFF;stop-opacity:0"/>
    <stop offset="0.638" style="stop-color:#000000;stop-opacity:0.1"/>
    <stop offset="0.7111" style="stop-color:#030303;stop-opacity:0.0795"/>
    <stop offset="0.7591" style="stop-color:#0B0B0B;stop-opacity:0.066"/>
    <stop offset="0.7998" style="stop-color:#1A1A1A;stop-opacity:0.0545"/>
    <stop offset="0.8366" style="stop-color:#303030;stop-opacity:0.0442"/>
    <stop offset="0.8706" style="stop-color:#4B4B4B;stop-opacity:0.0346"/>
    <stop offset="0.9027" style="stop-color:#6D6D6D;stop-opacity:0.0256"/>
    <stop offset="0.9332" style="stop-color:#959595;stop-opacity:0.0171"/>
    <stop offset="0.9624" style="stop-color:#C3C3C3;stop-opacity:0.0088"/>
    <stop offset="0.9897" style="stop-color:#F7F7F7;stop-opacity:0.0012"/>
    <stop offset="0.9939" style="stop-color:#FFFFFF;stop-opacity:0"/>
  </linearGradient>
  <path fill="url(#SVGID_13_)" d="M12.227,28.477H1v-0.67c0-0.498,0.103-0.634,0.265-0.935h10.697&#xD;&#xA;&#x9;&#x9;c0.158,0.227,0.233,0.522,0.266,0.797L12.227,28.477z"/>
  <linearGradient id="SVGID_14_" gradientUnits="userSpaceOnUse" x1="6.5996" y1="26.7559" x2="6.5996" y2="26.1191">
    <stop offset="0" style="stop-color:#FFFFFF;stop-opacity:0"/>
    <stop offset="0.0727" style="stop-color:#FFFFFF;stop-opacity:0.0439"/>
    <stop offset="0.4969" style="stop-color:#FFFFFF;stop-opacity:0.3"/>
    <stop offset="0.93" style="stop-color:#FFFFFF;stop-opacity:0.0385"/>
    <stop offset="0.9939" style="stop-color:#FFFFFF;stop-opacity:0"/>
  </linearGradient>
  <path fill="url(#SVGID_14_)" d="M11.859,26.756l-10.472-0.03c0,0,0.26-0.333-0.048-0.607h10.52&#xD;&#xA;&#x9;&#x9;C11.859,26.119,11.565,26.438,11.859,26.756z"/>
  <linearGradient id="SVGID_15_" gradientUnits="userSpaceOnUse" x1="1" y1="18.46" x2="5.7119" y2="18.46">
    <stop offset="0" style="stop-color:#FFFFFF;stop-opacity:0"/>
    <stop offset="0.0727" style="stop-color:#FFFFFF;stop-opacity:0.0293"/>
    <stop offset="0.4969" style="stop-color:#FFFFFF;stop-opacity:0.2"/>
    <stop offset="0.93" style="stop-color:#FFFFFF;stop-opacity:0.0257"/>
    <stop offset="0.9939" style="stop-color:#FFFFFF;stop-opacity:0"/>
  </linearGradient>
  <path fill="url(#SVGID_15_)" d="M3.984,33.937c0,0,0-6.211,0-6.625s0.45-0.575,0.45-0.875c0-0.519-0.45-0.646-0.45-1.129&#xD;&#xA;&#x9;&#x9;c0-0.711,0.45-0.939,0.45-1.236c0-0.297-0.45-0.703-0.45-1.129S4.36,22.14,4.36,21.706c0-0.435-0.376-0.666-0.376-1.13&#xD;&#xA;&#x9;&#x9;s0.384-0.802,0.376-1.236c-0.009-0.41-0.376-0.402-0.376-1.129s0.376-1.151,0.413-1.555c0.037-0.404-0.413-0.755-0.413-0.99&#xD;&#xA;&#x9;&#x9;s0-3.218,0-5.291c0-0.338,0.049,0.161,0-0.548C3.922,8.922,5.712,5.295,5.712,5.295l0,0V1.379h-0.87L4.588,1.653v2.007H4.166v0.347&#xD;&#xA;&#x9;&#x9;h0.422v1.26L1.321,9.437C1.145,9.662,1,10.081,1,10.367v5.412c0,0.286,0.152,0.674,0.34,0.86c0.187,0.187,0.187,0.493,0,0.68&#xD;&#xA;&#x9;&#x9;c-0.188,0.187-0.188,1.5,0,1.687c0.187,0.187,0.187,0.493,0,0.68c-0.188,0.187-0.188,1.5,0,1.687c0.187,0.187,0.187,0.493,0,0.68&#xD;&#xA;&#x9;&#x9;c-0.188,0.187-0.188,1.5,0,1.687c0.187,0.187,0.187,0.493,0,0.68c-0.188,0.187-0.188,1.5,0,1.687c0.187,0.187,0.187,0.493,0,0.679&#xD;&#xA;&#x9;&#x9;C1.152,26.971,1,27.358,1,27.645v5.813c0,1.146,0.938,2.083,2.083,2.083H4.83C4.154,35.387,3.984,33.937,3.984,33.937z"/>
  <linearGradient id="SVGID_16_" gradientUnits="userSpaceOnUse" x1="11.875" y1="19.6743" x2="7.0703" y2="19.6743">
    <stop offset="0" style="stop-color:#FFFFFF;stop-opacity:0.2"/>
    <stop offset="0.0727" style="stop-color:#FFFFFF;stop-opacity:0.178"/>
    <stop offset="0.4969" style="stop-color:#FFFFFF;stop-opacity:0.05"/>
    <stop offset="0.93" style="stop-color:#FFFFFF;stop-opacity:0.0064"/>
    <stop offset="0.9939" style="stop-color:#FFFFFF;stop-opacity:0"/>
  </linearGradient>
  <path fill="url(#SVGID_16_)" d="M7.703,33.458c0,0,0-6.106,0-6.512c0-0.406-0.683-0.567-0.63-0.86&#xD;&#xA;&#x9;&#x9;c0.053-0.292,0.565-0.323,0.63-1.11c0.046-0.568-0.63-0.923-0.63-1.215c0-0.292,0.581-0.516,0.63-1.11&#xD;&#xA;&#x9;&#x9;c0.046-0.568-0.525-0.788-0.525-1.215s0.525-0.654,0.525-1.11c0-0.456-0.525-0.788-0.525-1.215c0-0.427,0.7-0.692,0.7-1.406&#xD;&#xA;&#x9;&#x9;c0-0.715-0.211-0.835-0.263-1.232c-0.053-0.397,0.577-0.862,0.577-0.862s1.006-4.979,1.006-5.312c0-0.332,0.035,0.207,0-0.49&#xD;&#xA;&#x9;&#x9;C9.083,7.583,8.472,5.89,8.472,5.89l2.954,3.486c0.247,0.222,0.449,0.633,0.449,0.915v5.319c0,0.282-0.214,0.662-0.476,0.846&#xD;&#xA;&#x9;&#x9;c-0.261,0.184-0.261,0.484,0,0.668c0.262,0.184,0.262,1.474,0,1.658c-0.261,0.184-0.261,0.484,0,0.668&#xD;&#xA;&#x9;&#x9;c0.262,0.184,0.262,1.474,0,1.658c-0.261,0.184-0.261,0.484,0,0.668c0.262,0.184,0.262,1.474,0,1.658&#xD;&#xA;&#x9;&#x9;c-0.261,0.184-0.261,0.484,0,0.668c0.262,0.184,0.262,1.474,0,1.658c-0.261,0.184-0.261,0.484,0,0.668&#xD;&#xA;&#x9;&#x9;c0.262,0.183,0.476,0.564,0.476,0.846v6.185H7.703z"/>
  <linearGradient id="SVGID_17_" gradientUnits="userSpaceOnUse" x1="8.5322" y1="20.4048" x2="1.3945" y2="20.4048">
    <stop offset="0.9571" style="stop-color:#000000;stop-opacity:0.05"/>
    <stop offset="0.9945" style="stop-color:#000000;stop-opacity:0.05"/>
    <stop offset="1" style="stop-color:#000000;stop-opacity:0.05"/>
  </linearGradient>
  <path fill="url(#SVGID_17_)" d="M4.982,5.268L1.716,9.437c-0.177,0.226-0.321,0.645-0.321,0.931v5.412&#xD;&#xA;&#x9;&#x9;c0,0.286,0.152,0.674,0.34,0.86c0.187,0.187,0.187,0.493,0,0.68c-0.188,0.187-0.188,1.5,0,1.687c0.187,0.187,0.187,0.493,0,0.68&#xD;&#xA;&#x9;&#x9;c-0.188,0.187-0.188,1.5,0,1.687c0.187,0.187,0.187,0.493,0,0.68c-0.188,0.187-0.188,1.5,0,1.687c0.187,0.187,0.187,0.493,0,0.68&#xD;&#xA;&#x9;&#x9;c-0.188,0.187-0.188,1.5,0,1.687c0.187,0.187,0.187,0.493,0,0.679c-0.188,0.187-0.34,0.574-0.34,0.861v5.813&#xD;&#xA;&#x9;&#x9;c0,1.146,1.156,2.083,2.083,2.083h0.058c-1.286-0.101-1.522-1.604-1.522-1.604s0-6.211,0-6.625s0.488-0.577,0.451-0.875&#xD;&#xA;&#x9;&#x9;c-0.038-0.297-0.451-0.928-0.451-1.129s0.451-0.939,0.451-1.236c0-0.297-0.451-0.703-0.451-1.129s0.376-0.802,0.376-1.236&#xD;&#xA;&#x9;&#x9;c0-0.435-0.376-0.666-0.376-1.13s0.376-0.802,0.376-1.236s-0.376-0.402-0.376-1.129s0.376-1.151,0.413-1.555&#xD;&#xA;&#x9;&#x9;c0.038-0.405-0.413-0.99-0.413-0.99s0-4.399,0-4.737s0-0.22,0-0.606c0-1.304,2.894-4.349,3.211-4.662&#xD;&#xA;&#x9;&#x9;c0.317-0.313,3.309-0.394,3.309-0.394H4.982z"/>
  <linearGradient id="SVGID_18_" gradientUnits="userSpaceOnUse" x1="4.9824" y1="20.4043" x2="12.0889" y2="20.4043">
    <stop offset="0.9571" style="stop-color:#000000;stop-opacity:0.05"/>
    <stop offset="0.9945" style="stop-color:#000000;stop-opacity:0.05"/>
    <stop offset="1" style="stop-color:#000000;stop-opacity:0.05"/>
  </linearGradient>
  <path fill="url(#SVGID_18_)" d="M8.532,5.268l3.266,4.172c0.146,0.222,0.291,0.641,0.291,0.927v5.412&#xD;&#xA;&#x9;&#x9;c0,0.286-0.152,0.674-0.339,0.86c-0.188,0.187-0.188,0.493,0,0.68c0.187,0.187,0.187,1.5,0,1.687c-0.188,0.187-0.188,0.493,0,0.68&#xD;&#xA;&#x9;&#x9;c0.187,0.187,0.187,1.5,0,1.687c-0.188,0.187-0.188,0.493,0,0.68c0.187,0.187,0.187,1.5,0,1.687c-0.188,0.187-0.188,0.493,0,0.68&#xD;&#xA;&#x9;&#x9;c0.187,0.187,0.187,1.5,0,1.687c-0.188,0.187-0.188,0.493,0,0.679c0.187,0.187,0.339,0.574,0.339,0.861v5.813&#xD;&#xA;&#x9;&#x9;c0,1.146-0.938,2.083-2.083,2.083l0.218-0.002c0.676-0.154,1.247-1.603,1.247-1.603s0-6.211,0-6.625s-0.488-0.577-0.451-0.875&#xD;&#xA;&#x9;&#x9;c0.038-0.297,0.451-0.928,0.451-1.129s-0.451-0.939-0.451-1.236c0-0.297,0.451-0.703,0.451-1.129s-0.488-0.802-0.488-1.236&#xD;&#xA;&#x9;&#x9;c0-0.435,0.488-0.666,0.488-1.13s-0.488-0.802-0.488-1.236s0.434-0.518,0.376-1.242c-0.071-0.892-0.688-0.936-0.301-1.442&#xD;&#xA;&#x9;&#x9;c0.335-0.438,0.413-0.877,0.413-0.877s0-4.512,0-4.85s0.005-0.22,0-0.606C11.458,9.279,8.578,5.975,8.26,5.662&#xD;&#xA;&#x9;&#x9;C7.942,5.349,4.982,5.268,4.982,5.268H8.532z"/>
  <linearGradient id="SVGID_19_" gradientUnits="userSpaceOnUse" x1="6.5996" y1="1.3789" x2="6.5996" y2="35.5415">
    <stop offset="0" style="stop-color:#000000;stop-opacity:0"/>
    <stop offset="0.9939" style="stop-color:#000000;stop-opacity:0.1"/>
  </linearGradient>
  <path fill="url(#SVGID_19_)" d="M11.892,9.437L8.639,5.268v-1.26h0.413V3.661H8.644V1.629l-0.271-0.25H4.842L4.588,1.638v2.023&#xD;&#xA;&#x9;&#x9;H4.166v0.347h0.422v1.26l-3.28,4.168c-0.177,0.226-0.321,0.645-0.321,0.931v5.412c0,0.286,0.152,0.674,0.339,0.86&#xD;&#xA;&#x9;&#x9;c0.188,0.187,0.188,0.493,0,0.68c-0.187,0.187-0.187,1.5,0,1.687c0.188,0.187,0.188,0.493,0,0.68c-0.187,0.187-0.187,1.5,0,1.687&#xD;&#xA;&#x9;&#x9;c0.188,0.187,0.188,0.493,0,0.68c-0.187,0.187-0.187,1.5,0,1.687c0.188,0.187,0.188,0.493,0,0.68c-0.187,0.187-0.187,1.5,0,1.687&#xD;&#xA;&#x9;&#x9;c0.188,0.187,0.188,0.493,0,0.679c-0.187,0.187-0.339,0.574-0.339,0.861v5.813c0,1.146,0.938,2.083,2.083,2.083h7.061&#xD;&#xA;&#x9;&#x9;c1.146,0,2.083-0.875,2.083-2.083v-5.815c-0.001-0.286-0.153-0.672-0.34-0.858s-0.187-0.493,0-0.679c0.187-0.188,0.187-1.5,0-1.687&#xD;&#xA;&#x9;&#x9;s-0.187-0.493,0-0.68s0.187-1.5,0-1.687s-0.187-0.493,0-0.68s0.187-1.5,0-1.687c-0.187-0.187-0.187-0.493,0-0.68&#xD;&#xA;&#x9;&#x9;c0.187-0.187,0.187-1.5,0-1.687s-0.187-0.493,0-0.68s0.34-0.574,0.34-0.861v-5.411C12.213,10.081,12.068,9.662,11.892,9.437z"/>
  <linearGradient id="SVGID_20_" gradientUnits="userSpaceOnUse" x1="6.6172" y1="1.3789" x2="6.6172" y2="15.7788">
    <stop offset="0" style="stop-color:#000000;stop-opacity:0"/>
    <stop offset="0.1143" style="stop-color:#040404;stop-opacity:0.023"/>
    <stop offset="0.2378" style="stop-color:#111111;stop-opacity:0.0479"/>
    <stop offset="0.3658" style="stop-color:#272727;stop-opacity:0.0736"/>
    <stop offset="0.4968" style="stop-color:#454545;stop-opacity:0.1"/>
    <stop offset="0.6301" style="stop-color:#6C6C6C;stop-opacity:0.1268"/>
    <stop offset="0.7654" style="stop-color:#9C9C9C;stop-opacity:0.154"/>
    <stop offset="0.8996" style="stop-color:#D3D3D3;stop-opacity:0.181"/>
    <stop offset="0.9939" style="stop-color:#FFFFFF;stop-opacity:0.2"/>
  </linearGradient>
  <path fill="url(#SVGID_20_)" d="M12.231,15.778v-5.411c0-0.286-0.145-0.705-0.321-0.931L8.639,5.268v-1.26h0.413V3.661H8.644V1.633&#xD;&#xA;&#x9;&#x9;L8.373,1.379H4.842L4.588,1.638v2.023H4.166v0.347h0.422v1.26L1.325,9.437c-0.177,0.226-0.321,0.645-0.321,0.931v5.412&#xD;&#xA;&#x9;&#x9;L12.231,15.778z"/>
  <linearGradient id="SVGID_21_" gradientUnits="userSpaceOnUse" x1="6.6133" y1="5.2676" x2="6.6133" y2="4.0078">
    <stop offset="0" style="stop-color:#000000;stop-opacity:0"/>
    <stop offset="0.8533" style="stop-color:#000000;stop-opacity:0.2576"/>
    <stop offset="0.9939" style="stop-color:#000000;stop-opacity:0.3"/>
  </linearGradient>
  <rect x="4.588" y="4.008" fill="url(#SVGID_21_)" width="4.051" height="1.26"/>
  <linearGradient id="SVGID_22_" gradientUnits="userSpaceOnUse" x1="6.6152" y1="9.2134" x2="6.6152" y2="5.2676">
    <stop offset="0" style="stop-color:#000000;stop-opacity:0"/>
    <stop offset="0.1937" style="stop-color:#424242;stop-opacity:0.0292"/>
    <stop offset="0.4094" style="stop-color:#848484;stop-opacity:0.0618"/>
    <stop offset="0.6053" style="stop-color:#B9B9B9;stop-opacity:0.0914"/>
    <stop offset="0.7741" style="stop-color:#DFDFDF;stop-opacity:0.1168"/>
    <stop offset="0.9093" style="stop-color:#F6F6F6;stop-opacity:0.1372"/>
    <stop offset="0.9939" style="stop-color:#FFFFFF;stop-opacity:0.15"/>
  </linearGradient>
  <polygon fill="url(#SVGID_22_)" points="4.588,5.268 8.639,5.268 11.73,9.213 1.501,9.213 &#x9;"/>
  <linearGradient id="SVGID_23_" gradientUnits="userSpaceOnUse" x1="5.8242" y1="4.6382" x2="4.9824" y2="4.6382">
    <stop offset="0" style="stop-color:#000000;stop-opacity:0"/>
    <stop offset="0.1937" style="stop-color:#424242;stop-opacity:0.0292"/>
    <stop offset="0.4094" style="stop-color:#848484;stop-opacity:0.0618"/>
    <stop offset="0.6053" style="stop-color:#B9B9B9;stop-opacity:0.0914"/>
    <stop offset="0.7741" style="stop-color:#DFDFDF;stop-opacity:0.1168"/>
    <stop offset="0.9093" style="stop-color:#F6F6F6;stop-opacity:0.1372"/>
    <stop offset="0.9939" style="stop-color:#FFFFFF;stop-opacity:0.15"/>
  </linearGradient>
  <rect x="4.982" y="4.008" fill="url(#SVGID_23_)" width="0.842" height="1.26"/>
  <linearGradient id="SVGID_24_" gradientUnits="userSpaceOnUse" x1="8.6387" y1="4.6382" x2="8.5322" y2="4.6382">
    <stop offset="0" style="stop-color:#000000;stop-opacity:0"/>
    <stop offset="0.1937" style="stop-color:#424242;stop-opacity:0.0292"/>
    <stop offset="0.4094" style="stop-color:#848484;stop-opacity:0.0618"/>
    <stop offset="0.6053" style="stop-color:#B9B9B9;stop-opacity:0.0914"/>
    <stop offset="0.7741" style="stop-color:#DFDFDF;stop-opacity:0.1168"/>
    <stop offset="0.9093" style="stop-color:#F6F6F6;stop-opacity:0.1372"/>
    <stop offset="0.9939" style="stop-color:#FFFFFF;stop-opacity:0.15"/>
  </linearGradient>
  <rect x="8.532" y="4.008" fill="url(#SVGID_24_)" width="0.106" height="1.26"/>
  <linearGradient id="SVGID_25_" gradientUnits="userSpaceOnUse" x1="6.6094" y1="4.0078" x2="6.6094" y2="3.6606">
    <stop offset="0.0982" style="stop-color:#000000;stop-opacity:0.05"/>
    <stop offset="0.3816" style="stop-color:#020202;stop-opacity:0.0873"/>
    <stop offset="0.4838" style="stop-color:#090909;stop-opacity:0.1007"/>
    <stop offset="0.5566" style="stop-color:#141414;stop-opacity:0.1103"/>
    <stop offset="0.6155" style="stop-color:#252525;stop-opacity:0.118"/>
    <stop offset="0.6659" style="stop-color:#3B3B3B;stop-opacity:0.1246"/>
    <stop offset="0.7105" style="stop-color:#575757;stop-opacity:0.1305"/>
    <stop offset="0.7509" style="stop-color:#777777;stop-opacity:0.1358"/>
    <stop offset="0.7881" style="stop-color:#9D9D9D;stop-opacity:0.1407"/>
    <stop offset="0.8226" style="stop-color:#C8C8C8;stop-opacity:0.1452"/>
    <stop offset="0.8533" style="stop-color:#F6F6F6;stop-opacity:0.1493"/>
    <stop offset="0.8589" style="stop-color:#FFFFFF;stop-opacity:0.15"/>
  </linearGradient>
  <rect x="4.166" y="3.661" fill="url(#SVGID_25_)" width="4.886" height="0.347"/>
  <linearGradient id="SVGID_26_" gradientUnits="userSpaceOnUse" x1="6.6133" y1="5.3809" x2="6.6133" y2="5.2681">
    <stop offset="0.0123" style="stop-color:#FFFFFF;stop-opacity:0"/>
    <stop offset="0.4414" style="stop-color:#FFFFFF;stop-opacity:0.4265"/>
    <stop offset="0.5153" style="stop-color:#FFFFFF;stop-opacity:0.5"/>
    <stop offset="0.9371" style="stop-color:#FFFFFF;stop-opacity:0.0649"/>
    <stop offset="1" style="stop-color:#FFFFFF;stop-opacity:0"/>
  </linearGradient>
  <polygon fill="url(#SVGID_26_)" points="8.727,5.381 4.499,5.381 4.588,5.268 8.639,5.268 &#x9;"/>
  <linearGradient id="SVGID_27_" gradientUnits="userSpaceOnUse" x1="12.1074" y1="9.6831" x2="1.1396" y2="9.6831">
    <stop offset="0.0123" style="stop-color:#FFFFFF;stop-opacity:0"/>
    <stop offset="0.5153" style="stop-color:#FFFFFF;stop-opacity:0.3"/>
    <stop offset="0.9503" style="stop-color:#FFFFFF;stop-opacity:0.0307"/>
    <stop offset="1" style="stop-color:#FFFFFF;stop-opacity:0"/>
  </linearGradient>
  <polygon fill="url(#SVGID_27_)" points="12.107,9.799 1.14,9.799 1.238,9.567 11.991,9.567 &#x9;"/>
  <linearGradient id="SVGID_28_" gradientUnits="userSpaceOnUse" x1="12.2314" y1="15.5337" x2="0.9863" y2="15.5337">
    <stop offset="0.0123" style="stop-color:#FFFFFF;stop-opacity:0"/>
    <stop offset="0.5153" style="stop-color:#FFFFFF;stop-opacity:0.3"/>
    <stop offset="0.9503" style="stop-color:#FFFFFF;stop-opacity:0.0307"/>
    <stop offset="1" style="stop-color:#FFFFFF;stop-opacity:0"/>
  </linearGradient>
  <rect x="0.986" y="15.53" fill="url(#SVGID_28_)" width="11.245" height="0.008"/>
  <linearGradient id="SVGID_29_" gradientUnits="userSpaceOnUse" x1="12.2266" y1="27.8218" x2="1" y2="27.8218">
    <stop offset="0.0123" style="stop-color:#FFFFFF;stop-opacity:0"/>
    <stop offset="0.5153" style="stop-color:#FFFFFF;stop-opacity:0.3"/>
    <stop offset="0.9503" style="stop-color:#FFFFFF;stop-opacity:0.0307"/>
    <stop offset="1" style="stop-color:#FFFFFF;stop-opacity:0"/>
  </linearGradient>
  <rect x="1" y="27.706" fill="url(#SVGID_29_)" width="11.227" height="0.232"/>
  <linearGradient id="SVGID_30_" gradientUnits="userSpaceOnUse" x1="6.6152" y1="3.6606" x2="6.6152" y2="1.3789">
    <stop offset="0" style="stop-color:#000000;stop-opacity:0.2"/>
    <stop offset="0.0074" style="stop-color:#020202;stop-opacity:0.1993"/>
    <stop offset="0.3799" style="stop-color:#6D6D6D;stop-opacity:0.1618"/>
    <stop offset="0.6788" style="stop-color:#BCBCBC;stop-opacity:0.1317"/>
    <stop offset="0.8897" style="stop-color:#ECECEC;stop-opacity:0.1105"/>
    <stop offset="0.9939" style="stop-color:#FFFFFF;stop-opacity:0.1"/>
  </linearGradient>
  <polygon fill="url(#SVGID_30_)" points="8.644,3.661 4.588,3.661 4.588,1.638 4.842,1.379 8.373,1.379 8.644,1.638 &#x9;"/>
  <linearGradient id="SVGID_31_" gradientUnits="userSpaceOnUse" x1="6.6133" y1="33.458" x2="6.6133" y2="35.541">
    <stop offset="0" style="stop-color:#000000;stop-opacity:0.05"/>
    <stop offset="0.9939" style="stop-color:#000000;stop-opacity:0.1"/>
  </linearGradient>
  <path fill="url(#SVGID_31_)" d="M10.144,35.541c1.146,0,2.083-0.875,2.083-2.083H1c0,1.146,0.938,2.083,2.083,2.083"/>
  <linearGradient id="SVGID_32_" gradientUnits="userSpaceOnUse" x1="11.8184" y1="33.5137" x2="1.5303" y2="33.5137">
    <stop offset="0.0123" style="stop-color:#FFFFFF;stop-opacity:0"/>
    <stop offset="0.5153" style="stop-color:#FFFFFF;stop-opacity:0.3"/>
    <stop offset="0.9503" style="stop-color:#FFFFFF;stop-opacity:0.0307"/>
    <stop offset="1" style="stop-color:#FFFFFF;stop-opacity:0"/>
  </linearGradient>
  <rect x="1.53" y="33.401" fill="url(#SVGID_32_)" width="10.288" height="0.226"/>
</svg>