<svg version="1.2" baseProfile="tiny" viewBox="0 0 13.227 36.541" xmlns:xlink="http://www.w3.org/1999/xlink" xmlns="http://www.w3.org/2000/svg">
<path style="fill:#ffffff;" d="M11.906,9.4371L8.639,5.2681L8.639,4.0082L9.052,4.0082L9.052,3.661L8.644,3.661L8.644,3.661L8.644,1.629L8.373,1.3791L4.842,1.3791L4.842,1.3791L4.588,1.6381L4.588,3.661L4.166,3.661L4.166,3.661L4.166,4.0082L4.588,4.0082L4.588,5.2681L1.321,9.4371C1.1451,9.6622,1.0,10.0809,1.0,10.367L1.0,15.7791C1.0,16.0649,1.1519,16.453,1.34,16.6389C1.5271,16.826,1.5271,17.1319,1.34,17.319C1.1519,17.5061,1.1519,18.819,1.34,19.0061C1.5271,19.1932,1.5271,19.499,1.34,19.6861C1.1519,19.8728,1.1519,21.1861,1.34,21.3728C1.5271,21.5599,1.5271,21.8661,1.34,22.0529C1.1519,22.2399,1.1519,23.5529,1.34,23.74C1.5271,23.927,1.5271,24.2329,1.34,24.42C1.1519,24.6071,1.1519,25.92,1.34,26.1071C1.5271,26.2942,1.5271,26.6,1.34,26.786C1.1519,26.9709,1.0,27.3579,1.0,27.6451L1.0,33.458C1.0,34.604,1.938,35.5409,3.0829,35.5409L10.1441,35.5409C11.29,35.5409,12.227,34.6029,12.227,33.458L12.227,27.6429C12.226,27.3572,12.074,26.9709,11.887,26.7849C11.6999,26.5989,11.6999,26.292,11.887,26.106C12.0751,25.9182,12.0751,24.606,11.887,24.4189C11.6999,24.2322,11.6999,23.926,11.887,23.7389C12.0751,23.5521,12.0751,22.2389,11.887,22.0521C11.6999,21.865,11.6999,21.5588,11.887,21.3721C12.0751,21.185,12.0751,19.8721,11.887,19.685C11.6999,19.4979,11.6999,19.1921,11.887,19.005C12.0751,18.8179,12.0751,17.505,11.887,17.3179C11.6999,17.1312,11.6999,16.8249,11.887,16.6378C12.0751,16.4511,12.227,16.0642,12.227,15.7769L12.227,10.366C12.227,10.0809,12.0819,9.6622,11.906,9.4371Z"/>
</svg>