<svg version="1.2" baseProfile="tiny" id="EdgeSVG_S9bH2" x="0px" y="0px" width="14.001px" height="37.094px" viewBox="0 0 14.001 37.094" xmlns:xlink="http://www.w3.org/1999/xlink" xmlns="http://www.w3.org/2000/svg">
  <linearGradient id="SVGID_1_" gradientUnits="userSpaceOnUse" x1="0" y1="18.7559" x2="14.001" y2="18.7559">
    <stop offset="0" style="stop-color:#000000;stop-opacity:0.5"/>
    <stop offset="1" style="stop-color:#000000;stop-opacity:0.5"/>
  </linearGradient>
  <path fill="url(#SVGID_1_)" d="M10.367,37.094c-0.55,0-0.958-0.07-1.367-0.234c-0.072-0.028-0.196-0.074-0.331-0.123&#xD;&#xA;&#x9;&#x9;c-0.263,0.234-0.592,0.357-0.968,0.357h-1.4c-0.375,0-0.704-0.123-0.967-0.357c-0.138,0.05-0.264,0.097-0.34,0.126&#xD;&#xA;&#x9;&#x9;c-0.401,0.161-0.81,0.231-1.359,0.231c-0.75,0-1.417-0.291-1.791-0.563c-0.651-0.473-1.104-1.789-1.189-2.048&#xD;&#xA;&#x9;&#x9;c-0.539-1.974-0.71-4.823-0.639-5.461c0.052-0.45,0.271-0.862,0.448-1.193c0.028-0.053,0.056-0.102,0.078-0.146V15.229&#xD;&#xA;&#x9;&#x9;c-0.014-0.034-0.03-0.071-0.049-0.113c-0.042-0.1-0.09-0.211-0.138-0.339c-0.187-0.499-0.719-2.351,0.283-5.222&#xD;&#xA;&#x9;&#x9;c0.686-1.964,2.114-3.484,2.992-4.281C3.378,5.107,3.196,4.837,3.196,4.405c0-0.534,0.25-0.891,0.744-1.066&#xD;&#xA;&#x9;&#x9;c0.043-0.104,0.102-0.199,0.173-0.283V1.706c0-0.782,0.521-1.287,1.326-1.287h3.123c0.806,0,1.326,0.505,1.326,1.287v1.351&#xD;&#xA;&#x9;&#x9;c0.071,0.084,0.13,0.18,0.173,0.283c0.494,0.175,0.744,0.532,0.744,1.066c0,0.432-0.182,0.702-0.435,0.869&#xD;&#xA;&#x9;&#x9;c0.878,0.797,2.307,2.317,2.992,4.281c1.002,2.871,0.47,4.723,0.283,5.222c-0.048,0.128-0.096,0.239-0.138,0.339&#xD;&#xA;&#x9;&#x9;c-0.019,0.042-0.035,0.079-0.049,0.113v12.454c0.022,0.044,0.05,0.093,0.078,0.146c0.177,0.331,0.396,0.743,0.447,1.193&#xD;&#xA;&#x9;&#x9;c0.072,0.638-0.099,3.487-0.624,5.414c-0.099,0.306-0.552,1.622-1.205,2.096C11.784,36.803,11.117,37.094,10.367,37.094z"/>
</svg>