<svg version="1.2" baseProfile="tiny" id="EdgeSVG_NaGzN" x="0px" y="0px" width="13.227px" height="36.541px" viewBox="0 0 13.227 36.541" xmlns:xlink="http://www.w3.org/1999/xlink" xmlns="http://www.w3.org/2000/svg">
  <linearGradient id="SVGID_1_" gradientUnits="userSpaceOnUse" x1="0" y1="18.4619" x2="13.2266" y2="18.4619">
    <stop offset="0" style="stop-color:#000000;stop-opacity:0.5"/>
    <stop offset="1" style="stop-color:#000000;stop-opacity:0.5"/>
  </linearGradient>
  <path fill="url(#SVGID_1_)" d="M13.227,10.367c0-0.358-0.112-0.777-0.287-1.136c-0.059-0.107-0.121-0.211-0.19-0.299L9.705,5.047&#xD;&#xA;&#x9;&#x9;h0.032h0.332V3.476L10.04,2.477h-0.4V1.171L8.721,0.383H4.352L3.53,1.224v1.253H3.153L3.119,3.476v1.572H3.49h0.004L0.525,8.834&#xD;&#xA;&#x9;&#x9;C0.216,9.236,0,9.863,0,10.367v5.412c0,0.41,0.144,0.872,0.37,1.233c-0.099,0.242-0.171,0.599-0.171,1.154&#xD;&#xA;&#x9;&#x9;c0,0.576,0.079,0.938,0.185,1.18c-0.105,0.242-0.185,0.605-0.185,1.183c0,0.579,0.079,0.942,0.185,1.184&#xD;&#xA;&#x9;&#x9;c-0.105,0.243-0.185,0.607-0.185,1.187c0,0.576,0.079,0.938,0.185,1.18c-0.105,0.241-0.185,0.604-0.185,1.179&#xD;&#xA;&#x9;&#x9;c0,0.555,0.072,0.912,0.171,1.154C0.144,26.774,0,27.235,0,27.645v6.216c0,1.7,1.383,2.68,3.083,2.68h7.061&#xD;&#xA;&#x9;&#x9;c1.7,0,3.083-0.979,3.083-2.68v-6.222c-0.001-0.407-0.145-0.866-0.37-1.227c0.099-0.242,0.171-0.6,0.171-1.154&#xD;&#xA;&#x9;&#x9;c0-0.577-0.079-0.938-0.185-1.18c0.105-0.242,0.185-0.605,0.185-1.183c0-0.579-0.079-0.941-0.185-1.184&#xD;&#xA;&#x9;&#x9;c0.105-0.242,0.185-0.605,0.185-1.183s-0.079-0.941-0.185-1.183c0.105-0.242,0.185-0.604,0.185-1.179&#xD;&#xA;&#x9;&#x9;c0-0.555-0.072-0.913-0.171-1.154c0.227-0.363,0.37-0.824,0.37-1.233V10.367z"/>
</svg>