<svg version="1.2" baseProfile="tiny" viewBox="0 0 14.001 37.094" xmlns:xlink="http://www.w3.org/1999/xlink" xmlns="http://www.w3.org/2000/svg">
<path style="fill:#ffffff;" d="M6.9999,1.4181C6.9999,1.4181,8.234,1.4181,8.563,1.4181C8.889,1.4181,8.889,1.5431,8.889,1.7048C8.889,1.8669,8.889,3.4041,8.889,3.521C8.889,3.6382,8.9401,3.6679,9.057,3.6679C9.175,3.6679,9.175,3.8452,9.057,3.8452C8.9401,3.8452,8.889,3.8589,8.889,3.9921C8.889,4.1241,8.923,4.212,9.026,4.212C9.125,4.212,9.182,4.212,9.182,4.212C9.7749,4.212,9.806,4.2858,9.806,4.4042C9.806,4.5221,9.5919,4.5522,9.0439,4.5522C9.0439,4.5522,8.9191,5.2599,9.0439,5.4691C9.0439,5.4691,11.5029,7.2612,12.419,9.8859C13.335,12.5111,12.835,14.0939,12.71,14.4281C12.5849,14.7619,12.4601,14.97,12.4601,15.1369C12.4601,15.3031,12.4601,27.6361,12.4601,27.845C12.4601,28.0531,12.94,28.6789,12.9919,29.1359C13.044,29.5951,12.896,32.3419,12.3961,34.1751C12.1769,34.8468,11.814,35.5461,11.569,35.7241C11.325,35.9022,10.855,36.0951,10.367,36.0951C9.8799,36.0951,9.616,36.0309,9.373,35.933C9.127,35.8361,8.3571,35.5631,8.3571,35.5631C8.3571,35.5631,8.2079,35.7241,8.094,35.8851C7.982,36.0461,7.868,36.0951,7.7,36.0951C7.53,36.0951,6.999,36.0951,6.999,36.0951L7.0011,36.0951C7.0011,36.0951,6.47,36.0951,6.3,36.0951C6.132,36.0951,6.019,36.0461,5.906,35.8851C5.7931,35.7241,5.643,35.5631,5.643,35.5631C5.643,35.5631,4.873,35.8361,4.6271,35.933C4.384,36.0309,4.1199,36.0951,3.633,36.0951C3.145,36.0951,2.675,35.9022,2.431,35.7241C2.186,35.5461,1.8229,34.8468,1.604,34.1751C1.104,32.3419,0.957,29.5951,1.0079,29.1359C1.06,28.6789,1.54,28.0531,1.54,27.845C1.54,27.6361,1.54,15.3031,1.54,15.1369C1.54,14.97,1.4149,14.7619,1.2901,14.4281C1.165,14.0939,0.667,12.51,1.583,9.8852C2.499,7.26,4.958,5.468,4.958,5.468C5.0831,5.2599,4.958,4.5511,4.958,4.5511C4.41,4.5511,4.196,4.5221,4.196,4.4049C4.196,4.2881,4.228,4.2131,4.82,4.2131C4.82,4.2131,4.8779,4.2131,4.976,4.2131C5.079,4.2131,5.113,4.1249,5.113,3.9932C5.113,3.86,5.0621,3.8459,4.945,3.8459C4.827,3.8459,4.827,3.669,4.945,3.669C5.0621,3.669,5.113,3.6389,5.113,3.5221C5.113,3.4041,5.113,1.8669,5.113,1.706C5.113,1.545,5.113,1.4188,5.439,1.4188C5.767,1.4188,7.002,1.4188,7.002,1.4188L6.9999,1.4188L6.9999,1.4188Z"/>
</svg>