<svg version="1.2" baseProfile="tiny" id="EdgeSVG_S9bH2" x="0px" y="0px" width="14.001px" height="37.094px" viewBox="0 0 14.001 37.094" xmlns:xlink="http://www.w3.org/1999/xlink" xmlns="http://www.w3.org/2000/svg">
  <linearGradient id="SVGID_13_" gradientUnits="userSpaceOnUse" x1="7.002" y1="0" x2="7.002" y2="5.2217">
    <stop offset="0" style="stop-color:#000000;stop-opacity:0.5"/>
    <stop offset="1" style="stop-color:#000000;stop-opacity:0.5"/>
  </linearGradient>
  <path fill="url(#SVGID_13_)" d="M3.94,3.339c0.043-0.104,0.102-0.199,0.173-0.283V1.706c0-0.782,0.521-1.287,1.326-1.287h3.123&#xD;&#xA;&#x9;&#x9;c0.806,0,1.326,0.505,1.326,1.287v1.351c0.071,0.084,0.13,0.18,0.173,0.283c0.344,0.122,0.562,0.337,0.667,0.634&#xD;&#xA;&#x9;&#x9;c-0.021-0.165-0.058-0.456-0.063-0.545c0-0.182-0.041-0.33-0.083-0.443c0.011-0.215,0.011-0.621-0.002-1.533l-0.003-0.218&#xD;&#xA;&#x9;&#x9;C10.577,0.508,10.046,0,9.284,0H4.72C3.958,0,3.427,0.508,3.427,1.234L3.424,1.453C3.411,2.36,3.411,2.766,3.422,2.984&#xD;&#xA;&#x9;&#x9;C3.383,3.087,3.339,3.234,3.34,3.4C3.334,3.509,3.298,3.8,3.276,3.967C3.383,3.674,3.599,3.46,3.94,3.339z"/>
</svg>