<svg version="1.2" baseProfile="tiny" viewBox="0 0 14.001 37.094" xmlns:xlink="http://www.w3.org/1999/xlink" xmlns="http://www.w3.org/2000/svg">
<path style="fill:#ffffff;" d="M7.002,4.2191L9.752,4.2191C9.752,4.2191,9.665,3.5458,9.665,3.4279C9.665,3.311,9.548,3.1949,9.577,3.0191C9.605,2.844,9.577,1.3799,9.577,1.2341C9.577,1.088,9.519,1.0001,9.2841,1.0001C9.049,1.0001,7.002,1.0001,7.002,1.0001C7.002,1.0001,4.954,1.0001,4.72,1.0001C4.4861,1.0001,4.427,1.088,4.427,1.2341C4.427,1.3799,4.399,2.8429,4.427,3.0191C4.456,3.1949,4.339,3.311,4.339,3.4279C4.339,3.5451,4.252,4.2191,4.252,4.2191L7.002,4.2191L7.002,4.2191Z"/>
</svg>