<svg version="1.2" baseProfile="tiny" viewBox="0 0 11.852 37.0" xmlns:xlink="http://www.w3.org/1999/xlink" xmlns="http://www.w3.org/2000/svg">
<path style="fill:#ffffff;" d="M5.926,35.9999C5.926,35.9999,8.901,35.9999,9.582,35.9999C10.2621,35.9999,10.42,35.8449,10.603,35.3502C10.791,34.854,10.853,34.4522,10.853,33.4591C10.853,32.466,10.728,32.0971,10.728,30.8269C10.728,29.526,10.728,20.417,10.728,19.1778C10.728,17.9391,10.946,17.3811,10.512,16.051C10.078,14.7171,9.18,13.912,8.992,13.4469C8.805,12.9818,8.87,12.1142,8.87,10.9061C8.87,9.6981,8.219,4.3072,8.187,4.1199C8.156,3.9361,8.467,3.9649,8.467,3.7488C8.467,3.532,8.096,2.355,8.096,2.139C8.096,1.921,8.341,1.9839,8.341,1.8271C8.341,1.675,8.124,1.302,7.816,1.302C7.505,1.302,5.926,1.302,5.926,1.302C5.926,1.302,4.347,1.302,4.036,1.302C3.727,1.302,3.511,1.675,3.511,1.8271C3.511,1.9839,3.757,1.921,3.757,2.139C3.757,2.355,3.386,3.532,3.386,3.7488C3.386,3.9649,3.697,3.9372,3.665,4.1199C3.633,4.3072,2.982,9.6981,2.982,10.9061C2.982,12.1142,3.045,12.9811,2.8591,13.4469C2.672,13.912,1.774,14.7171,1.3411,16.051C0.906,17.3811,1.124,17.9391,1.124,19.1778C1.124,20.417,1.124,29.5271,1.124,30.8269C1.124,32.0971,1.0,32.4671,1.0,33.4591C1.0,34.4511,1.063,34.854,1.248,35.3502C1.434,35.8449,1.589,35.9999,2.27,35.9999C2.951,35.9999,5.926,35.9999,5.926,35.9999Z"/>
</svg>