<svg version="1.2" baseProfile="tiny" id="EdgeSVG_Ymh2s" x="0px" y="0px" width="11.852px" height="37px" viewBox="0 0 11.852 37" xmlns:xlink="http://www.w3.org/1999/xlink" xmlns="http://www.w3.org/2000/svg">
  <linearGradient id="SVGID_14_" gradientUnits="userSpaceOnUse" x1="3.1782" y1="1.7129" x2="8.6753" y2="1.7129">
    <stop offset="0" style="stop-color:#000000;stop-opacity:0.25"/>
    <stop offset="0.0117" style="stop-color:#121212;stop-opacity:0.2464"/>
    <stop offset="0.0462" style="stop-color:#444444;stop-opacity:0.2358"/>
    <stop offset="0.0835" style="stop-color:#707070;stop-opacity:0.2244"/>
    <stop offset="0.1226" style="stop-color:#979797;stop-opacity:0.2125"/>
    <stop offset="0.1641" style="stop-color:#B7B7B7;stop-opacity:0.1998"/>
    <stop offset="0.2086" style="stop-color:#D1D1D1;stop-opacity:0.1862"/>
    <stop offset="0.2574" style="stop-color:#E6E6E6;stop-opacity:0.1712"/>
    <stop offset="0.3124" style="stop-color:#F4F4F4;stop-opacity:0.1544"/>
    <stop offset="0.3792" style="stop-color:#FCFCFC;stop-opacity:0.134"/>
    <stop offset="0.4902" style="stop-color:#FFFFFF;stop-opacity:0.1"/>
    <stop offset="0.5465" style="stop-color:#FAFAFA;stop-opacity:0.1166"/>
    <stop offset="0.6096" style="stop-color:#EDEDED;stop-opacity:0.1351"/>
    <stop offset="0.6762" style="stop-color:#D6D6D6;stop-opacity:0.1547"/>
    <stop offset="0.745" style="stop-color:#B7B7B7;stop-opacity:0.175"/>
    <stop offset="0.8157" style="stop-color:#8E8E8E;stop-opacity:0.1958"/>
    <stop offset="0.8879" style="stop-color:#5D5D5D;stop-opacity:0.217"/>
    <stop offset="0.96" style="stop-color:#232323;stop-opacity:0.2382"/>
    <stop offset="1" style="stop-color:#000000;stop-opacity:0.25"/>
  </linearGradient>
  <path fill="url(#SVGID_14_)" d="M5.926,2.425h2.749C8.675,1.733,8.349,1,7.921,1C7.493,1,5.926,1,5.926,1S4.359,1,3.931,1&#xD;&#xA;&#x9;&#x9;C3.504,1,3.178,1.733,3.178,2.425H5.926z"/>
  <linearGradient id="SVGID_15_" gradientUnits="userSpaceOnUse" x1="5.9268" y1="1" x2="5.9268" y2="2.4253">
    <stop offset="0" style="stop-color:#FFFFFF;stop-opacity:0.1"/>
    <stop offset="0.1056" style="stop-color:#FFFFFF;stop-opacity:0.35"/>
    <stop offset="0.1238" style="stop-color:#F7F7F7;stop-opacity:0.3294"/>
    <stop offset="0.1522" style="stop-color:#E1E1E1;stop-opacity:0.2972"/>
    <stop offset="0.1873" style="stop-color:#BCBCBC;stop-opacity:0.2574"/>
    <stop offset="0.2278" style="stop-color:#8A8A8A;stop-opacity:0.2115"/>
    <stop offset="0.2728" style="stop-color:#494949;stop-opacity:0.1605"/>
    <stop offset="0.3183" style="stop-color:#000000;stop-opacity:0.109"/>
    <stop offset="0.3462" style="stop-color:#060606;stop-opacity:0.099"/>
    <stop offset="0.3842" style="stop-color:#181818;stop-opacity:0.0853"/>
    <stop offset="0.428" style="stop-color:#343434;stop-opacity:0.0695"/>
    <stop offset="0.4761" style="stop-color:#5C5C5C;stop-opacity:0.0522"/>
    <stop offset="0.5278" style="stop-color:#8F8F8F;stop-opacity:0.0337"/>
    <stop offset="0.5815" style="stop-color:#CDCDCD;stop-opacity:0.0143"/>
    <stop offset="0.6214" style="stop-color:#FFFFFF;stop-opacity:0"/>
    <stop offset="0.8537" style="stop-color:#000000;stop-opacity:0"/>
    <stop offset="1" style="stop-color:#000000;stop-opacity:0.35"/>
  </linearGradient>
  <path fill="url(#SVGID_15_)" d="M5.926,2.425h2.749C8.675,1.733,8.349,1,7.921,1C7.493,1,5.926,1,5.926,1S4.359,1,3.931,1&#xD;&#xA;&#x9;&#x9;C3.504,1,3.178,1.733,3.178,2.425H5.926z"/>
  <g>
    <linearGradient id="SVGID_16_" gradientUnits="userSpaceOnUse" x1="3.3149" y1="2.0049" x2="3.478" y2="2.0049">
      <stop offset="0" style="stop-color:#000000;stop-opacity:0.35"/>
      <stop offset="0.552" style="stop-color:#FFFFFF;stop-opacity:0.25"/>
      <stop offset="1" style="stop-color:#000000;stop-opacity:0.35"/>
    </linearGradient>
    <path fill="url(#SVGID_16_)" d="M3.315,2.425c0,0,0.015-0.608,0.072-0.743c0.057-0.134,0.043-0.126,0.077,0&#xD;&#xA;&#x9;&#x9;&#x9;c0.033,0.127,0,0.743,0,0.743H3.315z"/>
    <linearGradient id="SVGID_17_" gradientUnits="userSpaceOnUse" x1="3.7539" y1="2.0049" x2="4.0073" y2="2.0049">
      <stop offset="0" style="stop-color:#000000;stop-opacity:0.35"/>
      <stop offset="0.552" style="stop-color:#FFFFFF;stop-opacity:0.25"/>
      <stop offset="1" style="stop-color:#000000;stop-opacity:0.35"/>
    </linearGradient>
    <path fill="url(#SVGID_17_)" d="M3.754,2.425c0,0,0.015-0.608,0.072-0.743c0.058-0.134,0.134-0.126,0.167,0&#xD;&#xA;&#x9;&#x9;&#x9;c0.033,0.127,0,0.743,0,0.743H3.754z"/>
    <linearGradient id="SVGID_18_" gradientUnits="userSpaceOnUse" x1="4.5708" y1="2.0049" x2="4.8237" y2="2.0049">
      <stop offset="0" style="stop-color:#000000;stop-opacity:0.35"/>
      <stop offset="0.552" style="stop-color:#FFFFFF;stop-opacity:0.25"/>
      <stop offset="1" style="stop-color:#000000;stop-opacity:0.35"/>
    </linearGradient>
    <path fill="url(#SVGID_18_)" d="M4.571,2.425c0,0,0.014-0.608,0.072-0.743c0.058-0.134,0.133-0.126,0.166,0&#xD;&#xA;&#x9;&#x9;&#x9;c0.033,0.127,0,0.743,0,0.743H4.571z"/>
    <linearGradient id="SVGID_19_" gradientUnits="userSpaceOnUse" x1="8.3472" y1="2.0049" x2="8.5083" y2="2.0049">
      <stop offset="0" style="stop-color:#000000;stop-opacity:0.35"/>
      <stop offset="0.552" style="stop-color:#FFFFFF;stop-opacity:0.25"/>
      <stop offset="1" style="stop-color:#000000;stop-opacity:0.35"/>
    </linearGradient>
    <path fill="url(#SVGID_19_)" d="M8.508,2.425c0,0-0.014-0.608-0.069-0.743c-0.058-0.134-0.043-0.126-0.076,0&#xD;&#xA;&#x9;&#x9;&#x9;c-0.034,0.127,0,0.743,0,0.743H8.508z"/>
    <linearGradient id="SVGID_20_" gradientUnits="userSpaceOnUse" x1="6.9937" y1="2.0049" x2="7.2485" y2="2.0049">
      <stop offset="0" style="stop-color:#000000;stop-opacity:0.35"/>
      <stop offset="0.552" style="stop-color:#FFFFFF;stop-opacity:0.25"/>
      <stop offset="1" style="stop-color:#000000;stop-opacity:0.35"/>
    </linearGradient>
    <path fill="url(#SVGID_20_)" d="M7.249,2.425c0,0-0.016-0.608-0.073-0.743c-0.058-0.134-0.133-0.126-0.168,0&#xD;&#xA;&#x9;&#x9;&#x9;c-0.031,0.127,0,0.743,0,0.743H7.249z"/>
    <linearGradient id="SVGID_21_" gradientUnits="userSpaceOnUse" x1="7.8462" y1="2.0049" x2="8.1001" y2="2.0049">
      <stop offset="0" style="stop-color:#000000;stop-opacity:0.35"/>
      <stop offset="0.552" style="stop-color:#FFFFFF;stop-opacity:0.25"/>
      <stop offset="1" style="stop-color:#000000;stop-opacity:0.35"/>
    </linearGradient>
    <path fill="url(#SVGID_21_)" d="M8.1,2.425c0,0-0.015-0.608-0.071-0.743c-0.058-0.134-0.135-0.126-0.169,0&#xD;&#xA;&#x9;&#x9;&#x9;c-0.031,0.127,0,0.743,0,0.743H8.1z"/>
    <linearGradient id="SVGID_22_" gradientUnits="userSpaceOnUse" x1="5.7539" y1="2.0186" x2="6.0703" y2="2.0186">
      <stop offset="0" style="stop-color:#000000;stop-opacity:0.35"/>
      <stop offset="0.552" style="stop-color:#FFFFFF;stop-opacity:0.25"/>
      <stop offset="1" style="stop-color:#000000;stop-opacity:0.35"/>
    </linearGradient>
    <path fill="url(#SVGID_22_)" d="M5.754,2.425c0,0-0.013-0.813,0.164-0.813c0.176,0,0.151,0.813,0.151,0.813H5.754z"/>
  </g>
  <linearGradient id="SVGID_23_" gradientUnits="userSpaceOnUse" x1="3.6187" y1="2.6201" x2="8.229" y2="2.6201">
    <stop offset="0" style="stop-color:#000000;stop-opacity:0.45"/>
    <stop offset="1" style="stop-color:#000000;stop-opacity:0.45"/>
  </linearGradient>
  <path fill="url(#SVGID_23_)" d="M8.229,2.759c-0.278-0.149-0.627-0.159-0.877,0C7.102,2.92,6.893,2.64,6.573,2.64&#xD;&#xA;&#x9;&#x9;c-0.311,0-0.45,0.17-0.66,0.17c-0.21,0-0.35-0.17-0.66-0.17c-0.32,0-0.53,0.28-0.78,0.119C4.223,2.6,3.898,2.604,3.619,2.753&#xD;&#xA;&#x9;&#x9;l0.083-0.322h4.447L8.229,2.759z"/>
</svg>