<svg version="1.2" baseProfile="tiny" id="EdgeSVG_96piP" x="0px" y="0px" width="13.376px" height="37px" viewBox="0 0 13.376 37" xmlns:xlink="http://www.w3.org/1999/xlink" xmlns="http://www.w3.org/2000/svg">
  <linearGradient id="SVGID_1_" gradientUnits="userSpaceOnUse" x1="6.6885" y1="433.9033" x2="6.6885" y2="0.3836">
    <stop offset="0" style="stop-color:#000000;stop-opacity:0.5"/>
    <stop offset="1" style="stop-color:#000000;stop-opacity:0.5"/>
  </linearGradient>
  <path fill="url(#SVGID_1_)" d="M12.838,8.932L9.794,5.047h0.364V3.476l-0.029-0.999h-0.4V1.171L8.81,0.383H4.44L3.619,1.224v1.253&#xD;&#xA;&#x9;&#x9;H3.242L3.208,3.476v1.572h0.375L0.537,8.932C0.221,9.337,0,9.978,0,10.492v23.397C0,35.604,1.396,37,3.11,37h7.154&#xD;&#xA;&#x9;&#x9;c1.716,0,3.111-1.396,3.111-3.111V10.492C13.376,9.978,13.155,9.337,12.838,8.932z"/>
</svg>