<svg version="1.2" baseProfile="tiny" id="EdgeSVG_Gd7tr" x="0px" y="0px" width="30px" height="44.447px" viewBox="0 0 30 44.447" xmlns:xlink="http://www.w3.org/1999/xlink" xmlns="http://www.w3.org/2000/svg">
  <path fill="#E6E6E6" d="M27.677,17.409v4.915c0,0.188-0.154,0.342-0.342,0.342H2.849c-0.188,0-0.342-0.154-0.342-0.342v-4.915&#xD;&#xA;&#x9;&#x9;c0-0.188,0.154-0.342,0.342-0.342h0.036c0-11.538,5.465-15.105,12.208-15.105c6.743,0,12.208,3.567,12.208,15.105h0.034&#xD;&#xA;&#x9;&#x9;C27.523,17.067,27.677,17.221,27.677,17.409z"/>
  <path fill="#F2F2F2" d="M26.3,16.321c0,2.288-0.451,4.446-1.25,6.344c-2.02,0-15.707,0-19.8,0.003C4.452,20.769,4,18.61,4,16.321&#xD;&#xA;&#x9;&#x9;C4,8.711,8.992,2.542,15.15,2.542C21.308,2.542,26.3,8.711,26.3,16.321z"/>
  <path fill="#333333" d="M17.642,41.556c0,0.298-0.746,0.846-0.746,1.094c0,0.249,0,0.448-0.173,0.448c-0.174,0-1.631,0-1.631,0&#xD;&#xA;&#x9;&#x9;s-1.455,0-1.629,0c-0.175,0-0.175-0.199-0.175-0.448c0-0.248-0.746-0.795-0.746-1.094H17.642z"/>
  <linearGradient id="SVGID_2_" gradientUnits="userSpaceOnUse" x1="12.542" y1="42.3267" x2="17.6416" y2="42.3267">
    <stop offset="0" style="stop-color:#000000;stop-opacity:0.25"/>
    <stop offset="0.0485" style="stop-color:#070707;stop-opacity:0.2367"/>
    <stop offset="0.1182" style="stop-color:#1A1A1A;stop-opacity:0.2175"/>
    <stop offset="0.2007" style="stop-color:#393939;stop-opacity:0.1949"/>
    <stop offset="0.293" style="stop-color:#646464;stop-opacity:0.1695"/>
    <stop offset="0.3935" style="stop-color:#9C9C9C;stop-opacity:0.1419"/>
    <stop offset="0.4993" style="stop-color:#DFDFDF;stop-opacity:0.1128"/>
    <stop offset="0.546" style="stop-color:#FFFFFF;stop-opacity:0.1"/>
    <stop offset="0.613" style="stop-color:#C6C6C6;stop-opacity:0.1221"/>
    <stop offset="0.6908" style="stop-color:#8A8A8A;stop-opacity:0.1478"/>
    <stop offset="0.7658" style="stop-color:#595959;stop-opacity:0.1726"/>
    <stop offset="0.8362" style="stop-color:#323232;stop-opacity:0.1959"/>
    <stop offset="0.9007" style="stop-color:#171717;stop-opacity:0.2172"/>
    <stop offset="0.9573" style="stop-color:#060606;stop-opacity:0.2359"/>
    <stop offset="1" style="stop-color:#000000;stop-opacity:0.25"/>
  </linearGradient>
  <path fill="url(#SVGID_2_)" d="M17.642,41.556c0,0.298-0.746,0.846-0.746,1.094c0,0.249,0,0.448-0.173,0.448&#xD;&#xA;&#x9;&#x9;c-0.174,0-1.631,0-1.631,0s-1.455,0-1.629,0c-0.175,0-0.175-0.199-0.175-0.448c0-0.248-0.746-0.795-0.746-1.094H17.642z"/>
  <linearGradient id="SVGID_3_" gradientUnits="userSpaceOnUse" x1="15.0918" y1="41.5562" x2="15.0918" y2="43.0977">
    <stop offset="0" style="stop-color:#000000;stop-opacity:0.25"/>
    <stop offset="0.5828" style="stop-color:#000000;stop-opacity:0.25"/>
    <stop offset="0.7791" style="stop-color:#000000;stop-opacity:0"/>
    <stop offset="0.8834" style="stop-color:#000000;stop-opacity:0"/>
    <stop offset="0.9509" style="stop-color:#000000;stop-opacity:0.25"/>
  </linearGradient>
  <path fill="url(#SVGID_3_)" d="M17.642,41.556c0,0.298-0.746,0.846-0.746,1.094c0,0.249,0,0.448-0.173,0.448&#xD;&#xA;&#x9;&#x9;c-0.174,0-1.631,0-1.631,0s-1.455,0-1.629,0c-0.175,0-0.175-0.199-0.175-0.448c0-0.248-0.746-0.795-0.746-1.094H17.642z"/>
  <path fill="#F2F2F2" d="M16.647,43.098c0,0-0.499,0.349-1.556,0.349c-1.058,0-1.555-0.349-1.555-0.349H16.647z"/>
  <linearGradient id="SVGID_4_" gradientUnits="userSpaceOnUse" x1="15.0923" y1="43.0977" x2="15.0923" y2="43.4468">
    <stop offset="0" style="stop-color:#000000;stop-opacity:0.35"/>
    <stop offset="1" style="stop-color:#000000;stop-opacity:0.15"/>
  </linearGradient>
  <path fill="url(#SVGID_4_)" d="M16.647,43.098c0,0-0.499,0.349-1.556,0.349c-1.058,0-1.555-0.349-1.555-0.349H16.647z"/>
  <path fill="#F2F2F2" d="M19.059,40.537c0,0.224-1.119,1.019-1.292,1.019c-0.174,0-2.675,0-2.675,0s-2.499,0-2.673,0&#xD;&#xA;&#x9;&#x9;c-0.175,0-1.293-0.795-1.293-1.019H19.059z"/>
  <linearGradient id="SVGID_5_" gradientUnits="userSpaceOnUse" x1="15.0923" y1="40.5371" x2="15.0923" y2="41.5562">
    <stop offset="0" style="stop-color:#FFFFFF;stop-opacity:0.1"/>
    <stop offset="0.0081" style="stop-color:#C6C6C6;stop-opacity:0.1221"/>
    <stop offset="0.0176" style="stop-color:#8A8A8A;stop-opacity:0.1478"/>
    <stop offset="0.0267" style="stop-color:#595959;stop-opacity:0.1726"/>
    <stop offset="0.0353" style="stop-color:#323232;stop-opacity:0.1959"/>
    <stop offset="0.0431" style="stop-color:#171717;stop-opacity:0.2172"/>
    <stop offset="0.05" style="stop-color:#060606;stop-opacity:0.2359"/>
    <stop offset="0.0552" style="stop-color:#000000;stop-opacity:0.25"/>
    <stop offset="0.6196" style="stop-color:#000000;stop-opacity:0.15"/>
    <stop offset="0.9018" style="stop-color:#000000;stop-opacity:0.2402"/>
    <stop offset="0.9325" style="stop-color:#000000;stop-opacity:0.25"/>
  </linearGradient>
  <path fill="url(#SVGID_5_)" d="M19.059,40.537c0,0.224-1.119,1.019-1.292,1.019c-0.174,0-2.675,0-2.675,0s-2.499,0-2.673,0&#xD;&#xA;&#x9;&#x9;c-0.175,0-1.293-0.795-1.293-1.019H19.059z"/>
  <linearGradient id="SVGID_6_" gradientUnits="userSpaceOnUse" x1="11.125" y1="41.0464" x2="19.0591" y2="41.0464">
    <stop offset="0" style="stop-color:#000000;stop-opacity:0.25"/>
    <stop offset="0.546" style="stop-color:#FFFFFF;stop-opacity:0.1"/>
    <stop offset="0.613" style="stop-color:#C6C6C6;stop-opacity:0.1221"/>
    <stop offset="0.6908" style="stop-color:#8A8A8A;stop-opacity:0.1478"/>
    <stop offset="0.7658" style="stop-color:#595959;stop-opacity:0.1726"/>
    <stop offset="0.8362" style="stop-color:#323232;stop-opacity:0.1959"/>
    <stop offset="0.9007" style="stop-color:#171717;stop-opacity:0.2172"/>
    <stop offset="0.9573" style="stop-color:#060606;stop-opacity:0.2359"/>
    <stop offset="1" style="stop-color:#000000;stop-opacity:0.25"/>
  </linearGradient>
  <path fill="url(#SVGID_6_)" d="M19.059,40.537c0,0.224-1.119,1.019-1.292,1.019c-0.174,0-2.675,0-2.675,0s-2.499,0-2.673,0&#xD;&#xA;&#x9;&#x9;c-0.175,0-1.293-0.795-1.293-1.019H19.059z"/>
  <path fill="#CCCCCC" d="M19.706,33.947c0,0,0,0.547,0,0.721c0,0.174,0,0.298-0.149,0.298c-0.149,0-0.498,0.051-0.498,0.174v5.396&#xD;&#xA;&#x9;&#x9;h-7.935v-5.396c0-0.124-0.348-0.174-0.497-0.174c-0.149,0-0.149-0.124-0.149-0.298c0-0.173,0-0.721,0-0.721H19.706z"/>
  <linearGradient id="SVGID_7_" gradientUnits="userSpaceOnUse" x1="10.478" y1="37.2422" x2="19.7061" y2="37.2422">
    <stop offset="0.0429" style="stop-color:#000000;stop-opacity:0.15"/>
    <stop offset="0.0473" style="stop-color:#000000;stop-opacity:0.1959"/>
    <stop offset="0.0859" style="stop-color:#000000;stop-opacity:0.6"/>
    <stop offset="0.2025" style="stop-color:#000000;stop-opacity:0.35"/>
    <stop offset="0.2699" style="stop-color:#FFFFFF;stop-opacity:0.25"/>
    <stop offset="0.3804" style="stop-color:#FFFFFF;stop-opacity:0.05"/>
    <stop offset="0.4479" style="stop-color:#000000;stop-opacity:0.45"/>
    <stop offset="0.5828" style="stop-color:#000000;stop-opacity:0.55"/>
    <stop offset="0.6196" style="stop-color:#FFFFFF;stop-opacity:0.05"/>
    <stop offset="0.7669" style="stop-color:#FFFFFF;stop-opacity:0.3"/>
    <stop offset="0.8344" style="stop-color:#000000;stop-opacity:0.35"/>
    <stop offset="0.9571" style="stop-color:#000000;stop-opacity:0.6"/>
    <stop offset="0.997" style="stop-color:#000000;stop-opacity:0.1812"/>
    <stop offset="1" style="stop-color:#000000;stop-opacity:0.15"/>
  </linearGradient>
  <path fill="url(#SVGID_7_)" d="M19.706,33.947c0,0,0,0.547,0,0.721c0,0.174,0,0.298-0.149,0.298c-0.149,0-0.498,0.051-0.498,0.174&#xD;&#xA;&#x9;&#x9;v5.396h-7.935v-5.396c0-0.124-0.348-0.174-0.497-0.174c-0.149,0-0.149-0.124-0.149-0.298c0-0.173,0-0.721,0-0.721H19.706z"/>
  <linearGradient id="SVGID_8_" gradientUnits="userSpaceOnUse" x1="15.0923" y1="33.9473" x2="15.0923" y2="40.5371">
    <stop offset="0" style="stop-color:#000000;stop-opacity:0.15"/>
    <stop offset="0.0113" style="stop-color:#000000;stop-opacity:0.1398"/>
    <stop offset="0.1104" style="stop-color:#000000;stop-opacity:0.05"/>
    <stop offset="0.139" style="stop-color:#000000;stop-opacity:0.3292"/>
    <stop offset="0.1411" style="stop-color:#000000;stop-opacity:0.35"/>
    <stop offset="0.1718" style="stop-color:#000000;stop-opacity:0.34"/>
    <stop offset="0.2025" style="stop-color:#000000;stop-opacity:0.1"/>
    <stop offset="0.9509" style="stop-color:#000000;stop-opacity:0.1"/>
    <stop offset="0.9816" style="stop-color:#000000;stop-opacity:0.25"/>
  </linearGradient>
  <path fill="url(#SVGID_8_)" d="M19.706,33.947c0,0,0,0.547,0,0.721c0,0.174,0,0.298-0.149,0.298c-0.149,0-0.498,0.051-0.498,0.174&#xD;&#xA;&#x9;&#x9;v5.396h-7.935v-5.396c0-0.124-0.348-0.174-0.497-0.174c-0.149,0-0.149-0.124-0.149-0.298c0-0.173,0-0.721,0-0.721H19.706z"/>
  <path fill="#CCCCCC" d="M19.06,37.229c-0.013,0-0.025,0-0.038-0.001l-7.935-0.671c-0.246-0.021-0.429-0.237-0.408-0.484&#xD;&#xA;&#x9;&#x9;c0.021-0.246,0.237-0.43,0.484-0.408l7.935,0.671c0.246,0.021,0.429,0.237,0.408,0.484C19.485,37.053,19.29,37.229,19.06,37.229z"/>
  <path fill="#CCCCCC" d="M19.06,38.622c-0.013,0-0.025,0-0.038-0.001l-7.935-0.671c-0.246-0.021-0.429-0.237-0.408-0.484&#xD;&#xA;&#x9;&#x9;c0.021-0.246,0.237-0.43,0.484-0.408l7.935,0.671c0.246,0.021,0.429,0.237,0.408,0.484C19.485,38.446,19.29,38.622,19.06,38.622z"/>
  <path fill="#CCCCCC" d="M19.06,40.015c-0.013,0-0.025,0-0.038-0.001l-7.935-0.671c-0.246-0.021-0.429-0.238-0.408-0.484&#xD;&#xA;&#x9;&#x9;c0.021-0.247,0.237-0.43,0.484-0.408l7.935,0.671c0.246,0.021,0.429,0.237,0.408,0.484C19.485,39.838,19.29,40.015,19.06,40.015z"/>
  <g>
    <linearGradient id="SVGID_9_" gradientUnits="userSpaceOnUse" x1="15.1328" y1="35.9893" x2="15.0528" y2="36.9042">
      <stop offset="0.0429" style="stop-color:#000000;stop-opacity:0.15"/>
      <stop offset="0.0531" style="stop-color:#2C2C2C;stop-opacity:0.1572"/>
      <stop offset="0.0662" style="stop-color:#5D5D5D;stop-opacity:0.1665"/>
      <stop offset="0.0799" style="stop-color:#888888;stop-opacity:0.1762"/>
      <stop offset="0.0942" style="stop-color:#ADADAD;stop-opacity:0.1863"/>
      <stop offset="0.109" style="stop-color:#CBCBCB;stop-opacity:0.1968"/>
      <stop offset="0.1245" style="stop-color:#E2E2E2;stop-opacity:0.2078"/>
      <stop offset="0.1412" style="stop-color:#F2F2F2;stop-opacity:0.2196"/>
      <stop offset="0.1598" style="stop-color:#FCFCFC;stop-opacity:0.2328"/>
      <stop offset="0.184" style="stop-color:#FFFFFF;stop-opacity:0.25"/>
      <stop offset="0.362" style="stop-color:#000000;stop-opacity:0.45"/>
      <stop offset="0.5399" style="stop-color:#FFFFFF;stop-opacity:0.05"/>
      <stop offset="0.7669" style="stop-color:#000000;stop-opacity:0.6"/>
      <stop offset="0.9838" style="stop-color:#000000;stop-opacity:0.1812"/>
      <stop offset="1" style="stop-color:#000000;stop-opacity:0.15"/>
    </linearGradient>
    <path fill="url(#SVGID_9_)" d="M19.06,37.229c-0.013,0-0.025,0-0.038-0.001l-7.935-0.671c-0.246-0.021-0.429-0.237-0.408-0.484&#xD;&#xA;&#x9;&#x9;&#x9;c0.021-0.246,0.237-0.43,0.484-0.408l7.935,0.671c0.246,0.021,0.429,0.237,0.408,0.484C19.485,37.053,19.29,37.229,19.06,37.229z"/>
    <linearGradient id="SVGID_10_" gradientUnits="userSpaceOnUse" x1="15.1328" y1="37.3823" x2="15.0528" y2="38.2968">
      <stop offset="0.0429" style="stop-color:#000000;stop-opacity:0.15"/>
      <stop offset="0.0531" style="stop-color:#2C2C2C;stop-opacity:0.1572"/>
      <stop offset="0.0662" style="stop-color:#5D5D5D;stop-opacity:0.1665"/>
      <stop offset="0.0799" style="stop-color:#888888;stop-opacity:0.1762"/>
      <stop offset="0.0942" style="stop-color:#ADADAD;stop-opacity:0.1863"/>
      <stop offset="0.109" style="stop-color:#CBCBCB;stop-opacity:0.1968"/>
      <stop offset="0.1245" style="stop-color:#E2E2E2;stop-opacity:0.2078"/>
      <stop offset="0.1412" style="stop-color:#F2F2F2;stop-opacity:0.2196"/>
      <stop offset="0.1598" style="stop-color:#FCFCFC;stop-opacity:0.2328"/>
      <stop offset="0.184" style="stop-color:#FFFFFF;stop-opacity:0.25"/>
      <stop offset="0.362" style="stop-color:#000000;stop-opacity:0.45"/>
      <stop offset="0.5399" style="stop-color:#FFFFFF;stop-opacity:0.05"/>
      <stop offset="0.7669" style="stop-color:#000000;stop-opacity:0.6"/>
      <stop offset="0.9838" style="stop-color:#000000;stop-opacity:0.1812"/>
      <stop offset="1" style="stop-color:#000000;stop-opacity:0.15"/>
    </linearGradient>
    <path fill="url(#SVGID_10_)" d="M19.06,38.622c-0.013,0-0.025,0-0.038-0.001l-7.935-0.671c-0.246-0.021-0.429-0.237-0.408-0.484&#xD;&#xA;&#x9;&#x9;&#x9;c0.021-0.246,0.237-0.43,0.484-0.408l7.935,0.671c0.246,0.021,0.429,0.237,0.408,0.484C19.485,38.446,19.29,38.622,19.06,38.622z"/>
    <linearGradient id="SVGID_11_" gradientUnits="userSpaceOnUse" x1="15.1323" y1="38.7749" x2="15.0523" y2="39.6894">
      <stop offset="0.0429" style="stop-color:#000000;stop-opacity:0.15"/>
      <stop offset="0.0531" style="stop-color:#2C2C2C;stop-opacity:0.1572"/>
      <stop offset="0.0662" style="stop-color:#5D5D5D;stop-opacity:0.1665"/>
      <stop offset="0.0799" style="stop-color:#888888;stop-opacity:0.1762"/>
      <stop offset="0.0942" style="stop-color:#ADADAD;stop-opacity:0.1863"/>
      <stop offset="0.109" style="stop-color:#CBCBCB;stop-opacity:0.1968"/>
      <stop offset="0.1245" style="stop-color:#E2E2E2;stop-opacity:0.2078"/>
      <stop offset="0.1412" style="stop-color:#F2F2F2;stop-opacity:0.2196"/>
      <stop offset="0.1598" style="stop-color:#FCFCFC;stop-opacity:0.2328"/>
      <stop offset="0.184" style="stop-color:#FFFFFF;stop-opacity:0.25"/>
      <stop offset="0.362" style="stop-color:#000000;stop-opacity:0.45"/>
      <stop offset="0.5399" style="stop-color:#FFFFFF;stop-opacity:0.05"/>
      <stop offset="0.7669" style="stop-color:#000000;stop-opacity:0.6"/>
      <stop offset="0.9838" style="stop-color:#000000;stop-opacity:0.1812"/>
      <stop offset="1" style="stop-color:#000000;stop-opacity:0.15"/>
    </linearGradient>
    <path fill="url(#SVGID_11_)" d="M19.06,40.015c-0.013,0-0.025,0-0.038-0.001l-7.935-0.671c-0.246-0.021-0.429-0.238-0.408-0.484&#xD;&#xA;&#x9;&#x9;&#x9;c0.021-0.247,0.237-0.43,0.484-0.408l7.935,0.671c0.246,0.021,0.429,0.237,0.408,0.484C19.485,39.838,19.29,40.015,19.06,40.015z"/>
  </g>
  <g>
    <linearGradient id="SVGID_12_" gradientUnits="userSpaceOnUse" x1="10.6772" y1="36.4458" x2="19.5068" y2="36.4458">
      <stop offset="0.0675" style="stop-color:#000000;stop-opacity:0.34"/>
      <stop offset="0.3067" style="stop-color:#FFFFFF;stop-opacity:0.1"/>
      <stop offset="0.3375" style="stop-color:#C6C6C6;stop-opacity:0.1369"/>
      <stop offset="0.3733" style="stop-color:#8A8A8A;stop-opacity:0.1797"/>
      <stop offset="0.4078" style="stop-color:#595959;stop-opacity:0.2211"/>
      <stop offset="0.4401" style="stop-color:#323232;stop-opacity:0.2598"/>
      <stop offset="0.4697" style="stop-color:#171717;stop-opacity:0.2953"/>
      <stop offset="0.4957" style="stop-color:#060606;stop-opacity:0.3265"/>
      <stop offset="0.5153" style="stop-color:#000000;stop-opacity:0.35"/>
      <stop offset="0.5374" style="stop-color:#060606;stop-opacity:0.327"/>
      <stop offset="0.5674" style="stop-color:#181818;stop-opacity:0.2956"/>
      <stop offset="0.602" style="stop-color:#343434;stop-opacity:0.2594"/>
      <stop offset="0.6401" style="stop-color:#5C5C5C;stop-opacity:0.2196"/>
      <stop offset="0.6811" style="stop-color:#909090;stop-opacity:0.1768"/>
      <stop offset="0.7237" style="stop-color:#CECECE;stop-opacity:0.1323"/>
      <stop offset="0.7546" style="stop-color:#FFFFFF;stop-opacity:0.1"/>
      <stop offset="0.9816" style="stop-color:#000000;stop-opacity:0.25"/>
    </linearGradient>
    <path fill="url(#SVGID_12_)" d="M19.06,37.229c-0.013,0-0.025,0-0.038-0.001l-7.935-0.671c-0.246-0.021-0.429-0.237-0.408-0.484&#xD;&#xA;&#x9;&#x9;&#x9;c0.021-0.246,0.237-0.43,0.484-0.408l7.935,0.671c0.246,0.021,0.429,0.237,0.408,0.484C19.485,37.053,19.29,37.229,19.06,37.229z"/>
    <linearGradient id="SVGID_13_" gradientUnits="userSpaceOnUse" x1="10.6772" y1="37.8384" x2="19.5068" y2="37.8384">
      <stop offset="0.0675" style="stop-color:#000000;stop-opacity:0.34"/>
      <stop offset="0.3067" style="stop-color:#FFFFFF;stop-opacity:0.1"/>
      <stop offset="0.3375" style="stop-color:#C6C6C6;stop-opacity:0.1369"/>
      <stop offset="0.3733" style="stop-color:#8A8A8A;stop-opacity:0.1797"/>
      <stop offset="0.4078" style="stop-color:#595959;stop-opacity:0.2211"/>
      <stop offset="0.4401" style="stop-color:#323232;stop-opacity:0.2598"/>
      <stop offset="0.4697" style="stop-color:#171717;stop-opacity:0.2953"/>
      <stop offset="0.4957" style="stop-color:#060606;stop-opacity:0.3265"/>
      <stop offset="0.5153" style="stop-color:#000000;stop-opacity:0.35"/>
      <stop offset="0.5374" style="stop-color:#060606;stop-opacity:0.327"/>
      <stop offset="0.5674" style="stop-color:#181818;stop-opacity:0.2956"/>
      <stop offset="0.602" style="stop-color:#343434;stop-opacity:0.2594"/>
      <stop offset="0.6401" style="stop-color:#5C5C5C;stop-opacity:0.2196"/>
      <stop offset="0.6811" style="stop-color:#909090;stop-opacity:0.1768"/>
      <stop offset="0.7237" style="stop-color:#CECECE;stop-opacity:0.1323"/>
      <stop offset="0.7546" style="stop-color:#FFFFFF;stop-opacity:0.1"/>
      <stop offset="0.9816" style="stop-color:#000000;stop-opacity:0.25"/>
    </linearGradient>
    <path fill="url(#SVGID_13_)" d="M19.06,38.622c-0.013,0-0.025,0-0.038-0.001l-7.935-0.671c-0.246-0.021-0.429-0.237-0.408-0.484&#xD;&#xA;&#x9;&#x9;&#x9;c0.021-0.246,0.237-0.43,0.484-0.408l7.935,0.671c0.246,0.021,0.429,0.237,0.408,0.484C19.485,38.446,19.29,38.622,19.06,38.622z"/>
    <linearGradient id="SVGID_14_" gradientUnits="userSpaceOnUse" x1="10.6772" y1="39.231" x2="19.5068" y2="39.231">
      <stop offset="0.0675" style="stop-color:#000000;stop-opacity:0.34"/>
      <stop offset="0.3067" style="stop-color:#FFFFFF;stop-opacity:0.1"/>
      <stop offset="0.3375" style="stop-color:#C6C6C6;stop-opacity:0.1369"/>
      <stop offset="0.3733" style="stop-color:#8A8A8A;stop-opacity:0.1797"/>
      <stop offset="0.4078" style="stop-color:#595959;stop-opacity:0.2211"/>
      <stop offset="0.4401" style="stop-color:#323232;stop-opacity:0.2598"/>
      <stop offset="0.4697" style="stop-color:#171717;stop-opacity:0.2953"/>
      <stop offset="0.4957" style="stop-color:#060606;stop-opacity:0.3265"/>
      <stop offset="0.5153" style="stop-color:#000000;stop-opacity:0.35"/>
      <stop offset="0.5374" style="stop-color:#060606;stop-opacity:0.327"/>
      <stop offset="0.5674" style="stop-color:#181818;stop-opacity:0.2956"/>
      <stop offset="0.602" style="stop-color:#343434;stop-opacity:0.2594"/>
      <stop offset="0.6401" style="stop-color:#5C5C5C;stop-opacity:0.2196"/>
      <stop offset="0.6811" style="stop-color:#909090;stop-opacity:0.1768"/>
      <stop offset="0.7237" style="stop-color:#CECECE;stop-opacity:0.1323"/>
      <stop offset="0.7546" style="stop-color:#FFFFFF;stop-opacity:0.1"/>
      <stop offset="0.9816" style="stop-color:#000000;stop-opacity:0.25"/>
    </linearGradient>
    <path fill="url(#SVGID_14_)" d="M19.06,40.015c-0.013,0-0.025,0-0.038-0.001l-7.935-0.671c-0.246-0.021-0.429-0.238-0.408-0.484&#xD;&#xA;&#x9;&#x9;&#x9;c0.021-0.247,0.237-0.43,0.484-0.408l7.935,0.671c0.246,0.021,0.429,0.237,0.408,0.484C19.485,39.838,19.29,40.015,19.06,40.015z"/>
  </g>
  <path fill="#333333" d="M20.978,33.086v0.498c0,0.272-0.047,0.363-0.183,0.363c-0.136,0-5.704,0-5.704,0s-5.568,0-5.704,0&#xD;&#xA;&#x9;&#x9;c-0.136,0-0.181-0.091-0.181-0.363v-0.498c0-0.182,0-0.272,0.158-0.272c0.159,0,5.727,0,5.727,0s5.567,0,5.727,0&#xD;&#xA;&#x9;&#x9;C20.978,32.814,20.978,32.904,20.978,33.086z"/>
  <linearGradient id="SVGID_15_" gradientUnits="userSpaceOnUse" x1="9.2065" y1="33.3804" x2="20.9775" y2="33.3804">
    <stop offset="0" style="stop-color:#000000;stop-opacity:0.15"/>
    <stop offset="0.0366" style="stop-color:#2C2C2C;stop-opacity:0.1464"/>
    <stop offset="0.0838" style="stop-color:#5D5D5D;stop-opacity:0.1418"/>
    <stop offset="0.1335" style="stop-color:#888888;stop-opacity:0.1369"/>
    <stop offset="0.1848" style="stop-color:#ADADAD;stop-opacity:0.1319"/>
    <stop offset="0.2382" style="stop-color:#CBCBCB;stop-opacity:0.1266"/>
    <stop offset="0.2944" style="stop-color:#E2E2E2;stop-opacity:0.1211"/>
    <stop offset="0.3546" style="stop-color:#F2F2F2;stop-opacity:0.1152"/>
    <stop offset="0.4216" style="stop-color:#FCFCFC;stop-opacity:0.1086"/>
    <stop offset="0.5092" style="stop-color:#FFFFFF;stop-opacity:0.1"/>
    <stop offset="0.5829" style="stop-color:#FCFCFC;stop-opacity:0.1075"/>
    <stop offset="0.6461" style="stop-color:#F1F1F1;stop-opacity:0.1139"/>
    <stop offset="0.7055" style="stop-color:#DFDFDF;stop-opacity:0.12"/>
    <stop offset="0.7626" style="stop-color:#C6C6C6;stop-opacity:0.1258"/>
    <stop offset="0.8181" style="stop-color:#A6A6A6;stop-opacity:0.1315"/>
    <stop offset="0.8723" style="stop-color:#7F7F7F;stop-opacity:0.137"/>
    <stop offset="0.9255" style="stop-color:#505050;stop-opacity:0.1424"/>
    <stop offset="0.9766" style="stop-color:#1B1B1B;stop-opacity:0.1476"/>
    <stop offset="1" style="stop-color:#000000;stop-opacity:0.15"/>
  </linearGradient>
  <path fill="url(#SVGID_15_)" d="M20.978,33.086v0.498c0,0.272-0.047,0.363-0.183,0.363c-0.136,0-5.704,0-5.704,0s-5.568,0-5.704,0&#xD;&#xA;&#x9;&#x9;c-0.136,0-0.181-0.091-0.181-0.363v-0.498c0-0.182,0-0.272,0.158-0.272c0.159,0,5.727,0,5.727,0s5.567,0,5.727,0&#xD;&#xA;&#x9;&#x9;C20.978,32.814,20.978,32.904,20.978,33.086z"/>
  <linearGradient id="SVGID_16_" gradientUnits="userSpaceOnUse" x1="15.0923" y1="32.814" x2="15.0923" y2="33.9473">
    <stop offset="0.1288" style="stop-color:#000000;stop-opacity:0.15"/>
    <stop offset="0.1426" style="stop-color:#000000;stop-opacity:0.1347"/>
    <stop offset="0.2638" style="stop-color:#000000;stop-opacity:0"/>
    <stop offset="0.7362" style="stop-color:#000000;stop-opacity:0"/>
    <stop offset="0.839" style="stop-color:#000000;stop-opacity:0.1396"/>
    <stop offset="0.8466" style="stop-color:#000000;stop-opacity:0.15"/>
  </linearGradient>
  <path fill="url(#SVGID_16_)" d="M20.978,33.086v0.498c0,0.272-0.047,0.363-0.183,0.363c-0.136,0-5.704,0-5.704,0s-5.568,0-5.704,0&#xD;&#xA;&#x9;&#x9;c-0.136,0-0.181-0.091-0.181-0.363v-0.498c0-0.182,0-0.272,0.158-0.272c0.159,0,5.727,0,5.727,0s5.567,0,5.727,0&#xD;&#xA;&#x9;&#x9;C20.978,32.814,20.978,32.904,20.978,33.086z"/>
  <linearGradient id="SVGID_17_" gradientUnits="userSpaceOnUse" x1="15.0923" y1="17.5376" x2="15.0923" y2="32.814">
    <stop offset="0" style="stop-color:#FFFFFF;stop-opacity:0.3"/>
    <stop offset="0.0307" style="stop-color:#FFFFFF;stop-opacity:0"/>
    <stop offset="0.0491" style="stop-color:#000000;stop-opacity:0"/>
    <stop offset="0.6503" style="stop-color:#000000;stop-opacity:0.05"/>
    <stop offset="0.7485" style="stop-color:#000000;stop-opacity:0.25"/>
    <stop offset="0.9755" style="stop-color:#000000;stop-opacity:0.22"/>
    <stop offset="1" style="stop-color:#000000;stop-opacity:0.45"/>
  </linearGradient>
  <path fill="url(#SVGID_17_)" d="M27.3,17.879c0,0,0,9.562,0,9.885c0,0.323-0.039,0.555-0.2,0.74&#xD;&#xA;&#x9;&#x9;c-0.16,0.185-6.068,4.309-6.068,4.309H9.153c0,0-5.906-4.125-6.067-4.309c-0.161-0.185-0.202-0.417-0.202-0.74&#xD;&#xA;&#x9;&#x9;c0-0.323,0-9.885,0-9.885s0-0.342,0.427-0.342c0.428,0,23.276,0,23.618,0C27.3,17.538,27.3,17.879,27.3,17.879z"/>
  <linearGradient id="SVGID_18_" gradientUnits="userSpaceOnUse" x1="2.8838" y1="25.1758" x2="27.3003" y2="25.1758">
    <stop offset="0" style="stop-color:#000000;stop-opacity:0.15"/>
    <stop offset="0.0366" style="stop-color:#2C2C2C;stop-opacity:0.1464"/>
    <stop offset="0.0838" style="stop-color:#5D5D5D;stop-opacity:0.1418"/>
    <stop offset="0.1335" style="stop-color:#888888;stop-opacity:0.1369"/>
    <stop offset="0.1848" style="stop-color:#ADADAD;stop-opacity:0.1319"/>
    <stop offset="0.2382" style="stop-color:#CBCBCB;stop-opacity:0.1266"/>
    <stop offset="0.2944" style="stop-color:#E2E2E2;stop-opacity:0.1211"/>
    <stop offset="0.3546" style="stop-color:#F2F2F2;stop-opacity:0.1152"/>
    <stop offset="0.4216" style="stop-color:#FCFCFC;stop-opacity:0.1086"/>
    <stop offset="0.5092" style="stop-color:#FFFFFF;stop-opacity:0.1"/>
    <stop offset="0.5829" style="stop-color:#FCFCFC;stop-opacity:0.1075"/>
    <stop offset="0.6461" style="stop-color:#F1F1F1;stop-opacity:0.1139"/>
    <stop offset="0.7055" style="stop-color:#DFDFDF;stop-opacity:0.12"/>
    <stop offset="0.7626" style="stop-color:#C6C6C6;stop-opacity:0.1258"/>
    <stop offset="0.8181" style="stop-color:#A6A6A6;stop-opacity:0.1315"/>
    <stop offset="0.8723" style="stop-color:#7F7F7F;stop-opacity:0.137"/>
    <stop offset="0.9255" style="stop-color:#505050;stop-opacity:0.1424"/>
    <stop offset="0.9766" style="stop-color:#1B1B1B;stop-opacity:0.1476"/>
    <stop offset="1" style="stop-color:#000000;stop-opacity:0.15"/>
  </linearGradient>
  <path fill="url(#SVGID_18_)" d="M27.3,17.879c0,0,0,9.562,0,9.885c0,0.323-0.039,0.555-0.2,0.74&#xD;&#xA;&#x9;&#x9;c-0.16,0.185-6.068,4.309-6.068,4.309H9.153c0,0-5.906-4.125-6.067-4.309c-0.161-0.185-0.202-0.417-0.202-0.74&#xD;&#xA;&#x9;&#x9;c0-0.323,0-9.885,0-9.885s0-0.342,0.427-0.342c0.428,0,23.276,0,23.618,0C27.3,17.538,27.3,17.879,27.3,17.879z"/>
  <linearGradient id="SVGID_19_" gradientUnits="userSpaceOnUse" x1="15.0923" y1="32.814" x2="15.0923" y2="17.5376">
    <stop offset="0.1104" style="stop-color:#000000;stop-opacity:0.15"/>
    <stop offset="0.1443" style="stop-color:#2C2C2C;stop-opacity:0.1464"/>
    <stop offset="0.188" style="stop-color:#5D5D5D;stop-opacity:0.1418"/>
    <stop offset="0.234" style="stop-color:#888888;stop-opacity:0.1369"/>
    <stop offset="0.2815" style="stop-color:#ADADAD;stop-opacity:0.1319"/>
    <stop offset="0.331" style="stop-color:#CBCBCB;stop-opacity:0.1266"/>
    <stop offset="0.383" style="stop-color:#E2E2E2;stop-opacity:0.1211"/>
    <stop offset="0.4388" style="stop-color:#F2F2F2;stop-opacity:0.1152"/>
    <stop offset="0.5008" style="stop-color:#FCFCFC;stop-opacity:0.1086"/>
    <stop offset="0.5819" style="stop-color:#FFFFFF;stop-opacity:0.1"/>
    <stop offset="0.588" style="stop-color:#FCFCFC;stop-opacity:0.0925"/>
    <stop offset="0.5931" style="stop-color:#F1F1F1;stop-opacity:0.0861"/>
    <stop offset="0.598" style="stop-color:#DFDFDF;stop-opacity:0.08"/>
    <stop offset="0.6027" style="stop-color:#C6C6C6;stop-opacity:0.0742"/>
    <stop offset="0.6072" style="stop-color:#A6A6A6;stop-opacity:0.0685"/>
    <stop offset="0.6116" style="stop-color:#7F7F7F;stop-opacity:0.063"/>
    <stop offset="0.616" style="stop-color:#505050;stop-opacity:0.0576"/>
    <stop offset="0.6202" style="stop-color:#1B1B1B;stop-opacity:0.0524"/>
    <stop offset="0.6221" style="stop-color:#000000;stop-opacity:0.05"/>
  </linearGradient>
  <path fill="url(#SVGID_19_)" d="M27.3,17.879c0,0,0,9.562,0,9.885c0,0.323-0.039,0.555-0.2,0.74&#xD;&#xA;&#x9;&#x9;c-0.16,0.185-6.068,4.309-6.068,4.309H9.153c0,0-5.906-4.125-6.067-4.309c-0.161-0.185-0.202-0.417-0.202-0.74&#xD;&#xA;&#x9;&#x9;c0-0.323,0-9.885,0-9.885s0-0.342,0.427-0.342c0.428,0,23.276,0,23.618,0C27.3,17.538,27.3,17.879,27.3,17.879z"/>
  <linearGradient id="SVGID_20_" gradientUnits="userSpaceOnUse" x1="13.2085" y1="42.3306" x2="14.667" y2="42.3306">
    <stop offset="0" style="stop-color:#FFFFFF;stop-opacity:0.1"/>
    <stop offset="1" style="stop-color:#FFFFFF;stop-opacity:0.15"/>
  </linearGradient>
  <path fill="url(#SVGID_20_)" d="M13.233,41.9c-0.137,0.116,0.333,0.254,0.467,0.427c0.133,0.173,0.133,0.373,0.167,0.473&#xD;&#xA;&#x9;&#x9;s0.8,0.133,0.8,0s-0.134-0.279-0.167-0.406c-0.033-0.127,0.067-0.428-0.1-0.494C14.233,41.833,13.527,41.651,13.233,41.9z"/>
  <linearGradient id="SVGID_21_" gradientUnits="userSpaceOnUse" x1="15.5752" y1="42.3306" x2="17.0337" y2="42.3306">
    <stop offset="0" style="stop-color:#FFFFFF;stop-opacity:0.1"/>
    <stop offset="1" style="stop-color:#FFFFFF;stop-opacity:0.15"/>
  </linearGradient>
  <path fill="url(#SVGID_21_)" d="M17.009,41.9c0.137,0.116-0.333,0.254-0.467,0.427C16.409,42.5,16.409,42.7,16.375,42.8&#xD;&#xA;&#x9;&#x9;c-0.034,0.1-0.8,0.133-0.8,0s0.133-0.279,0.167-0.406c0.033-0.127-0.067-0.428,0.1-0.494C16.009,41.833,16.715,41.651,17.009,41.9z&#xD;&#xA;&#x9;&#x9;"/>
  <g>
    <linearGradient id="SVGID_22_" gradientUnits="userSpaceOnUse" x1="2.8838" y1="22.8828" x2="27.3003" y2="22.8828">
      <stop offset="0" style="stop-color:#000000;stop-opacity:0.45"/>
      <stop offset="1" style="stop-color:#000000;stop-opacity:0.45"/>
    </linearGradient>
    <path fill="url(#SVGID_22_)" d="M2.884,22.666H27.3V23.1c0,0-1.575-0.217-12.15-0.217C4.575,22.883,2.884,23.1,2.884,23.1V22.666z&#xD;&#xA;&#x9;&#x9;&#x9;"/>
    <linearGradient id="SVGID_23_" gradientUnits="userSpaceOnUse" x1="10.478" y1="34.2612" x2="19.7061" y2="34.2612">
      <stop offset="0" style="stop-color:#000000;stop-opacity:0.45"/>
      <stop offset="1" style="stop-color:#000000;stop-opacity:0.45"/>
    </linearGradient>
    <path fill="url(#SVGID_23_)" d="M10.478,33.947h9.228v0.627c0,0-0.547-0.313-4.614-0.313s-4.614,0.313-4.614,0.313V33.947z"/>
    <linearGradient id="SVGID_24_" gradientUnits="userSpaceOnUse" x1="11.125" y1="37.063" x2="19.0596" y2="37.063">
      <stop offset="0" style="stop-color:#000000;stop-opacity:0.45"/>
      <stop offset="1" style="stop-color:#000000;stop-opacity:0.45"/>
    </linearGradient>
    <path fill="url(#SVGID_24_)" d="M11.125,36.56l7.935,0.67l-0.001,0.337c0,0-0.691-0.307-3.967-0.503&#xD;&#xA;&#x9;&#x9;&#x9;c-3.275-0.196-3.967-0.113-3.967-0.113V36.56z"/>
    <linearGradient id="SVGID_25_" gradientUnits="userSpaceOnUse" x1="11.125" y1="38.4478" x2="19.0596" y2="38.4478">
      <stop offset="0" style="stop-color:#000000;stop-opacity:0.45"/>
      <stop offset="1" style="stop-color:#000000;stop-opacity:0.45"/>
    </linearGradient>
    <path fill="url(#SVGID_25_)" d="M11.125,37.944l7.935,0.67l-0.001,0.337c0,0-0.691-0.307-3.967-0.503&#xD;&#xA;&#x9;&#x9;&#x9;c-3.275-0.196-3.967-0.113-3.967-0.113V37.944z"/>
    <linearGradient id="SVGID_26_" gradientUnits="userSpaceOnUse" x1="11.125" y1="39.8662" x2="19.0596" y2="39.8662">
      <stop offset="0" style="stop-color:#000000;stop-opacity:0.45"/>
      <stop offset="1" style="stop-color:#000000;stop-opacity:0.45"/>
    </linearGradient>
    <path fill="url(#SVGID_26_)" d="M11.125,39.363l7.935,0.669l-0.001,0.337c0,0-0.691-0.307-3.967-0.503&#xD;&#xA;&#x9;&#x9;&#x9;c-3.275-0.197-3.967-0.113-3.967-0.113V39.363z"/>
    <linearGradient id="SVGID_27_" gradientUnits="userSpaceOnUse" x1="12.542" y1="41.7515" x2="17.6416" y2="41.7515">
      <stop offset="0" style="stop-color:#000000;stop-opacity:0.45"/>
      <stop offset="1" style="stop-color:#000000;stop-opacity:0.45"/>
    </linearGradient>
    <path fill="url(#SVGID_27_)" d="M12.542,41.556h5.1c0,0.127-0.218,0.391-0.218,0.391s-0.098-0.239-2.332-0.239&#xD;&#xA;&#x9;&#x9;&#x9;c-2.233,0-2.331,0.239-2.331,0.239S12.542,41.696,12.542,41.556z"/>
    <linearGradient id="SVGID_28_" gradientUnits="userSpaceOnUse" x1="13.5366" y1="43.2026" x2="16.6475" y2="43.2026">
      <stop offset="0" style="stop-color:#000000;stop-opacity:0.45"/>
      <stop offset="1" style="stop-color:#000000;stop-opacity:0.45"/>
    </linearGradient>
    <path fill="url(#SVGID_28_)" d="M13.537,43.098h3.111c0,0-0.161,0.091-0.492,0.209c0,0-0.155-0.105-1.064-0.105&#xD;&#xA;&#x9;&#x9;&#x9;c-0.908,0-1.064,0.105-1.064,0.105S13.775,43.242,13.537,43.098z"/>
  </g>
</svg>