<svg version="1.2" baseProfile="tiny" id="EdgeSVG_Gd7tr" x="0px" y="0px" width="30px" height="44.447px" viewBox="0 0 30 44.447" xmlns:xlink="http://www.w3.org/1999/xlink" xmlns="http://www.w3.org/2000/svg">
  <linearGradient id="SVGID_1_" gradientUnits="userSpaceOnUse" x1="1.5073" y1="22.7046" x2="28.6772" y2="22.7046">
    <stop offset="0" style="stop-color:#000000;stop-opacity:0.5"/>
    <stop offset="1" style="stop-color:#000000;stop-opacity:0.5"/>
  </linearGradient>
  <path fill="url(#SVGID_1_)" d="M28.677,17.409c0-0.361-0.144-0.69-0.381-0.931C28.087,3.674,21.029,0.962,15.093,0.962&#xD;&#xA;&#x9;&#x9;c-5.935,0-12.992,2.71-13.204,15.51c-0.236,0.242-0.382,0.573-0.382,0.937v4.915c0,0.359,0.146,0.682,0.376,0.923v4.518&#xD;&#xA;&#x9;&#x9;c0,0.411,0.051,0.941,0.448,1.397c0.094,0.108,0.25,0.28,5.875,4.211v0.211c0,1.325,1.06,1.363,1.181,1.363h0.09l0.208,1.234&#xD;&#xA;&#x9;&#x9;c0.012,0.228,0.07,0.445,0.177,0.635c-0.095,0.172-0.163,0.36-0.18,0.565c-0.025,0.298,0.043,0.584,0.18,0.827&#xD;&#xA;&#x9;&#x9;c-0.095,0.172-0.163,0.36-0.18,0.565c-0.037,0.449,0.141,0.864,0.442,1.156v1.115l0.532,0.491c0.205,0.21,0.446,0.4,0.691,0.561&#xD;&#xA;&#x9;&#x9;l1.249,1.6c0.2,0.246,0.455,0.344,0.652,0.379c0.003,0.001,0.007,0.003,0.011,0.005c0.011,0.005,0.022,0.01,0.033,0.016&#xD;&#xA;&#x9;&#x9;c0.04,0.018,0.083,0.036,0.13,0.055c0.056,0.022,0.105,0.042,0.151,0.058c0.007,0.002,0.013,0.004,0.02,0.007&#xD;&#xA;&#x9;&#x9;c0.087,0.03,0.159,0.051,0.184,0.058l0.065,0.017c0.021,0.006,0.042,0.011,0.063,0.017l0.308,0.08l0.017-0.011&#xD;&#xA;&#x9;&#x9;c0.25,0.042,0.538,0.07,0.863,0.07c0.325,0,1.401-0.198,1.401-0.198c0.007-0.003,0.012-0.005,0.02-0.008&#xD;&#xA;&#x9;&#x9;c0.173-0.055,0.313-0.111,0.424-0.164c0.195-0.034,0.446-0.13,0.646-0.369l1.257-1.61c0.208-0.136,0.414-0.293,0.597-0.466&#xD;&#xA;&#x9;&#x9;l0.62-0.585l0.003-0.436c0.246-0.235,0.412-0.555,0.443-0.923c0.024-0.297-0.043-0.581-0.178-0.823&#xD;&#xA;&#x9;&#x9;c0.093-0.172,0.16-0.361,0.178-0.569c0.024-0.297-0.043-0.581-0.178-0.823c0.093-0.172,0.16-0.361,0.178-0.569&#xD;&#xA;&#x9;&#x9;c0.024-0.296-0.042-0.579-0.177-0.821l0.381-1.134h0.089c0.121,0,1.183-0.038,1.183-1.363v-0.211&#xD;&#xA;&#x9;&#x9;c5.627-3.931,5.778-4.098,5.877-4.211c0.395-0.454,0.446-0.985,0.446-1.397v-3.517v-1c0.231-0.241,0.377-0.564,0.377-0.924V17.409z&#xD;&#xA;&#x9;&#x9;"/>
</svg>