<svg version="1.2" baseProfile="tiny" viewBox="0 0 32.115 32.169" xmlns:xlink="http://www.w3.org/1999/xlink" xmlns="http://www.w3.org/2000/svg">
<path style="fill:#ffffff;" d="M23.844,5.325H8.265c-1.657,0-3,1.343-3,3v15.579c0,1.656,1.343,3,3,3h15.579c1.657,0,3-1.344,3-3    V8.325C26.844,6.668,25.501,5.325,23.844,5.325z M25.094,22.637c0,1.388-1.125,2.513-2.513,2.513H9.532    c-1.388,0-2.513-1.125-2.513-2.513V9.588c0-1.388,1.125-2.513,2.513-2.513h13.049c1.388,0,2.513,1.125,2.513,2.513V22.637z"/>
</svg>