<svg version="1.2" baseProfile="tiny" viewBox="0 0 32.115 32.169" xmlns:xlink="http://www.w3.org/1999/xlink" xmlns="http://www.w3.org/2000/svg">
<path style="fill:#ffffff;" d="M31.365,0.788c-2.349,1.608-4.541,3.258-6.565,5.01c-0.239,0.206-0.462,0.422-0.696,0.631    c-0.265,0.237-0.529,0.475-0.787,0.714c-2.723,2.536-5.117,5.3-7.131,8.479c-0.93-1.729-2.237-3.143-3.206-4.289    c-1.469,0.308-3.32,1.715-3.635,2.089c2.506,2.028,4.278,5.234,5.003,8.322h3.471c1.819-4.053,4.255-7.938,7.231-11.447    c0.295-0.35,0.591-0.698,0.899-1.04c0.265-0.294,0.541-0.579,0.813-0.866c1.646-1.74,3.42-3.38,5.354-4.858L31.365,0.788z"/>
</svg>