<svg version="1.2" baseProfile="tiny" viewBox="0 0 45.500 40.000" xmlns:xlink="http://www.w3.org/1999/xlink" xmlns="http://www.w3.org/2000/svg">
<path style="fill:#ffffff;" d="M44.089,37.135L23.729,1.688c-0.185-0.32-0.524-0.518-0.894-0.519c-0.001,0-0.002,0-0.003,0    c-0.368,0-0.709,0.196-0.893,0.515L1.309,37.279c-0.186,0.32-0.186,0.714-0.001,1.034c0.185,0.319,0.525,0.517,0.895,0.517h41.076    c0.007,0,0.014,0,0.018,0c0.57,0,1.034-0.462,1.034-1.032C44.33,37.545,44.239,37.315,44.089,37.135z M3.995,36.766l10.908-18.82    l1.038-1.79L22.829,4.27l6.828,11.887l0.584,1.019l11.253,19.591H3.995z M31.934,24.5c-0.345-0.134-0.672-0.291-0.937-0.451    c-0.106-0.063-0.208-0.132-0.296-0.206c-0.085-0.068-0.201-0.177-0.376-0.34c-0.677-0.632-1.699-1.586-2.558-1.586h-8.915    c-0.083,0-0.163,0.035-0.218,0.098c-0.056,0.062-0.082,0.146-0.071,0.228c0.001,0.015,0.169,1.353,0.829,2.339l-5.253,0.042    c-0.033-0.006-0.091-0.013-0.165-0.013c-0.484,0-1.001,0.312-1.001,1.188c0,0.303,0.059,0.562,0.176,0.774h-0.252    c-0.48,0.019-1.388,0.344-1.388,1.441c0,0.789,0.53,1.193,0.919,1.382c-0.193,0.221-0.387,0.582-0.387,1.146    c0,1.059,0.86,1.392,1.333,1.421h1.62c-0.261,0.199-0.403,0.444-0.424,0.731c-0.035,0.494,0.08,0.886,0.338,1.162    c0.36,0.386,0.862,0.391,0.883,0.391h12.952l0.104-0.019l0.018-0.007c0.245-0.104,1.074-0.475,1.427-0.869    c0.343-0.388,1.447-1.035,1.605-1.061c0.141-0.023,0.242-0.144,0.242-0.286v-7.229C32.139,24.658,32.063,24.548,31.934,24.5z     M13.554,25.798c0-0.608,0.316-0.608,0.42-0.608l0.134,0.012l3.344-0.025v1.396h-3.343C14.017,26.57,13.554,26.521,13.554,25.798z     M17.452,27.152v1.859l-4.337,0.001c-0.171-0.027-1.025-0.207-1.025-0.998c0-0.799,0.728-0.857,0.82-0.862H17.452z M13.13,29.591    h4.322v1.822c-0.039-0.02-0.083-0.03-0.128-0.03h-3.935c-0.128-0.011-0.766-0.099-0.766-0.841    C12.623,29.828,13.02,29.631,13.13,29.591z M17.327,31.963c0.045,0,0.087-0.01,0.125-0.029v1.732h-1.659    c-0.002,0-0.276-0.008-0.459-0.205c-0.145-0.155-0.207-0.4-0.185-0.726C15.19,32.173,16.661,31.97,17.327,31.963z M23.684,31.304    l-1.569,1.858v-4.371L23.684,31.304z M25.158,33.667h-2.709l1.558-1.846L25.158,33.667z M29.876,28.41l-2.321-1.625l1.855-3.33    c0.19,0.167,0.367,0.333,0.519,0.474l0.072,0.067c0.13,0.121,0.244,0.226,0.333,0.297c0.067,0.057,0.141,0.11,0.219,0.163    C30.492,24.966,30.179,26.761,29.876,28.41z M27.077,26.45l-2.395-1.676l1.176-2.277h1.909c0.286,0,0.685,0.196,1.187,0.58    L27.077,26.45z M21.576,27.931l-1.28,2.49V25.88L21.576,27.931z M25.206,22.497l-1.076,2.08l-3.975,0.027    c-0.581-0.596-0.853-1.604-0.958-2.107H25.206z M21.533,29.285v4.382h-2.25L21.533,29.285z M19.724,31.534l-0.625,1.221v-7.591    l0.616-0.005L19.724,31.534z M20.528,25.158l3.664-0.016l7.365,5.105v1.555c-0.496,0.221-1.378,0.8-1.701,1.163    c-0.236,0.264-0.881,0.578-1.153,0.701l-2.833,0.042L20.528,25.158z M30.399,28.777c0.065-0.353,0.227-1.238,0.383-2.119    c0.168-0.956,0.267-1.534,0.316-1.891c0.178,0.089,0.34,0.16,0.459,0.209v4.609L30.399,28.777z M18.517,25.168v8.498h-0.483v-8.494    L18.517,25.168z"/>
</svg>