<svg version="1.2" baseProfile="tiny" viewBox="0 0 18.000 18.000" xmlns:xlink="http://www.w3.org/1999/xlink" xmlns="http://www.w3.org/2000/svg">
<path style="fill:#ffffff;" d="M16.822,0H1.179C0.524,0,0,0.523,0,1.171v11.505   c0,0.64,0.524,1.17,1.179,1.17h15.644c0.645,0,1.178-0.53,1.178-1.17V1.171C18,0.523,17.467,0,16.822,0z M16.709,12.388   c0,0.151-0.126,0.28-0.283,0.28H1.573c-0.154,0-0.283-0.129-0.283-0.28V1.461c0-0.155,0.129-0.283,0.283-0.283h14.853   c0.157,0,0.283,0.128,0.283,0.283V12.388z M13.523,18H4.471c-0.663,0-0.565-1.065,0-1.065c0.564,0,0.408,0,1.178,0   c0.767,0,0.864-0.928,1.021-2.396h4.666c0.143,1.469,0.252,2.396,1.021,2.396c0.755,0,0.612,0,1.166,0   C14.088,16.935,14.198,18,13.523,18z M7.63,5.773c0,0.147-0.141,0.264-0.319,0.264H3.085c-0.178,0-0.323-0.117-0.323-0.264V2.938   c0-0.146,0.145-0.264,0.323-0.264h4.226c0.179,0,0.319,0.118,0.319,0.264V5.773z M7.614,10.492c0,0.108-0.103,0.192-0.232,0.192   H4.253c-0.132,0-0.237-0.084-0.237-0.192V8.395c0-0.106,0.104-0.193,0.237-0.193h3.128c0.129,0,0.232,0.087,0.232,0.193V10.492z    M15.211,10.861c0,0.144-0.145,0.262-0.318,0.262h-4.229c-0.176,0-0.316-0.118-0.316-0.262V8.026c0-0.147,0.141-0.264,0.316-0.264   h4.229c0.174,0,0.318,0.117,0.318,0.264V10.861z"/>
</svg>