<svg version="1.2" baseProfile="tiny" viewBox="0 0 5.904 18.000" xmlns:xlink="http://www.w3.org/1999/xlink" xmlns="http://www.w3.org/2000/svg">
<path style="fill:#ffffff;" d="M4.372,3.53H3.573V3.062h0.799V3.53z M2.731,5.318H2.327v1.626h0.404V5.318z M2.23,3.062h-0.8V3.53   h0.8V3.062z M5.904,0.453v17.095C5.904,17.797,5.702,18,5.452,18H0.45C0.201,18,0,17.797,0,17.548V0.453C0,0.203,0.201,0,0.45,0   h5.002C5.702,0,5.904,0.203,5.904,0.453z M4.824,15.227H1.08v1.534h3.744V15.227z M4.824,13.139H1.08v0.233v0.243v0.147h3.744   v-0.147v-0.243V13.139z M4.824,11.773H1.08v0.233v0.244v0.146h3.744v-0.146v-0.244V11.773z M4.824,10.451H1.08v0.626h3.744V10.451z    M2.514,7.187c0.598,0,1.081-0.484,1.081-1.082S3.111,5.023,2.514,5.023S1.431,5.507,1.431,6.104S1.916,7.187,2.514,7.187z    M4.824,1.236H1.08V3.92h3.744V1.236z M3.301,3.062H2.503V3.53h0.798V3.062z"/>
</svg>