<svg version="1.2" baseProfile="tiny" viewBox="0 0 213.158 213.37" xmlns:xlink="http://www.w3.org/1999/xlink" xmlns="http://www.w3.org/2000/svg">
<path style="fill:#ffffff;" d="M69.238,69.3901C32.4,106.2284,9.688,157.1577,9.688,213.37L10.5151,213.37L89.4645,213.37L90.3086,213.37C90.3086,213.0905,90.3214,211.5073,90.3257,211.2299C90.4365,195.5515,93.6488,180.1888,99.8837,165.5474C106.0269,151.1193,114.7387,138.044,125.8719,126.7823C126.5029,126.1529,127.1338,125.5192,127.7712,124.894C138.9343,113.8884,152.0712,105.296,166.8324,99.3515C181.3761,93.4923,196.7832,90.407,212.6187,90.3153C212.802,90.3153,212.9747,90.3131,213.158,90.311L213.158,9.6891C161.0601,9.687,108.9856,29.6414,69.238,69.3901"/>
</svg>