<svg version="1.2" baseProfile="tiny" viewBox="0 0 133.099 150.831" xmlns:xlink="http://www.w3.org/1999/xlink" xmlns="http://www.w3.org/2000/svg">
<path style="fill:#ffffff;" d="M69.2394,6.8523C32.5254,43.6731,9.6883,94.7279,9.6883,150.831L1.0076,150.831C1.0089,92.3387,24.8256,39.0999,63.1022,0.7134L69.2394,6.8523M126.2484,63.8588C126.0913,64.0187,126.0288,64.0836,125.8704,64.2419C114.7367,75.5045,106.0253,88.58,99.8841,103.007C93.6498,117.6497,90.4368,133.0103,90.325,148.6892C90.3223,148.9682,90.309,150.552,90.309,150.831L98.9884,150.831C98.9884,150.478,98.9884,148.8219,98.9884,148.469C99.2865,118.2364,111.9988,90.3417,132.3856,69.9977L126.2484,63.8588Z"/>
</svg>