<svg version="1.2" baseProfile="tiny" viewBox="0 0 100.04 37.209" xmlns:xlink="http://www.w3.org/1999/xlink" xmlns="http://www.w3.org/2000/svg">
<path style="fill:#ffffff;" d="M92.422,12.58C91.3555,12.58,90.4872,13.412,90.4872,14.4341L90.4872,34.3011C90.4872,35.324,91.3545,36.156,92.422,36.156L99.0186,36.156L99.0186,35.1439L99.0186,34.6349L99.0186,14.1011L99.0186,13.3402L99.0186,12.58L92.422,12.58L92.422,12.58M95.7263,23.1648C96.3305,23.1648,96.8217,23.6541,96.8217,24.2599C96.8217,24.8642,96.3315,25.3538,95.7263,25.3538C95.12,25.3538,94.6278,24.8642,94.6278,24.2599C94.6278,23.6541,95.119,23.1648,95.7263,23.1648M94.6278,15.8492C94.6278,15.2449,95.119,14.7549,95.7263,14.7549C96.3305,14.7549,96.8217,15.2449,96.8217,15.8492C96.8217,16.4538,96.3315,16.9439,95.7263,16.9439C95.119,16.9431,94.6278,16.4538,94.6278,15.8492M95.7263,31.5391C96.3305,31.5391,96.8217,32.0299,96.8217,32.6349C96.8217,33.2399,96.3315,33.73,95.7263,33.73C95.12,33.73,94.6278,33.2399,94.6278,32.6349C94.6278,32.0299,95.119,31.5391,95.7263,31.5391M1.0774,12.58L1.0774,13.3402L1.0774,14.1011L1.0774,34.636L1.0774,35.145L1.0774,36.1571L7.6741,36.1571C8.7415,36.1571,9.6088,35.3251,9.6088,34.3019L9.6088,14.4341C9.6088,13.4131,8.7425,12.58,7.6741,12.58L1.0774,12.58L1.0774,12.58M5.4692,24.2599C5.4692,24.8642,4.978,25.3538,4.3697,25.3538C3.7645,25.3538,3.2743,24.8642,3.2743,24.2599C3.2743,23.6549,3.7635,23.1648,4.3697,23.1648C4.978,23.1648,5.4692,23.6541,5.4692,24.2599M4.3697,16.9431C3.7645,16.9431,3.2743,16.4538,3.2743,15.8481C3.2743,15.2442,3.7635,14.7541,4.3697,14.7541C4.977,14.7541,5.4692,15.2442,5.4692,15.8481C5.4692,16.4538,4.978,16.9431,4.3697,16.9431M5.4692,32.6349C5.4692,33.2392,4.978,33.73,4.3697,33.73C3.7645,33.73,3.2743,33.2399,3.2743,32.6349C3.2743,32.0299,3.7635,31.5391,4.3697,31.5391C4.978,31.5391,5.4692,32.0299,5.4692,32.6349M92.7341,1.4619C92.7341,1.2082,92.9432,1.0002,93.1973,1.0002L94.8679,1.0002C95.122,1.0002,95.3311,1.2082,95.3311,1.4619L95.3311,3.4169C95.3311,3.6722,95.122,3.8809,94.8679,3.8809L93.1973,3.8809C92.9432,3.8809,92.7341,3.6722,92.7341,3.4169L92.7341,1.4619M7.581,3.4169C7.581,3.6722,7.3729,3.8809,7.1168,3.8809L5.4482,3.8809L5.4482,3.8809C5.1921,3.8809,4.984,3.6722,4.984,3.4169L4.984,1.4619C4.984,1.2082,5.1921,1.0002,5.4482,1.0002L7.1168,1.0002C7.3729,1.0002,7.581,1.2082,7.581,1.4619L7.581,3.4169Z"/>
</svg>