<svg version="1.2" baseProfile="tiny" viewBox="0 0 213.158 213.37" xmlns:xlink="http://www.w3.org/1999/xlink" xmlns="http://www.w3.org/2000/svg">
<path style="fill:#ffffff;" d="M212.6187,90.3153C212.8425,90.3153,212.9342,90.311,213.158,90.311L213.1559,98.9909C184.3561,98.961,155.6416,109.6957,134.0529,130.8641C133.4966,131.421,132.9402,131.98,132.3839,132.5369C111.9975,152.8817,99.2847,180.7777,98.9884,211.008C98.9863,211.3622,98.9884,213.0179,98.9884,213.37L90.3086,213.37C90.3086,213.0926,90.3214,211.5094,90.3236,211.2299C90.4344,195.5515,93.6488,180.191,99.8837,165.5474C112.5474,135.7993,136.7835,111.4538,166.8324,99.3515C181.3761,93.4923,196.7832,90.407,212.6187,90.3153C212.8425,90.3153,196.7832,90.407,212.6187,90.3153M213.158,9.6891L213.158,1.0071C158.9498,1.0861,104.4623,21.8918,63.1033,63.2514L63.1033,63.2535L63.1012,63.2514C24.8265,101.6409,1.0082,154.8789,1.0082,213.37L9.688,213.37C9.688,157.2665,32.5279,106.2135,69.2401,69.3901L69.238,69.3901L69.2401,69.3901C108.911,29.7182,161.1581,9.7659,213.158,9.6891Z"/>
</svg>