<svg version="1.2" baseProfile="tiny" viewBox="0 0 82.0 37.333" xmlns:xlink="http://www.w3.org/1999/xlink" xmlns="http://www.w3.org/2000/svg">
<path style="fill:#ffffff;" d="M0.9881,0.9878L0.9881,36.3452L81.0119,36.3452L81.0119,0.9878L0.9881,0.9878M11.3217,18.198C11.3217,19.418,10.3369,20.4081,9.1209,20.4081C7.9073,20.4081,6.9208,19.418,6.9208,18.198L6.9208,9.225C6.9208,8.0049,7.9073,7.016,9.1209,7.016C10.3369,7.016,11.3217,8.0049,11.3217,9.225L11.3217,18.198M43.3559,18.198C43.3559,19.418,42.3719,20.4081,41.155,20.4081C39.9397,20.4081,38.9549,19.418,38.9549,18.198L38.9549,9.225C38.9549,8.0049,39.9397,7.016,41.155,7.016C42.371,7.016,43.3559,8.0049,43.3559,9.225L43.3559,18.198M75.3933,18.198C75.3933,19.418,74.406,20.4081,73.1907,20.4081C71.9763,20.4081,70.9899,19.418,70.9899,18.198L70.9899,9.225C70.9899,8.0049,71.9763,7.016,73.1907,7.016C74.406,7.016,75.3933,8.0049,75.3933,9.225L75.3933,18.198Z"/>
</svg>