<svg version="1.2" baseProfile="tiny" id="EdgeSVG_U7kpo" x="0px" y="0px" width="82px" height="37.333px" viewBox="0 0 82 37.333" xmlns:xlink="http://www.w3.org/1999/xlink" xmlns="http://www.w3.org/2000/svg">
  <linearGradient id="SVGID_2_" gradientUnits="userSpaceOnUse" x1="12.1548" y1="47.5122" x2="69.8452" y2="-10.1782">
    <stop offset="0" style="stop-color:#FFFFFF;stop-opacity:0.2"/>
    <stop offset="0.2209" style="stop-color:#FFFFFF;stop-opacity:0.45"/>
    <stop offset="0.3003" style="stop-color:#FAFAFA;stop-opacity:0.4143"/>
    <stop offset="0.3966" style="stop-color:#EBEBEB;stop-opacity:0.371"/>
    <stop offset="0.5018" style="stop-color:#D2D2D2;stop-opacity:0.3238"/>
    <stop offset="0.6133" style="stop-color:#B0B0B0;stop-opacity:0.2737"/>
    <stop offset="0.7298" style="stop-color:#848484;stop-opacity:0.2214"/>
    <stop offset="0.8505" style="stop-color:#4E4E4E;stop-opacity:0.1672"/>
    <stop offset="0.9724" style="stop-color:#0F0F0F;stop-opacity:0.1124"/>
    <stop offset="1" style="stop-color:#000000;stop-opacity:0.1"/>
  </linearGradient>
  <path fill="url(#SVGID_2_)" d="M0.988,0.988v35.357h80.024V0.988H0.988z M11.322,18.198c0,1.22-0.985,2.21-2.201,2.21&#xD;&#xA;&#x9;&#x9;c-1.214,0-2.2-0.99-2.2-2.21V9.225c0-1.22,0.986-2.209,2.2-2.209c1.216,0,2.201,0.989,2.201,2.209V18.198z M43.356,18.198&#xD;&#xA;&#x9;&#x9;c0,1.22-0.984,2.21-2.201,2.21c-1.215,0-2.2-0.99-2.2-2.21V9.225c0-1.22,0.985-2.209,2.2-2.209c1.216,0,2.201,0.989,2.201,2.209&#xD;&#xA;&#x9;&#x9;V18.198z M75.393,18.198c0,1.22-0.987,2.21-2.202,2.21s-2.201-0.99-2.201-2.21V9.225c0-1.22,0.986-2.209,2.201-2.209&#xD;&#xA;&#x9;&#x9;s2.202,0.989,2.202,2.209V18.198z"/>
  <linearGradient id="SVGID_3_" gradientUnits="userSpaceOnUse" x1="41.0063" y1="36.3452" x2="41.0063" y2="30.0503">
    <stop offset="0" style="stop-color:#FFFFFF;stop-opacity:0.2"/>
    <stop offset="0.0603" style="stop-color:#FAFAFA;stop-opacity:0.1851"/>
    <stop offset="0.1355" style="stop-color:#EAEAEA;stop-opacity:0.1665"/>
    <stop offset="0.2186" style="stop-color:#D1D1D1;stop-opacity:0.146"/>
    <stop offset="0.3075" style="stop-color:#ADADAD;stop-opacity:0.1241"/>
    <stop offset="0.4009" style="stop-color:#808080;stop-opacity:0.101"/>
    <stop offset="0.4982" style="stop-color:#484848;stop-opacity:0.077"/>
    <stop offset="0.5968" style="stop-color:#070707;stop-opacity:0.0526"/>
    <stop offset="0.6074" style="stop-color:#000000;stop-opacity:0.05"/>
    <stop offset="0.7537" style="stop-color:#020202;stop-opacity:0.1432"/>
    <stop offset="0.8064" style="stop-color:#090909;stop-opacity:0.1767"/>
    <stop offset="0.844" style="stop-color:#141414;stop-opacity:0.2006"/>
    <stop offset="0.8744" style="stop-color:#252525;stop-opacity:0.22"/>
    <stop offset="0.9004" style="stop-color:#3B3B3B;stop-opacity:0.2366"/>
    <stop offset="0.9234" style="stop-color:#575757;stop-opacity:0.2512"/>
    <stop offset="0.9443" style="stop-color:#777777;stop-opacity:0.2645"/>
    <stop offset="0.9634" style="stop-color:#9D9D9D;stop-opacity:0.2767"/>
    <stop offset="0.9813" style="stop-color:#C8C8C8;stop-opacity:0.2881"/>
    <stop offset="0.9971" style="stop-color:#F6F6F6;stop-opacity:0.2982"/>
    <stop offset="1" style="stop-color:#FFFFFF;stop-opacity:0.3"/>
  </linearGradient>
  <rect x="1.015" y="30.05" fill="url(#SVGID_3_)" width="79.982" height="6.295"/>
  <linearGradient id="SVGID_4_" gradientUnits="userSpaceOnUse" x1="19.5693" y1="54.6499" x2="62.4563" y2="11.7629">
    <stop offset="0" style="stop-color:#FFFFFF;stop-opacity:0"/>
    <stop offset="0.4294" style="stop-color:#FFFFFF;stop-opacity:0.4"/>
    <stop offset="0.5113" style="stop-color:#D4D4D4;stop-opacity:0.357"/>
    <stop offset="0.6919" style="stop-color:#7A7A7A;stop-opacity:0.262"/>
    <stop offset="0.8391" style="stop-color:#383838;stop-opacity:0.1846"/>
    <stop offset="0.9453" style="stop-color:#101010;stop-opacity:0.1287"/>
    <stop offset="1" style="stop-color:#000000;stop-opacity:0.1"/>
  </linearGradient>
  <rect x="1.013" y="30.319" fill="url(#SVGID_4_)" width="79.999" height="5.775"/>
  <linearGradient id="SVGID_5_" gradientUnits="userSpaceOnUse" x1="20.939" y1="49.9692" x2="61.0569" y2="9.8513">
    <stop offset="0.0123" style="stop-color:#FFFFFF;stop-opacity:0.6"/>
    <stop offset="0.184" style="stop-color:#FFFFFF;stop-opacity:0.2"/>
    <stop offset="0.4294" style="stop-color:#FFFFFF;stop-opacity:0.6"/>
  </linearGradient>
  <polygon fill="url(#SVGID_5_)" points="80.988,30.05 1.016,30.046 1.024,29.753 80.988,29.783 &#x9;"/>
  <linearGradient id="SVGID_6_" gradientUnits="userSpaceOnUse" x1="20.9263" y1="21.5732" x2="61.0696" y2="-18.5701">
    <stop offset="0" style="stop-color:#FFFFFF;stop-opacity:0.2"/>
    <stop offset="0.4294" style="stop-color:#FFFFFF;stop-opacity:0.4"/>
  </linearGradient>
  <rect x="0.988" y="1.367" fill="url(#SVGID_6_)" width="80.019" height="0.268"/>
  <g>
    <linearGradient id="SVGID_7_" gradientUnits="userSpaceOnUse" x1="9.126" y1="20.8765" x2="9.126" y2="6.5122">
      <stop offset="0" style="stop-color:#FFFFFF;stop-opacity:0.2"/>
      <stop offset="0.1949" style="stop-color:#FFFFFF;stop-opacity:0.5435"/>
      <stop offset="0.227" style="stop-color:#FFFFFF;stop-opacity:0.6"/>
      <stop offset="0.3045" style="stop-color:#FAFAFA;stop-opacity:0.5439"/>
      <stop offset="0.3986" style="stop-color:#EBEBEB;stop-opacity:0.4759"/>
      <stop offset="0.5013" style="stop-color:#D2D2D2;stop-opacity:0.4017"/>
      <stop offset="0.6102" style="stop-color:#B0B0B0;stop-opacity:0.323"/>
      <stop offset="0.7239" style="stop-color:#848484;stop-opacity:0.2407"/>
      <stop offset="0.8417" style="stop-color:#4E4E4E;stop-opacity:0.1555"/>
      <stop offset="0.9608" style="stop-color:#0F0F0F;stop-opacity:0.0695"/>
      <stop offset="0.9877" style="stop-color:#000000;stop-opacity:0.05"/>
    </linearGradient>
    <path fill="url(#SVGID_7_)" d="M9.126,6.512c-1.43,0-2.589,1.061-2.589,2.37v9.624c0,1.309,1.159,2.371,2.589,2.371&#xD;&#xA;&#x9;&#x9;&#x9;s2.589-1.062,2.589-2.371V8.882C11.715,7.573,10.556,6.512,9.126,6.512z M11.376,18.234c0,1.235-1.008,2.236-2.25,2.236&#xD;&#xA;&#x9;&#x9;&#x9;s-2.25-1.001-2.25-2.236V9.155c0-1.235,1.032-2.212,2.274-2.212c1.242,0,2.226,0.977,2.226,2.212V18.234z"/>
    <linearGradient id="SVGID_8_" gradientUnits="userSpaceOnUse" x1="9.126" y1="20.8765" x2="9.126" y2="6.5122">
      <stop offset="0" style="stop-color:#FFFFFF;stop-opacity:0.2"/>
      <stop offset="0.1949" style="stop-color:#FFFFFF;stop-opacity:0.5435"/>
      <stop offset="0.227" style="stop-color:#FFFFFF;stop-opacity:0.6"/>
      <stop offset="0.3045" style="stop-color:#FAFAFA;stop-opacity:0.5439"/>
      <stop offset="0.3986" style="stop-color:#EBEBEB;stop-opacity:0.4759"/>
      <stop offset="0.5013" style="stop-color:#D2D2D2;stop-opacity:0.4017"/>
      <stop offset="0.6102" style="stop-color:#B0B0B0;stop-opacity:0.323"/>
      <stop offset="0.7239" style="stop-color:#848484;stop-opacity:0.2407"/>
      <stop offset="0.8417" style="stop-color:#4E4E4E;stop-opacity:0.1555"/>
      <stop offset="0.9608" style="stop-color:#0F0F0F;stop-opacity:0.0695"/>
      <stop offset="0.9877" style="stop-color:#000000;stop-opacity:0.05"/>
    </linearGradient>
    <path fill="url(#SVGID_8_)" d="M9.126,6.512c-1.43,0-2.589,1.061-2.589,2.37v9.624c0,1.309,1.159,2.371,2.589,2.371&#xD;&#xA;&#x9;&#x9;&#x9;s2.589-1.062,2.589-2.371V8.882C11.715,7.573,10.556,6.512,9.126,6.512z M11.376,18.234c0,1.235-1.008,2.236-2.25,2.236&#xD;&#xA;&#x9;&#x9;&#x9;s-2.25-1.001-2.25-2.236V9.155c0-1.235,1.032-2.212,2.274-2.212c1.242,0,2.226,0.977,2.226,2.212V18.234z"/>
    <linearGradient id="SVGID_9_" gradientUnits="userSpaceOnUse" x1="9.126" y1="20.8765" x2="9.126" y2="6.5122">
      <stop offset="0" style="stop-color:#FFFFFF;stop-opacity:0.2"/>
      <stop offset="0.1949" style="stop-color:#FFFFFF;stop-opacity:0.5435"/>
      <stop offset="0.227" style="stop-color:#FFFFFF;stop-opacity:0.6"/>
      <stop offset="0.3045" style="stop-color:#FAFAFA;stop-opacity:0.5439"/>
      <stop offset="0.3986" style="stop-color:#EBEBEB;stop-opacity:0.4759"/>
      <stop offset="0.5013" style="stop-color:#D2D2D2;stop-opacity:0.4017"/>
      <stop offset="0.6102" style="stop-color:#B0B0B0;stop-opacity:0.323"/>
      <stop offset="0.7239" style="stop-color:#848484;stop-opacity:0.2407"/>
      <stop offset="0.8417" style="stop-color:#4E4E4E;stop-opacity:0.1555"/>
      <stop offset="0.9608" style="stop-color:#0F0F0F;stop-opacity:0.0695"/>
      <stop offset="0.9877" style="stop-color:#000000;stop-opacity:0.05"/>
    </linearGradient>
    <path fill="url(#SVGID_9_)" d="M9.126,6.512c-1.43,0-2.589,1.061-2.589,2.37v9.624c0,1.309,1.159,2.371,2.589,2.371&#xD;&#xA;&#x9;&#x9;&#x9;s2.589-1.062,2.589-2.371V8.882C11.715,7.573,10.556,6.512,9.126,6.512z M11.376,18.234c0,1.235-1.008,2.236-2.25,2.236&#xD;&#xA;&#x9;&#x9;&#x9;s-2.25-1.001-2.25-2.236V9.155c0-1.235,1.032-2.212,2.274-2.212c1.242,0,2.226,0.977,2.226,2.212V18.234z"/>
  </g>
  <g>
    <linearGradient id="SVGID_10_" gradientUnits="userSpaceOnUse" x1="41.1494" y1="20.8638" x2="41.1494" y2="6.5122">
      <stop offset="0" style="stop-color:#FFFFFF;stop-opacity:0.2"/>
      <stop offset="0.1949" style="stop-color:#FFFFFF;stop-opacity:0.5435"/>
      <stop offset="0.227" style="stop-color:#FFFFFF;stop-opacity:0.6"/>
      <stop offset="0.3045" style="stop-color:#FAFAFA;stop-opacity:0.5439"/>
      <stop offset="0.3986" style="stop-color:#EBEBEB;stop-opacity:0.4759"/>
      <stop offset="0.5013" style="stop-color:#D2D2D2;stop-opacity:0.4017"/>
      <stop offset="0.6102" style="stop-color:#B0B0B0;stop-opacity:0.323"/>
      <stop offset="0.7239" style="stop-color:#848484;stop-opacity:0.2407"/>
      <stop offset="0.8417" style="stop-color:#4E4E4E;stop-opacity:0.1555"/>
      <stop offset="0.9608" style="stop-color:#0F0F0F;stop-opacity:0.0695"/>
      <stop offset="0.9877" style="stop-color:#000000;stop-opacity:0.05"/>
    </linearGradient>
    <path fill="url(#SVGID_10_)" d="M41.149,6.512c-1.433,0-2.596,1.061-2.596,2.368v9.616c0,1.308,1.163,2.368,2.596,2.368&#xD;&#xA;&#x9;&#x9;&#x9;c1.434,0,2.596-1.061,2.596-2.368V8.88C43.745,7.573,42.583,6.512,41.149,6.512z M43.405,18.224c0,1.233-1.011,2.233-2.256,2.233&#xD;&#xA;&#x9;&#x9;&#x9;s-2.255-1-2.255-2.233V9.152c0-1.234,1.009-2.2,2.255-2.2s2.256,0.966,2.256,2.2V18.224z"/>
    <linearGradient id="SVGID_11_" gradientUnits="userSpaceOnUse" x1="41.1494" y1="20.8638" x2="41.1494" y2="6.5122">
      <stop offset="0" style="stop-color:#FFFFFF;stop-opacity:0.2"/>
      <stop offset="0.1949" style="stop-color:#FFFFFF;stop-opacity:0.5435"/>
      <stop offset="0.227" style="stop-color:#FFFFFF;stop-opacity:0.6"/>
      <stop offset="0.3045" style="stop-color:#FAFAFA;stop-opacity:0.5439"/>
      <stop offset="0.3986" style="stop-color:#EBEBEB;stop-opacity:0.4759"/>
      <stop offset="0.5013" style="stop-color:#D2D2D2;stop-opacity:0.4017"/>
      <stop offset="0.6102" style="stop-color:#B0B0B0;stop-opacity:0.323"/>
      <stop offset="0.7239" style="stop-color:#848484;stop-opacity:0.2407"/>
      <stop offset="0.8417" style="stop-color:#4E4E4E;stop-opacity:0.1555"/>
      <stop offset="0.9608" style="stop-color:#0F0F0F;stop-opacity:0.0695"/>
      <stop offset="0.9877" style="stop-color:#000000;stop-opacity:0.05"/>
    </linearGradient>
    <path fill="url(#SVGID_11_)" d="M41.149,6.512c-1.433,0-2.596,1.061-2.596,2.368v9.616c0,1.308,1.163,2.368,2.596,2.368&#xD;&#xA;&#x9;&#x9;&#x9;c1.434,0,2.596-1.061,2.596-2.368V8.88C43.745,7.573,42.583,6.512,41.149,6.512z M43.405,18.224c0,1.233-1.011,2.233-2.256,2.233&#xD;&#xA;&#x9;&#x9;&#x9;s-2.255-1-2.255-2.233V9.152c0-1.234,1.009-2.2,2.255-2.2s2.256,0.966,2.256,2.2V18.224z"/>
    <linearGradient id="SVGID_12_" gradientUnits="userSpaceOnUse" x1="41.1494" y1="20.8638" x2="41.1494" y2="6.5122">
      <stop offset="0" style="stop-color:#FFFFFF;stop-opacity:0.2"/>
      <stop offset="0.1949" style="stop-color:#FFFFFF;stop-opacity:0.5435"/>
      <stop offset="0.227" style="stop-color:#FFFFFF;stop-opacity:0.6"/>
      <stop offset="0.3045" style="stop-color:#FAFAFA;stop-opacity:0.5439"/>
      <stop offset="0.3986" style="stop-color:#EBEBEB;stop-opacity:0.4759"/>
      <stop offset="0.5013" style="stop-color:#D2D2D2;stop-opacity:0.4017"/>
      <stop offset="0.6102" style="stop-color:#B0B0B0;stop-opacity:0.323"/>
      <stop offset="0.7239" style="stop-color:#848484;stop-opacity:0.2407"/>
      <stop offset="0.8417" style="stop-color:#4E4E4E;stop-opacity:0.1555"/>
      <stop offset="0.9608" style="stop-color:#0F0F0F;stop-opacity:0.0695"/>
      <stop offset="0.9877" style="stop-color:#000000;stop-opacity:0.05"/>
    </linearGradient>
    <path fill="url(#SVGID_12_)" d="M41.149,6.512c-1.433,0-2.596,1.061-2.596,2.368v9.616c0,1.308,1.163,2.368,2.596,2.368&#xD;&#xA;&#x9;&#x9;&#x9;c1.434,0,2.596-1.061,2.596-2.368V8.88C43.745,7.573,42.583,6.512,41.149,6.512z M43.405,18.224c0,1.233-1.011,2.233-2.256,2.233&#xD;&#xA;&#x9;&#x9;&#x9;s-2.255-1-2.255-2.233V9.152c0-1.234,1.009-2.2,2.255-2.2s2.256,0.966,2.256,2.2V18.224z"/>
  </g>
  <g>
    <linearGradient id="SVGID_13_" gradientUnits="userSpaceOnUse" x1="73.1904" y1="20.8511" x2="73.1904" y2="6.4868">
      <stop offset="0" style="stop-color:#FFFFFF;stop-opacity:0.2"/>
      <stop offset="0.1949" style="stop-color:#FFFFFF;stop-opacity:0.5435"/>
      <stop offset="0.227" style="stop-color:#FFFFFF;stop-opacity:0.6"/>
      <stop offset="0.3045" style="stop-color:#FAFAFA;stop-opacity:0.5439"/>
      <stop offset="0.3986" style="stop-color:#EBEBEB;stop-opacity:0.4759"/>
      <stop offset="0.5013" style="stop-color:#D2D2D2;stop-opacity:0.4017"/>
      <stop offset="0.6102" style="stop-color:#B0B0B0;stop-opacity:0.323"/>
      <stop offset="0.7239" style="stop-color:#848484;stop-opacity:0.2407"/>
      <stop offset="0.8417" style="stop-color:#4E4E4E;stop-opacity:0.1555"/>
      <stop offset="0.9608" style="stop-color:#0F0F0F;stop-opacity:0.0695"/>
      <stop offset="0.9877" style="stop-color:#000000;stop-opacity:0.05"/>
    </linearGradient>
    <path fill="url(#SVGID_13_)" d="M73.191,6.487c-1.427,0-2.584,1.062-2.584,2.371v9.624c0,1.309,1.157,2.37,2.584,2.37&#xD;&#xA;&#x9;&#x9;&#x9;s2.583-1.061,2.583-2.37V8.857C75.774,7.548,74.618,6.487,73.191,6.487z M75.437,18.208c0,1.235-1.005,2.237-2.245,2.237&#xD;&#xA;&#x9;&#x9;&#x9;s-2.244-1.001-2.244-2.237V9.129c0-1.234,1.004-2.189,2.244-2.189s2.245,0.955,2.245,2.189V18.208z"/>
    <linearGradient id="SVGID_14_" gradientUnits="userSpaceOnUse" x1="73.1904" y1="20.8511" x2="73.1904" y2="6.4868">
      <stop offset="0" style="stop-color:#FFFFFF;stop-opacity:0.2"/>
      <stop offset="0.1949" style="stop-color:#FFFFFF;stop-opacity:0.5435"/>
      <stop offset="0.227" style="stop-color:#FFFFFF;stop-opacity:0.6"/>
      <stop offset="0.3045" style="stop-color:#FAFAFA;stop-opacity:0.5439"/>
      <stop offset="0.3986" style="stop-color:#EBEBEB;stop-opacity:0.4759"/>
      <stop offset="0.5013" style="stop-color:#D2D2D2;stop-opacity:0.4017"/>
      <stop offset="0.6102" style="stop-color:#B0B0B0;stop-opacity:0.323"/>
      <stop offset="0.7239" style="stop-color:#848484;stop-opacity:0.2407"/>
      <stop offset="0.8417" style="stop-color:#4E4E4E;stop-opacity:0.1555"/>
      <stop offset="0.9608" style="stop-color:#0F0F0F;stop-opacity:0.0695"/>
      <stop offset="0.9877" style="stop-color:#000000;stop-opacity:0.05"/>
    </linearGradient>
    <path fill="url(#SVGID_14_)" d="M73.191,6.487c-1.427,0-2.584,1.062-2.584,2.371v9.624c0,1.309,1.157,2.37,2.584,2.37&#xD;&#xA;&#x9;&#x9;&#x9;s2.583-1.061,2.583-2.37V8.857C75.774,7.548,74.618,6.487,73.191,6.487z M75.437,18.208c0,1.235-1.005,2.237-2.245,2.237&#xD;&#xA;&#x9;&#x9;&#x9;s-2.244-1.001-2.244-2.237V9.129c0-1.234,1.004-2.189,2.244-2.189s2.245,0.955,2.245,2.189V18.208z"/>
    <linearGradient id="SVGID_15_" gradientUnits="userSpaceOnUse" x1="73.1904" y1="20.8511" x2="73.1904" y2="6.4868">
      <stop offset="0" style="stop-color:#FFFFFF;stop-opacity:0.2"/>
      <stop offset="0.1949" style="stop-color:#FFFFFF;stop-opacity:0.5435"/>
      <stop offset="0.227" style="stop-color:#FFFFFF;stop-opacity:0.6"/>
      <stop offset="0.3045" style="stop-color:#FAFAFA;stop-opacity:0.5439"/>
      <stop offset="0.3986" style="stop-color:#EBEBEB;stop-opacity:0.4759"/>
      <stop offset="0.5013" style="stop-color:#D2D2D2;stop-opacity:0.4017"/>
      <stop offset="0.6102" style="stop-color:#B0B0B0;stop-opacity:0.323"/>
      <stop offset="0.7239" style="stop-color:#848484;stop-opacity:0.2407"/>
      <stop offset="0.8417" style="stop-color:#4E4E4E;stop-opacity:0.1555"/>
      <stop offset="0.9608" style="stop-color:#0F0F0F;stop-opacity:0.0695"/>
      <stop offset="0.9877" style="stop-color:#000000;stop-opacity:0.05"/>
    </linearGradient>
    <path fill="url(#SVGID_15_)" d="M73.191,6.487c-1.427,0-2.584,1.062-2.584,2.371v9.624c0,1.309,1.157,2.37,2.584,2.37&#xD;&#xA;&#x9;&#x9;&#x9;s2.583-1.061,2.583-2.37V8.857C75.774,7.548,74.618,6.487,73.191,6.487z M75.437,18.208c0,1.235-1.005,2.237-2.245,2.237&#xD;&#xA;&#x9;&#x9;&#x9;s-2.244-1.001-2.244-2.237V9.129c0-1.234,1.004-2.189,2.244-2.189s2.245,0.955,2.245,2.189V18.208z"/>
  </g>
</svg>