<svg version="1.2" baseProfile="tiny" viewBox="0 0 18.000 12.850" xmlns:xlink="http://www.w3.org/1999/xlink" xmlns="http://www.w3.org/2000/svg">
<path style="fill:#ffffff;" d="M16.414,3.489c0-0.011-0.001-0.021-0.001-0.033h1.195C17.825,3.456,18,3.631,18,3.848v5.478   c0,0.217-0.175,0.393-0.392,0.393H7.041v2.74c0,0.156-0.093,0.297-0.236,0.359c-0.143,0.062-0.31,0.033-0.423-0.073L0.119,6.873   c-0.159-0.148-0.159-0.423,0-0.571L6.382,0.43c0.114-0.106,0.28-0.136,0.423-0.073C6.948,0.418,7.041,0.56,7.041,0.715v2.741h0.855   c0,0.011-0.002,0.021-0.002,0.033c0,2.349,1.911,4.26,4.26,4.26C14.504,7.749,16.414,5.837,16.414,3.489z M12.154,0   c1.916,0,3.469,1.544,3.487,3.456c0,0.011,0.001,0.021,0.001,0.033c0,1.926-1.562,3.488-3.488,3.488S8.666,5.415,8.666,3.489   c0-0.011,0.002-0.021,0.002-0.033C8.686,1.544,10.239,0,12.154,0z M10.015,4.14h4.279V2.837h-4.279V4.14z"/>
</svg>