<svg version="1.2" baseProfile="tiny" viewBox="0 0 12.850 18.000" xmlns:xlink="http://www.w3.org/1999/xlink" xmlns="http://www.w3.org/2000/svg">
<path style="fill:#ffffff;" d="M12.744,11.618l-5.871,6.263c-0.148,0.159-0.424,0.159-0.572,0L0.43,11.618   c-0.106-0.113-0.136-0.28-0.073-0.424c0.062-0.143,0.203-0.235,0.359-0.235h2.74v-0.477c0.011,0.001,0.022,0.002,0.032,0.002   c2.558,0,4.64-2.081,4.64-4.639c0-2.554-2.075-4.631-4.672-4.636V0.392C3.456,0.175,3.632,0,3.848,0h5.479   c0.217,0,0.392,0.175,0.392,0.392v10.567h2.741c0.156,0,0.297,0.093,0.358,0.235C12.88,11.338,12.851,11.505,12.744,11.618z    M0,5.846C0,3.93,1.545,2.377,3.456,2.358c0.011,0,0.021-0.001,0.032-0.001c1.927,0,3.489,1.562,3.489,3.488   S5.415,9.334,3.488,9.334c-0.011,0-0.021-0.002-0.032-0.002C1.545,9.314,0,7.761,0,5.846z M1.349,6.496h4.279V5.194H1.349V6.496z"/>
</svg>