<svg version="1.2" baseProfile="tiny" viewBox="0 0 18.000 11.270" xmlns:xlink="http://www.w3.org/1999/xlink" xmlns="http://www.w3.org/2000/svg">
<path style="fill:#ffffff;" d="M4.276,6.935c0,0.12-0.098,0.218-0.218,0.218H2.613c-0.12,0-0.218-0.099-0.218-0.218V6.602   c0-0.12,0.098-0.218,0.218-0.218h1.445c0.12,0,0.218,0.098,0.218,0.218V6.935z M4.288,8.731c0-0.119-0.098-0.217-0.218-0.217H2.624   c-0.12,0-0.218,0.098-0.218,0.217v0.333c0,0.12,0.098,0.218,0.218,0.218H4.07c0.12,0,0.218-0.098,0.218-0.218V8.731z M13.909,7.219   c-0.171-1.375-1.138-2.111-1.928-2.42c-0.869-0.34-2.363-0.274-2.363-0.274V6.16H8.2c-0.12,0-0.218,0.098-0.218,0.218v0.368   c0,0.12,0.098,0.218,0.218,0.218h1.418V8.75H8.2c-0.12,0-0.218,0.098-0.218,0.217v0.369c0,0.119,0.098,0.218,0.218,0.218h1.418   v1.229c0,0,1.305,0.095,2.25-0.273c1.083-0.423,1.892-1.061,2.043-2.393h3.938L18,7.219H13.909z M5.875,7.873   c0-1.366-1.111-2.478-2.477-2.478c-1.366,0-2.478,1.111-2.478,2.478c0,1.365,1.111,2.476,2.478,2.476   C4.763,10.349,5.875,9.238,5.875,7.873z M5.42,7.873c0,1.116-0.907,2.023-2.023,2.023S1.374,8.989,1.374,7.873   S2.282,5.85,3.397,5.85S5.42,6.757,5.42,7.873z M6.341,4.93H0.454v5.886h5.887V4.93 M6.794,4.476v6.794H0V4.476H6.794L6.794,4.476z    M13.872,1.291L10.712,0l0.618,1.064H4.002v0.454h7.328l-0.618,1.064L13.872,1.291z"/>
</svg>