<svg version="1.2" baseProfile="tiny" viewBox="0 0 16.747 18.000" xmlns:xlink="http://www.w3.org/1999/xlink" xmlns="http://www.w3.org/2000/svg">
<path style="fill:#ffffff;" d="M15.956,7.627c-0.163-0.308-0.473-0.45-0.706-0.517c0.103-1.434-0.026-4.048-2.003-5.694   C10.983-0.47,6.343-0.472,3.879,1.412c-2.2,1.683-2.297,4.066-2.236,5.709C1.414,7.165,0.992,7.295,0.791,7.674   c-0.285,0.533-1.114,2.61-0.655,4.501c0.46,1.893,1.95,2.49,2.965,2.29l-0.018-0.102c0,0,0.439,0.112,0.709-0.02   c0.134-0.065,0.229-0.166,0.281-0.318c0.06,0.731,0.152,1.466,0.29,1.672c0.228,0.342,2.028,2.092,2.494,2.198   C7.031,17.937,7.914,18,8.703,18c0.561,0,1.075-0.031,1.25-0.127c0.265-0.145,2.113-1.47,2.355-1.885   c0.118-0.201,0.273-1.092,0.401-1.943c0.056,0.112,0.134,0.198,0.244,0.253c0.271,0.132,0.71,0.02,0.71,0.02l-0.018,0.102   c1.014,0.2,2.505-0.397,2.965-2.289C17.07,10.237,16.24,8.16,15.956,7.627z M2.208,4.485c0.5-0.194,1.717-1.648,1.91-2.501   c0,0,1.44-0.062,2.412-1.24c0,0,1.715,0.352,2.811-0.186c0,0,1.964,1.137,2.936,0.868c0,0,0.524,1.485,2.222,2.339   c0.482,1.273,0.483,2.602,0.412,3.441c-0.017-0.017-0.16-0.157-0.574-0.27c-0.041-0.011-0.078-0.009-0.115-0.008   c0.034-0.555,0.031-1.12-0.053-1.639c0.055-0.015,0.117-0.021,0.17-0.039l0.351-0.115l-0.239-0.281   c-0.023-0.028-0.604-0.702-2.015-1.574C11.509,2.71,9.773,2.043,7.919,2.043c-0.346,0-0.683,0.024-1.002,0.072   c-1.266,0.188-2.201,0.695-2.57,1.39C3.948,3.469,3.461,3.49,3.083,3.865C2.595,4.35,2.404,5.36,2.49,6.978   C2.463,6.98,2.439,6.976,2.411,6.984c-0.207,0.057-0.343,0.12-0.435,0.173C1.947,6.384,1.952,5.438,2.208,4.485z M12.977,4.951   c-1.506,0-3.084-0.624-3.099-0.631L9.56,4.193L9.538,4.535C9.51,4.971,9.724,5.519,9.904,5.896c-1.336-0.277-2.628-1.437-2.643-1.45   L7.024,4.231L6.875,4.514C6.669,4.905,6.671,5.5,6.699,5.883C5.934,5.688,5.082,5.316,4.817,4.793   c-0.19-0.376-0.203-0.728-0.039-1.046c0.29-0.56,1.096-0.977,2.212-1.143c0.295-0.044,0.607-0.066,0.929-0.066   c1.749,0,3.385,0.627,4.253,1.165c0.787,0.486,1.302,0.907,1.595,1.173L13.722,4.89C13.492,4.929,13.244,4.951,12.977,4.951z    M12.426,12.477c-0.184,1.442-0.439,3.058-0.547,3.263c-0.152,0.261-1.842,1.521-2.16,1.695c-0.283,0.121-2.395,0.062-2.748-0.021   c-0.284-0.092-1.968-1.649-2.194-1.988c-0.115-0.202-0.24-1.595-0.291-2.77L4.47,12.34l-0.304,0.09   c-0.007,0.002-0.103,0.028-0.246,0.02C3.672,11.04,3.235,8.565,3.154,8.108C3.122,7.925,3.08,7.74,3.026,7.571   c-0.159-1.8-0.023-2.927,0.407-3.354C3.632,4.02,3.895,3.98,4.194,3.995C4.146,4.324,4.199,4.67,4.375,5.017   c0.483,0.956,2.083,1.334,2.562,1.427l0.348,0.067L7.229,6.162c-0.032-0.207-0.08-0.715-0.011-1.106   c0.56,0.444,1.844,1.343,3.12,1.393l0.456,0.018l-0.234-0.393c-0.121-0.204-0.389-0.72-0.488-1.156   c0.581,0.195,1.746,0.529,2.906,0.529c0.248,0,0.482-0.017,0.705-0.048c0.116,0.742,0.047,1.613-0.034,2.388   c-0.021,0.091-0.04,0.182-0.057,0.274c-0.079,0.447-0.496,2.816-0.747,4.24c-0.031-0.008-0.063-0.018-0.082-0.024l-0.296-0.114   L12.426,12.477z"/>
</svg>