<svg version="1.2" baseProfile="tiny" viewBox="0 0 45.500 40.000" xmlns:xlink="http://www.w3.org/1999/xlink" xmlns="http://www.w3.org/2000/svg">
<path style="fill:#ffffff;" d="M44.089,37.135L23.729,1.688c-0.185-0.32-0.524-0.518-0.894-0.519c-0.001,0-0.002,0-0.003,0    c-0.368,0-0.709,0.196-0.893,0.515L1.309,37.279c-0.186,0.32-0.186,0.714-0.001,1.034c0.185,0.319,0.525,0.517,0.895,0.517h41.076    c0.007,0,0.014,0,0.018,0c0.57,0,1.034-0.462,1.034-1.032C44.33,37.545,44.239,37.315,44.089,37.135z M3.995,36.766L22.829,4.27    l18.665,32.497H3.995z M24.999,31.139l4.72-0.732c0,0-0.077,2.015-1.629,3.223v2.088h-5.866v-2.109    c-1.013-0.89-1.205-1.855-1.4-2.821v-1.58l2.838-0.683l-0.869,1.514l3.216-0.681L24.999,31.139z M22.734,18.794v6.665H22.44v-2.107    c-0.352-0.985-0.901-1.508-1.617-1.471v6.105l5.067-1.31c0,0-0.929,1.688-1.01,1.849c-0.081,0.163,3.144-0.695,3.144-0.695    l-1.056,1.783c0,0,1.314-0.115,2.788-0.361V20.75c0-0.444-0.345-0.801-0.778-0.801c-0.43,0-0.776,0.356-0.776,0.801v4.71h-0.269    v-6.665c0-0.445-0.346-0.801-0.776-0.801c-0.432,0-0.777,0.356-0.777,0.801v6.665h-0.245v-7.731c0-0.445-0.346-0.799-0.777-0.799    c-0.431,0-0.778,0.354-0.778,0.799v7.731h-0.288v-6.665c0-0.445-0.346-0.801-0.778-0.801C23.081,17.994,22.734,18.35,22.734,18.794    z M20.12,27.886c-0.367-0.051-0.659-0.011-1.011-0.009c0.366-0.234,0.635-0.576,0.741-1.073c0-0.017-0.002-0.032-0.007-0.045    c0.001-0.016-0.001-0.031-0.006-0.044c-0.01-0.024-0.03-0.046-0.054-0.06c-0.013-0.008-0.029-0.014-0.046-0.016    c-0.022-0.01-0.044-0.015-0.068-0.013c-0.015,0.007-0.029,0.018-0.042,0.03c-0.026,0.017-0.046,0.043-0.057,0.074    c0.001,0.008,0.002,0.013,0.003,0.021c-0.069,0.332-0.223,0.565-0.431,0.744c-0.115,0.1-0.244,0.185-0.392,0.253    c-0.017,0.008-0.033,0.017-0.049,0.026l0.019-0.258l0-0.015l0.028-0.248c-0.002,0-0.007-0.002-0.009-0.004l0.001-0.027l0.008-0.111    c-0.082-0.047-0.165-0.098-0.248-0.153c-0.386-0.257-0.759-0.595-0.823-0.943c-0.024-0.138,0.08-0.345,0.231-0.571    c0.141-0.21,0.323-0.436,0.487-0.639c0.559-0.689,1.192-1.47,1.149-2.455c-0.071-1.629-2.428-2.818-3.302-3.206    c-0.074-0.031-0.138-0.06-0.188-0.081c-0.012-0.005-0.028-0.011-0.038-0.017l-0.31,0.758l-0.003,0.008l-0.269,0.657l-0.038,0.092    c0.14,0.058,0.281,0.121,0.424,0.19c0.108,0.052,0.213,0.107,0.32,0.164c0.915,0.486,1.754,1.13,1.771,1.507    c0.015,0.336-0.346,0.807-0.697,1.24c-0.03,0.038-0.06,0.077-0.089,0.112c-0.278,0.343-0.571,0.709-0.784,1.105    c-0.232,0.434-0.368,0.905-0.271,1.431c0.075,0.407,0.257,0.764,0.491,1.072c0.503,0.663,1.239,1.097,1.701,1.323    c0.168,0.082,0.292,0.135,0.358,0.162l0.006-0.069l0.034-0.464c0.049,0.015,0.094,0.036,0.141,0.053    c0.382,0.145,0.638,0.428,0.819,0.828c0,0.007,0.001,0.013,0.003,0.021c0.019,0.027,0.046,0.047,0.077,0.056    c0.014,0.008,0.03,0.014,0.047,0.016c0.007-0.001,0.015-0.002,0.021-0.002c0.023-0.008,0.046-0.018,0.063-0.032    c0.007-0.008,0.014-0.017,0.019-0.025c0.018-0.021,0.03-0.047,0.035-0.072c0-0.016-0.002-0.03-0.006-0.045    c0-0.008-0.002-0.016-0.003-0.021c-0.203-0.45-0.514-0.805-0.976-0.98c0.46,0.015,0.815-0.025,1.195,0.027    c0.007,0.008,0.016,0.012,0.025,0.02c0.008-0.001,0.015-0.003,0.022-0.004c0.016-0.008,0.03-0.018,0.04-0.028    c0.009-0.001,0.016-0.003,0.023-0.005c0.008-0.008,0.014-0.016,0.018-0.023c0.008-0.009,0.014-0.017,0.02-0.026    c0.009-0.021,0.014-0.045,0.012-0.068c0-0.017-0.002-0.03-0.006-0.045c0-0.008-0.001-0.015-0.003-0.021    c-0.008-0.008-0.017-0.015-0.025-0.02C20.194,27.909,20.159,27.888,20.12,27.886z"/>
</svg>