<svg version="1.2" baseProfile="tiny" viewBox="0 0 13.755 18.000" xmlns:xlink="http://www.w3.org/1999/xlink" xmlns="http://www.w3.org/2000/svg">
<path style="fill:#ffffff;" d="M4.646,10.586c0.004,0.014,0.007,0.027,0.007,0.043c0.002,0.022-0.004,0.044-0.012,0.065   c-0.005,0.009-0.012,0.017-0.019,0.025c-0.005,0.007-0.011,0.015-0.018,0.022c-0.007,0.002-0.014,0.004-0.021,0.005   c-0.011,0.01-0.024,0.02-0.04,0.026c-0.007,0.001-0.013,0.003-0.021,0.004c-0.008-0.007-0.017-0.011-0.023-0.019   c-0.363-0.051-0.703-0.012-1.145-0.026c0.441,0.169,0.739,0.509,0.935,0.939c0.001,0.005,0.002,0.013,0.002,0.02   c0.005,0.014,0.006,0.028,0.007,0.043c-0.005,0.024-0.017,0.05-0.034,0.07c-0.003,0.008-0.01,0.016-0.017,0.023   c-0.018,0.015-0.039,0.023-0.061,0.03c-0.007,0.001-0.014,0.002-0.021,0.003c-0.016-0.003-0.031-0.008-0.045-0.016   c-0.03-0.008-0.056-0.026-0.074-0.054c0-0.007-0.002-0.014-0.002-0.021c-0.174-0.384-0.419-0.653-0.785-0.792   c-0.045-0.017-0.087-0.037-0.134-0.052l-0.032,0.445l-0.007,0.066c-0.063-0.026-0.183-0.076-0.342-0.156   c-0.442-0.217-1.148-0.632-1.631-1.268C0.892,9.721,0.717,9.379,0.646,8.989c-0.093-0.504,0.037-0.956,0.26-1.371   c0.204-0.38,0.485-0.73,0.75-1.06c0.029-0.033,0.058-0.07,0.086-0.106c0.337-0.416,0.682-0.867,0.668-1.188   c-0.017-0.361-0.82-0.978-1.696-1.444C0.611,3.767,0.51,3.713,0.407,3.662C0.271,3.597,0.135,3.536,0,3.48l0.037-0.088l0.258-0.63   l0.003-0.007l0.296-0.727c0.011,0.006,0.025,0.012,0.038,0.016C0.68,2.065,0.74,2.093,0.811,2.123   c0.838,0.371,3.095,1.511,3.163,3.071c0.042,0.944-0.565,1.691-1.1,2.352C2.716,7.741,2.543,7.957,2.407,8.157   C2.262,8.375,2.162,8.574,2.186,8.706c0.063,0.333,0.418,0.657,0.789,0.903c0.079,0.054,0.158,0.103,0.236,0.146L3.203,9.862   L3.201,9.89C3.204,9.891,3.208,9.893,3.21,9.893L3.184,10.13l-0.001,0.015l-0.018,0.246c0.016-0.009,0.031-0.018,0.046-0.025   c0.144-0.065,0.267-0.146,0.376-0.241C3.786,9.952,3.935,9.729,4,9.411c-0.001-0.008-0.003-0.013-0.003-0.02   c0.01-0.03,0.029-0.056,0.055-0.072c0.012-0.011,0.024-0.021,0.039-0.028c0.022-0.002,0.044,0.003,0.065,0.012   c0.016,0.003,0.031,0.008,0.045,0.016c0.022,0.013,0.041,0.033,0.051,0.057C4.258,9.387,4.26,9.402,4.259,9.417   C4.264,9.43,4.267,9.444,4.265,9.46c-0.101,0.477-0.357,0.805-0.709,1.028c0.338-0.002,0.617-0.04,0.969,0.008   c0.037,0.003,0.071,0.022,0.095,0.051c0.008,0.004,0.017,0.011,0.023,0.019C4.645,10.571,4.646,10.578,4.646,10.586z M10.164,11.906   l-3.079,0.652l0.832-1.45l-2.719,0.653v1.514c0.188,0.926,0.371,1.852,1.341,2.703V18h5.618v-2.002   c1.487-1.157,1.561-3.086,1.561-3.086l-4.521,0.701L10.164,11.906z M7.029,8.172H6.747V6.153C6.409,5.209,5.885,4.709,5.198,4.744   v5.85l4.853-1.255c0,0-0.889,1.616-0.967,1.771c-0.077,0.156,3.011-0.666,3.011-0.666l-1.011,1.709c0,0,1.259-0.111,2.671-0.347   V3.66c0-0.426-0.331-0.768-0.746-0.768c-0.411,0-0.744,0.342-0.744,0.768v4.512h-0.257V1.787c0-0.426-0.331-0.768-0.744-0.768   S10.52,1.361,10.52,1.787v6.385h-0.234V0.766C10.285,0.339,9.954,0,9.54,0C9.128,0,8.795,0.339,8.795,0.766v7.406H8.519V1.787   c0-0.426-0.33-0.768-0.744-0.768S7.029,1.361,7.029,1.787V8.172z"/>
</svg>