<svg version="1.2" baseProfile="tiny" id="EdgeSVG_nFW7b" x="0px" y="0px" width="152px" height="152px" viewBox="0 0 152 152" xmlns:xlink="http://www.w3.org/1999/xlink" xmlns="http://www.w3.org/2000/svg">
  <linearGradient id="SVGID_2_" gradientUnits="userSpaceOnUse" x1="150.5093" y1="147.1621" x2="1.4907" y2="147.1621">
    <stop offset="0" style="stop-color:#FFFFFF;stop-opacity:0.1"/>
    <stop offset="0.4172" style="stop-color:#000000;stop-opacity:0.15"/>
    <stop offset="0.5951" style="stop-color:#000000;stop-opacity:0.15"/>
    <stop offset="1" style="stop-color:#FFFFFF;stop-opacity:0.1"/>
  </linearGradient>
  <rect x="1.491" y="143.817" fill-rule="evenodd" fill="url(#SVGID_2_)" width="149.019" height="6.69"/>
  <linearGradient id="SVGID_3_" gradientUnits="userSpaceOnUse" x1="150.5093" y1="4.9844" x2="1.4907" y2="4.9844">
    <stop offset="0" style="stop-color:#FFFFFF;stop-opacity:0.1"/>
    <stop offset="0.4172" style="stop-color:#000000;stop-opacity:0.15"/>
    <stop offset="0.5951" style="stop-color:#000000;stop-opacity:0.15"/>
    <stop offset="1" style="stop-color:#FFFFFF;stop-opacity:0.1"/>
  </linearGradient>
  <rect x="1.491" y="1.639" fill-rule="evenodd" fill="url(#SVGID_3_)" width="149.019" height="6.69"/>
  <linearGradient id="SVGID_4_" gradientUnits="userSpaceOnUse" x1="76" y1="143.6255" x2="76" y2="150.3164">
    <stop offset="0.0307" style="stop-color:#FFFFFF;stop-opacity:0.05"/>
    <stop offset="0.2025" style="stop-color:#000000;stop-opacity:0.15"/>
    <stop offset="0.9509" style="stop-color:#000000;stop-opacity:0.15"/>
  </linearGradient>
  <rect x="1.491" y="143.625" fill-rule="evenodd" fill="url(#SVGID_4_)" width="149.019" height="6.691"/>
  <linearGradient id="SVGID_5_" gradientUnits="userSpaceOnUse" x1="76" y1="1.6392" x2="76" y2="8.4185">
    <stop offset="0" style="stop-color:#FFFFFF;stop-opacity:0.1"/>
    <stop offset="0.2577" style="stop-color:#FFFFFF;stop-opacity:0.05"/>
    <stop offset="0.3612" style="stop-color:#FCFCFC;stop-opacity:0.067"/>
    <stop offset="0.441" style="stop-color:#F2F2F2;stop-opacity:0.0802"/>
    <stop offset="0.5129" style="stop-color:#E2E2E2;stop-opacity:0.092"/>
    <stop offset="0.5802" style="stop-color:#CACACA;stop-opacity:0.1031"/>
    <stop offset="0.6442" style="stop-color:#ACACAC;stop-opacity:0.1136"/>
    <stop offset="0.7058" style="stop-color:#888888;stop-opacity:0.1238"/>
    <stop offset="0.7655" style="stop-color:#5C5C5C;stop-opacity:0.1336"/>
    <stop offset="0.8222" style="stop-color:#2B2B2B;stop-opacity:0.1429"/>
    <stop offset="0.865" style="stop-color:#000000;stop-opacity:0.15"/>
  </linearGradient>
  <rect x="1.491" y="1.639" fill-rule="evenodd" fill="url(#SVGID_5_)" width="149.019" height="6.779"/>
  <linearGradient id="SVGID_6_" gradientUnits="userSpaceOnUse" x1="108.8022" y1="76.4951" x2="40.5088" y2="76.4951">
    <stop offset="0" style="stop-color:#000000;stop-opacity:0.05"/>
    <stop offset="0.0688" style="stop-color:#000000;stop-opacity:0.05"/>
    <stop offset="0.5" style="stop-color:#000000;stop-opacity:0.05"/>
    <stop offset="0.9312" style="stop-color:#000000;stop-opacity:0.05"/>
    <stop offset="1" style="stop-color:#000000;stop-opacity:0.05"/>
  </linearGradient>
  <rect x="40.509" y="9.911" fill-rule="evenodd" fill="url(#SVGID_6_)" width="68.293" height="133.169"/>
  <linearGradient id="SVGID_7_" gradientUnits="userSpaceOnUse" x1="37.6069" y1="76.0645" x2="111.7051" y2="76.0645">
    <stop offset="0" style="stop-color:#FFFFFF;stop-opacity:0.1"/>
    <stop offset="0.2883" style="stop-color:#000000;stop-opacity:0.15"/>
    <stop offset="0.6933" style="stop-color:#000000;stop-opacity:0.15"/>
    <stop offset="1" style="stop-color:#FFFFFF;stop-opacity:0.1"/>
  </linearGradient>
  <path fill-rule="evenodd" fill="url(#SVGID_7_)" d="M82.133,8.531v135.067H66.745V8.531H82.133z M54.242,8.531v135.067h11.542&#xD;&#xA;&#x9;&#x9;V8.531H54.242z M44.625,8.531v135.067h8.656V8.531H44.625z M37.607,8.531v135.067h6.056V8.531H37.607z M94.636,143.598V8.531&#xD;&#xA;&#x9;&#x9;H83.095v135.067H94.636z M104.253,143.598V8.531h-8.655v135.067H104.253z M111.705,143.598V8.531h-6.49v135.067H111.705z"/>
  <linearGradient id="SVGID_8_" gradientUnits="userSpaceOnUse" x1="74.6563" y1="143.5981" x2="74.6562" y2="8.5308">
    <stop offset="0.3497" style="stop-color:#FFFFFF;stop-opacity:0"/>
    <stop offset="0.413" style="stop-color:#FAFAFA;stop-opacity:0.0165"/>
    <stop offset="0.4844" style="stop-color:#EDEDED;stop-opacity:0.035"/>
    <stop offset="0.5599" style="stop-color:#D6D6D6;stop-opacity:0.0547"/>
    <stop offset="0.6381" style="stop-color:#B6B6B6;stop-opacity:0.075"/>
    <stop offset="0.7184" style="stop-color:#8E8E8E;stop-opacity:0.0959"/>
    <stop offset="0.8006" style="stop-color:#5C5C5C;stop-opacity:0.1173"/>
    <stop offset="0.8827" style="stop-color:#222222;stop-opacity:0.1386"/>
    <stop offset="0.9264" style="stop-color:#000000;stop-opacity:0.15"/>
  </linearGradient>
  <rect x="37.607" y="8.531" fill-rule="evenodd" fill="url(#SVGID_8_)" width="74.098" height="135.067"/>
  <linearGradient id="SVGID_9_" gradientUnits="userSpaceOnUse" x1="81.9688" y1="75.8633" x2="66.4956" y2="75.8633">
    <stop offset="0.0123" style="stop-color:#000000;stop-opacity:0.15"/>
    <stop offset="0.0164" style="stop-color:#050505;stop-opacity:0.1444"/>
    <stop offset="0.021" style="stop-color:#121212;stop-opacity:0.1382"/>
    <stop offset="0.0257" style="stop-color:#282828;stop-opacity:0.1317"/>
    <stop offset="0.0307" style="stop-color:#474747;stop-opacity:0.125"/>
    <stop offset="0.0357" style="stop-color:#6F6F6F;stop-opacity:0.1182"/>
    <stop offset="0.0408" style="stop-color:#9F9F9F;stop-opacity:0.1112"/>
    <stop offset="0.0459" style="stop-color:#D8D8D8;stop-opacity:0.1043"/>
    <stop offset="0.0491" style="stop-color:#FFFFFF;stop-opacity:0.1"/>
    <stop offset="0.9571" style="stop-color:#FFFFFF;stop-opacity:0.1"/>
    <stop offset="0.9816" style="stop-color:#000000;stop-opacity:0.15"/>
  </linearGradient>
  <rect x="66.496" y="8.329" fill-rule="evenodd" fill="url(#SVGID_9_)" width="15.473" height="135.068"/>
  <linearGradient id="SVGID_10_" gradientUnits="userSpaceOnUse" x1="65.5278" y1="75.8633" x2="53.9229" y2="75.8633">
    <stop offset="0.0123" style="stop-color:#000000;stop-opacity:0.15"/>
    <stop offset="0.0164" style="stop-color:#050505;stop-opacity:0.1444"/>
    <stop offset="0.021" style="stop-color:#121212;stop-opacity:0.1382"/>
    <stop offset="0.0257" style="stop-color:#282828;stop-opacity:0.1317"/>
    <stop offset="0.0307" style="stop-color:#474747;stop-opacity:0.125"/>
    <stop offset="0.0357" style="stop-color:#6F6F6F;stop-opacity:0.1182"/>
    <stop offset="0.0408" style="stop-color:#9F9F9F;stop-opacity:0.1112"/>
    <stop offset="0.0459" style="stop-color:#D8D8D8;stop-opacity:0.1043"/>
    <stop offset="0.0491" style="stop-color:#FFFFFF;stop-opacity:0.1"/>
    <stop offset="0.9571" style="stop-color:#FFFFFF;stop-opacity:0.1"/>
    <stop offset="0.9816" style="stop-color:#000000;stop-opacity:0.15"/>
  </linearGradient>
  <rect x="53.923" y="8.329" fill-rule="evenodd" fill="url(#SVGID_10_)" width="11.605" height="135.068"/>
  <linearGradient id="SVGID_11_" gradientUnits="userSpaceOnUse" x1="52.9561" y1="75.8633" x2="44.2524" y2="75.8633">
    <stop offset="0.0123" style="stop-color:#000000;stop-opacity:0.15"/>
    <stop offset="0.0164" style="stop-color:#050505;stop-opacity:0.1444"/>
    <stop offset="0.021" style="stop-color:#121212;stop-opacity:0.1382"/>
    <stop offset="0.0257" style="stop-color:#282828;stop-opacity:0.1317"/>
    <stop offset="0.0307" style="stop-color:#474747;stop-opacity:0.125"/>
    <stop offset="0.0357" style="stop-color:#6F6F6F;stop-opacity:0.1182"/>
    <stop offset="0.0408" style="stop-color:#9F9F9F;stop-opacity:0.1112"/>
    <stop offset="0.0459" style="stop-color:#D8D8D8;stop-opacity:0.1043"/>
    <stop offset="0.0491" style="stop-color:#FFFFFF;stop-opacity:0.1"/>
    <stop offset="0.9571" style="stop-color:#FFFFFF;stop-opacity:0.1"/>
    <stop offset="0.9816" style="stop-color:#000000;stop-opacity:0.15"/>
  </linearGradient>
  <rect x="44.252" y="8.329" fill-rule="evenodd" fill="url(#SVGID_11_)" width="8.704" height="135.068"/>
  <linearGradient id="SVGID_12_" gradientUnits="userSpaceOnUse" x1="43.2847" y1="75.8633" x2="37.6069" y2="75.8633">
    <stop offset="0.0123" style="stop-color:#000000;stop-opacity:0.15"/>
    <stop offset="0.0164" style="stop-color:#050505;stop-opacity:0.1444"/>
    <stop offset="0.021" style="stop-color:#121212;stop-opacity:0.1382"/>
    <stop offset="0.0257" style="stop-color:#282828;stop-opacity:0.1317"/>
    <stop offset="0.0307" style="stop-color:#474747;stop-opacity:0.125"/>
    <stop offset="0.0357" style="stop-color:#6F6F6F;stop-opacity:0.1182"/>
    <stop offset="0.0408" style="stop-color:#9F9F9F;stop-opacity:0.1112"/>
    <stop offset="0.0459" style="stop-color:#D8D8D8;stop-opacity:0.1043"/>
    <stop offset="0.0491" style="stop-color:#FFFFFF;stop-opacity:0.1"/>
    <stop offset="0.9571" style="stop-color:#FFFFFF;stop-opacity:0.1"/>
    <stop offset="0.9816" style="stop-color:#000000;stop-opacity:0.15"/>
  </linearGradient>
  <rect x="37.607" y="8.329" fill-rule="evenodd" fill="url(#SVGID_12_)" width="5.678" height="135.068"/>
  <linearGradient id="SVGID_13_" gradientUnits="userSpaceOnUse" x1="94.541" y1="75.8633" x2="82.936" y2="75.8633">
    <stop offset="0.0123" style="stop-color:#000000;stop-opacity:0.15"/>
    <stop offset="0.0164" style="stop-color:#050505;stop-opacity:0.1444"/>
    <stop offset="0.021" style="stop-color:#121212;stop-opacity:0.1382"/>
    <stop offset="0.0257" style="stop-color:#282828;stop-opacity:0.1317"/>
    <stop offset="0.0307" style="stop-color:#474747;stop-opacity:0.125"/>
    <stop offset="0.0357" style="stop-color:#6F6F6F;stop-opacity:0.1182"/>
    <stop offset="0.0408" style="stop-color:#9F9F9F;stop-opacity:0.1112"/>
    <stop offset="0.0459" style="stop-color:#D8D8D8;stop-opacity:0.1043"/>
    <stop offset="0.0491" style="stop-color:#FFFFFF;stop-opacity:0.1"/>
    <stop offset="0.9571" style="stop-color:#FFFFFF;stop-opacity:0.1"/>
    <stop offset="0.9816" style="stop-color:#000000;stop-opacity:0.15"/>
  </linearGradient>
  <rect x="82.936" y="8.329" fill-rule="evenodd" fill="url(#SVGID_13_)" width="11.605" height="135.068"/>
  <linearGradient id="SVGID_14_" gradientUnits="userSpaceOnUse" x1="104.2114" y1="75.8633" x2="95.5083" y2="75.8633">
    <stop offset="0.0123" style="stop-color:#000000;stop-opacity:0.15"/>
    <stop offset="0.0164" style="stop-color:#050505;stop-opacity:0.1444"/>
    <stop offset="0.021" style="stop-color:#121212;stop-opacity:0.1382"/>
    <stop offset="0.0257" style="stop-color:#282828;stop-opacity:0.1317"/>
    <stop offset="0.0307" style="stop-color:#474747;stop-opacity:0.125"/>
    <stop offset="0.0357" style="stop-color:#6F6F6F;stop-opacity:0.1182"/>
    <stop offset="0.0408" style="stop-color:#9F9F9F;stop-opacity:0.1112"/>
    <stop offset="0.0459" style="stop-color:#D8D8D8;stop-opacity:0.1043"/>
    <stop offset="0.0491" style="stop-color:#FFFFFF;stop-opacity:0.1"/>
    <stop offset="0.9571" style="stop-color:#FFFFFF;stop-opacity:0.1"/>
    <stop offset="0.9816" style="stop-color:#000000;stop-opacity:0.15"/>
  </linearGradient>
  <rect x="95.508" y="8.329" fill-rule="evenodd" fill="url(#SVGID_14_)" width="8.703" height="135.068"/>
  <linearGradient id="SVGID_15_" gradientUnits="userSpaceOnUse" x1="111.4023" y1="75.8633" x2="105.1792" y2="75.8633">
    <stop offset="0.0123" style="stop-color:#000000;stop-opacity:0.15"/>
    <stop offset="0.0164" style="stop-color:#050505;stop-opacity:0.1444"/>
    <stop offset="0.021" style="stop-color:#121212;stop-opacity:0.1382"/>
    <stop offset="0.0257" style="stop-color:#282828;stop-opacity:0.1317"/>
    <stop offset="0.0307" style="stop-color:#474747;stop-opacity:0.125"/>
    <stop offset="0.0357" style="stop-color:#6F6F6F;stop-opacity:0.1182"/>
    <stop offset="0.0408" style="stop-color:#9F9F9F;stop-opacity:0.1112"/>
    <stop offset="0.0459" style="stop-color:#D8D8D8;stop-opacity:0.1043"/>
    <stop offset="0.0491" style="stop-color:#FFFFFF;stop-opacity:0.1"/>
    <stop offset="0.9571" style="stop-color:#FFFFFF;stop-opacity:0.1"/>
    <stop offset="0.9816" style="stop-color:#000000;stop-opacity:0.15"/>
  </linearGradient>
  <rect x="105.179" y="8.329" fill-rule="evenodd" fill="url(#SVGID_15_)" width="6.223" height="135.068"/>
  <linearGradient id="SVGID_16_" gradientUnits="userSpaceOnUse" x1="43.8066" y1="143.479" x2="43.8066" y2="8.4185">
    <stop offset="0.6258" style="stop-color:#000000;stop-opacity:0.15"/>
    <stop offset="0.9816" style="stop-color:#000000;stop-opacity:0.15"/>
  </linearGradient>
  <rect x="43.323" y="8.418" fill-rule="evenodd" fill="url(#SVGID_16_)" width="0.968" height="135.061"/>
  <linearGradient id="SVGID_17_" gradientUnits="userSpaceOnUse" x1="53.7192" y1="143.397" x2="53.7192" y2="8.5308">
    <stop offset="0.6258" style="stop-color:#000000;stop-opacity:0.15"/>
    <stop offset="0.9816" style="stop-color:#000000;stop-opacity:0.15"/>
  </linearGradient>
  <rect x="53.342" y="8.531" fill-rule="evenodd" fill="url(#SVGID_17_)" width="0.755" height="134.866"/>
  <linearGradient id="SVGID_18_" gradientUnits="userSpaceOnUse" x1="53.7192" y1="143.479" x2="53.7192" y2="8.5308">
    <stop offset="0.6258" style="stop-color:#000000;stop-opacity:0.15"/>
    <stop offset="0.9816" style="stop-color:#000000;stop-opacity:0.15"/>
  </linearGradient>
  <rect x="53.342" y="8.531" fill-rule="evenodd" fill="url(#SVGID_18_)" width="0.755" height="134.948"/>
  <linearGradient id="SVGID_19_" gradientUnits="userSpaceOnUse" x1="66.0684" y1="143.4937" x2="66.0684" y2="8.5308">
    <stop offset="0.6258" style="stop-color:#000000;stop-opacity:0.15"/>
    <stop offset="0.9816" style="stop-color:#000000;stop-opacity:0.15"/>
  </linearGradient>
  <rect x="65.691" y="8.531" fill-rule="evenodd" fill="url(#SVGID_19_)" width="0.754" height="134.963"/>
  <linearGradient id="SVGID_20_" gradientUnits="userSpaceOnUse" x1="66.0684" y1="143.397" x2="66.0684" y2="8.5308">
    <stop offset="0.6258" style="stop-color:#000000;stop-opacity:0.15"/>
    <stop offset="0.9816" style="stop-color:#000000;stop-opacity:0.15"/>
  </linearGradient>
  <rect x="65.691" y="8.531" fill-rule="evenodd" fill="url(#SVGID_20_)" width="0.754" height="134.866"/>
  <linearGradient id="SVGID_21_" gradientUnits="userSpaceOnUse" x1="66.0684" y1="143.479" x2="66.0684" y2="8.5308">
    <stop offset="0.6258" style="stop-color:#000000;stop-opacity:0.15"/>
    <stop offset="0.9816" style="stop-color:#000000;stop-opacity:0.15"/>
  </linearGradient>
  <rect x="65.691" y="8.531" fill-rule="evenodd" fill="url(#SVGID_21_)" width="0.754" height="134.948"/>
  <linearGradient id="SVGID_22_" gradientUnits="userSpaceOnUse" x1="82.5352" y1="143.4937" x2="82.5351" y2="8.5308">
    <stop offset="0.6258" style="stop-color:#000000;stop-opacity:0.15"/>
    <stop offset="0.9816" style="stop-color:#000000;stop-opacity:0.15"/>
  </linearGradient>
  <rect x="82.158" y="8.531" fill-rule="evenodd" fill="url(#SVGID_22_)" width="0.754" height="134.963"/>
  <linearGradient id="SVGID_23_" gradientUnits="userSpaceOnUse" x1="82.5352" y1="143.397" x2="82.5351" y2="8.5308">
    <stop offset="0.6258" style="stop-color:#000000;stop-opacity:0.15"/>
    <stop offset="0.9816" style="stop-color:#000000;stop-opacity:0.15"/>
  </linearGradient>
  <rect x="82.158" y="8.531" fill-rule="evenodd" fill="url(#SVGID_23_)" width="0.754" height="134.866"/>
  <linearGradient id="SVGID_24_" gradientUnits="userSpaceOnUse" x1="82.5352" y1="143.479" x2="82.5351" y2="8.5308">
    <stop offset="0.6258" style="stop-color:#000000;stop-opacity:0.15"/>
    <stop offset="0.9816" style="stop-color:#000000;stop-opacity:0.15"/>
  </linearGradient>
  <rect x="82.158" y="8.531" fill-rule="evenodd" fill="url(#SVGID_24_)" width="0.754" height="134.948"/>
  <linearGradient id="SVGID_25_" gradientUnits="userSpaceOnUse" x1="95.0269" y1="143.4937" x2="95.0268" y2="8.5308">
    <stop offset="0.6258" style="stop-color:#000000;stop-opacity:0.15"/>
    <stop offset="0.9816" style="stop-color:#000000;stop-opacity:0.15"/>
  </linearGradient>
  <rect x="94.52" y="8.531" fill-rule="evenodd" fill="url(#SVGID_25_)" width="1.015" height="134.963"/>
  <linearGradient id="SVGID_26_" gradientUnits="userSpaceOnUse" x1="95.0269" y1="143.397" x2="95.0268" y2="8.5308">
    <stop offset="0.6258" style="stop-color:#000000;stop-opacity:0.15"/>
    <stop offset="0.9816" style="stop-color:#000000;stop-opacity:0.15"/>
  </linearGradient>
  <rect x="94.52" y="8.531" fill-rule="evenodd" fill="url(#SVGID_26_)" width="1.015" height="134.866"/>
  <linearGradient id="SVGID_27_" gradientUnits="userSpaceOnUse" x1="95.0269" y1="143.479" x2="95.0268" y2="8.5308">
    <stop offset="0.6258" style="stop-color:#000000;stop-opacity:0.15"/>
    <stop offset="0.9816" style="stop-color:#000000;stop-opacity:0.15"/>
  </linearGradient>
  <rect x="94.52" y="8.531" fill-rule="evenodd" fill="url(#SVGID_27_)" width="1.015" height="134.948"/>
  <linearGradient id="SVGID_28_" gradientUnits="userSpaceOnUse" x1="104.7642" y1="143.4937" x2="104.7642" y2="8.5308">
    <stop offset="0.6258" style="stop-color:#000000;stop-opacity:0.15"/>
    <stop offset="0.9816" style="stop-color:#000000;stop-opacity:0.15"/>
  </linearGradient>
  <rect x="104.387" y="8.531" fill-rule="evenodd" fill="url(#SVGID_28_)" width="0.755" height="134.963"/>
  <linearGradient id="SVGID_29_" gradientUnits="userSpaceOnUse" x1="104.7642" y1="143.397" x2="104.7642" y2="8.5308">
    <stop offset="0.6258" style="stop-color:#000000;stop-opacity:0.15"/>
    <stop offset="0.9816" style="stop-color:#000000;stop-opacity:0.15"/>
  </linearGradient>
  <rect x="104.387" y="8.531" fill-rule="evenodd" fill="url(#SVGID_29_)" width="0.755" height="134.866"/>
  <linearGradient id="SVGID_30_" gradientUnits="userSpaceOnUse" x1="104.7642" y1="143.479" x2="104.7642" y2="8.5308">
    <stop offset="0.6258" style="stop-color:#000000;stop-opacity:0.15"/>
    <stop offset="0.9816" style="stop-color:#000000;stop-opacity:0.15"/>
  </linearGradient>
  <rect x="104.387" y="8.531" fill-rule="evenodd" fill="url(#SVGID_30_)" width="0.755" height="134.948"/>
  <linearGradient id="SVGID_31_" gradientUnits="userSpaceOnUse" x1="74.5049" y1="121.3032" x2="74.5049" y2="143.5967">
    <stop offset="0" style="stop-color:#000000;stop-opacity:0"/>
    <stop offset="0.8096" style="stop-color:#000000;stop-opacity:0.1725"/>
    <stop offset="0.9387" style="stop-color:#000000;stop-opacity:0.2"/>
  </linearGradient>
  <rect x="37.607" y="121.303" fill-rule="evenodd" fill="url(#SVGID_31_)" width="73.795" height="22.293"/>
  <linearGradient id="SVGID_32_" gradientUnits="userSpaceOnUse" x1="74.6563" y1="31.0967" x2="74.6563" y2="8.3291">
    <stop offset="0" style="stop-color:#000000;stop-opacity:0"/>
    <stop offset="0.8096" style="stop-color:#000000;stop-opacity:0.1725"/>
    <stop offset="0.9387" style="stop-color:#000000;stop-opacity:0.2"/>
  </linearGradient>
  <rect x="37.607" y="8.329" fill-rule="evenodd" fill="url(#SVGID_32_)" width="74.098" height="22.768"/>
  <linearGradient id="SVGID_33_" gradientUnits="userSpaceOnUse" x1="37.6069" y1="8.5303" x2="111.7051" y2="8.5303">
    <stop offset="0" style="stop-color:#000000;stop-opacity:0.5"/>
    <stop offset="0.1122" style="stop-color:#000000;stop-opacity:0.5"/>
    <stop offset="0.816" style="stop-color:#000000;stop-opacity:0.5"/>
  </linearGradient>
  <rect x="37.607" y="8.324" fill="url(#SVGID_33_)" width="74.098" height="0.412"/>
  <linearGradient id="SVGID_34_" gradientUnits="userSpaceOnUse" x1="37.4458" y1="143.2417" x2="111.543" y2="143.2417">
    <stop offset="0" style="stop-color:#000000;stop-opacity:0.5"/>
    <stop offset="0.1122" style="stop-color:#000000;stop-opacity:0.5"/>
    <stop offset="0.816" style="stop-color:#000000;stop-opacity:0.5"/>
  </linearGradient>
  <rect x="37.446" y="143.036" fill="url(#SVGID_34_)" width="74.097" height="0.412"/>
  <g>
    <linearGradient id="SVGID_35_" gradientUnits="userSpaceOnUse" x1="91.1738" y1="44.4136" x2="93.6191" y2="44.4136">
      <stop offset="0" style="stop-color:#000000;stop-opacity:0.15"/>
      <stop offset="0.9877" style="stop-color:#000000;stop-opacity:0.15"/>
    </linearGradient>
    <path fill="url(#SVGID_35_)" d="M93.387,43.805c0.043,12.232-1.145,25.247-0.254,32.773c-0.541-7.446,0.414-12.542,0.485-30.265&#xD;&#xA;&#x9;&#x9;&#x9;c0.072-17.722-2.444-34.063-2.444-34.063S93.344,31.569,93.387,43.805z"/>
    <linearGradient id="SVGID_36_" gradientUnits="userSpaceOnUse" x1="87.5352" y1="37.1631" x2="92.5283" y2="37.1631">
      <stop offset="0" style="stop-color:#000000;stop-opacity:0.15"/>
      <stop offset="0.9877" style="stop-color:#000000;stop-opacity:0.15"/>
    </linearGradient>
    <path fill="url(#SVGID_36_)" d="M90.438,30.027c-0.932-1.113-2.903,6.23-2.903,6.23s2.48-5.967,2.766-5.482&#xD;&#xA;&#x9;&#x9;&#x9;c0.287,0.485,0.795,0.977,2.227,13.639C92.528,44.414,91.37,31.137,90.438,30.027z"/>
    <linearGradient id="SVGID_37_" gradientUnits="userSpaceOnUse" x1="84.8223" y1="37.1284" x2="90.334" y2="37.1284">
      <stop offset="0" style="stop-color:#000000;stop-opacity:0.15"/>
      <stop offset="0.9877" style="stop-color:#000000;stop-opacity:0.15"/>
    </linearGradient>
    <path fill="url(#SVGID_37_)" d="M87.535,23.331c0.127-0.324,0.912,1.704,1.235,1.823c0.323,0.12,0.895-1.336,1.563-7.729&#xD;&#xA;&#x9;&#x9;&#x9;c0,0-1.034,7.717-1.528,7.212c-0.495-0.504-1.001-4.534-1.486-2.182c-0.485,2.353-3.316,12.043-2.266,34.378&#xD;&#xA;&#x9;&#x9;&#x9;C84.545,35.551,87.408,23.654,87.535,23.331z"/>
    <linearGradient id="SVGID_38_" gradientUnits="userSpaceOnUse" x1="89.6978" y1="67.8379" x2="92.3745" y2="67.8379">
      <stop offset="0" style="stop-color:#000000;stop-opacity:0.15"/>
      <stop offset="0.9877" style="stop-color:#000000;stop-opacity:0.15"/>
    </linearGradient>
    <path fill="url(#SVGID_38_)" d="M89.698,37.977c1.431,6.556,3.328,21.463,1.845,59.722C94.182,51.653,89.698,37.977,89.698,37.977&#xD;&#xA;&#x9;&#x9;&#x9;z"/>
    <linearGradient id="SVGID_39_" gradientUnits="userSpaceOnUse" x1="89.2676" y1="114.7686" x2="93.415" y2="114.7686">
      <stop offset="0" style="stop-color:#000000;stop-opacity:0.15"/>
      <stop offset="0.9877" style="stop-color:#000000;stop-opacity:0.15"/>
    </linearGradient>
    <path fill="url(#SVGID_39_)" d="M89.268,136.452c5.358-17.243,3.992-43.367,3.992-43.367S93.864,118.09,89.268,136.452z"/>
    <linearGradient id="SVGID_40_" gradientUnits="userSpaceOnUse" x1="88.8828" y1="80.8062" x2="91.1519" y2="80.8062">
      <stop offset="0" style="stop-color:#000000;stop-opacity:0.15"/>
      <stop offset="0.9877" style="stop-color:#000000;stop-opacity:0.15"/>
    </linearGradient>
    <path fill="url(#SVGID_40_)" d="M89.887,46.066c0.505,11.82,2.56,56.691-1.004,69.479C93.316,103.325,89.887,46.066,89.887,46.066&#xD;&#xA;&#x9;&#x9;&#x9;z"/>
    <linearGradient id="SVGID_41_" gradientUnits="userSpaceOnUse" x1="87.3276" y1="77.8301" x2="89.1621" y2="77.8301">
      <stop offset="0" style="stop-color:#000000;stop-opacity:0.15"/>
      <stop offset="0.9877" style="stop-color:#000000;stop-opacity:0.15"/>
    </linearGradient>
    <path fill="url(#SVGID_41_)" d="M89.162,101.15c-3.252-10.374,0-46.64,0-46.64C87.462,67.292,86.068,93.667,89.162,101.15z"/>
    <linearGradient id="SVGID_42_" gradientUnits="userSpaceOnUse" x1="86.0923" y1="82.9331" x2="87.7759" y2="82.9331">
      <stop offset="0" style="stop-color:#000000;stop-opacity:0.15"/>
      <stop offset="0.9877" style="stop-color:#000000;stop-opacity:0.15"/>
    </linearGradient>
    <path fill="url(#SVGID_42_)" d="M86.403,78.232c0.579-4.973,1.373-34.174,1.373-34.174c-0.62,15.106-1.461,32.888-1.651,34.497&#xD;&#xA;&#x9;&#x9;&#x9;c-0.189,1.608,0.457,29.498,1.651,43.255C87.776,121.809,85.825,83.206,86.403,78.232z"/>
    <linearGradient id="SVGID_43_" gradientUnits="userSpaceOnUse" x1="84.856" y1="108.2837" x2="88.0215" y2="108.2837">
      <stop offset="0" style="stop-color:#000000;stop-opacity:0.15"/>
      <stop offset="0.9877" style="stop-color:#000000;stop-opacity:0.15"/>
    </linearGradient>
    <path fill="url(#SVGID_43_)" d="M84.956,76.578c-0.758,34.623,3.066,63.412,3.066,63.412S84.767,111.993,84.956,76.578z"/>
    <linearGradient id="SVGID_44_" gradientUnits="userSpaceOnUse" x1="85.0254" y1="52.9321" x2="86.8721" y2="52.9321">
      <stop offset="0" style="stop-color:#000000;stop-opacity:0.15"/>
      <stop offset="0.9877" style="stop-color:#000000;stop-opacity:0.15"/>
    </linearGradient>
    <path fill="url(#SVGID_44_)" d="M86.855,34.436c-0.73,19.994-1.83,36.993-1.83,36.993S87.079,46.367,86.855,34.436z"/>
    <linearGradient id="SVGID_45_" gradientUnits="userSpaceOnUse" x1="45.8066" y1="109.3374" x2="47.541" y2="109.3374">
      <stop offset="0" style="stop-color:#000000;stop-opacity:0.15"/>
      <stop offset="0.9877" style="stop-color:#000000;stop-opacity:0.15"/>
    </linearGradient>
    <path fill="url(#SVGID_45_)" d="M46.152,76.665c0.384,7.563-0.293,12.739-0.345,30.743c-0.05,18.002,1.733,34.602,1.733,34.602&#xD;&#xA;&#x9;&#x9;&#x9;s-1.539-19.625-1.568-32.054C45.941,97.529,46.784,84.31,46.152,76.665z"/>
    <linearGradient id="SVGID_46_" gradientUnits="userSpaceOnUse" x1="46.5806" y1="116.7031" x2="50.1226" y2="116.7031">
      <stop offset="0" style="stop-color:#000000;stop-opacity:0.15"/>
      <stop offset="0.9877" style="stop-color:#000000;stop-opacity:0.15"/>
    </linearGradient>
    <path fill="url(#SVGID_46_)" d="M48.16,123.192c-0.203-0.494-0.564-0.993-1.579-13.854c0,0,0.821,13.487,1.483,14.615&#xD;&#xA;&#x9;&#x9;&#x9;c0.66,1.131,2.059-6.33,2.059-6.33S48.362,123.683,48.16,123.192z"/>
    <linearGradient id="SVGID_47_" gradientUnits="userSpaceOnUse" x1="46.6899" y1="85.5425" x2="48.5884" y2="85.5425">
      <stop offset="0" style="stop-color:#000000;stop-opacity:0.15"/>
      <stop offset="0.9877" style="stop-color:#000000;stop-opacity:0.15"/>
    </linearGradient>
    <path fill="url(#SVGID_47_)" d="M48.588,115.875c-1.015-6.658-2.361-21.802-1.308-60.665&#xD;&#xA;&#x9;&#x9;&#x9;C45.408,101.983,48.588,115.875,48.588,115.875z"/>
    <linearGradient id="SVGID_48_" gradientUnits="userSpaceOnUse" x1="45.9517" y1="37.8682" x2="48.8936" y2="37.8682">
      <stop offset="0" style="stop-color:#000000;stop-opacity:0.15"/>
      <stop offset="0.9877" style="stop-color:#000000;stop-opacity:0.15"/>
    </linearGradient>
    <path fill="url(#SVGID_48_)" d="M48.894,15.842c-3.8,17.517-2.832,44.053-2.832,44.053S45.633,34.495,48.894,15.842z"/>
    <linearGradient id="SVGID_49_" gradientUnits="userSpaceOnUse" x1="47.5571" y1="72.3696" x2="49.1665" y2="72.3696">
      <stop offset="0" style="stop-color:#000000;stop-opacity:0.15"/>
      <stop offset="0.9877" style="stop-color:#000000;stop-opacity:0.15"/>
    </linearGradient>
    <path fill="url(#SVGID_49_)" d="M48.454,107.659c-0.359-12.007-1.814-57.588,0.712-70.578&#xD;&#xA;&#x9;&#x9;&#x9;C46.022,49.494,48.454,107.659,48.454,107.659z"/>
    <linearGradient id="SVGID_50_" gradientUnits="userSpaceOnUse" x1="48.9678" y1="75.3911" x2="50.2681" y2="75.3911">
      <stop offset="0" style="stop-color:#000000;stop-opacity:0.15"/>
      <stop offset="0.9877" style="stop-color:#000000;stop-opacity:0.15"/>
    </linearGradient>
    <path fill="url(#SVGID_50_)" d="M48.968,99.08c1.205-12.983,2.193-39.775,0-47.377C51.274,62.241,48.968,99.08,48.968,99.08z"/>
    <linearGradient id="SVGID_51_" gradientUnits="userSpaceOnUse" x1="49.9502" y1="70.2085" x2="51.1436" y2="70.2085">
      <stop offset="0" style="stop-color:#000000;stop-opacity:0.15"/>
      <stop offset="0.9877" style="stop-color:#000000;stop-opacity:0.15"/>
    </linearGradient>
    <path fill="url(#SVGID_51_)" d="M49.95,109.699c0.439-15.346,1.037-33.409,1.17-35.042c0.134-1.634-0.324-29.965-1.17-43.939&#xD;&#xA;&#x9;&#x9;&#x9;c0,0,1.383,39.214,0.973,44.265C50.514,80.035,49.95,109.699,49.95,109.699z"/>
    <linearGradient id="SVGID_52_" gradientUnits="userSpaceOnUse" x1="49.7759" y1="44.4575" x2="52.02" y2="44.4575">
      <stop offset="0" style="stop-color:#000000;stop-opacity:0.15"/>
      <stop offset="0.9877" style="stop-color:#000000;stop-opacity:0.15"/>
    </linearGradient>
    <path fill="url(#SVGID_52_)" d="M51.949,76.665c0.539-35.171-2.173-64.416-2.173-64.416S52.084,40.688,51.949,76.665z"/>
    <linearGradient id="SVGID_53_" gradientUnits="userSpaceOnUse" x1="50.5903" y1="100.6841" x2="51.9009" y2="100.6841">
      <stop offset="0" style="stop-color:#000000;stop-opacity:0.15"/>
      <stop offset="0.9877" style="stop-color:#000000;stop-opacity:0.15"/>
    </linearGradient>
    <path fill="url(#SVGID_53_)" d="M50.603,119.473c0.518-20.31,1.298-37.578,1.298-37.578S50.444,107.352,50.603,119.473z"/>
    <linearGradient id="SVGID_54_" gradientUnits="userSpaceOnUse" x1="61.2163" y1="44.3306" x2="64.5303" y2="44.3306">
      <stop offset="0" style="stop-color:#000000;stop-opacity:0.15"/>
      <stop offset="0.9877" style="stop-color:#000000;stop-opacity:0.15"/>
    </linearGradient>
    <path fill="url(#SVGID_54_)" d="M64.363,46.133c-0.309-17.955-3.146-34.295-3.146-34.295s2.56,19.386,2.863,31.774&#xD;&#xA;&#x9;&#x9;&#x9;c0.306,12.384-0.591,25.662,0.451,33.21C63.688,67.734,64.656,63.273,64.363,46.133z"/>
    <linearGradient id="SVGID_55_" gradientUnits="userSpaceOnUse" x1="60.4434" y1="68.0532" x2="63.0918" y2="68.0532">
      <stop offset="0" style="stop-color:#000000;stop-opacity:0.15"/>
      <stop offset="0.9877" style="stop-color:#000000;stop-opacity:0.15"/>
    </linearGradient>
    <path fill="url(#SVGID_55_)" d="M60.443,37.787c1.416,6.644,3.293,21.755,1.825,60.534C64.88,51.648,60.443,37.787,60.443,37.787z&#xD;&#xA;&#x9;&#x9;&#x9;"/>
    <linearGradient id="SVGID_56_" gradientUnits="userSpaceOnUse" x1="60.0161" y1="115.6235" x2="64.1221" y2="115.6235">
      <stop offset="0" style="stop-color:#000000;stop-opacity:0.15"/>
      <stop offset="0.9877" style="stop-color:#000000;stop-opacity:0.15"/>
    </linearGradient>
    <path fill="url(#SVGID_56_)" d="M60.016,137.602c5.303-17.479,3.952-43.957,3.952-43.957S64.566,118.991,60.016,137.602z"/>
    <linearGradient id="SVGID_57_" gradientUnits="userSpaceOnUse" x1="59.6362" y1="81.1973" x2="61.8818" y2="81.1973">
      <stop offset="0" style="stop-color:#000000;stop-opacity:0.15"/>
      <stop offset="0.9877" style="stop-color:#000000;stop-opacity:0.15"/>
    </linearGradient>
    <path fill="url(#SVGID_57_)" d="M60.63,45.985c0.499,11.98,2.533,57.462-0.994,70.424C64.023,104.024,60.63,45.985,60.63,45.985z"/>
    <linearGradient id="SVGID_58_" gradientUnits="userSpaceOnUse" x1="58.0967" y1="78.1812" x2="59.9116" y2="78.1812">
      <stop offset="0" style="stop-color:#000000;stop-opacity:0.15"/>
      <stop offset="0.9877" style="stop-color:#000000;stop-opacity:0.15"/>
    </linearGradient>
    <path fill="url(#SVGID_58_)" d="M59.912,101.818c-3.218-10.515,0-47.274,0-47.274C58.229,67.501,56.851,94.234,59.912,101.818z"/>
    <linearGradient id="SVGID_59_" gradientUnits="userSpaceOnUse" x1="56.874" y1="83.353" x2="58.541" y2="83.353">
      <stop offset="0" style="stop-color:#000000;stop-opacity:0.15"/>
      <stop offset="0.9877" style="stop-color:#000000;stop-opacity:0.15"/>
    </linearGradient>
    <path fill="url(#SVGID_59_)" d="M58.541,122.758c0,0-1.932-39.128-1.359-44.169c0.573-5.041,1.359-34.641,1.359-34.641&#xD;&#xA;&#x9;&#x9;&#x9;c-0.615,15.314-1.447,33.336-1.635,34.967C56.719,80.545,57.359,108.816,58.541,122.758z"/>
    <linearGradient id="SVGID_60_" gradientUnits="userSpaceOnUse" x1="55.6509" y1="109.0488" x2="58.7847" y2="109.0488">
      <stop offset="0" style="stop-color:#000000;stop-opacity:0.15"/>
      <stop offset="0.9877" style="stop-color:#000000;stop-opacity:0.15"/>
    </linearGradient>
    <path fill="url(#SVGID_60_)" d="M55.75,76.912c-0.751,35.094,3.035,64.274,3.035,64.274S55.563,112.811,55.75,76.912z"/>
    <linearGradient id="SVGID_61_" gradientUnits="userSpaceOnUse" x1="55.8179" y1="43.7715" x2="57.6455" y2="43.7715">
      <stop offset="0" style="stop-color:#000000;stop-opacity:0.15"/>
      <stop offset="0.9877" style="stop-color:#000000;stop-opacity:0.15"/>
    </linearGradient>
    <path fill="url(#SVGID_61_)" d="M57.629,15.85c-0.723,30.181-1.811,55.843-1.811,55.843S57.849,33.861,57.629,15.85z"/>
    <linearGradient id="SVGID_62_" gradientUnits="userSpaceOnUse" x1="100.8433" y1="44.3306" x2="103.2813" y2="44.3306">
      <stop offset="0" style="stop-color:#000000;stop-opacity:0.15"/>
      <stop offset="0.9877" style="stop-color:#000000;stop-opacity:0.15"/>
    </linearGradient>
    <path fill="url(#SVGID_62_)" d="M103.158,46.133c-0.227-17.955-2.314-34.295-2.314-34.295s1.883,19.386,2.106,31.774&#xD;&#xA;&#x9;&#x9;&#x9;c0.225,12.384-0.436,25.662,0.332,33.21C102.662,67.734,103.374,63.273,103.158,46.133z"/>
    <linearGradient id="SVGID_63_" gradientUnits="userSpaceOnUse" x1="100.2749" y1="68.0532" x2="102.2231" y2="68.0532">
      <stop offset="0" style="stop-color:#000000;stop-opacity:0.15"/>
      <stop offset="0.9877" style="stop-color:#000000;stop-opacity:0.15"/>
    </linearGradient>
    <path fill="url(#SVGID_63_)" d="M100.275,37.787c1.041,6.644,2.422,21.755,1.342,60.534&#xD;&#xA;&#x9;&#x9;&#x9;C103.539,51.648,100.275,37.787,100.275,37.787z"/>
    <linearGradient id="SVGID_64_" gradientUnits="userSpaceOnUse" x1="99.9604" y1="115.6235" x2="102.981" y2="115.6235">
      <stop offset="0" style="stop-color:#000000;stop-opacity:0.15"/>
      <stop offset="0.9877" style="stop-color:#000000;stop-opacity:0.15"/>
    </linearGradient>
    <path fill="url(#SVGID_64_)" d="M99.96,137.602c3.901-17.479,2.907-43.957,2.907-43.957S103.307,118.991,99.96,137.602z"/>
    <linearGradient id="SVGID_65_" gradientUnits="userSpaceOnUse" x1="99.6802" y1="81.1973" x2="101.3325" y2="81.1973">
      <stop offset="0" style="stop-color:#000000;stop-opacity:0.15"/>
      <stop offset="0.9877" style="stop-color:#000000;stop-opacity:0.15"/>
    </linearGradient>
    <path fill="url(#SVGID_65_)" d="M100.412,45.985c0.367,11.98,1.863,57.462-0.732,70.424&#xD;&#xA;&#x9;&#x9;&#x9;C102.908,104.024,100.412,45.985,100.412,45.985z"/>
    <linearGradient id="SVGID_66_" gradientUnits="userSpaceOnUse" x1="98.5483" y1="78.1812" x2="99.8838" y2="78.1812">
      <stop offset="0" style="stop-color:#000000;stop-opacity:0.15"/>
      <stop offset="0.9877" style="stop-color:#000000;stop-opacity:0.15"/>
    </linearGradient>
    <path fill="url(#SVGID_66_)" d="M99.884,101.818c-2.367-10.515,0-47.274,0-47.274C98.646,67.501,97.632,94.234,99.884,101.818z"/>
    <linearGradient id="SVGID_67_" gradientUnits="userSpaceOnUse" x1="97.6494" y1="83.353" x2="98.8755" y2="83.353">
      <stop offset="0" style="stop-color:#000000;stop-opacity:0.15"/>
      <stop offset="0.9877" style="stop-color:#000000;stop-opacity:0.15"/>
    </linearGradient>
    <path fill="url(#SVGID_67_)" d="M98.875,122.758c0,0-1.42-39.128-1-44.169c0.422-5.041,1-34.641,1-34.641&#xD;&#xA;&#x9;&#x9;&#x9;c-0.452,15.314-1.065,33.336-1.203,34.967C97.536,80.545,98.006,108.816,98.875,122.758z"/>
    <linearGradient id="SVGID_68_" gradientUnits="userSpaceOnUse" x1="96.7495" y1="109.0488" x2="99.0537" y2="109.0488">
      <stop offset="0" style="stop-color:#000000;stop-opacity:0.15"/>
      <stop offset="0.9877" style="stop-color:#000000;stop-opacity:0.15"/>
    </linearGradient>
    <path fill="url(#SVGID_68_)" d="M96.822,76.912c-0.552,35.094,2.232,64.274,2.232,64.274S96.684,112.811,96.822,76.912z"/>
    <linearGradient id="SVGID_69_" gradientUnits="userSpaceOnUse" x1="96.8726" y1="43.7715" x2="98.2168" y2="43.7715">
      <stop offset="0" style="stop-color:#000000;stop-opacity:0.15"/>
      <stop offset="0.9877" style="stop-color:#000000;stop-opacity:0.15"/>
    </linearGradient>
    <path fill="url(#SVGID_69_)" d="M98.205,15.85c-0.532,30.181-1.332,55.843-1.332,55.843S98.367,33.861,98.205,15.85z"/>
    <linearGradient id="SVGID_70_" gradientUnits="userSpaceOnUse" x1="68.8413" y1="108.7896" x2="72.2754" y2="108.7896">
      <stop offset="0" style="stop-color:#000000;stop-opacity:0.15"/>
      <stop offset="0.9877" style="stop-color:#000000;stop-opacity:0.15"/>
    </linearGradient>
    <path fill="url(#SVGID_70_)" d="M69.523,75.58c0.761,7.689-0.58,12.951-0.68,31.249c-0.104,18.298,3.432,35.171,3.432,35.171&#xD;&#xA;&#x9;&#x9;&#x9;s-3.048-19.948-3.109-32.582C69.107,96.787,70.774,83.351,69.523,75.58z"/>
    <linearGradient id="SVGID_71_" gradientUnits="userSpaceOnUse" x1="72.0664" y1="122.4478" x2="78.9248" y2="122.4478">
      <stop offset="0" style="stop-color:#000000;stop-opacity:0.15"/>
      <stop offset="0.9877" style="stop-color:#000000;stop-opacity:0.15"/>
    </linearGradient>
    <path fill="url(#SVGID_71_)" d="M76.741,128.493c-0.395-0.388-1.04-0.702-4.674-12.947c0,0,3.431,12.961,4.645,13.75&#xD;&#xA;&#x9;&#x9;&#x9;c1.213,0.79,2.214-7.303,2.214-7.303S77.137,128.879,76.741,128.493z"/>
    <linearGradient id="SVGID_72_" gradientUnits="userSpaceOnUse" x1="70.5898" y1="84.6035" x2="74.3506" y2="84.6035">
      <stop offset="0" style="stop-color:#000000;stop-opacity:0.15"/>
      <stop offset="0.9877" style="stop-color:#000000;stop-opacity:0.15"/>
    </linearGradient>
    <path fill="url(#SVGID_72_)" d="M74.351,115.435c-2.01-6.768-4.676-22.161-2.592-61.662&#xD;&#xA;&#x9;&#x9;&#x9;C68.051,101.314,74.351,115.435,74.351,115.435z"/>
    <linearGradient id="SVGID_73_" gradientUnits="userSpaceOnUse" x1="69.1274" y1="36.147" x2="74.9551" y2="36.147">
      <stop offset="0" style="stop-color:#000000;stop-opacity:0.15"/>
      <stop offset="0.9877" style="stop-color:#000000;stop-opacity:0.15"/>
    </linearGradient>
    <path fill="url(#SVGID_73_)" d="M74.955,13.759c-7.528,17.803-5.608,44.776-5.608,44.776S68.496,32.717,74.955,13.759z"/>
    <linearGradient id="SVGID_74_" gradientUnits="userSpaceOnUse" x1="72.3071" y1="71.2144" x2="75.4951" y2="71.2144">
      <stop offset="0" style="stop-color:#000000;stop-opacity:0.15"/>
      <stop offset="0.9877" style="stop-color:#000000;stop-opacity:0.15"/>
    </linearGradient>
    <path fill="url(#SVGID_74_)" d="M74.085,107.083c-0.71-12.206-3.597-58.535,1.41-71.738&#xD;&#xA;&#x9;&#x9;&#x9;C69.266,47.962,74.085,107.083,74.085,107.083z"/>
    <linearGradient id="SVGID_75_" gradientUnits="userSpaceOnUse" x1="75.103" y1="74.2866" x2="77.6797" y2="74.2866">
      <stop offset="0" style="stop-color:#000000;stop-opacity:0.15"/>
      <stop offset="0.9877" style="stop-color:#000000;stop-opacity:0.15"/>
    </linearGradient>
    <path fill="url(#SVGID_75_)" d="M75.103,98.364c2.388-13.197,4.346-40.43,0-48.155C79.673,60.92,75.103,98.364,75.103,98.364z"/>
    <linearGradient id="SVGID_76_" gradientUnits="userSpaceOnUse" x1="77.0508" y1="69.0181" x2="79.415" y2="69.0181">
      <stop offset="0" style="stop-color:#000000;stop-opacity:0.15"/>
      <stop offset="0.9877" style="stop-color:#000000;stop-opacity:0.15"/>
    </linearGradient>
    <path fill="url(#SVGID_76_)" d="M77.051,109.158c0.871-15.599,2.052-33.957,2.318-35.619c0.267-1.661-0.642-30.458-2.318-44.66&#xD;&#xA;&#x9;&#x9;&#x9;c0,0,2.741,39.858,1.928,44.992S77.051,109.158,77.051,109.158z"/>
    <linearGradient id="SVGID_77_" gradientUnits="userSpaceOnUse" x1="76.7051" y1="42.8433" x2="81.1523" y2="42.8433">
      <stop offset="0" style="stop-color:#000000;stop-opacity:0.15"/>
      <stop offset="0.9877" style="stop-color:#000000;stop-opacity:0.15"/>
    </linearGradient>
    <path fill="url(#SVGID_77_)" d="M81.012,75.58c1.066-35.748-4.307-65.473-4.307-65.473S81.279,39.013,81.012,75.58z"/>
    <linearGradient id="SVGID_78_" gradientUnits="userSpaceOnUse" x1="78.3208" y1="99.9937" x2="80.9146" y2="99.9937">
      <stop offset="0" style="stop-color:#000000;stop-opacity:0.15"/>
      <stop offset="0.9877" style="stop-color:#000000;stop-opacity:0.15"/>
    </linearGradient>
    <path fill="url(#SVGID_78_)" d="M78.345,119.092c1.024-20.644,2.57-38.197,2.57-38.197S78.03,106.772,78.345,119.092z"/>
    <linearGradient id="SVGID_79_" gradientUnits="userSpaceOnUse" x1="37.8726" y1="108.6968" x2="39.2729" y2="108.6968">
      <stop offset="0" style="stop-color:#000000;stop-opacity:0.15"/>
      <stop offset="0.9877" style="stop-color:#000000;stop-opacity:0.15"/>
    </linearGradient>
    <path fill="url(#SVGID_79_)" d="M38.151,75.487c0.311,7.688-0.237,12.951-0.278,31.248c-0.042,18.299,1.399,35.171,1.399,35.171&#xD;&#xA;&#x9;&#x9;&#x9;s-1.243-19.948-1.268-32.581C37.981,96.695,38.66,83.258,38.151,75.487z"/>
    <linearGradient id="SVGID_80_" gradientUnits="userSpaceOnUse" x1="39.0269" y1="125.4019" x2="41.8223" y2="125.4019">
      <stop offset="0" style="stop-color:#000000;stop-opacity:0.15"/>
      <stop offset="0.9877" style="stop-color:#000000;stop-opacity:0.15"/>
    </linearGradient>
    <path fill="url(#SVGID_80_)" d="M40.933,131.446c-0.163-0.388-0.424-0.702-1.906-12.947c0,0,1.399,12.962,1.893,13.751&#xD;&#xA;&#x9;&#x9;&#x9;c0.494,0.79,0.902-7.303,0.902-7.303S41.094,131.834,40.933,131.446z"/>
    <linearGradient id="SVGID_81_" gradientUnits="userSpaceOnUse" x1="38.5859" y1="84.5107" x2="40.1182" y2="84.5107">
      <stop offset="0" style="stop-color:#000000;stop-opacity:0.15"/>
      <stop offset="0.9877" style="stop-color:#000000;stop-opacity:0.15"/>
    </linearGradient>
    <path fill="url(#SVGID_81_)" d="M40.118,115.342c-0.819-6.768-1.906-22.161-1.056-61.662&#xD;&#xA;&#x9;&#x9;&#x9;C37.551,101.222,40.118,115.342,40.118,115.342z"/>
    <linearGradient id="SVGID_82_" gradientUnits="userSpaceOnUse" x1="37.9893" y1="36.0542" x2="40.3652" y2="36.0542">
      <stop offset="0" style="stop-color:#000000;stop-opacity:0.15"/>
      <stop offset="0.9877" style="stop-color:#000000;stop-opacity:0.15"/>
    </linearGradient>
    <path fill="url(#SVGID_82_)" d="M40.365,13.666c-3.069,17.804-2.287,44.777-2.287,44.777S37.732,32.625,40.365,13.666z"/>
    <linearGradient id="SVGID_83_" gradientUnits="userSpaceOnUse" x1="39.2861" y1="71.1221" x2="40.585" y2="71.1221">
      <stop offset="0" style="stop-color:#000000;stop-opacity:0.15"/>
      <stop offset="0.9877" style="stop-color:#000000;stop-opacity:0.15"/>
    </linearGradient>
    <path fill="url(#SVGID_83_)" d="M40.01,106.991c-0.29-12.206-1.465-58.535,0.575-71.737C38.047,47.87,40.01,106.991,40.01,106.991&#xD;&#xA;&#x9;&#x9;&#x9;z"/>
    <linearGradient id="SVGID_84_" gradientUnits="userSpaceOnUse" x1="40.4253" y1="74.1938" x2="41.4746" y2="74.1938">
      <stop offset="0" style="stop-color:#000000;stop-opacity:0.15"/>
      <stop offset="0.9877" style="stop-color:#000000;stop-opacity:0.15"/>
    </linearGradient>
    <path fill="url(#SVGID_84_)" d="M40.425,98.272c0.973-13.198,1.77-40.43,0-48.156C42.287,60.827,40.425,98.272,40.425,98.272z"/>
    <linearGradient id="SVGID_85_" gradientUnits="userSpaceOnUse" x1="41.2188" y1="68.9253" x2="42.1831" y2="68.9253">
      <stop offset="0" style="stop-color:#000000;stop-opacity:0.15"/>
      <stop offset="0.9877" style="stop-color:#000000;stop-opacity:0.15"/>
    </linearGradient>
    <path fill="url(#SVGID_85_)" d="M41.219,109.064c0.354-15.598,0.836-33.956,0.945-35.618c0.109-1.661-0.261-30.457-0.945-44.661&#xD;&#xA;&#x9;&#x9;&#x9;c0,0,1.116,39.858,0.786,44.993C41.673,78.913,41.219,109.064,41.219,109.064z"/>
    <linearGradient id="SVGID_86_" gradientUnits="userSpaceOnUse" x1="41.0776" y1="42.751" x2="42.8901" y2="42.751">
      <stop offset="0" style="stop-color:#000000;stop-opacity:0.15"/>
      <stop offset="0.9877" style="stop-color:#000000;stop-opacity:0.15"/>
    </linearGradient>
    <path fill="url(#SVGID_86_)" d="M42.833,75.487c0.435-35.748-1.755-65.473-1.755-65.473S42.941,38.92,42.833,75.487z"/>
    <linearGradient id="SVGID_87_" gradientUnits="userSpaceOnUse" x1="41.7373" y1="99.9014" x2="42.7935" y2="99.9014">
      <stop offset="0" style="stop-color:#000000;stop-opacity:0.15"/>
      <stop offset="0.9877" style="stop-color:#000000;stop-opacity:0.15"/>
    </linearGradient>
    <path fill="url(#SVGID_87_)" d="M41.747,119c0.417-20.644,1.046-38.196,1.046-38.196S41.618,106.68,41.747,119z"/>
    <linearGradient id="SVGID_88_" gradientUnits="userSpaceOnUse" x1="106.3027" y1="108.7896" x2="107.5498" y2="108.7896">
      <stop offset="0" style="stop-color:#000000;stop-opacity:0.15"/>
      <stop offset="0.9877" style="stop-color:#000000;stop-opacity:0.15"/>
    </linearGradient>
    <path fill="url(#SVGID_88_)" d="M106.551,75.58c0.276,7.689-0.21,12.951-0.248,31.249c-0.037,18.298,1.246,35.171,1.246,35.171&#xD;&#xA;&#x9;&#x9;&#x9;s-1.106-19.948-1.128-32.582C106.4,96.787,107.006,83.351,106.551,75.58z"/>
    <linearGradient id="SVGID_89_" gradientUnits="userSpaceOnUse" x1="106.938" y1="84.6035" x2="108.3032" y2="84.6035">
      <stop offset="0" style="stop-color:#000000;stop-opacity:0.15"/>
      <stop offset="0.9877" style="stop-color:#000000;stop-opacity:0.15"/>
    </linearGradient>
    <path fill="url(#SVGID_89_)" d="M107.363,53.772c-1.347,47.542,0.94,61.662,0.94,61.662&#xD;&#xA;&#x9;&#x9;&#x9;C107.574,108.667,106.606,93.274,107.363,53.772z"/>
    <linearGradient id="SVGID_90_" gradientUnits="userSpaceOnUse" x1="106.4072" y1="36.147" x2="108.5229" y2="36.147">
      <stop offset="0" style="stop-color:#000000;stop-opacity:0.15"/>
      <stop offset="0.9877" style="stop-color:#000000;stop-opacity:0.15"/>
    </linearGradient>
    <path fill="url(#SVGID_90_)" d="M108.523,13.759c-2.732,17.803-2.036,44.776-2.036,44.776S106.179,32.717,108.523,13.759z"/>
    <linearGradient id="SVGID_91_" gradientUnits="userSpaceOnUse" x1="107.562" y1="71.2144" x2="108.7188" y2="71.2144">
      <stop offset="0" style="stop-color:#000000;stop-opacity:0.15"/>
      <stop offset="0.9877" style="stop-color:#000000;stop-opacity:0.15"/>
    </linearGradient>
    <path fill="url(#SVGID_91_)" d="M108.207,107.083c-0.258-12.206-1.305-58.535,0.512-71.738&#xD;&#xA;&#x9;&#x9;&#x9;C106.458,47.962,108.207,107.083,108.207,107.083z"/>
    <linearGradient id="SVGID_92_" gradientUnits="userSpaceOnUse" x1="108.5767" y1="74.2866" x2="109.5117" y2="74.2866">
      <stop offset="0" style="stop-color:#000000;stop-opacity:0.15"/>
      <stop offset="0.9877" style="stop-color:#000000;stop-opacity:0.15"/>
    </linearGradient>
    <path fill="url(#SVGID_92_)" d="M108.577,50.209c1.659,10.711,0,48.155,0,48.155C109.444,85.167,110.154,57.934,108.577,50.209z"/>
    <linearGradient id="SVGID_93_" gradientUnits="userSpaceOnUse" x1="109.2827" y1="69.0181" x2="110.1421" y2="69.0181">
      <stop offset="0" style="stop-color:#000000;stop-opacity:0.15"/>
      <stop offset="0.9877" style="stop-color:#000000;stop-opacity:0.15"/>
    </linearGradient>
    <path fill="url(#SVGID_93_)" d="M109.283,28.879c0,0,0.996,39.858,0.7,44.992s-0.7,35.287-0.7,35.287&#xD;&#xA;&#x9;&#x9;&#x9;c0.316-15.599,0.746-33.957,0.843-35.619C110.221,71.878,109.892,43.082,109.283,28.879z"/>
    <linearGradient id="SVGID_94_" gradientUnits="userSpaceOnUse" x1="109.1582" y1="42.8433" x2="110.772" y2="42.8433">
      <stop offset="0" style="stop-color:#000000;stop-opacity:0.15"/>
      <stop offset="0.9877" style="stop-color:#000000;stop-opacity:0.15"/>
    </linearGradient>
    <path fill="url(#SVGID_94_)" d="M109.158,10.107c0,0,1.66,28.906,1.563,65.473C111.108,39.832,109.158,10.107,109.158,10.107z"/>
    <linearGradient id="SVGID_95_" gradientUnits="userSpaceOnUse" x1="109.7441" y1="99.9937" x2="110.686" y2="99.9937">
      <stop offset="0" style="stop-color:#000000;stop-opacity:0.15"/>
      <stop offset="0.9877" style="stop-color:#000000;stop-opacity:0.15"/>
    </linearGradient>
    <path fill="url(#SVGID_95_)" d="M109.753,119.092c0.373-20.644,0.933-38.197,0.933-38.197S109.639,106.772,109.753,119.092z"/>
  </g>
</svg>