<svg version="1.2" baseProfile="tiny" id="EdgeSVG_lZnSN" x="0px" y="0px" width="213.158px" height="213.37px" viewBox="0 0 213.158 213.37" xmlns:xlink="http://www.w3.org/1999/xlink" xmlns="http://www.w3.org/2000/svg">
  <linearGradient id="SVGID_2_" gradientUnits="userSpaceOnUse" x1="9.6885" y1="111.5298" x2="213.1572" y2="111.5298">
    <stop offset="0" style="stop-color:#000000;stop-opacity:0.5"/>
    <stop offset="1" style="stop-color:#000000;stop-opacity:0.5"/>
  </linearGradient>
  <path fill="url(#SVGID_2_)" d="M69.239,69.392L69.239,69.392c-0.008,0.007-0.016,0.015-0.023,0.022&#xD;&#xA;&#x9;&#x9;c-0.007,0.007-0.014,0.015-0.021,0.022l0,0C32.382,106.27,9.688,157.18,9.688,213.37h0.848c0.057-13.467,1.421-27.776,4.098-40.852&#xD;&#xA;&#x9;&#x9;c2.664-13.016,6.636-25.817,11.809-38.05c5.082-12.01,11.371-23.595,18.691-34.432c7.243-10.724,15.515-20.852,24.68-30.019&#xD;&#xA;&#x9;&#x9;c9.56-9.48,20.674-18.667,31.81-26.018c11.086-7.319,22.948-13.564,35.254-18.556c12.088-4.899,24.726-8.643,37.565-11.13&#xD;&#xA;&#x9;&#x9;c12.716-2.463,25.739-3.776,38.715-3.776V9.689C161.079,9.688,108.981,29.672,69.239,69.392z"/>
  <linearGradient id="SVGID_3_" gradientUnits="userSpaceOnUse" x1="89.4648" y1="151.4126" x2="213.1582" y2="151.4126">
    <stop offset="0" style="stop-color:#000000;stop-opacity:0.5"/>
    <stop offset="1" style="stop-color:#000000;stop-opacity:0.5"/>
  </linearGradient>
  <path fill="url(#SVGID_3_)" d="M213.157,89.465c-0.183,0-0.538-0.012-0.719-0.009c-15.944,0.09-31.281,3.199-45.926,9.099&#xD;&#xA;&#x9;&#x9;c-14.863,5.986-28.101,14.642-39.344,25.727c-0.113,0.113-1.152,1.152-1.538,1.538c-0.132,0.131-0.374,0.359-0.496,0.483&#xD;&#xA;&#x9;&#x9;c-11.21,11.337-19.856,24.382-26.04,38.908c-6.277,14.743-9.516,30.224-9.629,46.012c0,0.163-0.001,1.619-0.001,2.148h0.845&#xD;&#xA;&#x9;&#x9;c0-0.279,0.013-1.862,0.016-2.141c0.111-15.678,3.324-31.04,9.559-45.682c6.142-14.427,14.854-27.502,25.987-38.764&#xD;&#xA;&#x9;&#x9;c0.128-0.128,0.25-0.255,0.378-0.384l-0.002-0.002c0.198-0.198,1.326-1.308,1.524-1.503c11.164-11.006,24.3-19.598,39.062-25.543&#xD;&#xA;&#x9;&#x9;c14.544-5.858,29.95-8.944,45.786-9.035c0.182,0,0.356-0.002,0.539-0.004L213.157,89.465z"/>
  <linearGradient id="SVGID_4_" gradientUnits="userSpaceOnUse" x1="1.0088" y1="107.189" x2="213.1572" y2="107.189">
    <stop offset="0" style="stop-color:#FFFFFF;stop-opacity:0.3"/>
    <stop offset="1" style="stop-color:#FFFFFF;stop-opacity:0.3"/>
  </linearGradient>
  <path fill-rule="evenodd" fill="url(#SVGID_4_)" d="M63.102,63.253L63.102,63.253c-0.006,0.005-0.011,0.011-0.017,0.017&#xD;&#xA;&#x9;&#x9;c-0.004,0.004-0.009,0.008-0.013,0.013l0,0C24.636,101.69,1.009,154.738,1.009,213.37h1.876v-1.854&#xD;&#xA;&#x9;&#x9;c0.237-27.745,5.78-54.657,16.508-80.026c10.596-25.048,25.717-47.59,45.036-66.909l-0.036-0.036l0.035,0.034l1.312-1.312&#xD;&#xA;&#x9;&#x9;c19.786-19.45,42.735-34.56,68.259-44.914c25.204-10.219,51.836-15.466,79.159-15.466V1.008&#xD;&#xA;&#x9;&#x9;C158.818,0.977,104.567,21.803,63.102,63.253z"/>
  <linearGradient id="SVGID_5_" gradientUnits="userSpaceOnUse" x1="2.8848" y1="108.1279" x2="213.1572" y2="108.1279">
    <stop offset="0" style="stop-color:#000000;stop-opacity:0.08"/>
    <stop offset="0.9632" style="stop-color:#000000;stop-opacity:0.08"/>
  </linearGradient>
  <path fill-rule="evenodd" fill="url(#SVGID_5_)" d="M133.998,18.352c-25.523,10.354-48.473,25.464-68.259,44.914l-1.311,1.314l0,0&#xD;&#xA;&#x9;&#x9;c-0.004,0.004-0.008,0.008-0.012,0.012l-0.029,0.029l0,0C45.19,83.885,29.941,106.552,19.393,131.49&#xD;&#xA;&#x9;&#x9;C8.665,156.858,3.122,183.771,2.885,211.516v1.854h4.943l-0.019-1.854c0.497-55.788,23.448-106.667,60.114-143.44l-0.001,0&#xD;&#xA;&#x9;&#x9;l1.298-1.326c39.801-39.096,92.007-58.845,143.937-58.92V2.886C185.941,2.925,159.11,8.171,133.998,18.352z"/>
  <linearGradient id="SVGID_6_" gradientUnits="userSpaceOnUse" x1="92.1729" y1="152.771" x2="213.1572" y2="152.771">
    <stop offset="0" style="stop-color:#000000;stop-opacity:0.08"/>
    <stop offset="0.9632" style="stop-color:#000000;stop-opacity:0.08"/>
  </linearGradient>
  <path fill-rule="evenodd" fill="url(#SVGID_6_)" d="M212.416,92.177c-15.602,0.088-30.563,3.124-44.891,8.894&#xD;&#xA;&#x9;&#x9;c-14.527,5.852-27.465,14.313-38.453,25.146c-0.035,0.037-1.324,1.314-1.508,1.498v0.002c-0.11,0.112-0.41,0.413-0.521,0.526&#xD;&#xA;&#x9;&#x9;c-10.97,11.094-19.402,23.82-25.453,38.031c-6.136,14.411-9.301,29.541-9.41,44.971c0,0.051-0.008,1.865-0.008,2.125l4.941,0&#xD;&#xA;&#x9;&#x9;c0-0.373,0.051-2.282,0.051-2.38c0.297-30.46,13.196-59.056,33.888-79.774c0.286-0.284,1.656-1.587,1.726-1.654&#xD;&#xA;&#x9;&#x9;c21.75-21.331,51.095-32.43,80.379-32.448v-4.941C212.998,92.175,212.575,92.176,212.416,92.177z"/>
  <linearGradient id="SVGID_7_" gradientUnits="userSpaceOnUse" x1="90.3096" y1="151.8408" x2="213.1582" y2="151.8408">
    <stop offset="0" style="stop-color:#FFFFFF;stop-opacity:0.3"/>
    <stop offset="1" style="stop-color:#FFFFFF;stop-opacity:0.3"/>
  </linearGradient>
  <path fill-rule="evenodd" fill="url(#SVGID_7_)" d="M212.619,90.315c-15.836,0.091-31.242,3.177-45.786,9.035&#xD;&#xA;&#x9;&#x9;c-14.762,5.945-27.897,14.537-39.062,25.543c-0.187,0.183-1.229,1.214-1.522,1.506v0c-0.158,0.159-0.22,0.225-0.378,0.384&#xD;&#xA;&#x9;&#x9;c-11.134,11.262-19.846,24.337-25.987,38.764c-6.234,14.642-9.447,30.004-9.559,45.682c-0.003,0.279-0.016,1.862-0.016,2.141h1.863&#xD;&#xA;&#x9;&#x9;c0-0.261,0.008-2.074,0.008-2.125c0.109-15.431,3.274-30.561,9.41-44.971c6.051-14.211,14.356-26.81,25.326-37.903&#xD;&#xA;&#x9;&#x9;c0.139-0.143,0.434-0.44,0.602-0.608c0.185-0.184,1.519-1.509,1.554-1.546c10.988-10.833,23.926-19.294,38.453-25.146&#xD;&#xA;&#x9;&#x9;c14.328-5.77,29.109-8.805,44.711-8.892c0.218-0.003,0.703-0.006,0.921-0.006l0.001-1.861&#xD;&#xA;&#x9;&#x9;C212.935,90.313,212.843,90.315,212.619,90.315z"/>
</svg>