<svg version="1.2" baseProfile="tiny" id="EdgeSVG_wK14n" x="0px" y="0px" width="100.04px" height="37.209px" viewBox="0 0 100.04 37.209" xmlns:xlink="http://www.w3.org/1999/xlink" xmlns="http://www.w3.org/2000/svg">
  <linearGradient id="SVGID_1_" gradientUnits="userSpaceOnUse" x1="100.04" y1="18.6045" x2="0" y2="18.6045">
    <stop offset="0" style="stop-color:#000000;stop-opacity:0.5"/>
    <stop offset="1" style="stop-color:#000000;stop-opacity:0.5"/>
  </linearGradient>
  <path fill="url(#SVGID_1_)" d="M92.165,37.209c-2.021,0-2.754-1.739-2.754-2.908v-8.543H10.686v8.543&#xD;&#xA;&#x9;&#x9;c0,1.169-0.732,2.908-2.752,2.908H1.077c-0.219,0-0.423-0.065-0.593-0.178H0.077l-0.003-0.505C0.026,36.404,0,36.272,0,36.134&#xD;&#xA;&#x9;&#x9;c0-0.136,0.025-0.266,0.071-0.386v-24.32h1.896c0.174-0.199,0.399-0.349,0.655-0.433V9.96h0.188V4.586H2.646v-4.26l1-0.032h0.922&#xD;&#xA;&#x9;&#x9;C4.813,0.109,5.118,0,5.448,0h1.67c0.807,0,1.463,0.656,1.463,1.462v1.955c0,0.808-0.656,1.464-1.463,1.464H5.831V9.96h0.188v1.035&#xD;&#xA;&#x9;&#x9;c0.26,0.084,0.489,0.235,0.663,0.433h0.894c0.658,0,1.277,0.212,1.782,0.578h1.729V12.1h77.931l1-0.094h0.726&#xD;&#xA;&#x9;&#x9;c0.505-0.366,1.124-0.578,1.779-0.578h1.12c0.174-0.198,0.399-0.349,0.655-0.433V9.96h0.188V4.881h-1.288&#xD;&#xA;&#x9;&#x9;c-0.807,0-1.463-0.656-1.463-1.464V1.462C91.734,0.656,92.391,0,93.197,0h1.671c0.329,0,0.634,0.109,0.879,0.294l1.92-0.002v4.294&#xD;&#xA;&#x9;&#x9;h-0.161V9.96h0.188v1.034c0.261,0.085,0.489,0.236,0.664,0.434h1.516l0.151,1v23.081l0.008,0.004l0.008,0.621v0.612l-0.016,0.008&#xD;&#xA;&#x9;&#x9;v0.396l-0.727,0.005c-0.105,0.036-0.218,0.055-0.334,0.055H92.165z"/>
  <linearGradient id="SVGID_2_" gradientUnits="userSpaceOnUse" x1="99.04" y1="18.6045" x2="1" y2="18.6045">
    <stop offset="0" style="stop-color:#000000;stop-opacity:0.1"/>
    <stop offset="0.0163" style="stop-color:#0E0E0E;stop-opacity:0.0954"/>
    <stop offset="0.0468" style="stop-color:#323232;stop-opacity:0.0868"/>
    <stop offset="0.0885" style="stop-color:#6D6D6D;stop-opacity:0.0751"/>
    <stop offset="0.139" style="stop-color:#BDBDBD;stop-opacity:0.0609"/>
    <stop offset="0.1779" style="stop-color:#FFFFFF;stop-opacity:0.05"/>
    <stop offset="0.2007" style="stop-color:#E1E1E1;stop-opacity:0.0527"/>
    <stop offset="0.2444" style="stop-color:#ADADAD;stop-opacity:0.0577"/>
    <stop offset="0.29" style="stop-color:#7E7E7E;stop-opacity:0.0631"/>
    <stop offset="0.3366" style="stop-color:#575757;stop-opacity:0.0685"/>
    <stop offset="0.3845" style="stop-color:#383838;stop-opacity:0.074"/>
    <stop offset="0.4339" style="stop-color:#1F1F1F;stop-opacity:0.0798"/>
    <stop offset="0.4857" style="stop-color:#0E0E0E;stop-opacity:0.0858"/>
    <stop offset="0.5412" style="stop-color:#030303;stop-opacity:0.0923"/>
    <stop offset="0.6074" style="stop-color:#000000;stop-opacity:0.1"/>
    <stop offset="0.9755" style="stop-color:#000000;stop-opacity:0.02"/>
  </linearGradient>
  <path fill="url(#SVGID_2_)" d="M99.04,36.134c0-0.009-0.013-0.008-0.016-0.016v-23.69h-0.075h-0.076h-1.156v-0.062&#xD;&#xA;&#x9;&#x9;c0-0.245-0.226-0.447-0.502-0.447c0,0-0.294,0-0.414,0c-0.119,0-0.107-0.152-0.107-0.152V10.96h-0.188V3.586h0.161V1.433V1.326&#xD;&#xA;&#x9;&#x9;V1.294V1.293h-1.321v0.001h-0.015v0.168C95.331,1.208,95.122,1,94.868,1h-1.671c-0.254,0-0.463,0.208-0.463,0.462v1.955&#xD;&#xA;&#x9;&#x9;c0,0.255,0.209,0.464,0.463,0.464h1.671c0.254,0,0.463-0.209,0.463-0.464v0.169h0.015h0.14v7.374h-0.188v0.828&#xD;&#xA;&#x9;&#x9;c0,0-0.011,0.131-0.108,0.131s-0.412,0-0.412,0c-0.275,0-0.503,0.202-0.503,0.447v0.062h-1.752c-0.938,0-1.724,0.635-1.957,1.489&#xD;&#xA;&#x9;&#x9;v-0.911h-0.548V13.1H10.086v-0.094H9.538v0.933c-0.226-0.866-1.017-1.511-1.963-1.511H6.042v-0.062&#xD;&#xA;&#x9;&#x9;c0-0.245-0.227-0.447-0.504-0.447c0,0-0.313,0-0.41,0c-0.099,0-0.109-0.131-0.109-0.131V10.96H4.831V3.586h0.138h0.016V3.417&#xD;&#xA;&#x9;&#x9;c0,0.255,0.208,0.464,0.464,0.464h1.67c0.255,0,0.463-0.209,0.463-0.464V1.462C7.581,1.208,7.373,1,7.118,1h-1.67&#xD;&#xA;&#x9;&#x9;C5.192,1,4.984,1.208,4.984,1.462V1.294H4.969H4.643H3.646v0.032v0.106v2.153h0.164v7.374H3.622v0.807c0,0,0.011,0.152-0.107,0.152&#xD;&#xA;&#x9;&#x9;c-0.12,0-0.414,0-0.414,0c-0.275,0-0.502,0.202-0.502,0.447v0.062H1.224H1.148H1.071v23.604h0.006v0.025&#xD;&#xA;&#x9;&#x9;C1.035,36.057,1,36.092,1,36.134c0,0.041,0.035,0.075,0.077,0.075h6.856c1.731,0,1.752-1.888,1.752-1.908v-9.543h0.037h0.363&#xD;&#xA;&#x9;&#x9;h79.931h0.395v9.543c0,0.021,0.021,1.908,1.754,1.908h6.799c0.029,0,0.041-0.028,0.054-0.053h0.001h0.006v-0.007&#xD;&#xA;&#x9;&#x9;C99.027,36.142,99.04,36.143,99.04,36.134z M3.346,15.856c0-0.582,0.476-1.057,1.06-1.057s1.059,0.475,1.059,1.057&#xD;&#xA;&#x9;&#x9;s-0.475,1.057-1.059,1.057S3.346,16.438,3.346,15.856z M3.346,24.267c0-0.583,0.476-1.057,1.06-1.057s1.059,0.474,1.059,1.057&#xD;&#xA;&#x9;&#x9;c0,0.582-0.475,1.057-1.059,1.057S3.346,24.849,3.346,24.267z M5.464,32.642c0,0.582-0.475,1.056-1.059,1.056&#xD;&#xA;&#x9;&#x9;s-1.06-0.474-1.06-1.056c0-0.583,0.476-1.056,1.06-1.056S5.464,32.059,5.464,32.642z M9.025,35.625&#xD;&#xA;&#x9;&#x9;c-0.077,0.08-0.166,0.151-0.271,0.214C8.853,35.775,8.942,35.703,9.025,35.625z M9.055,35.598c0.042-0.042,0.077-0.089,0.115-0.135&#xD;&#xA;&#x9;&#x9;C9.136,35.511,9.095,35.553,9.055,35.598z M94.632,15.856c0-0.582,0.477-1.057,1.061-1.057s1.059,0.475,1.059,1.057&#xD;&#xA;&#x9;&#x9;s-0.475,1.057-1.059,1.057S94.632,16.438,94.632,15.856z M94.632,24.267c0-0.583,0.477-1.057,1.061-1.057s1.059,0.474,1.059,1.057&#xD;&#xA;&#x9;&#x9;c0,0.582-0.475,1.057-1.059,1.057S94.632,24.849,94.632,24.267z M96.751,32.642c0,0.582-0.475,1.056-1.059,1.056&#xD;&#xA;&#x9;&#x9;s-1.061-0.474-1.061-1.056c0-0.583,0.477-1.056,1.061-1.056S96.751,32.059,96.751,32.642z M91.337,35.836&#xD;&#xA;&#x9;&#x9;c-0.097-0.059-0.179-0.125-0.252-0.199C91.164,35.709,91.246,35.776,91.337,35.836z M90.936,35.474&#xD;&#xA;&#x9;&#x9;c0.031,0.037,0.061,0.075,0.094,0.109C90.997,35.547,90.964,35.513,90.936,35.474z"/>
</svg>