<svg version="1.2" baseProfile="tiny" id="EdgeSVG_pKwXd" x="0px" y="0px" width="114.694px" height="106.156px" viewBox="0 0 114.694 106.156" xmlns:xlink="http://www.w3.org/1999/xlink" xmlns="http://www.w3.org/2000/svg">
  <linearGradient id="SVGID_2_" gradientUnits="userSpaceOnUse" x1="9.6875" y1="55.5" x2="715.5539" y2="55.5">
    <stop offset="0" style="stop-color:#000000;stop-opacity:0.5"/>
    <stop offset="1" style="stop-color:#000000;stop-opacity:0.5"/>
  </linearGradient>
  <path fill="url(#SVGID_2_)" d="M36.484,4.844l0.735,0.425c-4.071,7.089-7.605,14.486-10.778,21.985&#xD;&#xA;&#x9;&#x9;c-5.172,12.232-9.145,25.034-11.809,38.05c-2.676,13.076-4.04,27.385-4.098,40.853H9.688C9.688,69.301,19.378,34.673,36.484,4.844z&#xD;&#xA;&#x9;&#x9; M105.572,44.732c-2.428,4.258-4.539,8.708-6.479,13.264c-6.277,14.743-9.516,30.224-9.629,46.012c0,0.162,0,1.618,0,2.148h0.844&#xD;&#xA;&#x9;&#x9;c0-0.279,0.013-1.862,0.016-2.142c0.112-15.678,3.324-31.04,9.559-45.682c1.922-4.512,4.002-8.944,6.421-13.178L105.572,44.732z"/>
  <linearGradient id="SVGID_3_" gradientUnits="userSpaceOnUse" x1="2.8838" y1="53.7998" x2="660.5545" y2="53.7998">
    <stop offset="0" style="stop-color:#000000;stop-opacity:0.08"/>
    <stop offset="0.9632" style="stop-color:#000000;stop-opacity:0.08"/>
  </linearGradient>
  <path fill="url(#SVGID_3_)" d="M34.873,3.913C17.879,33.566,8.133,67.926,7.809,104.302l0.02,1.854H2.884v-1.854&#xD;&#xA;&#x9;&#x9;c0.237-27.745,5.78-54.657,16.508-80.026c3.312-7.827,6.986-15.487,11.2-22.833L34.873,3.913z M107.918,46.087&#xD;&#xA;&#x9;&#x9;c-2.371,4.161-4.43,8.516-6.328,12.973c-6.136,14.41-9.301,29.54-9.41,44.971c0,0.052-0.008,1.865-0.008,2.126l4.941-0.001&#xD;&#xA;&#x9;&#x9;c0-0.373,0.051-2.282,0.051-2.38c0.192-19.716,5.588-38.694,15.034-55.218L107.918,46.087z"/>
  <linearGradient id="SVGID_4_" gradientUnits="userSpaceOnUse" x1="1.0078" y1="53.3311" x2="744.0858" y2="53.3311">
    <stop offset="0" style="stop-color:#FFFFFF;stop-opacity:0.3"/>
    <stop offset="1" style="stop-color:#FFFFFF;stop-opacity:0.3"/>
  </linearGradient>
  <path fill="url(#SVGID_4_)" d="M28.968,0.505l1.624,0.938c-4.199,7.334-7.88,14.984-11.2,22.833&#xD;&#xA;&#x9;&#x9;C8.664,49.645,3.121,76.557,2.884,104.302v1.854H1.008C1.008,67.693,11.121,31.604,28.968,0.505z M106.304,45.155&#xD;&#xA;&#x9;&#x9;c-2.419,4.233-4.499,8.666-6.421,13.178c-6.234,14.642-9.446,30.004-9.559,45.682c-0.003,0.279-0.016,1.862-0.016,2.142h1.863&#xD;&#xA;&#x9;&#x9;c0-0.261,0.008-2.074,0.008-2.126c0.109-15.431,3.274-30.561,9.41-44.971c1.903-4.471,3.966-8.818,6.328-12.973L106.304,45.155z"/>
</svg>