<svg version="1.2" baseProfile="tiny" id="EdgeSVG_wK14n" x="0px" y="0px" width="100.04px" height="37.209px" viewBox="0 0 100.04 37.209" xmlns:xlink="http://www.w3.org/1999/xlink" xmlns="http://www.w3.org/2000/svg">
  <rect x="95.485" y="3.586" fill="#E6E7E8" width="1.021" height="7.985"/>
  <path fill="#414042" d="M97.215,11.919c0,0-0.294,0-0.414,0c-0.119,0-0.107-0.152-0.107-0.152V10.96h-1.396v0.828&#xD;&#xA;&#x9;&#x9;c0,0-0.011,0.131-0.108,0.131s-0.412,0-0.412,0c-0.275,0-0.503,0.202-0.503,0.447v0.173h3.443v-0.173&#xD;&#xA;&#x9;&#x9;C97.717,12.121,97.491,11.919,97.215,11.919z"/>
  <path fill="#414042" d="M3.101,11.919c0,0,0.294,0,0.414,0c0.118,0,0.107-0.152,0.107-0.152V10.96h1.396v0.828&#xD;&#xA;&#x9;&#x9;c0,0,0.011,0.131,0.109,0.131c0.098,0,0.41,0,0.41,0c0.277,0,0.504,0.202,0.504,0.447v0.173H2.599v-0.173&#xD;&#xA;&#x9;&#x9;C2.599,12.121,2.825,11.919,3.101,11.919z"/>
  <rect x="3.811" y="3.586" fill="#E6E7E8" width="1.021" height="7.374"/>
  <g id="Layer_4">
    <linearGradient id="SVGID_3_" gradientUnits="userSpaceOnUse" x1="50.0664" y1="13.0996" x2="50.0664" y2="24.7578">
      <stop offset="0" style="stop-color:#FFFFFF;stop-opacity:0.2"/>
      <stop offset="0.022" style="stop-color:#F9F9F9;stop-opacity:0.2091"/>
      <stop offset="0.4994" style="stop-color:#747474;stop-opacity:0.4055"/>
      <stop offset="0.8249" style="stop-color:#212121;stop-opacity:0.5394"/>
      <stop offset="0.9722" style="stop-color:#000000;stop-opacity:0.6"/>
    </linearGradient>
    <rect x="9.723" y="13.1" fill-rule="evenodd" fill="url(#SVGID_3_)" width="80.688" height="11.658"/>
  </g>
  <linearGradient id="SVGID_4_" gradientUnits="userSpaceOnUse" x1="12.2686" y1="36.5098" x2="12.2686" y2="36.5098">
    <stop offset="0" style="stop-color:#FFFFFF;stop-opacity:0"/>
    <stop offset="0.0234" style="stop-color:#FFFFFF;stop-opacity:0.0283"/>
    <stop offset="0.1656" style="stop-color:#FFFFFF;stop-opacity:0.2"/>
    <stop offset="0.8663" style="stop-color:#FFFFFF;stop-opacity:0.0283"/>
    <stop offset="0.9816" style="stop-color:#FFFFFF;stop-opacity:0"/>
  </linearGradient>
  <path fill="url(#SVGID_4_)" d="M12.269,36.51"/>
  <linearGradient id="SVGID_5_" gradientUnits="userSpaceOnUse" x1="1.0771" y1="14.1377" x2="1.0771" y2="14.1377">
    <stop offset="0" style="stop-color:#000000;stop-opacity:0.6"/>
    <stop offset="0.0965" style="stop-color:#2F2F30;stop-opacity:0.5421"/>
    <stop offset="0.2846" style="stop-color:#5D5E61;stop-opacity:0.4293"/>
    <stop offset="0.5457" style="stop-color:#919395;stop-opacity:0.2726"/>
    <stop offset="0.8666" style="stop-color:#DADCDD;stop-opacity:0.08"/>
    <stop offset="1" style="stop-color:#FFFFFF;stop-opacity:0"/>
  </linearGradient>
  <path fill="url(#SVGID_5_)" d="M1.077,14.138"/>
  <linearGradient id="SVGID_6_" gradientUnits="userSpaceOnUse" x1="94.7529" y1="36.1563" x2="94.7529" y2="12.5801">
    <stop offset="0.3252" style="stop-color:#000000;stop-opacity:0"/>
    <stop offset="0.3596" style="stop-color:#444446;stop-opacity:0.0153"/>
    <stop offset="0.4289" style="stop-color:#717275;stop-opacity:0.0461"/>
    <stop offset="0.5012" style="stop-color:#949698;stop-opacity:0.0783"/>
    <stop offset="0.5749" style="stop-color:#B2B4B7;stop-opacity:0.111"/>
    <stop offset="0.6505" style="stop-color:#CDCFD0;stop-opacity:0.1446"/>
    <stop offset="0.7285" style="stop-color:#E1E2E4;stop-opacity:0.1793"/>
    <stop offset="0.81" style="stop-color:#F0F1F1;stop-opacity:0.2155"/>
    <stop offset="0.8971" style="stop-color:#FAFAFA;stop-opacity:0.2543"/>
    <stop offset="1" style="stop-color:#FFFFFF;stop-opacity:0.3"/>
  </linearGradient>
  <path fill="url(#SVGID_6_)" d="M92.422,12.58c-1.066,0-1.935,0.832-1.935,1.854v19.867c0,1.023,0.868,1.855,1.935,1.855h6.597&#xD;&#xA;&#x9;&#x9;v-1.012v-0.509V14.101V13.34v-0.76H92.422z M95.726,23.165c0.605,0,1.096,0.489,1.096,1.095c0,0.604-0.49,1.094-1.096,1.094&#xD;&#xA;&#x9;&#x9;c-0.606,0-1.098-0.49-1.098-1.094C94.628,23.654,95.119,23.165,95.726,23.165z M94.628,15.849c0-0.604,0.491-1.094,1.098-1.094&#xD;&#xA;&#x9;&#x9;c0.605,0,1.096,0.49,1.096,1.094c0,0.605-0.49,1.095-1.096,1.095C95.119,16.943,94.628,16.454,94.628,15.849z M95.726,31.539&#xD;&#xA;&#x9;&#x9;c0.605,0,1.096,0.491,1.096,1.096s-0.49,1.095-1.096,1.095c-0.606,0-1.098-0.49-1.098-1.095S95.119,31.539,95.726,31.539z"/>
  <linearGradient id="SVGID_7_" gradientUnits="userSpaceOnUse" x1="94.7188" y1="34.3428" x2="94.7188" y2="12.4277">
    <stop offset="0.0123" style="stop-color:#000000;stop-opacity:0"/>
    <stop offset="0.0965" style="stop-color:#222223;stop-opacity:0.0682"/>
    <stop offset="0.2407" style="stop-color:#4C4C4E;stop-opacity:0.185"/>
    <stop offset="0.4276" style="stop-color:#717375;stop-opacity:0.3364"/>
    <stop offset="0.6496" style="stop-color:#A0A2A4;stop-opacity:0.5162"/>
    <stop offset="0.8987" style="stop-color:#DFE1E2;stop-opacity:0.7179"/>
    <stop offset="1" style="stop-color:#FFFFFF;stop-opacity:0.8"/>
  </linearGradient>
  <path fill="url(#SVGID_7_)" d="M90.784,14.434c0-0.938,0.779-1.701,1.737-1.701h6.428v-0.305h-6.428&#xD;&#xA;&#x9;&#x9;c-1.121,0-2.034,0.9-2.034,2.006v19.867C90.487,35.408,90.784,14.434,90.784,14.434z"/>
  <rect x="98.873" y="12.428" fill="#FFFFFF" width="0.151" height="23.729"/>
  <path fill="#414042" d="M98.964,36.209h-6.799c-1.733,0-1.754-1.888-1.754-1.908V23.519c0-0.041,0.034-0.075,0.076-0.075&#xD;&#xA;&#x9;&#x9;s0.077,0.034,0.077,0.075v10.782c0,0.072,0.02,1.756,1.601,1.756h6.799c0.042,0,0.076,0.035,0.076,0.077&#xD;&#xA;&#x9;&#x9;C99.04,36.175,99.006,36.209,98.964,36.209z"/>
  <linearGradient id="SVGID_8_" gradientUnits="userSpaceOnUse" x1="4.4043" y1="33.7744" x2="4.4043" y2="31.5098">
    <stop offset="0" style="stop-color:#FFFFFF"/>
    <stop offset="0.0629" style="stop-color:#DDDEDF;stop-opacity:0.9371"/>
    <stop offset="0.1601" style="stop-color:#B3B5B7;stop-opacity:0.8399"/>
    <stop offset="0.2621" style="stop-color:#909294;stop-opacity:0.7379"/>
    <stop offset="0.3668" style="stop-color:#737578;stop-opacity:0.6332"/>
    <stop offset="0.475" style="stop-color:#5B5C5E;stop-opacity:0.525"/>
    <stop offset="0.5878" style="stop-color:#454547;stop-opacity:0.4122"/>
    <stop offset="0.7072" style="stop-color:#2A292A;stop-opacity:0.2928"/>
    <stop offset="0.8376" style="stop-color:#0D0D0E;stop-opacity:0.1624"/>
    <stop offset="1" style="stop-color:#000000;stop-opacity:0"/>
  </linearGradient>
  <path fill="url(#SVGID_8_)" d="M4.405,33.774c-0.627,0-1.136-0.509-1.136-1.133s0.509-1.132,1.136-1.132&#xD;&#xA;&#x9;&#x9;c0.626,0,1.135,0.508,1.135,1.132S5.031,33.774,4.405,33.774z M4.405,31.586c-0.584,0-1.06,0.473-1.06,1.056&#xD;&#xA;&#x9;&#x9;c0,0.582,0.476,1.056,1.06,1.056s1.059-0.474,1.059-1.056C5.464,32.059,4.989,31.586,4.405,31.586z"/>
  <linearGradient id="SVGID_9_" gradientUnits="userSpaceOnUse" x1="4.4043" y1="25.3984" x2="4.4043" y2="23.1338">
    <stop offset="0" style="stop-color:#FFFFFF"/>
    <stop offset="0.0629" style="stop-color:#DDDEDF;stop-opacity:0.9371"/>
    <stop offset="0.1601" style="stop-color:#B3B5B7;stop-opacity:0.8399"/>
    <stop offset="0.2621" style="stop-color:#909294;stop-opacity:0.7379"/>
    <stop offset="0.3668" style="stop-color:#737578;stop-opacity:0.6332"/>
    <stop offset="0.475" style="stop-color:#5B5C5E;stop-opacity:0.525"/>
    <stop offset="0.5878" style="stop-color:#454547;stop-opacity:0.4122"/>
    <stop offset="0.7072" style="stop-color:#2A292A;stop-opacity:0.2928"/>
    <stop offset="0.8376" style="stop-color:#0D0D0E;stop-opacity:0.1624"/>
    <stop offset="1" style="stop-color:#000000;stop-opacity:0"/>
  </linearGradient>
  <path fill="url(#SVGID_9_)" d="M4.405,25.398c-0.627,0-1.136-0.508-1.136-1.132s0.509-1.133,1.136-1.133&#xD;&#xA;&#x9;&#x9;c0.626,0,1.135,0.509,1.135,1.133S5.031,25.398,4.405,25.398z M4.405,23.21c-0.584,0-1.06,0.474-1.06,1.057&#xD;&#xA;&#x9;&#x9;c0,0.582,0.476,1.057,1.06,1.057s1.059-0.475,1.059-1.057C5.464,23.684,4.989,23.21,4.405,23.21z"/>
  <linearGradient id="SVGID_10_" gradientUnits="userSpaceOnUse" x1="4.4043" y1="16.9893" x2="4.4043" y2="14.7236">
    <stop offset="0" style="stop-color:#FFFFFF"/>
    <stop offset="0.0629" style="stop-color:#DDDEDF;stop-opacity:0.9371"/>
    <stop offset="0.1601" style="stop-color:#B3B5B7;stop-opacity:0.8399"/>
    <stop offset="0.2621" style="stop-color:#909294;stop-opacity:0.7379"/>
    <stop offset="0.3668" style="stop-color:#737578;stop-opacity:0.6332"/>
    <stop offset="0.475" style="stop-color:#5B5C5E;stop-opacity:0.525"/>
    <stop offset="0.5878" style="stop-color:#454547;stop-opacity:0.4122"/>
    <stop offset="0.7072" style="stop-color:#2A292A;stop-opacity:0.2928"/>
    <stop offset="0.8376" style="stop-color:#0D0D0E;stop-opacity:0.1624"/>
    <stop offset="1" style="stop-color:#000000;stop-opacity:0"/>
  </linearGradient>
  <path fill="url(#SVGID_10_)" d="M4.405,16.989c-0.627,0-1.136-0.508-1.136-1.133c0-0.624,0.509-1.133,1.136-1.133&#xD;&#xA;&#x9;&#x9;c0.626,0,1.135,0.509,1.135,1.133C5.54,16.481,5.031,16.989,4.405,16.989z M4.405,14.8c-0.584,0-1.06,0.475-1.06,1.057&#xD;&#xA;&#x9;&#x9;s0.476,1.057,1.06,1.057s1.059-0.475,1.059-1.057S4.989,14.8,4.405,14.8z"/>
  <linearGradient id="SVGID_11_" gradientUnits="userSpaceOnUse" x1="5.3428" y1="36.1563" x2="5.3428" y2="12.5801">
    <stop offset="0.3252" style="stop-color:#000000;stop-opacity:0"/>
    <stop offset="0.3596" style="stop-color:#444446;stop-opacity:0.0153"/>
    <stop offset="0.4289" style="stop-color:#717275;stop-opacity:0.0461"/>
    <stop offset="0.5012" style="stop-color:#949698;stop-opacity:0.0783"/>
    <stop offset="0.5749" style="stop-color:#B2B4B7;stop-opacity:0.111"/>
    <stop offset="0.6505" style="stop-color:#CDCFD0;stop-opacity:0.1446"/>
    <stop offset="0.7285" style="stop-color:#E1E2E4;stop-opacity:0.1793"/>
    <stop offset="0.81" style="stop-color:#F0F1F1;stop-opacity:0.2155"/>
    <stop offset="0.8971" style="stop-color:#FAFAFA;stop-opacity:0.2543"/>
    <stop offset="1" style="stop-color:#FFFFFF;stop-opacity:0.3"/>
  </linearGradient>
  <path fill="url(#SVGID_11_)" d="M1.077,12.58v0.76v0.761v20.535v0.509v1.012h6.597c1.067,0,1.935-0.832,1.935-1.855V14.434&#xD;&#xA;&#x9;&#x9;c0-1.021-0.867-1.854-1.935-1.854H1.077z M5.469,24.26c0,0.604-0.491,1.094-1.099,1.094c-0.605,0-1.096-0.49-1.096-1.094&#xD;&#xA;&#x9;&#x9;c0-0.605,0.49-1.095,1.096-1.095C4.978,23.165,5.469,23.654,5.469,24.26z M4.37,16.943c-0.605,0-1.096-0.489-1.096-1.095&#xD;&#xA;&#x9;&#x9;c0-0.604,0.49-1.094,1.096-1.094c0.607,0,1.099,0.49,1.099,1.094C5.469,16.454,4.978,16.943,4.37,16.943z M5.469,32.635&#xD;&#xA;&#x9;&#x9;c0,0.604-0.491,1.095-1.099,1.095c-0.605,0-1.096-0.49-1.096-1.095s0.49-1.096,1.096-1.096C4.978,31.539,5.469,32.03,5.469,32.635z&#xD;&#xA;&#x9;&#x9;"/>
  <linearGradient id="SVGID_12_" gradientUnits="userSpaceOnUse" x1="5.3789" y1="34.3428" x2="5.3789" y2="12.4277">
    <stop offset="0.0123" style="stop-color:#000000;stop-opacity:0"/>
    <stop offset="0.0965" style="stop-color:#222223;stop-opacity:0.0682"/>
    <stop offset="0.2407" style="stop-color:#4C4C4E;stop-opacity:0.185"/>
    <stop offset="0.4276" style="stop-color:#717375;stop-opacity:0.3364"/>
    <stop offset="0.6496" style="stop-color:#A0A2A4;stop-opacity:0.5162"/>
    <stop offset="0.8987" style="stop-color:#DFE1E2;stop-opacity:0.7179"/>
    <stop offset="1" style="stop-color:#FFFFFF;stop-opacity:0.8"/>
  </linearGradient>
  <path fill="url(#SVGID_12_)" d="M9.313,14.434c0-0.938-0.779-1.701-1.737-1.701H1.148v-0.305h6.427c1.121,0,2.033,0.9,2.033,2.006&#xD;&#xA;&#x9;&#x9;v19.867C9.608,35.408,9.313,14.434,9.313,14.434z"/>
  <rect x="1.071" y="12.428" fill="#FFFFFF" width="0.152" height="23.604"/>
  <path fill="#414042" d="M7.934,36.209H1.077C1.035,36.209,1,36.175,1,36.134c0-0.042,0.035-0.077,0.077-0.077h6.856&#xD;&#xA;&#x9;&#x9;c1.581,0,1.601-1.684,1.601-1.756V23.519c0-0.041,0.033-0.075,0.074-0.075c0.043,0,0.077,0.034,0.077,0.075v10.782&#xD;&#xA;&#x9;&#x9;C9.686,34.321,9.665,36.209,7.934,36.209z"/>
  <linearGradient id="SVGID_13_" gradientUnits="userSpaceOnUse" x1="95.6914" y1="33.7744" x2="95.6914" y2="31.5098">
    <stop offset="0" style="stop-color:#FFFFFF"/>
    <stop offset="0.0629" style="stop-color:#DDDEDF;stop-opacity:0.9371"/>
    <stop offset="0.1601" style="stop-color:#B3B5B7;stop-opacity:0.8399"/>
    <stop offset="0.2621" style="stop-color:#909294;stop-opacity:0.7379"/>
    <stop offset="0.3668" style="stop-color:#737578;stop-opacity:0.6332"/>
    <stop offset="0.475" style="stop-color:#5B5C5E;stop-opacity:0.525"/>
    <stop offset="0.5878" style="stop-color:#454547;stop-opacity:0.4122"/>
    <stop offset="0.7072" style="stop-color:#2A292A;stop-opacity:0.2928"/>
    <stop offset="0.8376" style="stop-color:#0D0D0E;stop-opacity:0.1624"/>
    <stop offset="1" style="stop-color:#000000;stop-opacity:0"/>
  </linearGradient>
  <path fill="url(#SVGID_13_)" d="M94.557,32.642c0-0.624,0.509-1.132,1.136-1.132c0.625,0,1.134,0.508,1.134,1.132&#xD;&#xA;&#x9;&#x9;s-0.509,1.133-1.134,1.133C95.065,33.774,94.557,33.266,94.557,32.642z M94.632,32.642c0,0.582,0.477,1.056,1.061,1.056&#xD;&#xA;&#x9;&#x9;s1.059-0.474,1.059-1.056c0-0.583-0.475-1.056-1.059-1.056S94.632,32.059,94.632,32.642z"/>
  <linearGradient id="SVGID_14_" gradientUnits="userSpaceOnUse" x1="95.6914" y1="25.3984" x2="95.6914" y2="23.1338">
    <stop offset="0" style="stop-color:#FFFFFF"/>
    <stop offset="0.0629" style="stop-color:#DDDEDF;stop-opacity:0.9371"/>
    <stop offset="0.1601" style="stop-color:#B3B5B7;stop-opacity:0.8399"/>
    <stop offset="0.2621" style="stop-color:#909294;stop-opacity:0.7379"/>
    <stop offset="0.3668" style="stop-color:#737578;stop-opacity:0.6332"/>
    <stop offset="0.475" style="stop-color:#5B5C5E;stop-opacity:0.525"/>
    <stop offset="0.5878" style="stop-color:#454547;stop-opacity:0.4122"/>
    <stop offset="0.7072" style="stop-color:#2A292A;stop-opacity:0.2928"/>
    <stop offset="0.8376" style="stop-color:#0D0D0E;stop-opacity:0.1624"/>
    <stop offset="1" style="stop-color:#000000;stop-opacity:0"/>
  </linearGradient>
  <path fill="url(#SVGID_14_)" d="M94.557,24.267c0-0.624,0.509-1.133,1.136-1.133c0.625,0,1.134,0.509,1.134,1.133&#xD;&#xA;&#x9;&#x9;s-0.509,1.132-1.134,1.132C95.065,25.398,94.557,24.891,94.557,24.267z M94.632,24.267c0,0.582,0.477,1.057,1.061,1.057&#xD;&#xA;&#x9;&#x9;s1.059-0.475,1.059-1.057c0-0.583-0.475-1.057-1.059-1.057S94.632,23.684,94.632,24.267z"/>
  <linearGradient id="SVGID_15_" gradientUnits="userSpaceOnUse" x1="95.6914" y1="16.9893" x2="95.6914" y2="14.7236">
    <stop offset="0" style="stop-color:#FFFFFF"/>
    <stop offset="0.0418" style="stop-color:#FFFFFF;stop-opacity:0.9149"/>
    <stop offset="0.4663" style="stop-color:#FFFFFF;stop-opacity:0.05"/>
    <stop offset="0.6652" style="stop-color:#FCFCFC;stop-opacity:0.0314"/>
    <stop offset="0.7368" style="stop-color:#F5F5F5;stop-opacity:0.0247"/>
    <stop offset="0.7879" style="stop-color:#EBEBEC;stop-opacity:0.0199"/>
    <stop offset="0.8292" style="stop-color:#DCDEDF;stop-opacity:0.016"/>
    <stop offset="0.8646" style="stop-color:#CACCCE;stop-opacity:0.0127"/>
    <stop offset="0.8959" style="stop-color:#B4B6B8;stop-opacity:0.0098"/>
    <stop offset="0.9243" style="stop-color:#9A9C9E;stop-opacity:0.0071"/>
    <stop offset="0.9503" style="stop-color:#7D7F82;stop-opacity:0.0047"/>
    <stop offset="0.9746" style="stop-color:#5C5C5F;stop-opacity:0.0024"/>
    <stop offset="0.9961" style="stop-color:#202021;stop-opacity:3.690064e-004"/>
    <stop offset="1" style="stop-color:#000000;stop-opacity:0"/>
  </linearGradient>
  <path fill="url(#SVGID_15_)" d="M94.557,15.856c0-0.624,0.509-1.133,1.136-1.133c0.625,0,1.134,0.509,1.134,1.133&#xD;&#xA;&#x9;&#x9;c0,0.625-0.509,1.133-1.134,1.133C95.065,16.989,94.557,16.481,94.557,15.856z M94.632,15.856c0,0.582,0.477,1.057,1.061,1.057&#xD;&#xA;&#x9;&#x9;s1.059-0.475,1.059-1.057S96.276,14.8,95.692,14.8S94.632,15.274,94.632,15.856z"/>
  <linearGradient id="SVGID_16_" gradientUnits="userSpaceOnUse" x1="95.6914" y1="31.5098" x2="95.6914" y2="33.7744">
    <stop offset="0" style="stop-color:#000000"/>
    <stop offset="0.0896" style="stop-color:#000000;stop-opacity:0.9104"/>
    <stop offset="1" style="stop-color:#000000;stop-opacity:0"/>
  </linearGradient>
  <path fill="url(#SVGID_16_)" d="M94.557,32.642c0-0.624,0.509-1.132,1.136-1.132c0.625,0,1.134,0.508,1.134,1.132&#xD;&#xA;&#x9;&#x9;s-0.509,1.133-1.134,1.133C95.065,33.774,94.557,33.266,94.557,32.642z M94.632,32.642c0,0.582,0.477,1.056,1.061,1.056&#xD;&#xA;&#x9;&#x9;s1.059-0.474,1.059-1.056c0-0.583-0.475-1.056-1.059-1.056S94.632,32.059,94.632,32.642z"/>
  <linearGradient id="SVGID_17_" gradientUnits="userSpaceOnUse" x1="95.6914" y1="23.1338" x2="95.6914" y2="25.3984">
    <stop offset="0" style="stop-color:#000000"/>
    <stop offset="0.0896" style="stop-color:#000000;stop-opacity:0.9104"/>
    <stop offset="1" style="stop-color:#000000;stop-opacity:0"/>
  </linearGradient>
  <path fill="url(#SVGID_17_)" d="M94.557,24.267c0-0.624,0.509-1.133,1.136-1.133c0.625,0,1.134,0.509,1.134,1.133&#xD;&#xA;&#x9;&#x9;s-0.509,1.132-1.134,1.132C95.065,25.398,94.557,24.891,94.557,24.267z M94.632,24.267c0,0.582,0.477,1.057,1.061,1.057&#xD;&#xA;&#x9;&#x9;s1.059-0.475,1.059-1.057c0-0.583-0.475-1.057-1.059-1.057S94.632,23.684,94.632,24.267z"/>
  <linearGradient id="SVGID_18_" gradientUnits="userSpaceOnUse" x1="95.6914" y1="14.7236" x2="95.6914" y2="16.9893">
    <stop offset="0" style="stop-color:#000000"/>
    <stop offset="0.0896" style="stop-color:#000000;stop-opacity:0.9104"/>
    <stop offset="1" style="stop-color:#000000;stop-opacity:0"/>
  </linearGradient>
  <path fill="url(#SVGID_18_)" d="M94.557,15.856c0-0.624,0.509-1.133,1.136-1.133c0.625,0,1.134,0.509,1.134,1.133&#xD;&#xA;&#x9;&#x9;c0,0.625-0.509,1.133-1.134,1.133C95.065,16.989,94.557,16.481,94.557,15.856z M94.632,15.856c0,0.582,0.477,1.057,1.061,1.057&#xD;&#xA;&#x9;&#x9;s1.059-0.475,1.059-1.057S96.276,14.8,95.692,14.8S94.632,15.274,94.632,15.856z"/>
  <linearGradient id="SVGID_19_" gradientUnits="userSpaceOnUse" x1="4.4043" y1="31.5098" x2="4.4043" y2="33.7744">
    <stop offset="0" style="stop-color:#000000"/>
    <stop offset="0.0896" style="stop-color:#000000;stop-opacity:0.9104"/>
    <stop offset="1" style="stop-color:#000000;stop-opacity:0"/>
  </linearGradient>
  <path fill="url(#SVGID_19_)" d="M3.27,32.642c0-0.624,0.509-1.132,1.136-1.132c0.626,0,1.135,0.508,1.135,1.132&#xD;&#xA;&#x9;&#x9;s-0.509,1.133-1.135,1.133C3.778,33.774,3.27,33.266,3.27,32.642z M3.346,32.642c0,0.582,0.476,1.056,1.06,1.056&#xD;&#xA;&#x9;&#x9;s1.059-0.474,1.059-1.056c0-0.583-0.475-1.056-1.059-1.056S3.346,32.059,3.346,32.642z"/>
  <linearGradient id="SVGID_20_" gradientUnits="userSpaceOnUse" x1="4.4043" y1="23.1338" x2="4.4043" y2="25.3984">
    <stop offset="0" style="stop-color:#000000"/>
    <stop offset="0.0896" style="stop-color:#000000;stop-opacity:0.9104"/>
    <stop offset="1" style="stop-color:#000000;stop-opacity:0"/>
  </linearGradient>
  <path fill="url(#SVGID_20_)" d="M3.27,24.267c0-0.624,0.509-1.133,1.136-1.133c0.626,0,1.135,0.509,1.135,1.133&#xD;&#xA;&#x9;&#x9;s-0.509,1.132-1.135,1.132C3.778,25.398,3.27,24.891,3.27,24.267z M3.346,24.267c0,0.582,0.476,1.057,1.06,1.057&#xD;&#xA;&#x9;&#x9;s1.059-0.475,1.059-1.057c0-0.583-0.475-1.057-1.059-1.057S3.346,23.684,3.346,24.267z"/>
  <linearGradient id="SVGID_21_" gradientUnits="userSpaceOnUse" x1="4.4043" y1="14.7236" x2="4.4043" y2="16.9893">
    <stop offset="0" style="stop-color:#000000"/>
    <stop offset="0.0896" style="stop-color:#000000;stop-opacity:0.9104"/>
    <stop offset="1" style="stop-color:#000000;stop-opacity:0"/>
  </linearGradient>
  <path fill="url(#SVGID_21_)" d="M3.27,15.856c0-0.624,0.509-1.133,1.136-1.133c0.626,0,1.135,0.509,1.135,1.133&#xD;&#xA;&#x9;&#x9;c0,0.625-0.509,1.133-1.135,1.133C3.778,16.989,3.27,16.481,3.27,15.856z M3.346,15.856c0,0.582,0.476,1.057,1.06,1.057&#xD;&#xA;&#x9;&#x9;s1.059-0.475,1.059-1.057S4.989,14.8,4.405,14.8S3.346,15.274,3.346,15.856z"/>
  <linearGradient id="SVGID_22_" gradientUnits="userSpaceOnUse" x1="95.4854" y1="7.2734" x2="96.5059" y2="7.2734">
    <stop offset="0" style="stop-color:#000000;stop-opacity:0.2"/>
    <stop offset="0.039" style="stop-color:#000000;stop-opacity:0.2"/>
    <stop offset="0.2761" style="stop-color:#000000;stop-opacity:0.2"/>
    <stop offset="0.319" style="stop-color:#0F0F0F;stop-opacity:0.2095"/>
    <stop offset="0.4018" style="stop-color:#373737;stop-opacity:0.2277"/>
    <stop offset="0.516" style="stop-color:#777777;stop-opacity:0.2528"/>
    <stop offset="0.6558" style="stop-color:#CECECE;stop-opacity:0.2836"/>
    <stop offset="0.7301" style="stop-color:#FFFFFF;stop-opacity:0.3"/>
    <stop offset="0.7712" style="stop-color:#CECECE;stop-opacity:0.3"/>
    <stop offset="0.8487" style="stop-color:#777777;stop-opacity:0.3"/>
    <stop offset="0.912" style="stop-color:#373737;stop-opacity:0.3"/>
    <stop offset="0.9578" style="stop-color:#0F0F0F;stop-opacity:0.3"/>
    <stop offset="0.9816" style="stop-color:#000000;stop-opacity:0.3"/>
  </linearGradient>
  <rect x="95.485" y="3.586" fill="url(#SVGID_22_)" width="1.021" height="7.374"/>
  <linearGradient id="SVGID_23_" gradientUnits="userSpaceOnUse" x1="94.0332" y1="3.8809" x2="94.0332" y2="1">
    <stop offset="0" style="stop-color:#000000;stop-opacity:0.3"/>
    <stop offset="0.0629" style="stop-color:#4C4C4E;stop-opacity:0.2937"/>
    <stop offset="0.1601" style="stop-color:#75777A;stop-opacity:0.284"/>
    <stop offset="0.2621" style="stop-color:#97999C;stop-opacity:0.2738"/>
    <stop offset="0.3668" style="stop-color:#B5B7B9;stop-opacity:0.2633"/>
    <stop offset="0.475" style="stop-color:#CFD0D2;stop-opacity:0.2525"/>
    <stop offset="0.5878" style="stop-color:#E2E3E4;stop-opacity:0.2412"/>
    <stop offset="0.7072" style="stop-color:#F1F1F2;stop-opacity:0.2293"/>
    <stop offset="0.8376" style="stop-color:#FAFAFA;stop-opacity:0.2162"/>
    <stop offset="1" style="stop-color:#FFFFFF;stop-opacity:0.2"/>
  </linearGradient>
  <path fill="url(#SVGID_23_)" d="M94.868,1h-1.671c-0.254,0-0.463,0.208-0.463,0.462v1.955c0,0.255,0.209,0.464,0.463,0.464h1.671&#xD;&#xA;&#x9;&#x9;c0.254,0,0.463-0.209,0.463-0.464V1.462C95.331,1.208,95.122,1,94.868,1z M95.098,3.241c0,0.209-0.171,0.38-0.38,0.38h-1.369&#xD;&#xA;&#x9;&#x9;c-0.21,0-0.382-0.171-0.382-0.38V1.638c0-0.208,0.172-0.378,0.382-0.378h1.369c0.209,0,0.38,0.17,0.38,0.378V3.241z"/>
  <linearGradient id="SVGID_24_" gradientUnits="userSpaceOnUse" x1="94.0322" y1="3.6211" x2="94.0322" y2="1.2598">
    <stop offset="0" style="stop-color:#000000;stop-opacity:0.3"/>
    <stop offset="0" style="stop-color:#4C4C4E;stop-opacity:0.2874"/>
    <stop offset="0" style="stop-color:#75777A;stop-opacity:0.268"/>
    <stop offset="0" style="stop-color:#97999C;stop-opacity:0.2476"/>
    <stop offset="0" style="stop-color:#B5B7B9;stop-opacity:0.2266"/>
    <stop offset="0" style="stop-color:#CFD0D2;stop-opacity:0.205"/>
    <stop offset="0" style="stop-color:#E2E3E4;stop-opacity:0.1824"/>
    <stop offset="0" style="stop-color:#F1F1F2;stop-opacity:0.1586"/>
    <stop offset="0" style="stop-color:#FAFAFA;stop-opacity:0.1325"/>
    <stop offset="0" style="stop-color:#FFFFFF;stop-opacity:0.1"/>
    <stop offset="0.7239" style="stop-color:#FFFFFF;stop-opacity:0.5"/>
  </linearGradient>
  <path fill="url(#SVGID_24_)" d="M95.098,3.241c0,0.209-0.171,0.38-0.38,0.38h-1.369c-0.21,0-0.382-0.171-0.382-0.38V1.638&#xD;&#xA;&#x9;&#x9;c0-0.208,0.172-0.378,0.382-0.378h1.369c0.209,0,0.38,0.17,0.38,0.378V3.241z"/>
  <linearGradient id="SVGID_25_" gradientUnits="userSpaceOnUse" x1="4.8311" y1="7.2725" x2="3.8105" y2="7.2725">
    <stop offset="0" style="stop-color:#000000;stop-opacity:0.2"/>
    <stop offset="0.039" style="stop-color:#000000;stop-opacity:0.2"/>
    <stop offset="0.2761" style="stop-color:#000000;stop-opacity:0.2"/>
    <stop offset="0.319" style="stop-color:#0F0F0F;stop-opacity:0.2095"/>
    <stop offset="0.4018" style="stop-color:#373737;stop-opacity:0.2277"/>
    <stop offset="0.516" style="stop-color:#777777;stop-opacity:0.2528"/>
    <stop offset="0.6558" style="stop-color:#CECECE;stop-opacity:0.2836"/>
    <stop offset="0.7301" style="stop-color:#FFFFFF;stop-opacity:0.3"/>
    <stop offset="0.7712" style="stop-color:#CECECE;stop-opacity:0.3"/>
    <stop offset="0.8487" style="stop-color:#777777;stop-opacity:0.3"/>
    <stop offset="0.912" style="stop-color:#373737;stop-opacity:0.3"/>
    <stop offset="0.9578" style="stop-color:#0F0F0F;stop-opacity:0.3"/>
    <stop offset="0.9816" style="stop-color:#000000;stop-opacity:0.3"/>
  </linearGradient>
  <rect x="3.811" y="3.586" fill="url(#SVGID_25_)" width="1.021" height="7.374"/>
  <linearGradient id="SVGID_26_" gradientUnits="userSpaceOnUse" x1="6.2832" y1="3.8809" x2="6.2832" y2="1">
    <stop offset="0" style="stop-color:#000000;stop-opacity:0.3"/>
    <stop offset="0.0629" style="stop-color:#4C4C4E;stop-opacity:0.2937"/>
    <stop offset="0.1601" style="stop-color:#75777A;stop-opacity:0.284"/>
    <stop offset="0.2621" style="stop-color:#97999C;stop-opacity:0.2738"/>
    <stop offset="0.3668" style="stop-color:#B5B7B9;stop-opacity:0.2633"/>
    <stop offset="0.475" style="stop-color:#CFD0D2;stop-opacity:0.2525"/>
    <stop offset="0.5878" style="stop-color:#E2E3E4;stop-opacity:0.2412"/>
    <stop offset="0.7072" style="stop-color:#F1F1F2;stop-opacity:0.2293"/>
    <stop offset="0.8376" style="stop-color:#FAFAFA;stop-opacity:0.2162"/>
    <stop offset="1" style="stop-color:#FFFFFF;stop-opacity:0.2"/>
  </linearGradient>
  <path fill="url(#SVGID_26_)" d="M4.984,1.462v1.955c0,0.255,0.208,0.464,0.464,0.464h1.67c0.255,0,0.463-0.209,0.463-0.464V1.462&#xD;&#xA;&#x9;&#x9;C7.581,1.208,7.373,1,7.118,1h-1.67C5.192,1,4.984,1.208,4.984,1.462z M5.218,1.638c0-0.208,0.171-0.378,0.38-0.378h1.37&#xD;&#xA;&#x9;&#x9;c0.208,0,0.38,0.17,0.38,0.378v1.604c0,0.209-0.172,0.38-0.38,0.38h-1.37c-0.209,0-0.38-0.171-0.38-0.38V1.638z"/>
  <linearGradient id="SVGID_27_" gradientUnits="userSpaceOnUse" x1="6.2832" y1="3.6211" x2="6.2832" y2="1.2598">
    <stop offset="0" style="stop-color:#000000;stop-opacity:0.3"/>
    <stop offset="0" style="stop-color:#4C4C4E;stop-opacity:0.2874"/>
    <stop offset="0" style="stop-color:#75777A;stop-opacity:0.268"/>
    <stop offset="0" style="stop-color:#97999C;stop-opacity:0.2476"/>
    <stop offset="0" style="stop-color:#B5B7B9;stop-opacity:0.2266"/>
    <stop offset="0" style="stop-color:#CFD0D2;stop-opacity:0.205"/>
    <stop offset="0" style="stop-color:#E2E3E4;stop-opacity:0.1824"/>
    <stop offset="0" style="stop-color:#F1F1F2;stop-opacity:0.1586"/>
    <stop offset="0" style="stop-color:#FAFAFA;stop-opacity:0.1325"/>
    <stop offset="0" style="stop-color:#FFFFFF;stop-opacity:0.1"/>
    <stop offset="0.7239" style="stop-color:#FFFFFF;stop-opacity:0.5"/>
  </linearGradient>
  <path fill="url(#SVGID_27_)" d="M5.218,1.638c0-0.208,0.171-0.378,0.38-0.378h1.37c0.208,0,0.38,0.17,0.38,0.378v1.604&#xD;&#xA;&#x9;&#x9;c0,0.209-0.172,0.38-0.38,0.38h-1.37c-0.209,0-0.38-0.171-0.38-0.38V1.638z"/>
  <linearGradient id="SVGID_28_" gradientUnits="userSpaceOnUse" x1="95.6729" y1="2.4395" x2="96.667" y2="2.4395">
    <stop offset="0" style="stop-color:#000000;stop-opacity:0.1"/>
    <stop offset="0.2577" style="stop-color:#000000;stop-opacity:0.1"/>
    <stop offset="0.2958" style="stop-color:#0E0E0E;stop-opacity:0.0954"/>
    <stop offset="0.3675" style="stop-color:#323232;stop-opacity:0.0868"/>
    <stop offset="0.4652" style="stop-color:#6D6D6D;stop-opacity:0.0751"/>
    <stop offset="0.5837" style="stop-color:#BDBDBD;stop-opacity:0.0609"/>
    <stop offset="0.6748" style="stop-color:#FFFFFF;stop-opacity:0.05"/>
    <stop offset="0.7864" style="stop-color:#9C9C9C;stop-opacity:0.0389"/>
    <stop offset="0.9172" style="stop-color:#2D2D2D;stop-opacity:0.0258"/>
    <stop offset="0.9755" style="stop-color:#000000;stop-opacity:0.02"/>
  </linearGradient>
  <rect x="95.673" y="1.294" fill="url(#SVGID_28_)" width="0.994" height="2.292"/>
  <linearGradient id="SVGID_29_" gradientUnits="userSpaceOnUse" x1="95.3311" y1="2.4395" x2="95.6729" y2="2.4395">
    <stop offset="0.0245" style="stop-color:#000000;stop-opacity:0.02"/>
    <stop offset="0.3926" style="stop-color:#000000;stop-opacity:0.1"/>
    <stop offset="0.4588" style="stop-color:#030303;stop-opacity:0.0923"/>
    <stop offset="0.5143" style="stop-color:#0E0E0E;stop-opacity:0.0858"/>
    <stop offset="0.5661" style="stop-color:#1F1F1F;stop-opacity:0.0798"/>
    <stop offset="0.6155" style="stop-color:#383838;stop-opacity:0.074"/>
    <stop offset="0.6634" style="stop-color:#575757;stop-opacity:0.0685"/>
    <stop offset="0.71" style="stop-color:#7E7E7E;stop-opacity:0.0631"/>
    <stop offset="0.7556" style="stop-color:#ADADAD;stop-opacity:0.0577"/>
    <stop offset="0.7993" style="stop-color:#E1E1E1;stop-opacity:0.0527"/>
    <stop offset="0.8221" style="stop-color:#FFFFFF;stop-opacity:0.05"/>
    <stop offset="0.861" style="stop-color:#BDBDBD;stop-opacity:0.0609"/>
    <stop offset="0.9115" style="stop-color:#6D6D6D;stop-opacity:0.0751"/>
    <stop offset="0.9532" style="stop-color:#323232;stop-opacity:0.0868"/>
    <stop offset="0.9837" style="stop-color:#0E0E0E;stop-opacity:0.0954"/>
    <stop offset="1" style="stop-color:#000000;stop-opacity:0.1"/>
  </linearGradient>
  <rect x="95.331" y="1.294" fill="url(#SVGID_29_)" width="0.342" height="2.292"/>
  <linearGradient id="SVGID_30_" gradientUnits="userSpaceOnUse" x1="3.6465" y1="2.4395" x2="4.6426" y2="2.4395">
    <stop offset="0" style="stop-color:#000000;stop-opacity:0.1"/>
    <stop offset="0.2577" style="stop-color:#000000;stop-opacity:0.1"/>
    <stop offset="0.2958" style="stop-color:#0E0E0E;stop-opacity:0.0954"/>
    <stop offset="0.3675" style="stop-color:#323232;stop-opacity:0.0868"/>
    <stop offset="0.4652" style="stop-color:#6D6D6D;stop-opacity:0.0751"/>
    <stop offset="0.5837" style="stop-color:#BDBDBD;stop-opacity:0.0609"/>
    <stop offset="0.6748" style="stop-color:#FFFFFF;stop-opacity:0.05"/>
    <stop offset="0.7864" style="stop-color:#9C9C9C;stop-opacity:0.0389"/>
    <stop offset="0.9172" style="stop-color:#2D2D2D;stop-opacity:0.0258"/>
    <stop offset="0.9755" style="stop-color:#000000;stop-opacity:0.02"/>
  </linearGradient>
  <rect x="3.646" y="1.294" fill="url(#SVGID_30_)" width="0.996" height="2.292"/>
  <linearGradient id="SVGID_31_" gradientUnits="userSpaceOnUse" x1="4.6426" y1="2.4395" x2="4.9844" y2="2.4395">
    <stop offset="0.0245" style="stop-color:#000000;stop-opacity:0.02"/>
    <stop offset="0.3926" style="stop-color:#000000;stop-opacity:0.1"/>
    <stop offset="0.4588" style="stop-color:#030303;stop-opacity:0.0923"/>
    <stop offset="0.5143" style="stop-color:#0E0E0E;stop-opacity:0.0858"/>
    <stop offset="0.5661" style="stop-color:#1F1F1F;stop-opacity:0.0798"/>
    <stop offset="0.6155" style="stop-color:#383838;stop-opacity:0.074"/>
    <stop offset="0.6634" style="stop-color:#575757;stop-opacity:0.0685"/>
    <stop offset="0.71" style="stop-color:#7E7E7E;stop-opacity:0.0631"/>
    <stop offset="0.7556" style="stop-color:#ADADAD;stop-opacity:0.0577"/>
    <stop offset="0.7993" style="stop-color:#E1E1E1;stop-opacity:0.0527"/>
    <stop offset="0.8221" style="stop-color:#FFFFFF;stop-opacity:0.05"/>
    <stop offset="0.861" style="stop-color:#BDBDBD;stop-opacity:0.0609"/>
    <stop offset="0.9115" style="stop-color:#6D6D6D;stop-opacity:0.0751"/>
    <stop offset="0.9532" style="stop-color:#323232;stop-opacity:0.0868"/>
    <stop offset="0.9837" style="stop-color:#0E0E0E;stop-opacity:0.0954"/>
    <stop offset="1" style="stop-color:#000000;stop-opacity:0.1"/>
  </linearGradient>
  <rect x="4.643" y="1.294" fill="url(#SVGID_31_)" width="0.342" height="2.292"/>
  <linearGradient id="SVGID_32_" gradientUnits="userSpaceOnUse" x1="6.0068" y1="12.1563" x2="2.6357" y2="12.1563">
    <stop offset="0" style="stop-color:#FFFFFF;stop-opacity:0.05"/>
    <stop offset="0.0129" style="stop-color:#EBEBEB;stop-opacity:0.0565"/>
    <stop offset="0.0473" style="stop-color:#BABABA;stop-opacity:0.0738"/>
    <stop offset="0.0846" style="stop-color:#8E8E8E;stop-opacity:0.0925"/>
    <stop offset="0.1237" style="stop-color:#676767;stop-opacity:0.1122"/>
    <stop offset="0.1653" style="stop-color:#474747;stop-opacity:0.1332"/>
    <stop offset="0.21" style="stop-color:#2D2D2D;stop-opacity:0.1557"/>
    <stop offset="0.2591" style="stop-color:#191919;stop-opacity:0.1803"/>
    <stop offset="0.3147" style="stop-color:#0B0B0B;stop-opacity:0.2083"/>
    <stop offset="0.3825" style="stop-color:#020202;stop-opacity:0.2424"/>
    <stop offset="0.4969" style="stop-color:#000000;stop-opacity:0.3"/>
    <stop offset="0.651" style="stop-color:#020202;stop-opacity:0.2205"/>
    <stop offset="0.7174" style="stop-color:#090909;stop-opacity:0.1863"/>
    <stop offset="0.767" style="stop-color:#161616;stop-opacity:0.1607"/>
    <stop offset="0.8083" style="stop-color:#282828;stop-opacity:0.1394"/>
    <stop offset="0.8443" style="stop-color:#3F3F3F;stop-opacity:0.1208"/>
    <stop offset="0.8767" style="stop-color:#5B5B5B;stop-opacity:0.1041"/>
    <stop offset="0.9064" style="stop-color:#7D7D7D;stop-opacity:0.0888"/>
    <stop offset="0.934" style="stop-color:#A5A5A5;stop-opacity:0.0746"/>
    <stop offset="0.9588" style="stop-color:#D0D0D0;stop-opacity:0.0617"/>
    <stop offset="0.9816" style="stop-color:#FFFFFF;stop-opacity:0.05"/>
  </linearGradient>
  <path fill="url(#SVGID_32_)" d="M3.132,11.919l1.189,0.061l1.188-0.061c0.497,0,0.497,0.475,0.497,0.475h-0.49H4.321H4.32H3.126&#xD;&#xA;&#x9;&#x9;h-0.49C2.636,12.394,2.636,11.919,3.132,11.919z"/>
  <linearGradient id="SVGID_33_" gradientUnits="userSpaceOnUse" x1="5.0186" y1="11.4697" x2="3.6221" y2="11.4697">
    <stop offset="0" style="stop-color:#000000;stop-opacity:0.1"/>
    <stop offset="0.0163" style="stop-color:#0E0E0E;stop-opacity:0.0954"/>
    <stop offset="0.0468" style="stop-color:#323232;stop-opacity:0.0868"/>
    <stop offset="0.0885" style="stop-color:#6D6D6D;stop-opacity:0.0751"/>
    <stop offset="0.139" style="stop-color:#BDBDBD;stop-opacity:0.0609"/>
    <stop offset="0.1779" style="stop-color:#FFFFFF;stop-opacity:0.05"/>
    <stop offset="0.2007" style="stop-color:#E1E1E1;stop-opacity:0.0527"/>
    <stop offset="0.2444" style="stop-color:#ADADAD;stop-opacity:0.0577"/>
    <stop offset="0.29" style="stop-color:#7E7E7E;stop-opacity:0.0631"/>
    <stop offset="0.3366" style="stop-color:#575757;stop-opacity:0.0685"/>
    <stop offset="0.3845" style="stop-color:#383838;stop-opacity:0.074"/>
    <stop offset="0.4339" style="stop-color:#1F1F1F;stop-opacity:0.0798"/>
    <stop offset="0.4857" style="stop-color:#0E0E0E;stop-opacity:0.0858"/>
    <stop offset="0.5412" style="stop-color:#030303;stop-opacity:0.0923"/>
    <stop offset="0.6074" style="stop-color:#000000;stop-opacity:0.1"/>
    <stop offset="0.9755" style="stop-color:#000000;stop-opacity:0.02"/>
  </linearGradient>
  <rect x="3.622" y="10.96" fill="url(#SVGID_33_)" width="1.396" height="1.02"/>
  <linearGradient id="SVGID_34_" gradientUnits="userSpaceOnUse" x1="4.3193" y1="11.9424" x2="4.3193" y2="12.0479">
    <stop offset="0" style="stop-color:#FFFFFF;stop-opacity:0.3"/>
    <stop offset="0.5867" style="stop-color:#818385;stop-opacity:0.124"/>
    <stop offset="1" style="stop-color:#000000;stop-opacity:0"/>
  </linearGradient>
  <polygon fill="url(#SVGID_34_)" points="3.101,11.942 4.32,11.942 4.32,11.947 5.538,11.947 4.32,12.042 4.32,12.048 &#x9;"/>
  <linearGradient id="SVGID_35_" gradientUnits="userSpaceOnUse" x1="4.3203" y1="10.9922" x2="4.3203" y2="11.0977">
    <stop offset="0" style="stop-color:#FFFFFF;stop-opacity:0.3"/>
    <stop offset="0.5867" style="stop-color:#818385;stop-opacity:0.124"/>
    <stop offset="1" style="stop-color:#000000;stop-opacity:0"/>
  </linearGradient>
  <rect x="3.667" y="10.992" fill="url(#SVGID_35_)" width="1.308" height="0.105"/>
  <linearGradient id="SVGID_36_" gradientUnits="userSpaceOnUse" x1="97.6807" y1="12.1563" x2="94.3096" y2="12.1563">
    <stop offset="0" style="stop-color:#FFFFFF;stop-opacity:0.05"/>
    <stop offset="0.0129" style="stop-color:#EBEBEB;stop-opacity:0.0565"/>
    <stop offset="0.0473" style="stop-color:#BABABA;stop-opacity:0.0738"/>
    <stop offset="0.0846" style="stop-color:#8E8E8E;stop-opacity:0.0925"/>
    <stop offset="0.1237" style="stop-color:#676767;stop-opacity:0.1122"/>
    <stop offset="0.1653" style="stop-color:#474747;stop-opacity:0.1332"/>
    <stop offset="0.21" style="stop-color:#2D2D2D;stop-opacity:0.1557"/>
    <stop offset="0.2591" style="stop-color:#191919;stop-opacity:0.1803"/>
    <stop offset="0.3147" style="stop-color:#0B0B0B;stop-opacity:0.2083"/>
    <stop offset="0.3825" style="stop-color:#020202;stop-opacity:0.2424"/>
    <stop offset="0.4969" style="stop-color:#000000;stop-opacity:0.3"/>
    <stop offset="0.651" style="stop-color:#020202;stop-opacity:0.2205"/>
    <stop offset="0.7174" style="stop-color:#090909;stop-opacity:0.1863"/>
    <stop offset="0.767" style="stop-color:#161616;stop-opacity:0.1607"/>
    <stop offset="0.8083" style="stop-color:#282828;stop-opacity:0.1394"/>
    <stop offset="0.8443" style="stop-color:#3F3F3F;stop-opacity:0.1208"/>
    <stop offset="0.8767" style="stop-color:#5B5B5B;stop-opacity:0.1041"/>
    <stop offset="0.9064" style="stop-color:#7D7D7D;stop-opacity:0.0888"/>
    <stop offset="0.934" style="stop-color:#A5A5A5;stop-opacity:0.0746"/>
    <stop offset="0.9588" style="stop-color:#D0D0D0;stop-opacity:0.0617"/>
    <stop offset="0.9816" style="stop-color:#FFFFFF;stop-opacity:0.05"/>
  </linearGradient>
  <path fill="url(#SVGID_36_)" d="M94.806,11.919l1.189,0.061l1.189-0.061c0.496,0,0.496,0.475,0.496,0.475h-0.49h-1.194h-0.001H94.8&#xD;&#xA;&#x9;&#x9;h-0.49C94.31,12.394,94.31,11.919,94.806,11.919z"/>
  <linearGradient id="SVGID_37_" gradientUnits="userSpaceOnUse" x1="96.6934" y1="11.4512" x2="95.2969" y2="11.4512">
    <stop offset="0" style="stop-color:#000000;stop-opacity:0.1"/>
    <stop offset="0.0163" style="stop-color:#0E0E0E;stop-opacity:0.0954"/>
    <stop offset="0.0468" style="stop-color:#323232;stop-opacity:0.0868"/>
    <stop offset="0.0885" style="stop-color:#6D6D6D;stop-opacity:0.0751"/>
    <stop offset="0.139" style="stop-color:#BDBDBD;stop-opacity:0.0609"/>
    <stop offset="0.1779" style="stop-color:#FFFFFF;stop-opacity:0.05"/>
    <stop offset="0.2007" style="stop-color:#E1E1E1;stop-opacity:0.0527"/>
    <stop offset="0.2444" style="stop-color:#ADADAD;stop-opacity:0.0577"/>
    <stop offset="0.29" style="stop-color:#7E7E7E;stop-opacity:0.0631"/>
    <stop offset="0.3366" style="stop-color:#575757;stop-opacity:0.0685"/>
    <stop offset="0.3845" style="stop-color:#383838;stop-opacity:0.074"/>
    <stop offset="0.4339" style="stop-color:#1F1F1F;stop-opacity:0.0798"/>
    <stop offset="0.4857" style="stop-color:#0E0E0E;stop-opacity:0.0858"/>
    <stop offset="0.5412" style="stop-color:#030303;stop-opacity:0.0923"/>
    <stop offset="0.6074" style="stop-color:#000000;stop-opacity:0.1"/>
    <stop offset="0.9755" style="stop-color:#000000;stop-opacity:0.02"/>
  </linearGradient>
  <rect x="95.297" y="10.96" fill="url(#SVGID_37_)" width="1.396" height="0.982"/>
  <linearGradient id="SVGID_38_" gradientUnits="userSpaceOnUse" x1="95.9932" y1="11.9424" x2="95.9932" y2="12.0479">
    <stop offset="0" style="stop-color:#FFFFFF;stop-opacity:0.3"/>
    <stop offset="0.5867" style="stop-color:#818385;stop-opacity:0.124"/>
    <stop offset="1" style="stop-color:#000000;stop-opacity:0"/>
  </linearGradient>
  <polygon fill="url(#SVGID_38_)" points="94.773,11.942 95.995,11.942 95.995,11.947 97.213,11.947 95.995,12.042 95.995,12.048 &#x9;&#xD;&#xA;&#x9;&#x9;"/>
  <linearGradient id="SVGID_39_" gradientUnits="userSpaceOnUse" x1="95.9941" y1="10.9922" x2="95.9941" y2="11.0977">
    <stop offset="0" style="stop-color:#FFFFFF;stop-opacity:0.3"/>
    <stop offset="0.5867" style="stop-color:#818385;stop-opacity:0.124"/>
    <stop offset="1" style="stop-color:#000000;stop-opacity:0"/>
  </linearGradient>
  <rect x="95.34" y="10.992" fill="url(#SVGID_39_)" width="1.309" height="0.105"/>
  <rect x="95.331" y="1.294" fill="#414042" width="1.336" height="2.292"/>
  <rect x="3.646" y="1.294" fill="#414042" width="1.338" height="2.292"/>
  <rect x="9.538" y="13.006" fill-rule="evenodd" fill="#414042" width="0.548" height="11.752"/>
  <rect x="90.017" y="13.006" fill-rule="evenodd" fill="#414042" width="0.548" height="11.752"/>
  <linearGradient id="SVGID_40_" gradientUnits="userSpaceOnUse" x1="4.9688" y1="2.4404" x2="3.6465" y2="2.4404">
    <stop offset="0" style="stop-color:#000000;stop-opacity:0.1"/>
    <stop offset="0.0163" style="stop-color:#0E0E0E;stop-opacity:0.0954"/>
    <stop offset="0.0468" style="stop-color:#323232;stop-opacity:0.0868"/>
    <stop offset="0.0885" style="stop-color:#6D6D6D;stop-opacity:0.0751"/>
    <stop offset="0.139" style="stop-color:#BDBDBD;stop-opacity:0.0609"/>
    <stop offset="0.1779" style="stop-color:#FFFFFF;stop-opacity:0.05"/>
    <stop offset="0.2007" style="stop-color:#E1E1E1;stop-opacity:0.0527"/>
    <stop offset="0.2444" style="stop-color:#ADADAD;stop-opacity:0.0577"/>
    <stop offset="0.29" style="stop-color:#7E7E7E;stop-opacity:0.0631"/>
    <stop offset="0.3366" style="stop-color:#575757;stop-opacity:0.0685"/>
    <stop offset="0.3845" style="stop-color:#383838;stop-opacity:0.074"/>
    <stop offset="0.4339" style="stop-color:#1F1F1F;stop-opacity:0.0798"/>
    <stop offset="0.4857" style="stop-color:#0E0E0E;stop-opacity:0.0858"/>
    <stop offset="0.5412" style="stop-color:#030303;stop-opacity:0.0923"/>
    <stop offset="0.6074" style="stop-color:#000000;stop-opacity:0.1"/>
    <stop offset="0.9755" style="stop-color:#000000;stop-opacity:0.02"/>
  </linearGradient>
  <rect x="3.646" y="1.294" fill="url(#SVGID_40_)" width="1.322" height="2.292"/>
  <linearGradient id="SVGID_41_" gradientUnits="userSpaceOnUse" x1="95.3457" y1="2.4395" x2="96.667" y2="2.4395">
    <stop offset="0.0245" style="stop-color:#000000;stop-opacity:0.02"/>
    <stop offset="0.3926" style="stop-color:#000000;stop-opacity:0.1"/>
    <stop offset="0.4588" style="stop-color:#030303;stop-opacity:0.0923"/>
    <stop offset="0.5143" style="stop-color:#0E0E0E;stop-opacity:0.0858"/>
    <stop offset="0.5661" style="stop-color:#1F1F1F;stop-opacity:0.0798"/>
    <stop offset="0.6155" style="stop-color:#383838;stop-opacity:0.074"/>
    <stop offset="0.6634" style="stop-color:#575757;stop-opacity:0.0685"/>
    <stop offset="0.71" style="stop-color:#7E7E7E;stop-opacity:0.0631"/>
    <stop offset="0.7556" style="stop-color:#ADADAD;stop-opacity:0.0577"/>
    <stop offset="0.7993" style="stop-color:#E1E1E1;stop-opacity:0.0527"/>
    <stop offset="0.8221" style="stop-color:#FFFFFF;stop-opacity:0.05"/>
    <stop offset="0.861" style="stop-color:#BDBDBD;stop-opacity:0.0609"/>
    <stop offset="0.9115" style="stop-color:#6D6D6D;stop-opacity:0.0751"/>
    <stop offset="0.9532" style="stop-color:#323232;stop-opacity:0.0868"/>
    <stop offset="0.9837" style="stop-color:#0E0E0E;stop-opacity:0.0954"/>
    <stop offset="1" style="stop-color:#000000;stop-opacity:0.1"/>
  </linearGradient>
  <rect x="95.346" y="1.293" fill="url(#SVGID_41_)" width="1.321" height="2.293"/>
</svg>