<svg version="1.2" baseProfile="tiny" id="EdgeSVG_65VNZ" x="0px" y="0px" width="100.523px" height="301.61px" viewBox="0 0 100.523 301.61" xmlns:xlink="http://www.w3.org/1999/xlink" xmlns="http://www.w3.org/2000/svg">
  <linearGradient id="SVGID_1_" gradientUnits="userSpaceOnUse" x1="0" y1="150.8052" x2="100.5234" y2="150.8052">
    <stop offset="0" style="stop-color:#000000;stop-opacity:0.5"/>
    <stop offset="1" style="stop-color:#000000;stop-opacity:0.5"/>
  </linearGradient>
  <path fill-rule="evenodd" fill="url(#SVGID_1_)" d="M80.639,301.61v-3.876l3.165-0.107v-26.141l-29.159,0.099v26.1h3.008v3.926&#xD;&#xA;&#x9;&#x9;H42.674v-3.926h3.077V271.59H16.398v26.095h3.755v3.926H3.32v-3.926h3.309v-85.013l-4.904-4.436H0v-5.144h0.803v-22.59H0v-5.144&#xD;&#xA;&#x9;&#x9;h0.803v-22.59H0v-5.144h0.803v-22.59H0v-5.144h0.803V97.3H0v-5.144h0.803V69.565H0v-5.144h0.803v-22.59H0v-5.144h0.803v-22.59H0&#xD;&#xA;&#x9;&#x9;V8.953h1.254C3.267,3.103,11.607,0,17.332,0h65.997c5.766,0,14.055,3.103,15.913,8.953h1.282v5.145h-0.906v22.59h0.906v5.144&#xD;&#xA;&#x9;&#x9;h-0.906v22.59h0.906v5.144h-0.906v22.591h0.906V97.3h-0.906v22.59h0.906v5.144h-0.906v22.59h0.906v5.144h-0.906v22.59h0.906v5.144&#xD;&#xA;&#x9;&#x9;h-0.906v22.59h0.906v5.144h-1.829l-4.771,4.311l0.001,85.138h3.545v3.926H80.639z M36.191,266.121L17.108,253.07h-0.71v13.051&#xD;&#xA;&#x9;&#x9;H36.191z M63.959,266.101l19.845-0.082v-12.997l-0.764,0.03L63.959,266.101z M45.75,266.032V253.07H26.796L45.75,266.032z&#xD;&#xA;&#x9;&#x9; M54.645,265.846l18.682-12.775H54.645V265.846z M45.25,247.602l-28.851-26.094v26.094H45.25z M55.127,247.595l28.677-0.097&#xD;&#xA;&#x9;&#x9;v-25.819L55.127,247.595z"/>
</svg>