<svg version="1.2" baseProfile="tiny" viewBox="0 0 84.158 45.728" xmlns:xlink="http://www.w3.org/1999/xlink" xmlns="http://www.w3.org/2000/svg">
<path style="fill:#ffffff;" d="M84.158,11.6199C84.158,12.1719,83.7111,12.62,83.1582,12.62L59.6874,12.62L56.534,22.5421C56.4018,22.9582,56.0164,23.239,55.5813,23.239C55.1462,23.239,54.7599,22.9568,54.6278,22.5421L48.8302,4.3012L43.0317,22.5412C42.9004,22.9568,42.5141,23.2381,42.079,23.2381C41.6439,23.2381,41.2576,22.9559,41.1263,22.5412L35.3278,4.3012L29.5302,22.5412C29.3981,22.9568,29.0118,23.2381,28.5767,23.2381C28.1416,23.2381,27.7561,22.9559,27.624,22.5412L21.8264,4.3012L19.4026,11.9231C19.2713,12.3388,18.8851,12.62,18.45,12.62L0.9998,12.62L0.9998,12.62C0.4469,12.62,0.0,12.1719,0.0,11.6199C0.0,11.068,0.4469,10.6199,0.9998,10.6199L17.7186,10.6199L20.8729,0.6969C21.005,0.2821,21.3913,0.0,21.8264,0.0C22.2606,0.0,22.6469,0.2821,22.779,0.6969L28.5767,18.9369L34.3752,0.6969C34.5073,0.2821,34.8927,0.0,35.3278,0.0C35.7629,0.0,36.1492,0.2821,36.2814,0.6969L42.079,18.9369L47.8766,0.6969C48.0088,0.2821,48.3951,0.0,48.8302,0.0C49.2652,0.0,49.6507,0.2821,49.7828,0.6969L55.5813,18.9369L58.0034,11.3159C58.1347,10.9002,58.5209,10.619,58.956,10.619L83.1582,10.619C83.7111,10.6199,84.158,11.0671,84.158,11.6199M42.6883,24.711C42.4148,24.3049,41.7449,24.3049,41.4714,24.711L37.4924,30.6419C37.3417,30.8659,37.3266,31.1559,37.4537,31.3941C37.5816,31.6319,37.8299,31.7819,38.1,31.7819L41.0792,31.7819L41.0792,44.727C41.0792,45.279,41.5261,45.7271,42.079,45.7271C42.6319,45.7271,43.0788,45.279,43.0788,44.727L43.0788,31.7819L46.058,31.7819C46.329,31.7819,46.5772,31.6328,46.7043,31.3941C46.8314,31.1549,46.8162,30.8659,46.6656,30.6419L42.6883,24.711Z"/>
</svg>