<svg version="1.2" baseProfile="tiny" viewBox="0 0 84.0 56.001" xmlns:xlink="http://www.w3.org/1999/xlink" xmlns="http://www.w3.org/2000/svg">
<path style="fill:#ffffff;" d="M83.0004,26.9998L46.9199,26.9998L46.9199,26.9998C46.9308,25.9962,46.9568,25.019,46.998,24.067L58.0801,12.9861L60.186,15.0923C60.3263,15.2312,60.5119,15.3062,60.7043,15.3062C60.7748,15.3062,60.8479,15.295,60.9168,15.2743C61.1764,15.1948,61.3704,14.9803,61.4233,14.7148L62.8026,7.708C62.8496,7.4677,62.7749,7.2208,62.6018,7.0488C62.4296,6.8769,62.1818,6.8008,61.9433,6.8478L54.936,8.2299C54.6697,8.282,54.4564,8.4769,54.3774,8.735C54.2976,8.9938,54.3682,9.2749,54.5597,9.4658L56.6647,11.5709L47.1752,21.062C48.1228,8.6449,51.324,1.5003,51.3618,1.4168C51.5911,0.9151,51.371,0.3209,50.8704,0.0907C50.3672,-0.1378,49.775,0.0801,49.5449,0.5819C49.3744,0.9531,45.7523,9.038,45.0416,23.1939L38.3678,29.8681L38.3678,1.0002C38.3678,0.448,37.921,0.0,37.3682,0.0C36.8147,0.0,36.3678,0.448,36.3678,1.0002L36.3678,26.9998L0.9996,26.9998L0.9996,26.9998C0.4469,26.9998,0.0,27.4478,0.0,27.9999C0.0,28.5521,0.4469,29.0001,0.9996,29.0001L36.3678,29.0001L36.3678,31.869L18.2818,49.9562C17.8912,50.3471,17.8912,50.9788,18.2818,51.3703C18.4766,51.5652,18.7328,51.6632,18.989,51.6632C19.2452,51.6632,19.5006,51.5652,19.6963,51.3703L36.3678,34.6982L36.3678,55.0008C36.3678,55.553,36.8147,56.001,37.3682,56.001C37.921,56.001,38.3678,55.553,38.3678,55.0008L38.3678,32.6979L44.9417,26.1239C44.9291,26.7461,44.9123,27.3582,44.9123,27.9999L44.9123,27.9999L44.9123,27.9999L44.9123,27.9999C44.9123,45.1402,49.355,55.0059,49.544,55.418C49.7129,55.7848,50.0749,56.001,50.4538,56.001C50.594,56.001,50.7352,55.9708,50.8712,55.9092C51.3719,55.679,51.5928,55.0848,51.3618,54.5831C51.3181,54.4879,47.1013,45.0847,46.9283,29.0001L83.0004,29.0001L83.0004,29.0001C83.5531,29.0001,84.0,28.5521,84.0,27.9999C84.0,27.4478,83.5531,26.9998,83.0004,26.9998Z"/>
</svg>