<svg version="1.2" baseProfile="tiny" viewBox="0 0 84.158 42.501" xmlns:xlink="http://www.w3.org/1999/xlink" xmlns="http://www.w3.org/2000/svg">
<path style="fill:#ffffff;" d="M83.1582,20.2509L63.2792,20.2509L63.2792,20.2509C62.7524,8.9992,53.4597,0.0,42.0798,0.0C30.7,0.0,21.4073,8.9992,20.8796,20.2509L0.9998,20.2509L0.9998,20.2509C0.4469,20.2509,0.0,20.6988,0.0,21.2509C0.0,21.803,0.4469,22.251,0.9998,22.251L20.8796,22.251C21.4073,33.5031,30.7,42.501,42.0798,42.501C53.4597,42.501,62.7524,33.5031,63.2792,22.251L83.1582,22.251C83.7111,22.251,84.158,21.803,84.158,21.2509C84.158,20.6988,83.7111,20.2509,83.1582,20.2509M42.0798,40.5009C31.465,40.5009,22.8287,31.8651,22.8287,21.2509C22.8287,10.6371,31.465,2.0001,42.0798,2.0001C52.6938,2.0001,61.3301,10.6359,61.3301,21.2501C61.3301,31.8638,52.6938,40.5009,42.0798,40.5009Z"/>
</svg>