<svg version="1.2" baseProfile="tiny" viewBox="0 0 84.158 44.019" xmlns:xlink="http://www.w3.org/1999/xlink" xmlns="http://www.w3.org/2000/svg">
<path style="fill:#ffffff;" d="M83.1582,8.9112L70.0767,8.9112L70.0767,1.0001L70.0767,1.0001C70.0767,0.4481,69.6298,0.0,69.0769,0.0L15.0769,0.0C14.524,0.0,14.0771,0.4481,14.0771,1.0001L14.0771,8.9121L0.9998,8.9121L0.9998,8.9121C0.4469,8.9121,0.0,9.3602,0.0,9.9122C0.0,10.4642,0.4469,10.9119,0.9998,10.9119L14.0771,10.9119L14.0771,18.8221C14.0771,19.3741,14.524,19.8222,15.0769,19.8222L69.0769,19.8222C69.6298,19.8222,70.0767,19.3741,70.0767,18.8221L70.0767,10.911L83.1582,10.911C83.7111,10.911,84.158,10.4629,84.158,9.9109C84.158,9.3589,83.7111,8.9112,83.1582,8.9112M68.0771,17.822L16.0767,17.822L16.0767,1.9998L68.0771,1.9998L68.0771,17.822M36.0827,14.274C36.044,14.105,36.0247,13.7828,36.0247,13.3078L36.0247,12.6088C36.0247,11.8798,35.9237,11.338,35.7251,10.9832C35.5239,10.6279,35.1848,10.3541,34.7051,10.1609C35.2782,9.9628,35.6889,9.6261,35.9388,9.148C36.1888,8.67,36.3133,8.1849,36.3133,7.691C36.3133,7.2821,36.2502,6.918,36.1206,6.598C35.9919,6.278,35.8176,5.987,35.598,5.7229C35.3321,5.4029,35.0072,5.1608,34.6243,4.9962C34.2422,4.8311,33.6943,4.7422,32.9832,4.7272L28.0086,4.7272L28.0086,15.1271L30.1319,15.1271L30.1319,11.0501L32.2552,11.0501C32.8586,11.0501,33.2727,11.1601,33.4907,11.382C33.7129,11.603,33.8273,12.0449,33.8349,12.7078L33.8509,13.6749C33.8551,13.9809,33.8862,14.2789,33.9426,14.5712C33.9704,14.712,34.0167,14.8978,34.084,15.1289L36.4817,15.1289L36.4817,14.8679C36.2738,14.7402,36.14,14.5421,36.0827,14.274M33.5193,9.159C33.287,9.2722,32.9369,9.3281,32.4724,9.3281L30.1336,9.3281L30.1336,6.5342L32.5321,6.5342C32.979,6.5342,33.3139,6.5949,33.5378,6.7169C33.935,6.933,34.1353,7.3569,34.1353,7.9868C34.1353,8.5709,33.9291,8.9609,33.5193,9.159M40.5827,13.2581L46.3408,13.2581L46.3408,15.128L38.4602,15.128L38.4602,15.128L38.4602,4.7281L46.0866,4.7281L46.0866,6.5698L40.5827,6.5698L40.5827,8.7778L45.6364,8.7778L45.6364,10.5839L40.5827,10.5839L40.5827,13.2581M55.2186,9.9628C55.8388,10.4532,56.1494,11.1601,56.1494,12.0872C56.1494,13.0371,55.7808,13.8259,55.0469,14.4541C54.3122,15.0818,53.2754,15.3961,51.9331,15.3961C50.5647,15.3961,49.4883,15.0871,48.7039,14.4682C47.9187,13.8501,47.5274,13.0001,47.5274,11.9181L49.601,11.9181C49.6684,12.3931,49.7997,12.7479,49.9966,12.983C50.3559,13.4108,50.9753,13.6252,51.8489,13.6252C52.3724,13.6252,52.7982,13.568,53.1239,13.4562C53.7433,13.24,54.0522,12.8381,54.0522,12.2492C54.0522,11.9058,53.9024,11.6399,53.5977,11.452C53.2939,11.2689,52.8117,11.106,52.1544,10.9651L51.0284,10.7182C49.9217,10.473,49.1617,10.2071,48.7477,9.921C48.0466,9.4412,47.6974,8.6911,47.6974,7.6699C47.6974,6.7389,48.0391,5.965,48.7241,5.3492C49.4092,4.7329,50.4174,4.4248,51.7454,4.4248C52.8537,4.4248,53.8014,4.7162,54.5849,5.2959C55.3684,5.877,55.7782,6.7199,55.817,7.8261L53.7281,7.8261C53.6886,7.2011,53.4092,6.756,52.8891,6.4928C52.5424,6.318,52.1098,6.23,51.5947,6.23C51.0208,6.23,50.563,6.3431,50.2196,6.569C49.8779,6.7952,49.7062,7.1099,49.7062,7.514C49.7062,7.886,49.8762,8.1629,50.2137,8.3469C50.43,8.4701,50.8912,8.6132,51.5947,8.7778L53.4201,9.2079C54.2196,9.3959,54.8188,9.6481,55.2186,9.9628M60.1637,28.9341C60.3144,29.1582,60.3287,29.4478,60.2016,29.686C60.0737,29.9241,59.8262,30.0738,59.5561,30.0738L56.5769,30.0738L56.5769,43.0189C56.5769,43.5709,56.13,44.019,55.5771,44.019C55.0242,44.019,54.5773,43.5709,54.5773,43.0189L54.5773,30.0738L51.5981,30.0738C51.3271,30.0738,51.0789,29.925,50.9518,29.686C50.8247,29.4469,50.8398,29.1582,50.9897,28.9341L54.9686,23.003C55.2421,22.5972,55.912,22.5972,56.1864,23.003L60.1637,28.9341Z"/>
</svg>