<svg version="1.2" baseProfile="tiny" viewBox="0 0 84.0 56.001" xmlns:xlink="http://www.w3.org/1999/xlink" xmlns="http://www.w3.org/2000/svg">
<path style="fill:#ffffff;" d="M84.0,27.9999C84.0,28.5521,83.5531,29.0001,83.0004,29.0001L46.9291,29.0001L46.9291,29.0001C47.1022,45.0847,51.319,54.4879,51.3626,54.5831C51.5928,55.0848,51.3727,55.679,50.8721,55.9092C50.736,55.9708,50.5949,56.001,50.4546,56.001C50.0758,56.001,49.7137,55.7848,49.5449,55.418C49.355,55.007,44.9123,45.1402,44.9123,27.9999L44.9123,27.9999L44.9123,27.9999L44.9123,27.9999C44.9123,10.8603,49.355,0.9951,49.5449,0.583C49.775,0.0812,50.3672,-0.1372,50.8704,0.0918C51.371,0.322,51.592,0.9162,51.3618,1.4179C51.3181,1.5131,47.0921,10.946,46.9199,26.9998L83.0004,26.9998L83.0004,26.9998C83.5531,26.9998,84.0,27.4478,84.0,27.9999M37.3682,0.0C36.8147,0.0,36.3678,0.448,36.3678,1.0002L36.3678,26.9998L0.9996,26.9998L0.9996,26.9998C0.4469,26.9998,0.0,27.4478,0.0,27.9999C0.0,28.5521,0.4469,29.0001,0.9996,29.0001L36.3678,29.0001L36.3678,55.0003C36.3678,55.5519,36.8147,55.9999,37.3682,55.9999C37.921,55.9999,38.3678,55.5519,38.3678,55.0003L38.3678,1.0002C38.3678,0.448,37.921,0.0,37.3682,0.0Z"/>
</svg>