<svg version="1.2" baseProfile="tiny" viewBox="0 0 42.501 42.501" xmlns:xlink="http://www.w3.org/1999/xlink" xmlns="http://www.w3.org/2000/svg">
<path style="fill:#ffffff;" d="M21.2509,0.0C9.533,0.0,0.0,9.533,0.0,21.2501C0.0,32.9672,9.533,42.5001,21.2509,42.5001C32.9689,42.5001,42.501,32.9672,42.501,21.2501C42.501,9.533,32.9689,0.0,21.2509,0.0M21.2509,40.5009C10.6359,40.5009,2.0001,31.8651,2.0001,21.2501C2.0001,10.635,10.6359,2.0001,21.2509,2.0001C31.8651,2.0001,40.5009,10.6359,40.5009,21.2501C40.5009,31.8638,31.8651,40.5009,21.2509,40.5009M21.5489,19.913L29.369,19.913L29.369,27.071C28.6091,27.8071,27.5079,28.454,26.0642,29.0142C24.623,29.573,23.1622,29.854,21.6832,29.854C19.8042,29.854,18.1649,29.4591,16.7671,28.6699C15.3709,27.8811,14.3199,26.754,13.619,25.2868C12.9161,23.8201,12.5641,22.2242,12.5641,20.4999C12.5641,18.629,12.9569,16.9668,13.7401,15.512C14.5251,14.0572,15.6739,12.942,17.1849,12.1659C18.3371,11.5679,19.771,11.2708,21.486,11.2708C23.7181,11.2708,25.4611,11.7379,26.7149,12.6729C27.9691,13.608,28.7762,14.9021,29.1349,16.552L25.5312,17.2282C25.2792,16.345,24.8019,15.648,24.1032,15.138C23.4061,14.6259,22.5332,14.37,21.486,14.37C19.9019,14.37,18.6401,14.8741,17.7051,15.8779C16.7692,16.8839,16.303,18.374,16.303,20.3529C16.303,22.486,16.7781,24.0849,17.725,25.1521C18.672,26.2189,19.9138,26.7518,21.452,26.7518C22.2119,26.7518,22.9731,26.6018,23.7368,26.3051C24.501,26.0059,25.1572,25.6451,25.7042,25.2188L25.7042,22.9399L21.5501,22.9399L21.5501,19.913Z"/>
</svg>