<svg version="1.2" baseProfile="tiny" viewBox="0 0 64.438 80.545" xmlns:xlink="http://www.w3.org/1999/xlink" xmlns="http://www.w3.org/2000/svg">
<path style="fill:#ffffff;" d="M33.2197,15.6789L33.2197,20.7428C33.2197,21.2953,32.7732,21.7431,32.2203,21.7431C31.6668,21.7431,31.2202,21.2953,31.2202,20.7428L31.2202,15.6789C31.2202,15.1272,31.6668,14.6793,32.2203,14.6793C32.7732,14.6793,33.2197,15.1272,33.2197,15.6789M32.2203,59.2416C31.6668,59.2416,31.2202,59.6903,31.2202,60.242L31.2202,65.3059C31.2202,65.8576,31.6668,66.3063,32.2203,66.3063C32.7732,66.3063,33.2197,65.8576,33.2197,65.3059L33.2197,60.242C33.2197,59.6903,32.7719,59.2416,32.2203,59.2416M28.2412,7.3747L31.2202,7.3747L31.2202,9.6018C31.2202,10.1543,31.6668,10.6021,32.2203,10.6021C32.7732,10.6021,33.2197,10.1543,33.2197,9.6018L33.2197,7.3747L36.1987,7.3747C36.47,7.3747,36.7181,7.2257,36.845,6.9873C36.9719,6.7481,36.9571,6.4589,36.807,6.235L32.8279,0.3037C32.5547,-0.1023,31.8852,-0.1023,31.6107,0.3037L27.6323,6.235C27.4822,6.4589,27.4667,6.7489,27.5943,6.9873C27.7232,7.2257,27.9712,7.3747,28.2412,7.3747M36.198,73.1502L33.2197,73.1502L33.2197,73.1502L33.2197,71.383C33.2197,70.8313,32.7732,70.3826,32.2203,70.3826C31.6668,70.3826,31.2202,70.8313,31.2202,71.383L31.2202,73.1502L28.2412,73.1502C27.97,73.1502,27.7219,73.2992,27.5949,73.5384C27.468,73.7768,27.4828,74.066,27.6329,74.2899L31.612,80.2212C31.7492,80.4242,31.9761,80.5458,32.2203,80.5458C32.4639,80.5458,32.692,80.4242,32.8279,80.2212L36.807,74.2899C36.9571,74.066,36.9719,73.776,36.845,73.5384C36.7168,73.2992,36.4687,73.1502,36.198,73.1502M54.001,27.0277C54.001,24.1506,56.342,21.8092,59.2198,21.8092C62.0983,21.8092,64.4393,24.1498,64.4393,27.0277C64.4393,29.9064,62.0983,32.247,59.2198,32.247C56.342,32.247,54.001,29.9047,54.001,27.0277M56.0011,27.0277C56.0011,28.8029,57.4452,30.2471,59.2198,30.2471C60.9951,30.2471,62.4391,28.8029,62.4391,27.0277C62.4391,25.2533,60.9951,23.8091,59.2198,23.8091C57.4452,23.8091,56.0011,25.2533,56.0011,27.0277M10.3391,55.0042C9.8822,57.4173,7.7641,59.2513,5.2188,59.2513C2.341,59.2513,0.0,56.9099,0.0,54.032C0.0,51.1541,2.341,48.8127,5.2188,48.8127C7.7319,48.8127,9.8339,50.5992,10.3268,52.9672L31.2782,48.8119C31.4032,48.4027,31.7692,48.1007,32.219,48.1007C32.5309,48.1007,32.797,48.2521,32.9813,48.4752L53.008,44.5027L49.6488,44.4681C49.3782,44.4649,49.132,44.3126,49.007,44.0726C48.882,43.8334,48.9001,43.5442,49.0528,43.3211L50.6412,41.0063C44.6272,38.5488,38.5951,37.7007,33.1643,37.691C33.1888,37.778,33.2191,37.865,33.2191,37.9601L33.2191,43.0239C33.2191,43.5757,32.7719,44.0243,32.219,44.0243C31.6661,44.0243,31.2189,43.5757,31.2189,43.0239L31.2189,37.9601C31.2189,37.8747,31.2473,37.7982,31.2679,37.7176C22.07,38.0253,14.9522,40.5737,13.2272,41.2447L14.6513,43.3211C14.804,43.5442,14.822,43.8334,14.697,44.0726C14.572,44.3126,14.3259,44.4649,14.0552,44.4681L6.9142,44.5422C6.911,44.5422,6.909,44.5422,6.9058,44.5422C6.6648,44.5422,6.4393,44.423,6.302,44.224C6.1629,44.0227,6.1351,43.7657,6.2247,43.5386L8.866,36.9033C8.9672,36.652,9.1972,36.4756,9.4659,36.4458C9.743,36.412,9.9988,36.5368,10.1509,36.7591L12.0679,39.554C13.271,39.041,32.3878,31.154,51.7972,39.318L53.4687,36.8807L32.8022,32.6731C32.6359,32.7963,32.442,32.8817,32.219,32.8817C31.853,32.8817,31.5463,32.6747,31.3723,32.3823L10.3243,28.0957C9.8287,30.4621,7.728,32.2454,5.2182,32.2454C2.341,32.247,0.0,29.9047,0.0,27.0277C0.0,24.1506,2.341,21.8092,5.2188,21.8092C7.7648,21.8092,9.8841,23.644,10.3397,26.0587L31.2202,30.3107L31.2202,26.8199C31.2202,26.2681,31.6668,25.8203,32.2203,25.8203C32.7732,25.8203,33.2197,26.2681,33.2197,26.8199L33.2197,30.7191L61.8547,36.5497C62.3973,36.6601,62.7459,37.1876,62.635,37.7297C62.539,38.2041,62.1221,38.5311,61.6562,38.5311C61.5898,38.5311,61.5228,38.5239,61.4558,38.5102L54.9489,37.1852L57.4781,43.5402C57.4877,43.5644,57.4813,43.591,57.4877,43.6159L61.5132,42.8177C62.0512,42.7074,62.5809,43.0634,62.6879,43.6046C62.7961,44.1467,62.4443,44.6727,61.9017,44.7798L33.2197,50.4671L33.2197,54.1657C33.2197,54.7182,32.7732,55.1661,32.2203,55.1661C31.6668,55.1661,31.2202,54.7182,31.2202,54.1657L31.2202,50.8642L10.3391,55.0042M8.4382,27.0277C8.4382,25.2533,6.9941,23.8091,5.2188,23.8091C3.4442,23.8091,2.0002,25.2533,2.0002,27.0277C2.0002,28.8029,3.4442,30.2471,5.2188,30.2471C6.9941,30.2471,8.4382,28.8029,8.4382,27.0277M8.4382,54.032C8.4382,52.2568,6.9941,50.8126,5.2188,50.8126C3.4442,50.8126,2.0002,52.2568,2.0002,54.032C2.0002,55.8072,3.4442,57.2514,5.2188,57.2514C6.9941,57.2514,8.4382,55.8072,8.4382,54.032M64.438,54.032C64.438,56.9091,62.097,59.2513,59.2192,59.2513C56.3407,59.2513,53.9997,56.9099,53.9997,54.032C53.9997,51.1541,56.3407,48.8127,59.2192,48.8127C62.097,48.8127,64.438,51.1549,64.438,54.032M62.4378,54.032C62.4378,52.2568,60.9938,50.8126,59.2192,50.8126C57.4439,50.8126,55.9998,52.2568,55.9998,54.032C55.9998,55.8072,57.4439,57.2514,59.2192,57.2514C60.9938,57.2514,62.4378,55.8072,62.4378,54.032Z"/>
</svg>