<svg version="1.2" baseProfile="tiny" viewBox="0 0 30.000 30.000" xmlns:xlink="http://www.w3.org/1999/xlink" xmlns="http://www.w3.org/2000/svg">
<path style="fill:#ffffff;" d="M15,0C6.716,0,0,6.715,0,15c0,8.285,6.716,15,15,15c8.284,0,15-6.716,15-15C30,6.715,23.284,0,15,0z     M15,29.294c-7.896,0-14.295-6.4-14.295-14.294C0.706,7.105,7.105,0.705,15,0.705c7.894,0,14.294,6.4,14.294,14.295    C29.295,22.894,22.895,29.294,15,29.294z M11.664,10.842c-0.402,0.17-3.533,1.181-3.533,1.181l0.938-4.202c0,0,2.351,0,2.644,0    s0.475,0.17,0.487,0.426c0.012,0.255,0.012,1.669,0,1.961C12.187,10.501,12.065,10.671,11.664,10.842z M7.536,15.586l0.079,0.238    l-0.899,0.344l-1.006-3.069l0.874-0.291l0.106,0.291l1.323-0.424l0.833,2.43L7.536,15.586z M8.448,16.368l0.146-0.059l-0.199-0.609    l0.661-0.238l0.212,0.635l0.171-0.079l0.344,0.899l-1.032,0.357L8.448,16.368z M22.514,14.18h-0.542v-2.011h0.542V14.18z     M24.565,16.757c-0.019-0.979-1.021-2.397-2.784-2.397c-0.047-0.269-0.096-0.515-0.144-0.736v-0.948H20.01V15h0.002    c-0.343,0.286-0.6,0.634-0.77,0.979c-0.173-0.365-0.418-0.768-0.757-1.292c-0.681-1.054-0.666-2.167-0.642-2.51    c0.916-0.888,0.718-2.452,0.55-3.559l0.271,0.046L18.64,7.221l0.646,0.001c0.088-0.371-0.165-0.605-0.503-0.802    c-0.339-0.197-0.149-2.109-0.888-2.909C16.956,2.493,15.237,2.07,13.71,2.07c-1.17,0-2.226,0.249-2.731,0.667    c-1.164,0.966-1.249,1.68-1.64,2.844s-1.323,0.776-1.35,1.627l4.101,0.005c-0.002,0.003,0,0.006,0.016,0.009    c0.351,0.053,0.778,0.299,0.737,1.017c-0.04,0.717,0.056,1.222,0.023,1.714c-0.033,0.492-0.124,1.061-1.015,1.396    c-0.891,0.335-3.228,1.098-3.228,1.098s0.936,2.442,1.244,2.686c0.307,0.244,1.922,0.256,2.208,0.001    c0.028-0.025,0.081-0.093,0.144-0.179c0.212,0.639,0.234,1.098-0.254,1.675l-0.155,0.182c-0.521,0.609-0.963,1.13-1.229,2.104    c-0.254-0.533-0.487-1.105-0.697-1.718l-1.201,0.411c0.445,1.3,0.993,2.448,1.625,3.424c-0.107,1.825-0.166,3.83-0.175,4.145    c-0.377,0.89-0.7,1.65-0.917,2.163c0.191,0.09,0.384,0.176,0.581,0.258c0.407-0.96,1.188-2.806,2.004-4.73    c0.721,0.693,1.506,1.212,2.342,1.531c0.243,0.093,0.487,0.162,0.732,0.22c-0.671,1.612-1.285,3.085-1.624,3.896    c0.218,0.029,0.438,0.052,0.66,0.068c0.36-0.863,0.959-2.301,1.604-3.851c0.199,0.021,0.398,0.037,0.597,0.037    c0.965-0.001,1.932-0.263,2.86-0.786c0.004-0.001,0.008-0.004,0.012-0.006v4.058c0.215-0.065,0.427-0.137,0.636-0.212    c0.001-1.088,0.003-2.653,0.004-4.271c1.443-1.107,2.091-2.781,2.323-4.497h2.005c0.014,1.774,0.028,4.194,0.039,6.175    c0.216-0.19,0.428-0.384,0.632-0.588C24.607,21.524,24.582,17.634,24.565,16.757z M9.492,6.575c0.171-0.19,0.332-0.443,0.449-0.792    c0.057-0.168,0.107-0.328,0.155-0.479c0.279-0.882,0.432-1.368,1.289-2.078c0.313-0.259,1.153-0.521,2.327-0.521    c1.246,0,2.877,0.325,3.718,1.236c0.297,0.322,0.399,1.084,0.473,1.641c0.055,0.408,0.1,0.747,0.22,1.003L9.492,6.575z     M10.824,23.546c0.02-0.511,0.045-1.094,0.075-1.686c0.139,0.177,0.279,0.349,0.424,0.511    C11.155,22.767,10.988,23.16,10.824,23.546z M15.374,23.422c-0.261-0.047-0.521-0.113-0.778-0.211    c-0.81-0.309-1.569-0.857-2.258-1.609c0.993-2.342,1.926-4.542,2.179-5.138c0.231-0.546,1.367-0.988,2.167-0.675    c0.4,0.157,0.76,0.527,0.961,0.994c0.151,0.347,0.187,0.691,0.095,0.92C17.478,18.356,16.424,20.897,15.374,23.422z M18.986,22.432    c-0.191,0.164-0.401,0.314-0.633,0.444c-0.757,0.425-1.542,0.631-2.321,0.616c1.027-2.469,2.041-4.913,2.297-5.553    c0.155-0.389,0.118-0.901-0.102-1.409c-0.268-0.618-0.759-1.116-1.313-1.333c-1.063-0.416-2.597,0.108-2.983,1.018    c-0.243,0.571-1.108,2.613-2.054,4.844c-0.292-0.378-0.571-0.795-0.831-1.251c0.187-1.343,0.625-1.858,1.247-2.585l0.157-0.185    c0.823-0.973,0.566-1.804,0.207-2.743c0.757-1.194,1.959-3.289,2.065-3.874c0.146-0.802-0.397-2.5-0.397-2.5l3.409,0.583    c0.004,0.025,0.007,0.046,0.011,0.072c0.154,1.007,0.388,2.529-0.41,3.204l-0.092,0.077l-0.018,0.119    c-0.009,0.064-0.222,1.585,0.727,3.054c0.88,1.36,1.034,1.778,1.034,2.791V22.432z M19.628,21.742    c0.001-0.97,0.002-1.897,0.003-2.688h1.021C20.501,20.033,20.19,20.978,19.628,21.742z M20.771,17.716h-1.14    c0.001-0.372,0.001-0.663,0.001-0.833c0.001-0.386,0.343-1.124,1.009-1.554C20.732,16.031,20.796,16.859,20.771,17.716z     M22.054,17.716c0.022-0.971-0.058-1.907-0.172-2.716c1.341,0.054,2.037,1.149,2.049,1.77c0.004,0.188,0.008,0.516,0.012,0.946    H22.054z"/>
</svg>