<svg version="1.2" baseProfile="tiny" viewBox="0 0 12.842 18.000" xmlns:xlink="http://www.w3.org/1999/xlink" xmlns="http://www.w3.org/2000/svg">
<path style="fill:#ffffff;" d="M4.042,5.955C3.769,6.071,1.644,6.757,1.644,6.757l0.637-2.853c0,0,1.596,0,1.794,0   c0.199,0,0.323,0.116,0.331,0.29c0.008,0.173,0.008,1.133,0,1.332C4.398,5.724,4.315,5.84,4.042,5.955z M2.129,8.85L1.563,7.2   L0.665,7.488L0.593,7.29L0,7.488l0.683,2.083l0.611-0.233L1.24,9.176L2.129,8.85z M2.066,10.323l0.7-0.243L2.533,9.47L2.416,9.523   L2.272,9.092L1.823,9.254l0.135,0.413L1.859,9.708L2.066,10.323z M11.408,6.856h-0.367v1.365h0.367V6.856z M12.842,15.324   c-0.138,0.139-0.282,0.271-0.428,0.399c-0.009-1.345-0.018-2.987-0.027-4.191h-1.361c-0.157,1.164-0.598,2.3-1.577,3.053   c-0.001,1.098-0.002,2.16-0.002,2.898c-0.143,0.052-0.286,0.1-0.433,0.144v-2.754c-0.002,0.001-0.005,0.003-0.007,0.004   C8.376,15.231,7.72,15.41,7.063,15.41c-0.135,0-0.27-0.01-0.405-0.025C6.221,16.438,5.814,17.413,5.569,18   c-0.15-0.012-0.3-0.027-0.448-0.047c0.23-0.551,0.647-1.551,1.103-2.646c-0.167-0.039-0.333-0.086-0.498-0.148   c-0.568-0.217-1.101-0.57-1.59-1.04c-0.554,1.307-1.084,2.56-1.361,3.211c-0.133-0.056-0.264-0.113-0.394-0.175   c0.147-0.348,0.366-0.864,0.623-1.469c0.006-0.213,0.045-1.575,0.119-2.813c-0.429-0.663-0.801-1.442-1.104-2.324l0.816-0.279   c0.142,0.415,0.301,0.804,0.473,1.166c0.181-0.661,0.482-1.015,0.835-1.428l0.105-0.123C4.579,9.493,4.564,9.181,4.42,8.747   C4.377,8.806,4.342,8.852,4.323,8.869c-0.194,0.173-1.291,0.165-1.5-0.001S1.979,7.044,1.979,7.044S3.566,6.527,4.17,6.299   c0.605-0.228,0.667-0.614,0.688-0.948c0.022-0.334-0.043-0.677-0.015-1.164c0.027-0.487-0.263-0.654-0.501-0.69   C4.332,3.496,4.33,3.494,4.332,3.492L1.548,3.488c0.018-0.578,0.651-0.314,0.916-1.104c0.266-0.79,0.323-1.275,1.113-1.931   C3.92,0.169,4.638,0,5.432,0c1.037,0,2.204,0.287,2.842,0.979C8.774,1.522,8.646,2.82,8.876,2.953   c0.229,0.134,0.401,0.292,0.342,0.544L8.778,3.497l0.017,0.979L8.611,4.445c0.114,0.751,0.248,1.813-0.373,2.417   C8.222,7.094,8.212,7.85,8.674,8.565c0.23,0.356,0.396,0.63,0.514,0.877c0.115-0.233,0.29-0.47,0.522-0.665H9.709V7.2h1.105v0.644   c0.032,0.15,0.065,0.317,0.097,0.5c1.197,0,1.878,0.962,1.891,1.628C12.813,10.566,12.83,13.208,12.842,15.324z M8.427,3.065   C8.345,2.892,8.314,2.662,8.277,2.384c-0.05-0.378-0.119-0.895-0.321-1.114c-0.57-0.619-1.678-0.839-2.524-0.839   c-0.796,0-1.367,0.178-1.58,0.354C3.271,1.267,3.167,1.597,2.978,2.196C2.945,2.299,2.911,2.407,2.873,2.521   C2.793,2.757,2.684,2.93,2.568,3.059L8.427,3.065z M3.811,13.783c-0.098-0.111-0.194-0.228-0.288-0.348   c-0.02,0.402-0.037,0.798-0.051,1.146C3.583,14.318,3.697,14.052,3.811,13.783z M8.167,10.613c0.063-0.155,0.039-0.389-0.063-0.624   C7.967,9.672,7.723,9.42,7.45,9.313C6.907,9.102,6.137,9.401,5.979,9.771C5.808,10.177,5.174,11.67,4.5,13.261   c0.468,0.511,0.983,0.883,1.534,1.092c0.174,0.067,0.351,0.111,0.528,0.144C7.274,12.782,7.99,11.058,8.167,10.613z M9.014,10.693   c0-0.688-0.104-0.971-0.702-1.894C7.668,7.802,7.813,6.77,7.818,6.726l0.013-0.081l0.062-0.052c0.542-0.458,0.384-1.492,0.278-2.176   C8.168,4.4,8.167,4.386,8.164,4.369L5.85,3.973c0,0,0.369,1.153,0.27,1.697C6.047,6.067,5.231,7.489,4.717,8.3   c0.244,0.638,0.418,1.202-0.141,1.863L4.47,10.288c-0.422,0.493-0.72,0.843-0.846,1.755c0.177,0.31,0.365,0.593,0.564,0.85   c0.642-1.515,1.23-2.901,1.395-3.289C5.845,8.986,6.886,8.63,7.607,8.913c0.377,0.147,0.71,0.485,0.892,0.905   c0.148,0.345,0.174,0.692,0.068,0.956c-0.174,0.435-0.861,2.095-1.559,3.771c0.529,0.01,1.062-0.13,1.575-0.419   c0.158-0.088,0.3-0.19,0.43-0.301V10.693z M10.146,11.532H9.451c0,0.535-0.001,1.165-0.002,1.823   C9.832,12.837,10.042,12.195,10.146,11.532z M10.138,9.002c-0.452,0.292-0.685,0.793-0.685,1.055c0,0.115-0.001,0.313-0.001,0.565   h0.773C10.242,10.041,10.199,9.479,10.138,9.002z M12.379,10.622c-0.003-0.292-0.006-0.514-0.009-0.643   c-0.007-0.422-0.479-1.165-1.391-1.202c0.077,0.549,0.133,1.185,0.117,1.844H12.379z"/>
</svg>