<svg version="1.2" baseProfile="tiny" viewBox="0 0 15.923 18.000" xmlns:xlink="http://www.w3.org/1999/xlink" xmlns="http://www.w3.org/2000/svg">
<path style="fill:#ffffff;" d="M10.463,5.039c-0.008-0.695-0.109-1.252-0.446-1.62c-0.248-0.271-0.609-0.413-1.071-0.42   C8.539,2.991,7.839,3.011,7.031,3.034C5.695,3.072,3.985,3.121,2.696,3.072C2.631,2.38,2.928,1.564,4.604,0.946   c2.681-0.987,7.224-1.693,9.454,0.48c0.958,0.933,1.564,2.252,1.781,3.612H10.463z M15.923,6.4h-5.519   c-0.081,1.233-0.085,2.443-0.041,3.678c0.372,0.438,0.888,0.91,1.431,1.122c0.381,1.605,1.09,3.564,1.343,4.242l-5.268,1.921   l-0.531-1.149c-0.156,0.062-0.316,0.117-0.481,0.17L7.604,18l6.191-2.257l-0.093-0.24c-0.01-0.026-0.896-2.349-1.365-4.225   c0.896-0.081,1.771-0.946,2.346-1.56C15.514,8.829,15.881,7.596,15.923,6.4C15.923,6.4,15.875,7.741,15.923,6.4z M4.561,5.847   c0.015-0.263,0.032-0.529,0.053-0.795C4.622,4.958,4.552,4.877,4.458,4.87C4.364,4.862,4.284,4.932,4.277,5.025   c-0.021,0.262-0.038,0.522-0.053,0.78c-0.002,0-0.003,0-0.004,0C3.276,5.739,2.752,6.198,3.001,6.407   C3.15,6.533,3.42,6.25,3.669,6.198c0.098-0.021,0.3-0.04,0.536-0.042C4.2,6.271,4.195,6.384,4.19,6.497   C3.947,6.484,3.68,6.502,3.565,6.552C3.381,6.63,3.29,6.735,3.29,7.036c0,0.275,0.104,0.458,0.38,0.511   c0.126,0.024,0.309,0.016,0.493-0.012c-0.039,2.508,0.135,4.477,0.137,4.503c0.008,0.088,0.082,0.153,0.169,0.153   c0.005,0,0.01,0,0.015,0c0.093-0.009,0.162-0.092,0.154-0.185c-0.003-0.025-0.179-2.022-0.135-4.548   C4.59,7.431,4.669,7.399,4.73,7.364C4.979,7.22,5.136,7.088,5.149,6.918c0.013-0.17-0.34-0.288-0.589-0.366   C4.55,6.549,4.538,6.546,4.528,6.543c0.005-0.125,0.01-0.251,0.017-0.378C4.816,6.183,5.091,6.227,5.28,6.319   c0.445,0.219,0.485,0.221,0.524,0.122C5.839,6.354,5.322,5.983,4.561,5.847z M9.826,9.22c0.029,1.095,0.121,2.203-0.049,3.292   c-0.143,0.727-0.412,1.429-0.896,2.08c-0.017,0.025-0.046,0.065-0.101,0.135c-0.347,0.329-0.401,0.362-0.341,0.288   c-0.996,0.772-2.249,1.079-3.9,1.398c-1.139,0.144-2.299,0.202-3.447,0.167l-0.3-0.01l-0.089-0.288   c-1.539-4.93-0.073-12.073-0.01-12.375l0.07-0.335l0.342-0.002c0,0,0.513-0.002,1.273-0.005c1.482,0.079,2.971,0.024,4.453-0.018   c0.702-0.02,1.406-0.055,2.108-0.042C9.623,3.518,9.871,3.99,9.931,4.616l0,0c0,0,0,0.001,0,0.001   c0.111,1.123-0.098,2.271-0.118,3.394C9.868,8.425,9.856,8.87,9.826,9.22z M6.314,15.208l-0.662-1.433   c-0.683,0.103-1.379,0.106-2.066,0.056c-0.068-0.005-0.137-0.01-0.207-0.015c0.085,0.82,0.157,1.344,0.16,1.359   c0.013,0.092-0.052,0.178-0.144,0.191c-0.008,0-0.016,0.001-0.024,0.001c-0.083,0-0.156-0.061-0.167-0.146   c-0.002-0.016-0.079-0.572-0.168-1.44c-0.244-0.029-0.486-0.074-0.708-0.164c-0.62-0.25-0.362-0.776-0.329-1.288   c0.016-0.242-0.143-0.336-0.25-0.526c-0.145-0.258,0.057-0.508,0.238-0.681c-0.284-0.244-0.373-0.534-0.236-0.887   c-0.494-0.179-0.903-0.501-0.738-1.058c0.179-0.602,0.59-1.138,0.924-1.659c0.207-0.324,0.224-0.445,0.106-0.819   c-0.078-0.25-0.042-0.438,0.041-0.675C2.271,5.491,2.444,4.951,2.62,4.412C2.132,4.413,1.724,4.415,1.456,4.416   C1.192,5.855,0.264,11.621,1.423,15.74C3.048,15.758,4.744,15.658,6.314,15.208z M2.828,11.104l-0.272,0.205   c-0.127,0.096-0.261,0.22-0.324,0.297c0.269,0.303,0.314,0.648,0.229,1.039c-0.087,0.398-0.111,0.483,0.291,0.571   c0.076,0.017,0.155,0.024,0.232,0.038C2.927,12.628,2.869,11.891,2.828,11.104z M9.092,10.537c-0.258,0.141-0.533,0.225-0.722,0.269   c-0.007,0.593-0.205,1.179-0.504,1.686c-0.389,0.658-0.968,1.003-1.701,1.185l0.634,1.373c0.542-0.199,0.978-0.444,1.237-0.748   C8.96,13.223,9.089,11.966,9.092,10.537z M9.133,7.465C8.889,7.066,8.277,7.481,8.065,7.722l-0.34,0.367L7.262,5.708l0.261-0.05   C7.486,5.375,7.412,4.81,7.354,4.408c-1.4-0.005-3.376,0-4.2,0.002C2.989,4.917,2.824,5.426,2.653,5.933   C2.603,6.08,2.557,6.23,2.498,6.375C2.428,6.548,2.663,6.932,2.656,7.132c-0.015,0.448-0.44,0.884-0.667,1.25   C1.839,8.623,1.392,9.178,1.475,9.487C1.73,9.758,2.152,9.82,2.156,9.821l0.396,0.056l-0.217,0.335   c-0.087,0.134-0.159,0.321-0.146,0.379c0.034,0.084,0.223,0.228,0.339,0.293l0.298,0.169C2.76,9.75,2.74,8.315,2.843,7.014   C2.851,6.921,2.93,6.851,3.026,6.858c0.093,0.007,0.163,0.089,0.155,0.182c-0.167,2.124-0.008,4.611,0.148,6.271   c0.59,0.069,1.202,0.063,1.78,0.016c0.702-0.056,1.626-0.18,2.101-0.769c0.396-0.491,0.733-1.275,0.646-1.927l-0.033-0.25   l0.25-0.036c0.228-0.031,0.742-0.16,1.016-0.418C9.08,9.105,9.08,8.287,9.133,7.465z M8.583,5.039c-0.877,0-0.877,1.361,0,1.361   C9.46,6.4,9.46,5.039,8.583,5.039z"/>
</svg>