<svg version="1.2" baseProfile="tiny" id="EdgeSVG_b7E6p" x="0px" y="0px" width="101.44px" height="58.583px" viewBox="0 0 101.44 58.583" xmlns:xlink="http://www.w3.org/1999/xlink" xmlns="http://www.w3.org/2000/svg">
  <linearGradient id="SVGID_1_" gradientUnits="userSpaceOnUse" x1="0" y1="29.2915" x2="101.4399" y2="29.2915">
    <stop offset="0" style="stop-color:#000000;stop-opacity:0.5"/>
    <stop offset="1" style="stop-color:#000000;stop-opacity:0.5"/>
  </linearGradient>
  <path style="fill:url(#SVGID_1_);" d="M2.72,58.583c-1.5,0-2.72-1.22-2.72-2.72V2.72C0,1.22,1.22,0,2.72,0h96&#xD;&#xA;&#x9;c1.5,0,2.72,1.22,2.72,2.72v53.143c0,1.5-1.22,2.72-2.72,2.72H2.72z"/>
  <path style="fill:#DEAE42;" d="M98.72,0.72h-96c-1.1,0-2,0.9-2,2v53.143c0,1.1,0.9,2,2,2h96c1.1,0,2-0.9,2-2V2.72&#xD;&#xA;&#x9;C100.72,1.62,99.82,0.72,98.72,0.72z"/>
  <path style="fill:#C34137;" d="M99.953,1.159L1.488,57.424c0.341,0.27,0.766,0.438,1.232,0.438h96c1.1,0,2-0.9,2-2V2.72&#xD;&#xA;&#x9;C100.72,2.086,100.416,1.526,99.953,1.159z"/>
  <g>
    <g>
      <path style="fill:#FFFFFF;stroke:#000000;stroke-width:0.3;" d="M54.247,18.585c-0.555-0.169-0.911,0.077-0.893,0.69&#xD;&#xA;&#x9;&#x9;&#x9;c0.018,0.613,0.393,0.966,0.947,0.736L54.247,18.585z"/>
      <path style="fill:#FFFFFF;stroke:#000000;stroke-width:0.3;" d="M54.735,17.438c-0.462-0.313-0.894-0.179-1.104,0.407&#xD;&#xA;&#x9;&#x9;&#x9;c-0.215,0.585,0.01,1.023,0.622,0.958L54.735,17.438z"/>
      <path style="fill:#FFFFFF;stroke:#000000;stroke-width:0.3;" d="M55.501,16.326c-0.396-0.373-0.847-0.299-1.167,0.25&#xD;&#xA;&#x9;&#x9;&#x9;c-0.32,0.548-0.181,1.011,0.437,1.031L55.501,16.326z"/>
      <path style="fill:#FFFFFF;stroke:#000000;stroke-width:0.3;" d="M54.998,21.729c-0.679,0.214-0.751,1.012-0.322,1.502&#xD;&#xA;&#x9;&#x9;&#x9;c0.431,0.491,1.218,0.583,1.647,0L54.998,21.729z"/>
      <path style="fill:#FFFFFF;stroke:#000000;stroke-width:0.3;" d="M54.21,20.042c-0.643-0.184-1.224,0.557-1.321,1.226&#xD;&#xA;&#x9;&#x9;&#x9;c-0.127,0.844-1.521,1.12-0.751,2.392c0.16-0.812,0.787-1.256,1.288-1.288c0.501-0.031,1.249-0.123,1.571-0.644L54.21,20.042z"/>
      <path style="fill:#FFFFFF;stroke:#000000;stroke-width:0.3;" d="M56.25,23.322c-0.751,0.154-0.856,1.012-0.319,1.625&#xD;&#xA;&#x9;&#x9;&#x9;c0.459,0.525,1.895,0.399,1.857-0.123L56.25,23.322z"/>
      <path style="fill:#FFFFFF;stroke:#000000;stroke-width:0.3;" d="M58.379,28.489c0.036-0.552-1.002-0.767-1.502-0.659&#xD;&#xA;&#x9;&#x9;&#x9;c-0.501,0.107-1.459-0.015-1.681-0.476c-0.181,0.368,0.08,0.767,0.803,0.966c0.55,0.151,0.537,0.491,0.377,0.644&#xD;&#xA;&#x9;&#x9;&#x9;C56.787,29.026,58.002,29.026,58.379,28.489z"/>
      <path style="fill:#FFFFFF;stroke:#000000;stroke-width:0.3;" d="M57.788,24.963c-0.732-0.276-1.166,0.145-1.447,0.551&#xD;&#xA;&#x9;&#x9;&#x9;c-0.41,0.599-1.681-0.168-2.111,0.629c0.583-0.214,1.174,0.243,1.45,0.399c0.787,0.445,2.308,0.307,2.521-0.736L57.788,24.963z"/>
      <path style="fill:#FFFFFF;stroke:#000000;stroke-width:0.3;" d="M58.219,25.699c-0.733,0.475-1.02,1.042-1.004,1.426&#xD;&#xA;&#x9;&#x9;&#x9;c0.021,0.383,0.646,1.226,1.324,1.272C58.934,27.708,59.13,26.251,58.219,25.699z"/>
      <path style="fill:#FFFFFF;stroke:#000000;stroke-width:0.3;" d="M55.178,28.658c0-0.229,0.393-0.322,0.661-0.245&#xD;&#xA;&#x9;&#x9;&#x9;s0.679,0.307,0.537,0.552L55.178,28.658z"/>
      <path style="fill:#FFFFFF;stroke:#000000;stroke-width:0.3;" d="M51.137,27.401c-0.072-0.276,0.447-0.751,1.143-0.491&#xD;&#xA;&#x9;&#x9;&#x9;c0.697,0.261,0.787,0.767,0.501,0.966L51.137,27.401z"/>
      <path style="fill:#FFFFFF;stroke:#000000;stroke-width:0.3;" d="M52.834,27.907c-0.054-0.153,0.449-0.459,1.307-0.276&#xD;&#xA;&#x9;&#x9;&#x9;c0.856,0.184,1.068,0.658,1.037,1.027L52.834,27.907z"/>
      <path style="fill:#FFFFFF;stroke:#000000;stroke-width:0.3;" d="M51.046,27.401c0.447-0.292,0.276-0.843-0.126-1.012&#xD;&#xA;&#x9;&#x9;&#x9;c-0.733-0.306-0.465-1.104-0.929-1.256c-0.466-0.154-0.913-0.429-0.931-0.706c-0.232,0.384-0.09,0.736,0.232,0.981&#xD;&#xA;&#x9;&#x9;&#x9;c0.323,0.246-0.25,1.242,0.16,1.502L51.046,27.401z"/>
      <path style="fill:#FFFFFF;stroke:#000000;stroke-width:0.3;" d="M41.458,27.187c-0.376-0.506-1.27-0.414-1.646-0.062&#xD;&#xA;&#x9;&#x9;&#x9;c-0.374,0.353-0.32,0.874,0.036,1.104L41.458,27.187z"/>
      <path style="fill:#FFFFFF;stroke:#000000;stroke-width:0.3;" d="M43.605,26.435c-0.144-0.675-1.091-0.751-1.61-0.583&#xD;&#xA;&#x9;&#x9;&#x9;c-0.519,0.169-0.878,0.843-0.537,1.334L43.605,26.435z"/>
      <path style="fill:#FFFFFF;stroke:#000000;stroke-width:0.3;" d="M45.036,26.343c0.341-0.567-0.323-1.411-1.073-1.533&#xD;&#xA;&#x9;&#x9;&#x9;c-0.627-0.103-1.369-0.1-1.611-0.629c-0.149,0.46,0.253,0.751,0.718,1.012c0.464,0.261-0.09,0.936,0.661,1.319L45.036,26.343z"/>
      <path style="fill:#FFFFFF;stroke:#000000;stroke-width:0.3;" d="M44.964,26.362c-0.155-0.406,0.162-0.947,0.805-0.909&#xD;&#xA;&#x9;&#x9;&#x9;c0.643,0.038,1.007,0.438,0.726,0.938L44.964,26.362z"/>
      <path style="fill:#FFFFFF;stroke:#000000;stroke-width:0.3;" d="M46.396,26.393c-0.09-0.421,0.313-0.918,0.942-0.803&#xD;&#xA;&#x9;&#x9;&#x9;c0.632,0.114,0.929,0.555,0.565,1.017L46.396,26.393z"/>
      <path style="fill:#FFFFFF;stroke:#000000;stroke-width:0.3;" d="M47.815,26.587c-0.064-0.425,0.367-0.904,0.991-0.762&#xD;&#xA;&#x9;&#x9;&#x9;c0.622,0.142,0.893,0.594,0.503,1.04L47.815,26.587z"/>
      <path style="fill:#FFFFFF;stroke:#000000;stroke-width:0.3;" d="M37.021,33.61c-1.198,0-1.49,0.244-1.662,1.303&#xD;&#xA;&#x9;&#x9;&#x9;C35.145,36.232,37.238,36.385,37.021,33.61z"/>
      <path style="fill:#FFFFFF;stroke:#000000;stroke-width:0.3;" d="M37.558,32.23c-1.84-0.598-2.842,1.901-4.667,1.457&#xD;&#xA;&#x9;&#x9;&#x9;c0.654,0.889,2.236,0.001,2.827,0.092C36.719,33.932,38.882,33.61,37.558,32.23z"/>
      <path style="fill:#FFFFFF;stroke:#000000;stroke-width:0.3;" d="M36.361,35.649c-0.912-0.353-1.895,0.843-1.717,1.364&#xD;&#xA;&#x9;&#x9;&#x9;C34.871,37.675,36.952,37.136,36.361,35.649z"/>
      <path style="fill:#FFFFFF;stroke:#000000;stroke-width:0.3;" d="M32.104,40.801c0.501,0.123,1.109,0.368,1.001,1.196&#xD;&#xA;&#x9;&#x9;&#x9;c-0.107,0.827-1.932,2.514-3.577,2.606c-1.646,0.092-2.236,1.794-3.649,1.319c1.324-0.215,1.324-1.503,2.362-1.902&#xD;&#xA;&#x9;&#x9;&#x9;c-0.751-0.229-1.145,1.227-2.111,1.227c-0.965,0-1.431,1.318-2.611,1.226c-1.181-0.092-1.305,1.605-3.667,1.625&#xD;&#xA;&#x9;&#x9;&#x9;c-1.807,0.016-4.042,1.824-4.848,1.042c1.752-0.214,2.46-1.047,3.505-1.962c1.682-1.471,3.578-0.812,4.222-2.115&#xD;&#xA;&#x9;&#x9;&#x9;c-0.77,0.444-1.664,0.659-2.54,0.644c-1.1-0.02-2.308,1.502-3.542,0.828c0.715-0.077,1.181-0.337,1.932-1.012&#xD;&#xA;&#x9;&#x9;&#x9;c0.769-0.691,1.897-0.245,2.79-0.951c1.396-1.104,2.593-0.184,3.936-1.564c-0.376-0.153-1.181-0.046-1.933,0.292&#xD;&#xA;&#x9;&#x9;&#x9;c-0.75,0.337-1.717-0.23-2.576,0.168c0.107-0.904,2.111-0.387,3.363-1.012c1.413-0.705,2.584-0.499,3.702-0.414&#xD;&#xA;&#x9;&#x9;&#x9;c-1.556-0.008-2.164-1.273-4.311-0.904c-0.937,0.16-1.681-1.104-2.611-0.46c0.027-0.476,1.001-0.858,2.003-0.399&#xD;&#xA;&#x9;&#x9;&#x9;c1.002,0.46,1.405-0.402,3.399,0.675c0.822,0.444,2.235-0.276,3.13,0.199c-0.116-0.292-0.626-0.475-1.226-0.437&#xD;&#xA;&#x9;&#x9;&#x9;C28.625,40.057,31.048,40.141,32.104,40.801z"/>
      <path style="fill:#FFFFFF;stroke:#000000;stroke-width:0.3;" d="M33.697,39.804c-0.788-0.521-1.879,0.107-2.631-0.138&#xD;&#xA;&#x9;&#x9;&#x9;c0,0.429,0.251,1.073,1.074,1.319C32.39,40.831,33.516,39.987,33.697,39.804z"/>
      <path style="fill:#FFFFFF;stroke:#000000;stroke-width:0.3;" d="M34.93,38.317c-1.233-0.537-1.449,0.797-2.416,0.521&#xD;&#xA;&#x9;&#x9;&#x9;c0.037,0.383,0.394,0.859,1.182,0.966L34.93,38.317z"/>
      <path style="fill:#FFFFFF;stroke:#000000;stroke-width:0.3;" d="M35.664,37.106c-1.825-0.614-2.057,0.889-3.13,0.597&#xD;&#xA;&#x9;&#x9;&#x9;c0.25,0.521,1.788,0.797,2.575,0.614L35.664,37.106z"/>
      <path style="fill:#FFFFFF;stroke:#000000;stroke-width:0.3;" d="M38.167,30.528c-0.482-0.583-1.502-0.107-1.665,0.583&#xD;&#xA;&#x9;&#x9;&#x9;c-0.16,0.689,0.235,1.656,0.914,1.441L38.167,30.528z"/>
      <path style="fill:#FFFFFF;stroke:#000000;stroke-width:0.3;" d="M39.401,28.688c-0.841-0.168-1.807-0.092-1.698,0.614&#xD;&#xA;&#x9;&#x9;&#x9;c-0.323,0.123-0.413,1.027,0.464,1.226L39.401,28.688z"/>
      <path style="fill:#FFFFFF;stroke:#000000;stroke-width:0.3;" d="M39.956,28.213c-0.823-0.828-1.74-0.809-2.253-0.459&#xD;&#xA;&#x9;&#x9;&#x9;c-0.947,0.644-1.869,0.275-1.897,0.919c0.573-0.375,1.074,0.077,1.539-0.061c0.465-0.138,0.806,0.628,2.094,0.307L39.956,28.213z"/>
      <path style="fill:#FFFFFF;stroke:#000000;stroke-width:0.3;" d="M37.971,40.586c0.124,0.199,0.893,0.291,1.27-0.046&#xD;&#xA;&#x9;&#x9;&#x9;c0.499-0.447-0.054-1.686-0.841-1.778C37.612,38.669,37.54,40.157,37.971,40.586z"/>
      <path style="fill:#FFFFFF;stroke:#000000;stroke-width:0.3;" d="M37.076,40.616c1.128,0.353,1.61-0.444,1.001-0.951&#xD;&#xA;&#x9;&#x9;&#x9;C37.917,39.835,37.326,40.448,37.076,40.616z"/>
      <path style="fill:#FFFFFF;stroke:#000000;stroke-width:0.3;" d="M32.855,41.935c-0.215,0.551-1.323,0.644-2.575,2.361&#xD;&#xA;&#x9;&#x9;&#x9;c-1.253,1.717-2.452,0.996-2.756,2.176c1.503-1.042,2.683-0.35,3.578-1.38c1.359-1.563,2.479-1.339,3.005-2.392&#xD;&#xA;&#x9;&#x9;&#x9;c0.751-1.502,4.042-1.471,4.22-3.833C37.22,38.685,33.714,41.23,32.855,41.935z"/>
    </g>
    <path style="fill:#FFFFFF;stroke:#000000;stroke-width:0.3;" d="M61.08,18.754c1.432,0.398,1.469,1.993,3.112,2.514&#xD;&#xA;&#x9;&#x9;c1.646,0.521,1.808,1.779,3.149,1.473c-1.252-0.292-1.164-1.533-2.47-1.84c-1.531-0.36-2.109-2.362-3.328-2.668"/>
    <g>
      <path style="fill:#FFFFFF;stroke:#000000;stroke-width:0.3;" d="M67.643,27.079c0.253,0.491,0.217,1.364-0.679,1.594&#xD;&#xA;&#x9;&#x9;&#x9;c0.482,0.261,1.197,0.015,1.592-0.552c-0.591,1.12-0.196,2.132,0.733,2.331c-0.446-0.782,0.555-1.15,0.232-1.656&#xD;&#xA;&#x9;&#x9;&#x9;c0.59,0.215,1.109,0.905,1.092,1.334c0.769-0.736-0.573-1.717-0.322-2.407L67.643,27.079z"/>
      <path style="fill:#FFFFFF;stroke:#000000;stroke-width:0.3;" d="M58.379,34.959c-0.875-0.659-1.249,0.172-1.681-0.115&#xD;&#xA;&#x9;&#x9;&#x9;c-0.402-0.269-0.939-0.307-1.146-0.038c0.752,0.023,0.385,0.521,1.844,0.644c-1.459,0.084-1.189,1.479-2.166,1.411&#xD;&#xA;&#x9;&#x9;&#x9;c1.038,0.843,1.575-0.751,2.416-0.491c-0.25,0.062,0.393,0.567-0.054,1.242c0.725-0.016,1.02-0.874,1.109-1.318L58.379,34.959z"/>
      <path style="fill:#FFFFFF;stroke:#000000;stroke-width:0.3;" d="M39.079,42.119c-0.32-0.23-1.252-0.337-1.608-0.154&#xD;&#xA;&#x9;&#x9;&#x9;c-0.359,0.184-0.232,0.23,0.196,0.261c0.428,0.03,0.984,0.626,0.054,0.659c-0.431,0.015-0.286,0.904-1.182,0.966&#xD;&#xA;&#x9;&#x9;&#x9;c0.367,0.383,1.415,0.13,1.789-0.292c-0.069,0.345,0.465,0.659,0.25,1.074c0.663,0.061,0.279-1.151,1.324-1.089&#xD;&#xA;&#x9;&#x9;&#x9;c-0.429,0.045-0.25,0.874,0.5,0.659c-0.446,0.185-0.214,0.629,0.287,0.522c-0.322,0.092-0.428,0.444,0.018,0.644&#xD;&#xA;&#x9;&#x9;&#x9;C41.136,44.863,40.653,43.054,39.079,42.119z"/>
    </g>
    <g>
      <ellipse style="fill:#FFFFFF;stroke:#000000;stroke-width:0.3;" cx="78.034" cy="23.077" rx="2.48" ry="2.125"/>
      <path style="fill:#FFFFFF;stroke:#000000;stroke-width:0.3;" d="M78.034,23.077"/>
    </g>
    <path style="fill:#FFFFFF;stroke:#000000;stroke-width:0.3;" d="M65.087,27.769c0.751-0.614,1.895-0.92,2.683-0.46&#xD;&#xA;&#x9;&#x9;c0.786,0.46,3.398,1.012,4.686,0.245c1.289-0.767,1.895-1.166,2.468-1.073c0.429,0.552,0.948,0.813,1.593,0.858&#xD;&#xA;&#x9;&#x9;c0.196,0.185,0.894,0.337,1.285,0.292c0.573,0.123,1.271-0.031,1.825-0.552c0.86,0.107,1.665-0.445,1.97-1.273&#xD;&#xA;&#x9;&#x9;c0.911-0.092,0.966-0.966,0.393-1.548c-0.537-0.092-0.124-1.641-2.075-1.334c0.823,0.429,0.196,1.288,0.878,1.686&#xD;&#xA;&#x9;&#x9;c-0.468,0-1.066,0.169-1.208,0.767c0.178-0.414-0.026-0.689-0.152-0.781c0.018-0.353-0.894-1.219-1.753-0.905&#xD;&#xA;&#x9;&#x9;c0.616,0.115,0.268,0.965,0.715,1.288c-0.322,0.015-0.661,0.154-0.857,0.398c-0.234-0.352-1.056-0.721-1.556-0.751&#xD;&#xA;&#x9;&#x9;c0-0.123-0.028-0.368-0.09-0.491c-0.225-0.368-0.412-0.805-0.324-1.364c-0.428,0.399-0.787,0.951-1.001,1.349&#xD;&#xA;&#x9;&#x9;c-0.678-0.398-2.358,0.184-3.146,0.337c-0.788,0.153-3.436-0.215-4.042-0.767c-0.609-0.552-1.79-0.89-2.899-1.165&#xD;&#xA;&#x9;&#x9;c-1.525-0.379-1.538-1.81-3.219-2.791C61.223,21.514,64.37,27.155,65.087,27.769z"/>
    <g>
      <ellipse style="fill:#FFFFFF;stroke:#000000;stroke-width:0.3;" cx="47.558" cy="39.267" rx="2.396" ry="2.054"/>
      <path style="fill:#FFFFFF;stroke:#000000;stroke-width:0.3;" d="M47.558,39.268"/>
    </g>
    <path style="fill:#FFFFFF;stroke:#000000;stroke-width:0.3;" d="M41.833,39.743c0.485,0.536,1.306,0.506,1.646,0.459&#xD;&#xA;&#x9;&#x9;c0.287,0.645,1.198,0.629,1.593,0.981c0.393,0.353,1.735,0.322,2.127,0.123c-0.357-0.031-0.821-0.215-1.271-0.537&#xD;&#xA;&#x9;&#x9;c-0.54-0.388-0.284-1.165-0.715-1.441c0.323-0.307,0.377-0.813,0.305-1.012c0.341-0.169,0.591-0.444,0.627-0.583&#xD;&#xA;&#x9;&#x9;c0.588-0.031,1.107-0.291,1.321-0.49c0.304,0.245,1.074-0.077,1.487,0.337c0.088-1.012-1.038-1.549-1.792-1.211&#xD;&#xA;&#x9;&#x9;c-0.302-0.138-1.107-0.046-1.251,0.138c-0.248-0.092-0.947,0.215-1.271,0.414c0.359-0.168,0.413-0.674,0.269-0.859&#xD;&#xA;&#x9;&#x9;c0.305-0.106,0.646-0.459,0.682-0.72c0.429,0.062,1.074-0.184,1.357-0.123c-0.465-0.521-1.234-0.705-2.021-0.659&#xD;&#xA;&#x9;&#x9;c-0.813,0.039-1.162,0.529-1.27,1.058c-0.483,0.245-0.643,1.073-0.465,1.364c-0.276-0.008-0.537,0.223-0.643,0.353&#xD;&#xA;&#x9;&#x9;c-0.377-0.138-0.914-0.238-1.298-0.238"/>
    <g>
      <path style="fill:#FFFFFF;stroke:#000000;stroke-width:0.3;" d="M41.422,36.262c-0.16-0.399,0.052-0.757,0.16-1.073&#xD;&#xA;&#x9;&#x9;&#x9;c0.279-0.805,0.108-1.011-0.733-0.904C40.78,34.667,41.208,35.925,41.422,36.262z"/>
      <path style="fill:#FFFFFF;stroke:#000000;stroke-width:0.3;" d="M40.805,34.33c0.214,0.185,0.976,0.269,1.056-0.314&#xD;&#xA;&#x9;&#x9;&#x9;c0.093-0.668-0.225-0.928-0.903-0.667C40.903,33.503,40.842,34.131,40.805,34.33z"/>
      <path style="fill:#FFFFFF;stroke:#000000;stroke-width:0.3;" d="M40.965,33.327c0.287,0.099,0.903,0.299,1.244-0.269&#xD;&#xA;&#x9;&#x9;&#x9;c0.284-0.476-0.091-0.843-0.679-0.813C41.386,32.383,41.1,32.875,40.965,33.327z"/>
      <path style="fill:#FFFFFF;stroke:#000000;stroke-width:0.3;" d="M41.495,32.2c0.072,0.184,0.805,0.797,1.342,0.353&#xD;&#xA;&#x9;&#x9;&#x9;c0.535-0.444,0.535-1.104-0.268-1.349C42.351,31.234,41.708,31.878,41.495,32.2z"/>
      <path style="fill:#FFFFFF;stroke:#000000;stroke-width:0.3;" d="M42.568,31.203c0.16,0.383,0.661,1.042,1.59,0.735&#xD;&#xA;&#x9;&#x9;&#x9;c0.932-0.306,0.537-1.303,0.108-1.502C44.017,30.452,42.997,30.85,42.568,31.203z"/>
      <path style="fill:#FFFFFF;stroke:#000000;stroke-width:0.3;" d="M44.267,30.437c-0.072,0.337,0,1.257,1.27,1.242&#xD;&#xA;&#x9;&#x9;&#x9;c1.27-0.016,0.911-1.288,0.591-1.472C45.608,30.207,44.731,30.222,44.267,30.437z"/>
      <path style="fill:#FFFFFF;stroke:#000000;stroke-width:0.3;" d="M46.179,30.253c-0.142,0.26-0.465,1.976,2.021,1.502&#xD;&#xA;&#x9;&#x9;&#x9;C48.523,31.694,49.364,30.115,46.179,30.253z"/>
      <path style="fill:#FFFFFF;stroke:#000000;stroke-width:0.3;" d="M47.54,30.406c-0.25,0.214,0.395,1.946,2.076,1.655&#xD;&#xA;&#x9;&#x9;&#x9;C51.297,31.771,49.882,30.13,47.54,30.406z"/>
      <path style="fill:#FFFFFF;stroke:#000000;stroke-width:0.3;" d="M48.97,30.667c-0.269,0.475,0.137,1.886,2.211,1.886&#xD;&#xA;&#x9;&#x9;&#x9;C53.059,32.552,51.082,30.697,48.97,30.667z"/>
      <path style="fill:#FFFFFF;stroke:#000000;stroke-width:0.3;" d="M50.6,31.08c-0.134,0.264-0.299,1.759,2.145,1.886&#xD;&#xA;&#x9;&#x9;&#x9;C54.515,33.058,54.087,30.912,50.6,31.08z"/>
      <path style="fill:#FFFFFF;stroke:#000000;stroke-width:0.3;" d="M53.227,31.708c-0.302,0.46-0.625,1.61,2.058,1.703&#xD;&#xA;&#x9;&#x9;&#x9;C57.003,33.47,55.948,31.74,53.227,31.708z"/>
      <path style="fill:#FFFFFF;stroke:#000000;stroke-width:0.3;" d="M55.465,32.062c-0.396,0.46-0.106,1.362,0.893,1.533&#xD;&#xA;&#x9;&#x9;&#x9;c1.252,0.214,1.43-0.798,0.573-1.288C56.072,31.816,55.465,32.062,55.465,32.062z"/>
      <path style="fill:#FFFFFF;stroke:#000000;stroke-width:0.3;" d="M56.68,32.276c-0.286,0.429-0.107,1.473,1.789,1.473&#xD;&#xA;&#x9;&#x9;&#x9;C58.862,33.749,60.364,32.43,56.68,32.276z"/>
    </g>
    <g>
      <ellipse style="fill:#FFFFFF;stroke:#000000;stroke-width:0.3;" cx="41.995" cy="49.885" rx="2.782" ry="2.385"/>
      <path style="fill:#FFFFFF;stroke:#000000;stroke-width:0.3;" d="M41.995,49.885"/>
    </g>
    <path style="fill:#FFFFFF;stroke:#000000;stroke-width:0.3;" d="M62.404,17.589c-0.215,0.184-0.661,0.736-0.751,0.95&#xD;&#xA;&#x9;&#x9;c-0.93,2.392,1.553,4.178,3.004,6.746c1.146,2.024,1.002,5.213-0.787,7.237c-0.611,0.692-0.429,0.89-1.216,1.594&#xD;&#xA;&#x9;&#x9;c-0.302,0.271-0.644,0.614-0.537,1.595c0.501-0.154,1.215,0.245,1.36,0.582c0.356-0.153,0.859-0.092,1.037,0.092&#xD;&#xA;&#x9;&#x9;c0.606-0.245,1.107-0.123,1.645,0.368c0.467-0.062,0.969,0,1.434,0.429c0.249-0.429,0.749-0.583,1.106-0.491&#xD;&#xA;&#x9;&#x9;c-0.037-0.551,0.609-0.951,1.181-0.735c-0.18-0.736,0.607-1.289,1.358-1.074c0.646-0.429,1.934-0.459,2.576,0.184&#xD;&#xA;&#x9;&#x9;c-1.143-0.276-1.107,0.766-2.075,0.674c0.25,0.614-0.393,0.966-1.037,1.166c0.412-0.169,0.858-0.368,1.003-0.153&#xD;&#xA;&#x9;&#x9;c0.357-0.268,1.071-0.168,1.253-0.031c0.473-0.13,0.93-0.031,1.144,0.46c0.645,0.337,1.073,1.196,0.608,1.84&#xD;&#xA;&#x9;&#x9;c-0.145-0.674-0.682-0.644-0.896-0.919c-0.5,0.153-1.002,0.153-1.143-0.123c-0.287,0.245-1.252,0.46-1.685,0.092&#xD;&#xA;&#x9;&#x9;c-0.159,0.552-0.714,1.012-1.356,1.012c0.178,0.429-0.322,1.165-0.716,1.533c0.607,0.276,0.429,0.889,0.284,1.257&#xD;&#xA;&#x9;&#x9;c0.932,0.123,0.145,0.828,1.753,1.288c-0.785,0.215-2.323,0-2.54-0.827c-0.784-0.031-1.321-0.706-1.284-1.411&#xD;&#xA;&#x9;&#x9;c-0.61-0.491-0.7-1.196,0.141-1.687c-0.714,0.184-1.109-0.797-2.147-0.398c-0.516,0.198-1.876-0.138-1.858-0.552&#xD;&#xA;&#x9;&#x9;c-0.214,0.307-1.52,0.184-1.701-0.337c-0.428,0.199-1.43-0.138-1.411-0.644c-0.555,0.215-1.307-0.168-1.27-0.659&#xD;&#xA;&#x9;&#x9;c-0.52-0.061-0.573-0.46-0.537-0.797c-0.465-0.184-0.341-0.567-0.16-1.027c-0.322-0.307-0.181-0.736,0.069-1.135&#xD;&#xA;&#x9;&#x9;c-0.356-0.307-0.284-0.674-0.178-1.104c-1.717-0.122-3.866-0.478-8.801-1.778c-7.441-1.962-9.444,2.637-7.798,5.519&#xD;&#xA;&#x9;&#x9;c1.897,3.325-0.214,4.048,0.429,6.531c0.682,0.123,1.038,0.613,1.001,1.134c0.403,0.016,0.689,0.337,0.547,0.951&#xD;&#xA;&#x9;&#x9;c0.338-0.054,0.777,0.03,1.063,0.275c0.25-0.398,1.074-0.49,1.502-0.03c0.929-0.062,1.394,0.583,1.36,1.38&#xD;&#xA;&#x9;&#x9;c0.5,0.767,0.322,1.702-0.217,2.3c0.054-0.322,0-0.782-0.015-1.058c-0.034-0.507-0.86-0.613-0.769-1.027&#xD;&#xA;&#x9;&#x9;c-0.432,0.03-0.842-0.169-0.984-0.445c-0.253,0.184-0.609,0.246-0.914,0.153c0.483,0.184,0.86,0.92,0.715,1.41&#xD;&#xA;&#x9;&#x9;c0.25,0.368,0.199,1.043-0.105,1.333c-0.145,0.599-0.682,0.813-1.379,0.552c0.395-0.215,0.538-0.598,0.519-0.919&#xD;&#xA;&#x9;&#x9;c-0.25-0.185-0.374-0.537-0.393-0.751c-0.699,0.092-1.665-0.415-1.843-0.614c-1.536,0-2.783,1.067-2.783,2.385&#xD;&#xA;&#x9;&#x9;c-0.072-0.491-0.794-0.975-0.705-1.388c-0.431-1.135,0.178-2.192,1.931-2.407c-0.214-0.429,0.537-0.874,0.25-1.364&#xD;&#xA;&#x9;&#x9;c-0.366-0.627-1.037-1.441-2.039-2.392c0.609-0.89,0.428-2.085,0.072-2.822c-0.514-1.057-1.002-0.797-2.827,0.92&#xD;&#xA;&#x9;&#x9;c-2.974,2.799-6.94,2.024-10.446,3.864c-0.931,0.489-1.86,0.674-0.858-0.185c1.002-0.859,3.649-1.717,5.366-2.453&#xD;&#xA;&#x9;&#x9;c3.216-1.378,5.939-3.68,7.013-8.156c2.522-10.521,11.803-7.052,17.672-5.09c5.508,1.842,4.506-2.33,1.716-4.845&#xD;&#xA;&#x9;&#x9;c-3.353-3.022-2.684-5.396-1.109-7.298C58.075,15.933,63.495,16.776,62.404,17.589z"/>
    <g>
      <ellipse style="fill:#FFFFFF;stroke:#000000;stroke-width:0.3;" cx="72.366" cy="40.808" rx="3.062" ry="2.624"/>
      <path style="fill:#FFFFFF;stroke:#000000;stroke-width:0.3;" d="M72.366,40.808"/>
    </g>
    <path style="fill:none;stroke:#000000;stroke-width:0.3;" d="M60.686,17.711c-0.678,2.576-0.107,3.741,0.894,4.875&#xD;&#xA;&#x9;&#x9;c2.07,2.345,3.723,7.696,1.36,11.191"/>
    <g>
      <path style="fill:none;stroke:#000000;stroke-width:0.3;stroke-linecap:round;" d="M64.264,30.758&#xD;&#xA;&#x9;&#x9;&#x9;c0.287-0.092,0.823-0.383,0.947-0.889"/>
      <path style="fill:none;stroke:#000000;stroke-width:0.3;stroke-linecap:round;" d="M64.478,29.639&#xD;&#xA;&#x9;&#x9;&#x9;c0.091-0.444,0.896-0.636,0.911-1.111"/>
      <path style="fill:none;stroke:#000000;stroke-width:0.3;stroke-linecap:round;" d="M64.497,27.907&#xD;&#xA;&#x9;&#x9;&#x9;c-0.054-0.46,0.806-0.874,0.679-1.334"/>
      <path style="fill:none;stroke:#000000;stroke-width:0.3;stroke-linecap:round;" d="M64.032,26.251&#xD;&#xA;&#x9;&#x9;&#x9;c-0.072-0.26,0.715-0.751,0.501-1.166"/>
      <path style="fill:none;stroke:#000000;stroke-width:0.3;stroke-linecap:round;" d="M63.441,24.641&#xD;&#xA;&#x9;&#x9;&#x9;c-0.16-0.291,0.376-0.628,0.142-0.935"/>
      <path style="fill:none;stroke:#000000;stroke-width:0.3;stroke-linecap:round;" d="M62.582,23.354&#xD;&#xA;&#x9;&#x9;&#x9;c-0.052-0.199,0.278-0.636,0.098-0.897"/>
      <path style="fill:none;stroke:#000000;stroke-width:0.3;stroke-linecap:round;" d="M61.724,21.835&#xD;&#xA;&#x9;&#x9;&#x9;c0.069-0.076,0.356-0.26,0.24-0.49"/>
      <path style="fill:none;stroke:#000000;stroke-width:0.3;stroke-linecap:round;" d="M61.133,20.724&#xD;&#xA;&#x9;&#x9;&#x9;c0.116-0.053,0.465-0.146,0.42-0.368"/>
    </g>
    <g>
      <path style="fill:none;stroke:#000000;stroke-width:0.3;stroke-linecap:round;stroke-linejoin:round;" d="M43.229,49.631&#xD;&#xA;&#x9;&#x9;&#x9;c-0.715-0.215-1.611,0.092-1.789,0.613"/>
      <path style="fill:none;stroke:#000000;stroke-width:0.3;stroke-linecap:round;stroke-linejoin:round;" d="M41.977,50.72&#xD;&#xA;&#x9;&#x9;&#x9;c0.09-0.522,1.02-0.752,1.306-0.507c-0.591-0.275-0.878,0.706-0.359,0.736"/>
      <path style="fill:none;stroke:#000000;stroke-width:0.3;stroke-linecap:round;stroke-linejoin:round;" d="M47.736,38.593&#xD;&#xA;&#x9;&#x9;&#x9;c-0.429,0.184-0.555,0.858,0,1.364"/>
      <path style="fill:none;stroke:#000000;stroke-width:0.3;stroke-linecap:round;stroke-linejoin:round;" d="M48.381,38.746&#xD;&#xA;&#x9;&#x9;&#x9;c-0.305,0.215-0.287,0.859,0.16,1.011c-0.374-0.229,0-0.628,0.269-0.644c0.268-0.015,0.447,0.261,0.126,0.536"/>
      <path style="fill:none;stroke:#000000;stroke-width:0.3;stroke-linecap:round;stroke-linejoin:round;" d="M73.512,40.264&#xD;&#xA;&#x9;&#x9;&#x9;c-1.004-0.23-1.808,0.767-0.896,1.655c-0.019-0.858,0.697-1.426,1.574-1.272"/>
      <path style="fill:none;stroke:#000000;stroke-width:0.3;stroke-linecap:round;stroke-linejoin:round;" d="M73.789,41.241&#xD;&#xA;&#x9;&#x9;&#x9;c-0.248,0-0.385,0.165-0.385,0.327c0,0.168,0.17,0.33,0.446,0.33c0.178,0,0.322-0.177,0.322-0.314"/>
      <path style="fill:none;stroke:#000000;stroke-width:0.3;stroke-linecap:round;stroke-linejoin:round;" d="M77.32,22.418&#xD;&#xA;&#x9;&#x9;&#x9;c0.161,0.521,1.004,0.736,1.664,0.613"/>
      <path style="fill:none;stroke:#000000;stroke-width:0.3;stroke-linecap:round;stroke-linejoin:round;" d="M78.984,22.694&#xD;&#xA;&#x9;&#x9;&#x9;c-0.519,0.016-0.95-0.398-0.913-0.751c0,0.261,0.699,0.383,0.913,0.215"/>
    </g>
    <g>
      <path style="fill:none;stroke:#000000;stroke-width:0.3;stroke-linecap:round;" d="M43.479,40.202&#xD;&#xA;&#x9;&#x9;&#x9;c-0.142-0.307,0.429-0.613,0.447-0.904s0.646-0.521,1.288,0.031"/>
      <path style="fill:none;stroke:#000000;stroke-width:0.3;stroke-linecap:round;" d="M44.909,36.063&#xD;&#xA;&#x9;&#x9;&#x9;c-0.124,0.046-0.232,0.107-0.338,0.138"/>
      <path style="fill:none;stroke:#000000;stroke-width:0.3;stroke-linecap:round;" d="M46.146,37.734&#xD;&#xA;&#x9;&#x9;&#x9;c-0.152,0.008-0.467-0.007-0.635-0.107"/>
      <path style="fill:none;stroke:#000000;stroke-width:0.3;stroke-linecap:round;" d="M45.519,38.317&#xD;&#xA;&#x9;&#x9;&#x9;c-0.124,0.053-0.403,0.146-0.563,0.176"/>
      <path style="fill:none;stroke:#000000;stroke-width:0.3;stroke-linecap:round;" d="M39.383,47.577&#xD;&#xA;&#x9;&#x9;&#x9;c-0.018,0.276,0.305,0.674,0.483,0.797"/>
      <path style="fill:none;stroke:#000000;stroke-width:0.3;stroke-linecap:round;" d="M40.78,46.917&#xD;&#xA;&#x9;&#x9;&#x9;c-0.181,0.23-0.287,0.629-0.181,0.905"/>
      <path style="fill:none;stroke:#000000;stroke-width:0.3;stroke-linecap:round;" d="M43.443,47.837&#xD;&#xA;&#x9;&#x9;&#x9;c-0.323-0.184-0.106-0.66-0.142-0.966c-0.036-0.307,0.375-0.798,1.179-0.383"/>
      <path style="fill:none;stroke:#000000;stroke-width:0.3;stroke-linecap:round;" d="M40.439,46.089&#xD;&#xA;&#x9;&#x9;&#x9;c0.322-0.045,0.661-0.03,0.877,0.046"/>
      <path style="fill:none;stroke:#000000;stroke-width:0.3;stroke-linecap:round;" d="M44.517,45.215&#xD;&#xA;&#x9;&#x9;&#x9;c-0.142,0.169-0.178,0.353-0.196,0.476"/>
      <path style="fill:none;stroke:#000000;stroke-width:0.3;stroke-linecap:round;" d="M46.02,45.185&#xD;&#xA;&#x9;&#x9;&#x9;c-0.251,0-0.465,0.153-0.573,0.307"/>
      <path style="fill:none;stroke:#000000;stroke-width:0.3;stroke-linecap:round;" d="M42.55,37.336&#xD;&#xA;&#x9;&#x9;&#x9;c0.286,0.084,1.027,0.475,1.055,0.881"/>
      <path style="fill:none;stroke:#000000;stroke-width:0.3;stroke-linecap:round;" d="M45.591,35.342&#xD;&#xA;&#x9;&#x9;&#x9;c-0.878-0.015-1.215-0.782-0.555-0.782"/>
      <path style="fill:none;stroke:#000000;stroke-width:0.3;stroke-linecap:round;" d="M47.163,36.37&#xD;&#xA;&#x9;&#x9;&#x9;c-0.338,0.123-0.178,0.629,0.305,0.874"/>
      <path style="fill:none;stroke:#000000;stroke-width:0.3;stroke-linecap:round;" d="M45.072,41.183&#xD;&#xA;&#x9;&#x9;&#x9;c-0.17-0.184,0.054-0.72,0.607-0.559"/>
      <path style="fill:none;stroke:#000000;stroke-width:0.3;stroke-linecap:round;" d="M46.378,46.78&#xD;&#xA;&#x9;&#x9;&#x9;c0.033-0.468,0.722-0.744,1.001-0.215"/>
      <path style="fill:none;stroke:#000000;stroke-width:0.3;stroke-linecap:round;" d="M43.838,48.114&#xD;&#xA;&#x9;&#x9;&#x9;c-0.046-0.515,0.258-0.683,0.526-0.713c0.269-0.031,0.654,0.161,0.832,0.498"/>
      <path style="fill:none;stroke:#000000;stroke-width:0.3;stroke-linecap:round;" d="M38.508,48.497&#xD;&#xA;&#x9;&#x9;&#x9;c0.034-0.307,0.338-0.628,0.661-0.583"/>
      <path style="fill:none;stroke:#000000;stroke-width:0.3;stroke-linecap:round;" d="M71.238,34.882&#xD;&#xA;&#x9;&#x9;&#x9;c-0.232,0.146-0.384,0.797,0.501,0.858"/>
      <path style="fill:none;stroke:#000000;stroke-width:0.3;stroke-linecap:round;" d="M69.879,35.956&#xD;&#xA;&#x9;&#x9;&#x9;c0,0.076,0.116,0.184,0.189,0.229"/>
      <path style="fill:none;stroke:#000000;stroke-width:0.3;stroke-linecap:round;" d="M74.101,37.182&#xD;&#xA;&#x9;&#x9;&#x9;c-0.232-0.153-0.832,0.468-0.287,0.92"/>
      <path style="fill:none;stroke:#000000;stroke-width:0.3;stroke-linecap:round;" d="M68.412,42.334&#xD;&#xA;&#x9;&#x9;&#x9;c-0.132-0.437,0.34-0.552,0.787-0.46"/>
      <path style="fill:none;stroke:#000000;stroke-width:0.3;stroke-linecap:round;" d="M67.268,39.236&#xD;&#xA;&#x9;&#x9;&#x9;c0.27-0.153,0.538-0.322,0.878-0.398"/>
      <path style="fill:none;stroke:#000000;stroke-width:0.3;stroke-linecap:round;" d="M67.127,40.923c0-0.368,0.214-0.675,0.41-0.767&#xD;&#xA;&#x9;&#x9;&#x9;"/>
      <path style="fill:none;stroke:#000000;stroke-width:0.3;stroke-linecap:round;" d="M68.699,36.691&#xD;&#xA;&#x9;&#x9;&#x9;c-0.037,0.445,0.18,0.875,0.34,1.104"/>
      <path style="fill:none;stroke:#000000;stroke-width:0.3;stroke-linecap:round;" d="M72.958,36.722&#xD;&#xA;&#x9;&#x9;&#x9;c-0.262,0.069-0.494,0.153-0.592,0.337"/>
      <path style="fill:none;stroke:#000000;stroke-width:0.3;stroke-linecap:round;" d="M72.671,37.979&#xD;&#xA;&#x9;&#x9;&#x9;c0.123-0.092,0.268-0.199,0.33-0.276"/>
      <path style="fill:none;stroke:#000000;stroke-width:0.3;stroke-linecap:round;" d="M79.431,24.596&#xD;&#xA;&#x9;&#x9;&#x9;c0,0.429-0.625,0.659-1.038,0.383"/>
      <path style="fill:none;stroke:#000000;stroke-width:0.3;stroke-linecap:round;" d="M80.792,24.61&#xD;&#xA;&#x9;&#x9;&#x9;c0.275,0.185,1.233,0.008,1.009-0.467"/>
      <path style="fill:none;stroke:#000000;stroke-width:0.3;stroke-linecap:round;" d="M79.626,27.079&#xD;&#xA;&#x9;&#x9;&#x9;c-0.195-0.031-0.536-0.215-0.679-0.368"/>
      <path style="fill:none;stroke:#000000;stroke-width:0.3;stroke-linecap:round;" d="M81.596,25.806&#xD;&#xA;&#x9;&#x9;&#x9;c-0.322,0.062-0.537,0-0.699-0.061"/>
      <path style="fill:none;stroke:#000000;stroke-width:0.3;stroke-linecap:round;" d="M76.516,27.339&#xD;&#xA;&#x9;&#x9;&#x9;c0.178,0,0.607-0.061,0.903-0.192"/>
      <path style="fill:none;stroke:#000000;stroke-width:0.3;stroke-linecap:round;" d="M75.98,24.626&#xD;&#xA;&#x9;&#x9;&#x9;c-0.235-0.023-0.402,0.015-0.537,0.092"/>
      <path style="fill:none;stroke:#000000;stroke-width:0.3;stroke-linecap:round;" d="M79.583,25.377&#xD;&#xA;&#x9;&#x9;&#x9;c-0.063,0.192-0.225,0.491-0.422,0.622"/>
      <path style="fill:none;stroke:#000000;stroke-width:0.3;stroke-linecap:round;stroke-linejoin:round;" d="M75.371,26.051&#xD;&#xA;&#x9;&#x9;&#x9;c0.446-0.168,1.001,1.135,2.075,0.675"/>
      <path style="fill:none;stroke:#000000;stroke-width:0.3;stroke-linecap:round;stroke-linejoin:round;" d="M77.536,25.377&#xD;&#xA;&#x9;&#x9;&#x9;c-0.145,0.169-0.234,0.429-0.25,0.66"/>
    </g>
    <g>
      <path style="fill:none;stroke:#000000;stroke-width:0.3;" d="M56.144,23.384c0.142-0.016,0.393-0.062,0.446-0.214"/>
      <path style="fill:none;stroke:#000000;stroke-width:0.3;" d="M37.739,37.658c0.534,0.26,0.912,0.705,0.679,1.364"/>
      <path style="fill:none;stroke:#000000;stroke-width:0.3;" d="M62.331,21.974c0.163,0.092,0.771,0.092,1.11-0.016"/>
      <path style="fill:none;stroke:#000000;stroke-width:0.3;" d="M63.87,22.28c-0.019,0.215,0.054,1.027-0.429,1.196"/>
      <path style="fill:none;stroke:#000000;stroke-width:0.3;" d="M63.619,23.369c0.447,0.123,1.343,0.077,1.629-0.628"/>
      <path style="fill:none;stroke:#000000;stroke-width:0.3;" d="M64.621,23.338c0.234,0.307,0.304,0.905-0.392,1.227"/>
      <path style="fill:none;stroke:#000000;stroke-width:0.3;" d="M64.801,23.845c0.519,0.152,1.716,0.168,1.59-0.706"/>
      <path style="fill:none;stroke:#000000;stroke-width:0.3;" d="M65.981,23.845c0.358,0.429,1.93,0.935,1.681,0.045"/>
      <path style="fill:none;stroke:#000000;stroke-width:0.3;" d="M64.533,25.085c0.606,0.123,1.467-0.23,1.107-1.149"/>
      <path style="fill:none;stroke:#000000;stroke-width:0.3;" d="M67.36,24.396c0.087,0.352,2.089,0.721,1.824-0.077"/>
      <path style="fill:none;stroke:#000000;stroke-width:0.3;" d="M68.806,24.779c0.378,0.735,2.362,0.675,1.734-0.307"/>
      <path style="fill:none;stroke:#000000;stroke-width:0.3;" d="M70.218,25.239c0.396,0.414,2.147,0.168,1.451-0.828"/>
      <path style="fill:none;stroke:#000000;stroke-width:0.3;" d="M71.652,25.224c1.089,0.705,2.358-0.307,0.982-1.043"/>
      <path style="fill:none;stroke:#000000;stroke-width:0.3;" d="M73.259,24.994c0.968,0.66,2.147-0.536,1.306-0.874"/>
      <path style="fill:none;stroke:#000000;stroke-width:0.3;" d="M65.622,24.718c0.305,0.077,0.95,0.046,1.092-0.429"/>
      <path style="fill:none;stroke:#000000;stroke-width:0.3;" d="M66.474,24.61c-0.036,0.698,1.332,0.966,1.68,0.161"/>
      <path style="fill:none;stroke:#000000;stroke-width:0.3;" d="M67.697,25.208c0.251,0.46,1.45,0.644,1.646-0.016"/>
      <path style="fill:none;stroke:#000000;stroke-width:0.3;" d="M69.147,25.5c0.196,0.459,1.234,0.414,1.521-0.062"/>
      <path style="fill:none;stroke:#000000;stroke-width:0.3;" d="M70.292,25.745c0.322,0.598,1.646,0.598,1.948-0.276"/>
      <path style="fill:none;stroke:#000000;stroke-width:0.3;" d="M72.007,25.852c0.52,0.277,1.629,0.169,1.539-0.689"/>
      <path style="fill:none;stroke:#000000;stroke-width:0.3;" d="M73.332,25.776c0.77,0.537,1.861,0.016,1.324-0.889"/>
      <path style="fill:none;stroke:#000000;stroke-width:0.3;" d="M74.601,26.481c0.41-0.061,0.628-0.767,0.196-0.951"/>
      <path style="fill:none;stroke:#000000;stroke-width:0.3;" d="M65.07,26.604c0.856-0.398,1.02-1.073,0.428-1.732"/>
      <path style="fill:none;stroke:#000000;stroke-width:0.3;" d="M65.803,25.929c0.536,0.276,1.557-0.016,1.734-0.69"/>
      <path style="fill:none;stroke:#000000;stroke-width:0.3;" d="M66.536,26.006c0.305,0.337,0.359,0.751-0.036,1.134"/>
      <path style="fill:none;stroke:#000000;stroke-width:0.3;" d="M66.787,26.435c0.946-0.506,2.128,0.429,1.251,0.997"/>
      <path style="fill:none;stroke:#000000;stroke-width:0.3;" d="M67.878,26.389c0.214-0.045,0.588-0.383,0.624-0.767"/>
      <path style="fill:none;stroke:#000000;stroke-width:0.3;" d="M68.306,26.742c0.393-0.353,3.076,0.368,1.375,1.104"/>
      <path style="fill:none;stroke:#000000;stroke-width:0.3;" d="M69.557,25.776c0.52,0.168,0.787,0.797,0,1.012"/>
      <path style="fill:none;stroke:#000000;stroke-width:0.3;" d="M70.237,27.309c0.572-0.506,2.361-0.184,1.719,0.46"/>
      <path style="fill:none;stroke:#000000;stroke-width:0.3;" d="M71.525,27.109c0.322-0.935,2.237-0.352,1.61,0.031"/>
      <path style="fill:none;stroke:#000000;stroke-width:0.3;" d="M71.132,26.174c0.055,0.184,0.072,0.644-0.286,0.889"/>
      <path style="fill:none;stroke:#000000;stroke-width:0.3;" d="M72.741,25.991c0.071,0.153,0.054,0.444-0.106,0.628"/>
      <path style="fill:none;stroke:#000000;stroke-width:0.3;" d="M73.958,26.006c0.106,0.168,0.287,0.49-0.108,0.751"/>
      <path style="fill:none;stroke:#000000;stroke-width:0.3;" d="M58.648,18.954c0.018,0.874,0.374,1.456,1.753,0.904"/>
      <path style="fill:none;stroke:#000000;stroke-width:0.3;" d="M59.076,19.996c-0.679,0.782,0.091,1.625,1.433,0.782"/>
      <path style="fill:none;stroke:#000000;stroke-width:0.3;" d="M56.983,20.379c0.932,0.859,2.594,0.23,1.522-1.073"/>
      <path style="fill:none;stroke:#000000;stroke-width:0.3;" d="M59.631,21.115c-0.178,0.844,0.627,1.012,1.287,0.629"/>
      <path style="fill:none;stroke:#000000;stroke-width:0.3;" d="M56.163,20.517c0.167,0.848,1.179,1.518,2.163,0.997"/>
      <path style="fill:none;stroke:#000000;stroke-width:0.3;" d="M57.377,21.683c0,1.211,1.949,1.349,2.398,0.092"/>
      <path style="fill:none;stroke:#000000;stroke-width:0.3;" d="M59.076,22.541c0.628,1.104,1.985,0.659,2.435-0.015"/>
      <path style="fill:none;stroke:#000000;stroke-width:0.3;" d="M57.701,20.778c0.25,0.536,0.751,1.134,1.912,0.689"/>
      <path style="fill:none;stroke:#000000;stroke-width:0.3;" d="M54.123,20.517c0.16,0.445,1.093,0.981,2.163,0.368"/>
      <path style="fill:none;stroke:#000000;stroke-width:0.3;" d="M54.784,21.084c-0.573,0.72,0.573,1.395,1.949,0.322"/>
      <path style="fill:none;stroke:#000000;stroke-width:0.3;" d="M55.465,21.974c0.232,1.011,0.697,1.824,2.377,0.521"/>
      <path style="fill:none;stroke:#000000;stroke-width:0.3;" d="M57,23.016c0.609,0.644,1.539,1.042,2.416-0.046"/>
      <path style="fill:none;stroke:#000000;stroke-width:0.3;" d="M60.059,23.2c-0.051,0.767,0.127,1.15,0.823,1.119&#xD;&#xA;&#x9;&#x9;&#x9;c0.551-0.023,1.074-0.398,1.379-0.797"/>
      <path style="fill:none;stroke:#000000;stroke-width:0.3;" d="M60.759,24.319c-0.019,0.874,0.784,1.564,2.289,0.675"/>
      <path style="fill:none;stroke:#000000;stroke-width:0.3;" d="M61.383,25.347c-0.287,0.659,0.573,1.732,2.254,1.18"/>
      <path style="fill:none;stroke:#000000;stroke-width:0.3;" d="M57.825,23.599c-0.106,0.843,0.805,1.41,2.271,0.322"/>
      <path style="fill:none;stroke:#000000;stroke-width:0.3;" d="M58.54,24.534c0.054,0.69,0.965,1.518,2.308,0.322"/>
      <path style="fill:none;stroke:#000000;stroke-width:0.3;" d="M59.184,25.408c-0.108,1.181,1.162,1.518,2.236,0.613"/>
      <path style="fill:none;stroke:#000000;stroke-width:0.3;" d="M57.269,24.534c0.286,0.016,0.519-0.199,0.664-0.353"/>
      <path style="fill:none;stroke:#000000;stroke-width:0.3;" d="M57.878,25.393c0.25,0.046,0.679-0.153,0.823-0.399"/>
      <path style="fill:none;stroke:#000000;stroke-width:0.3;" d="M58.505,26.788c0.284,0.261,1.252,0.077,1.376-0.276"/>
      <path style="fill:none;stroke:#000000;stroke-width:0.3;" d="M59.577,26.772c0.537,1.073,1.967,1.027,2.558-0.184"/>
      <path style="fill:none;stroke:#000000;stroke-width:0.3;" d="M61.867,27.018c0.268,0.629,0.949,1.027,2.057,0.813"/>
      <path style="fill:none;stroke:#000000;stroke-width:0.3;" d="M62.404,27.662c-0.628,0.874,0.195,1.901,1.593,0.889"/>
      <path style="fill:none;stroke:#000000;stroke-width:0.3;" d="M62.744,28.965c-0.072,0.552,0.519,1.181,1.322,1.257"/>
      <path style="fill:none;stroke:#000000;stroke-width:0.3;" d="M60.096,27.354c-0.215,1.242,0.822,1.84,2.13,1.181"/>
      <path style="fill:none;stroke:#000000;stroke-width:0.3;" d="M58.576,27.953c0.34,0.23,0.947,0.26,1.521,0.076"/>
      <path style="fill:none;stroke:#000000;stroke-width:0.3;" d="M60.794,28.75c-0.322,1.042,0.93,1.794,2.003,0.629"/>
      <path style="fill:none;stroke:#000000;stroke-width:0.3;" d="M59.058,28.121c0.018,0.537,0.627,1.12,1.683,0.951"/>
      <path style="fill:none;stroke:#000000;stroke-width:0.3;" d="M63.691,30.146c-0.715,0.414-0.859,1.149,0.143,1.625"/>
      <path style="fill:none;stroke:#000000;stroke-width:0.3;" d="M61.939,29.931c0.036,0.628,0.377,0.981,1.179,1.042"/>
      <path style="fill:none;stroke:#000000;stroke-width:0.3;" d="M60.882,29.608c-1.073,0.844-0.017,1.825,1.252,0.997"/>
      <path style="fill:none;stroke:#000000;stroke-width:0.3;" d="M61.634,30.866c-0.356,0.966,0.983,1.549,1.697,0.567"/>
      <path style="fill:none;stroke:#000000;stroke-width:0.3;" d="M59.417,28.812c-0.395,0.95,0.106,1.579,1.021,1.518"/>
      <path style="fill:none;stroke:#000000;stroke-width:0.3;" d="M58.002,28.628c0.054,0.567,0.627,0.766,1.271,0.644"/>
      <path style="fill:none;stroke:#000000;stroke-width:0.3;" d="M58.416,29.225c-0.482,0.798,0.25,1.227,1.216,0.92"/>
      <path style="fill:none;stroke:#000000;stroke-width:0.3;" d="M62.566,31.924c-0.162,0.506-0.072,0.873,0.803,1.042"/>
      <path style="fill:none;stroke:#000000;stroke-width:0.3;" d="M62.618,32.645c-1.057,0.414-1.144,1.288-0.32,1.855"/>
      <path style="fill:none;stroke:#000000;stroke-width:0.3;" d="M61.769,31.671c-0.557,0.429-0.447,1.173,0.161,1.463"/>
      <path style="fill:none;stroke:#000000;stroke-width:0.3;" d="M57.073,28.873c-0.606,0.514-0.025,1.932,1.316,1.158"/>
      <path style="fill:none;stroke:#000000;stroke-width:0.3;" d="M60.56,30.667c-0.82,0.583-0.446,1.641,0.914,1.349"/>
      <path style="fill:none;stroke:#000000;stroke-width:0.3;" d="M59.203,30.222c-0.432,1.043-0.019,1.411,0.947,1.426"/>
      <path style="fill:none;stroke:#000000;stroke-width:0.3;" d="M56.18,28.827c-0.733,0.476-0.537,1.149-0.217,1.457&#xD;&#xA;&#x9;&#x9;&#x9;c0.322,0.307,0.932,0.169,1.128-0.23"/>
      <path style="fill:none;stroke:#000000;stroke-width:0.3;" d="M54.642,28.413c-0.824,0.904,0,1.978,1.161,1.656"/>
      <path style="fill:none;stroke:#000000;stroke-width:0.3;" d="M59.041,31.096c-0.84,0.261-1.482,0.915-0.966,1.487&#xD;&#xA;&#x9;&#x9;&#x9;c0.305,0.337,1.629,0.384,2.003-0.919"/>
      <path style="fill:none;stroke:#000000;stroke-width:0.3;" d="M57.52,30.253c-0.482,0.597-0.32,1.165,0.573,1.456"/>
      <path style="fill:none;stroke:#000000;stroke-width:0.3;" d="M57.468,31.372c-0.519,0.245-0.86,0.537-0.735,1.073"/>
      <path style="fill:none;stroke:#000000;stroke-width:0.3;" d="M56.304,30.437c-0.196,0.721,0.036,1.165,0.555,1.379"/>
      <path style="fill:none;stroke:#000000;stroke-width:0.3;" d="M56.286,31.295c-0.806-0.046-1.216,0.246-0.947,0.92"/>
      <path style="fill:none;stroke:#000000;stroke-width:0.3;" d="M55.411,31.463c-0.787-0.245-0.913-0.828-0.573-1.44"/>
      <path style="fill:none;stroke:#000000;stroke-width:0.3;" d="M54.73,30.927c-0.857,0.03-1.234,0.398-1.234,0.904"/>
      <path style="fill:none;stroke:#000000;stroke-width:0.3;" d="M53.568,28.06c-0.627,0.23-0.823,0.951-0.591,1.349&#xD;&#xA;&#x9;&#x9;&#x9;c0.232,0.399,0.965,0.429,1.414,0.169"/>
      <path style="fill:none;stroke:#000000;stroke-width:0.3;" d="M51.815,27.493c-0.573,0.552,0.088,1.625,1.11,1.365"/>
      <path style="fill:none;stroke:#000000;stroke-width:0.3;" d="M50.349,27.063c-0.538,0.644,0.054,1.717,1.43,1.411"/>
      <path style="fill:none;stroke:#000000;stroke-width:0.3;" d="M51.852,31.463c-0.145-0.766,0.787-1.272,1.93-0.276"/>
      <path style="fill:none;stroke:#000000;stroke-width:0.3;" d="M53.227,29.639c-0.338,0.261-0.5,0.675-0.446,1.012"/>
      <path style="fill:none;stroke:#000000;stroke-width:0.3;" d="M48.882,26.695c-0.591,0.859,0.124,1.641,1.395,1.334"/>
      <path style="fill:none;stroke:#000000;stroke-width:0.3;" d="M52.189,28.827c-0.838,0.72-0.552,1.441,0.073,1.855"/>
      <path style="fill:none;stroke:#000000;stroke-width:0.3;" d="M51.653,29.67c-1.268,0.016-1.34,1.272-0.302,1.671"/>
      <path style="fill:none;stroke:#000000;stroke-width:0.3;" d="M50.687,28.413c-0.519,0.307-0.678,1.15,0.214,1.487"/>
      <path style="fill:none;stroke:#000000;stroke-width:0.3;" d="M50.651,30.298c-0.537-0.215-1.181,0.046-1.127,0.583"/>
      <path style="fill:none;stroke:#000000;stroke-width:0.3;" d="M49.849,30.313c-0.484-0.981-1.899-0.813-1.772,0.199"/>
      <path style="fill:none;stroke:#000000;stroke-width:0.3;" d="M50.241,29.103c-0.304,0.046-0.912,0.2-1.145,0.598"/>
      <path style="fill:none;stroke:#000000;stroke-width:0.3;" d="M49.186,27.999c-0.572,0.551-0.126,1.21,0.338,1.349"/>
      <path style="fill:none;stroke:#000000;stroke-width:0.3;" d="M47.485,26.451c-0.105,0.659,0.199,0.981,1.165,0.919"/>
      <path style="fill:none;stroke:#000000;stroke-width:0.3;" d="M47.826,27.293c-0.377,0.797,0.124,1.15,1.092,1.104"/>
      <path style="fill:none;stroke:#000000;stroke-width:0.3;" d="M48.041,28.275c-0.573,0.583-0.178,1.211,0.376,1.471"/>
      <path style="fill:none;stroke:#000000;stroke-width:0.3;" d="M47.771,29.011c-1.019-0.107-1.179,0.905-0.841,1.38"/>
      <path style="fill:none;stroke:#000000;stroke-width:0.3;" d="M46.948,26.374c-0.625,0.229-0.983,0.904-0.643,1.318&#xD;&#xA;&#x9;&#x9;&#x9;c0.341,0.414,1.02,0.276,1.396,0.062"/>
      <path style="fill:none;stroke:#000000;stroke-width:0.3;" d="M46.52,27.876c-0.519,0.674-0.054,1.181,0.501,1.38"/>
      <path style="fill:none;stroke:#000000;stroke-width:0.3;" d="M44.517,26.297c-0.411,0.369-0.16,1.12,0.841,1.135&#xD;&#xA;&#x9;&#x9;&#x9;c0.806,0.013,1.216-0.644,0.965-1.104"/>
      <path style="fill:none;stroke:#000000;stroke-width:0.3;" d="M45.214,27.432c-0.322,0.613-0.124,1.272,1.092,1.165"/>
      <path style="fill:none;stroke:#000000;stroke-width:0.3;" d="M46.825,29.563c-0.751-0.291-1.753,0-1.324,0.767"/>
      <path style="fill:none;stroke:#000000;stroke-width:0.3;" d="M45.395,28.474c-0.304,0.368-0.199,0.889,0.142,1.211"/>
      <path style="fill:none;stroke:#000000;stroke-width:0.3;" d="M45.34,29.455c-0.501,0.077-0.983,0.307-0.681,0.981"/>
      <path style="fill:none;stroke:#000000;stroke-width:0.3;" d="M44.589,29.884c-0.646-0.168-1.469,0.23-0.968,0.798"/>
      <path style="fill:none;stroke:#000000;stroke-width:0.3;" d="M43.516,30.146c-0.555-0.077-1.216,0.429-0.679,0.935"/>
      <path style="fill:none;stroke:#000000;stroke-width:0.3;" d="M42.62,30.667c-0.501,0.107-1.089,0.598-0.57,0.981"/>
      <path style="fill:none;stroke:#000000;stroke-width:0.3;" d="M45.142,28.259c-0.715,0.276-0.785,0.966-0.447,1.472"/>
      <path style="fill:none;stroke:#000000;stroke-width:0.3;" d="M44.391,26.987c-1.071,0.352-1.053,1.579,0.126,1.962"/>
      <path style="fill:none;stroke:#000000;stroke-width:0.3;" d="M44.017,28.673c-0.646,0.322-0.77,0.935-0.341,1.334"/>
      <path style="fill:none;stroke:#000000;stroke-width:0.3;" d="M42.889,26.527c-0.429,0.123-0.393,1.257,0.75,1.227"/>
      <path style="fill:none;stroke:#000000;stroke-width:0.3;" d="M41.708,26.91c-0.859,0.491,0.179,1.732,1.575,0.844"/>
      <path style="fill:none;stroke:#000000;stroke-width:0.3;" d="M42.514,28.06c-0.126,0.506,0.036,1.058,0.983,1.12"/>
      <path style="fill:none;stroke:#000000;stroke-width:0.3;" d="M42.568,28.735c-0.681,0.215-0.806,1.411,0.428,1.502"/>
      <path style="fill:none;stroke:#000000;stroke-width:0.3;" d="M40.402,27.646c-0.875,0.689,0.715,1.288,1.306,0.291"/>
      <path style="fill:none;stroke:#000000;stroke-width:0.3;" d="M39.187,28.796c-0.429,0.445,1.074,1.61,1.734-0.337"/>
      <path style="fill:none;stroke:#000000;stroke-width:0.3;" d="M41.082,28.428c0.036,0.459,0.359,0.736,1.02,0.767"/>
      <path style="fill:none;stroke:#000000;stroke-width:0.3;" d="M42.086,29.639c-1.056,0.139-1.397,1.273-0.217,1.519"/>
      <path style="fill:none;stroke:#000000;stroke-width:0.3;" d="M40.134,29.486c-0.036,0.429,0.482,0.781,1.074,0.705"/>
      <path style="fill:none;stroke:#000000;stroke-width:0.3;" d="M41.745,31.127c-0.965,0.184-1.091,1.256-0.232,1.196"/>
      <path style="fill:none;stroke:#000000;stroke-width:0.3;" d="M41.066,33.319c-0.805-0.207-0.824-1.027-0.108-1.333"/>
      <path style="fill:none;stroke:#000000;stroke-width:0.3;" d="M40.402,32.598c-0.678,0.353-0.41,1.196-0.054,1.318&#xD;&#xA;&#x9;&#x9;&#x9;c0.359,0.123,0.646-0.03,0.682-0.291"/>
      <path style="fill:none;stroke:#000000;stroke-width:0.3;" d="M40.976,34.806c0.072,0.398-1.654,0.245-0.769-0.997"/>
      <path style="fill:none;stroke:#000000;stroke-width:0.3;" d="M40.196,34.875c-0.581,0.782,0.366,1.418,0.968,0.752"/>
      <path style="fill:none;stroke:#000000;stroke-width:0.3;" d="M40.279,35.817c-0.232,0.629,0.653,1.082,1.223,0.59"/>
      <path style="fill:none;stroke:#000000;stroke-width:0.3;" d="M38.345,29.931c-0.32,0.567,1.288,0.782,1.396-0.384"/>
      <path style="fill:none;stroke:#000000;stroke-width:0.3;" d="M37.899,30.774c-0.323,1.104,2.112,0.874,1.484-0.552"/>
      <path style="fill:none;stroke:#000000;stroke-width:0.3;" d="M39.438,30.958c0.341,0.169,1.36,0.184,1.61-0.751"/>
      <path style="fill:none;stroke:#000000;stroke-width:0.3;" d="M40.315,30.988c0.07,0.291,0.374,0.644,0.661,0.751"/>
      <path style="fill:none;stroke:#000000;stroke-width:0.3;" d="M39.151,31.279c-0.106,0.599,0.591,1.088,1.396,1.043"/>
      <path style="fill:none;stroke:#000000;stroke-width:0.3;" d="M39.277,31.862c-0.396,0.46-0.519,1.349,0.715,1.411"/>
      <path style="fill:none;stroke:#000000;stroke-width:0.3;" d="M37.398,32.016c-0.196,0.475,0.966,0.966,1.647,0.184"/>
      <path style="fill:none;stroke:#000000;stroke-width:0.3;" d="M37.039,33.226c-0.098,0.361,0.95,0.844,1.539-0.689"/>
      <path style="fill:none;stroke:#000000;stroke-width:0.3;" d="M38.113,33.319c0.251,0.383,1.092,0.689,1.611-0.062"/>
      <path style="fill:none;stroke:#000000;stroke-width:0.3;" d="M38.882,33.717c-0.214,0.537,0.377,1.042,1.092,0.89"/>
      <path style="fill:none;stroke:#000000;stroke-width:0.3;" d="M37.54,33.595c-0.142,0.767,0.896,1.211,1.539,0.813"/>
      <path style="fill:none;stroke:#000000;stroke-width:0.3;" d="M36.861,33.932c-0.305,0.981,1.164,1.349,1.716,0.613"/>
      <path style="fill:none;stroke:#000000;stroke-width:0.3;" d="M38.204,34.836c0.054,0.552,1.056,1.027,1.843,0.567"/>
      <path style="fill:none;stroke:#000000;stroke-width:0.3;" d="M36.415,35.296c-0.073,0.246,1.125,0.491,1.306-0.367"/>
      <path style="fill:none;stroke:#000000;stroke-width:0.3;" d="M37.111,35.511c0.287,0.629,1.252,0.782,1.807,0.015"/>
      <path style="fill:none;stroke:#000000;stroke-width:0.3;" d="M38.596,35.833c0.126,0.583,1.001,0.905,1.771,0.507"/>
      <path style="fill:none;stroke:#000000;stroke-width:0.3;" d="M40.689,36.569c-0.196,0.782,0.751,1.411,1.342,0.981"/>
      <path style="fill:none;stroke:#000000;stroke-width:0.3;" d="M39.168,36.431c-0.287,0.858,0.966,1.349,1.663,0.874"/>
      <path style="fill:none;stroke:#000000;stroke-width:0.3;" d="M37.667,36.002c-0.072,0.797,0.661,1.272,1.502,0.919"/>
      <path style="fill:none;stroke:#000000;stroke-width:0.3;" d="M36.074,36.078c-0.25,0.521,1.074,0.951,1.701,0.507"/>
      <path style="fill:none;stroke:#000000;stroke-width:0.3;" d="M35.252,37.504c0.339,0.337,1.519,0,1.627-0.751"/>
      <path style="fill:none;stroke:#000000;stroke-width:0.3;" d="M36.557,37.305c0.431,0.429,1.45,0.66,1.861-0.261"/>
      <path style="fill:none;stroke:#000000;stroke-width:0.3;" d="M38.059,37.52c-0.019,0.659,1.36,1.134,1.807-0.077"/>
      <path style="fill:none;stroke:#000000;stroke-width:0.3;" d="M41.484,37.681c-0.125,0.322,0.17,0.835,0.787,0.896"/>
      <path style="fill:none;stroke:#000000;stroke-width:0.3;" d="M40.348,37.481c-0.087,0.368,0.538,0.881,1.201,0.674"/>
      <path style="fill:none;stroke:#000000;stroke-width:0.3;" d="M41.673,38.31c-0.178,0.398-0.026,0.973,0.599,0.965"/>
      <path style="fill:none;stroke:#000000;stroke-width:0.3;" d="M41.734,39.053c-0.464,0.337-0.269,0.935,0.403,0.958"/>
      <path style="fill:none;stroke:#000000;stroke-width:0.3;" d="M41.495,39.62c-0.664,0.383-0.429,1.227,0.446,1.181"/>
      <path style="fill:none;stroke:#000000;stroke-width:0.3;" d="M39.492,37.995c0,0.828,1.197,0.951,1.43,0.184"/>
      <path style="fill:none;stroke:#000000;stroke-width:0.3;" d="M40.457,38.669c-0.178,0.491,0.287,0.966,1.02,0.829"/>
      <path style="fill:none;stroke:#000000;stroke-width:0.3;" d="M40.599,44.587c0.162,0.199,0.823-0.138,0.645-0.475&#xD;&#xA;&#x9;&#x9;&#x9;c-0.178-0.337-0.88-0.154-0.805,0.199"/>
      <path style="fill:none;stroke:#000000;stroke-width:0.3;" d="M41.082,43.974c0.09-0.674-0.839-0.781-1.071-0.199"/>
      <path style="fill:none;stroke:#000000;stroke-width:0.3;" d="M40.348,43.437c0.232-0.336-0.552-0.797-0.875-0.307"/>
      <path style="fill:none;stroke:#000000;stroke-width:0.3;" d="M39.76,42.931c0.214-0.49-0.681-0.705-0.751-0.26"/>
      <path style="fill:none;stroke:#000000;stroke-width:0.3;" d="M38.81,42.027c0.108-0.245,1.11-0.092,0.682,0.414"/>
      <path style="fill:none;stroke:#000000;stroke-width:0.3;" d="M40.261,43.054c0.393-0.306-0.269-0.935-0.682-0.705"/>
      <path style="fill:none;stroke:#000000;stroke-width:0.3;" d="M42.906,43.989c-0.313,0.03-0.635,0.208-0.402,0.774&#xD;&#xA;&#x9;&#x9;&#x9;c0.163,0.393,0.852,0.414,0.95,0.176"/>
      <path style="fill:none;stroke:#000000;stroke-width:0.3;" d="M42.452,44.273c-0.305-0.168-0.968,0.115-0.664,0.667&#xD;&#xA;&#x9;&#x9;&#x9;c0.23,0.416,0.805,0.245,0.896,0.03"/>
      <path style="fill:none;stroke:#000000;stroke-width:0.3;" d="M40.743,45.063c0.153,0.229,0.912,0.13,1.045-0.123"/>
      <path style="fill:none;stroke:#000000;stroke-width:0.3;" d="M41.262,44.304c0.16-0.092,0.455,0.023,0.519,0.138"/>
      <path style="fill:none;stroke:#000000;stroke-width:0.3;" d="M41.208,40.524c-0.519,0.292-0.196,1.181,0.609,0.951"/>
      <path style="fill:none;stroke:#000000;stroke-width:0.3;" d="M41.048,41.245c-0.413,0.275-0.036,1.134,0.733,0.812"/>
      <path style="fill:none;stroke:#000000;stroke-width:0.3;" d="M41.172,42.057c-0.286,0.246-0.008,0.928,0.733,0.798"/>
      <path style="fill:none;stroke:#000000;stroke-width:0.3;" d="M41.066,42.395c-0.163-0.061-0.583-0.016-0.761,0.215"/>
      <path style="fill:none;stroke:#000000;stroke-width:0.3;" d="M40.599,39.291c-0.393,0.322-0.204,0.981,0.528,1.034"/>
      <path style="fill:none;stroke:#000000;stroke-width:0.3;" d="M40.457,39.965c-0.562,0.237-0.562,1.196,0.563,1.234"/>
      <path style="fill:none;stroke:#000000;stroke-width:0.3;" d="M40.413,41.045c-0.314,0.215-0.162,1.043,0.643,0.936"/>
      <path style="fill:none;stroke:#000000;stroke-width:0.3;" d="M40.671,41.95c-0.116,0.1-0.134,0.353-0.036,0.46"/>
      <path style="fill:none;stroke:#000000;stroke-width:0.3;" d="M40.315,41.636c-0.287,0.008-0.663,0.184-0.761,0.437"/>
      <path style="fill:none;stroke:#000000;stroke-width:0.3;" d="M39.035,41.183c0.108-0.245,0.994-0.229,1.056,0.491"/>
      <path style="fill:none;stroke:#000000;stroke-width:0.3;" d="M40.181,40.816c-0.126,0.023-0.369,0.123-0.431,0.33"/>
      <path style="fill:none;stroke:#000000;stroke-width:0.3;" d="M39.796,38.569c-0.385,0.299-0.573,1.242,0.599,1.426"/>
      <path style="fill:none;stroke:#000000;stroke-width:0.3;" d="M39.017,40.517c0-0.252,0.795-0.467,1.074-0.092"/>
      <path style="fill:none;stroke:#000000;stroke-width:0.3;" d="M38.508,39.145c0.116,0.192,0.669,0.453,1.009,0.238"/>
      <path style="fill:none;stroke:#000000;stroke-width:0.3;" d="M35.627,37.642c-0.018,0.445,0.41,0.843,1.001,0.782&#xD;&#xA;&#x9;&#x9;&#x9;c0.591-0.062,0.715-0.506,0.537-0.797"/>
      <path style="fill:none;stroke:#000000;stroke-width:0.3;" d="M36.719,38.439c-0.395,0.414,0.088,0.997,0.537,0.828"/>
      <path style="fill:none;stroke:#000000;stroke-width:0.3;" d="M37.166,38.148c0.232-0.077,1.001-0.168,1.234,0.138"/>
      <path style="fill:none;stroke:#000000;stroke-width:0.3;" d="M34.68,38.271c-0.181,0.23,0.929,0.46,1.303,0.016"/>
      <path style="fill:none;stroke:#000000;stroke-width:0.3;" d="M35.609,38.516c-0.036,0.307,0.142,0.828,1.056,0.613"/>
      <path style="fill:none;stroke:#000000;stroke-width:0.3;" d="M36.807,39.605c0.145-0.261-0.537-0.69-1.056-0.215&#xD;&#xA;&#x9;&#x9;&#x9;c-0.517,0.475,0.073,1.012,0.396,0.828"/>
      <path style="fill:none;stroke:#000000;stroke-width:0.3;" d="M34.43,38.577c-0.269,0.399,0.77,1.127,1.358,0.452"/>
      <path style="fill:none;stroke:#000000;stroke-width:0.3;" d="M33.741,39.268c-0.376,0.33,0.09,0.935,0.653,0.751&#xD;&#xA;&#x9;&#x9;&#x9;s0.509-0.69,0.375-0.82"/>
      <path style="fill:none;stroke:#000000;stroke-width:0.3;" d="M33.016,39.88c-0.304,0.238-0.009,0.797,0.412,0.797&#xD;&#xA;&#x9;&#x9;&#x9;c0.42,0,0.679-0.284,0.599-0.644"/>
      <path style="fill:none;stroke:#000000;stroke-width:0.3;" d="M34.724,39.835c-0.054,0.352,0.555,0.597,0.947,0.268"/>
      <path style="fill:none;stroke:#000000;stroke-width:0.3;" d="M35.689,39.458c0.054-0.076,0.01-0.207-0.08-0.268"/>
      <path style="fill:none;stroke:#000000;stroke-width:0.3;" d="M32.363,40.356c-0.349,0.238,0.403,0.897,0.876,0.291"/>
      <path style="fill:none;stroke:#000000;stroke-width:0.3;" d="M35.055,40.225c-0.222,0.185,0.134,0.667,0.493,0.521"/>
      <path style="fill:none;stroke:#000000;stroke-width:0.3;" d="M33.831,40.563c0.052,0.33,0.803,0.576,1.278,0.069"/>
      <path style="fill:none;stroke:#000000;stroke-width:0.3;" d="M34.242,40.893c-0.116,0.207,0.116,0.536,0.402,0.49"/>
      <path style="fill:none;stroke:#000000;stroke-width:0.3;" d="M41.36,42.786c-0.278,0.467,0.607,1.012,1.252,0.444"/>
      <path style="fill:none;stroke:#000000;stroke-width:0.3;" d="M42.003,43.483c-0.135,0.253,0.028,0.606,0.268,0.736"/>
      <path style="fill:none;stroke:#000000;stroke-width:0.3;" d="M41.164,44.012c0.062-0.23,0.447-0.444,0.795-0.337"/>
      <path style="fill:none;stroke:#000000;stroke-width:0.3;" d="M40.699,43.407c0.052-0.207,0.375-0.414,0.617-0.36"/>
      <path style="fill:none;stroke:#000000;stroke-width:0.3;" d="M61.761,33.84c-1.271,0.016-0.734,1.763,0.355,1.41"/>
      <path style="fill:none;stroke:#000000;stroke-width:0.3;" d="M61.347,35.128c-0.251,0.353,0.232,0.912,0.77,0.583"/>
      <path style="fill:none;stroke:#000000;stroke-width:0.3;" d="M61.975,35.779c-0.377,0.537,0.965,1.357,1.502,0.514"/>
      <path style="fill:none;stroke:#000000;stroke-width:0.3;" d="M63.048,36.615c0.019,0.506,1.735,0.828,1.484-0.184"/>
      <path style="fill:none;stroke:#000000;stroke-width:0.3;" d="M64.37,36.983c0.414,0.598,1.952,0.659,1.789-0.23"/>
      <path style="fill:none;stroke:#000000;stroke-width:0.3;" d="M65.82,37.366c0.32,0.399,1.823,0.644,1.772-0.184"/>
      <path style="fill:none;stroke:#000000;stroke-width:0.3;" d="M59.721,32.323c0.215,0.474,0.947,0.644,1.753,0.367"/>
      <path style="fill:none;stroke:#000000;stroke-width:0.3;" d="M59.254,32.66c0.503,0.275-0.232,1.532-1.002,1.026"/>
      <path style="fill:none;stroke:#000000;stroke-width:0.3;" d="M59.254,33.441c0.555,0.229,1.236,0.062,1.432-0.613"/>
      <path style="fill:none;stroke:#000000;stroke-width:0.3;" d="M60.346,33.349c0.055,0.353,0.646,0.629,1.415,0.491"/>
      <path style="fill:none;stroke:#000000;stroke-width:0.3;" d="M58.97,33.717c0.715,0.521-0.322,1.594-0.787,1.104"/>
      <path style="fill:none;stroke:#000000;stroke-width:0.3;" d="M59.239,34.116c0.338,0.214,1.215,0.092,1.303-0.475"/>
      <path style="fill:none;stroke:#000000;stroke-width:0.3;" d="M60.15,34.116c0.071,0.368,0.41,0.507,0.894,0.521"/>
      <path style="fill:none;stroke:#000000;stroke-width:0.3;" d="M59.041,34.623c0.358,0.428,1.252,0.551,1.646-0.016"/>
      <path style="fill:none;stroke:#000000;stroke-width:0.3;" d="M60.292,34.929c-0.034,0.414,0.502,0.751,1.055,0.659"/>
      <path style="fill:none;stroke:#000000;stroke-width:0.3;" d="M58.343,35.849c0.465,0.199,0.965-0.553,0.572-1.074"/>
      <path style="fill:none;stroke:#000000;stroke-width:0.3;" d="M58.88,36.646c0.555,0.031,0.624-0.689,0.108-1.088"/>
      <path style="fill:none;stroke:#000000;stroke-width:0.3;" d="M60.15,37.305c0.465-0.092,0.322-0.965-0.806-1.042"/>
      <path style="fill:none;stroke:#000000;stroke-width:0.3;" d="M61.561,37.949c0.449-0.107,0.092-1.073-1.143-1.012"/>
      <path style="fill:none;stroke:#000000;stroke-width:0.3;" d="M63.262,38.286c0.306-0.399-0.696-1.073-1.52-0.72"/>
      <path style="fill:none;stroke:#000000;stroke-width:0.3;" d="M64.102,38.838c0.555,0.138,0.931-1.119-0.821-0.92"/>
      <path style="fill:none;stroke:#000000;stroke-width:0.3;" d="M65.121,38.838c0.485-0.107,0.824-0.858-0.588-0.613"/>
      <path style="fill:none;stroke:#000000;stroke-width:0.3;" d="M66.195,38.899c0.431,0.185,0.627-0.889-0.679-0.597"/>
      <path style="fill:none;stroke:#000000;stroke-width:0.3;" d="M58.989,35.557c0.534,0.26,1.375-0.046,1.304-0.628"/>
      <path style="fill:none;stroke:#000000;stroke-width:0.3;" d="M60.078,35.434c0.181,0.277,0.108,0.813-0.232,0.951"/>
      <path style="fill:none;stroke:#000000;stroke-width:0.3;" d="M60.131,36.078c0.359,0.123,0.842,0.016,1.128-0.475"/>
      <path style="fill:none;stroke:#000000;stroke-width:0.3;" d="M60.759,36.078c0.106,0.215,0.142,0.644-0.091,0.858"/>
      <path style="fill:none;stroke:#000000;stroke-width:0.3;" d="M60.847,36.446c0.395,0.184,0.859-0.061,1.055-0.414"/>
      <path style="fill:none;stroke:#000000;stroke-width:0.3;" d="M61.653,36.339c0.286,0.153,0.536,0.874,0.054,1.165"/>
      <path style="fill:none;stroke:#000000;stroke-width:0.3;" d="M61.975,37.167c0.341,0.016,0.841,0.016,1.161-0.353"/>
      <path style="fill:none;stroke:#000000;stroke-width:0.3;" d="M62.904,37.013c0.305,0.077,0.664,0.506,0.537,0.89"/>
      <path style="fill:none;stroke:#000000;stroke-width:0.3;" d="M63.458,37.765c0.341-0.031,0.93-0.23,1.093-0.583"/>
      <path style="fill:none;stroke:#000000;stroke-width:0.3;" d="M64.388,37.412c0.287,0.138,0.483,0.429,0.449,0.767"/>
      <path style="fill:none;stroke:#000000;stroke-width:0.3;" d="M64.837,37.933c0.338-0.015,0.643-0.168,0.733-0.49"/>
      <path style="fill:none;stroke:#000000;stroke-width:0.3;" d="M65.48,37.658c0.25,0.076,0.555,0.322,0.572,0.613"/>
      <path style="fill:none;stroke:#000000;stroke-width:0.3;" d="M66.017,38.087c0.25-0.031,0.429-0.169,0.591-0.384"/>
      <path style="fill:none;stroke:#000000;stroke-width:0.3;" d="M67.287,37.673c0.322,0.276-0.108,1.196-0.77,1.027"/>
      <path style="fill:none;stroke:#000000;stroke-width:0.3;" d="M60.418,19.091c-0.661,0.337-2.54,0.23-1.61-1.104"/>
      <path style="fill:none;stroke:#000000;stroke-width:0.3;" d="M60.596,18.188c-1.306,0.444-2.914-0.415-1.233-1.35"/>
      <path style="fill:none;stroke:#000000;stroke-width:0.3;" d="M58.916,16.531c-1.091,0-1.824,1.502-0.358,2.023"/>
      <path style="fill:none;stroke:#000000;stroke-width:0.3;" d="M54.675,17.16c-0.284,0.475,0.735,0.997,1.433,0.521&#xD;&#xA;&#x9;&#x9;&#x9;c0.539-0.368,0.5-1.364,0.178-1.748"/>
      <path style="fill:none;stroke:#000000;stroke-width:0.3;" d="M54.123,18.294c-0.358,1.011,2.271,1.073,1.858-0.537"/>
      <path style="fill:none;stroke:#000000;stroke-width:0.3;" d="M53.978,19.797c0.091,0.767,2.522,0.521,1.734-1.028"/>
      <path style="fill:none;stroke:#000000;stroke-width:0.3;" d="M56,18.34c0.198,0.23,0.733,0.629,1.646,0.552"/>
      <path style="fill:none;stroke:#000000;stroke-width:0.3;" d="M56.43,17.251c0.08,0.276,0.625,0.491,1.324,0.284"/>
      <path style="fill:none;stroke:#000000;stroke-width:0.3;" d="M32.023,40.578c-0.617,0.375,0.33,0.966,0.679,0.314"/>
      <path style="fill:none;stroke:#000000;stroke-width:0.3;" d="M31.541,40.869c-0.617,0.376,0.331,0.966,0.679,0.314"/>
      <path style="fill:none;stroke:#000000;stroke-width:0.3;" d="M31.031,41.153c-0.617,0.375,0.331,0.966,0.68,0.315"/>
      <path style="fill:none;stroke:#000000;stroke-width:0.3;" d="M30.494,41.414c-0.591,0.269,0.098,0.928,0.697,0.345"/>
      <path style="fill:none;stroke:#000000;stroke-width:0.3;" d="M29.913,41.667c-0.59,0.269,0.099,0.927,0.698,0.345"/>
      <path style="fill:none;stroke:#000000;stroke-width:0.3;" d="M32.909,40.877c-0.009,0.391,0.858,0.552,1.173-0.03"/>
      <path style="fill:none;stroke:#000000;stroke-width:0.3;" d="M33.454,41.237c-0.268,0.291,0.225,0.652,0.493,0.521"/>
      <path style="fill:none;stroke:#000000;stroke-width:0.3;" d="M32.301,41.183c-0.027,0.33,0.724,0.522,1.091,0.162"/>
      <path style="fill:none;stroke:#000000;stroke-width:0.3;" d="M32.712,41.528c-0.242,0.269,0.232,0.629,0.536,0.521"/>
      <path style="fill:none;stroke:#000000;stroke-width:0.3;" d="M31.8,41.482c0.027,0.261,0.456,0.56,0.921,0.391"/>
      <path style="fill:none;stroke:#000000;stroke-width:0.3;" d="M32.077,41.835c-0.178,0.138-0.089,0.459,0.161,0.559"/>
      <path style="fill:none;stroke:#000000;stroke-width:0.3;" d="M31.147,41.812c-0.072,0.238,0.403,0.66,0.885,0.383"/>
      <path style="fill:none;stroke:#000000;stroke-width:0.3;" d="M31.245,42.088c-0.287,0.192-0.25,0.483,0.116,0.521"/>
      <path style="fill:none;stroke:#000000;stroke-width:0.3;" d="M30.557,42.057c-0.036,0.162,0.206,0.422,0.508,0.392"/>
      <path style="fill:none;stroke:#000000;stroke-width:0.3;" d="M29.027,42.042c-0.286,0.13,0.447,0.797,0.903,0.176"/>
      <path style="fill:none;stroke:#000000;stroke-width:0.3;" d="M28.321,42.318c-0.357,0.146,0.528,0.881,0.921,0.13"/>
      <path style="fill:none;stroke:#000000;stroke-width:0.3;" d="M30.637,42.287c-0.277,0.054-0.457,0.399-0.224,0.537"/>
      <path style="fill:none;stroke:#000000;stroke-width:0.3;" d="M29.734,42.41c-0.036,0.138,0.304,0.368,0.581,0.284"/>
      <path style="fill:none;stroke:#000000;stroke-width:0.3;" d="M29.501,42.472c-0.269,0.146-0.125,0.552,0.188,0.49"/>
      <path style="fill:none;stroke:#000000;stroke-width:0.3;" d="M28.544,42.74c-0.25,0.161-0.08,0.483,0.269,0.406"/>
      <path style="fill:none;stroke:#000000;stroke-width:0.3;" d="M29,42.716c0.009,0.085,0.233,0.215,0.421,0.162"/>
      <path style="fill:none;stroke:#000000;stroke-width:0.3;" d="M27.677,42.579c-0.312,0.115-0.295,0.79,0.76,0.422"/>
      <path style="fill:none;stroke:#000000;stroke-width:0.3;" d="M26.971,42.847c-0.438,0.184-0.295,0.69,0.662,0.207"/>
      <path style="fill:none;stroke:#000000;stroke-width:0.3;" d="M27.712,43.093c-0.115,0.076-0.241,0.414,0.197,0.283"/>
      <path style="fill:none;stroke:#000000;stroke-width:0.3;" d="M26.908,43.253c-0.179,0.138-0.062,0.422,0.331,0.315"/>
      <path style="fill:none;stroke:#000000;stroke-width:0.3;" d="M25.986,43.299c-0.322,0.161,0.384,0.376,0.859-0.054"/>
      <path style="fill:none;stroke:#000000;stroke-width:0.3;" d="M26.202,43.499c-0.144,0.123-0.144,0.483,0.232,0.353"/>
      <path style="fill:none;stroke:#000000;stroke-width:0.3;" d="M25.289,43.645c-0.214,0.138,0.152,0.322,0.823,0.069"/>
      <path style="fill:none;stroke:#000000;stroke-width:0.3;" d="M25.558,43.844c-0.25,0.176-0.224,0.398,0.144,0.33"/>
      <path style="fill:none;stroke:#000000;stroke-width:0.3;" d="M24.815,43.943c-0.277,0.214,0.125,0.36,0.608,0.184"/>
      <path style="fill:none;stroke:#000000;stroke-width:0.3;" d="M24.824,44.181c-0.474,0.184-0.268,0.521,0.027,0.391"/>
      <path style="fill:none;stroke:#000000;stroke-width:0.3;" d="M40.653,45.354c-0.109,0.203,0.25,0.368,0.59,0.322&#xD;&#xA;&#x9;&#x9;&#x9;c0.326-0.044,0.638-0.274,0.393-0.598"/>
      <path style="fill:none;stroke:#000000;stroke-width:0.3;" d="M41.655,45.477c0.322,0.214,0.896-0.031,0.896-0.353"/>
    </g>
    <g>
      <path style="fill:#FFFFFF;stroke:#000000;stroke-width:0.3;" d="M61.383,12.99c-1.43-0.613-4.4-1.749-5.239-0.828&#xD;&#xA;&#x9;&#x9;&#x9;c0.769-0.276,3.022,0.016,4.883,1.487L61.383,12.99z"/>
      <path style="fill:#FFFFFF;stroke:#000000;stroke-width:0.3;" d="M62.25,12.924c-1.654-1.652-2.627-1.282-3.817-1.851&#xD;&#xA;&#x9;&#x9;&#x9;c-1.117-0.534-2.898-0.644-3.244,0.207c1.634-0.682,3.134,0.367,4.055,0.493c1.265,0.174,1.978,1.012,2.349,1.397L62.25,12.924z"/>
      <path style="fill:#FFFFFF;stroke:#000000;stroke-width:0.3;" d="M68.484,12.714c-0.856-1.687-2.694-1.246-3.505-1.962&#xD;&#xA;&#x9;&#x9;&#x9;c-1.18-1.042-4.168-2.009-5.402-1.288c2.721-0.123,3.877,1.606,5.33,2.208C65.945,12.101,67.054,13.02,68.484,12.714z"/>
      <path style="fill:#FFFFFF;stroke:#000000;stroke-width:0.3;" d="M65.265,12.53c-1.466-1.564-3.722-2.944-4.757-2.422&#xD;&#xA;&#x9;&#x9;&#x9;c1.358,0.061,1.789,0.874,2.754,1.395C64.229,12.023,63.799,12.774,65.265,12.53z"/>
      <path style="fill:#FFFFFF;stroke:#000000;stroke-width:0.3;" d="M58.289,15.289c-1.538-0.49-4.542-0.736-5.937,0.767&#xD;&#xA;&#x9;&#x9;&#x9;C54.675,16.393,58.183,16.209,58.289,15.289z"/>
      <path style="fill:#FFFFFF;stroke:#000000;stroke-width:0.3;" d="M58.002,15.872c-1.536-0.613-2.738,0.243-4.185,0.123&#xD;&#xA;&#x9;&#x9;&#x9;c-2.753-0.23-4.722-0.092-4.973,1.042c1.574-1.211,4.222-0.215,5.296-0.46s5.043-0.031,6.296,0.429&#xD;&#xA;&#x9;&#x9;&#x9;C59.793,16.332,58.79,16.147,58.002,15.872z"/>
      <path style="fill:#FFFFFF;stroke:#000000;stroke-width:0.3;" d="M62.832,12.361c-0.356-1.012-0.338-2.085,1.433-2.008&#xD;&#xA;&#x9;&#x9;&#x9;c-0.447-0.475-2.093-0.721-2.362,1.058c-1.948-1.227-4.077-1.441-4.47-0.383c1.001-0.736,2.558-0.2,4.416,1.609&#xD;&#xA;&#x9;&#x9;&#x9;C62.01,12.56,62.44,12.407,62.832,12.361z"/>
      <path style="fill:#FFFFFF;stroke:#000000;stroke-width:0.3;" d="M60.15,13.756c-1.109-0.613-2.612-1.609,0.019-2.008&#xD;&#xA;&#x9;&#x9;&#x9;c-1.128-0.521-2.772-0.292-2.595,1.487c-3.004-1.042-5.162-0.69-5.616,0.337c-0.501,1.135,1.359,1.763,1.683,1.042&#xD;&#xA;&#x9;&#x9;&#x9;c-0.341,0.122-1.502-0.215-0.896-0.859c0.609-0.644,3.725-0.161,6.69,1.166C60.258,15.289,63.084,15.228,60.15,13.756z"/>
      <path style="fill:#FFFFFF;stroke:#000000;stroke-width:0.3;" d="M59.363,15.443c-0.854-1.498-3.632-0.138-4.189-1.588&#xD;&#xA;&#x9;&#x9;&#x9;C54.41,15.979,59.12,14.803,59.363,15.443z"/>
    </g>
    <path style="fill:#FFFFFF;stroke:#000000;stroke-width:0.3;" d="M77.018,17.068c0.579,0.248,1.083-0.142,0.193-0.447&#xD;&#xA;&#x9;&#x9;c0.583,0.247,1.089-0.133,0.2-0.439c0.581,0.248,1.09-0.133,0.199-0.438C77.374,15.948,77.036,16.7,77.018,17.068z"/>
    <g>
      <path style="fill:#FFFFFF;stroke:#000000;stroke-width:0.3;" d="M77.32,14.185c1.287-1.165-0.106-1.563,1.469-2.759&#xD;&#xA;&#x9;&#x9;&#x9;c1.285-0.979,0.244-1.631,1.466-2.392c0.392-0.246,1.251-0.736,1.324-1.227c0.519,1.104-1.611,1.257-1.469,3.036&#xD;&#xA;&#x9;&#x9;&#x9;c0.092,1.132-0.801,1.033-1.144,2.943C78.894,14.185,78.574,15.074,77.32,14.185z"/>
      <path style="fill:#FFFFFF;stroke:#000000;stroke-width:0.3;" d="M77.893,14.707c0.714-1.318,1.535-1.293,1.933-1.81&#xD;&#xA;&#x9;&#x9;&#x9;c0.751-0.981,2.341,0.168,3.683-0.705c-0.231,1.242-2.038,0.797-2.825,1.594C79.896,14.584,79.253,14.952,77.893,14.707z"/>
      <path style="fill:#FFFFFF;stroke:#000000;stroke-width:0.3;" d="M78.071,15.136c1.254-0.858,2.176-0.286,3.043-0.736&#xD;&#xA;&#x9;&#x9;&#x9;c2.181-1.134,3.056,0.23,5.007-0.306c-0.519,1.073-3.399,0.154-4.65,0.951C80.218,15.841,75.817,16.607,78.071,15.136z"/>
    </g>
    <g>
      <path style="fill:#FFFFFF;stroke:#000000;stroke-width:0.3;" d="M74.423,21.253c-0.019-0.491-0.555-1.12-1.307-1.196&#xD;&#xA;&#x9;&#x9;&#x9;c-0.751-0.077-1.073-0.752-1.645-0.782c-0.572-0.031-0.948-1.012-1.736-0.996c-0.787,0.015-1.107,0.889,0.733,1.686&#xD;&#xA;&#x9;&#x9;&#x9;C72.312,20.763,74.35,21.683,74.423,21.253z"/>
      <g>
        <path style="fill:#FFFFFF;stroke:#000000;stroke-width:0.3;" d="M72.098,21.667c-0.787,0.03-0.894,1.011-1.647,1.042&#xD;&#xA;&#x9;&#x9;&#x9;&#x9;c1.038,0.476,1.789-0.214,2.325-0.827L72.098,21.667z"/>
        <path style="fill:#FFFFFF;stroke:#000000;stroke-width:0.3;" d="M72.741,21.79c-0.679,0.491-0.875,1.518,0.108,1.81&#xD;&#xA;&#x9;&#x9;&#x9;&#x9;c-0.592-0.698,1.038-1.012,0.536-1.656L72.741,21.79z"/>
        <path style="fill:#FFFFFF;stroke:#000000;stroke-width:0.3;" d="M73.422,21.82c-0.537,0.889,0.838,0.997,0.481,1.671&#xD;&#xA;&#x9;&#x9;&#x9;&#x9;c0.787-0.154,0.911-1.426,0.197-1.763L73.422,21.82z"/>
      </g>
      <path style="fill:#FFFFFF;stroke:#000000;stroke-width:0.3;" d="M68.162,19.919c1.287-0.062,2.468,0.536,3.258,1.502&#xD;&#xA;&#x9;&#x9;&#x9;c0.5,0.613,2.181,0.858,2.753,0.368c0.573-0.49,0.251-1.533-1.183-1.196c-0.355-0.521-1.393-0.337-1.894-0.767&#xD;&#xA;&#x9;&#x9;&#x9;S68.662,18.172,68.162,19.919z"/>
      <path style="fill:#FFFFFF;stroke:#000000;stroke-width:0.3;stroke-linecap:round;" d="M72.99,20.594&#xD;&#xA;&#x9;&#x9;&#x9;c-0.337,0.062-0.445,0.567-0.23,0.828"/>
      <path style="fill:#FFFFFF;stroke:#000000;stroke-width:0.3;stroke-linecap:round;" d="M73.726,20.901&#xD;&#xA;&#x9;&#x9;&#x9;c0.106,0.153,0.036,0.367-0.019,0.475"/>
      <path style="fill:#FFFFFF;stroke:#000000;stroke-width:0.3;stroke-linecap:round;" d="M70.2,19.965&#xD;&#xA;&#x9;&#x9;&#x9;c0.664,0.031,0.787,0.445,1.505,0.599"/>
      <path style="fill:#FFFFFF;stroke:#000000;stroke-width:0.3;" d="M69.765,18.57c2.286,0.49,4.098,0.919,5.224,1.472&#xD;&#xA;&#x9;&#x9;&#x9;c1.125,0.552,2.865,0.705,4.388,0.337c1.525-0.367,4.462-0.705,4.318,0.92c0.798-0.813-0.22-1.687-2.249-1.84&#xD;&#xA;&#x9;&#x9;&#x9;c0.037-0.797-0.959-1.518-1.675-1.043c0.661-0.077,1.234,0.981-0.071,1.411c0.253-0.797-0.671-1.518-1.635-1.165&#xD;&#xA;&#x9;&#x9;&#x9;c0.617,0.153,1.241,1.04-0.14,1.38c-0.869,0.214-2.14-0.062-3.081-0.552C73.899,19,68.605,17.221,69.765,18.57z"/>
    </g>
    <g>
      <path style="fill:#FFFFFF;stroke:#000000;stroke-width:0.3;" d="M75.531,17.772c-0.716,0.276-0.251,0.92-1.358,1.288&#xD;&#xA;&#x9;&#x9;&#x9;c-1.109,0.368-1.878,1.211-1.628,1.932c0.751-1.411,2.075-1.35,2.54-1.901C75.549,18.539,76.23,17.727,75.531,17.772z"/>
      <path style="fill:#FFFFFF;stroke:#000000;stroke-width:0.3;" d="M75.729,17.865c-0.036,1.119-1.063,0.712-0.663,2.285&#xD;&#xA;&#x9;&#x9;&#x9;c0.127,0.49,0.359,1.288-0.036,2.084c1.154-0.72,0.413-2.234,0.932-2.805c0.251-0.276,0.573-0.705,0.697-1.073&#xD;&#xA;&#x9;&#x9;&#x9;c-0.269,0.644-0.251,1.84,0.482,2.146c-0.591-1.196,1.593-2.177,0.091-3.557C77.018,17.282,76.336,17.88,75.729,17.865z"/>
    </g>
    <path style="fill:#FFFFFF;stroke:#000000;stroke-width:0.3;" d="M72.08,16.746c0.178,0.23,0.359,0.813,0.196,1.134&#xD;&#xA;&#x9;&#x9;c0.358-0.184,0.877-0.659,1.038-0.981c0.732,0.092,1.02,0.874,0.322,1.211c0.429,0,1.161,0,1.574-0.414&#xD;&#xA;&#x9;&#x9;C74.709,17.221,73.153,16.485,72.08,16.746z"/>
    <path style="fill:#FFFFFF;stroke:#000000;stroke-width:0.3;" d="M60.956,14.546c-0.116-0.09-0.313-0.177-0.663-0.239&#xD;&#xA;&#x9;&#x9;c-1.082-0.19-0.522-1.026,0.399-1.019c1.967-1.84,3.072-0.421,5.467-1.004c0.839-0.204,1.415-0.144,1.872,0.025&#xD;&#xA;&#x9;&#x9;c1.073-0.613,2.332-0.441,3.243,0.279c0.104-0.138,0.237-0.244,0.431-0.289c0.84-0.201,1.518,0.414,1.75,1.21&#xD;&#xA;&#x9;&#x9;c0.656-0.104,1.405,0.174,1.897,0.557c0.683-0.3,1.151-0.313,1.325-0.004c0.605-0.246,1.394-0.399,1.788,0.429&#xD;&#xA;&#x9;&#x9;c0.393,0.828-0.93,0.582-1.146,2.33c-0.133,1.079-1.539,1.502-2.646,0.858c-1.776-1.03-3.506-1.196-4.365,0.368&#xD;&#xA;&#x9;&#x9;c-0.86,1.564-1.531,2.473-3.614,1.963c-0.75-0.185-1.716,0.061-2.325,0.767c-0.605,0.705-1.538,0.045-2.646,0.123&#xD;&#xA;&#x9;&#x9;c1.394-0.185,0.859-0.485,2.075-0.552c1.107-0.062,0.821-0.951,1.539-1.073c-2.79,0.613-2.685-0.276-4.975,0.337&#xD;&#xA;&#x9;&#x9;c1.002-1.104,2.576-0.491,3.363-1.135c-2.074-0.031-3.002-1.192-3.934-0.706c-1.468,0.767-0.825,2.949-4.651,2.76&#xD;&#xA;&#x9;&#x9;c-1.86-0.092-3.04,0.123-4.15,1.073c1.934-3.434,4.561-1.547,5.831-2.637c0.751-0.644,1.324-1.134,1.717-1.748&#xD;&#xA;&#x9;&#x9;c0.139-0.216,0.327-0.339,0.563-0.387C55.917,15.976,57.842,14.639,60.956,14.546z"/>
    <path style="fill:#FFFFFF;stroke:#000000;stroke-width:0.3;stroke-linecap:round;" d="M76.673,14.063&#xD;&#xA;&#x9;&#x9;c0.049,0.086,0.075,0.198,0.075,0.336c0,0.675-1.183,0.706-1.252,1.703c-0.039,0.521-0.108,0.812-0.519,0.751&#xD;&#xA;&#x9;&#x9;c-0.413-0.062-0.769-0.613-0.377-1.257"/>
    <path style="fill:#FFFFFF;stroke:#000000;stroke-width:0.3;" d="M61.543,13.541c-0.294-0.178-0.591-0.25-0.857-0.252"/>
    <path style="fill:#FFFFFF;stroke:#000000;stroke-width:0.3;" d="M68.025,12.306c0.947,0.351,1.409,1.195,2.784,1.235&#xD;&#xA;&#x9;&#x9;c1.324,0.04,2.148,1.687,4.365,0.614c0.06-0.029,0.118-0.056,0.176-0.082"/>
    <path style="fill:#FFFFFF;stroke:#000000;stroke-width:0.3;" d="M71.274,12.589c-0.195,0.27-0.242,0.646-0.188,0.976"/>
    <path style="fill:#FFFFFF;stroke:#000000;stroke-width:0.3;" d="M66.946,16.056c-1.681,0-2.108,0.736-2.108,1.441&#xD;&#xA;&#x9;&#x9;c0,0.705,0.784,1.625,2.182,1.625c1.393,0,2.146-0.736,2.146-1.533S68.306,16.056,66.946,16.056z"/>
    <path style="fill:#FFFFFF;stroke:#000000;stroke-width:0.3;" d="M67.25,19.091c-0.036-0.398-0.878-0.337-0.841-0.644&#xD;&#xA;&#x9;&#x9;c0.036-0.306,0.467-0.429,0.467-0.858s0.751-0.46,1.002-0.123c0.249,0.337,1,0.997,1.16,0.659"/>
    <path style="fill:#FFFFFF;stroke:#000000;stroke-width:0.3;" d="M67.878,17.466c-0.396,0.337-0.573,1.027-0.055,1.564"/>
    <path style="fill:#FFFFFF;stroke:#000000;stroke-width:0.3;" d="M68.412,17.988c-0.123,0.229-0.16,0.583-0.018,0.797"/>
    <path style="fill:none;stroke:#000000;stroke-width:0.3;" d="M75.094,16.861c1.313,0.092,1.538-1.15,0.553-1.227"/>
    <path style="fill:none;stroke:#000000;stroke-width:0.3;" d="M73.473,13.511c-0.454-0.498-1.502-0.667-1.518,0.391"/>
    <path style="fill:#FFFFFF;stroke:#000000;stroke-width:0.3;" d="M71.83,15.105c-0.447-0.951-1.593-1.088-2.199-0.613&#xD;&#xA;&#x9;&#x9;c-0.506,0.396-0.52,1.425,0.569,1.64C70.577,15.749,71.311,15.244,71.83,15.105z"/>
    <path style="fill:#FFFFFF;stroke:#000000;stroke-width:0.3;" d="M71.335,14.507c-0.643-0.49-1.589,0.437-0.732,1.288"/>
    <path d="M73.473,13.511c-0.392-0.36-1.252-0.077-1.01,0.652C72.653,13.826,73.055,13.541,73.473,13.511z"/>
    <path d="M71.044,15.475c0.269-0.168,0.55-0.307,0.785-0.37c-0.129-0.273-0.314-0.479-0.529-0.623&#xD;&#xA;&#x9;&#x9;C71.096,14.362,70.507,15.04,71.044,15.475z"/>
    <path style="fill:none;stroke:#000000;stroke-width:0.3;stroke-linecap:round;" d="M69.986,14.231&#xD;&#xA;&#x9;&#x9;c-0.643-0.368-1.234-0.337-1.43-0.031c-0.464-0.016-0.85,0.276-0.866,0.858"/>
    <path style="fill:none;stroke:#000000;stroke-width:0.3;stroke-linecap:round;" d="M68.68,15.305&#xD;&#xA;&#x9;&#x9;c-0.77-0.453-1.822-0.283-1.753,0.729"/>
    <g>
      <path style="fill:none;stroke:#000000;stroke-width:0.3;stroke-linecap:round;" d="M66.464,16.607&#xD;&#xA;&#x9;&#x9;&#x9;c0.376-0.26,0.913-0.444,1.323,0.016"/>
      <path style="fill:none;stroke:#000000;stroke-width:0.3;stroke-linecap:round;" d="M72.207,15.611&#xD;&#xA;&#x9;&#x9;&#x9;c-0.145,0.169-0.251,0.429-0.019,0.829c-0.287-0.322-1.001-0.322-1.771,0.537"/>
      <path style="fill:none;stroke:#000000;stroke-width:0.3;stroke-linecap:round;" d="M73.904,15.565&#xD;&#xA;&#x9;&#x9;&#x9;c-0.931,0.092-0.914,0.613-0.159,0.844"/>
      <path style="fill:none;stroke:#000000;stroke-width:0.3;stroke-linecap:round;" d="M67.287,13.618&#xD;&#xA;&#x9;&#x9;&#x9;c-0.787-0.138-1.36,0.26-0.268,0.598"/>
      <path style="fill:none;stroke:#000000;stroke-width:0.3;stroke-linecap:round;" d="M68.789,13.159&#xD;&#xA;&#x9;&#x9;&#x9;c-1.109-0.23-1.556,0.015-1.056,0.23"/>
      <path style="fill:none;stroke:#000000;stroke-width:0.3;stroke-linecap:round;" d="M65.587,16.976&#xD;&#xA;&#x9;&#x9;&#x9;c-0.035,0.337,0.18,0.781,0.822,0.275"/>
      <path style="fill:none;stroke:#000000;stroke-width:0.3;stroke-linecap:round;" d="M65.803,17.988c0,0.092-0.019,0.2-0.091,0.276"/>
      <path style="fill:none;stroke:#000000;stroke-width:0.3;stroke-linecap:round;" d="M63.227,13.496&#xD;&#xA;&#x9;&#x9;&#x9;c-0.679-0.169-0.806-0.706-0.019-0.66"/>
      <path style="fill:none;stroke:#000000;stroke-width:0.3;stroke-linecap:round;" d="M62.995,14.737&#xD;&#xA;&#x9;&#x9;&#x9;c-0.752-0.214-0.752-0.843-0.126-0.781"/>
      <path style="fill:none;stroke:#000000;stroke-width:0.3;stroke-linecap:round;" d="M64.388,14.415&#xD;&#xA;&#x9;&#x9;&#x9;c-0.875-0.184-0.911-0.705-0.251-0.628"/>
      <path style="fill:none;stroke:#000000;stroke-width:0.3;stroke-linecap:round;" d="M64.497,12.821&#xD;&#xA;&#x9;&#x9;&#x9;c-0.465-0.031-1.18,0.414,0.018,0.675"/>
      <path style="fill:none;stroke:#000000;stroke-width:0.3;stroke-linecap:round;" d="M65.803,13.71&#xD;&#xA;&#x9;&#x9;&#x9;c-1.093-0.138-1.074,0.245-0.43,0.49"/>
      <path style="fill:none;stroke:#000000;stroke-width:0.3;stroke-linecap:round;" d="M66.625,12.821&#xD;&#xA;&#x9;&#x9;&#x9;c-0.841-0.139-1.128,0.291-0.555,0.475"/>
      <path style="fill:none;stroke:#000000;stroke-width:0.3;stroke-linecap:round;" d="M63.978,15.473&#xD;&#xA;&#x9;&#x9;&#x9;c-0.206-0.146-0.377-0.843,0.608-0.637"/>
      <path style="fill:none;stroke:#000000;stroke-width:0.3;stroke-linecap:round;" d="M66.017,15.259&#xD;&#xA;&#x9;&#x9;&#x9;c-0.664-0.153-1.288,0.398-0.679,0.721"/>
      <path style="fill:none;stroke:#000000;stroke-width:0.3;stroke-linecap:round;" d="M66.895,14.599&#xD;&#xA;&#x9;&#x9;&#x9;c-0.7-0.107-1.289,0.062-0.914,0.276"/>
    </g>
    <path style="fill:#FFFFFF;stroke:#000000;stroke-width:0.3;" d="M59.089,16.83c0.431-0.087,1.061,0.093,2.025,0.483&#xD;&#xA;&#x9;&#x9;c0.609,0.246,2.435,0.767,3.577,0.246c-1.179,0.368-2.074-1.166-2.968-0.981c-0.896,0.184-2.532,0.467-3.219-0.092&#xD;&#xA;&#x9;&#x9;c1.681,0.092,2.584-1.049,4.507-0.061c0.537,0.276,1.217,0.46,1.825,0.429c-1.575-1.625-3.649-0.583-3.864-1.901&#xD;&#xA;&#x9;&#x9;c0.947,0.874,3.263-0.2,4.445,1.441"/>
    <path style="fill:#FFFFFF;stroke:#000000;stroke-width:0.3;" d="M73.437,13.511c-0.393,0.062-0.745,0.26-0.974,0.651"/>
    <path style="fill:#FFFFFF;stroke:#000000;stroke-width:0.3;" d="M61.314,15.197c-0.222-0.236-0.122-0.472-0.358-0.658"/>
  </g>
</svg>