<svg version="1.2" baseProfile="tiny" id="EdgeSVG_M1pYH" x="0px" y="0px" width="14.247px" height="50px" viewBox="0 0 14.247 50" xmlns:xlink="http://www.w3.org/1999/xlink" xmlns="http://www.w3.org/2000/svg">
  <linearGradient id="SVGID_1_" gradientUnits="userSpaceOnUse" x1="7.1484" y1="11.4888" x2="7.1484" y2="50.001">
    <stop offset="0" style="stop-color:#FFFFFF;stop-opacity:0.2"/>
    <stop offset="1" style="stop-color:#FFFFFF;stop-opacity:0.1"/>
  </linearGradient>
  <path fill="url(#SVGID_1_)" d="M12.875,35.052C12.875,44.063,9.03,50,7.141,50c-1.715,0-5.718-5.938-5.718-14.948&#xD;&#xA;&#x9;&#x9;c0-3.625,0.716-8.438,1.651-13.395c0-0.031,0-0.047,0.015-0.063c1.208-4.052,3.258-2.248,4.036-5.034&#xD;&#xA;&#x9;&#x9;c0.812-2.882,2.097-6.65,2.748-4.371c0.015,0.032,0.015,0.063,0.032,0.095C11.366,20.091,12.875,30.208,12.875,35.052z"/>
  <linearGradient id="SVGID_2_" gradientUnits="userSpaceOnUse" x1="7.123" y1="5.4702" x2="7.123" y2="50.001">
    <stop offset="0" style="stop-color:#FFFFFF;stop-opacity:0.2"/>
    <stop offset="1" style="stop-color:#FFFFFF;stop-opacity:0.1"/>
  </linearGradient>
  <path fill="url(#SVGID_2_)" d="M12.85,32.717C12.85,43.135,9.006,50,7.116,50C5.4,50,1.396,43.135,1.396,32.717&#xD;&#xA;&#x9;&#x9;c0-4.191,0.715-9.757,1.653-15.488c0-0.038,0-0.055,0.014-0.074c1.208-4.686,3.258-2.599,4.037-5.82&#xD;&#xA;&#x9;&#x9;C7.909,8.001,9.196,3.645,9.848,6.28C9.864,6.317,9.864,6.354,9.88,6.391C11.341,15.416,12.85,27.116,12.85,32.717z M10.562,35.354&#xD;&#xA;&#x9;&#x9;c0-4.187-0.907-12.021-1.889-18.967c-0.681,1.275-1.576,1.808-2.175,2.164c-0.588,0.351-0.855,0.511-1.207,1.835&#xD;&#xA;&#x9;&#x9;c-1.082,6.62-1.605,11.516-1.605,14.968c0,7.813,2.324,12.741,3.479,14.287C8.333,48.087,10.562,42.889,10.562,35.354z"/>
  <linearGradient id="SVGID_3_" gradientUnits="userSpaceOnUse" x1="7.123" y1="5.4702" x2="7.123" y2="50.001">
    <stop offset="0" style="stop-color:#FFFFFF;stop-opacity:0.2"/>
    <stop offset="1" style="stop-color:#FFFFFF;stop-opacity:0"/>
  </linearGradient>
  <path fill="url(#SVGID_3_)" d="M12.85,32.717C12.85,43.135,9.006,50,7.116,50C5.4,50,1.396,43.135,1.396,32.717&#xD;&#xA;&#x9;&#x9;c0-4.191,0.715-9.757,1.653-15.488c0-0.038,0-0.055,0.014-0.074c1.208-4.686,3.258-2.599,4.037-5.82&#xD;&#xA;&#x9;&#x9;C7.909,8.001,9.196,3.645,9.848,6.28C9.864,6.317,9.864,6.354,9.88,6.391C11.341,15.416,12.85,27.116,12.85,32.717z M11.705,34.035&#xD;&#xA;&#x9;&#x9;c0-5.051-1.282-15.44-2.646-24.17c-0.235,0.743-0.521,1.758-0.857,3.141c-0.488,2.019-1.494,2.619-2.228,3.056&#xD;&#xA;&#x9;&#x9;c-0.719,0.429-1.289,0.768-1.806,2.761c-1.095,6.703-1.626,11.679-1.626,15.212c0,9.877,3.578,15.512,4.593,15.957&#xD;&#xA;&#x9;&#x9;C8.324,49.615,11.705,43.596,11.705,34.035z"/>
  <linearGradient id="SVGID_4_" gradientUnits="userSpaceOnUse" x1="2.897" y1="12.814" x2="10.8076" y2="12.814">
    <stop offset="0" style="stop-color:#FFFFFF;stop-opacity:0.2"/>
    <stop offset="1" style="stop-color:#FFFFFF;stop-opacity:0.1"/>
  </linearGradient>
  <path fill="url(#SVGID_4_)" d="M10.808,14.629c-0.207-1.043-0.413-2.087-0.619-3.075c-0.018-0.037-0.018-0.055-0.032-0.092&#xD;&#xA;&#x9;&#x9;c-0.739-2.326-2.171,1.519-3.089,4.449c-0.798,2.617-2.809,1.263-4.17,4.247c0.119-0.97,0.268-1.941,0.415-2.929&#xD;&#xA;&#x9;&#x9;c0-0.038,0-0.055,0.016-0.074c1.123-4.686,3.03-2.599,3.755-5.82C7.838,8.001,9.033,3.645,9.64,6.28&#xD;&#xA;&#x9;&#x9;c0.014,0.037,0.014,0.073,0.029,0.111C10.053,8.99,10.438,11.81,10.808,14.629z"/>
  <linearGradient id="SVGID_5_" gradientUnits="userSpaceOnUse" x1="2.6045" y1="14.1875" x2="11.103" y2="14.1875">
    <stop offset="0" style="stop-color:#FFFFFF;stop-opacity:0.2"/>
    <stop offset="1" style="stop-color:#FFFFFF;stop-opacity:0.1"/>
  </linearGradient>
  <path fill="url(#SVGID_5_)" d="M11.103,16.002c-0.224-1.043-0.444-2.087-0.668-3.075c-0.015-0.037-0.015-0.055-0.032-0.092&#xD;&#xA;&#x9;&#x9;c-0.793-2.325-2.335,1.52-3.318,4.449c-0.858,2.617-3.02,1.263-4.48,4.247c0.127-0.97,0.287-1.941,0.445-2.93&#xD;&#xA;&#x9;&#x9;c0-0.037,0-0.054,0.014-0.073c1.208-4.686,3.258-2.6,4.037-5.821c0.809-3.333,2.094-7.689,2.747-5.054&#xD;&#xA;&#x9;&#x9;C9.864,7.69,9.864,7.727,9.88,7.764C10.292,10.363,10.707,13.183,11.103,16.002z"/>
  <linearGradient id="SVGID_6_" gradientUnits="userSpaceOnUse" x1="7.1235" y1="5.626" x2="7.1235" y2="50.001">
    <stop offset="0" style="stop-color:#FFFFFF;stop-opacity:0.2"/>
    <stop offset="1" style="stop-color:#FFFFFF;stop-opacity:0.1"/>
  </linearGradient>
  <path fill="url(#SVGID_6_)" d="M12.323,32.776C12.323,43.159,8.832,50,7.116,50c-1.558,0-5.192-6.842-5.192-17.224&#xD;&#xA;&#x9;&#x9;c0-4.176,0.648-9.723,1.499-15.433c0-0.037,0-0.055,0.016-0.073c1.095-4.67,2.958-2.591,3.662-5.801&#xD;&#xA;&#x9;&#x9;c0.738-3.32,1.906-7.663,2.497-5.036c0.015,0.037,0.015,0.073,0.03,0.109C10.952,15.538,12.323,27.195,12.323,32.776z&#xD;&#xA;&#x9;&#x9; M11.285,35.476c0-4.596-1.166-14.046-2.402-21.989c-0.214,0.676-0.475,1.599-0.778,2.857c-0.446,1.836-1.357,2.382-2.025,2.779&#xD;&#xA;&#x9;&#x9;c-0.653,0.391-1.17,0.699-1.64,2.512c-0.993,6.097-1.476,10.625-1.476,13.84c0,8.984,3.249,14.111,4.17,14.516&#xD;&#xA;&#x9;&#x9;C8.214,49.648,11.285,44.173,11.285,35.476z"/>
  <linearGradient id="SVGID_7_" gradientUnits="userSpaceOnUse" x1="7.1265" y1="19.4277" x2="7.1265" y2="49.6396">
    <stop offset="0" style="stop-color:#FFFFFF;stop-opacity:0.2"/>
    <stop offset="1" style="stop-color:#FFFFFF;stop-opacity:0.1"/>
  </linearGradient>
  <path fill="url(#SVGID_7_)" d="M7.169,49.639c-1.155-1.405-3.481-5.881-3.481-12.979c0-3.137,0.525-7.585,1.607-13.6&#xD;&#xA;&#x9;&#x9;c0.35-1.202,0.618-1.348,1.206-1.667c0.6-0.324,1.494-0.807,2.174-1.965c0.984,6.31,1.891,13.428,1.891,17.232&#xD;&#xA;&#x9;&#x9;C10.565,43.504,8.336,48.228,7.169,49.639z M10.565,38.677c0-3.212-0.907-9.225-1.891-14.555c-0.68,0.979-1.574,1.388-2.174,1.661&#xD;&#xA;&#x9;&#x9;c-0.588,0.27-0.856,0.392-1.206,1.407c-1.082,5.08-1.607,8.837-1.607,11.487c0,5.995,2.326,9.775,3.481,10.962&#xD;&#xA;&#x9;&#x9;C8.336,48.447,10.565,44.458,10.565,38.677z"/>
  <linearGradient id="SVGID_8_" gradientUnits="userSpaceOnUse" x1="2.7642" y1="14.3032" x2="10.6724" y2="14.3032">
    <stop offset="0" style="stop-color:#FFFFFF;stop-opacity:0.2"/>
    <stop offset="1" style="stop-color:#FFFFFF;stop-opacity:0.1"/>
  </linearGradient>
  <path fill="url(#SVGID_8_)" d="M10.672,16.23c-0.205-1.107-0.412-2.217-0.621-3.265c-0.014-0.039-0.014-0.059-0.029-0.098&#xD;&#xA;&#x9;&#x9;c-0.738-2.468-2.174,1.614-3.09,4.723c-0.797,2.778-2.809,1.34-4.168,4.507c0.119-1.029,0.266-2.059,0.415-3.108&#xD;&#xA;&#x9;&#x9;c0-0.04,0-0.059,0.014-0.078c1.125-4.974,3.031-2.76,3.755-6.179c0.755-3.537,1.951-8.163,2.557-5.364&#xD;&#xA;&#x9;&#x9;c0.017,0.039,0.017,0.079,0.029,0.117C9.92,10.245,10.304,13.237,10.672,16.23z"/>
  <linearGradient id="SVGID_9_" gradientUnits="userSpaceOnUse" x1="2.3784" y1="18.6938" x2="10.7686" y2="18.6938">
    <stop offset="0" style="stop-color:#FFFFFF;stop-opacity:0.2"/>
    <stop offset="1" style="stop-color:#FFFFFF;stop-opacity:0.1"/>
  </linearGradient>
  <path fill="url(#SVGID_9_)" d="M10.769,21.533c-0.219-1.632-0.438-3.265-0.659-4.81c-0.015-0.057-0.015-0.086-0.031-0.144&#xD;&#xA;&#x9;&#x9;c-0.787-3.637-2.305,2.376-3.275,6.959c-0.85,4.094-2.982,1.975-4.425,6.642c0.125-1.517,0.283-3.035,0.439-4.582&#xD;&#xA;&#x9;&#x9;c0-0.056,0-0.085,0.015-0.114c1.193-7.33,3.216-4.066,3.984-9.105c0.801-5.212,2.069-12.026,2.71-7.904&#xD;&#xA;&#x9;&#x9;C9.546,8.533,9.546,8.59,9.562,8.646C9.97,12.714,10.376,17.122,10.769,21.533z"/>
  <linearGradient id="SVGID_10_" gradientUnits="userSpaceOnUse" x1="3.8755" y1="10.5488" x2="9.3643" y2="10.5488">
    <stop offset="0" style="stop-color:#FFFFFF;stop-opacity:0.2"/>
    <stop offset="1" style="stop-color:#FFFFFF;stop-opacity:0.1"/>
  </linearGradient>
  <path fill="url(#SVGID_10_)" d="M9.364,12.019c-0.145-0.845-0.288-1.69-0.429-2.49c-0.012-0.03-0.012-0.045-0.022-0.076&#xD;&#xA;&#x9;&#x9;C8.4,7.571,7.404,10.684,6.769,13.058c-0.555,2.119-1.948,1.022-2.893,3.439c0.084-0.786,0.185-1.571,0.287-2.372&#xD;&#xA;&#x9;&#x9;c0-0.03,0-0.044,0.011-0.061c0.779-3.795,2.104-2.105,2.606-4.714c0.521-2.7,1.353-6.229,1.774-4.094&#xD;&#xA;&#x9;&#x9;c0.01,0.029,0.01,0.06,0.021,0.089C8.84,7.452,9.107,9.736,9.364,12.019z"/>
  <linearGradient id="SVGID_11_" gradientUnits="userSpaceOnUse" x1="7.1235" y1="9.583" x2="7.1235" y2="49.9238">
    <stop offset="0" style="stop-color:#FFFFFF;stop-opacity:0.2"/>
    <stop offset="1" style="stop-color:#FFFFFF;stop-opacity:0.1"/>
  </linearGradient>
  <path fill="url(#SVGID_11_)" d="M12.323,34.265c0,9.439-3.491,15.659-5.207,15.659c-1.558,0-5.192-6.22-5.192-15.659&#xD;&#xA;&#x9;&#x9;c0-3.796,0.648-8.839,1.499-14.03c0-0.033,0-0.049,0.016-0.066c1.095-4.245,2.958-2.356,3.662-5.273&#xD;&#xA;&#x9;&#x9;c0.738-3.02,1.906-6.966,2.497-4.579c0.015,0.033,0.015,0.066,0.03,0.1C10.952,18.593,12.323,29.191,12.323,34.265z M11.285,36.719&#xD;&#xA;&#x9;&#x9;c0-4.178-1.166-12.769-2.402-19.99c-0.214,0.615-0.475,1.455-0.778,2.599c-0.446,1.669-1.357,2.165-2.025,2.527&#xD;&#xA;&#x9;&#x9;c-0.653,0.355-1.17,0.636-1.64,2.283c-0.993,5.543-1.476,9.66-1.476,12.582c0,8.167,3.249,12.828,4.17,13.196&#xD;&#xA;&#x9;&#x9;C8.214,49.603,11.285,44.625,11.285,36.719z"/>
  <linearGradient id="SVGID_12_" gradientUnits="userSpaceOnUse" x1="2.0913" y1="30.8823" x2="12.4912" y2="30.8823">
    <stop offset="0" style="stop-color:#FFFFFF;stop-opacity:0.3"/>
    <stop offset="0.0012" style="stop-color:#FFFFFF;stop-opacity:0.2996"/>
    <stop offset="0.5521" style="stop-color:#FFFFFF;stop-opacity:0.1"/>
    <stop offset="1" style="stop-color:#FFFFFF;stop-opacity:0.3"/>
  </linearGradient>
  <path fill="url(#SVGID_12_)" d="M12.491,34.968c0,8.548-3.489,14.18-5.208,14.18c-1.555,0-5.192-5.631-5.192-14.18&#xD;&#xA;&#x9;&#x9;c0-3.439,0.65-8.005,1.501-12.706c0-0.029,0-0.044,0.015-0.06c1.095-3.845,2.957-2.133,3.664-4.776&#xD;&#xA;&#x9;&#x9;c0.735-2.734,1.902-6.308,2.492-4.146c0.017,0.029,0.017,0.06,0.03,0.091C11.121,20.776,12.491,30.373,12.491,34.968z&#xD;&#xA;&#x9;&#x9; M11.453,37.189c0-3.782-1.167-11.563-2.4-18.103c-0.215,0.557-0.475,1.318-0.78,2.354c-0.444,1.512-1.355,1.959-2.024,2.287&#xD;&#xA;&#x9;&#x9;c-0.653,0.322-1.171,0.576-1.639,2.068c-0.996,5.02-1.477,8.748-1.477,11.394c0,7.398,3.249,11.618,4.168,11.952&#xD;&#xA;&#x9;&#x9;C8.382,48.858,11.453,44.35,11.453,37.189z"/>
  <linearGradient id="SVGID_13_" gradientUnits="userSpaceOnUse" x1="2.6592" y1="35.603" x2="11.5024" y2="35.603">
    <stop offset="0" style="stop-color:#FFFFFF;stop-opacity:0.3"/>
    <stop offset="0.0012" style="stop-color:#FFFFFF;stop-opacity:0.2996"/>
    <stop offset="0.5521" style="stop-color:#FFFFFF;stop-opacity:0.1"/>
    <stop offset="1" style="stop-color:#FFFFFF;stop-opacity:0.3"/>
  </linearGradient>
  <path fill="url(#SVGID_13_)" d="M11.502,38.777c0,6.64-2.969,11.014-4.428,11.014c-1.326,0-4.416-4.374-4.416-11.014&#xD;&#xA;&#x9;&#x9;c0-2.671,0.551-6.218,1.274-9.87c0-0.023,0-0.035,0.013-0.046c0.933-2.987,2.514-1.658,3.116-3.71&#xD;&#xA;&#x9;&#x9;c0.625-2.125,1.619-4.9,2.12-3.221C9.196,21.954,9.196,21.977,9.209,22C10.338,27.753,11.502,35.208,11.502,38.777z M10.619,40.503&#xD;&#xA;&#x9;&#x9;c0-2.938-0.991-8.983-2.042-14.062c-0.184,0.433-0.404,1.023-0.665,1.828c-0.377,1.173-1.154,1.522-1.72,1.777&#xD;&#xA;&#x9;&#x9;c-0.556,0.25-0.996,0.447-1.396,1.606c-0.845,3.9-1.257,6.795-1.257,8.851c0,5.746,2.767,9.024,3.549,9.283&#xD;&#xA;&#x9;&#x9;C8.007,49.567,10.619,46.066,10.619,40.503z"/>
  <linearGradient id="SVGID_14_" gradientUnits="userSpaceOnUse" x1="3.1265" y1="14.187" x2="11.0342" y2="14.187">
    <stop offset="0" style="stop-color:#FFFFFF;stop-opacity:0.3"/>
    <stop offset="0.0012" style="stop-color:#FFFFFF;stop-opacity:0.2996"/>
    <stop offset="0.5521" style="stop-color:#FFFFFF;stop-opacity:0.1"/>
    <stop offset="1" style="stop-color:#FFFFFF;stop-opacity:0.3"/>
  </linearGradient>
  <path fill="url(#SVGID_14_)" d="M11.034,16.114c-0.205-1.107-0.412-2.216-0.621-3.264c-0.013-0.039-0.013-0.059-0.028-0.098&#xD;&#xA;&#x9;&#x9;c-0.738-2.468-2.174,1.614-3.09,4.723c-0.797,2.777-2.809,1.34-4.168,4.507c0.119-1.029,0.266-2.059,0.415-3.108&#xD;&#xA;&#x9;&#x9;c0-0.04,0-0.059,0.013-0.079c1.125-4.974,3.031-2.759,3.756-6.179C8.065,9.08,9.261,4.454,9.867,7.252&#xD;&#xA;&#x9;&#x9;c0.017,0.038,0.017,0.079,0.028,0.117C10.283,10.129,10.666,13.121,11.034,16.114z"/>
  <linearGradient id="SVGID_15_" gradientUnits="userSpaceOnUse" x1="3.061" y1="34.9673" x2="11.1011" y2="34.9673">
    <stop offset="0" style="stop-color:#FFFFFF;stop-opacity:0.3"/>
    <stop offset="0.0012" style="stop-color:#FFFFFF;stop-opacity:0.2996"/>
    <stop offset="0.5521" style="stop-color:#FFFFFF;stop-opacity:0.1"/>
    <stop offset="1" style="stop-color:#FFFFFF;stop-opacity:0.3"/>
  </linearGradient>
  <path fill="url(#SVGID_15_)" d="M11.101,38.261c0,6.891-2.7,11.432-4.026,11.432c-1.204,0-4.014-4.541-4.014-11.432&#xD;&#xA;&#x9;&#x9;c0-2.771,0.5-6.452,1.158-10.243c0-0.023,0-0.036,0.011-0.047c0.849-3.101,2.286-1.72,2.834-3.85&#xD;&#xA;&#x9;&#x9;c0.568-2.206,1.472-5.086,1.928-3.342c0.011,0.024,0.011,0.047,0.024,0.071C10.042,26.821,11.101,34.557,11.101,38.261z&#xD;&#xA;&#x9;&#x9; M10.081,41.481c0.028-0.152,0.055-0.299,0.081-0.506c0.326-2.372-0.18-4.982-1.258-6.497c-0.319-0.45-0.829-0.985-1.441-0.985&#xD;&#xA;&#x9;&#x9;c-0.117,0-0.243,0.019-0.37,0.056c-2.3,0.68-3.356,4.813-2.397,9.449c0.061,0.332,0.147,0.68,0.258,1.06&#xD;&#xA;&#x9;&#x9;C5.758,47,6.683,48.687,7.249,49.484C8.003,48.406,9.306,45.76,10.081,41.481z"/>
  <linearGradient id="SVGID_16_" gradientUnits="userSpaceOnUse" x1="2.9785" y1="14.9683" x2="10.8862" y2="14.9683">
    <stop offset="0" style="stop-color:#FFFFFF;stop-opacity:0.3"/>
    <stop offset="0.0012" style="stop-color:#FFFFFF;stop-opacity:0.2996"/>
    <stop offset="0.5521" style="stop-color:#FFFFFF;stop-opacity:0.1"/>
    <stop offset="1" style="stop-color:#FFFFFF;stop-opacity:0.3"/>
  </linearGradient>
  <path fill="url(#SVGID_16_)" d="M10.886,16.896c-0.205-1.107-0.412-2.217-0.621-3.264c-0.013-0.04-0.013-0.059-0.028-0.098&#xD;&#xA;&#x9;&#x9;c-0.738-2.468-2.174,1.614-3.091,4.723c-0.797,2.777-2.809,1.34-4.168,4.507c0.118-1.029,0.266-2.059,0.415-3.108&#xD;&#xA;&#x9;&#x9;c0-0.04,0-0.059,0.013-0.079c1.125-4.974,3.031-2.76,3.756-6.179C7.917,9.86,9.113,5.234,9.719,8.034&#xD;&#xA;&#x9;&#x9;C9.736,8.072,9.736,8.112,9.748,8.15C10.135,10.91,10.518,13.902,10.886,16.896z"/>
  <linearGradient id="SVGID_17_" gradientUnits="userSpaceOnUse" x1="7.1235" y1="4.882813e-004" x2="7.1235" y2="50.001">
    <stop offset="0" style="stop-color:#FFDA4C;stop-opacity:0"/>
    <stop offset="0.3313" style="stop-color:#FFEA47"/>
    <stop offset="1" style="stop-color:#FFDF51;stop-opacity:0"/>
  </linearGradient>
  <path fill="url(#SVGID_17_)" d="M14.247,31.345C14.247,42.59,9.465,50,7.114,50C4.979,50,0,42.59,0,31.345&#xD;&#xA;&#x9;&#x9;c0-4.524,0.889-10.532,2.056-16.718c0-0.04,0-0.059,0.019-0.079c1.502-5.058,3.165-3.54,4.133-7.017&#xD;&#xA;&#x9;&#x9;c1.008-3.597,2.714-10.46,3.949-6.158C11.391,5.675,14.247,25.298,14.247,31.345z"/>
</svg>