<svg version="1.2" baseProfile="tiny" viewBox="0 0 45.500 40.000" xmlns:xlink="http://www.w3.org/1999/xlink" xmlns="http://www.w3.org/2000/svg">
<path style="fill:#ffffff;" d="M44.089,37.135L23.729,1.688c-0.185-0.32-0.524-0.518-0.894-0.519c-0.001,0-0.002,0-0.003,0    c-0.368,0-0.709,0.196-0.893,0.515L1.309,37.279c-0.186,0.32-0.186,0.714-0.001,1.034c0.185,0.319,0.525,0.517,0.895,0.517h41.076    c0.007,0,0.014,0,0.018,0c0.57,0,1.034-0.462,1.034-1.032C44.33,37.545,44.239,37.315,44.089,37.135z M3.995,36.766L22.829,4.27    l18.665,32.497H3.995z M18.101,35.208h9v0.546h-9V35.208z M24.228,19.375c1.132,0.307,1.071-2.279,1.071-2.279    c1.823,1.712,1.854,3.784,1.86,5.861c0.808,1.127,1.108-0.183,1.301-2.001c2.136,3.213,1.298,5.47,0,7.58    c0.592,0.908,1.179-0.461,1.77-1.163c0.201,4.597-0.974,7.781-5.954,7.069c1.762-1.253,2.795-2.994,2.976-5.301l-1.21,0.636    c0,0,0.189-3.237,0.143-2.636c-0.04,0.471-1.676,0.745-1.676,0.745c0.86-0.173-0.839-4.563-0.791-4.047    c0.007,0.091-0.347,5.096-0.885,4.558l-0.697-3.952c-0.994,3.306-1.106,5.228-1.257,7.209c-0.558-1.56-0.843-3.435-2.093-4.188    c0.45,1.347,0.499,2.506,0.064,2.746c-0.434,0.241-0.809-0.65-0.809-0.65c-0.499,1.657,0.816,3.316,1.861,4.975    c-1.959-1.117-4.443,0.808-4.652-10.463c0.508,0.588,0.858,1.873,1.768,1.208c0.887-0.707,0.451-2.8,0.046-5.022l1.675,2.046    c0.178-2.028,0.422-4,0.605-5.906l1.256,1.627c1.313-1.08,0.334-3.497,0.325-5.347C21.286,12.473,24.777,18.624,24.228,19.375z"/>
</svg>