<svg version="1.2" baseProfile="tiny" viewBox="0 0 11.697 18.000" xmlns:xlink="http://www.w3.org/1999/xlink" xmlns="http://www.w3.org/2000/svg">
<path style="fill:#ffffff;" d="M4.424,0.004C4.432,1.449,5.195,3.333,4.17,4.175L3.192,2.907C3.05,4.393,2.859,5.931,2.72,7.511    L1.415,5.916c0.313,1.733,0.654,3.365-0.038,3.916C0.669,10.353,0.396,9.35,0,8.892c0.162,8.79,2.098,7.286,3.626,8.159    c-0.813-1.295-1.839-2.587-1.451-3.882c0,0,0.291,0.698,0.631,0.509c0.337-0.185,0.3-1.091-0.05-2.142    c0.974,0.59,1.196,2.051,1.632,3.267c0.116-1.546,0.204-3.043,0.979-5.623l0.544,3.086c0.42,0.42,0.695-3.487,0.691-3.558    c-0.037-0.399,1.286,3.021,0.617,3.157c0,0,1.275-0.213,1.307-0.58c0.036-0.471-0.112,2.055-0.112,2.055l0.942-0.494    c-0.141,1.797-0.945,3.153-2.32,4.133c3.885,0.553,4.801-1.93,4.644-5.515c-0.46,0.547-0.921,1.615-1.38,0.909    c1.012-1.647,1.665-3.407,0-5.914C10.148,7.878,9.915,8.898,9.285,8.02C9.282,6.4,9.257,4.785,7.834,3.449    c0,0,0.046,2.018-0.835,1.778C7.429,4.641,4.705-0.156,4.424,0.004z"/>
</svg>