<svg version="1.2" baseProfile="tiny" id="EdgeSVG_kliTd" x="0px" y="0px" width="31.738px" height="43.215px" viewBox="0 0 31.738 43.215" xmlns:xlink="http://www.w3.org/1999/xlink" xmlns="http://www.w3.org/2000/svg">
  <linearGradient id="SVGID_1_" gradientUnits="userSpaceOnUse" x1="0" y1="21.6074" x2="31.7378" y2="21.6074">
    <stop offset="0.0123" style="stop-color:#000000;stop-opacity:0.5"/>
    <stop offset="1" style="stop-color:#000000;stop-opacity:0.5"/>
  </linearGradient>
  <path fill="url(#SVGID_1_)" d="M20.285,11.682V2.084c0.202-0.222,0.333-0.511,0.333-0.834c0-0.689-0.561-1.25-1.25-1.25h-7&#xD;&#xA;&#x9;&#x9;c-0.689,0-1.25,0.561-1.25,1.25c0,0.335,0.136,0.637,0.352,0.861v9.571L0.565,37.792c-0.061,0.122-0.164,0.344-0.271,0.649&#xD;&#xA;&#x9;&#x9;l-0.222,0.859c-0.104,0.588-0.122,1.264,0.117,1.923c0.215,0.593,0.726,1.4,1.932,1.881c0.061,0.024,0.151,0.051,0.264,0.079&#xD;&#xA;&#x9;&#x9;l0.122,0.031h26.59l0.138-0.005l0.114-0.027c0.1-0.023,0.199-0.053,0.261-0.077c1.214-0.482,1.724-1.295,1.938-1.891&#xD;&#xA;&#x9;&#x9;c0.244-0.679,0.22-1.37,0.107-1.965L20.285,11.682z"/>
</svg>