<svg version="1.2" baseProfile="tiny" viewBox="0 0 31.738 43.215" xmlns:xlink="http://www.w3.org/1999/xlink" xmlns="http://www.w3.org/2000/svg">
<path style="fill:#ffffff;" d="M30.2819,38.2522L30.298,38.2522L19.285,11.882L19.285,1.5L19.3681,1.5C19.5059,1.5,19.6179,1.3881,19.6179,1.2502C19.6179,1.1119,19.5049,1.0,19.3681,1.0L12.368,1.0C12.2299,1.0,12.1179,1.1119,12.1179,1.2502C12.1179,1.3881,12.2299,1.5,12.368,1.5L12.4699,1.5L12.4699,11.882L1.479,38.2012C1.34,38.4691,-0.0019,41.1822,2.494,42.1761C2.5279,42.1899,2.5841,42.202,2.6339,42.215L29.099,42.215C29.152,42.202,29.2078,42.1899,29.2431,42.1761C31.6291,41.2271,30.5059,38.7051,30.2819,38.2522Z"/>
</svg>