<svg version="1.2" baseProfile="tiny" id="EdgeSVG_Paftt" x="0px" y="0px" width="57.648px" height="57.648px" viewBox="0 0 57.648 57.648" xmlns:xlink="http://www.w3.org/1999/xlink" xmlns="http://www.w3.org/2000/svg">
  <linearGradient id="SVGID_2_" gradientUnits="userSpaceOnUse" x1="0.5547" y1="39.3691" x2="0.5547" y2="18.3426">
    <stop offset="0" style="stop-color:#000000;stop-opacity:0.5"/>
    <stop offset="0.05" style="stop-color:#000000;stop-opacity:0.5"/>
    <stop offset="0.5" style="stop-color:#FFFFFF;stop-opacity:0.5"/>
    <stop offset="0.95" style="stop-color:#000000;stop-opacity:0.5"/>
    <stop offset="1" style="stop-color:#000000;stop-opacity:0.5"/>
  </linearGradient>
  <rect y="18.279" fill="url(#SVGID_2_)" width="1.109" height="21.09"/>
  <linearGradient id="SVGID_3_" gradientUnits="userSpaceOnUse" x1="13.3198" y1="39.3691" x2="13.3198" y2="18.3426">
    <stop offset="0" style="stop-color:#000000;stop-opacity:0.5"/>
    <stop offset="0.05" style="stop-color:#000000;stop-opacity:0.5"/>
    <stop offset="0.5" style="stop-color:#FFFFFF;stop-opacity:0.5"/>
    <stop offset="0.95" style="stop-color:#000000;stop-opacity:0.5"/>
    <stop offset="1" style="stop-color:#000000;stop-opacity:0.5"/>
  </linearGradient>
  <rect x="12.209" y="18.279" fill="url(#SVGID_3_)" width="2.22" height="21.09"/>
  <linearGradient id="SVGID_4_" gradientUnits="userSpaceOnUse" x1="4.4399" y1="39.3691" x2="4.4399" y2="18.3426">
    <stop offset="0" style="stop-color:#000000;stop-opacity:0.5"/>
    <stop offset="0.05" style="stop-color:#000000;stop-opacity:0.5"/>
    <stop offset="0.5" style="stop-color:#FFFFFF;stop-opacity:0.5"/>
    <stop offset="0.95" style="stop-color:#000000;stop-opacity:0.5"/>
    <stop offset="1" style="stop-color:#000000;stop-opacity:0.5"/>
  </linearGradient>
  <rect x="3.33" y="18.279" fill="url(#SVGID_4_)" width="2.22" height="21.09"/>
  <linearGradient id="SVGID_5_" gradientUnits="userSpaceOnUse" x1="8.8794" y1="39.3691" x2="8.8794" y2="18.3426">
    <stop offset="0" style="stop-color:#000000;stop-opacity:0.5"/>
    <stop offset="0.05" style="stop-color:#000000;stop-opacity:0.5"/>
    <stop offset="0.5" style="stop-color:#FFFFFF;stop-opacity:0.5"/>
    <stop offset="0.95" style="stop-color:#000000;stop-opacity:0.5"/>
    <stop offset="1" style="stop-color:#000000;stop-opacity:0.5"/>
  </linearGradient>
  <rect x="7.77" y="18.279" fill="url(#SVGID_5_)" width="2.219" height="21.09"/>
  <linearGradient id="SVGID_6_" gradientUnits="userSpaceOnUse" x1="26.6392" y1="39.3486" x2="26.6392" y2="18.3248">
    <stop offset="0" style="stop-color:#000000;stop-opacity:0.5"/>
    <stop offset="0.05" style="stop-color:#000000;stop-opacity:0.5"/>
    <stop offset="0.5" style="stop-color:#FFFFFF;stop-opacity:0.5"/>
    <stop offset="0.95" style="stop-color:#000000;stop-opacity:0.5"/>
    <stop offset="1" style="stop-color:#000000;stop-opacity:0.5"/>
  </linearGradient>
  <polygon fill="url(#SVGID_6_)" points="25.529,25.529 27.75,27.75 27.75,29.898 25.529,32.119 &#x9;"/>
  <linearGradient id="SVGID_7_" gradientUnits="userSpaceOnUse" x1="22.1997" y1="39.3506" x2="22.1997" y2="18.3233">
    <stop offset="0" style="stop-color:#000000;stop-opacity:0.5"/>
    <stop offset="0.05" style="stop-color:#000000;stop-opacity:0.5"/>
    <stop offset="0.5" style="stop-color:#FFFFFF;stop-opacity:0.5"/>
    <stop offset="0.95" style="stop-color:#000000;stop-opacity:0.5"/>
    <stop offset="1" style="stop-color:#000000;stop-opacity:0.5"/>
  </linearGradient>
  <polygon fill="url(#SVGID_7_)" points="23.309,23.309 23.309,34.339 21.09,36.559 21.09,21.09 &#x9;"/>
  <linearGradient id="SVGID_8_" gradientUnits="userSpaceOnUse" x1="17.7593" y1="39.3691" x2="17.7593" y2="18.3426">
    <stop offset="0" style="stop-color:#000000;stop-opacity:0.5"/>
    <stop offset="0.05" style="stop-color:#000000;stop-opacity:0.5"/>
    <stop offset="0.5" style="stop-color:#FFFFFF;stop-opacity:0.5"/>
    <stop offset="0.95" style="stop-color:#000000;stop-opacity:0.5"/>
    <stop offset="1" style="stop-color:#000000;stop-opacity:0.5"/>
  </linearGradient>
  <polygon fill="url(#SVGID_8_)" points="16.649,39.369 16.649,18.279 17.621,18.279 18.279,18.279 18.87,18.87 18.87,38.777 &#xD;&#xA;&#x9;&#x9;18.279,39.369 17.621,39.369 &#x9;"/>
  <linearGradient id="SVGID_9_" gradientUnits="userSpaceOnUse" x1="18.2461" y1="0.5547" x2="39.3846" y2="0.5547">
    <stop offset="0" style="stop-color:#000000;stop-opacity:0.5"/>
    <stop offset="0.05" style="stop-color:#000000;stop-opacity:0.5"/>
    <stop offset="0.5" style="stop-color:#FFFFFF;stop-opacity:0.5"/>
    <stop offset="0.95" style="stop-color:#000000;stop-opacity:0.5"/>
    <stop offset="1" style="stop-color:#000000;stop-opacity:0.5"/>
  </linearGradient>
  <rect x="18.279" fill="url(#SVGID_9_)" width="21.091" height="1.109"/>
  <linearGradient id="SVGID_10_" gradientUnits="userSpaceOnUse" x1="18.2461" y1="13.3193" x2="39.3846" y2="13.3193">
    <stop offset="0" style="stop-color:#000000;stop-opacity:0.5"/>
    <stop offset="0.05" style="stop-color:#000000;stop-opacity:0.5"/>
    <stop offset="0.5" style="stop-color:#FFFFFF;stop-opacity:0.5"/>
    <stop offset="0.95" style="stop-color:#000000;stop-opacity:0.5"/>
    <stop offset="1" style="stop-color:#000000;stop-opacity:0.5"/>
  </linearGradient>
  <rect x="18.279" y="12.209" fill="url(#SVGID_10_)" width="21.091" height="2.22"/>
  <linearGradient id="SVGID_11_" gradientUnits="userSpaceOnUse" x1="18.2461" y1="4.4399" x2="39.3846" y2="4.4399">
    <stop offset="0" style="stop-color:#000000;stop-opacity:0.5"/>
    <stop offset="0.05" style="stop-color:#000000;stop-opacity:0.5"/>
    <stop offset="0.5" style="stop-color:#FFFFFF;stop-opacity:0.5"/>
    <stop offset="0.95" style="stop-color:#000000;stop-opacity:0.5"/>
    <stop offset="1" style="stop-color:#000000;stop-opacity:0.5"/>
  </linearGradient>
  <rect x="18.279" y="3.33" fill="url(#SVGID_11_)" width="21.091" height="2.221"/>
  <linearGradient id="SVGID_12_" gradientUnits="userSpaceOnUse" x1="18.2461" y1="8.8794" x2="39.3846" y2="8.8794">
    <stop offset="0" style="stop-color:#000000;stop-opacity:0.5"/>
    <stop offset="0.05" style="stop-color:#000000;stop-opacity:0.5"/>
    <stop offset="0.5" style="stop-color:#FFFFFF;stop-opacity:0.5"/>
    <stop offset="0.95" style="stop-color:#000000;stop-opacity:0.5"/>
    <stop offset="1" style="stop-color:#000000;stop-opacity:0.5"/>
  </linearGradient>
  <rect x="18.279" y="7.77" fill="url(#SVGID_12_)" width="21.091" height="2.22"/>
  <linearGradient id="SVGID_13_" gradientUnits="userSpaceOnUse" x1="18.2456" y1="26.6396" x2="39.3845" y2="26.6396">
    <stop offset="0" style="stop-color:#000000;stop-opacity:0.5"/>
    <stop offset="0.05" style="stop-color:#000000;stop-opacity:0.5"/>
    <stop offset="0.5" style="stop-color:#FFFFFF;stop-opacity:0.5"/>
    <stop offset="0.95" style="stop-color:#000000;stop-opacity:0.5"/>
    <stop offset="1" style="stop-color:#000000;stop-opacity:0.5"/>
  </linearGradient>
  <polygon fill="url(#SVGID_13_)" points="32.12,25.529 29.898,27.75 27.75,27.75 25.529,25.529 &#x9;"/>
  <linearGradient id="SVGID_14_" gradientUnits="userSpaceOnUse" x1="18.2461" y1="22.1997" x2="39.3836" y2="22.1997">
    <stop offset="0" style="stop-color:#000000;stop-opacity:0.5"/>
    <stop offset="0.05" style="stop-color:#000000;stop-opacity:0.5"/>
    <stop offset="0.5" style="stop-color:#FFFFFF;stop-opacity:0.5"/>
    <stop offset="0.95" style="stop-color:#000000;stop-opacity:0.5"/>
    <stop offset="1" style="stop-color:#000000;stop-opacity:0.5"/>
  </linearGradient>
  <polygon fill="url(#SVGID_14_)" points="34.34,23.31 23.31,23.31 21.09,21.09 36.559,21.09 &#x9;"/>
  <linearGradient id="SVGID_15_" gradientUnits="userSpaceOnUse" x1="18.2461" y1="17.7603" x2="39.3846" y2="17.7603">
    <stop offset="0" style="stop-color:#000000;stop-opacity:0.5"/>
    <stop offset="0.05" style="stop-color:#000000;stop-opacity:0.5"/>
    <stop offset="0.5" style="stop-color:#FFFFFF;stop-opacity:0.5"/>
    <stop offset="0.95" style="stop-color:#000000;stop-opacity:0.5"/>
    <stop offset="1" style="stop-color:#000000;stop-opacity:0.5"/>
  </linearGradient>
  <polygon fill="url(#SVGID_15_)" points="18.279,16.649 39.37,16.649 39.37,17.621 39.37,18.279 38.778,18.871 18.871,18.871 &#xD;&#xA;&#x9;&#x9;18.279,18.279 18.279,17.621 &#x9;"/>
  <linearGradient id="SVGID_16_" gradientUnits="userSpaceOnUse" x1="57.0938" y1="39.3691" x2="57.0938" y2="18.3188">
    <stop offset="0" style="stop-color:#000000;stop-opacity:0.5"/>
    <stop offset="0.05" style="stop-color:#000000;stop-opacity:0.5"/>
    <stop offset="0.5" style="stop-color:#FFFFFF;stop-opacity:0.5"/>
    <stop offset="0.95" style="stop-color:#000000;stop-opacity:0.5"/>
    <stop offset="1" style="stop-color:#000000;stop-opacity:0.5"/>
  </linearGradient>
  <rect x="56.539" y="18.279" fill="url(#SVGID_16_)" width="1.109" height="21.09"/>
  <linearGradient id="SVGID_17_" gradientUnits="userSpaceOnUse" x1="44.3291" y1="39.3691" x2="44.3291" y2="18.3188">
    <stop offset="0" style="stop-color:#000000;stop-opacity:0.5"/>
    <stop offset="0.05" style="stop-color:#000000;stop-opacity:0.5"/>
    <stop offset="0.5" style="stop-color:#FFFFFF;stop-opacity:0.5"/>
    <stop offset="0.95" style="stop-color:#000000;stop-opacity:0.5"/>
    <stop offset="1" style="stop-color:#000000;stop-opacity:0.5"/>
  </linearGradient>
  <rect x="43.219" y="18.279" fill="url(#SVGID_17_)" width="2.221" height="21.09"/>
  <linearGradient id="SVGID_18_" gradientUnits="userSpaceOnUse" x1="53.209" y1="39.3691" x2="53.209" y2="18.3188">
    <stop offset="0" style="stop-color:#000000;stop-opacity:0.5"/>
    <stop offset="0.05" style="stop-color:#000000;stop-opacity:0.5"/>
    <stop offset="0.5" style="stop-color:#FFFFFF;stop-opacity:0.5"/>
    <stop offset="0.95" style="stop-color:#000000;stop-opacity:0.5"/>
    <stop offset="1" style="stop-color:#000000;stop-opacity:0.5"/>
  </linearGradient>
  <rect x="52.099" y="18.279" fill="url(#SVGID_18_)" width="2.22" height="21.09"/>
  <linearGradient id="SVGID_19_" gradientUnits="userSpaceOnUse" x1="48.7695" y1="39.3691" x2="48.7695" y2="18.3188">
    <stop offset="0" style="stop-color:#000000;stop-opacity:0.5"/>
    <stop offset="0.05" style="stop-color:#000000;stop-opacity:0.5"/>
    <stop offset="0.5" style="stop-color:#FFFFFF;stop-opacity:0.5"/>
    <stop offset="0.95" style="stop-color:#000000;stop-opacity:0.5"/>
    <stop offset="1" style="stop-color:#000000;stop-opacity:0.5"/>
  </linearGradient>
  <rect x="47.659" y="18.279" fill="url(#SVGID_19_)" width="2.22" height="21.09"/>
  <linearGradient id="SVGID_20_" gradientUnits="userSpaceOnUse" x1="31.0088" y1="39.3486" x2="31.0088" y2="18.3011">
    <stop offset="0" style="stop-color:#000000;stop-opacity:0.5"/>
    <stop offset="0.05" style="stop-color:#000000;stop-opacity:0.5"/>
    <stop offset="0.5" style="stop-color:#FFFFFF;stop-opacity:0.5"/>
    <stop offset="0.95" style="stop-color:#000000;stop-opacity:0.5"/>
    <stop offset="1" style="stop-color:#000000;stop-opacity:0.5"/>
  </linearGradient>
  <polygon fill="url(#SVGID_20_)" points="32.119,25.529 29.898,27.75 29.898,29.898 32.119,32.119 &#x9;"/>
  <linearGradient id="SVGID_21_" gradientUnits="userSpaceOnUse" x1="35.4492" y1="39.3506" x2="35.4492" y2="18.2997">
    <stop offset="0" style="stop-color:#000000;stop-opacity:0.5"/>
    <stop offset="0.05" style="stop-color:#000000;stop-opacity:0.5"/>
    <stop offset="0.5" style="stop-color:#FFFFFF;stop-opacity:0.5"/>
    <stop offset="0.95" style="stop-color:#000000;stop-opacity:0.5"/>
    <stop offset="1" style="stop-color:#000000;stop-opacity:0.5"/>
  </linearGradient>
  <polygon fill="url(#SVGID_21_)" points="34.339,23.309 34.339,34.339 36.559,36.559 36.559,21.09 &#x9;"/>
  <linearGradient id="SVGID_22_" gradientUnits="userSpaceOnUse" x1="39.8887" y1="39.3691" x2="39.8887" y2="18.3188">
    <stop offset="0" style="stop-color:#000000;stop-opacity:0.5"/>
    <stop offset="0.05" style="stop-color:#000000;stop-opacity:0.5"/>
    <stop offset="0.5" style="stop-color:#FFFFFF;stop-opacity:0.5"/>
    <stop offset="0.95" style="stop-color:#000000;stop-opacity:0.5"/>
    <stop offset="1" style="stop-color:#000000;stop-opacity:0.5"/>
  </linearGradient>
  <polygon fill="url(#SVGID_22_)" points="40.999,39.369 40.999,18.279 40.027,18.279 39.369,18.279 38.778,18.87 38.778,38.777 &#xD;&#xA;&#x9;&#x9;39.369,39.369 40.027,39.369 &#x9;"/>
  <linearGradient id="SVGID_23_" gradientUnits="userSpaceOnUse" x1="18.1782" y1="57.0938" x2="39.3496" y2="57.0938">
    <stop offset="0" style="stop-color:#000000;stop-opacity:0.5"/>
    <stop offset="0.05" style="stop-color:#000000;stop-opacity:0.5"/>
    <stop offset="0.5" style="stop-color:#FFFFFF;stop-opacity:0.5"/>
    <stop offset="0.95" style="stop-color:#000000;stop-opacity:0.5"/>
    <stop offset="1" style="stop-color:#000000;stop-opacity:0.5"/>
  </linearGradient>
  <rect x="18.279" y="56.539" fill="url(#SVGID_23_)" width="21.091" height="1.109"/>
  <linearGradient id="SVGID_24_" gradientUnits="userSpaceOnUse" x1="18.1782" y1="44.3291" x2="39.3496" y2="44.3291">
    <stop offset="0" style="stop-color:#000000;stop-opacity:0.5"/>
    <stop offset="0.05" style="stop-color:#000000;stop-opacity:0.5"/>
    <stop offset="0.5" style="stop-color:#FFFFFF;stop-opacity:0.5"/>
    <stop offset="0.95" style="stop-color:#000000;stop-opacity:0.5"/>
    <stop offset="1" style="stop-color:#000000;stop-opacity:0.5"/>
  </linearGradient>
  <rect x="18.279" y="43.219" fill="url(#SVGID_24_)" width="21.091" height="2.221"/>
  <linearGradient id="SVGID_25_" gradientUnits="userSpaceOnUse" x1="18.1782" y1="53.209" x2="39.3496" y2="53.209">
    <stop offset="0" style="stop-color:#000000;stop-opacity:0.5"/>
    <stop offset="0.05" style="stop-color:#000000;stop-opacity:0.5"/>
    <stop offset="0.5" style="stop-color:#FFFFFF;stop-opacity:0.5"/>
    <stop offset="0.95" style="stop-color:#000000;stop-opacity:0.5"/>
    <stop offset="1" style="stop-color:#000000;stop-opacity:0.5"/>
  </linearGradient>
  <rect x="18.279" y="52.099" fill="url(#SVGID_25_)" width="21.091" height="2.22"/>
  <linearGradient id="SVGID_26_" gradientUnits="userSpaceOnUse" x1="18.1782" y1="48.7695" x2="39.3496" y2="48.7695">
    <stop offset="0" style="stop-color:#000000;stop-opacity:0.5"/>
    <stop offset="0.05" style="stop-color:#000000;stop-opacity:0.5"/>
    <stop offset="0.5" style="stop-color:#FFFFFF;stop-opacity:0.5"/>
    <stop offset="0.95" style="stop-color:#000000;stop-opacity:0.5"/>
    <stop offset="1" style="stop-color:#000000;stop-opacity:0.5"/>
  </linearGradient>
  <rect x="18.279" y="47.66" fill="url(#SVGID_26_)" width="21.091" height="2.219"/>
  <linearGradient id="SVGID_27_" gradientUnits="userSpaceOnUse" x1="18.1782" y1="31.0088" x2="39.35" y2="31.0088">
    <stop offset="0" style="stop-color:#000000;stop-opacity:0.5"/>
    <stop offset="0.05" style="stop-color:#000000;stop-opacity:0.5"/>
    <stop offset="0.5" style="stop-color:#FFFFFF;stop-opacity:0.5"/>
    <stop offset="0.95" style="stop-color:#000000;stop-opacity:0.5"/>
    <stop offset="1" style="stop-color:#000000;stop-opacity:0.5"/>
  </linearGradient>
  <polygon fill="url(#SVGID_27_)" points="32.12,32.119 29.898,29.898 27.75,29.898 25.529,32.119 &#x9;"/>
  <linearGradient id="SVGID_28_" gradientUnits="userSpaceOnUse" x1="18.1787" y1="35.4492" x2="39.3492" y2="35.4492">
    <stop offset="0" style="stop-color:#000000;stop-opacity:0.5"/>
    <stop offset="0.05" style="stop-color:#000000;stop-opacity:0.5"/>
    <stop offset="0.5" style="stop-color:#FFFFFF;stop-opacity:0.5"/>
    <stop offset="0.95" style="stop-color:#000000;stop-opacity:0.5"/>
    <stop offset="1" style="stop-color:#000000;stop-opacity:0.5"/>
  </linearGradient>
  <polygon fill="url(#SVGID_28_)" points="34.34,34.34 23.31,34.34 21.09,36.559 36.559,36.559 &#x9;"/>
  <linearGradient id="SVGID_29_" gradientUnits="userSpaceOnUse" x1="18.1782" y1="39.8887" x2="39.3496" y2="39.8887">
    <stop offset="0" style="stop-color:#000000;stop-opacity:0.5"/>
    <stop offset="0.05" style="stop-color:#000000;stop-opacity:0.5"/>
    <stop offset="0.5" style="stop-color:#FFFFFF;stop-opacity:0.5"/>
    <stop offset="0.95" style="stop-color:#000000;stop-opacity:0.5"/>
    <stop offset="1" style="stop-color:#000000;stop-opacity:0.5"/>
  </linearGradient>
  <polygon fill="url(#SVGID_29_)" points="18.279,41 39.37,41 39.37,40.027 39.37,39.369 38.778,38.778 18.871,38.778 18.279,39.369 &#xD;&#xA;&#x9;&#x9;18.279,40.027 &#x9;"/>
  <linearGradient id="SVGID_30_" gradientUnits="userSpaceOnUse" x1="14.4297" y1="28.8237" x2="16.6489" y2="28.8237">
    <stop offset="0" style="stop-color:#FFFFFF;stop-opacity:0"/>
    <stop offset="0.092" style="stop-color:#FFFFFF;stop-opacity:0.1"/>
    <stop offset="0.2025" style="stop-color:#FFFFFF;stop-opacity:0.05"/>
    <stop offset="0.5153" style="stop-color:#FFFFFF;stop-opacity:0.25"/>
    <stop offset="0.816" style="stop-color:#FFFFFF;stop-opacity:0.05"/>
    <stop offset="0.8834" style="stop-color:#FFFFFF;stop-opacity:0.1"/>
    <stop offset="1" style="stop-color:#FFFFFF;stop-opacity:0"/>
  </linearGradient>
  <path fill="url(#SVGID_30_)" d="M15.54,17.168c-0.61,0-1.11,0.5-1.11,1.111v21.09c0,0.61,0.5,1.11,1.11,1.11&#xD;&#xA;&#x9;&#x9;c0.61,0,1.109-0.5,1.109-1.11v-21.09C16.649,17.668,16.15,17.168,15.54,17.168z"/>
  <linearGradient id="SVGID_31_" gradientUnits="userSpaceOnUse" x1="28.8247" y1="1.1006" x2="28.8247" y2="3.3339">
    <stop offset="0" style="stop-color:#FFFFFF;stop-opacity:0"/>
    <stop offset="0.092" style="stop-color:#FFFFFF;stop-opacity:0.1"/>
    <stop offset="0.2025" style="stop-color:#FFFFFF;stop-opacity:0.05"/>
    <stop offset="0.5153" style="stop-color:#FFFFFF;stop-opacity:0.25"/>
    <stop offset="0.816" style="stop-color:#FFFFFF;stop-opacity:0.05"/>
    <stop offset="0.8834" style="stop-color:#FFFFFF;stop-opacity:0.1"/>
    <stop offset="1" style="stop-color:#FFFFFF;stop-opacity:0"/>
  </linearGradient>
  <path fill="url(#SVGID_31_)" d="M40.48,2.22c0-0.61-0.5-1.11-1.11-1.11H18.279c-0.61,0-1.11,0.5-1.11,1.11&#xD;&#xA;&#x9;&#x9;c0,0.61,0.5,1.11,1.11,1.11H39.37C39.98,3.33,40.48,2.83,40.48,2.22z"/>
  <linearGradient id="SVGID_32_" gradientUnits="userSpaceOnUse" x1="28.8247" y1="14.4297" x2="28.8247" y2="16.6694">
    <stop offset="0" style="stop-color:#FFFFFF;stop-opacity:0"/>
    <stop offset="0.092" style="stop-color:#FFFFFF;stop-opacity:0.1"/>
    <stop offset="0.2025" style="stop-color:#FFFFFF;stop-opacity:0.05"/>
    <stop offset="0.5153" style="stop-color:#FFFFFF;stop-opacity:0.25"/>
    <stop offset="0.816" style="stop-color:#FFFFFF;stop-opacity:0.05"/>
    <stop offset="0.8834" style="stop-color:#FFFFFF;stop-opacity:0.1"/>
    <stop offset="1" style="stop-color:#FFFFFF;stop-opacity:0"/>
  </linearGradient>
  <path fill="url(#SVGID_32_)" d="M40.48,15.54c0-0.61-0.5-1.11-1.11-1.11H18.279c-0.61,0-1.11,0.5-1.11,1.11s0.5,1.109,1.11,1.109&#xD;&#xA;&#x9;&#x9;H39.37C39.98,16.649,40.48,16.15,40.48,15.54z"/>
  <linearGradient id="SVGID_33_" gradientUnits="userSpaceOnUse" x1="9.9888" y1="28.8237" x2="12.2095" y2="28.8237">
    <stop offset="0" style="stop-color:#FFFFFF;stop-opacity:0"/>
    <stop offset="0.092" style="stop-color:#FFFFFF;stop-opacity:0.1"/>
    <stop offset="0.2025" style="stop-color:#FFFFFF;stop-opacity:0.05"/>
    <stop offset="0.5153" style="stop-color:#FFFFFF;stop-opacity:0.25"/>
    <stop offset="0.816" style="stop-color:#FFFFFF;stop-opacity:0.05"/>
    <stop offset="0.8834" style="stop-color:#FFFFFF;stop-opacity:0.1"/>
    <stop offset="1" style="stop-color:#FFFFFF;stop-opacity:0"/>
  </linearGradient>
  <path fill="url(#SVGID_33_)" d="M11.099,17.168c-0.61,0-1.11,0.5-1.11,1.111v21.09c0,0.61,0.5,1.11,1.11,1.11s1.11-0.5,1.11-1.11&#xD;&#xA;&#x9;&#x9;v-21.09C12.209,17.668,11.709,17.168,11.099,17.168z"/>
  <linearGradient id="SVGID_34_" gradientUnits="userSpaceOnUse" x1="28.8247" y1="9.9756" x2="28.8247" y2="12.2247">
    <stop offset="0" style="stop-color:#FFFFFF;stop-opacity:0"/>
    <stop offset="0.092" style="stop-color:#FFFFFF;stop-opacity:0.1"/>
    <stop offset="0.2025" style="stop-color:#FFFFFF;stop-opacity:0.05"/>
    <stop offset="0.5153" style="stop-color:#FFFFFF;stop-opacity:0.25"/>
    <stop offset="0.816" style="stop-color:#FFFFFF;stop-opacity:0.05"/>
    <stop offset="0.8834" style="stop-color:#FFFFFF;stop-opacity:0.1"/>
    <stop offset="1" style="stop-color:#FFFFFF;stop-opacity:0"/>
  </linearGradient>
  <path fill="url(#SVGID_34_)" d="M40.48,11.099c0-0.61-0.5-1.11-1.11-1.11H18.279c-0.61,0-1.11,0.5-1.11,1.11&#xD;&#xA;&#x9;&#x9;c0,0.61,0.5,1.11,1.11,1.11H39.37C39.98,12.209,40.48,11.709,40.48,11.099z"/>
  <linearGradient id="SVGID_35_" gradientUnits="userSpaceOnUse" x1="28.8247" y1="5.5225" x2="28.8247" y2="7.7447">
    <stop offset="0" style="stop-color:#FFFFFF;stop-opacity:0"/>
    <stop offset="0.092" style="stop-color:#FFFFFF;stop-opacity:0.1"/>
    <stop offset="0.2025" style="stop-color:#FFFFFF;stop-opacity:0.05"/>
    <stop offset="0.5153" style="stop-color:#FFFFFF;stop-opacity:0.25"/>
    <stop offset="0.816" style="stop-color:#FFFFFF;stop-opacity:0.05"/>
    <stop offset="0.8834" style="stop-color:#FFFFFF;stop-opacity:0.1"/>
    <stop offset="1" style="stop-color:#FFFFFF;stop-opacity:0"/>
  </linearGradient>
  <path fill="url(#SVGID_35_)" d="M40.48,6.66c0-0.61-0.5-1.11-1.11-1.11H18.279c-0.61,0-1.11,0.5-1.11,1.11&#xD;&#xA;&#x9;&#x9;c0,0.609,0.5,1.109,1.11,1.109H39.37C39.98,7.77,40.48,7.27,40.48,6.66z"/>
  <linearGradient id="SVGID_36_" gradientUnits="userSpaceOnUse" x1="1.1094" y1="28.8237" x2="3.3296" y2="28.8237">
    <stop offset="0" style="stop-color:#FFFFFF;stop-opacity:0"/>
    <stop offset="0.092" style="stop-color:#FFFFFF;stop-opacity:0.1"/>
    <stop offset="0.2025" style="stop-color:#FFFFFF;stop-opacity:0.05"/>
    <stop offset="0.5153" style="stop-color:#FFFFFF;stop-opacity:0.25"/>
    <stop offset="0.816" style="stop-color:#FFFFFF;stop-opacity:0.05"/>
    <stop offset="0.8834" style="stop-color:#FFFFFF;stop-opacity:0.1"/>
    <stop offset="1" style="stop-color:#FFFFFF;stop-opacity:0"/>
  </linearGradient>
  <path fill="url(#SVGID_36_)" d="M2.219,17.168c-0.61,0-1.11,0.5-1.11,1.111v21.09c0,0.61,0.5,1.11,1.11,1.11&#xD;&#xA;&#x9;&#x9;c0.61,0,1.11-0.5,1.11-1.11v-21.09C3.33,17.668,2.83,17.168,2.219,17.168z"/>
  <linearGradient id="SVGID_37_" gradientUnits="userSpaceOnUse" x1="28.8247" y1="49.877" x2="28.8247" y2="52.1103">
    <stop offset="0" style="stop-color:#FFFFFF;stop-opacity:0"/>
    <stop offset="0.092" style="stop-color:#FFFFFF;stop-opacity:0.1"/>
    <stop offset="0.2025" style="stop-color:#FFFFFF;stop-opacity:0.05"/>
    <stop offset="0.5153" style="stop-color:#FFFFFF;stop-opacity:0.25"/>
    <stop offset="0.816" style="stop-color:#FFFFFF;stop-opacity:0.05"/>
    <stop offset="0.8834" style="stop-color:#FFFFFF;stop-opacity:0.1"/>
    <stop offset="1" style="stop-color:#FFFFFF;stop-opacity:0"/>
  </linearGradient>
  <path fill="url(#SVGID_37_)" d="M17.169,50.988c0,0.61,0.5,1.11,1.11,1.11H39.37c0.61,0,1.11-0.5,1.11-1.11&#xD;&#xA;&#x9;&#x9;c0-0.609-0.5-1.109-1.11-1.109H18.279C17.669,49.879,17.169,50.379,17.169,50.988z"/>
  <linearGradient id="SVGID_38_" gradientUnits="userSpaceOnUse" x1="28.8247" y1="45.4268" x2="28.8247" y2="47.6368">
    <stop offset="0" style="stop-color:#FFFFFF;stop-opacity:0"/>
    <stop offset="0.092" style="stop-color:#FFFFFF;stop-opacity:0.1"/>
    <stop offset="0.2025" style="stop-color:#FFFFFF;stop-opacity:0.05"/>
    <stop offset="0.5153" style="stop-color:#FFFFFF;stop-opacity:0.25"/>
    <stop offset="0.816" style="stop-color:#FFFFFF;stop-opacity:0.05"/>
    <stop offset="0.8834" style="stop-color:#FFFFFF;stop-opacity:0.1"/>
    <stop offset="1" style="stop-color:#FFFFFF;stop-opacity:0"/>
  </linearGradient>
  <path fill="url(#SVGID_38_)" d="M17.169,46.549c0,0.611,0.5,1.111,1.11,1.111H39.37c0.61,0,1.11-0.5,1.11-1.111&#xD;&#xA;&#x9;&#x9;c0-0.609-0.5-1.109-1.11-1.109H18.279C17.669,45.439,17.169,45.939,17.169,46.549z"/>
  <linearGradient id="SVGID_39_" gradientUnits="userSpaceOnUse" x1="28.8247" y1="54.3096" x2="28.8247" y2="56.5303">
    <stop offset="0" style="stop-color:#FFFFFF;stop-opacity:0"/>
    <stop offset="0.092" style="stop-color:#FFFFFF;stop-opacity:0.1"/>
    <stop offset="0.2025" style="stop-color:#FFFFFF;stop-opacity:0.05"/>
    <stop offset="0.5153" style="stop-color:#FFFFFF;stop-opacity:0.25"/>
    <stop offset="0.816" style="stop-color:#FFFFFF;stop-opacity:0.05"/>
    <stop offset="0.8834" style="stop-color:#FFFFFF;stop-opacity:0.1"/>
    <stop offset="1" style="stop-color:#FFFFFF;stop-opacity:0"/>
  </linearGradient>
  <path fill="url(#SVGID_39_)" d="M17.169,55.43c0,0.609,0.5,1.109,1.11,1.109H39.37c0.61,0,1.11-0.5,1.11-1.109&#xD;&#xA;&#x9;&#x9;c0-0.611-0.5-1.111-1.11-1.111H18.279C17.669,54.318,17.169,54.818,17.169,55.43z"/>
  <linearGradient id="SVGID_40_" gradientUnits="userSpaceOnUse" x1="5.5498" y1="28.8237" x2="7.7695" y2="28.8237">
    <stop offset="0" style="stop-color:#FFFFFF;stop-opacity:0"/>
    <stop offset="0.092" style="stop-color:#FFFFFF;stop-opacity:0.1"/>
    <stop offset="0.2025" style="stop-color:#FFFFFF;stop-opacity:0.05"/>
    <stop offset="0.5153" style="stop-color:#FFFFFF;stop-opacity:0.25"/>
    <stop offset="0.816" style="stop-color:#FFFFFF;stop-opacity:0.05"/>
    <stop offset="0.8834" style="stop-color:#FFFFFF;stop-opacity:0.1"/>
    <stop offset="1" style="stop-color:#FFFFFF;stop-opacity:0"/>
  </linearGradient>
  <path fill="url(#SVGID_40_)" d="M6.66,17.168c-0.61,0-1.11,0.5-1.11,1.111v21.09c0,0.61,0.5,1.11,1.11,1.11&#xD;&#xA;&#x9;&#x9;c0.609,0,1.109-0.5,1.109-1.11v-21.09C7.77,17.668,7.27,17.168,6.66,17.168z"/>
  <linearGradient id="SVGID_41_" gradientUnits="userSpaceOnUse" x1="28.8247" y1="40.9941" x2="28.8247" y2="43.2302">
    <stop offset="0" style="stop-color:#FFFFFF;stop-opacity:0"/>
    <stop offset="0.092" style="stop-color:#FFFFFF;stop-opacity:0.1"/>
    <stop offset="0.2025" style="stop-color:#FFFFFF;stop-opacity:0.05"/>
    <stop offset="0.5153" style="stop-color:#FFFFFF;stop-opacity:0.25"/>
    <stop offset="0.816" style="stop-color:#FFFFFF;stop-opacity:0.05"/>
    <stop offset="0.8834" style="stop-color:#FFFFFF;stop-opacity:0.1"/>
    <stop offset="1" style="stop-color:#FFFFFF;stop-opacity:0"/>
  </linearGradient>
  <path fill="url(#SVGID_41_)" d="M17.169,42.109c0,0.609,0.5,1.109,1.11,1.109H39.37c0.61,0,1.11-0.5,1.11-1.109&#xD;&#xA;&#x9;&#x9;c0-0.611-0.5-1.109-1.11-1.109H18.279C17.669,41,17.169,41.498,17.169,42.109z"/>
  <linearGradient id="SVGID_42_" gradientUnits="userSpaceOnUse" x1="45.4502" y1="28.8237" x2="47.624" y2="28.8237">
    <stop offset="0" style="stop-color:#FFFFFF;stop-opacity:0"/>
    <stop offset="0.092" style="stop-color:#FFFFFF;stop-opacity:0.1"/>
    <stop offset="0.2025" style="stop-color:#FFFFFF;stop-opacity:0.05"/>
    <stop offset="0.5153" style="stop-color:#FFFFFF;stop-opacity:0.25"/>
    <stop offset="0.816" style="stop-color:#FFFFFF;stop-opacity:0.05"/>
    <stop offset="0.8834" style="stop-color:#FFFFFF;stop-opacity:0.1"/>
    <stop offset="1" style="stop-color:#FFFFFF;stop-opacity:0"/>
  </linearGradient>
  <path fill="url(#SVGID_42_)" d="M46.549,17.168c-0.609,0-1.109,0.5-1.109,1.111v21.09c0,0.61,0.5,1.11,1.109,1.11&#xD;&#xA;&#x9;&#x9;c0.61,0,1.11-0.5,1.11-1.11v-21.09C47.659,17.668,47.159,17.168,46.549,17.168z"/>
  <linearGradient id="SVGID_43_" gradientUnits="userSpaceOnUse" x1="49.8789" y1="28.8237" x2="52.0986" y2="28.8237">
    <stop offset="0" style="stop-color:#FFFFFF;stop-opacity:0"/>
    <stop offset="0.092" style="stop-color:#FFFFFF;stop-opacity:0.1"/>
    <stop offset="0.2025" style="stop-color:#FFFFFF;stop-opacity:0.05"/>
    <stop offset="0.5153" style="stop-color:#FFFFFF;stop-opacity:0.25"/>
    <stop offset="0.816" style="stop-color:#FFFFFF;stop-opacity:0.05"/>
    <stop offset="0.8834" style="stop-color:#FFFFFF;stop-opacity:0.1"/>
    <stop offset="1" style="stop-color:#FFFFFF;stop-opacity:0"/>
  </linearGradient>
  <path fill="url(#SVGID_43_)" d="M50.988,17.168c-0.609,0-1.109,0.5-1.109,1.111v21.09c0,0.61,0.5,1.11,1.109,1.11&#xD;&#xA;&#x9;&#x9;c0.61,0,1.11-0.5,1.11-1.11v-21.09C52.099,17.668,51.599,17.168,50.988,17.168z"/>
  <linearGradient id="SVGID_44_" gradientUnits="userSpaceOnUse" x1="40.999" y1="28.8237" x2="43.2188" y2="28.8237">
    <stop offset="0" style="stop-color:#FFFFFF;stop-opacity:0"/>
    <stop offset="0.092" style="stop-color:#FFFFFF;stop-opacity:0.1"/>
    <stop offset="0.2025" style="stop-color:#FFFFFF;stop-opacity:0.05"/>
    <stop offset="0.5153" style="stop-color:#FFFFFF;stop-opacity:0.25"/>
    <stop offset="0.816" style="stop-color:#FFFFFF;stop-opacity:0.05"/>
    <stop offset="0.8834" style="stop-color:#FFFFFF;stop-opacity:0.1"/>
    <stop offset="1" style="stop-color:#FFFFFF;stop-opacity:0"/>
  </linearGradient>
  <path fill="url(#SVGID_44_)" d="M42.108,17.168c-0.61,0-1.109,0.5-1.109,1.111v21.09c0,0.61,0.499,1.11,1.109,1.11&#xD;&#xA;&#x9;&#x9;s1.11-0.5,1.11-1.11v-21.09C43.219,17.668,42.719,17.168,42.108,17.168z"/>
  <linearGradient id="SVGID_45_" gradientUnits="userSpaceOnUse" x1="54.3184" y1="28.8237" x2="56.5391" y2="28.8237">
    <stop offset="0" style="stop-color:#FFFFFF;stop-opacity:0"/>
    <stop offset="0.092" style="stop-color:#FFFFFF;stop-opacity:0.1"/>
    <stop offset="0.2025" style="stop-color:#FFFFFF;stop-opacity:0.05"/>
    <stop offset="0.5153" style="stop-color:#FFFFFF;stop-opacity:0.25"/>
    <stop offset="0.816" style="stop-color:#FFFFFF;stop-opacity:0.05"/>
    <stop offset="0.8834" style="stop-color:#FFFFFF;stop-opacity:0.1"/>
    <stop offset="1" style="stop-color:#FFFFFF;stop-opacity:0"/>
  </linearGradient>
  <path fill="url(#SVGID_45_)" d="M55.429,17.168c-0.61,0-1.11,0.5-1.11,1.111v21.09c0,0.61,0.5,1.11,1.11,1.11s1.11-0.5,1.11-1.11&#xD;&#xA;&#x9;&#x9;v-21.09C56.539,17.668,56.039,17.168,55.429,17.168z"/>
  <linearGradient id="SVGID_46_" gradientUnits="userSpaceOnUse" x1="28.8223" y1="28.8242" x2="29.8984" y2="28.8242">
    <stop offset="0" style="stop-color:#FFFFFF;stop-opacity:0"/>
    <stop offset="0.092" style="stop-color:#FFFFFF;stop-opacity:0.1"/>
    <stop offset="0.2025" style="stop-color:#FFFFFF;stop-opacity:0.05"/>
    <stop offset="0.5153" style="stop-color:#FFFFFF;stop-opacity:0.25"/>
    <stop offset="0.816" style="stop-color:#FFFFFF;stop-opacity:0.05"/>
    <stop offset="0.8834" style="stop-color:#FFFFFF;stop-opacity:0.1"/>
    <stop offset="1" style="stop-color:#FFFFFF;stop-opacity:0"/>
  </linearGradient>
  <polygon fill="url(#SVGID_46_)" points="29.895,29.898 29.898,29.898 29.898,27.75 29.898,27.75 28.822,28.826 &#x9;"/>
  <linearGradient id="SVGID_47_" gradientUnits="userSpaceOnUse" x1="27.75" y1="28.8257" x2="28.8223" y2="28.8257">
    <stop offset="0" style="stop-color:#FFFFFF;stop-opacity:0"/>
    <stop offset="0.092" style="stop-color:#FFFFFF;stop-opacity:0.1"/>
    <stop offset="0.2025" style="stop-color:#FFFFFF;stop-opacity:0.05"/>
    <stop offset="0.5153" style="stop-color:#FFFFFF;stop-opacity:0.25"/>
    <stop offset="0.816" style="stop-color:#FFFFFF;stop-opacity:0.05"/>
    <stop offset="0.8834" style="stop-color:#FFFFFF;stop-opacity:0.1"/>
    <stop offset="1" style="stop-color:#FFFFFF;stop-opacity:0"/>
  </linearGradient>
  <polygon fill="url(#SVGID_47_)" points="27.75,27.753 27.75,29.898 27.75,29.898 28.822,28.826 &#x9;"/>
  <linearGradient id="SVGID_48_" gradientUnits="userSpaceOnUse" x1="23.3091" y1="28.8247" x2="25.5308" y2="28.8247">
    <stop offset="0" style="stop-color:#FFFFFF;stop-opacity:0"/>
    <stop offset="0.092" style="stop-color:#FFFFFF;stop-opacity:0.1"/>
    <stop offset="0.2025" style="stop-color:#FFFFFF;stop-opacity:0.05"/>
    <stop offset="0.5153" style="stop-color:#FFFFFF;stop-opacity:0.25"/>
    <stop offset="0.816" style="stop-color:#FFFFFF;stop-opacity:0.05"/>
    <stop offset="0.8834" style="stop-color:#FFFFFF;stop-opacity:0.1"/>
    <stop offset="1" style="stop-color:#FFFFFF;stop-opacity:0"/>
  </linearGradient>
  <polygon fill="url(#SVGID_48_)" points="25.529,32.119 25.529,32.119 25.529,25.53 23.309,23.31 23.309,34.339 23.31,34.34 &#xD;&#xA;&#x9;&#x9;23.313,34.34 25.531,32.119 &#x9;"/>
  <linearGradient id="SVGID_49_" gradientUnits="userSpaceOnUse" x1="32.1162" y1="28.8247" x2="34.3398" y2="28.8247">
    <stop offset="0" style="stop-color:#FFFFFF;stop-opacity:0"/>
    <stop offset="0.092" style="stop-color:#FFFFFF;stop-opacity:0.1"/>
    <stop offset="0.2025" style="stop-color:#FFFFFF;stop-opacity:0.05"/>
    <stop offset="0.5153" style="stop-color:#FFFFFF;stop-opacity:0.25"/>
    <stop offset="0.816" style="stop-color:#FFFFFF;stop-opacity:0.05"/>
    <stop offset="0.8834" style="stop-color:#FFFFFF;stop-opacity:0.1"/>
    <stop offset="1" style="stop-color:#FFFFFF;stop-opacity:0"/>
  </linearGradient>
  <polygon fill="url(#SVGID_49_)" points="32.119,25.529 32.12,25.529 32.119,25.529 32.119,32.119 32.12,32.119 32.116,32.119 &#xD;&#xA;&#x9;&#x9;34.336,34.34 34.34,34.34 34.339,34.339 34.339,23.31 34.339,23.31 32.119,25.529 &#x9;"/>
  <linearGradient id="SVGID_50_" gradientUnits="userSpaceOnUse" x1="18.8701" y1="28.8242" x2="21.0942" y2="28.8242">
    <stop offset="0" style="stop-color:#FFFFFF;stop-opacity:0"/>
    <stop offset="0.092" style="stop-color:#FFFFFF;stop-opacity:0.1"/>
    <stop offset="0.2025" style="stop-color:#FFFFFF;stop-opacity:0.05"/>
    <stop offset="0.5153" style="stop-color:#FFFFFF;stop-opacity:0.25"/>
    <stop offset="0.816" style="stop-color:#FFFFFF;stop-opacity:0.05"/>
    <stop offset="0.8834" style="stop-color:#FFFFFF;stop-opacity:0.1"/>
    <stop offset="1" style="stop-color:#FFFFFF;stop-opacity:0"/>
  </linearGradient>
  <polygon fill="url(#SVGID_50_)" points="21.09,36.559 21.09,36.559 21.09,21.09 21.09,21.09 21.091,21.09 18.873,18.871 &#xD;&#xA;&#x9;&#x9;18.871,18.871 18.87,18.87 18.87,38.777 18.871,38.778 18.876,38.778 21.094,36.559 &#x9;"/>
  <linearGradient id="SVGID_51_" gradientUnits="userSpaceOnUse" x1="36.5547" y1="28.8247" x2="38.7783" y2="28.8247">
    <stop offset="0" style="stop-color:#FFFFFF;stop-opacity:0"/>
    <stop offset="0.092" style="stop-color:#FFFFFF;stop-opacity:0.1"/>
    <stop offset="0.2025" style="stop-color:#FFFFFF;stop-opacity:0.05"/>
    <stop offset="0.5153" style="stop-color:#FFFFFF;stop-opacity:0.25"/>
    <stop offset="0.816" style="stop-color:#FFFFFF;stop-opacity:0.05"/>
    <stop offset="0.8834" style="stop-color:#FFFFFF;stop-opacity:0.1"/>
    <stop offset="1" style="stop-color:#FFFFFF;stop-opacity:0"/>
  </linearGradient>
  <polygon fill="url(#SVGID_51_)" points="36.559,21.09 36.559,21.09 36.559,21.09 36.559,36.559 36.559,36.559 36.555,36.559 &#xD;&#xA;&#x9;&#x9;38.774,38.778 38.778,38.778 38.778,38.777 38.778,18.871 38.777,18.871 36.559,21.09 &#x9;"/>
  <linearGradient id="SVGID_52_" gradientUnits="userSpaceOnUse" x1="28.8237" y1="27.75" x2="28.8237" y2="28.825">
    <stop offset="0" style="stop-color:#FFFFFF;stop-opacity:0"/>
    <stop offset="0.092" style="stop-color:#FFFFFF;stop-opacity:0.1"/>
    <stop offset="0.2025" style="stop-color:#FFFFFF;stop-opacity:0.05"/>
    <stop offset="0.5153" style="stop-color:#FFFFFF;stop-opacity:0.25"/>
    <stop offset="0.816" style="stop-color:#FFFFFF;stop-opacity:0.05"/>
    <stop offset="0.8834" style="stop-color:#FFFFFF;stop-opacity:0.1"/>
    <stop offset="1" style="stop-color:#FFFFFF;stop-opacity:0"/>
  </linearGradient>
  <polygon fill="url(#SVGID_52_)" points="29.898,27.75 27.75,27.75 27.75,27.753 28.822,28.826 &#x9;"/>
  <linearGradient id="SVGID_53_" gradientUnits="userSpaceOnUse" x1="28.8247" y1="18.8823" x2="28.8247" y2="21.0803">
    <stop offset="0" style="stop-color:#FFFFFF;stop-opacity:0"/>
    <stop offset="0.092" style="stop-color:#FFFFFF;stop-opacity:0.1"/>
    <stop offset="0.2025" style="stop-color:#FFFFFF;stop-opacity:0.05"/>
    <stop offset="0.5153" style="stop-color:#FFFFFF;stop-opacity:0.25"/>
    <stop offset="0.816" style="stop-color:#FFFFFF;stop-opacity:0.05"/>
    <stop offset="0.8834" style="stop-color:#FFFFFF;stop-opacity:0.1"/>
    <stop offset="1" style="stop-color:#FFFFFF;stop-opacity:0"/>
  </linearGradient>
  <polygon fill="url(#SVGID_53_)" points="36.559,21.09 36.559,21.09 36.559,21.09 38.777,18.871 18.873,18.871 21.091,21.09 &#x9;"/>
  <linearGradient id="SVGID_54_" gradientUnits="userSpaceOnUse" x1="28.8237" y1="23.3027" x2="28.8237" y2="25.5164">
    <stop offset="0" style="stop-color:#FFFFFF;stop-opacity:0"/>
    <stop offset="0.092" style="stop-color:#FFFFFF;stop-opacity:0.1"/>
    <stop offset="0.2025" style="stop-color:#FFFFFF;stop-opacity:0.05"/>
    <stop offset="0.5153" style="stop-color:#FFFFFF;stop-opacity:0.25"/>
    <stop offset="0.816" style="stop-color:#FFFFFF;stop-opacity:0.05"/>
    <stop offset="0.8834" style="stop-color:#FFFFFF;stop-opacity:0.1"/>
    <stop offset="1" style="stop-color:#FFFFFF;stop-opacity:0"/>
  </linearGradient>
  <polygon fill="url(#SVGID_54_)" points="23.309,23.309 23.309,23.31 25.529,25.53 25.529,25.529 25.529,25.529 32.119,25.529 &#xD;&#xA;&#x9;&#x9;32.119,25.529 32.119,25.529 34.339,23.31 23.31,23.31 &#x9;"/>
  <linearGradient id="SVGID_55_" gradientUnits="userSpaceOnUse" x1="28.8223" y1="28.8262" x2="28.8223" y2="29.9016">
    <stop offset="0" style="stop-color:#FFFFFF;stop-opacity:0"/>
    <stop offset="0.092" style="stop-color:#FFFFFF;stop-opacity:0.1"/>
    <stop offset="0.2025" style="stop-color:#FFFFFF;stop-opacity:0.05"/>
    <stop offset="0.5153" style="stop-color:#FFFFFF;stop-opacity:0.25"/>
    <stop offset="0.816" style="stop-color:#FFFFFF;stop-opacity:0.05"/>
    <stop offset="0.8834" style="stop-color:#FFFFFF;stop-opacity:0.1"/>
    <stop offset="1" style="stop-color:#FFFFFF;stop-opacity:0"/>
  </linearGradient>
  <polygon fill="url(#SVGID_55_)" points="28.822,28.826 27.75,29.898 29.895,29.898 &#x9;"/>
  <linearGradient id="SVGID_56_" gradientUnits="userSpaceOnUse" x1="28.8247" y1="36.543" x2="28.8247" y2="38.79">
    <stop offset="0" style="stop-color:#FFFFFF;stop-opacity:0"/>
    <stop offset="0.092" style="stop-color:#FFFFFF;stop-opacity:0.1"/>
    <stop offset="0.2025" style="stop-color:#FFFFFF;stop-opacity:0.05"/>
    <stop offset="0.5153" style="stop-color:#FFFFFF;stop-opacity:0.25"/>
    <stop offset="0.816" style="stop-color:#FFFFFF;stop-opacity:0.05"/>
    <stop offset="0.8834" style="stop-color:#FFFFFF;stop-opacity:0.1"/>
    <stop offset="1" style="stop-color:#FFFFFF;stop-opacity:0"/>
  </linearGradient>
  <polygon fill="url(#SVGID_56_)" points="36.555,36.559 21.094,36.559 18.876,38.778 38.774,38.778 &#x9;"/>
  <linearGradient id="SVGID_57_" gradientUnits="userSpaceOnUse" x1="28.8237" y1="32.1094" x2="28.8237" y2="34.3196">
    <stop offset="0" style="stop-color:#FFFFFF;stop-opacity:0"/>
    <stop offset="0.092" style="stop-color:#FFFFFF;stop-opacity:0.1"/>
    <stop offset="0.2025" style="stop-color:#FFFFFF;stop-opacity:0.05"/>
    <stop offset="0.5153" style="stop-color:#FFFFFF;stop-opacity:0.25"/>
    <stop offset="0.816" style="stop-color:#FFFFFF;stop-opacity:0.05"/>
    <stop offset="0.8834" style="stop-color:#FFFFFF;stop-opacity:0.1"/>
    <stop offset="1" style="stop-color:#FFFFFF;stop-opacity:0"/>
  </linearGradient>
  <polygon fill="url(#SVGID_57_)" points="25.531,32.119 23.313,34.34 34.336,34.34 32.116,32.119 &#x9;"/>
</svg>