<svg version="1.2" baseProfile="tiny" id="EdgeSVG_Paftt" x="0px" y="0px" width="57.648px" height="57.648px" viewBox="0 0 57.648 57.648" xmlns:xlink="http://www.w3.org/1999/xlink" xmlns="http://www.w3.org/2000/svg">
  <linearGradient id="SVGID_1_" gradientUnits="userSpaceOnUse" x1="28.8247" y1="159.6719" x2="28.8247" y2="-249.5496">
    <stop offset="0.2025" style="stop-color:#000000;stop-opacity:0.5"/>
    <stop offset="0.7783" style="stop-color:#000000;stop-opacity:0.5"/>
  </linearGradient>
  <path fill="url(#SVGID_1_)" d="M57.351,17.168c-0.384-0.662-1.102-1.109-1.922-1.109s-1.538,0.447-1.922,1.109H52.91&#xD;&#xA;&#x9;&#x9;c-0.383-0.662-1.101-1.109-1.922-1.109c-0.819,0-1.537,0.447-1.922,1.109h-0.596c-0.385-0.662-1.102-1.109-1.922-1.109&#xD;&#xA;&#x9;&#x9;c-0.819,0-1.537,0.447-1.922,1.109H44.05c-0.3-0.563-0.858-0.967-1.519-1.06c-0.095-0.014-0.192-0.023-0.291-0.023&#xD;&#xA;&#x9;&#x9;c-0.292,0-0.568,0.062-0.819,0.171c0.008-0.018,0.016-0.033,0.022-0.05c0.001-0.001,0.001-0.003,0.002-0.003&#xD;&#xA;&#x9;&#x9;c0.094-0.227,0.146-0.473,0.151-0.73c0.001-0.015,0.003-0.029,0.003-0.043c0-0.786-0.45-1.466-1.107-1.804&#xD;&#xA;&#x9;&#x9;c-0.004-0.002-0.008-0.005-0.012-0.007v-0.597c0.663-0.384,1.109-1.102,1.109-1.922c0-0.819-0.446-1.537-1.109-1.922V8.582&#xD;&#xA;&#x9;&#x9;C41.144,8.197,41.59,7.48,41.59,6.66c0-0.821-0.446-1.539-1.109-1.922V4.142C41.144,3.758,41.59,3.04,41.59,2.22&#xD;&#xA;&#x9;&#x9;s-0.446-1.539-1.109-1.922V0H17.169v0.298C16.506,0.681,16.06,1.399,16.06,2.22s0.446,1.538,1.109,1.922v0.597&#xD;&#xA;&#x9;&#x9;C16.506,5.121,16.06,5.839,16.06,6.66c0,0.82,0.446,1.537,1.109,1.922v0.595c-0.663,0.385-1.109,1.103-1.109,1.922&#xD;&#xA;&#x9;&#x9;c0,0.82,0.446,1.538,1.109,1.922v0.593c-0.612,0.322-1.04,0.948-1.087,1.68c-0.003,0.045-0.007,0.089-0.007,0.136&#xD;&#xA;&#x9;&#x9;c0,0.288,0.06,0.563,0.167,0.812c0.001,0.001,0.001,0.003,0.002,0.004c0,0.001,0,0.002,0.001,0.003&#xD;&#xA;&#x9;&#x9;c-0.249-0.112-0.523-0.176-0.812-0.178c-0.005,0-0.009,0-0.014,0c-0.778,0-1.453,0.44-1.794,1.087&#xD;&#xA;&#x9;&#x9;c-0.002,0.004-0.005,0.007-0.007,0.011h-0.597c-0.384-0.662-1.103-1.109-1.922-1.109s-1.537,0.447-1.922,1.109H8.582&#xD;&#xA;&#x9;&#x9;c-0.385-0.662-1.103-1.109-1.922-1.109c-0.821,0-1.539,0.447-1.922,1.109H4.141c-0.383-0.662-1.102-1.109-1.922-1.109&#xD;&#xA;&#x9;&#x9;s-1.538,0.447-1.922,1.109H0v23.312h0.297c0.384,0.663,1.102,1.109,1.922,1.109s1.539-0.446,1.922-1.109h0.597&#xD;&#xA;&#x9;&#x9;c0.383,0.663,1.101,1.109,1.922,1.109c0.819,0,1.537-0.446,1.922-1.109h0.595c0.385,0.663,1.103,1.109,1.922,1.109&#xD;&#xA;&#x9;&#x9;s1.538-0.446,1.922-1.109h0.573c0.338,0.661,1.027,1.114,1.825,1.114c0.019,0,0.037-0.002,0.055-0.002&#xD;&#xA;&#x9;&#x9;c0.261-0.008,0.51-0.061,0.737-0.156c0.001,0,0.002,0,0.004-0.001c0.007-0.003,0.015-0.007,0.022-0.011&#xD;&#xA;&#x9;&#x9;c-0.104,0.23-0.164,0.483-0.174,0.749c-0.001,0.026-0.004,0.052-0.004,0.077c0,0.786,0.451,1.467,1.109,1.805v0.572&#xD;&#xA;&#x9;&#x9;c-0.663,0.385-1.109,1.104-1.109,1.922c0,0.82,0.446,1.537,1.109,1.922v0.596c-0.663,0.385-1.109,1.103-1.109,1.922&#xD;&#xA;&#x9;&#x9;c0,0.821,0.446,1.539,1.109,1.922v0.598c-0.663,0.383-1.109,1.102-1.109,1.922s0.446,1.537,1.109,1.922v0.297H40.48v-0.297&#xD;&#xA;&#x9;&#x9;c0.663-0.385,1.109-1.102,1.109-1.922s-0.446-1.539-1.109-1.922V52.91c0.663-0.383,1.109-1.101,1.109-1.922&#xD;&#xA;&#x9;&#x9;c0-0.819-0.446-1.537-1.109-1.922v-0.596c0.663-0.385,1.109-1.102,1.109-1.922c0-0.818-0.446-1.537-1.109-1.922v-0.558&#xD;&#xA;&#x9;&#x9;c0.654-0.34,1.104-1.026,1.104-1.819c0-0.023-0.003-0.046-0.004-0.069c-0.009-0.266-0.066-0.519-0.166-0.749&#xD;&#xA;&#x9;&#x9;c0.01,0.004,0.021,0.01,0.031,0.016c0.002,0,0.003,0.001,0.004,0.002c0.225,0.096,0.471,0.148,0.729,0.156&#xD;&#xA;&#x9;&#x9;c0.021,0.002,0.041,0.004,0.063,0.004c0.794,0,1.479-0.461,1.813-1.13h0.573c0.385,0.663,1.103,1.109,1.922,1.109&#xD;&#xA;&#x9;&#x9;c0.82,0,1.537-0.446,1.922-1.109h0.596c0.385,0.663,1.103,1.109,1.922,1.109c0.821,0,1.539-0.446,1.922-1.109h0.597&#xD;&#xA;&#x9;&#x9;c0.384,0.663,1.102,1.109,1.922,1.109s1.538-0.446,1.922-1.109h0.298V17.168H57.351z"/>
</svg>