<svg version="1.2" baseProfile="tiny" viewBox="0 0 57.648 57.648" xmlns:xlink="http://www.w3.org/1999/xlink" xmlns="http://www.w3.org/2000/svg">
<path style="fill:#ffffff;" d="M21.3119,47.6599L36.3361,47.6599L36.3361,49.8788L21.3119,49.8788L21.3119,49.8788L21.3119,47.6599M21.3119,45.4387L36.3361,45.4387L36.3361,43.2181L21.3119,43.2181L21.3119,43.2181L21.3119,45.4387M21.3119,38.7781L21.3119,40.9998L36.3361,40.9998L36.3361,38.7781L21.3119,38.7781L21.3119,38.7781M21.3119,54.3182L36.3361,54.3182L36.3361,52.0982L21.3119,52.0982L21.3119,52.0982L21.3119,54.3182M21.3119,57.648L36.3361,57.648L36.3361,56.5388L21.3119,56.5388L21.3119,56.5388L21.3119,57.648M21.3119,9.9892L36.3361,9.9892L36.3361,7.7698L21.3119,7.7698L21.3119,7.7698L21.3119,9.9892M21.3119,14.4299L36.3361,14.4299L36.3361,12.2098L21.3119,12.2098L21.3119,12.2098L21.3119,14.4299M36.3361,18.8711L36.3361,16.6487L21.3119,16.6487L21.3119,16.6487L21.3119,16.6487L21.3119,18.8711L36.3361,18.8711M21.3119,5.5498L36.3361,5.5498L36.3361,3.3297L21.3119,3.3297L21.3119,3.3297L21.3119,5.5498M21.3119,1.1091L36.3361,1.1091L36.3361,0.0L21.3119,0.0L21.3119,0.0L21.3119,1.1091M49.8788,36.3361L49.8788,21.313L47.6588,21.313L47.6588,36.3361L49.8788,36.3361L49.8788,36.3361M45.4387,36.3361L45.4387,21.313L43.2181,21.313L43.2181,36.3361L45.4387,36.3361L45.4387,36.3361M38.7781,36.3361L40.9993,36.3361L40.9993,21.313L38.7781,21.313L38.7781,36.3361M54.3182,36.3361L54.3182,21.313L52.0982,21.313L52.0982,36.3361L54.3182,36.3361L54.3182,36.3361M57.648,36.3361L57.648,21.313L56.5388,21.313L56.5388,36.3361L57.648,36.3361L57.648,36.3361M9.9892,36.3361L9.9892,21.313L7.7698,21.313L7.7698,21.313L7.7698,36.3361L9.9892,36.3361L9.9892,36.3361M14.4299,36.3361L14.4299,21.313L12.2098,21.313L12.2098,36.3361L14.4299,36.3361L14.4299,36.3361M18.8699,21.313L16.6487,21.313L16.6487,36.3361L18.8699,36.3361L18.8699,21.313M32.1192,32.1192L32.1192,32.1192L25.5288,32.1192L25.53,32.1192L25.5288,32.1192L25.5288,25.5288L25.5288,25.5288L32.1192,25.5288L32.1192,25.5288L32.1192,25.5288L32.1197,25.5288L32.1192,25.5288L32.1192,32.1192M27.75,29.898L29.898,29.898L29.898,27.75L27.75,27.75L27.75,27.75L27.75,29.898M5.5498,36.3361L5.5498,21.313L3.3297,21.313L3.3297,21.313L3.3297,36.3361L5.5498,36.3361L5.5498,36.3361M36.5592,36.5592L36.5592,36.5592L21.0899,36.5592L21.0899,36.5592L21.0899,36.5581L21.0888,36.5592L21.0888,21.0899L21.0888,21.0899L36.5557,21.0899L36.5569,21.0899L36.5569,21.0899L36.5569,21.0899L36.5569,21.0899L36.5569,36.5592M23.31,34.3398L34.3392,34.3398L34.3392,34.3392L34.3392,23.31L23.31,23.31L23.31,23.31L23.31,23.3088L23.31,34.3398L23.31,34.3398L23.31,34.3398M1.1091,36.3361L1.1091,21.313L0.0,21.313L0.0,21.313L0.0,36.3361L1.1091,36.3361L1.1091,36.3361Z"/>
</svg>