<svg version="1.2" baseProfile="tiny" id="EdgeSVG_FtuPr" x="0px" y="0px" width="50.754px" height="100.589px" viewBox="0 0 50.754 100.589" xmlns:xlink="http://www.w3.org/1999/xlink" xmlns="http://www.w3.org/2000/svg">
  <linearGradient id="SVGID_1_" gradientUnits="userSpaceOnUse" x1="0" y1="50.2944" x2="50.7539" y2="50.2944">
    <stop offset="0.2025" style="stop-color:#000000;stop-opacity:0.5"/>
    <stop offset="0.7783" style="stop-color:#000000;stop-opacity:0.5"/>
  </linearGradient>
  <path fill="url(#SVGID_1_)" d="M49.602,52.257c0.189-0.104,0.363-0.235,0.515-0.391c0.412-0.421,0.639-0.979,0.638-1.569&#xD;&#xA;&#x9;&#x9;c-0.001-0.846-0.472-1.583-1.162-1.959c0.134-0.099,0.259-0.212,0.371-0.342c0.391-0.451,0.584-1.032,0.544-1.633&#xD;&#xA;&#x9;&#x9;c-0.063-0.934-0.687-1.707-1.522-1.992c-0.016-0.129-0.031-0.256-0.048-0.385c0.775-0.455,1.234-1.365,1.08-2.319&#xD;&#xA;&#x9;&#x9;c-0.158-0.958-0.885-1.688-1.796-1.858c-0.025-0.123-0.053-0.246-0.08-0.371c0.296-0.192,0.541-0.455,0.72-0.773&#xD;&#xA;&#x9;&#x9;c0.29-0.516,0.366-1.119,0.212-1.701c-0.256-0.951-1.087-1.626-2.047-1.679c-0.029-0.091-0.058-0.181-0.087-0.271&#xD;&#xA;&#x9;&#x9;c0.249-0.209,0.451-0.475,0.592-0.781c0.251-0.552,0.271-1.172,0.057-1.746c-0.33-0.879-1.177-1.471-2.104-1.471&#xD;&#xA;&#x9;&#x9;c-0.008,0-0.016,0-0.023,0c-0.054-0.129-0.108-0.258-0.163-0.387c0.236-0.236,0.416-0.527,0.527-0.855&#xD;&#xA;&#x9;&#x9;c0.193-0.574,0.151-1.193-0.122-1.742c-0.381-0.768-1.172-1.263-2.019-1.263c-0.08,0-0.158,0.005-0.236,0.013&#xD;&#xA;&#x9;&#x9;c-0.079-0.147-0.158-0.293-0.24-0.44c0.214-0.268,0.362-0.586,0.434-0.934c0.117-0.578,0.008-1.173-0.311-1.676&#xD;&#xA;&#x9;&#x9;c-0.42-0.662-1.135-1.059-1.914-1.059c-0.136,0-0.271,0.012-0.404,0.037c-0.112-0.169-0.224-0.336-0.338-0.502&#xD;&#xA;&#x9;&#x9;c0.525-0.784,0.506-1.863-0.119-2.656c-0.436-0.552-1.085-0.869-1.781-0.869c-0.225,0-0.446,0.035-0.657,0.102&#xD;&#xA;&#x9;&#x9;c-0.17-0.208-0.341-0.413-0.511-0.616c0.396-0.82,0.253-1.848-0.432-2.553c-0.428-0.439-1.021-0.693-1.631-0.693&#xD;&#xA;&#x9;&#x9;c-0.254,0-0.502,0.043-0.734,0.124c-0.127-0.12-0.255-0.241-0.385-0.36c0.084-0.268,0.116-0.55,0.094-0.838&#xD;&#xA;&#x9;&#x9;c-0.047-0.594-0.318-1.139-0.771-1.537c-0.414-0.362-0.945-0.563-1.494-0.563c-0.347,0-0.686,0.082-0.99,0.23&#xD;&#xA;&#x9;&#x9;c-0.102-0.08-0.203-0.159-0.305-0.238c0.227-0.87-0.094-1.836-0.877-2.403c-0.391-0.279-0.85-0.428-1.326-0.428&#xD;&#xA;&#x9;&#x9;c-0.455,0-0.891,0.138-1.255,0.385c-0.107-0.07-0.216-0.14-0.323-0.208c0.19-0.917-0.222-1.903-1.089-2.409&#xD;&#xA;&#x9;&#x9;c-0.349-0.2-0.742-0.305-1.142-0.305c-0.561,0-1.092,0.209-1.493,0.568c-0.084-0.045-0.169-0.088-0.253-0.131&#xD;&#xA;&#x9;&#x9;c0.029-0.338-0.02-0.683-0.15-1.01c-0.217-0.551-0.636-0.99-1.18-1.236c-0.299-0.136-0.617-0.205-0.943-0.205&#xD;&#xA;&#x9;&#x9;c-0.613,0-1.188,0.25-1.599,0.668c-0.13-0.053-0.261-0.105-0.39-0.158c-0.004-0.93-0.605-1.806-1.553-2.125&#xD;&#xA;&#x9;&#x9;c-0.234-0.078-0.479-0.118-0.725-0.118c-0.7,0-1.339,0.317-1.752,0.831c-0.159-0.047-0.32-0.095-0.479-0.142&#xD;&#xA;&#x9;&#x9;c-0.037-0.325-0.148-0.641-0.328-0.926c-0.326-0.514-0.834-0.869-1.43-1.004c-0.167-0.037-0.335-0.056-0.505-0.056&#xD;&#xA;&#x9;&#x9;c-0.756,0-1.446,0.382-1.854,0.974c-0.2-0.041-0.398-0.08-0.597-0.117C9.531,1.261,8.754,0.511,7.752,0.392&#xD;&#xA;&#x9;&#x9;c-0.089-0.01-0.18-0.016-0.269-0.016c-0.867,0-1.628,0.482-2,1.199C5.218,1.548,4.953,1.523,4.689,1.5&#xD;&#xA;&#x9;&#x9;C4.58,1.185,4.398,0.896,4.149,0.651C3.73,0.24,3.173,0.008,2.546,0C1.635,0,0.844,0.539,0.488,1.305&#xD;&#xA;&#x9;&#x9;c-0.031,0-0.261,0.004-0.261,0.004S0.082,1.306,0,1.306V24.62c0.01-0.001,0.042,0.001,0.042,0.001&#xD;&#xA;&#x9;&#x9;c0.031,0.066,0.085,0.206,0.212,0.354c0.403,0.388,0.956,0.627,1.573,0.633c0.486,0,0.94-0.152,1.31-0.418&#xD;&#xA;&#x9;&#x9;c0.364,0.374,0.847,0.611,1.372,0.672c0.089,0.01,0.179,0.016,0.267,0.016c0.369,0,0.726-0.091,1.041-0.257&#xD;&#xA;&#x9;&#x9;c0.313,0.372,0.748,0.644,1.248,0.755c0.164,0.037,0.333,0.055,0.5,0.055c0.13,0,0.256-0.01,0.38-0.031&#xD;&#xA;&#x9;&#x9;c0.094-0.016,0.185-0.038,0.274-0.065c0.265,0.313,0.616,0.557,1.023,0.692c0.23,0.077,0.471,0.116,0.713,0.116&#xD;&#xA;&#x9;&#x9;c0.138,0,0.271-0.012,0.403-0.035c0.229,0.334,0.55,0.609,0.939,0.784c0.295,0.133,0.607,0.203,0.925,0.203&#xD;&#xA;&#x9;&#x9;c0.078,0,0.154-0.005,0.231-0.013c0.195,0.31,0.464,0.568,0.789,0.757c0.337,0.195,0.72,0.301,1.107,0.303&#xD;&#xA;&#x9;&#x9;c0.151,0.386,0.416,0.732,0.775,0.99c0.32,0.23,0.688,0.371,1.076,0.41c0.117,0.389,0.339,0.748,0.661,1.029&#xD;&#xA;&#x9;&#x9;c0.372,0.326,0.839,0.52,1.325,0.555c0.048,0.492,0.261,0.973,0.636,1.357c0.316,0.323,0.711,0.539,1.141,0.629&#xD;&#xA;&#x9;&#x9;c0.021,0.475,0.191,0.932,0.492,1.311c0.238,0.304,0.543,0.534,0.886,0.679c-0.023,0.461,0.094,0.93,0.354,1.336&#xD;&#xA;&#x9;&#x9;c0.162,0.253,0.366,0.469,0.604,0.638c0.076,0.055,0.156,0.105,0.24,0.15c-0.034,0.407,0.041,0.828,0.234,1.213&#xD;&#xA;&#x9;&#x9;c0.174,0.348,0.427,0.635,0.731,0.845c-0.073,0.399-0.039,0.821,0.11,1.218c0.145,0.387,0.383,0.711,0.684,0.955&#xD;&#xA;&#x9;&#x9;c-0.08,0.355-0.073,0.729,0.023,1.094c0.104,0.387,0.303,0.727,0.567,0.996c-0.164,0.381-0.221,0.811-0.15,1.246&#xD;&#xA;&#x9;&#x9;c0.063,0.395,0.229,0.754,0.471,1.051c-0.192,0.357-0.289,0.771-0.259,1.197c0.03,0.473,0.211,0.904,0.49,1.252&#xD;&#xA;&#x9;&#x9;c-0.154,0.309-0.236,0.651-0.234,1.003c0,0.359,0.085,0.699,0.235,1c-0.279,0.348-0.461,0.779-0.491,1.252&#xD;&#xA;&#x9;&#x9;c-0.03,0.426,0.066,0.84,0.259,1.197c-0.241,0.297-0.407,0.656-0.471,1.051c-0.07,0.436-0.014,0.866,0.15,1.246&#xD;&#xA;&#x9;&#x9;c-0.265,0.27-0.463,0.609-0.567,0.996c-0.097,0.366-0.104,0.738-0.023,1.094c-0.301,0.245-0.539,0.569-0.684,0.956&#xD;&#xA;&#x9;&#x9;c-0.149,0.396-0.184,0.818-0.11,1.218c-0.305,0.209-0.558,0.497-0.731,0.844c-0.193,0.384-0.269,0.806-0.234,1.212&#xD;&#xA;&#x9;&#x9;c-0.084,0.045-0.164,0.096-0.24,0.151c-0.238,0.169-0.442,0.384-0.604,0.638c-0.26,0.406-0.377,0.875-0.354,1.336&#xD;&#xA;&#x9;&#x9;c-0.343,0.146-0.647,0.375-0.886,0.68c-0.301,0.379-0.471,0.836-0.492,1.311c-0.43,0.09-0.824,0.306-1.141,0.629&#xD;&#xA;&#x9;&#x9;c-0.375,0.384-0.588,0.865-0.636,1.357c-0.486,0.035-0.953,0.229-1.325,0.555c-0.322,0.281-0.544,0.641-0.661,1.03&#xD;&#xA;&#x9;&#x9;c-0.388,0.039-0.756,0.18-1.076,0.41c-0.359,0.258-0.624,0.605-0.775,0.99c-0.388,0.002-0.771,0.108-1.107,0.303&#xD;&#xA;&#x9;&#x9;c-0.325,0.189-0.594,0.447-0.789,0.757c-0.077-0.008-0.153-0.014-0.231-0.014c-0.317,0-0.63,0.07-0.925,0.203&#xD;&#xA;&#x9;&#x9;c-0.39,0.174-0.71,0.449-0.939,0.784c-0.133-0.023-0.266-0.035-0.403-0.035c-0.242,0-0.482,0.039-0.713,0.117&#xD;&#xA;&#x9;&#x9;c-0.407,0.135-0.759,0.379-1.023,0.692c-0.09-0.027-0.181-0.049-0.274-0.065c-0.124-0.021-0.25-0.031-0.38-0.031&#xD;&#xA;&#x9;&#x9;c-0.167,0-0.336,0.018-0.5,0.055c-0.5,0.112-0.936,0.383-1.248,0.756c-0.315-0.166-0.672-0.257-1.041-0.257&#xD;&#xA;&#x9;&#x9;c-0.088,0-0.178,0.005-0.267,0.016c-0.525,0.06-1.008,0.298-1.372,0.672c-0.369-0.266-0.823-0.418-1.31-0.418&#xD;&#xA;&#x9;&#x9;c-0.617,0.005-1.17,0.246-1.573,0.633c-0.127,0.148-0.181,0.287-0.212,0.353c0,0-0.032,0.002-0.042,0.002v23.313&#xD;&#xA;&#x9;&#x9;c0.082,0,0.228-0.002,0.228-0.002s0.229,0.004,0.261,0.004c0.355,0.766,1.146,1.305,2.058,1.305c0.627-0.008,1.185-0.24,1.604-0.65&#xD;&#xA;&#x9;&#x9;c0.249-0.246,0.431-0.535,0.54-0.85c0.264-0.023,0.528-0.048,0.794-0.076c0.372,0.716,1.133,1.199,2,1.199&#xD;&#xA;&#x9;&#x9;c0.089,0,0.18-0.006,0.269-0.016c1.002-0.12,1.779-0.87,1.963-1.795c0.198-0.037,0.396-0.076,0.597-0.117&#xD;&#xA;&#x9;&#x9;c0.408,0.592,1.099,0.975,1.854,0.975c0.17,0,0.338-0.019,0.505-0.057c0.596-0.134,1.104-0.49,1.43-1.004&#xD;&#xA;&#x9;&#x9;c0.18-0.285,0.291-0.602,0.328-0.926c0.159-0.047,0.32-0.095,0.479-0.142c0.413,0.513,1.052,0.832,1.752,0.832&#xD;&#xA;&#x9;&#x9;c0.246,0,0.49-0.041,0.725-0.119c0.947-0.318,1.549-1.195,1.553-2.125c0.129-0.052,0.26-0.105,0.39-0.158&#xD;&#xA;&#x9;&#x9;c0.411,0.418,0.985,0.668,1.599,0.668c0.326,0,0.645-0.069,0.943-0.206c0.544-0.246,0.963-0.685,1.18-1.236&#xD;&#xA;&#x9;&#x9;c0.131-0.327,0.18-0.672,0.15-1.01c0.084-0.043,0.169-0.086,0.253-0.13c0.401,0.359,0.933,0.568,1.493,0.568&#xD;&#xA;&#x9;&#x9;c0.399,0,0.793-0.105,1.142-0.305c0.867-0.505,1.279-1.492,1.089-2.408c0.107-0.068,0.216-0.139,0.323-0.209&#xD;&#xA;&#x9;&#x9;c0.364,0.248,0.8,0.385,1.255,0.385c0.477,0,0.936-0.148,1.326-0.428c0.783-0.566,1.104-1.533,0.877-2.402&#xD;&#xA;&#x9;&#x9;c0.102-0.08,0.203-0.158,0.305-0.238c0.305,0.148,0.644,0.23,0.99,0.23c0.549,0,1.08-0.201,1.494-0.563&#xD;&#xA;&#x9;&#x9;c0.453-0.398,0.725-0.943,0.771-1.537c0.022-0.288-0.01-0.57-0.094-0.838c0.13-0.119,0.258-0.24,0.385-0.359&#xD;&#xA;&#x9;&#x9;c0.232,0.081,0.48,0.124,0.734,0.124c0.609,0,1.203-0.254,1.631-0.694c0.685-0.705,0.827-1.732,0.432-2.552&#xD;&#xA;&#x9;&#x9;c0.17-0.203,0.341-0.409,0.511-0.616c0.211,0.066,0.433,0.102,0.657,0.102c0.696,0,1.346-0.316,1.781-0.869&#xD;&#xA;&#x9;&#x9;c0.625-0.793,0.645-1.872,0.119-2.656c0.114-0.167,0.226-0.333,0.338-0.502c0.133,0.026,0.269,0.038,0.404,0.038&#xD;&#xA;&#x9;&#x9;c0.779,0,1.494-0.397,1.914-1.059c0.318-0.502,0.428-1.098,0.311-1.676c-0.071-0.348-0.22-0.667-0.434-0.934&#xD;&#xA;&#x9;&#x9;c0.082-0.147,0.161-0.293,0.24-0.44c0.078,0.008,0.156,0.014,0.236,0.014c0.847,0,1.638-0.496,2.019-1.264&#xD;&#xA;&#x9;&#x9;c0.273-0.548,0.315-1.168,0.122-1.742c-0.111-0.328-0.291-0.619-0.527-0.855c0.055-0.129,0.109-0.258,0.163-0.387&#xD;&#xA;&#x9;&#x9;c0.008,0,0.016,0,0.023,0c0.927,0,1.773-0.591,2.104-1.47c0.214-0.574,0.194-1.194-0.057-1.746&#xD;&#xA;&#x9;&#x9;c-0.141-0.307-0.343-0.573-0.592-0.781c0.029-0.09,0.058-0.18,0.087-0.27c0.96-0.053,1.791-0.729,2.047-1.679&#xD;&#xA;&#x9;&#x9;c0.154-0.582,0.078-1.186-0.212-1.702c-0.179-0.318-0.424-0.58-0.72-0.773c0.027-0.125,0.055-0.248,0.08-0.371&#xD;&#xA;&#x9;&#x9;c0.911-0.17,1.638-0.9,1.796-1.857c0.154-0.955-0.305-1.865-1.08-2.32c0.017-0.129,0.032-0.256,0.048-0.385&#xD;&#xA;&#x9;&#x9;c0.836-0.285,1.46-1.059,1.522-1.992c0.04-0.6-0.153-1.181-0.544-1.633C49.854,52.466,49.731,52.355,49.602,52.257z"/>
</svg>