<svg version="1.2" baseProfile="tiny" viewBox="0 0 50.754 100.589" xmlns:xlink="http://www.w3.org/1999/xlink" xmlns="http://www.w3.org/2000/svg">
<path style="fill:#ffffff;" d="M19.148,26.4378L27.666,14.6045C28.1598,14.9817,28.7212,15.4002,29.211,15.8096L19.5591,26.818C19.4302,26.7104,19.2891,26.5474,19.148,26.4378M17.3969,25.107L25.847,13.3632C25.311,12.9951,24.6832,12.5807,24.1442,12.2457L16.8828,24.767C17.0351,24.8606,17.2518,25.0135,17.3969,25.107M23.762,31.4009L35.4999,22.1054C34.9791,21.4114,34.4828,20.7877,34.0219,20.2335L23.2271,30.742C23.4083,30.9563,23.5879,31.1866,23.762,31.4009M21.7329,29.0964L32.5582,18.5617C32.2263,18.2026,31.236,17.3566,31.0142,17.1343L21.102,28.4214C21.3481,28.6669,21.4989,28.8519,21.7329,29.0964M9.8458,21.7343L14.5319,7.7806C13.8371,7.5512,13.1899,7.3571,12.523,7.168L9.2829,21.5552C9.4798,21.6085,9.6519,21.6769,9.8458,21.7343M14.9379,23.6968L22.2252,11.1362C21.6359,10.8123,21.1,10.5317,20.5148,10.242L14.5141,23.4835C14.674,23.56,14.7831,23.6193,14.9379,23.6968M0.0,5.3926L0.0,20.4155C0.0472,20.4155,0.4949,20.4226,0.8182,20.4306L1.3242,5.4026C0.8948,5.3865,0.0482,5.3936,0.0,5.3926M12.4758,22.6074L18.51,9.2944C17.871,9.0148,17.2462,8.7734,16.6169,8.5299L11.9698,22.38C12.15,22.4495,12.2992,22.537,12.4758,22.6074M10.3711,6.6047C9.6128,6.4266,8.8769,6.2697,8.1739,6.1359L6.2458,20.8964C6.4782,20.9346,6.899,21.0251,7.1269,21.0704L10.3711,6.6047M25.4922,33.7315L38.0142,25.7971C37.6031,25.1342,37.1941,24.5045,36.7901,23.912L25.0892,33.1521C25.2278,33.3453,25.3608,33.5394,25.4922,33.7315M30.1991,49.1599C30.2002,49.1488,30.2012,49.1468,30.2012,49.187L45.2101,49.192C45.1858,48.851,45.164,48.5875,45.0878,47.8341L30.2042,48.8098C30.2022,49.015,30.2002,49.1146,30.1991,49.1599M30.1991,49.1599C30.1991,49.179,30.1991,49.2242,30.1991,49.1599L30.1991,49.1599M30.2022,46.5858L44.83,45.6272C44.7488,45.0035,44.6082,44.3084,44.5239,43.6898L30.1651,46.0325C30.188,46.2096,30.187,46.4188,30.2022,46.5858M29.8992,43.8467L44.1743,41.5C44.056,40.8613,43.9078,40.1441,43.7652,39.5254L29.7758,43.2452C29.8159,43.4192,29.8631,43.6788,29.8992,43.8467M26.9438,36.1225L40.1241,29.5701C39.7962,28.9143,39.476,28.3228,39.1369,27.7163L26.6727,35.5995C26.7748,35.7765,26.8458,35.9475,26.9438,36.1225M28.1872,38.599L41.869,33.4529C41.6142,32.8041,41.3442,32.1905,41.0701,31.5759L27.9888,38.084C28.069,38.258,28.1111,38.427,28.1872,38.599M29.1572,41.1117L43.1911,37.3829C43.0059,36.7371,42.8222,36.1597,42.6161,35.5421L29.009,40.6621C29.0658,40.8281,29.1039,40.9478,29.1572,41.1117M3.0351,20.5544C3.3158,20.5755,3.7649,20.6167,4.04,20.6459L5.9829,5.7728C5.1251,5.6501,4.2699,5.5736,3.5538,5.5083L3.0351,20.5544M29.009,59.9269L42.6161,65.0479C42.8222,64.4293,43.0069,63.8529,43.1911,63.2061L29.1572,59.4773C29.1039,59.6422,29.0658,59.7609,29.009,59.9269M27.9878,62.505L41.0691,69.0131C41.3422,68.3985,41.6132,67.7839,41.868,67.1361L28.1872,61.99C28.1111,62.162,28.069,62.331,27.9878,62.505M26.6727,64.9895L39.1369,72.8727C39.476,72.2672,39.7962,71.6747,40.1241,71.0189L26.9438,64.4675C26.8458,64.6415,26.7748,64.8125,26.6727,64.9895M25.0902,67.4369L36.7911,76.678C37.1941,76.0855,37.6041,75.4548,38.0153,74.7929L25.4932,66.8585C25.3608,67.0496,25.2278,67.2437,25.0902,67.4369M30.2002,51.4332C30.1991,51.3628,30.1991,51.4151,30.2002,51.4332L30.2002,51.4332M30.2012,51.405C30.2012,51.4432,30.2002,51.4432,30.2002,51.4332C30.2002,51.4794,30.2022,51.579,30.2042,51.7792L45.0878,52.7559C45.164,52.0025,45.1741,51.8657,45.2122,51.411L30.2012,51.405M23.2271,69.847L34.0229,80.3545C34.4838,79.8003,34.9791,79.1776,35.5009,78.4836L23.763,69.1891C23.5879,69.4014,23.4083,69.6337,23.2271,69.847M30.1651,54.5565L44.5239,56.8992C44.6082,56.2816,44.7488,55.5855,44.83,54.9618L30.2022,54.0032C30.187,54.1692,30.188,54.3784,30.1651,54.5565M29.7748,57.3448L43.7642,61.0636C43.9078,60.4459,44.055,59.7277,44.1732,59.089L29.8992,56.7412C29.8631,56.9092,29.8159,57.1688,29.7748,57.3448M3.0351,80.0336L3.5538,95.0807C4.2699,95.0154,5.1251,94.9389,5.9839,94.8152L4.04,79.9431C3.7659,79.9723,3.3158,80.0125,3.0351,80.0336M6.2458,79.6926L8.1739,94.4521C8.8769,94.3193,9.6128,94.1614,10.3711,93.9833L7.1269,79.5186C6.899,79.5639,6.4787,79.6544,6.2458,79.6926M9.2819,79.0338L12.522,93.421C13.1889,93.2319,13.835,93.0378,14.5309,92.8084L9.8458,78.8537C9.6519,78.9121,9.4798,78.9795,9.2819,79.0338M0.0,80.1735L0.0,95.1964C0.0482,95.1944,0.8948,95.2025,1.3242,95.1864L0.8182,80.1584C0.4949,80.1664,0.0472,80.1735,0.0,80.1735M21.103,72.1666L31.0148,83.4547C31.2371,83.2324,32.2268,82.3864,32.5592,82.0273L21.7329,71.4926C21.4989,71.7371,21.3481,71.9231,21.103,72.1666M11.9698,78.2079L16.6169,92.057C17.2462,91.8146,17.871,91.5732,18.51,91.2936L12.4758,77.9806C12.2992,78.052,12.15,78.1395,11.9698,78.2079M14.5151,77.1045L20.5158,90.346C21.101,90.0553,21.6369,89.7757,22.2262,89.4508L14.9389,76.8912C14.7831,76.9697,14.674,77.029,14.5151,77.1045M19.148,74.1512L27.666,85.9835C28.1598,85.6073,28.7212,85.1888,29.211,84.7784L19.5591,73.77C19.4302,73.8776,19.2891,74.0415,19.148,74.1512M16.8838,75.822L24.1452,88.3433C24.6842,88.0073,25.312,87.5929,25.848,87.2257L17.398,75.482C17.2518,75.5755,17.0351,75.7284,16.8838,75.822Z"/>
</svg>