<svg version="1.2" baseProfile="tiny" viewBox="0 0 24.104 27.999" xmlns:xlink="http://www.w3.org/1999/xlink" xmlns="http://www.w3.org/2000/svg">
<path style="fill:#ffffff;" d="M13.4599,7.2621L9.1629,21.6301C9.004,21.5819,8.87,21.5189,8.709,21.4719L11.6239,6.6789C12.254,6.848,12.8409,7.065,13.4599,7.2621M0.0010,4.96L0.0051,19.9731C0.0051,19.9759,0.746,19.958,1.097,19.9759L1.158,4.995C0.7829,4.9869,1.001,4.9631,0.0010,4.96M7.5441,5.697L6.0879,20.6969C6.254,20.733,6.408,20.78,6.5761,20.8181L9.4719,6.1091C8.831,5.975,8.2031,5.8011,7.5441,5.697M3.3789,5.1109L3.31,20.1719C3.505,20.196,3.7041,20.2301,3.9,20.259L5.3521,5.3341C4.6959,5.2621,4.0531,5.1571,3.3789,5.1109M22.0349,11.171C20.8861,10.4991,20.451,10.251,19.308,9.691L13.653,23.672C13.9639,23.8451,14.083,23.9089,14.521,24.1811L22.0349,11.171M15.5509,8.031L11.238,22.4681C11.393,22.5269,11.514,22.6039,11.6671,22.6641L17.2869,8.746C16.6971,8.489,16.1461,8.2569,15.5509,8.031Z"/>
</svg>