<svg version="1.2" baseProfile="tiny" id="EdgeSVG_9q1vs" x="0px" y="0px" width="24.104px" height="27.999px" viewBox="0 0 24.104 27.999" xmlns:xlink="http://www.w3.org/1999/xlink" xmlns="http://www.w3.org/2000/svg">
  <linearGradient id="SVGID_2_" gradientUnits="userSpaceOnUse" x1="1.1328" y1="12.7671" x2="3.3432" y2="12.7794">
    <stop offset="0" style="stop-color:#FFFFFF;stop-opacity:0"/>
    <stop offset="0.092" style="stop-color:#FFFFFF;stop-opacity:0.1"/>
    <stop offset="0.2025" style="stop-color:#FFFFFF;stop-opacity:0.05"/>
    <stop offset="0.5153" style="stop-color:#FFFFFF;stop-opacity:0.25"/>
    <stop offset="0.816" style="stop-color:#FFFFFF;stop-opacity:0.05"/>
    <stop offset="0.8834" style="stop-color:#FFFFFF;stop-opacity:0.1"/>
    <stop offset="1" style="stop-color:#FFFFFF;stop-opacity:0"/>
  </linearGradient>
  <path fill="url(#SVGID_2_)" d="M3.373,2.019c-0.096-0.51-0.544-0.897-1.084-0.901c-0.499,0-0.918,0.326-1.062,0.776&#xD;&#xA;&#x9;&#x9;c0.005,0-0.005,0,0,0.001C1.194,2.001,1.176,2.109,1.176,2.227L1.084,23.01H1.083l-0.001,0.305&#xD;&#xA;&#x9;&#x9;c-0.003,0.613,0.489,1.11,1.104,1.113c0.612,0.002,1.111-0.49,1.112-1.107L3.392,2.233c0-0.077-0.006-0.143-0.021-0.215&#xD;&#xA;&#x9;&#x9;C3.379,2.019,3.365,2.018,3.373,2.019z"/>
  <linearGradient id="SVGID_3_" gradientUnits="userSpaceOnUse" x1="4.6221" y1="12.9131" x2="6.822" y2="13.1327">
    <stop offset="0" style="stop-color:#FFFFFF;stop-opacity:0"/>
    <stop offset="0.092" style="stop-color:#FFFFFF;stop-opacity:0.1"/>
    <stop offset="0.2025" style="stop-color:#FFFFFF;stop-opacity:0.05"/>
    <stop offset="0.5153" style="stop-color:#FFFFFF;stop-opacity:0.25"/>
    <stop offset="0.816" style="stop-color:#FFFFFF;stop-opacity:0.05"/>
    <stop offset="0.8834" style="stop-color:#FFFFFF;stop-opacity:0.1"/>
    <stop offset="1" style="stop-color:#FFFFFF;stop-opacity:0"/>
  </linearGradient>
  <path fill="url(#SVGID_3_)" d="M5.794,23.701L7.837,2.647h0.002l0.009-0.089c0.06-0.607-0.386-1.148-0.995-1.21&#xD;&#xA;&#x9;&#x9;c-0.59-0.056-1.109,0.356-1.203,0.93c0.005,0-0.002-0.001,0,0C5.646,2.301,5.642,2.322,5.641,2.347L3.586,23.49&#xD;&#xA;&#x9;&#x9;c-0.058,0.606,0.388,1.148,0.998,1.207c0.585,0.056,1.107-0.352,1.198-0.926c-0.002-0.001,0.005,0,0,0&#xD;&#xA;&#x9;&#x9;C5.787,23.747,5.79,23.726,5.794,23.701z"/>
  <linearGradient id="SVGID_4_" gradientUnits="userSpaceOnUse" x1="8.0107" y1="13.5737" x2="10.1794" y2="14.0075">
    <stop offset="0" style="stop-color:#FFFFFF;stop-opacity:0"/>
    <stop offset="0.092" style="stop-color:#FFFFFF;stop-opacity:0.1"/>
    <stop offset="0.2025" style="stop-color:#FFFFFF;stop-opacity:0.05"/>
    <stop offset="0.5153" style="stop-color:#FFFFFF;stop-opacity:0.25"/>
    <stop offset="0.816" style="stop-color:#FFFFFF;stop-opacity:0.05"/>
    <stop offset="0.8834" style="stop-color:#FFFFFF;stop-opacity:0.1"/>
    <stop offset="1" style="stop-color:#FFFFFF;stop-opacity:0"/>
  </linearGradient>
  <path fill="url(#SVGID_4_)" d="M8.143,24.354l4.063-20.638l0,0l0.009-0.063c0.12-0.597-0.271-1.178-0.872-1.299&#xD;&#xA;&#x9;&#x9;c-0.605-0.117-1.184,0.275-1.305,0.875L5.965,23.929c-0.003,0.023-0.006,0.044-0.009,0.067c-0.004,0,0.003,0.001,0,0&#xD;&#xA;&#x9;&#x9;c-0.078,0.575,0.305,1.116,0.884,1.229c0.544,0.108,1.07-0.2,1.255-0.704c-0.006-0.001,0.006,0.001,0,0&#xD;&#xA;&#x9;&#x9;C8.115,24.467,8.129,24.414,8.143,24.354z"/>
  <linearGradient id="SVGID_5_" gradientUnits="userSpaceOnUse" x1="11.3174" y1="14.5156" x2="13.427" y2="15.137">
    <stop offset="0" style="stop-color:#FFFFFF;stop-opacity:0"/>
    <stop offset="0.092" style="stop-color:#FFFFFF;stop-opacity:0.1"/>
    <stop offset="0.2025" style="stop-color:#FFFFFF;stop-opacity:0.05"/>
    <stop offset="0.5153" style="stop-color:#FFFFFF;stop-opacity:0.25"/>
    <stop offset="0.816" style="stop-color:#FFFFFF;stop-opacity:0.05"/>
    <stop offset="0.8834" style="stop-color:#FFFFFF;stop-opacity:0.1"/>
    <stop offset="1" style="stop-color:#FFFFFF;stop-opacity:0"/>
  </linearGradient>
  <path fill="url(#SVGID_5_)" d="M10.402,25.252l6.002-20.104l0,0l0.032-0.123c0.174-0.582-0.162-1.194-0.748-1.373&#xD;&#xA;&#x9;&#x9;C15.1,3.48,14.485,3.811,14.311,4.394l0.006-0.008l0,0L8.277,24.619c-0.017,0.056-0.026,0.104-0.034,0.16&#xD;&#xA;&#x9;&#x9;c-0.006-0.002,0.006,0.002,0,0c-0.075,0.53,0.248,1.051,0.78,1.211c0.509,0.151,1.038-0.075,1.284-0.516&#xD;&#xA;&#x9;&#x9;c-0.007-0.002,0.008,0.003,0,0C10.348,25.404,10.378,25.333,10.402,25.252z"/>
  <linearGradient id="SVGID_6_" gradientUnits="userSpaceOnUse" x1="14.5518" y1="15.5659" x2="16.5929" y2="16.404">
    <stop offset="0" style="stop-color:#FFFFFF;stop-opacity:0"/>
    <stop offset="0.092" style="stop-color:#FFFFFF;stop-opacity:0.1"/>
    <stop offset="0.2025" style="stop-color:#FFFFFF;stop-opacity:0.05"/>
    <stop offset="0.5153" style="stop-color:#FFFFFF;stop-opacity:0.25"/>
    <stop offset="0.816" style="stop-color:#FFFFFF;stop-opacity:0.05"/>
    <stop offset="0.8834" style="stop-color:#FFFFFF;stop-opacity:0.1"/>
    <stop offset="1" style="stop-color:#FFFFFF;stop-opacity:0"/>
  </linearGradient>
  <path fill="url(#SVGID_6_)" d="M12.636,26.185l7.792-19.294l0,0l0.117-0.283c0.229-0.559-0.047-1.202-0.616-1.434&#xD;&#xA;&#x9;&#x9;c-0.57-0.229-1.212,0.043-1.441,0.605l-0.078,0.189l0,0l-7.832,19.385c-0.03,0.075-0.051,0.147-0.063,0.225&#xD;&#xA;&#x9;&#x9;c-0.008-0.002,0.007,0.003,0,0c-0.086,0.499,0.187,1.009,0.68,1.208c0.465,0.187,0.931,0.09,1.228-0.276&#xD;&#xA;&#x9;&#x9;c-0.006-0.003,0.005,0.003,0,0C12.489,26.429,12.593,26.289,12.636,26.185z"/>
  <radialGradient id="SVGID_7_" cx="-3.3135" cy="55.168" r="53.1686" gradientUnits="userSpaceOnUse">
    <stop offset="0.5635" style="stop-color:#000000;stop-opacity:0.5"/>
    <stop offset="0.6189" style="stop-color:#000000;stop-opacity:0.5"/>
    <stop offset="0.8078" style="stop-color:#FFFFFF;stop-opacity:0.5"/>
    <stop offset="0.9805" style="stop-color:#000000;stop-opacity:0.5"/>
    <stop offset="1" style="stop-color:#000000;stop-opacity:0.5"/>
  </radialGradient>
  <path fill="url(#SVGID_7_)" d="M14.316,4.386c-0.678-0.231-1.383-0.456-2.11-0.669L8.143,24.354&#xD;&#xA;&#x9;&#x9;c-0.06,0.255-0.101,0.267-0.119,0.32c0.079,0.027,0.146,0.057,0.225,0.08c0.008-0.054,0.013-0.082,0.029-0.135L14.316,4.386z"/>
  <radialGradient id="SVGID_8_" cx="-2.7656" cy="54.4561" r="51.5512" gradientUnits="userSpaceOnUse">
    <stop offset="0.5635" style="stop-color:#000000;stop-opacity:0.5"/>
    <stop offset="0.6189" style="stop-color:#000000;stop-opacity:0.5"/>
    <stop offset="0.8078" style="stop-color:#FFFFFF;stop-opacity:0.5"/>
    <stop offset="0.9805" style="stop-color:#000000;stop-opacity:0.5"/>
    <stop offset="1" style="stop-color:#000000;stop-opacity:0.5"/>
  </radialGradient>
  <path fill="url(#SVGID_8_)" d="M23.552,8.543c0,0-0.807-0.537-3.123-1.653l-7.793,19.294c-0.043,0.103-0.147,0.245-0.214,0.327&#xD;&#xA;&#x9;&#x9;c0.088,0.044,0.462,0.234,0.584,0.298L23.552,8.543z"/>
  <radialGradient id="SVGID_9_" cx="-2.9277" cy="54.3403" r="52.2899" gradientUnits="userSpaceOnUse">
    <stop offset="0.5635" style="stop-color:#000000;stop-opacity:0.5"/>
    <stop offset="0.6189" style="stop-color:#000000;stop-opacity:0.5"/>
    <stop offset="0.8078" style="stop-color:#FFFFFF;stop-opacity:0.5"/>
    <stop offset="0.9805" style="stop-color:#000000;stop-opacity:0.5"/>
    <stop offset="1" style="stop-color:#000000;stop-opacity:0.5"/>
  </radialGradient>
  <path fill="url(#SVGID_9_)" d="M3.373,2.019c0.013,0.07,0.019,0.141,0.019,0.215L3.298,23.345c0.105,0.013,0.188,0.043,0.296,0.058&#xD;&#xA;&#x9;&#x9;L5.641,2.347C5.642,2.323,5.647,2.3,5.649,2.277C4.902,2.17,4.142,2.083,3.373,2.019z"/>
  <radialGradient id="SVGID_10_" cx="-3.459" cy="55.4053" r="53.395" gradientUnits="userSpaceOnUse">
    <stop offset="0.5635" style="stop-color:#000000;stop-opacity:0.5"/>
    <stop offset="0.6189" style="stop-color:#000000;stop-opacity:0.5"/>
    <stop offset="0.8078" style="stop-color:#FFFFFF;stop-opacity:0.5"/>
    <stop offset="0.9805" style="stop-color:#000000;stop-opacity:0.5"/>
    <stop offset="1" style="stop-color:#000000;stop-opacity:0.5"/>
  </radialGradient>
  <path fill="url(#SVGID_10_)" d="M18.409,5.969c-0.627-0.272-1.299-0.547-2.005-0.82l-6.002,20.104&#xD;&#xA;&#x9;&#x9;c-0.023,0.08-0.098,0.226-0.137,0.295c0.083,0.034,0.155,0.067,0.24,0.102c0-0.077,0.041-0.221,0.071-0.295L18.409,5.969z"/>
  <radialGradient id="SVGID_11_" cx="-2.832" cy="54.0503" r="51.9924" gradientUnits="userSpaceOnUse">
    <stop offset="0.5635" style="stop-color:#000000;stop-opacity:0.5"/>
    <stop offset="0.6189" style="stop-color:#000000;stop-opacity:0.5"/>
    <stop offset="0.8078" style="stop-color:#FFFFFF;stop-opacity:0.5"/>
    <stop offset="0.9805" style="stop-color:#000000;stop-opacity:0.5"/>
    <stop offset="1" style="stop-color:#000000;stop-opacity:0.5"/>
  </radialGradient>
  <path fill="url(#SVGID_11_)" d="M1.228,1.894C0.831,1.883,0,1.916,0,1.916L0.006,23.01c0,0,0.528-0.006,1.077,0.035L1.176,2.227&#xD;&#xA;&#x9;&#x9;C1.176,2.111,1.194,1.999,1.228,1.894z"/>
  <radialGradient id="SVGID_12_" cx="-3.1035" cy="54.772" r="52.7432" gradientUnits="userSpaceOnUse">
    <stop offset="0.5635" style="stop-color:#000000;stop-opacity:0.5"/>
    <stop offset="0.6189" style="stop-color:#000000;stop-opacity:0.5"/>
    <stop offset="0.8078" style="stop-color:#FFFFFF;stop-opacity:0.5"/>
    <stop offset="0.9805" style="stop-color:#000000;stop-opacity:0.5"/>
    <stop offset="1" style="stop-color:#000000;stop-opacity:0.5"/>
  </radialGradient>
  <path fill="url(#SVGID_12_)" d="M10.061,3.136C9.337,2.958,8.595,2.794,7.839,2.647L5.794,23.701&#xD;&#xA;&#x9;&#x9;C5.79,23.724,5.764,23.9,5.74,23.936c0.073,0.016,0.141,0.046,0.216,0.061c0.003-0.022,0.004-0.044,0.009-0.067L10.061,3.136z"/>
  <linearGradient id="SVGID_13_" gradientUnits="userSpaceOnUse" x1="2.8457" y1="2.0601" x2="1.1355" y2="2.0601">
    <stop offset="0" style="stop-color:#FFFFFF;stop-opacity:0"/>
    <stop offset="0.092" style="stop-color:#FFFFFF;stop-opacity:0.1"/>
    <stop offset="0.2025" style="stop-color:#FFFFFF;stop-opacity:0.05"/>
    <stop offset="0.5153" style="stop-color:#FFFFFF;stop-opacity:0.25"/>
    <stop offset="0.816" style="stop-color:#FFFFFF;stop-opacity:0.05"/>
    <stop offset="0.8834" style="stop-color:#FFFFFF;stop-opacity:0.1"/>
    <stop offset="1" style="stop-color:#FFFFFF;stop-opacity:0"/>
  </linearGradient>
  <path fill="url(#SVGID_13_)" d="M1.228,1.895C1.223,1.894,1.232,1.894,1.228,1.895C1.194,1.999,1.176,2.111,1.176,2.227&#xD;&#xA;&#x9;&#x9;C1.176,2.109,1.194,2.001,1.228,1.895z"/>
  <radialGradient id="SVGID_14_" cx="-2.0049" cy="54.0249" r="51.933" gradientUnits="userSpaceOnUse">
    <stop offset="0.5635" style="stop-color:#000000;stop-opacity:0.5"/>
    <stop offset="0.6189" style="stop-color:#000000;stop-opacity:0.5"/>
    <stop offset="0.8078" style="stop-color:#FFFFFF;stop-opacity:0.5"/>
    <stop offset="0.9805" style="stop-color:#000000;stop-opacity:0.5"/>
    <stop offset="1" style="stop-color:#000000;stop-opacity:0.5"/>
  </radialGradient>
  <path fill="url(#SVGID_14_)" d="M1.228,1.895C1.223,1.894,1.232,1.894,1.228,1.895C1.194,1.999,1.176,2.111,1.176,2.227&#xD;&#xA;&#x9;&#x9;C1.176,2.109,1.194,2.001,1.228,1.895z"/>
  <linearGradient id="SVGID_15_" gradientUnits="userSpaceOnUse" x1="3.3369" y1="12.6187" x2="1.1233" y2="12.6187">
    <stop offset="0" style="stop-color:#FFFFFF;stop-opacity:0"/>
    <stop offset="0.092" style="stop-color:#FFFFFF;stop-opacity:0.1"/>
    <stop offset="0.2025" style="stop-color:#FFFFFF;stop-opacity:0.05"/>
    <stop offset="0.5153" style="stop-color:#FFFFFF;stop-opacity:0.25"/>
    <stop offset="0.816" style="stop-color:#FFFFFF;stop-opacity:0.05"/>
    <stop offset="0.8834" style="stop-color:#FFFFFF;stop-opacity:0.1"/>
    <stop offset="1" style="stop-color:#FFFFFF;stop-opacity:0"/>
  </linearGradient>
  <polygon fill="url(#SVGID_15_)" points="1.176,2.227 1.083,23.01 1.083,23.01 &#x9;"/>
  <radialGradient id="SVGID_16_" cx="-2.9404" cy="53.98" r="51.9583" gradientUnits="userSpaceOnUse">
    <stop offset="0.5635" style="stop-color:#000000;stop-opacity:0.5"/>
    <stop offset="0.6189" style="stop-color:#000000;stop-opacity:0.5"/>
    <stop offset="0.8078" style="stop-color:#FFFFFF;stop-opacity:0.5"/>
    <stop offset="0.9805" style="stop-color:#000000;stop-opacity:0.5"/>
    <stop offset="1" style="stop-color:#000000;stop-opacity:0.5"/>
  </radialGradient>
  <polygon fill="url(#SVGID_16_)" points="1.176,2.227 1.083,23.01 1.083,23.01 &#x9;"/>
  <linearGradient id="SVGID_17_" gradientUnits="userSpaceOnUse" x1="3.3584" y1="2.126" x2="2.2173" y2="2.126">
    <stop offset="0" style="stop-color:#FFFFFF;stop-opacity:0"/>
    <stop offset="0.092" style="stop-color:#FFFFFF;stop-opacity:0.1"/>
    <stop offset="0.2025" style="stop-color:#FFFFFF;stop-opacity:0.05"/>
    <stop offset="0.5153" style="stop-color:#FFFFFF;stop-opacity:0.25"/>
    <stop offset="0.816" style="stop-color:#FFFFFF;stop-opacity:0.05"/>
    <stop offset="0.8834" style="stop-color:#FFFFFF;stop-opacity:0.1"/>
    <stop offset="1" style="stop-color:#FFFFFF;stop-opacity:0"/>
  </linearGradient>
  <path fill="url(#SVGID_17_)" d="M3.371,2.019C3.386,2.09,3.392,2.157,3.392,2.233c0-0.074-0.006-0.145-0.019-0.215&#xD;&#xA;&#x9;&#x9;C3.365,2.018,3.379,2.019,3.371,2.019z"/>
  <radialGradient id="SVGID_18_" cx="0.1221" cy="53.4209" r="51.1187" gradientUnits="userSpaceOnUse">
    <stop offset="0.5635" style="stop-color:#000000;stop-opacity:0.5"/>
    <stop offset="0.6189" style="stop-color:#000000;stop-opacity:0.5"/>
    <stop offset="0.8078" style="stop-color:#FFFFFF;stop-opacity:0.5"/>
    <stop offset="0.9805" style="stop-color:#000000;stop-opacity:0.5"/>
    <stop offset="1" style="stop-color:#000000;stop-opacity:0.5"/>
  </radialGradient>
  <path fill="url(#SVGID_18_)" d="M3.371,2.019C3.386,2.09,3.392,2.157,3.392,2.233c0-0.074-0.006-0.145-0.019-0.215&#xD;&#xA;&#x9;&#x9;C3.365,2.018,3.379,2.019,3.371,2.019z"/>
  <linearGradient id="SVGID_19_" gradientUnits="userSpaceOnUse" x1="6.2344" y1="2.3657" x2="5.6332" y2="2.3107">
    <stop offset="0" style="stop-color:#FFFFFF;stop-opacity:0"/>
    <stop offset="0.092" style="stop-color:#FFFFFF;stop-opacity:0.1"/>
    <stop offset="0.2025" style="stop-color:#FFFFFF;stop-opacity:0.05"/>
    <stop offset="0.5153" style="stop-color:#FFFFFF;stop-opacity:0.25"/>
    <stop offset="0.816" style="stop-color:#FFFFFF;stop-opacity:0.05"/>
    <stop offset="0.8834" style="stop-color:#FFFFFF;stop-opacity:0.1"/>
    <stop offset="1" style="stop-color:#FFFFFF;stop-opacity:0"/>
  </linearGradient>
  <path fill="url(#SVGID_19_)" d="M5.649,2.277C5.647,2.3,5.642,2.323,5.641,2.347C5.642,2.322,5.646,2.301,5.649,2.277&#xD;&#xA;&#x9;&#x9;C5.647,2.276,5.654,2.278,5.649,2.277z"/>
  <radialGradient id="SVGID_20_" cx="1.1104" cy="54.3428" r="51.8075" gradientUnits="userSpaceOnUse">
    <stop offset="0.5635" style="stop-color:#000000;stop-opacity:0.5"/>
    <stop offset="0.6189" style="stop-color:#000000;stop-opacity:0.5"/>
    <stop offset="0.8078" style="stop-color:#FFFFFF;stop-opacity:0.5"/>
    <stop offset="0.9805" style="stop-color:#000000;stop-opacity:0.5"/>
    <stop offset="1" style="stop-color:#000000;stop-opacity:0.5"/>
  </radialGradient>
  <path fill="url(#SVGID_20_)" d="M5.649,2.277C5.647,2.3,5.642,2.323,5.641,2.347C5.642,2.322,5.646,2.301,5.649,2.277&#xD;&#xA;&#x9;&#x9;C5.647,2.276,5.654,2.278,5.649,2.277z"/>
  <linearGradient id="SVGID_21_" gradientUnits="userSpaceOnUse" x1="5.8037" y1="23.7378" x2="4.9019" y2="23.6552">
    <stop offset="0" style="stop-color:#FFFFFF;stop-opacity:0"/>
    <stop offset="0.092" style="stop-color:#FFFFFF;stop-opacity:0.1"/>
    <stop offset="0.2025" style="stop-color:#FFFFFF;stop-opacity:0.05"/>
    <stop offset="0.5153" style="stop-color:#FFFFFF;stop-opacity:0.25"/>
    <stop offset="0.816" style="stop-color:#FFFFFF;stop-opacity:0.05"/>
    <stop offset="0.8834" style="stop-color:#FFFFFF;stop-opacity:0.1"/>
    <stop offset="1" style="stop-color:#FFFFFF;stop-opacity:0"/>
  </linearGradient>
  <path fill="url(#SVGID_21_)" d="M5.782,23.771C5.787,23.771,5.78,23.77,5.782,23.771c0.005-0.023,0.008-0.047,0.012-0.07&#xD;&#xA;&#x9;&#x9;C5.79,23.726,5.787,23.747,5.782,23.771z"/>
  <radialGradient id="SVGID_22_" cx="0.7559" cy="54.1694" r="50.6803" gradientUnits="userSpaceOnUse">
    <stop offset="0.5635" style="stop-color:#000000;stop-opacity:0.5"/>
    <stop offset="0.6189" style="stop-color:#000000;stop-opacity:0.5"/>
    <stop offset="0.8078" style="stop-color:#FFFFFF;stop-opacity:0.5"/>
    <stop offset="0.9805" style="stop-color:#000000;stop-opacity:0.5"/>
    <stop offset="1" style="stop-color:#000000;stop-opacity:0.5"/>
  </radialGradient>
  <path fill="url(#SVGID_22_)" d="M5.782,23.771C5.787,23.771,5.78,23.77,5.782,23.771c0.005-0.023,0.008-0.047,0.012-0.07&#xD;&#xA;&#x9;&#x9;C5.79,23.726,5.787,23.747,5.782,23.771z"/>
  <linearGradient id="SVGID_23_" gradientUnits="userSpaceOnUse" x1="6.79" y1="13.1719" x2="4.5906" y2="12.9704">
    <stop offset="0" style="stop-color:#FFFFFF;stop-opacity:0"/>
    <stop offset="0.092" style="stop-color:#FFFFFF;stop-opacity:0.1"/>
    <stop offset="0.2025" style="stop-color:#FFFFFF;stop-opacity:0.05"/>
    <stop offset="0.5153" style="stop-color:#FFFFFF;stop-opacity:0.25"/>
    <stop offset="0.816" style="stop-color:#FFFFFF;stop-opacity:0.05"/>
    <stop offset="0.8834" style="stop-color:#FFFFFF;stop-opacity:0.1"/>
    <stop offset="1" style="stop-color:#FFFFFF;stop-opacity:0"/>
  </linearGradient>
  <polygon fill="url(#SVGID_23_)" points="5.794,23.701 7.839,2.647 7.837,2.647 &#x9;"/>
  <radialGradient id="SVGID_24_" cx="-3.0059" cy="54.3418" r="52.3239" gradientUnits="userSpaceOnUse">
    <stop offset="0.5635" style="stop-color:#000000;stop-opacity:0.5"/>
    <stop offset="0.6189" style="stop-color:#000000;stop-opacity:0.5"/>
    <stop offset="0.8078" style="stop-color:#FFFFFF;stop-opacity:0.5"/>
    <stop offset="0.9805" style="stop-color:#000000;stop-opacity:0.5"/>
    <stop offset="1" style="stop-color:#000000;stop-opacity:0.5"/>
  </radialGradient>
  <polygon fill="url(#SVGID_24_)" points="5.794,23.701 7.839,2.647 7.837,2.647 &#x9;"/>
  <linearGradient id="SVGID_25_" gradientUnits="userSpaceOnUse" x1="10.1465" y1="14.0298" x2="8.0233" y2="13.5967">
    <stop offset="0" style="stop-color:#FFFFFF;stop-opacity:0"/>
    <stop offset="0.092" style="stop-color:#FFFFFF;stop-opacity:0.1"/>
    <stop offset="0.2025" style="stop-color:#FFFFFF;stop-opacity:0.05"/>
    <stop offset="0.5153" style="stop-color:#FFFFFF;stop-opacity:0.25"/>
    <stop offset="0.816" style="stop-color:#FFFFFF;stop-opacity:0.05"/>
    <stop offset="0.8834" style="stop-color:#FFFFFF;stop-opacity:0.1"/>
    <stop offset="1" style="stop-color:#FFFFFF;stop-opacity:0"/>
  </linearGradient>
  <polygon fill="url(#SVGID_25_)" points="8.143,24.354 12.206,3.716 12.206,3.716 &#x9;"/>
  <radialGradient id="SVGID_26_" cx="-3.1787" cy="54.7832" r="52.7935" gradientUnits="userSpaceOnUse">
    <stop offset="0.5635" style="stop-color:#000000;stop-opacity:0.5"/>
    <stop offset="0.6189" style="stop-color:#000000;stop-opacity:0.5"/>
    <stop offset="0.8078" style="stop-color:#FFFFFF;stop-opacity:0.5"/>
    <stop offset="0.9805" style="stop-color:#000000;stop-opacity:0.5"/>
    <stop offset="1" style="stop-color:#000000;stop-opacity:0.5"/>
  </radialGradient>
  <polygon fill="url(#SVGID_26_)" points="8.143,24.354 12.206,3.716 12.206,3.716 &#x9;"/>
  <linearGradient id="SVGID_27_" gradientUnits="userSpaceOnUse" x1="6.7988" y1="24.1343" x2="5.9292" y2="23.9569">
    <stop offset="0" style="stop-color:#FFFFFF;stop-opacity:0"/>
    <stop offset="0.092" style="stop-color:#FFFFFF;stop-opacity:0.1"/>
    <stop offset="0.2025" style="stop-color:#FFFFFF;stop-opacity:0.05"/>
    <stop offset="0.5153" style="stop-color:#FFFFFF;stop-opacity:0.25"/>
    <stop offset="0.816" style="stop-color:#FFFFFF;stop-opacity:0.05"/>
    <stop offset="0.8834" style="stop-color:#FFFFFF;stop-opacity:0.1"/>
    <stop offset="1" style="stop-color:#FFFFFF;stop-opacity:0"/>
  </linearGradient>
  <path fill="url(#SVGID_27_)" d="M5.965,23.929c-0.005,0.023-0.006,0.045-0.009,0.067c0.003,0.001-0.004,0,0,0&#xD;&#xA;&#x9;&#x9;C5.959,23.973,5.962,23.953,5.965,23.929z"/>
  <radialGradient id="SVGID_28_" cx="-1.8936" cy="53.9146" r="50.8537" gradientUnits="userSpaceOnUse">
    <stop offset="0.5635" style="stop-color:#000000;stop-opacity:0.5"/>
    <stop offset="0.6189" style="stop-color:#000000;stop-opacity:0.5"/>
    <stop offset="0.8078" style="stop-color:#FFFFFF;stop-opacity:0.5"/>
    <stop offset="0.9805" style="stop-color:#000000;stop-opacity:0.5"/>
    <stop offset="1" style="stop-color:#000000;stop-opacity:0.5"/>
  </radialGradient>
  <path fill="url(#SVGID_28_)" d="M5.965,23.929c-0.005,0.023-0.006,0.045-0.009,0.067c0.003,0.001-0.004,0,0,0&#xD;&#xA;&#x9;&#x9;C5.959,23.973,5.962,23.953,5.965,23.929z"/>
  <linearGradient id="SVGID_29_" gradientUnits="userSpaceOnUse" x1="8.0791" y1="24.4302" x2="7.0785" y2="24.2261">
    <stop offset="0" style="stop-color:#FFFFFF;stop-opacity:0"/>
    <stop offset="0.092" style="stop-color:#FFFFFF;stop-opacity:0.1"/>
    <stop offset="0.2025" style="stop-color:#FFFFFF;stop-opacity:0.05"/>
    <stop offset="0.5153" style="stop-color:#FFFFFF;stop-opacity:0.25"/>
    <stop offset="0.816" style="stop-color:#FFFFFF;stop-opacity:0.05"/>
    <stop offset="0.8834" style="stop-color:#FFFFFF;stop-opacity:0.1"/>
    <stop offset="1" style="stop-color:#FFFFFF;stop-opacity:0"/>
  </linearGradient>
  <path fill="url(#SVGID_29_)" d="M8.095,24.521C8.101,24.523,8.089,24.52,8.095,24.521c0.019-0.054,0.037-0.109,0.048-0.167&#xD;&#xA;&#x9;&#x9;C8.129,24.414,8.115,24.467,8.095,24.521z"/>
  <radialGradient id="SVGID_30_" cx="-0.1104" cy="54.3042" r="50.4982" gradientUnits="userSpaceOnUse">
    <stop offset="0.5635" style="stop-color:#000000;stop-opacity:0.5"/>
    <stop offset="0.6189" style="stop-color:#000000;stop-opacity:0.5"/>
    <stop offset="0.8078" style="stop-color:#FFFFFF;stop-opacity:0.5"/>
    <stop offset="0.9805" style="stop-color:#000000;stop-opacity:0.5"/>
    <stop offset="1" style="stop-color:#000000;stop-opacity:0.5"/>
  </radialGradient>
  <path fill="url(#SVGID_30_)" d="M8.095,24.521C8.101,24.523,8.089,24.52,8.095,24.521c0.019-0.054,0.037-0.109,0.048-0.167&#xD;&#xA;&#x9;&#x9;C8.129,24.414,8.115,24.467,8.095,24.521z"/>
  <linearGradient id="SVGID_31_" gradientUnits="userSpaceOnUse" x1="9.1494" y1="24.9551" x2="8.2938" y2="24.7093">
    <stop offset="0" style="stop-color:#FFFFFF;stop-opacity:0"/>
    <stop offset="0.092" style="stop-color:#FFFFFF;stop-opacity:0.1"/>
    <stop offset="0.2025" style="stop-color:#FFFFFF;stop-opacity:0.05"/>
    <stop offset="0.5153" style="stop-color:#FFFFFF;stop-opacity:0.25"/>
    <stop offset="0.816" style="stop-color:#FFFFFF;stop-opacity:0.05"/>
    <stop offset="0.8834" style="stop-color:#FFFFFF;stop-opacity:0.1"/>
    <stop offset="1" style="stop-color:#FFFFFF;stop-opacity:0"/>
  </linearGradient>
  <path fill="url(#SVGID_31_)" d="M8.277,24.619c-0.017,0.054-0.026,0.106-0.034,0.16c0.006,0.002-0.006-0.002,0,0&#xD;&#xA;&#x9;&#x9;C8.251,24.724,8.261,24.675,8.277,24.619z"/>
  <radialGradient id="SVGID_32_" cx="-3.834" cy="53.4561" r="50.8532" gradientUnits="userSpaceOnUse">
    <stop offset="0.5635" style="stop-color:#000000;stop-opacity:0.5"/>
    <stop offset="0.6189" style="stop-color:#000000;stop-opacity:0.5"/>
    <stop offset="0.8078" style="stop-color:#FFFFFF;stop-opacity:0.5"/>
    <stop offset="0.9805" style="stop-color:#000000;stop-opacity:0.5"/>
    <stop offset="1" style="stop-color:#000000;stop-opacity:0.5"/>
  </radialGradient>
  <path fill="url(#SVGID_32_)" d="M8.277,24.619c-0.017,0.054-0.026,0.106-0.034,0.16c0.006,0.002-0.006-0.002,0,0&#xD;&#xA;&#x9;&#x9;C8.251,24.724,8.261,24.675,8.277,24.619z"/>
  <linearGradient id="SVGID_33_" gradientUnits="userSpaceOnUse" x1="13.4141" y1="15.2036" x2="11.1709" y2="14.5592">
    <stop offset="0" style="stop-color:#FFFFFF;stop-opacity:0"/>
    <stop offset="0.092" style="stop-color:#FFFFFF;stop-opacity:0.1"/>
    <stop offset="0.2025" style="stop-color:#FFFFFF;stop-opacity:0.05"/>
    <stop offset="0.5153" style="stop-color:#FFFFFF;stop-opacity:0.25"/>
    <stop offset="0.816" style="stop-color:#FFFFFF;stop-opacity:0.05"/>
    <stop offset="0.8834" style="stop-color:#FFFFFF;stop-opacity:0.1"/>
    <stop offset="1" style="stop-color:#FFFFFF;stop-opacity:0"/>
  </linearGradient>
  <polygon fill="url(#SVGID_33_)" points="10.402,25.252 16.404,5.148 16.404,5.148 &#x9;"/>
  <radialGradient id="SVGID_34_" cx="-3.4424" cy="55.2524" r="53.3192" gradientUnits="userSpaceOnUse">
    <stop offset="0.5635" style="stop-color:#000000;stop-opacity:0.5"/>
    <stop offset="0.6189" style="stop-color:#000000;stop-opacity:0.5"/>
    <stop offset="0.8078" style="stop-color:#FFFFFF;stop-opacity:0.5"/>
    <stop offset="0.9805" style="stop-color:#000000;stop-opacity:0.5"/>
    <stop offset="1" style="stop-color:#000000;stop-opacity:0.5"/>
  </radialGradient>
  <polygon fill="url(#SVGID_34_)" points="10.402,25.252 16.404,5.148 16.404,5.148 &#x9;"/>
  <linearGradient id="SVGID_35_" gradientUnits="userSpaceOnUse" x1="13.54" y1="15.1475" x2="11.2937" y2="14.5021">
    <stop offset="0" style="stop-color:#FFFFFF;stop-opacity:0"/>
    <stop offset="0.092" style="stop-color:#FFFFFF;stop-opacity:0.1"/>
    <stop offset="0.2025" style="stop-color:#FFFFFF;stop-opacity:0.05"/>
    <stop offset="0.5153" style="stop-color:#FFFFFF;stop-opacity:0.25"/>
    <stop offset="0.816" style="stop-color:#FFFFFF;stop-opacity:0.05"/>
    <stop offset="0.8834" style="stop-color:#FFFFFF;stop-opacity:0.1"/>
    <stop offset="1" style="stop-color:#FFFFFF;stop-opacity:0"/>
  </linearGradient>
  <polygon fill="url(#SVGID_35_)" points="14.316,4.386 14.316,4.386 8.277,24.619 &#x9;"/>
  <radialGradient id="SVGID_36_" cx="-3.3838" cy="55.2656" r="53.3111" gradientUnits="userSpaceOnUse">
    <stop offset="0.5635" style="stop-color:#000000;stop-opacity:0.5"/>
    <stop offset="0.6189" style="stop-color:#000000;stop-opacity:0.5"/>
    <stop offset="0.8078" style="stop-color:#FFFFFF;stop-opacity:0.5"/>
    <stop offset="0.9805" style="stop-color:#000000;stop-opacity:0.5"/>
    <stop offset="1" style="stop-color:#000000;stop-opacity:0.5"/>
  </radialGradient>
  <polygon fill="url(#SVGID_36_)" points="14.316,4.386 14.316,4.386 8.277,24.619 &#x9;"/>
  <linearGradient id="SVGID_37_" gradientUnits="userSpaceOnUse" x1="16.5332" y1="16.5381" x2="15.5722" y2="16.15">
    <stop offset="0" style="stop-color:#FFFFFF;stop-opacity:0"/>
    <stop offset="0.092" style="stop-color:#FFFFFF;stop-opacity:0.1"/>
    <stop offset="0.2025" style="stop-color:#FFFFFF;stop-opacity:0.05"/>
    <stop offset="0.5153" style="stop-color:#FFFFFF;stop-opacity:0.25"/>
    <stop offset="0.816" style="stop-color:#FFFFFF;stop-opacity:0.05"/>
    <stop offset="0.8834" style="stop-color:#FFFFFF;stop-opacity:0.1"/>
    <stop offset="1" style="stop-color:#FFFFFF;stop-opacity:0"/>
  </linearGradient>
  <polygon fill="url(#SVGID_37_)" points="12.636,26.185 20.429,6.891 20.428,6.891 &#x9;"/>
  <radialGradient id="SVGID_38_" cx="-3.5527" cy="55.2617" r="53.3619" gradientUnits="userSpaceOnUse">
    <stop offset="0.5635" style="stop-color:#000000;stop-opacity:0.5"/>
    <stop offset="0.6189" style="stop-color:#000000;stop-opacity:0.5"/>
    <stop offset="0.8078" style="stop-color:#FFFFFF;stop-opacity:0.5"/>
    <stop offset="0.9805" style="stop-color:#000000;stop-opacity:0.5"/>
    <stop offset="1" style="stop-color:#000000;stop-opacity:0.5"/>
  </radialGradient>
  <polygon fill="url(#SVGID_38_)" points="12.636,26.185 20.429,6.891 20.428,6.891 &#x9;"/>
  <linearGradient id="SVGID_39_" gradientUnits="userSpaceOnUse" x1="12.5693" y1="26.3647" x2="10.0911" y2="25.3641">
    <stop offset="0" style="stop-color:#FFFFFF;stop-opacity:0"/>
    <stop offset="0.092" style="stop-color:#FFFFFF;stop-opacity:0.1"/>
    <stop offset="0.2025" style="stop-color:#FFFFFF;stop-opacity:0.05"/>
    <stop offset="0.5153" style="stop-color:#FFFFFF;stop-opacity:0.25"/>
    <stop offset="0.816" style="stop-color:#FFFFFF;stop-opacity:0.05"/>
    <stop offset="0.8834" style="stop-color:#FFFFFF;stop-opacity:0.1"/>
    <stop offset="1" style="stop-color:#FFFFFF;stop-opacity:0"/>
  </linearGradient>
  <path fill="url(#SVGID_39_)" d="M12.422,26.512C12.427,26.515,12.416,26.508,12.422,26.512c0.066-0.082,0.171-0.224,0.214-0.327&#xD;&#xA;&#x9;&#x9;C12.593,26.289,12.489,26.429,12.422,26.512z"/>
  <radialGradient id="SVGID_40_" cx="-6.2979" cy="59.4517" r="61.3833" gradientUnits="userSpaceOnUse">
    <stop offset="0.5635" style="stop-color:#000000;stop-opacity:0.5"/>
    <stop offset="0.6189" style="stop-color:#000000;stop-opacity:0.5"/>
    <stop offset="0.8078" style="stop-color:#FFFFFF;stop-opacity:0.5"/>
    <stop offset="0.9805" style="stop-color:#000000;stop-opacity:0.5"/>
    <stop offset="1" style="stop-color:#000000;stop-opacity:0.5"/>
  </radialGradient>
  <path fill="url(#SVGID_40_)" d="M12.422,26.512C12.427,26.515,12.416,26.508,12.422,26.512c0.066-0.082,0.171-0.224,0.214-0.327&#xD;&#xA;&#x9;&#x9;C12.593,26.289,12.489,26.429,12.422,26.512z"/>
  <linearGradient id="SVGID_41_" gradientUnits="userSpaceOnUse" x1="16.209" y1="16.354" x2="14.4871" y2="15.6587">
    <stop offset="0" style="stop-color:#FFFFFF;stop-opacity:0"/>
    <stop offset="0.092" style="stop-color:#FFFFFF;stop-opacity:0.1"/>
    <stop offset="0.2025" style="stop-color:#FFFFFF;stop-opacity:0.05"/>
    <stop offset="0.5153" style="stop-color:#FFFFFF;stop-opacity:0.25"/>
    <stop offset="0.816" style="stop-color:#FFFFFF;stop-opacity:0.05"/>
    <stop offset="0.8834" style="stop-color:#FFFFFF;stop-opacity:0.1"/>
    <stop offset="1" style="stop-color:#FFFFFF;stop-opacity:0"/>
  </linearGradient>
  <polygon fill="url(#SVGID_41_)" points="18.409,5.969 18.409,5.969 10.577,25.354 &#x9;"/>
  <radialGradient id="SVGID_42_" cx="-3.4971" cy="55.2798" r="53.3561" gradientUnits="userSpaceOnUse">
    <stop offset="0.5635" style="stop-color:#000000;stop-opacity:0.5"/>
    <stop offset="0.6189" style="stop-color:#000000;stop-opacity:0.5"/>
    <stop offset="0.8078" style="stop-color:#FFFFFF;stop-opacity:0.5"/>
    <stop offset="0.9805" style="stop-color:#000000;stop-opacity:0.5"/>
    <stop offset="1" style="stop-color:#000000;stop-opacity:0.5"/>
  </radialGradient>
  <polygon fill="url(#SVGID_42_)" points="18.409,5.969 18.409,5.969 10.577,25.354 &#x9;"/>
</svg>