<svg version="1.2" baseProfile="tiny" viewBox="0 0 50.754 100.589" xmlns:xlink="http://www.w3.org/1999/xlink" xmlns="http://www.w3.org/2000/svg">
<path style="fill:#ffffff;" d="M48.367,52.9722L48.1331,52.9561C48.161,52.423,48.2051,51.922,48.2341,51.409L48.5528,51.409C48.8502,51.409,49.1218,51.2863,49.3172,51.0841C49.5131,50.8829,49.6369,50.6073,49.6369,50.2975C49.6359,49.6879,49.1502,49.191,48.5518,49.191L48.2351,49.191C48.2072,48.674,48.162,48.1691,48.1331,47.6319L48.367,47.6168C48.664,47.5967,48.9258,47.4559,49.1091,47.2426C49.2918,47.0304,49.3968,46.7447,49.376,46.4379C49.3349,45.8294,48.8188,45.3636,48.2219,45.4029L47.961,45.421C47.8849,44.6706,47.791,43.9232,47.6819,43.1748L48.0102,43.1215C48.597,43.0259,48.9949,42.4576,48.8989,41.8521C48.799,41.2485,48.2422,40.8341,47.6529,40.9317L47.3068,40.989C47.1591,40.2286,46.9941,39.4711,46.8089,38.7177L47.221,38.6091C47.7971,38.4572,48.1351,37.8526,47.9788,37.2592C47.8209,36.6687,47.2271,36.3116,46.6521,36.4645L46.2338,36.5762C46.0242,35.861,45.7969,35.1488,45.5543,34.4417L45.9131,34.3069C46.4678,34.0997,46.7419,33.465,46.5252,32.8886C46.312,32.3192,45.6862,32.0215,45.132,32.2307L44.7818,32.3625C44.494,31.6332,44.188,30.91,43.8652,30.1908L44.224,30.0107C44.7518,29.7492,44.9609,29.0913,44.6879,28.5401C44.4158,27.9929,43.7642,27.7606,43.2358,28.0261L42.9039,28.1921C42.5369,27.4729,42.1502,26.7597,41.7482,26.0546L42.0639,25.8544C42.5628,25.5395,42.7009,24.8616,42.374,24.3435C42.0482,23.8275,41.3752,23.6636,40.8768,23.9814L40.6002,24.1595C40.1479,23.4503,39.678,22.7492,39.1872,22.0612L39.5232,21.7946C39.983,21.4285,40.048,20.7445,39.6678,20.2616C39.2912,19.7838,38.6081,19.6883,38.1482,20.0544L37.8579,20.2838C37.3042,19.5746,36.7291,18.8795,36.1308,18.1955L36.381,17.9521C36.7992,17.5447,36.7911,16.8557,36.3652,16.4141C35.9389,15.9755,35.2512,15.9534,34.8309,16.3618L34.6822,16.5077C34.126,15.9594,33.555,15.4223,32.9708,14.9013L33.1261,14.7252C33.322,14.4989,33.4068,14.2142,33.386,13.9336C33.3652,13.655,33.2368,13.3793,33.0058,13.1762C32.547,12.7738,31.8522,12.811,31.4589,13.2596L31.2868,13.4588C30.7031,12.98,30.1068,12.5183,29.5008,12.0677L29.6952,11.7971C30.0448,11.3153,29.923,10.6313,29.4241,10.2721C28.9288,9.9171,28.241,10.0177,27.8959,10.5025L27.6878,10.7872C27.0468,10.3526,26.3961,9.9352,25.7318,9.5308L25.946,9.1637C26.2439,8.6476,26.0561,7.9817,25.5262,7.6739C24.9979,7.3671,24.3259,7.5351,24.029,8.0491L23.8102,8.4243C23.156,8.0662,22.4921,7.7242,21.8202,7.3963L21.977,7.0463C22.2242,6.5071,21.9689,5.8623,21.4091,5.6078C20.8528,5.3574,20.2021,5.5877,19.959,6.1289L19.8067,6.4699C19.0871,6.1571,18.3592,5.8633,17.6208,5.5857L17.7502,5.2055C17.938,4.6442,17.6193,4.0316,17.0381,3.8365C16.46,3.6433,15.8352,3.9401,15.648,4.5004L15.5302,4.8534C14.7598,4.603,13.9848,4.3706,13.2021,4.1604L13.2828,3.7932C13.4138,3.2168,13.0321,2.6415,12.4332,2.5077C11.8379,2.3729,11.2481,2.733,11.1192,3.3074L11.0481,3.6303C10.2279,3.4472,9.4001,3.2852,8.5642,3.1454L8.616,2.7199C8.681,2.1365,8.244,1.6054,7.6349,1.532C7.0299,1.4616,6.4782,1.878,6.4128,2.4614L6.3691,2.8276C5.4769,2.7189,4.578,2.6334,3.671,2.5741L3.6751,2.224C3.6842,1.6396,3.1909,1.1578,2.5788,1.1477C1.9698,1.1397,1.447,1.6134,1.4409,2.1969L1.4358,2.388C1.0882,2.3799,0.0178,2.3598,0.0,2.3598L0.0020,23.4503C0.2462,23.4584,0.5228,23.4704,0.7202,23.4765C0.7649,24.0146,1.2511,24.4492,1.8292,24.4562C2.3662,24.4622,2.796,24.0951,2.9062,23.6103C3.1102,23.6314,3.4548,23.6565,3.6578,23.6817C3.6741,23.901,3.7248,24.1062,3.907,24.3254C4.0862,24.5377,4.3532,24.6795,4.6582,24.7157C5.1642,24.7751,5.6291,24.4894,5.8078,24.0378C5.9301,24.0478,6.291,24.1062,6.4442,24.1303C6.4381,24.2178,6.4442,24.3063,6.461,24.3918C6.5412,24.8022,6.8838,25.1503,7.3299,25.2509C7.4791,25.284,7.6278,25.2861,7.7689,25.2629C8.1171,25.2036,8.4018,24.9863,8.5551,24.6735C8.6632,24.7057,8.7409,24.7298,8.8469,24.765C8.8388,24.8354,8.8378,24.931,8.8439,25.0014C8.882,25.4188,9.186,25.788,9.6199,25.9328C10.1112,26.0968,10.6162,25.8966,10.8812,25.4973C10.9781,25.5375,11.0771,25.5748,11.173,25.617C11.1578,25.6874,11.1278,25.7528,11.1268,25.8222C11.1232,26.2437,11.3699,26.6541,11.7881,26.8422C12.2672,27.0594,12.7961,26.9045,13.0971,26.5203C13.1722,26.5565,13.2478,26.5937,13.3209,26.6329C13.2772,26.813,13.2641,26.9971,13.3128,27.1741C13.3899,27.4437,13.5701,27.6881,13.834,27.841C14.2741,28.0955,14.7989,28.008,15.1409,27.6821C15.244,27.7465,15.35,27.8108,15.4521,27.8772C15.2572,28.3359,15.383,28.8851,15.8139,29.196C16.253,29.5138,16.829,29.4504,17.199,29.1004C17.2822,29.1628,17.3629,29.2271,17.4462,29.2895C17.1549,29.7351,17.2168,30.3376,17.639,30.7058C18.0689,31.083,18.6881,31.0599,19.0921,30.6937C19.2642,30.8657,19.4281,31.0458,19.5951,31.2208C19.2439,31.6342,19.2591,32.2639,19.6631,32.6783C20.0372,33.0606,20.601,33.1059,21.0218,32.8423C21.1502,33.0012,21.274,33.1642,21.3989,33.3261C21.2548,33.4921,21.1538,33.6852,21.1319,33.8995C21.1071,34.1771,21.1852,34.4678,21.374,34.7092C21.6882,35.1066,22.2039,35.2232,22.6378,35.0492C22.719,35.174,22.7951,35.3007,22.8748,35.4264C22.8099,35.4828,22.7342,35.5371,22.686,35.6075C22.4541,35.9555,22.4358,36.4343,22.6809,36.8206C22.7642,36.9504,22.8682,37.057,22.985,37.1395C23.2712,37.3437,23.6341,37.393,23.964,37.2803C24.0178,37.3799,24.065,37.4835,24.1168,37.5851C24.0609,37.6283,23.9929,37.6625,23.9478,37.7179C23.6798,38.0377,23.6148,38.5125,23.8189,38.9249C24.0488,39.3876,24.5482,39.6029,25.0172,39.5073C25.0598,39.6049,25.1019,39.7015,25.141,39.799C25.0801,39.8383,25.0131,39.8634,24.9618,39.9117C24.6609,40.2054,24.5472,40.6722,24.7091,41.0997C24.8928,41.5915,25.377,41.8561,25.8642,41.7967C25.8881,41.8772,25.915,41.9547,25.9419,42.0351C25.781,42.1307,25.6409,42.2524,25.5521,42.4123C25.4141,42.6558,25.3709,42.9565,25.4491,43.2523C25.582,43.7441,26.0129,44.0529,26.4829,44.063C26.5119,44.1817,26.5388,44.3014,26.5662,44.4221C26.1018,44.6082,25.8028,45.086,25.8891,45.6111C25.9749,46.1462,26.4261,46.5063,26.9362,46.5224C26.9509,46.625,26.9641,46.7266,26.9758,46.8302C26.456,46.9389,26.0749,47.4096,26.1139,47.9669C26.152,48.5432,26.6139,48.9718,27.1681,48.9899C27.1681,49.0703,27.1671,49.1448,27.1671,49.2182C26.6829,49.3298,26.32,49.7724,26.3241,50.2985C26.3241,50.8266,26.6829,51.2682,27.1671,51.3799C27.1671,51.4523,27.1681,51.5257,27.1681,51.6032C26.6139,51.6213,26.152,52.0508,26.1139,52.6262C26.0749,53.1834,26.457,53.6532,26.9758,53.7628C26.9641,53.8674,26.9509,53.969,26.9362,54.0716C26.4261,54.0877,25.9749,54.4468,25.8891,54.9819C25.8028,55.508,26.1018,55.9858,26.5662,56.1719C26.5388,56.2926,26.5119,56.4123,26.4829,56.531C26.0129,56.5401,25.582,56.8489,25.4491,57.3408C25.3709,57.6365,25.4141,57.9373,25.5521,58.1807C25.6409,58.3406,25.781,58.4623,25.9419,58.5579C25.915,58.6384,25.8881,58.7158,25.8642,58.7963C25.377,58.7369,24.8918,59.0015,24.7091,59.4934C24.5472,59.9209,24.6609,60.3876,24.9618,60.6813C25.0131,60.7296,25.0801,60.7547,25.141,60.794C25.1019,60.8916,25.0598,60.9881,25.0172,61.0857C24.5472,60.9901,24.0488,61.2054,23.8189,61.6681C23.6148,62.0795,23.6798,62.5553,23.9478,62.8752C23.9929,62.9305,24.0609,62.9647,24.1168,63.0079C24.064,63.1095,24.0168,63.2131,23.964,63.3127C23.6351,63.2001,23.2722,63.2484,22.985,63.4535C22.8682,63.536,22.7642,63.6427,22.6809,63.7724C22.4358,64.1587,22.4531,64.6385,22.686,64.9845C22.7347,65.0549,22.8099,65.1103,22.8748,65.1656C22.7951,65.2913,22.719,65.4181,22.6378,65.5428C22.2039,65.3688,21.6892,65.4844,21.374,65.8828C21.1852,66.1232,21.1061,66.4139,21.1319,66.6915C21.1533,66.9068,21.2548,67.0999,21.3989,67.2659C21.274,67.4278,21.1502,67.5918,21.0218,67.7497C20.601,67.4862,20.0372,67.5314,19.6631,67.9137C19.2591,68.3281,19.2439,68.9578,19.5951,69.3712C19.4281,69.5472,19.2642,69.7263,19.0921,69.8983C18.6881,69.5322,18.0689,69.509,17.639,69.8862C17.2168,70.2534,17.1549,70.8559,17.4462,71.3015C17.3629,71.3649,17.2822,71.4293,17.199,71.4916C16.829,71.1416,16.254,71.0782,15.8139,71.3961C15.382,71.7069,15.2561,72.2551,15.4521,72.7148C15.35,72.7812,15.244,72.8445,15.1409,72.9099C14.7989,72.583,14.2751,72.4955,13.834,72.751C13.5691,72.9029,13.3899,73.1483,13.3128,73.4179C13.2641,73.5949,13.2772,73.779,13.3209,73.9591C13.2488,73.9983,13.1732,74.0355,13.0971,74.0717C12.7961,73.6885,12.2672,73.5326,11.7881,73.7498C11.3699,73.9379,11.1232,74.3484,11.1268,74.7698C11.1278,74.8382,11.1578,74.9036,11.173,74.975C11.0771,75.0173,10.9781,75.0535,10.8812,75.0947C10.6162,74.6944,10.1112,74.4952,9.6199,74.6592C9.185,74.804,8.882,75.1732,8.8439,75.5906C8.8378,75.661,8.8388,75.7566,8.8469,75.827C8.7409,75.8622,8.6632,75.8864,8.5551,75.9185C8.4018,75.6057,8.1171,75.3884,7.7689,75.3291C7.6268,75.306,7.4791,75.307,7.3299,75.3412C6.8838,75.4428,6.5412,75.7898,6.461,76.2002C6.4442,76.2857,6.4392,76.3732,6.4442,76.4617C6.292,76.4849,5.9301,76.5442,5.8078,76.5533C5.6281,76.1016,5.1632,75.8169,4.6582,75.8763C4.3532,75.9115,4.0862,76.0533,3.907,76.2666C3.7248,76.4859,3.6741,76.6901,3.6578,76.9093C3.4548,76.9355,3.1102,76.9596,2.9062,76.9818C2.796,76.4979,2.3662,76.1298,1.8292,76.1358C1.2511,76.1439,0.7649,76.5774,0.7202,77.1155C0.5238,77.1216,0.2462,77.1337,0.0020,77.1427L0.0,98.2282C0.0178,98.2282,1.0882,98.2091,1.4358,98.202L1.4419,98.3921C1.448,98.9745,1.9698,99.4483,2.5798,99.4403C3.1919,99.4312,3.6842,98.9484,3.6761,98.364L3.6721,98.0139C4.579,97.9546,5.4779,97.8691,6.3701,97.7604L6.4138,98.1266C6.4782,98.709,7.031,99.1264,7.6359,99.055C8.245,98.9816,8.683,98.4515,8.617,97.8671L8.5652,97.4426C9.4012,97.3018,10.2279,97.1408,11.0481,96.9567L11.1192,97.2806C11.2491,97.855,11.8389,98.2151,12.4332,98.0793C13.0321,97.9455,13.4128,97.3712,13.2828,96.7938L13.2021,96.4266C13.9848,96.2164,14.7608,95.984,15.5302,95.7336L15.648,96.0866C15.8352,96.6479,16.46,96.9447,17.0381,96.7505C17.6193,96.5564,17.938,95.9418,17.7502,95.3815L17.6208,95.0013C18.3582,94.7237,19.0871,94.4289,19.8067,94.1171L19.96,94.4541C20.2031,94.9962,20.8548,95.2266,21.4101,94.9761C21.9709,94.7216,22.2252,94.0779,21.978,93.5377L21.8212,93.1877C22.4932,92.8597,23.157,92.5187,23.8112,92.1606L24.03,92.5358C24.3269,93.0499,24.9989,93.2178,25.5272,92.911C26.0571,92.6022,26.2449,91.9373,25.947,91.4213L25.7328,91.0542C26.3972,90.6488,27.0478,90.2313,27.6888,89.7978L27.8969,90.0835C28.2431,90.5673,28.9298,90.6689,29.4251,90.3128C29.923,89.9537,30.0448,89.2697,29.6962,88.7879L29.5018,88.5163C30.1078,88.0667,30.7041,87.604,31.2878,87.1252L31.4599,87.3243C31.8532,87.773,32.548,87.8112,33.0069,87.4078C33.2368,87.2046,33.3662,86.929,33.387,86.6504C33.4078,86.3697,33.3241,86.0851,33.1271,85.8577L32.9718,85.6817C33.556,85.1607,34.127,84.6225,34.6833,84.0753L34.832,84.2212C35.2522,84.6295,35.9399,84.6064,36.3657,84.1688C36.7921,83.7283,36.8002,83.0382,36.382,82.6308L36.1318,82.3874C36.7302,81.7034,37.3052,81.0083,37.8589,80.2992L38.1492,80.5285C38.6091,80.8947,39.2922,80.7991,39.6688,80.3213C40.05,79.8385,39.984,79.1545,39.5242,78.7873L39.1882,78.5208C39.679,77.8327,40.149,77.1327,40.6012,76.4235L40.8778,76.6005C41.3762,76.9174,42.0492,76.7534,42.375,76.2384C42.7019,75.7204,42.5638,75.0434,42.0649,74.7276L41.7492,74.5274C42.1512,73.8213,42.5379,73.1091,42.9049,72.3899L43.2368,72.5559C43.7652,72.8224,44.4169,72.59,44.6889,72.0428C44.962,71.4916,44.7528,70.8338,44.225,70.5722L43.8662,70.3922C44.189,69.673,44.495,68.9507,44.7828,68.2205L45.133,68.3532C45.6872,68.5625,46.313,68.2657,46.5262,67.6954C46.7429,67.118,46.4678,66.4843,45.9141,66.2771L45.5548,66.1423C45.7979,65.4352,46.0253,64.723,46.2349,64.0078L46.6531,64.1195C47.2281,64.2713,47.8219,63.9142,47.9798,63.3248C48.1361,62.7313,47.7981,62.1268,47.222,61.9749L46.8099,61.8663C46.9952,61.1118,47.1601,60.3544,47.3078,59.595L47.6539,59.6513C48.2432,59.7489,48.8,59.3354,48.9,58.7319C48.9969,58.1274,48.598,57.558,48.0107,57.4625L47.6829,57.4092C47.792,56.6608,47.8859,55.9134,47.962,55.163L48.2229,55.1811C48.8208,55.2203,49.3359,54.7546,49.377,54.1461C49.3979,53.8393,49.2928,53.5536,49.1101,53.3413C48.9258,53.1321,48.664,52.9913,48.367,52.9722M19.118,30.7128C19.1211,30.7159,19.1221,30.7159,19.118,30.7128L19.118,30.7128M19.1109,30.7058C19.1058,30.7018,19.1008,30.6967,19.0942,30.6907C19.0972,30.6877,19.1028,30.6867,19.1079,30.6827C19.1109,30.6867,19.117,30.6907,19.1211,30.6967L19.1109,30.7058M19.1079,69.9053C19.1028,69.9013,19.0972,69.9013,19.0942,69.8973C19.1008,69.8912,19.1058,69.8862,19.1109,69.8822L19.1211,69.8923C19.117,69.8973,19.1109,69.9013,19.1079,69.9053Z"/>
</svg>