<svg version="1.2" baseProfile="tiny" viewBox="0 0 24.104 27.999" xmlns:xlink="http://www.w3.org/1999/xlink" xmlns="http://www.w3.org/2000/svg">
<path style="fill:#ffffff;" d="M20.4291,6.8911L20.545,6.608C20.774,6.0489,20.498,5.406,19.9289,5.1739C19.3589,4.9449,18.717,5.2171,18.488,5.779L18.4099,5.968C17.783,5.6961,17.1109,5.4209,16.4049,5.1479L16.437,5.025C16.611,4.4429,16.275,3.8311,15.6891,3.6519C15.1,3.48,14.4851,3.8109,14.311,4.3939L14.3171,4.386C13.639,4.1551,12.934,3.9299,12.207,3.7169L12.2159,3.6539C12.3359,3.0569,11.945,2.476,11.3441,2.355C10.7391,2.238,10.1601,2.6299,10.0391,3.23L5.965,23.9291L10.061,3.1359C9.3369,2.9581,8.595,2.794,7.8391,2.647L7.848,2.558C7.908,1.951,7.4621,1.41,6.853,1.3479C6.2629,1.2919,5.744,1.704,5.65,2.278C4.902,2.1699,4.142,2.0831,3.3731,2.019C3.2769,1.5089,2.8291,1.1219,2.2889,1.118C1.79,1.118,1.371,1.4439,1.2269,1.8941C0.8311,1.8829,0.0,1.916,0.0,1.916L0.0060,23.0101C0.0060,23.0101,0.537,23.0009,1.084,23.0451L1.082,23.315C1.0789,23.9279,1.5711,24.4249,2.186,24.428C2.798,24.43,3.2969,23.938,3.2979,23.3209L3.3919,2.2329L3.2979,23.345C3.403,23.3579,3.4859,23.3881,3.5939,23.403L5.6411,2.3469L3.586,23.49C3.5281,24.0959,3.974,24.638,4.5841,24.6971C5.1691,24.7531,5.609,24.3661,5.7399,23.9361C5.8129,23.952,5.8809,23.982,5.9561,23.9971C5.878,24.5719,6.261,25.1129,6.84,25.226C7.384,25.3341,7.842,25.0199,8.0221,24.675C8.1011,24.6979,8.1679,24.734,8.2479,24.757C8.165,25.31,8.4921,25.831,9.0241,25.9909C9.5329,26.1421,10.035,25.9041,10.2659,25.548C10.3491,25.5821,10.418,25.6129,10.5031,25.6479C10.4631,26.0951,10.701,26.589,11.1939,26.7889C11.6591,26.9759,12.125,26.879,12.422,26.5131C12.5859,26.5971,12.7351,26.6721,13.006,26.811L23.552,8.5431C23.552,8.5431,22.745,8.006,20.4291,6.8911Z"/>
</svg>