<svg version="1.2" baseProfile="tiny" viewBox="0 0 57.648 57.648" xmlns:xlink="http://www.w3.org/1999/xlink" xmlns="http://www.w3.org/2000/svg">
<path style="fill:#ffffff;" d="M56.5388,18.279C56.5388,17.668,56.039,17.1681,55.4291,17.1681C54.8192,17.1681,54.3188,17.668,54.3188,18.279L52.0988,18.279C52.0988,17.668,51.599,17.1681,50.9891,17.1681C50.3797,17.1681,49.8799,17.668,49.8799,18.279L47.6599,18.279C47.6599,17.668,47.1601,17.1681,46.5502,17.1681C45.9408,17.1681,45.441,17.668,45.441,18.279L43.2199,18.279C43.2199,17.668,42.7201,17.1681,42.1101,17.1681C41.5002,17.1681,41.001,17.668,41.001,18.279L40.029,18.279L39.3701,18.279L39.3701,18.279L39.3701,17.6213L39.3701,16.6487C39.98,16.6487,40.4798,16.1501,40.4798,15.5402C40.4798,14.9303,39.98,14.4299,39.3701,14.4299L39.3701,12.2098C39.98,12.2098,40.4798,11.71,40.4798,11.1001C40.4798,10.4902,39.98,9.9898,39.3701,9.9898L39.3701,7.7698C39.98,7.7698,40.4798,7.27,40.4798,6.6612C40.4798,6.0507,39.98,5.5509,39.3701,5.5509L39.3701,3.3297C39.98,3.3297,40.4798,2.8299,40.4798,2.22C40.4798,1.6101,39.98,1.1097,39.3701,1.1097L39.3701,0.0L18.279,0.0L18.279,0.0L18.279,1.1091C17.6691,1.1091,17.1687,1.609,17.1687,2.2189C17.1687,2.8288,17.6691,3.3292,18.279,3.3292L18.279,5.5498C17.6691,5.5498,17.1687,6.0502,17.1687,6.6601C17.1687,7.2688,17.6691,7.7692,18.279,7.7692L18.279,9.9892C17.6691,9.9892,17.1687,10.4891,17.1687,11.099C17.1687,11.7089,17.6691,12.2093,18.279,12.2093L18.279,14.4287C17.6691,14.4287,17.1687,14.9291,17.1687,15.539C17.1687,16.1489,17.6691,16.6482,18.279,16.6482L18.279,17.6201L18.279,18.2779L18.279,18.2779L17.6213,18.2779L16.6487,18.2779C16.6487,17.6668,16.1501,17.167,15.5402,17.167C14.9303,17.167,14.4299,17.6668,14.4299,18.2779L12.2098,18.2779C12.2098,17.6668,11.71,17.167,11.1001,17.167C10.4902,17.167,9.9898,17.6668,9.9898,18.2779L7.7698,18.2779L7.7698,18.2779C7.7698,17.6668,7.27,17.167,6.6612,17.167C6.0507,17.167,5.5509,17.6668,5.5509,18.2779L3.3297,18.2779L3.3297,18.2779C3.3297,17.6668,2.8299,17.167,2.22,17.167C1.6101,17.167,1.1097,17.6668,1.1097,18.2779L0.0,18.2779L0.0,18.2779L0.0,39.3678L1.1091,39.3678C1.1091,39.9777,1.609,40.4781,2.2189,40.4781C2.8288,40.4781,3.3292,39.9777,3.3292,39.3678L5.5492,39.3678C5.5492,39.9777,6.049,40.4781,6.6589,40.4781C7.2683,40.4781,7.7681,39.9777,7.7681,39.3678L9.9869,39.3678C9.9869,39.9777,10.4867,40.4781,11.0972,40.4781C11.7072,40.4781,12.207,39.9777,12.207,39.3678L14.427,39.3678C14.427,39.9777,14.9268,40.4781,15.5367,40.4781C16.1472,40.4781,16.6459,39.9777,16.6459,39.3678L17.6178,39.3678L18.2761,39.3678L18.2761,39.3678L18.2761,39.3678L18.2761,40.0262L18.2761,40.9998C17.6662,40.9998,17.1658,41.4979,17.1658,42.109C17.1658,42.7177,17.6662,43.2181,18.2761,43.2181L18.2761,45.4387C17.6662,45.4387,17.1658,45.9391,17.1658,46.5479C17.1658,47.1589,17.6662,47.6588,18.2761,47.6588L18.2761,49.8782C17.6662,49.8782,17.1658,50.378,17.1658,50.9868C17.1658,51.5973,17.6662,52.0971,18.2761,52.0971L18.2761,54.3171C17.6662,54.3171,17.1658,54.8169,17.1658,55.428C17.1658,56.0367,17.6662,56.5371,18.2761,56.5371L18.2761,57.6463L39.3701,57.6463L39.3701,57.6463L39.3701,56.5371C39.98,56.5371,40.4798,56.0367,40.4798,55.428C40.4798,54.8169,39.98,54.3171,39.3701,54.3171L39.3701,52.0971C39.98,52.0971,40.4798,51.5973,40.4798,50.9868C40.4798,50.378,39.98,49.8782,39.3701,49.8782L39.3701,47.6599C39.98,47.6599,40.4798,47.1601,40.4798,46.549C40.4798,45.9403,39.98,45.4399,39.3701,45.4399L39.3701,43.2193C39.98,43.2193,40.4798,42.7189,40.4798,42.1101C40.4798,41.4991,39.98,41.001,39.3701,41.001L39.3701,40.0279L39.3701,39.3701L39.369,39.3701L40.0267,39.3701L40.9993,39.3701C40.9993,39.98,41.4979,40.4798,42.1078,40.4798C42.7177,40.4798,43.2181,39.98,43.2181,39.3701L45.4387,39.3701C45.4387,39.98,45.9391,40.4798,46.5479,40.4798C47.1578,40.4798,47.6582,39.98,47.6582,39.3701L49.8782,39.3701C49.8782,39.98,50.378,40.4798,50.9868,40.4798C51.5973,40.4798,52.0971,39.98,52.0971,39.3701L54.3171,39.3701C54.3171,39.98,54.8169,40.4798,55.4268,40.4798C56.0367,40.4798,56.5371,39.98,56.5371,39.3701L57.6463,39.3701L57.6463,18.2802L56.5388,18.2802L56.5388,18.2802Z"/>
</svg>