<svg version="1.2" baseProfile="tiny" id="EdgeSVG_9q1vs" x="0px" y="0px" width="24.104px" height="27.999px" viewBox="0 0 24.104 27.999" xmlns:xlink="http://www.w3.org/1999/xlink" xmlns="http://www.w3.org/2000/svg">
  <linearGradient id="SVGID_1_" gradientUnits="userSpaceOnUse" x1="0" y1="13.999" x2="24.1035" y2="13.999">
    <stop offset="0.2025" style="stop-color:#000000;stop-opacity:0.5"/>
    <stop offset="0.7783" style="stop-color:#000000;stop-opacity:0.5"/>
  </linearGradient>
  <path fill="url(#SVGID_1_)" d="M12.451,27.771c-0.255,0.167-0.493,0.228-0.8,0.228c-0.294,0-0.588-0.058-0.874-0.173&#xD;&#xA;&#x9;&#x9;c-0.382-0.155-0.703-0.41-0.941-0.727c-0.161,0.037-0.327,0.056-0.495,0.056c-0.216,0-0.43-0.032-0.637-0.093&#xD;&#xA;&#x9;&#x9;c-0.461-0.139-0.845-0.409-1.119-0.761c-0.171,0.042-0.348,0.064-0.527,0.064c-0.145,0-0.291-0.015-0.436-0.043&#xD;&#xA;&#x9;&#x9;c-0.462-0.09-0.864-0.32-1.17-0.637c-0.238,0.088-0.494,0.135-0.757,0.135c-0.071,0-0.145-0.003-0.217-0.01&#xD;&#xA;&#x9;&#x9;c-0.476-0.046-0.901-0.238-1.238-0.528c-0.313,0.168-0.671,0.264-1.05,0.264H2.18c-0.938-0.004-1.741-0.594-2.064-1.42&#xD;&#xA;&#x9;&#x9;c-0.01,0-0.107-0.008-0.107-0.008L0,0.811C0.018,0.81,0.268,0.786,0.592,0.779C1.006,0.294,1.618,0,2.287,0&#xD;&#xA;&#x9;&#x9;C3.04,0.005,3.715,0.381,4.118,0.965c0.295,0.029,0.59,0.063,0.884,0.099c0.41-0.517,1.042-0.839,1.744-0.839&#xD;&#xA;&#x9;&#x9;c0.069,0,0.141,0.003,0.211,0.01c0.892,0.09,1.607,0.689,1.887,1.477c0.237,0.05,0.475,0.103,0.712,0.157&#xD;&#xA;&#x9;&#x9;c0.409-0.407,0.971-0.653,1.572-0.653c0.143,0,0.286,0.014,0.427,0.041c0.866,0.174,1.515,0.823,1.726,1.617&#xD;&#xA;&#x9;&#x9;c0.2,0.062,0.398,0.125,0.596,0.188c0.398-0.361,0.926-0.573,1.496-0.573c0.213,0,0.426,0.031,0.631,0.091l0.012,0.003&#xD;&#xA;&#x9;&#x9;c0.857,0.262,1.446,0.996,1.563,1.827c0.138,0.055,0.273,0.11,0.408,0.166c0.402-0.379,0.943-0.601,1.524-0.601&#xD;&#xA;&#x9;&#x9;c0.287,0,0.568,0.054,0.836,0.162c0.559,0.227,0.992,0.655,1.224,1.206c0.128,0.305,0.186,0.627,0.172,0.947&#xD;&#xA;&#x9;&#x9;c1.741,0.87,2.33,1.276,2.361,1.297L12.451,27.771z"/>
</svg>