<svg version="1.2" baseProfile="tiny" viewBox="0 0 42.461 42.461" xmlns:xlink="http://www.w3.org/1999/xlink" xmlns="http://www.w3.org/2000/svg">
<path style="fill:#ffffff;" d="M42.3548,41.0131L28.8548,14.052C28.848,14.0389,28.837,14.0308,28.831,14.0181C28.7992,13.9591,28.758,13.9068,28.7138,13.855C28.7041,13.8448,28.6968,13.8338,28.6892,13.824C28.6081,13.7378,28.5181,13.6589,28.409,13.6049L1.4471,0.1062C1.1401,-0.0488,0.7698,-0.034,0.4751,0.149C0.18,0.332,0.0,0.6531,0.0,1.0L0.0,28.0001C0.0,28.347,0.18,28.668,0.4751,28.851C0.6348,28.9499,0.8169,29.0,1.0,29.0C1.1528,29.0,1.3069,28.9652,1.4471,28.8939L25.7212,16.7398L13.5659,41.0131C13.4109,41.323,13.427,41.6912,13.61,41.9859C13.7922,42.281,14.114,42.461,14.4609,42.461L41.461,42.461C41.8079,42.461,42.1298,42.281,42.312,41.9859C42.4941,41.6912,42.5111,41.323,42.3548,41.0131M1.9999,2.619L25.728,14.5L1.9999,26.381L1.9999,2.619M16.08,40.4611L27.961,16.733L39.842,40.4611L16.08,40.4611L16.08,40.4611Z"/>
</svg>