<svg version="1.2" baseProfile="tiny" viewBox="0 0 55.922 42.461" xmlns:xlink="http://www.w3.org/1999/xlink" xmlns="http://www.w3.org/2000/svg">
<path style="fill:#ffffff;" d="M55.4472,0.149C55.152,-0.034,54.7818,-0.0501,54.4742,0.1062L31.3208,11.6989C30.515,10.7329,29.3182,10.1061,27.961,10.1061C26.6049,10.1061,25.407,10.7341,24.6018,11.7001L1.4473,0.1062C1.1402,-0.0488,0.77,-0.034,0.4748,0.149C0.1801,0.332,0.0,0.6531,0.0,1.0L0.0,28.0001C0.0,28.347,0.1801,28.668,0.4748,28.851C0.6353,28.9499,0.817,29.0,0.9999,29.0C1.1531,29.0,1.3069,28.9652,1.4473,28.8939L24.6018,17.2999C24.7718,17.5041,24.9569,17.6888,25.161,17.8591L13.5661,41.0131C13.4112,41.323,13.4269,41.6912,13.6097,41.9859C13.792,42.281,14.1142,42.461,14.4609,42.461L41.4611,42.461C41.8078,42.461,42.13,42.281,42.3123,41.9859C42.4951,41.6912,42.5108,41.323,42.3559,41.0131L30.7621,17.8599C30.9662,17.6901,31.1519,17.505,31.3219,17.3012L54.4747,28.8939C54.6151,28.9652,54.7689,29.0,54.9221,29.0C55.105,29.0,55.2867,28.9499,55.4472,28.851C55.7419,28.6688,55.922,28.347,55.922,28.0001L55.922,1.0C55.922,0.6531,55.7419,0.332,55.4472,0.149M1.9998,26.381L1.9998,2.619L23.6969,13.4831C23.6192,13.8109,23.5672,14.148,23.5672,14.4992C23.5672,14.8499,23.6192,15.1879,23.6969,15.5161L1.9998,26.381M39.8422,40.4611L16.0798,40.4611L16.0798,40.4611L26.9438,18.7639C27.2709,18.8421,27.6093,18.8939,27.961,18.8939C28.3128,18.8939,28.65,18.8421,28.9782,18.7639L39.8422,40.4611M53.9222,26.381L32.2262,15.5169C32.3039,15.1891,32.3559,14.8512,32.3559,14.4992C32.3559,14.1472,32.3039,13.81,32.2262,13.4818L53.9222,2.619L53.9222,26.381Z"/>
</svg>