<svg version="1.2" baseProfile="tiny" viewBox="0 0 55.92 42.46" xmlns:xlink="http://www.w3.org/1999/xlink" xmlns="http://www.w3.org/2000/svg">
<path style="fill:#ffffff;" d="M55.4452,0.149C55.15,-0.034,54.7809,-0.0501,54.4711,0.1061L40.466,7.1239C37.869,2.706,33.1801,0.0,28.0003,0.0C22.8059,0.0,18.1108,2.717,15.5212,7.152L1.4472,0.1061C1.1402,-0.0488,0.7689,-0.0331,0.4748,0.1499C0.1801,0.332,0.0,0.6539,0.0,0.9999L0.0,27.9998C0.0,28.3471,0.1801,28.6681,0.4748,28.8511C0.6353,28.9509,0.817,29.0002,0.9998,29.0002C1.1531,29.0002,1.3069,28.9649,1.4472,28.894L15.5508,21.8329C16.79,23.9241,18.5492,25.6841,20.6261,26.9111L13.5651,41.0121C13.4102,41.3221,13.4258,41.6902,13.6093,41.9849C13.791,42.28,14.1131,42.46,14.4598,42.46L41.4602,42.46C41.468,42.46,41.4747,42.46,41.4798,42.46C42.0328,42.46,42.4802,42.012,42.4802,41.4601C42.4802,41.2312,42.4041,41.021,42.2738,40.852L35.3163,26.943C37.42,25.7078,39.191,23.9462,40.429,21.8618L54.4728,28.8932C54.6131,28.9649,54.7669,29.0002,54.9201,29.0002C55.103,29.0002,55.2847,28.9501,55.4452,28.8511C55.7399,28.669,55.92,28.3471,55.92,27.9998L55.92,0.9999C55.92,0.6539,55.7399,0.332,55.4452,0.149M2.0003,26.3808L2.0003,2.6202L14.6309,8.9429C14.5823,9.061,14.5481,9.1841,14.5017,9.303C14.4313,9.489,14.3647,9.6749,14.3021,9.863C14.197,10.1768,14.103,10.494,14.0191,10.815C13.9699,11.001,13.9202,11.1861,13.8788,11.3742C13.8027,11.7219,13.7451,12.0731,13.6942,12.4251C13.6708,12.589,13.6378,12.7512,13.621,12.9159C13.564,13.4331,13.5298,13.9511,13.5298,14.4708C13.5298,14.9952,13.5651,15.517,13.6221,16.038C13.6411,16.2078,13.6741,16.3751,13.6982,16.545C13.749,16.8948,13.8061,17.243,13.8833,17.5882C13.9258,17.7831,13.9778,17.975,14.0292,18.1682C14.1131,18.4858,14.2059,18.8,14.311,19.1108C14.3759,19.304,14.4453,19.4951,14.518,19.6849C14.5638,19.8059,14.599,19.9299,14.6488,20.0492L2.0003,26.3808M16.0792,40.4601L22.4099,27.8151C22.5279,27.8648,22.651,27.8992,22.7701,27.9459C22.9719,28.0249,23.1749,28.0971,23.379,28.1671C23.6502,28.258,23.922,28.3391,24.1971,28.4138C24.4482,28.483,24.6982,28.5501,24.9521,28.604C25.1662,28.649,25.381,28.6822,25.5963,28.717C25.9021,28.7679,26.2058,28.8231,26.5161,28.8541C26.5832,28.8609,26.6509,28.8601,26.7169,28.866C27.1419,28.9029,27.568,28.9399,27.9991,28.9399C28.3419,28.9399,28.6842,28.9051,29.0253,28.88C29.16,28.8711,29.2948,28.8698,29.4279,28.8571C29.7232,28.8278,30.0128,28.7781,30.3047,28.731C30.5401,28.6932,30.775,28.6571,31.0071,28.6078C31.2492,28.556,31.488,28.4949,31.7279,28.4308C32.0097,28.3561,32.2888,28.2741,32.5661,28.182C32.773,28.1132,32.9783,28.041,33.1813,27.9629C33.2948,27.9191,33.4128,27.8869,33.5263,27.8402L39.8402,40.4601L16.0792,40.4601L16.0792,40.4601M33.5431,25.6361C31.8369,26.4891,29.92,26.94,28.0003,26.94C26.033,26.94,24.149,26.4921,22.396,25.6051C20.0222,24.423,18.0538,22.4541,16.8532,20.0611C15.987,18.3402,15.5301,16.4061,15.5301,14.4699C15.5301,13.9901,15.5581,13.5099,15.614,13.0339C15.7253,12.0811,15.9461,11.1419,16.271,10.2422C16.4332,9.793,16.6222,9.3531,16.8342,8.9268L16.8342,8.9268C16.8342,8.9268,16.8353,8.9259,16.8353,8.9259C18.9569,4.654,23.2342,1.9999,28.0003,1.9999C32.754,1.9999,37.028,4.643,39.1557,8.8992C40.0152,10.6069,40.4687,12.5342,40.4687,14.4699C40.4687,15.9382,40.2082,17.398,39.706,18.7618C39.6769,18.8429,39.635,18.9181,39.6031,18.997C39.4572,19.3681,39.305,19.7371,39.1239,20.0908C37.9311,22.4741,35.9482,24.4421,33.5431,25.6361M53.9197,26.3808L41.3361,20.081C41.3858,19.9638,41.4199,19.8411,41.4669,19.7231C41.5418,19.5299,41.6117,19.3371,41.6789,19.1401C41.7851,18.8289,41.879,18.5151,41.964,18.1971C42.016,18.003,42.0681,17.8111,42.1122,17.6141C42.1888,17.2659,42.2481,16.9148,42.3001,16.5611C42.3242,16.3908,42.3577,16.224,42.3762,16.0529C42.4349,15.528,42.4701,14.9998,42.4701,14.4699C42.4701,13.946,42.4349,13.4229,42.3779,12.9032C42.36,12.7372,42.3281,12.575,42.3052,12.4111C42.2543,12.0561,42.1972,11.7028,42.1189,11.353C42.077,11.164,42.0261,10.978,41.9769,10.7912C41.8919,10.4681,41.7991,10.1501,41.6923,9.8342C41.6291,9.6461,41.5631,9.4601,41.4921,9.2758C41.4462,9.1548,41.411,9.03,41.3612,8.9111L53.9197,2.6202L53.9197,26.3808Z"/>
</svg>