<svg version="1.2" baseProfile="tiny" id="EdgeSVG_8LkWr" x="0px" y="0px" width="47.697px" height="28.972px" viewBox="0 0 47.697 28.972" xmlns:xlink="http://www.w3.org/1999/xlink" xmlns="http://www.w3.org/2000/svg">
  <linearGradient id="SVGID_1_" gradientUnits="userSpaceOnUse" x1="0" y1="14.4858" x2="47.6973" y2="14.4858">
    <stop offset="0" style="stop-color:#000000;stop-opacity:0.5"/>
    <stop offset="1" style="stop-color:#000000;stop-opacity:0.5"/>
  </linearGradient>
  <path fill="url(#SVGID_1_)" d="M15.573,28.972c-0.873,0-1.392-0.619-1.503-1.195l-0.02-0.102v-0.111&#xD;&#xA;&#x9;&#x9;c-0.15-0.007-0.537-0.046-1.172-0.512C4.304,20.966,1.959,11.947,1.399,8.947c-0.43-0.088-0.72-0.297-0.9-0.479&#xD;&#xA;&#x9;&#x9;C0.03,7.996-0.001,7.42,0,7.254c0-0.004,0.01-4.612,0.01-5.46C0.01,0.653,0.963,0.018,1.859,0l22.36,0.012L45.826,0&#xD;&#xA;&#x9;&#x9;c0.919,0.018,1.871,0.653,1.871,1.794c0,0.85-0.01,5.473-0.01,5.473c0.001,0.153-0.03,0.729-0.498,1.202&#xD;&#xA;&#x9;&#x9;c-0.134,0.134-0.327,0.284-0.594,0.388c-0.525,2.967-2.847,12.37-11.743,18.227c-0.592,0.436-0.976,0.474-1.127,0.48v0.109&#xD;&#xA;&#x9;&#x9;l-0.02,0.101c-0.114,0.596-0.667,1.198-1.504,1.198H15.573z"/>
</svg>