<svg version="1.2" baseProfile="tiny" viewBox="0 0 47.697 28.972" xmlns:xlink="http://www.w3.org/1999/xlink" xmlns="http://www.w3.org/2000/svg">
<path style="fill:#ffffff;" d="M23.4798,7.9099C23.4798,7.9099,2.7202,7.9099,1.8402,7.9099C1.0741,7.9099,1.0799,7.2639,1.0799,7.2639C1.0799,7.2639,1.0899,2.6431,1.0899,1.7939C1.0899,1.096,1.8802,1.0801,1.8802,1.0801L23.4898,1.092L24.2191,1.092L45.8268,1.0801C45.8268,1.0801,46.6171,1.096,46.6171,1.7939C46.6171,2.644,46.6071,7.2639,46.6071,7.2639C46.6071,7.2639,46.6128,7.9099,45.8468,7.9099C44.9668,7.9099,24.2081,7.9099,24.2081,7.9099L23.4798,7.9099L23.4798,7.9099M2.32,7.8691C2.32,7.8691,3.6121,19.1511,13.5169,26.182C13.5169,26.182,13.9232,26.4801,14.114,26.4871C14.3821,26.4969,14.6869,26.4871,14.6869,26.4871C14.6869,26.4871,15.13,26.5169,15.13,26.9301C15.13,27.342,15.13,27.5721,15.13,27.5721C15.13,27.5721,15.192,27.8931,15.5731,27.8931C15.9551,27.8931,23.5342,27.8931,23.5342,27.8931L24.2501,27.8931C24.2501,27.8931,31.8191,27.8931,32.2012,27.8931C32.5828,27.8931,32.6438,27.5721,32.6438,27.5721C32.6438,27.5721,32.6438,27.3429,32.6438,26.9301C32.6438,26.5169,33.0869,26.4871,33.0869,26.4871C33.0869,26.4871,33.3931,26.4969,33.6588,26.4871C33.8501,26.4801,34.2569,26.182,34.2569,26.182C44.3768,19.5199,45.6532,7.8691,45.6532,7.8691Z"/>
</svg>