<svg version="1.2" baseProfile="tiny" viewBox="0 0 18.000 15.480" xmlns:xlink="http://www.w3.org/1999/xlink" xmlns="http://www.w3.org/2000/svg">
<path style="fill:#ffffff;" d="M2.274,13.335l0.028-0.175H1.575l-0.008-0.635l-0.492-0.017v-0.368L0,12.558l0.071,0.144   c0.037,0.08,0.948,1.877,2.583,1.877l0.343-0.001L2.761,14.33C2.604,14.163,2.216,13.666,2.274,13.335z M0.416,12.715l0.365-0.141   v0.225l0.495,0.018l0.008,0.642h0.692c0.02,0.289,0.189,0.581,0.339,0.791C1.307,14.066,0.636,13.085,0.416,12.715z M8.306,0h-0.79   l0.79,0.717v3.772C7.42,4.718,6.603,5.166,5.93,5.789L5.479,6.205l2.273,0.348L6.354,8.177L8.202,8.2   C7.631,8.413,6.91,8.654,6.249,8.853L5.596,9.054l0.59,0.34c0.018,0.012,1.617,0.943,2.872,2.178l-1.433,0.25L7.38,12.114   l-0.294-0.318L6.32,12.013l-2.086-0.865l0.223,0.625c0.792,2.221,2.908,3.707,5.263,3.707c1.192,0,2.297-0.374,3.201-1.011   c0.332,0.159,1.042,0.388,2.387,0.388c1.742,0,2.194-0.36,2.259-0.659l0.01-0.029V7.165l-0.027-0.184L18,5.982h-4.293   c-0.716-0.729-1.633-1.267-2.671-1.519V0.641L11.741,0h-0.705h-0.185H8.404H8.306z M15.308,14.264c-0.79,0-1.331-0.086-1.684-0.177   c0.33-0.102,0.864-0.227,1.495-0.227c0,0,0.001,0,0.002,0c0.785,0,1.31,0.133,1.631,0.26C16.504,14.193,16.068,14.264,15.308,14.264   z M17.085,6.575l-0.143,0.32l0.04,0.289v6.711c-0.349-0.158-0.937-0.332-1.861-0.332c-0.001,0-0.002,0-0.002,0   c-0.535,0-1.005,0.086-1.352,0.175c0.957-1.002,1.54-2.356,1.54-3.847c0-1.23-0.404-2.38-1.1-3.316H17.085z M13.75,6.949   l-0.36,0.193l-0.018-0.04h-0.359l-0.29-0.527h0.728C13.556,6.691,13.657,6.821,13.75,6.949z M8.897,4.961V0.593h1.545v4.352   l0.241,0.046c0.807,0.158,1.533,0.507,2.145,0.991h-1.116l0.958,1.709h0.301l0.112,0.284l0.663-0.354l0.301,0.964l-0.331,0.298   l0.088,0.27l-0.199,0.141l-0.243,0.431l0.086,0.168H12.99l0.212,0.511l-0.593,0.2v3.025l0.594-0.545v-2.055l0.79-0.264l-0.118-0.279   h0.533l-0.377-0.744l0.02-0.035l0.454-0.323l-0.105-0.32l0.21-0.19c0.069,0.332,0.105,0.677,0.105,1.02c0,2.756-2.238,5-4.995,5   c-1.864,0-3.56-1.047-4.417-2.662l0.98,0.411l0.615-0.175L7.394,13l0.542-0.633l2.294-0.402L9.874,11.57   C8.95,10.541,7.737,9.68,7.04,9.231C8.031,8.914,9.429,8.424,9.685,8.11l0.389-0.475L7.63,7.601l1.266-1.468L6.836,5.815   C7.383,5.427,8.005,5.151,8.665,5.01L8.897,4.961z M4.703,13.456l-0.301-0.904l-0.91,0.759l-0.162,0.56l0.385,0.182l-0.112,0.21   l0.65,0.349l0.314-0.279l0.748,0.192V13.68l-0.769-0.123L4.703,13.456z M5.02,13.93v0.209l-0.531-0.137l-0.277,0.246l-0.206-0.109   l0.117-0.223l-0.438-0.21l0.068-0.23l0.504-0.423l0.093,0.278l-0.621,0.391L5.02,13.93z"/>
</svg>