<svg version="1.2" baseProfile="tiny" viewBox="0 0 13.288 18.000" xmlns:xlink="http://www.w3.org/1999/xlink" xmlns="http://www.w3.org/2000/svg">
<path style="fill:#ffffff;" d="M13.288,17.672c-0.469-3.106-0.375-6.089-0.563-8.306c-0.188-2.217-0.281-3.403-0.344-3.685   C12.32,5.4,12.148,5.166,11.757,5.166s-0.484,0.157-0.499,0.469c-0.017,0.312,0.015,1.624,0,2.045   c-0.017,0.421-0.031,0.859-0.095,0.875c-0.062,0.015-0.234-1.905-0.406-2.92c-0.171-1.015-0.156-1.624-0.655-1.608   c-0.5,0.016-0.546,0.313-0.546,1.093c0,0.78,0.03,3.248-0.11,3.278C9.305,8.429,9.165,7.305,9.072,5.869   C8.978,4.433,8.994,3.745,8.463,3.792C8.265,3.81,8.103,3.877,7.978,4.005c-0.401-1.612-0.925-3.19-1.167-3.384   C6.483,0.359,5.956,0.341,5.59,0.583C5.297,0.779,5.336,1.329,5.612,2.998c0.026,0.16,0.056,0.34,0.078,0.487   C5.591,3.192,5.455,2.679,5.35,2.277C5.037,1.09,4.868,0.508,4.676,0.3C4.498,0.106,4.258,0,4,0C3.614,0,3.261,0.241,3.08,0.628   C3.006,0.785,2.811,1.201,3.776,4.336c-0.023,0.006-0.05,0.012-0.079,0.013C3.574,4.116,3.331,3.355,3.166,2.836   C2.924,2.079,2.769,1.604,2.651,1.402C2.283,0.771,1.728,0.738,1.218,1.367C0.883,1.781,1.211,2.663,1.978,4.251   c0.028,0.057,0.056,0.115,0.083,0.172C2.018,4.36,1.975,4.296,1.935,4.237C1.273,3.255,0.923,2.792,0.576,2.792   c-0.076,0-0.149,0.022-0.211,0.065c-0.542,0.37-0.396,1.43-0.105,2.225c0.325,0.891,1.724,5.124,1.979,6.489   c0.247,1.324,0,3.618-0.003,3.642l-0.04,0.359l0.358-0.05c0.019-0.004,1.493-0.21,2.987-0.325C5.233,17.094,4.95,18,4.95,18   S10.211,17.688,13.288,17.672z M5.986,11.198c-0.845-0.413-2.882-3.764-3.132-4.627c-0.208-0.72,0.1-0.888,0.425-0.992   c0.245,0,0.941,0.384,1.943,1.241c0.236,0.202,0.606,0.616,0.991,1.074c-0.014,0.82-0.061,1.913-0.187,3.326   C6.012,11.213,6,11.204,5.986,11.198z M2.828,14.919c0.062-0.719,0.167-2.355-0.037-3.45C2.531,10.075,1.116,5.79,0.787,4.89   C0.523,4.167,0.532,3.63,0.619,3.414c0.225,0.211,0.637,0.822,0.85,1.137C1.885,5.169,1.97,5.286,2.146,5.312   c0.36,0.047,0.649-0.184,0.649-0.536c0-0.115-0.051-0.23-0.312-0.77C2.246,3.512,1.52,2.008,1.655,1.72   c0.147-0.181,0.257-0.246,0.307-0.246c0.037,0,0.112,0.055,0.203,0.21C2.26,1.849,2.457,2.464,2.63,3.007   c0.496,1.555,0.605,1.8,0.839,1.873c0.067,0.021,0.139,0.031,0.216,0.031c0.201,0,0.464-0.08,0.598-0.257   C4.362,4.549,4.388,4.42,4.354,4.3L4.32,4.191C3.449,1.365,3.572,0.908,3.588,0.867C3.73,0.563,4.075,0.478,4.26,0.679   c0.127,0.155,0.379,1.109,0.545,1.741C5.122,3.618,5.23,3.962,5.39,4.1c0.169,0.146,0.315,0.213,0.458,0.213   c0.066,0,0.399-0.024,0.437-0.501c0.009-0.127-0.032-0.384-0.118-0.906C6.079,2.38,5.903,1.315,5.954,1.021   c0.153-0.075,0.359-0.064,0.488,0.025C6.636,1.349,7.33,3.48,7.703,5.314C7.752,6.327,7.866,8.29,7.76,8.304   C7.651,8.32,7.354,7.415,7.323,6.306c-0.032-1.109-0.016-1.577-0.672-1.53c-0.655,0.047-0.453,0.968-0.437,2.03   c0.001,0.073,0.002,0.151,0.002,0.233c-0.243-0.273-0.464-0.504-0.63-0.646C4.854,5.765,3.857,5.018,3.279,5.018   c-0.071,0-0.138,0.01-0.198,0.03c-0.747,0.249-1.012,0.83-0.766,1.68c0.264,0.912,2.37,4.46,3.426,4.976   c0.082,0.04,0.157,0.081,0.229,0.123c-0.042,0.42-0.089,0.862-0.145,1.334c-0.064,0.536-0.129,1.022-0.196,1.468   C4.509,14.71,3.381,14.847,2.828,14.919z"/>
</svg>