<svg version="1.2" baseProfile="tiny" viewBox="0 0 70.296 293.021" xmlns:xlink="http://www.w3.org/1999/xlink" xmlns="http://www.w3.org/2000/svg">
<path style="fill:#ffffff;" d="M53.4699,2.1684C53.4699,2.813,52.9448,3.3375,52.2988,3.3375C52.2988,3.3375,52.1238,3.3375,51.8229,3.3375L51.8911,265.7788L18.4703,265.7788L18.4703,8.9342L18.4703,8.9342C17.9937,5.6289,14.0107,7.3197,13.2578,4.0818C13.2501,4.0906,13.2388,4.1052,13.2388,4.1052C12.3039,4.492,11.5728,4.2722,11.4119,3.9206C11.2509,3.5719,11.2431,2.895,11.8793,2.4409C12.5408,1.9691,13.901,0.9992,15.927,0.9992C18.4147,0.9992,52.2988,0.9992,52.2988,0.9992C52.9448,0.9992,53.4699,1.5208,53.4699,2.1684Z"/>
</svg>