<svg version="1.2" baseProfile="tiny" viewBox="0 0 16.203 18.000" xmlns:xlink="http://www.w3.org/1999/xlink" xmlns="http://www.w3.org/2000/svg">
<path style="fill:#ffffff;" d="M9.211,3.042H8.62V2.531h0.591V1.939h0.513v0.592h0.591v0.511H9.724v0.591H9.211V3.042z M7.245,1.939   H6.733v0.592H6.141v0.511h0.592v0.591h0.512V3.042h0.592V2.531H7.245V1.939z M9.739,4.45H9.228v0.592H8.635v0.512h0.592v0.592h0.512   V5.553h0.592V5.042H9.739V4.45z M7.245,4.45H6.732v0.592H6.141v0.512h0.591v0.592h0.512V5.553h0.591V5.042H7.245V4.45z M4.75,1.939   H4.238v0.592H3.647v0.511h0.591v0.591H4.75V3.042h0.592V2.531H4.75V1.939z M12.218,4.45h-0.512v0.592h-0.592v0.512h0.592v0.592   h0.512V5.553h0.591V5.042h-0.591V4.45z M14.712,6.88H14.2v0.592h-0.592v0.512H14.2v0.591h0.512V7.984h0.592V7.472h-0.592V6.88z    M11.697,11.166h0.513v-0.592h0.591v-0.512H12.21V9.471h-0.513v0.592h-0.591v0.512h0.591V11.166z M12.218,1.939h-0.512v0.592h-0.592   v0.511h0.592v0.591h0.512V3.042h0.592V2.531h-0.592V1.939z M16.114,8.46c-0.167,0.687-0.619,1.197-1.018,1.648   c-0.324,0.365-0.63,0.711-0.744,1.096l-0.079,0.269c-0.21,0.705-0.273,0.919-0.329,1.927c-0.052,0.951-0.284,2.213-1.68,2.213   c-0.011,0-0.021,0-0.033,0c-0.602-0.01-1.088-0.124-1.479-0.268L5.71,18l-0.024-0.319c-0.04-0.137-0.083-0.259-0.126-0.373   c-0.113-0.231-0.321-0.55-0.703-0.918c-0.111-0.107-0.258-0.174-0.438-0.208c-0.371-0.044-1.508,0.23-1.625,0.257   c-0.878,0.197-1.287,0.186-1.539-0.038c-0.485-0.302-0.395-0.787-0.227-1.203c0.065-0.206,0.295-0.732,0.318-0.791   c0-0.001,0.001-0.005,0.001-0.007c-0.054-0.29-0.292-0.398-0.303-0.402l-0.201-0.089l0.27-0.46c-0.058-0.091-0.14-0.22-0.212-0.329   C0.79,12.965,0.693,12.809,0.675,12.7c-0.027-0.162,0.076-0.298,0.167-0.415c0.022-0.029,0.154-0.28,0.151-0.356   c-0.026-0.088-0.278-0.217-0.431-0.294c-0.274-0.139-0.532-0.271-0.559-0.512c-0.009-0.083,0.02-0.165,0.063-0.249   c0.071-0.245,1.33-1.736,1.403-1.857c0.259-0.434,0.431-0.729,0.388-1.182c-0.019-0.068-0.04-0.138-0.063-0.213   C1.724,7.398,1.586,6.64,1.584,6.624C1.55,6.177,1.629,5.774,1.821,5.335c0.242-0.639,0.612-1.188,0.832-1.481   C2.605,3.815,2.423,3.676,2.423,3.676l0.009-0.105C2.44,3.469,2.655,1.086,4.402,0.51c1.459-0.482,1.98-0.484,2.702-0.487   c0.108,0,0.222,0,0.345-0.003l0.323-0.006c0.985-0.023,2.475-0.055,3.255,0.26c0.574,0.232,2.542,1.149,3.771,3.214   C15.938,5.404,16.417,7.216,16.114,8.46z M7.759,7.984H7.253C7.314,8.056,7.367,8.12,7.41,8.171   C7.502,8.108,7.621,8.041,7.759,7.984z M15.304,5.383v0.17h-0.591v0.592H14.2V5.553h-0.591V5.042H14.2V4.45h0.513v0.592h0.455   c-0.193-0.443-0.427-0.898-0.7-1.357c-1.167-1.961-3.039-2.834-3.585-3.054c-0.154-0.063-0.349-0.107-0.561-0.143v0.062H9.73V1.14   H9.219V0.548H8.627V0.385C8.35,0.386,8.084,0.391,7.844,0.396v0.152H7.252V1.14H6.74V0.548H6.148V0.458   C5.796,0.506,5.375,0.603,4.758,0.798V1.14H4.246V0.994C3.158,1.565,2.881,3.09,2.827,3.5c0.458,0.352,0.939,0.778,1.412,1.229V4.45   H4.75v0.592h0.591v0.512H5.065c0.641,0.661,1.227,1.314,1.667,1.821V6.88h0.512v0.592h0.591v0.481   c0.193-0.069,0.419-0.11,0.664-0.08C8.551,7.88,8.591,7.895,8.635,7.907V7.472h0.592V6.88h0.512v0.592h0.591v0.512H9.739v0.591   H9.228V7.984H8.832C9.246,8.219,9.249,8.769,9.245,9.31L9.244,9.471H9.73v0.592h0.593v0.512H9.73v0.592H9.22v-0.592H9.105   c-0.045,0.189-0.091,0.346-0.122,0.444c0.237,0.262,0.361,0.594,0.432,0.946h0.324v0.593h0.591v0.512H9.739v0.592H9.587   c0.026,0.147,0.06,0.284,0.115,0.39c0.141,0.27,0.338,0.471,0.523,0.618c0.232,0.147,0.528,0.286,0.881,0.39v-0.007h0.591V14.46   h0.513v0.592h0.591v0.072c0.472-0.214,0.707-0.77,0.761-1.745c0.058-1.054,0.131-1.296,0.345-2.016l0.079-0.267   c0.047-0.16,0.121-0.306,0.207-0.449v-0.073h-0.592v-0.512h0.592V9.471h0.512v0.504c0.035-0.041,0.069-0.081,0.105-0.121   c0.387-0.438,0.787-0.89,0.932-1.483C15.929,7.603,15.761,6.545,15.304,5.383z M9.22,10.063V9.919   c-0.006,0.049-0.012,0.096-0.019,0.144H9.22z M12.218,6.88h-0.512v0.592h-0.592v0.512h0.592v0.591h0.512V7.984h0.591V7.472h-0.591   V6.88z M12.218,11.965h-0.512v0.593h-0.592v0.512h0.592v0.592h0.512v-0.592h0.591v-0.512h-0.591V11.965z"/>
</svg>