<svg version="1.2" baseProfile="tiny" viewBox="0 0 17.801 18.000" xmlns:xlink="http://www.w3.org/1999/xlink" xmlns="http://www.w3.org/2000/svg">
<path style="fill:#ffffff;" d="M16.704,1.66v4.75H15.86V5.607h-0.558V4.94h-0.504v0.531h-0.476v0.708h-2.382v-0.68h-0.409V4.954   c0,0-0.203,0-0.897,0s-1.388,0.49-1.388,1.361s0.055,1.13,0.055,1.13H7.518c0-3.171,1.252-4.369,2.763-4.369   c0.503,0,1.251,0,1.251,0V2.545h0.75V2.096h0.57V1.157h-1.592V0.381h1.456c0,0,0.149-0.381,0.477-0.381   c0.326,0,0.408,0.408,0.408,0.408h1.442v0.749H13.52v0.953h0.559v0.436h0.721v0.503h0.504V2.436h0.585V1.674L16.704,1.66z    M10.196,10.778c0,0,0.03-0.307,0.275-0.489c0.245-0.185,0.409-0.419,0.245-0.582C10.553,9.543,10.012,10.003,10.196,10.778z    M11.166,9.674c0,0,0.031-0.253,0.224-0.437c0.194-0.184,0.357-0.348,0.215-0.511S11.043,8.854,11.166,9.674z M11.144,10.717   c0,0,0.114-0.274,0.359-0.438c0.244-0.163,0.52-0.412,0.306-0.604C11.594,9.482,11.101,9.941,11.144,10.717z M6.868,9.63   c0,0,0.041-1.24-0.408-1.036C6.011,8.798,6.777,9.483,6.868,9.63z M6.674,10.564c0,0-0.092-1.43-0.653-1.113   C5.46,9.768,6.531,10.36,6.674,10.564z M6.267,10.83c0,0-0.307-0.644-0.491-0.439S6.267,10.83,6.267,10.83z M7.127,15.063   c0.225,0.075,0.483-0.042,0.604-0.108c-0.261-0.149-0.535-0.297-0.774-0.414C6.816,14.669,6.826,14.966,7.127,15.063z M8.071,15.71   c0.537,0.157,1.078,0.299,1.62,0.438c0.479,0.123,0.984,0.198,1.29,0.63c0.814-0.021,1.676-0.215,2.382-0.629   c0.485-0.284,0.843-0.699,1.188-1.136c0.922-1.166,1.834-2.313,3.25-2.899c0,0-0.705-1.705-1.258-2.561   c-0.958,0.785-2.324,1.368-3.575,1.206c-0.813-0.105-1.455,0.251-2.168,0.61c-0.692,0.35-1.342,0.756-1.955,1.23   c0.516,0.401,0.993,0.791,1.326,1.071c0.512-0.312,1.69-0.596,1.877,0.257c0.168,0.768-0.586,1.085-1.178,1.263   c-0.104,0.457-0.511,0.937-1.021,0.931c-0.389-0.004-0.778-0.32-1.066-0.542c-0.003,0-0.006-0.004-0.01-0.007   C8.536,15.573,8.282,15.59,8.071,15.71 M10.687,17.265c-0.167-0.449-0.603-0.511-1.012-0.615c-0.551-0.143-1.103-0.284-1.65-0.44   c-0.552-0.157-1.108-0.322-1.637-0.548c-0.328-0.141-0.678-0.317-0.71-0.716C5.652,14.608,5.85,14.27,6.112,14.07   c0.311-0.235,0.607-0.182,0.941-0.026c0.683,0.318,1.313,0.73,1.965,1.104c-0.12-0.299,0.146-0.631,0.36-0.813   c0.238-0.201,0.415-0.227,0.685-0.099c-0.241-0.341-0.726-0.62-1.05-0.88c-0.449-0.358-0.904-0.711-1.366-1.055   c-0.641-0.477-1.434-1.217-2.279-1.245c-0.43-0.015-0.843,0.024-1.271-0.048c-0.497-0.084-0.972-0.243-1.42-0.475   c-0.463-0.239-0.911-0.541-1.289-0.903C0.643,10.596,0,11.801,0,11.801c1.042,0.527,1.915,1.415,2.562,2.376   c0.464,0.689,0.645,1.623,1.386,2.086c0.388,0.242,0.84,0.376,1.274,0.512c0.587,0.182,1.177,0.354,1.772,0.511   c0.775,0.201,1.556,0.385,2.34,0.545c0.077-0.535,1.153-0.143,1.447-0.059C10.782,17.771,10.788,17.517,10.687,17.265   C10.654,17.177,10.788,17.517,10.687,17.265z M9.658,14.346c-1.31,0.635,0.44,1.942,0.731,0.754l-0.01,0.004   c0.003,0,0.007-0.004,0.01-0.004C10.493,14.729,10.042,14.169,9.658,14.346C9.442,14.45,9.701,14.325,9.658,14.346z M9.576,17.85   C9.941,17.956,10.314,18,10.693,18c0.046,0,0.091-0.003,0.134-0.007c-0.188-0.095-0.387-0.173-0.591-0.228   c-0.064-0.018-0.796-0.146-0.725,0.064C9.511,17.83,9.538,17.84,9.576,17.85C9.733,17.896,9.538,17.84,9.576,17.85z M9.737,10.696   c-0.027-0.407-0.055-0.721-0.15-0.966C9.492,9.485,9.492,8.928,9.464,8.438c-0.027-0.49-0.275-0.52-0.275-0.52H7.488   c0,0-0.17,0.676-0.17,1.167s-0.112,1.501-0.163,1.838c-0.016,0.103-0.027,0.216-0.036,0.326l0.878,0.669   c0.005-0.032,0.011-0.064,0.014-0.098c0.021-0.184,0.164-0.326,0.245-0.081c0.034,0.101,0.048,0.261,0.053,0.417l0.101,0.076   l0.459-0.289c0.01-0.111,0.023-0.228,0.041-0.327c0.05-0.306,0.071-0.408,0.041-0.704c-0.031-0.296,0.051-0.756,0.112-1.092   c0.062-0.337,0.214-0.133,0.194,0.01c-0.021,0.144-0.038,0.527-0.038,1.181c0,0.278-0.002,0.522-0.005,0.717l0.507-0.319   C9.737,11.173,9.75,10.896,9.737,10.696z"/>
</svg>