<svg version="1.2" baseProfile="tiny" viewBox="0 0 13.732 18.000" xmlns:xlink="http://www.w3.org/1999/xlink" xmlns="http://www.w3.org/2000/svg">
<path style="fill:#ffffff;" d="M13.562,6.86c-0.204-0.071-0.664-0.143-0.664-0.143l-0.307-1.03l-0.333-0.285   c0,0,0.128-1.102-0.844-2.452C10.443,1.6,8.731,1.174,8.577,1.138C8.424,1.103,8.398,1.051,8.297,0.91   C8.194,0.768,7.938,0.696,7.836,0.696c-0.102,0-0.179-0.271-0.255-0.414C7.508,0.148,7.112,0,6.866,0   C6.62,0,6.224,0.148,6.152,0.283C6.075,0.425,5.998,0.696,5.896,0.696S5.538,0.768,5.436,0.91S5.308,1.103,5.155,1.138   S3.289,1.6,2.318,2.951c-0.971,1.35-0.844,2.452-0.844,2.452L1.142,5.687l-0.307,1.03c0,0-0.46,0.071-0.665,0.143   c-0.205,0.071-0.251,0.333,0,0.354C0.524,7.245,0.94,7.378,1.357,7.54c0.014,0.377,0.044,0.792,0.094,1.249   C1.323,8.797,1.194,8.845,1.086,8.961C1,9.054,0.925,9.213,1.037,10.042c0.076,0.566,0.463,2.743,0.965,3.054   c0.294,0.181,0.577,0.217,0.772,0.216c0.041,0.821,0.138,2.26,0.333,2.553c0.211,0.317,1.88,1.939,2.313,2.039   C5.582,17.941,6.401,18,7.132,18c0.521,0,0.997-0.029,1.159-0.118c0.246-0.135,1.961-1.363,2.185-1.747   c0.168-0.288,0.42-2.083,0.532-2.938c0.205,0.036,0.486,0.046,0.717-0.093c0.397-0.239,0.931-2.473,1.037-3.119   c0.101-0.607,0.062-0.799-0.034-0.913c-0.166-0.196-0.388-0.225-0.584-0.188l0,0V8.877c0.044-0.401,0.091-0.843,0.112-1.29   c0.456-0.183,0.918-0.339,1.306-0.373C13.813,7.193,13.766,6.931,13.562,6.86z M12.039,9.412c0.002-0.001,0.217-0.135,0.319-0.061   c0.078,0.441-0.613,3.081-0.871,3.358c-0.171,0.103-0.492,0.02-0.591-0.018l-0.273-0.106l-0.037,0.292   c-0.171,1.338-0.407,2.836-0.508,3.025c-0.141,0.242-1.708,1.412-2.003,1.573c-0.263,0.112-2.221,0.057-2.548-0.019   c-0.264-0.086-1.825-1.53-2.035-1.845c-0.106-0.188-0.223-1.479-0.269-2.568l-0.016-0.293l-0.282,0.083   c-0.013,0.004-0.323,0.092-0.678-0.128c-0.33-0.252-0.892-2.968-0.801-3.449C1.529,9.213,1.689,9.31,1.689,9.31l0.357,0.235   L1.949,9.096C1.888,8.595,1.847,8.141,1.826,7.731C2.442,7.994,3.008,8.26,3.314,8.281C3.894,8.319,5.75,8.565,6.871,8.565   s3.009-0.25,3.546-0.285c0.287-0.019,0.799-0.252,1.367-0.496c-0.024,0.36-0.063,0.715-0.098,1.043l-0.033,0.305L11.529,9.75   L12.039,9.412z"/>
</svg>