<svg version="1.2" baseProfile="tiny" viewBox="0 0 30.000 30.000" xmlns:xlink="http://www.w3.org/1999/xlink" xmlns="http://www.w3.org/2000/svg">
<path style="fill:#ffffff;" d="M15,0C6.715,0,0,6.715,0,15c0,8.285,6.715,15,15,15c8.283,0,15-6.716,15-15C30,6.715,23.283,0,15,0z     M15,29.293C7.105,29.293,0.705,22.894,0.705,15c0-7.895,6.4-14.294,14.295-14.294c7.894,0,14.294,6.4,14.294,14.294    C29.294,22.894,22.894,29.293,15,29.293z M24.272,11.765c-0.281-0.098-0.917-0.196-0.917-0.196l-0.423-1.422l-0.459-0.392    c0,0,0.176-1.521-1.164-3.384c-1.34-1.864-3.703-2.452-3.915-2.501s-0.247-0.12-0.388-0.316c-0.142-0.195-0.494-0.294-0.635-0.294    c-0.142,0-0.247-0.374-0.354-0.57c-0.099-0.186-0.646-0.391-0.985-0.391s-0.886,0.205-0.986,0.391    c-0.106,0.196-0.212,0.57-0.353,0.57c-0.141,0-0.494,0.099-0.635,0.294c-0.14,0.196-0.176,0.267-0.388,0.316    C12.46,3.918,10.097,4.506,8.756,6.37c-1.34,1.863-1.164,3.384-1.164,3.384l-0.459,0.392L6.71,11.568c0,0-0.635,0.098-0.917,0.196    c-0.282,0.098-0.346,0.46,0,0.49c0.488,0.042,1.062,0.226,1.637,0.449c0.019,0.521,0.061,1.092,0.129,1.723    c-0.176,0.011-0.354,0.078-0.503,0.238c-0.119,0.127-0.222,0.348-0.068,1.492c0.105,0.781,0.639,3.784,1.333,4.214    c0.405,0.25,0.796,0.3,1.065,0.299c0.056,1.133,0.191,3.118,0.46,3.522c0.292,0.438,2.595,2.677,3.191,2.814    c0.224,0.051,1.354,0.132,2.363,0.132c0.718,0,1.375-0.041,1.599-0.163c0.339-0.186,2.705-1.881,3.015-2.411    c0.231-0.396,0.579-2.875,0.734-4.056c0.282,0.051,0.67,0.064,0.989-0.128c0.549-0.329,1.283-3.413,1.431-4.304    c0.139-0.838,0.086-1.104-0.046-1.26c-0.229-0.271-0.536-0.311-0.808-0.259v-0.001l0.001-0.008c0.061-0.554,0.125-1.165,0.154-1.78    c0.63-0.253,1.268-0.469,1.802-0.514C24.619,12.225,24.556,11.863,24.272,11.765z M22.612,15.203    c0.109,0.608-0.846,4.251-1.201,4.634c-0.237,0.143-0.681,0.027-0.815-0.024l-0.378-0.146l-0.052,0.402    c-0.235,1.846-0.562,3.913-0.699,4.175c-0.195,0.334-2.358,1.948-2.766,2.171c-0.362,0.155-3.065,0.078-3.516-0.026    c-0.364-0.117-2.519-2.111-2.809-2.546c-0.146-0.258-0.308-2.04-0.372-3.544l-0.021-0.404l-0.39,0.114    c-0.018,0.006-0.445,0.128-0.936-0.176c-0.455-0.347-1.231-4.096-1.106-4.759c0.116-0.06,0.337,0.072,0.338,0.072l0.406,0.268    l0.014,0.082c-0.004,0.575,0.009,2.151,0.27,3.045l0.054,0.187l0.189,0.037c0.277,0.054,2.344,0.452,3.677,0.452    c0.291,0,0.547-0.02,0.742-0.065c0.865-0.201,1.16-0.844,1.375-1.313c0.174-0.38,0.246-0.49,0.382-0.49h0    c0.136,0,0.207,0.11,0.381,0.489c0.216,0.47,0.511,1.112,1.375,1.313c1.085,0.254,4.081-0.32,4.419-0.387l0.19-0.037l0.053-0.187    c0.246-0.847,0.271-2.292,0.27-2.934l0.483-0.321C22.175,15.285,22.471,15.101,22.612,15.203z M8.945,15.629    c0.891-0.094,2.814-0.242,6.055-0.242c0.001,0,0.002,0,0.004,0c3.236,0,5.159,0.148,6.049,0.242    c0.001,0.579-0.022,1.779-0.196,2.55c-1.006,0.187-3.2,0.531-3.956,0.354c-0.563-0.131-0.747-0.534-0.943-0.96    c-0.176-0.383-0.395-0.86-0.958-0.86H15c-0.564,0-0.783,0.478-0.959,0.86c-0.195,0.426-0.38,0.829-0.942,0.96    c-0.753,0.177-2.95-0.167-3.956-0.354C8.968,17.408,8.945,16.208,8.945,15.629z M21.685,14.48l-0.039,0.367    c-0.529-0.074-2.523-0.306-6.641-0.306c-0.001,0-0.003,0-0.004,0c-4.462,0-6.435,0.272-6.75,0.321l-0.002-0.011    c-0.084-0.691-0.141-1.318-0.17-1.883c0.85,0.362,1.632,0.729,2.055,0.757c0.799,0.053,3.361,0.392,4.908,0.392    s4.151-0.345,4.894-0.393c0.396-0.025,1.103-0.348,1.887-0.685C21.787,13.538,21.734,14.028,21.685,14.48z M12.954,17.809    c-0.051,0.012-0.176,0.032-0.438,0.032c-0.73,0-1.896-0.156-2.826-0.315c-0.063-0.458-0.09-0.995-0.102-1.425    c1.017-0.085,2.773-0.184,5.417-0.184c2.638,0,4.391,0.099,5.407,0.184c-0.011,0.43-0.038,0.967-0.101,1.425    c-0.932,0.159-2.097,0.315-2.824,0.315c-0.263,0-0.389-0.02-0.44-0.032c-0.233-0.055-0.311-0.171-0.511-0.607    c-0.197-0.43-0.564-1.229-1.534-1.229H15c-0.972,0-1.339,0.801-1.537,1.23C13.264,17.638,13.188,17.754,12.954,17.809z"/>
</svg>