<svg version="1.2" baseProfile="tiny" viewBox="0 0 13.732 18.000" xmlns:xlink="http://www.w3.org/1999/xlink" xmlns="http://www.w3.org/2000/svg">
<path style="fill:#ffffff;" d="M13.562,6.86c-0.204-0.071-0.664-0.143-0.664-0.143l-0.307-1.03l-0.333-0.285   c0,0,0.128-1.102-0.844-2.452C10.443,1.6,8.731,1.174,8.577,1.138C8.424,1.103,8.398,1.051,8.297,0.91   C8.194,0.768,7.938,0.696,7.836,0.696c-0.102,0-0.179-0.271-0.255-0.414C7.508,0.148,7.112,0,6.866,0   C6.62,0,6.224,0.148,6.152,0.283C6.075,0.425,5.999,0.696,5.896,0.696c-0.102,0-0.357,0.072-0.46,0.213   C5.334,1.051,5.308,1.103,5.155,1.138S3.289,1.6,2.318,2.951c-0.971,1.35-0.844,2.452-0.844,2.452L1.142,5.687l-0.307,1.03   c0,0-0.46,0.071-0.665,0.143c-0.205,0.071-0.251,0.333,0,0.354c0.354,0.03,0.771,0.166,1.188,0.328   C1.373,7.92,1.401,8.33,1.451,8.789C1.323,8.797,1.194,8.845,1.086,8.961C1,9.054,0.925,9.213,1.037,10.042   c0.076,0.566,0.463,2.743,0.965,3.054c0.294,0.181,0.577,0.217,0.772,0.216c0.041,0.821,0.138,2.26,0.333,2.553   c0.211,0.317,1.88,1.939,2.313,2.039C5.582,17.941,6.401,18,7.132,18c0.521,0,0.997-0.029,1.159-0.118   c0.246-0.135,1.961-1.363,2.185-1.747c0.168-0.288,0.42-2.083,0.532-2.938c0.205,0.036,0.486,0.046,0.717-0.093   c0.397-0.239,0.931-2.473,1.037-3.119c0.101-0.607,0.062-0.799-0.034-0.913c-0.166-0.197-0.388-0.225-0.584-0.188v0V8.877   c0.044-0.401,0.091-0.843,0.112-1.29c0.456-0.183,0.918-0.339,1.306-0.373C13.813,7.193,13.766,6.931,13.562,6.86z M12.358,9.352   c0.078,0.441-0.613,3.08-0.871,3.357c-0.171,0.103-0.492,0.02-0.591-0.018l-0.273-0.106l-0.037,0.292   c-0.171,1.338-0.407,2.836-0.508,3.025c-0.141,0.242-1.708,1.412-2.003,1.573c-0.263,0.112-2.221,0.057-2.548-0.019   c-0.264-0.086-1.825-1.53-2.035-1.845c-0.106-0.188-0.223-1.479-0.269-2.568l-0.016-0.293l-0.282,0.083   c-0.013,0.004-0.323,0.092-0.678-0.128c-0.33-0.252-0.892-2.968-0.801-3.449C1.529,9.214,1.689,9.31,1.689,9.31l0.295,0.194   l0.01,0.06c-0.003,0.416,0.007,1.559,0.195,2.207l0.04,0.135l0.137,0.026c0.201,0.04,1.698,0.328,2.664,0.328   c0.211,0,0.397-0.015,0.538-0.048c0.627-0.146,0.84-0.611,0.996-0.951c0.127-0.275,0.178-0.354,0.277-0.354h0   c0.098,0,0.15,0.079,0.276,0.354c0.156,0.34,0.37,0.806,0.997,0.951c0.786,0.185,2.957-0.232,3.202-0.28l0.138-0.026l0.039-0.135   c0.178-0.613,0.196-1.662,0.194-2.126l0.351-0.233C12.041,9.411,12.256,9.277,12.358,9.352z M2.455,9.66   C3.1,9.592,4.495,9.485,6.842,9.485c0.001,0,0.002,0,0.003,0c2.345,0,3.739,0.107,4.383,0.175c0.001,0.419-0.016,1.289-0.142,1.848   c-0.729,0.136-2.319,0.385-2.867,0.257c-0.407-0.096-0.541-0.387-0.683-0.696c-0.127-0.277-0.286-0.623-0.694-0.623h0   c-0.409,0-0.567,0.346-0.695,0.624c-0.142,0.309-0.275,0.6-0.683,0.695c-0.546,0.127-2.138-0.121-2.867-0.257   C2.471,10.949,2.455,10.08,2.455,9.66z M11.687,8.827l-0.029,0.266C11.274,9.04,9.829,8.872,6.846,8.872c-0.001,0-0.002,0-0.003,0   c-3.233,0-4.663,0.197-4.892,0.232L1.949,9.096C1.888,8.595,1.848,8.143,1.827,7.732C2.442,7.995,3.008,8.26,3.314,8.281   C3.894,8.319,5.75,8.565,6.871,8.565s3.009-0.25,3.546-0.285c0.286-0.018,0.8-0.252,1.367-0.496   C11.76,8.144,11.722,8.5,11.687,8.827z M5.042,11.263c-0.529,0-1.374-0.113-2.048-0.229c-0.045-0.332-0.065-0.721-0.074-1.033   C3.658,9.94,4.93,9.868,6.846,9.868c1.911,0,3.182,0.072,3.917,0.134c-0.007,0.312-0.026,0.701-0.072,1.033   c-0.675,0.115-1.519,0.229-2.046,0.229c-0.19,0-0.282-0.015-0.32-0.023c-0.169-0.039-0.225-0.124-0.37-0.44   c-0.143-0.311-0.408-0.89-1.111-0.89h0c-0.704,0-0.97,0.58-1.114,0.892c-0.144,0.314-0.2,0.399-0.369,0.438   C5.322,11.248,5.231,11.263,5.042,11.263z"/>
</svg>