<svg version="1.2" baseProfile="tiny" viewBox="0 0 45.500 40.000" xmlns:xlink="http://www.w3.org/1999/xlink" xmlns="http://www.w3.org/2000/svg">
<path style="fill:#ffffff;" d="M44.089,37.135L23.729,1.688c-0.185-0.32-0.524-0.518-0.894-0.519c-0.001,0-0.002,0-0.003,0    c-0.368,0-0.709,0.196-0.893,0.515L1.309,37.279c-0.186,0.32-0.186,0.714-0.001,1.034c0.185,0.319,0.525,0.517,0.895,0.517h41.076    c0.007,0,0.014,0,0.018,0c0.57,0,1.034-0.462,1.034-1.032C44.33,37.545,44.239,37.315,44.089,37.135z M3.995,36.766L22.829,4.27    l18.665,32.497H3.995z M23.838,29.665l-2.592-2.286c0,0-0.189-0.212-0.074-0.354C21.287,26.884,21.428,27,21.428,27L23.838,29.665z     M20.333,25.616c0,0-0.253,0.129-0.36-0.02c-0.107-0.147,0.041-0.254,0.041-0.254l3.191-1.648L20.333,25.616z M24.471,24.208    l-2.44,0.867l-0.09-0.255l2.439-0.866L24.471,24.208z M24.337,25.497l-2.439,0.867l-0.091-0.255l2.439-0.867L24.337,25.497z     M17.92,22.642v-2.696c0,0,1.761-0.168,1.761,1.349C19.681,22.81,17.92,22.642,17.92,22.642z M21.314,16.559l0.779,2.161    l-0.254,0.092l-0.78-2.161L21.314,16.559z M21.188,16.003c0.578,0,1.049-0.47,1.049-1.049s-0.471-1.048-1.049-1.048    c-0.579,0-1.049,0.47-1.049,1.048S20.609,16.003,21.188,16.003z M21.188,14.445c0.28,0,0.509,0.229,0.509,0.509    s-0.229,0.51-0.509,0.51c-0.281,0-0.51-0.229-0.51-0.51S20.906,14.445,21.188,14.445z M22.782,18.41l1.634,4.045l-0.25,0.1    l-1.635-4.045L22.782,18.41z M19.414,26.021l-3.771,1.399v-6.773c0,0,0-0.929,1.079-1.708c1.079-0.778,0.959,0.477,0.959,0.477    v3.999l0.756-0.03l3.97-3.666l0.78,1.979l-3.737,3.417L19.414,26.021z M20.981,18.265l-2.389-2.682l2.575,2.304    c0,0,0.188,0.214,0.071,0.354C21.122,18.381,20.981,18.265,20.981,18.265z M20.202,27.832c0,0-0.154-0.238-0.017-0.36    s0.258,0.015,0.258,0.015l1.962,3.007L20.202,27.832z M27.917,26.625c1.771,0.174,3.354-1.126,3.526-2.896    s-1.126-3.352-2.896-3.525c-1.771-0.173-3.354,1.126-3.528,2.896C24.846,24.871,26.146,26.452,27.917,26.625z M28.982,21.902    l0.101-1.034c1.162,0.388,1.946,1.54,1.823,2.81c-0.026,0.261-0.089,0.51-0.183,0.742l-0.695-0.496l-0.813-0.583    c-0.02-0.252-0.135-0.479-0.311-0.645L28.982,21.902z M28.882,22.917l0.005-0.046c0.096,0.115,0.16,0.254,0.184,0.405    c-0.113-0.016-0.295,0.027-0.513,0.331c-0.248,0.349-0.188,0.543-0.122,0.633c-0.092,0.021-0.188,0.031-0.288,0.021    c-0.081-0.007-0.158-0.027-0.23-0.057c0.021-0.023,0.042-0.055,0.061-0.093c0.066-0.151,0.042-0.353-0.069-0.601    c-0.149-0.329-0.319-0.433-0.446-0.457c0.054-0.116,0.133-0.22,0.231-0.299l-0.004,0.044c0,0-0.075,0.354,0.562,0.416    C28.888,23.279,28.882,22.917,28.882,22.917z M27.855,24.054c-0.019,0.042-0.045,0.069-0.066,0.087    c-0.271-0.164-0.438-0.474-0.405-0.81c0.004-0.051,0.015-0.1,0.028-0.148c0.094,0.011,0.238,0.084,0.373,0.384    C27.879,23.772,27.902,23.941,27.855,24.054z M25.557,23.153c0.124-1.27,1.118-2.247,2.333-2.402l-0.101,1.035l-0.078,0.793    c-0.178,0.111-0.319,0.277-0.397,0.477c-0.043,0.01-0.069,0.024-0.069,0.025l-1.668,0.755    C25.541,23.614,25.533,23.386,25.557,23.153z M25.603,23.972l1.662-0.755c-0.007,0.034-0.012,0.067-0.015,0.103    c-0.036,0.359,0.129,0.692,0.402,0.892l-1.626,0.735C25.824,24.657,25.677,24.326,25.603,23.972z M27.787,24.297    c0,0,0.002-0.001,0.004-0.001c0.105,0.052,0.221,0.088,0.344,0.101c0.147,0.014,0.291-0.006,0.423-0.053l0.772,0.554l0.708,0.506    c-0.543,0.492-1.284,0.762-2.068,0.686c-0.766-0.075-1.425-0.466-1.86-1.03L27.787,24.297z M26.805,20.189l-0.108-0.247    l2.962-1.301l0.108,0.248L26.805,20.189z M23.524,16.393l1.11-3.416l-0.689,3.386c0,0-0.091,0.269-0.271,0.239    C23.495,16.573,23.524,16.393,23.524,16.393z M30.19,26.546l2.963-1.3l0.108,0.247L30.3,26.794L30.19,26.546z M22.612,15.908    l0.701,1.94l-0.256,0.091L22.358,16L22.612,15.908z M14.749,29.475l-2.724,2.343l2.35-2.535c0,0,0.217-0.184,0.355-0.064    C14.868,29.337,14.749,29.475,14.749,29.475z M13.682,28.813l-0.158-0.391c0,0-0.127-0.271-0.577-0.122l-1.819,0.677l0.346,0.99    l1.94-0.704C13.414,29.263,13.792,29.126,13.682,28.813z M11.632,29.517c-0.11,0.003-0.2-0.084-0.202-0.193    c-0.002-0.109,0.085-0.199,0.196-0.201c0.108-0.001,0.199,0.086,0.2,0.195C11.828,29.426,11.741,29.517,11.632,29.517z     M12.183,29.346c-0.108,0.001-0.198-0.086-0.2-0.195c-0.001-0.109,0.085-0.199,0.195-0.201c0.109-0.002,0.2,0.086,0.202,0.195    C12.38,29.253,12.293,29.344,12.183,29.346z M14.96,27.442l-2.998-1.979l3.081,1.566c0,0,0.236,0.16,0.159,0.324    C15.126,27.518,14.96,27.442,14.96,27.442z M28.562,35.482c-0.63,0.449-1.812,0.059-1.812,0.059l-5.922-2.996    c0,0,1.498,1.979,1.829,2.278c0.329,0.299,0.628,0.869-0.69,0.929c-1.319,0.06-2.218-1.109-2.218-1.109l-4.106-5.214v-0.96    l3.771-1.317v2.247c0,0,8.068,4.195,9.148,4.734C29.641,34.672,29.19,35.032,28.562,35.482z M15.198,30.758l-2.05,2.95l1.639-3.042    c0,0,0.164-0.232,0.327-0.151C15.279,30.596,15.198,30.758,15.198,30.758z M14.138,28.312l5.565-1.978l0.091,0.254l-5.566,1.978    L14.138,28.312z"/>
</svg>