<svg version="1.2" baseProfile="tiny" viewBox="0 0 22.25 56.001" xmlns:xlink="http://www.w3.org/1999/xlink" xmlns="http://www.w3.org/2000/svg">
<path style="fill:#ffffff;" d="M22.249,11.16c0-0.003,0-0.007,0-0.01c0,0,0-0.001,0-0.001c0-0.001-0.001-0.002-0.001-0.003   c0.034-2.917-1.095-5.687-3.181-7.801C16.97,1.219,14.075,0,11.125,0C4.99,0,0.001,4.99,0,11.124v0l0,0v0.001v33.75   c0,6.135,4.99,11.125,11.125,11.125s11.125-4.99,11.125-11.125L22.249,11.16z M2,12.126l18.249,0.02l0.001,31.73H2V12.126z    M11.125,2c2.419,0,4.795,1.002,6.519,2.749c1.472,1.49,2.356,3.375,2.558,5.397l-18.144-0.02C2.557,5.563,6.432,2,11.125,2z    M11.125,54.001c-4.693,0-8.567-3.563-9.067-8.125h18.135C19.692,50.438,15.818,54.001,11.125,54.001z"/>
</svg>