<svg version="1.2" baseProfile="tiny" viewBox="0 0 49.25 42.5" xmlns:xlink="http://www.w3.org/1999/xlink" xmlns="http://www.w3.org/2000/svg">
<path style="fill:#ffffff;" d="M21.2499,42.5C9.5318,42.5,0.0,32.9681,0.0,21.25C0.0,9.5332,9.5318,0.0,21.2499,0.0L48.2502,0.0C48.8028,0.0,49.25,0.448,49.25,1.0L49.25,14.5001C49.25,15.0518,48.8028,15.5002,48.2502,15.5002L41.7108,15.5002C42.2348,17.3659,42.4998,19.2941,42.4998,21.25C42.4998,32.9681,32.9679,42.5,21.2499,42.5M21.2499,2.0001C10.636,2.0001,2.0,10.6361,2.0,21.25C2.0,31.864,10.636,40.5,21.2499,40.5C31.8638,40.5,40.5002,31.864,40.5002,21.25C40.5002,19.0519,40.1309,16.8942,39.402,14.8329C39.2951,14.5269,39.3409,14.1869,39.529,13.9222C39.7172,13.6569,40.021,13.5001,40.3451,13.5001L47.249,13.5001L47.249,2.0001L21.2499,2.0001L21.2499,2.0001Z"/>
</svg>