<svg version="1.2" baseProfile="tiny" viewBox="0 0 82.158 18.875" xmlns:xlink="http://www.w3.org/1999/xlink" xmlns="http://www.w3.org/2000/svg">
<path style="fill:#ffffff;" d="M81.1581,13.5L78.3664,13.5L75.5747,13.5L72.7838,13.5L69.992,13.5L67.2003,13.5L64.4094,13.5L61.6177,13.5L58.8259,13.5C58.7676,13.258,58.692,13.0251,58.5967,12.8001C58.5022,12.576,58.3889,12.362,58.2599,12.158C58.1309,11.9539,57.9871,11.762,57.8261,11.583C57.6667,11.4041,57.4917,11.238,57.3052,11.0879C57.1179,10.9381,56.9182,10.802,56.7079,10.6831C56.4976,10.564,56.2758,10.463,56.0474,10.3799C55.8181,10.2971,55.5782,10.234,55.3318,10.19C55.0869,10.147,54.8331,10.124,54.5751,10.124C54.2728,10.124,53.9786,10.1549,53.6944,10.2131C53.4101,10.272,53.1349,10.358,52.8736,10.4681C52.6132,10.5779,52.3642,10.715,52.1309,10.872C51.8992,11.029,51.6823,11.2089,51.4843,11.4069C51.2863,11.6049,51.1072,11.822,50.9486,12.0551C50.7917,12.2871,50.6562,12.536,50.5452,12.798C50.4352,13.06,50.3489,13.3341,50.2897,13.6191C50.2322,13.9041,50.201,14.198,50.201,14.499C50.201,14.8001,50.2322,15.0951,50.2897,15.379C50.3489,15.664,50.4352,15.938,50.5452,16.2C50.6562,16.462,50.7917,16.711,50.9486,16.943C51.1072,17.1761,51.2863,17.3929,51.4843,17.5909C51.6823,17.7889,51.8992,17.9681,52.1309,18.126C52.3642,18.2831,52.6123,18.419,52.8736,18.53C53.1357,18.641,53.4101,18.727,53.6944,18.785C53.9786,18.8429,54.2728,18.8741,54.5751,18.8741C54.8331,18.8741,55.0869,18.852,55.3318,18.808C55.5782,18.765,55.8173,18.701,56.0474,18.6179C56.2774,18.5351,56.4976,18.4329,56.7079,18.315C56.9182,18.1961,57.1171,18.0609,57.3044,17.9099C57.4909,17.7589,57.6651,17.594,57.8253,17.415C57.9846,17.2361,58.1309,17.0439,58.2599,16.841C58.3889,16.6379,58.5022,16.4229,58.5967,16.1991C58.692,15.9739,58.7676,15.741,58.8259,15.499L61.6177,15.499L64.4094,15.499L67.2003,15.499L69.992,15.499L72.7838,15.499L75.5747,15.499L78.3664,15.499L81.1581,15.499C81.2271,15.499,81.2937,15.492,81.3586,15.479C81.4243,15.465,81.4868,15.446,81.5467,15.4199C81.5697,15.4099,81.5944,15.399,81.6174,15.3871C81.6388,15.375,81.6618,15.362,81.6831,15.349C81.716,15.328,81.7472,15.3059,81.7776,15.282C81.8088,15.258,81.8368,15.2319,81.8639,15.2049C81.891,15.178,81.9181,15.1491,81.9411,15.1191C81.9649,15.0879,81.9879,15.056,82.0068,15.023C82.0208,15.002,82.0323,14.98,82.0438,14.9569C82.0561,14.935,82.0668,14.9111,82.0767,14.888C82.1021,14.828,82.1218,14.765,82.1358,14.7C82.1498,14.6349,82.1572,14.567,82.1572,14.4981C82.1572,14.429,82.1498,14.362,82.1358,14.2959C82.1218,14.231,82.103,14.168,82.0767,14.1079C82.0652,14.08,82.052,14.0521,82.038,14.026C82.0233,13.999,82.0077,13.973,81.9912,13.9481C81.9723,13.9199,81.9518,13.892,81.9312,13.865C81.9099,13.839,81.8869,13.814,81.8631,13.7901C81.8409,13.768,81.8179,13.747,81.7949,13.727C81.771,13.707,81.7464,13.688,81.7209,13.671C81.6938,13.6519,81.6651,13.6349,81.6363,13.6191C81.6067,13.603,81.5771,13.5891,81.5459,13.576C81.4851,13.5509,81.4227,13.5309,81.3578,13.517C81.2937,13.507,81.228,13.5,81.1581,13.5M54.5767,16.875C54.4132,16.875,54.2539,16.858,54.0994,16.8271C53.9441,16.7959,53.7946,16.748,53.6541,16.688C53.5128,16.6279,53.3772,16.5539,53.2507,16.469C53.1242,16.3841,53.0067,16.2859,52.8982,16.1791C52.7906,16.0721,52.6937,15.9541,52.6082,15.8271C52.5228,15.701,52.4497,15.5651,52.3889,15.4241C52.3281,15.282,52.2821,15.133,52.25,14.9781C52.218,14.8229,52.2007,14.664,52.2007,14.5C52.2007,14.3359,52.218,14.177,52.25,14.022C52.2812,13.8671,52.3281,13.718,52.3889,13.576C52.4497,13.4341,52.5228,13.2989,52.6082,13.1731C52.6937,13.047,52.7906,12.929,52.8982,12.821C53.0059,12.714,53.1242,12.616,53.2507,12.5309C53.3772,12.446,53.5128,12.372,53.6541,12.312C53.7946,12.252,53.9449,12.205,54.0994,12.1731C54.253,12.141,54.4116,12.1249,54.5767,12.1249C54.7419,12.1249,54.8996,12.1419,55.0549,12.1731C55.2102,12.204,55.3589,12.252,55.5002,12.312C55.6407,12.372,55.7771,12.446,55.9028,12.5309C56.0301,12.616,56.1468,12.714,56.256,12.821C56.3629,12.9281,56.4598,13.046,56.5461,13.1731C56.6307,13.2989,56.7038,13.435,56.7646,13.576C56.8262,13.718,56.8722,13.8671,56.9043,14.022C56.9363,14.177,56.9527,14.3359,56.9527,14.5C56.9527,14.664,56.9363,14.8229,56.9043,14.9781C56.8731,15.133,56.8262,15.282,56.7646,15.4241C56.7038,15.566,56.6307,15.701,56.5461,15.8271C56.4598,15.953,56.3629,16.0709,56.256,16.1791C56.1476,16.2859,56.0301,16.3841,55.9028,16.469C55.7771,16.5539,55.6407,16.6279,55.5002,16.688C55.3589,16.748,55.2094,16.795,55.0549,16.8271C54.9013,16.859,54.7411,16.875,54.5767,16.875M27.5763,10.1249C27.3167,10.1249,27.0637,10.147,26.818,10.191C26.5724,10.235,26.3333,10.298,26.1032,10.3811C25.8732,10.4639,25.6522,10.566,25.4419,10.684C25.2324,10.802,25.0327,10.9381,24.8462,11.0891C24.6589,11.2401,24.4847,11.405,24.3253,11.584C24.1651,11.7631,24.0189,11.955,23.8899,12.1591C23.7609,12.3629,23.6484,12.577,23.5539,12.802C23.4578,13.026,23.3822,13.2601,23.3247,13.5009L20.5337,13.5009L17.7428,13.5009L14.9519,13.5009L12.161,13.5009L9.3718,13.5009L6.5809,13.5009L3.7899,13.5009L0.9999,13.5009C0.9662,13.5009,0.9317,13.503,0.8972,13.506C0.8643,13.509,0.8306,13.5151,0.7978,13.5209C0.7649,13.527,0.7337,13.536,0.7016,13.5451C0.6704,13.5551,0.6392,13.566,0.6088,13.5791C0.58,13.5921,0.5496,13.606,0.5217,13.621C0.4938,13.6361,0.4658,13.653,0.4404,13.671C0.4141,13.6891,0.387,13.7089,0.3631,13.7289C0.3393,13.7501,0.3138,13.771,0.2917,13.794C0.2457,13.839,0.2062,13.889,0.1701,13.942C0.1347,13.9951,0.1043,14.0521,0.0781,14.111C0.0534,14.171,0.0329,14.234,0.0189,14.2989C0.0049,14.3641,0.0,14.432,0.0,14.5009L0.0,14.5009L0.0,14.5009L0.0,14.5009L0.0,14.5009L0.0,14.5009L0.0,14.5009L0.0,14.5009L0.0,14.5009C0.0,14.57,0.0074,14.6379,0.0214,14.7031C0.0353,14.768,0.0542,14.831,0.0797,14.8911C0.1052,14.9511,0.1372,15.0069,0.1717,15.06C0.2079,15.113,0.2481,15.163,0.2941,15.208C0.3163,15.23,0.341,15.2519,0.3648,15.2731C0.3886,15.2931,0.4157,15.3129,0.442,15.331C0.4683,15.349,0.4962,15.3659,0.5242,15.381C0.5521,15.3971,0.5817,15.4111,0.6113,15.423C0.6408,15.436,0.6721,15.4469,0.7041,15.4569C0.7353,15.4669,0.7674,15.475,0.8002,15.4811C0.8331,15.4869,0.8651,15.493,0.8988,15.496C0.9317,15.499,0.9662,15.5011,0.9999,15.5011L3.7899,15.5011L6.5809,15.5011L9.3718,15.5011L12.1627,15.5011L14.9544,15.5011L17.7453,15.5011L20.5362,15.5011L23.3271,15.5011C23.3838,15.7419,23.461,15.976,23.5563,16.2C23.6516,16.4241,23.7642,16.6379,23.8932,16.842C24.023,17.046,24.1668,17.238,24.3278,17.416C24.4872,17.5951,24.6622,17.7601,24.8487,17.9111C25.036,18.0621,25.2356,18.197,25.446,18.3159C25.6563,18.4341,25.8773,18.536,26.1057,18.6191C26.3357,18.7019,26.5748,18.765,26.8213,18.8089C27.067,18.8529,27.3192,18.875,27.578,18.875C27.8803,18.875,28.1736,18.844,28.4579,18.7859C28.743,18.727,29.0182,18.641,29.2786,18.5309C29.5399,18.4211,29.7897,18.284,30.0222,18.127C30.2539,17.9699,30.4708,17.7901,30.6688,17.5921C30.8668,17.3941,31.0459,17.177,31.2028,16.9441C31.3614,16.7119,31.4961,16.463,31.607,16.201C31.7179,15.939,31.8042,15.6649,31.8633,15.3799C31.9217,15.0951,31.9521,14.801,31.9521,14.5C31.9521,14.1989,31.9217,13.9041,31.8633,13.62C31.8042,13.3359,31.7179,13.0609,31.607,12.7989C31.4961,12.537,31.3614,12.288,31.2028,12.056C31.0459,11.8229,30.8668,11.606,30.6688,11.408C30.4708,11.2101,30.2539,11.0309,30.0222,10.8729C29.7897,10.715,29.5407,10.58,29.2786,10.469C29.0174,10.358,28.743,10.272,28.4579,10.214C28.172,10.1561,27.8779,10.1249,27.5763,10.1249M27.5763,16.875C27.4128,16.875,27.2526,16.858,27.0982,16.8271C26.9429,16.795,26.7934,16.748,26.6521,16.688C26.5107,16.6279,26.3752,16.5539,26.2487,16.469C26.1221,16.3841,26.0047,16.2859,25.897,16.1791C25.7894,16.0721,25.6916,15.9541,25.607,15.8271C25.5224,15.7,25.4476,15.5651,25.3868,15.4241C25.326,15.282,25.2808,15.133,25.248,14.9781C25.2168,14.8229,25.2003,14.664,25.2003,14.5C25.2003,14.3359,25.2168,14.177,25.248,14.022C25.28,13.8671,25.326,13.718,25.3868,13.576C25.4476,13.4341,25.5224,13.2989,25.607,13.1731C25.6916,13.047,25.7902,12.929,25.897,12.821C26.0038,12.7131,26.1221,12.616,26.2487,12.5309C26.3752,12.446,26.5107,12.372,26.6521,12.312C26.7934,12.252,26.9429,12.205,27.0982,12.1731C27.2518,12.141,27.412,12.1249,27.5763,12.1249C27.7398,12.1249,27.8992,12.1419,28.0537,12.1731C28.2089,12.205,28.3593,12.252,28.4998,12.312C28.6411,12.372,28.7767,12.446,28.9032,12.5309C29.0297,12.616,29.1472,12.714,29.2548,12.821C29.3633,12.9281,29.4602,13.046,29.5448,13.1731C29.6303,13.3001,29.7042,13.435,29.765,13.576C29.8258,13.718,29.871,13.8671,29.9039,14.022C29.9351,14.177,29.9523,14.3359,29.9523,14.5C29.9523,14.664,29.9351,14.8229,29.9039,14.9781C29.8718,15.133,29.8258,15.282,29.765,15.4241C29.7042,15.566,29.6303,15.701,29.5448,15.8271C29.4602,15.953,29.3616,16.0709,29.2548,16.1791C29.148,16.287,29.0297,16.3841,28.9032,16.469C28.7767,16.5539,28.6411,16.6279,28.4998,16.688C28.3593,16.748,28.2089,16.795,28.0537,16.8271C27.8992,16.858,27.739,16.875,27.5763,16.875M58.2714,8.5009C57.983,8.2471,57.6913,8.0,57.3939,7.7601C57.0776,7.5051,56.7564,7.2571,56.4294,7.0179C56.0646,6.751,55.6949,6.4951,55.3186,6.248C55.0409,6.0649,54.7583,5.8881,54.4732,5.7159C54.138,5.514,53.7987,5.3211,53.4561,5.1349C53.1119,4.949,52.766,4.771,52.4152,4.601C52.0537,4.426,51.6881,4.259,51.3192,4.101C50.9708,3.953,50.6217,3.8111,50.2692,3.678C49.9348,3.5521,49.598,3.432,49.2587,3.3199C48.8594,3.188,48.4551,3.0649,48.0493,2.9509C47.6418,2.838,47.2318,2.734,46.8194,2.641C46.4702,2.5621,46.121,2.49,45.7678,2.426C45.3578,2.3511,44.9462,2.285,44.5321,2.2301C44.1698,2.181,43.805,2.14,43.4402,2.107C43.0894,2.0749,42.7369,2.05,42.3828,2.033C41.9491,2.0109,41.5128,2.0,41.0757,2.0C40.6238,2.0,40.1736,2.0121,39.7242,2.0349C39.3849,2.053,39.048,2.077,38.7112,2.107C38.2996,2.145,37.8888,2.192,37.4788,2.2501C37.1116,2.3011,36.7468,2.3599,36.3828,2.4269C35.9983,2.4979,35.6147,2.577,35.2351,2.664C34.8547,2.751,34.4768,2.848,34.1021,2.952C33.7604,3.047,33.4202,3.1489,33.0834,3.258C32.6792,3.3881,32.2782,3.5291,31.8822,3.678C31.5183,3.815,31.156,3.9609,30.7994,4.1149C30.442,4.269,30.0871,4.4309,29.7363,4.601C29.3698,4.779,29.0067,4.9651,28.6493,5.16C28.3231,5.338,28.0003,5.524,27.6799,5.7159C27.306,5.9409,26.9371,6.1761,26.574,6.422C26.2873,6.6149,26.0038,6.8141,25.7237,7.0179C25.3876,7.264,25.0574,7.519,24.732,7.782C24.4436,8.0151,24.161,8.255,23.8809,8.5009C23.8291,8.547,23.7749,8.586,23.7174,8.6191C23.659,8.6519,23.5999,8.6789,23.5383,8.7001C23.4758,8.721,23.4134,8.735,23.3501,8.7431C23.2869,8.751,23.222,8.7531,23.1587,8.7489C23.0963,8.745,23.0314,8.735,22.9697,8.7189C22.9073,8.7031,22.8473,8.68,22.7882,8.6531C22.7282,8.6249,22.6731,8.591,22.6189,8.5509C22.5663,8.5109,22.5154,8.4651,22.4702,8.413C22.4242,8.3611,22.3848,8.3059,22.3519,8.248C22.319,8.1901,22.2919,8.13,22.2722,8.0691C22.2509,8.007,22.2369,7.9439,22.2278,7.8811C22.2188,7.818,22.2172,7.7529,22.2221,7.6889C22.2262,7.6249,22.2361,7.5621,22.2517,7.5C22.2681,7.4369,22.2903,7.3769,22.3182,7.318C22.3453,7.2589,22.3798,7.2031,22.4201,7.15C22.4604,7.097,22.5064,7.047,22.5581,7.0021C22.8711,6.7259,23.1891,6.4569,23.5128,6.1959C23.8513,5.9239,24.1939,5.66,24.5422,5.4039C24.8832,5.154,25.2299,4.912,25.5807,4.6789C25.9332,4.4451,26.2889,4.2201,26.6488,4.003C27.0086,3.7859,27.375,3.5779,27.7439,3.3781C28.1128,3.177,28.4866,2.9851,28.8654,2.802C29.277,2.6019,29.6927,2.413,30.1142,2.234C30.465,2.0849,30.8191,1.942,31.1757,1.808C31.6037,1.6461,32.035,1.4951,32.4713,1.355C32.8336,1.238,33.2,1.128,33.5673,1.0249C34.0027,0.903,34.4423,0.7929,34.8843,0.692C35.2622,0.6061,35.6418,0.5279,36.0238,0.459C36.5036,0.3711,36.9884,0.295,37.4739,0.232C37.8264,0.1871,38.178,0.148,38.5321,0.1149C38.9084,0.081,39.2838,0.054,39.6618,0.0349C40.1309,0.0121,40.6041,0.0,41.0757,0.0C41.627,0.0,42.1766,0.017,42.723,0.0479C43.0229,0.0661,43.3227,0.088,43.621,0.1149C44.0433,0.154,44.4631,0.201,44.8813,0.259C45.2986,0.3169,45.7152,0.383,46.1292,0.459C46.5154,0.53,46.8999,0.608,47.2819,0.695C47.7198,0.795,48.1536,0.9039,48.5858,1.0249C48.99,1.138,49.3917,1.259,49.7902,1.39C50.1879,1.5209,50.5839,1.6601,50.9774,1.808C51.3701,1.956,51.7579,2.1131,52.1432,2.279C52.5277,2.4451,52.9097,2.6189,53.2877,2.802C53.65,2.9779,54.0098,3.1619,54.3648,3.3541C54.7493,3.561,55.1288,3.7771,55.5043,4.003C55.8642,4.2201,56.2207,4.4451,56.5724,4.6789C56.924,4.912,57.2699,5.154,57.6108,5.4039C57.9518,5.654,58.2878,5.912,58.6189,6.178C58.95,6.4439,59.2762,6.7189,59.5958,7.0009C59.6483,7.047,59.6944,7.097,59.7338,7.1489C59.7741,7.2019,59.8077,7.258,59.8357,7.3171C59.8636,7.376,59.8866,7.436,59.9022,7.499C59.9186,7.5609,59.9277,7.624,59.9318,7.688C59.9367,7.752,59.9351,7.8159,59.926,7.8799C59.917,7.9439,59.9039,8.007,59.8817,8.0679C59.8611,8.13,59.8349,8.1901,59.802,8.2471C59.7691,8.3041,59.7297,8.3599,59.6837,8.412C59.6599,8.44,59.6327,8.466,59.6056,8.4909C59.5802,8.516,59.5514,8.5391,59.5218,8.56C59.4939,8.581,59.4627,8.601,59.4323,8.6179C59.4019,8.6361,59.3698,8.6519,59.3378,8.6661C59.3057,8.68,59.2737,8.6919,59.24,8.7031C59.2063,8.714,59.1727,8.7231,59.139,8.7289C59.1053,8.7359,59.0708,8.742,59.0363,8.745C59.0009,8.748,58.9673,8.7501,58.9319,8.7501C58.9024,8.7501,58.872,8.7489,58.8432,8.7459C58.8136,8.744,58.784,8.7401,58.7561,8.734C58.7274,8.7289,58.697,8.7219,58.669,8.715C58.6403,8.707,58.6123,8.698,58.5844,8.688C58.5556,8.678,58.5277,8.6661,58.5006,8.6531C58.4743,8.64,58.4464,8.6261,58.4201,8.61C58.3938,8.594,58.37,8.5779,58.3453,8.56C58.319,8.5421,58.296,8.5221,58.2714,8.5009Z"/>
</svg>