<svg version="1.2" baseProfile="tiny" viewBox="0 0 20.622 42.441" xmlns:xlink="http://www.w3.org/1999/xlink" xmlns="http://www.w3.org/2000/svg">
<path style="fill:#ffffff;" d="M12.787,42.441c-0.283,0-0.551-0.185-0.86-0.398c-0.397-0.274-0.891-0.616-1.563-0.616   c-0.67,0-1.143,0.327-1.56,0.615c-0.31,0.215-0.577,0.399-0.859,0.399H2.097c-0.76,0-0.789,0-1.293-0.285   c-0.278-0.158-0.69-1.665-0.69-4.396c0-1.122-0.027-4.084-0.055-7.115C0.029,27.472,0,24.223,0,22.933   c0-2.248,0.089-2.586,0.183-2.945l0.092-0.355c0.129-0.491,0.323-1.233,0.549-2.582c0.252-1.516,0.399-3.023,0.568-5.114   c0.145-1.805,0.316-3.009,0.562-4.641c0.204-1.365,0.379-1.44,1.032-1.718C4.581,4.898,6.25,4.214,6.25,4.214l0.554-0.227   L6.571,3.753C6.818,3.629,6.93,3.446,6.93,3.197c0-0.326-0.214-0.5-0.329-0.593C6.535,2.401,6.55,2.358,6.552,2.354   c0.02,0.021,0.291,0.021,0.554,0.021c0.307,0,0.635-0.167,0.635-0.634c0-0.166-0.076-0.277-0.162-0.351   c0.097-0.098,0.143-0.214,0.143-0.35v-1.04C7.758,0,12.49,0,12.526,0.001v1.04c0,0.14,0.048,0.258,0.144,0.354   c-0.089,0.077-0.16,0.186-0.16,0.346c0,0.588,0.484,0.634,0.633,0.634c0.231,0,0.469,0,0.57,0.021c-0.005,0.02,0,0.07,0,0.155   c-0.181,0.146-0.395,0.32-0.395,0.646c0,0.257,0.119,0.444,0.354,0.559l-0.18,0.18l0.462,0.258c0.012,0.006,1.11,0.622,2.525,1.565   c1.18,0.787,1.324,0.896,1.689,1.188c0.328,0.262,0.384,0.307,0.575,1.167c0.216,0.97,0.59,3.083,0.858,5.085l0.103,0.745   c0.271,1.952,0.643,4.625,0.61,6.95c-0.037,2.729,0.042,6.166,0.113,9.2l0.188,7.676c0.062,2.752-0.429,4.237-0.693,4.388   c-0.504,0.284-0.533,0.284-1.29,0.284H12.787z M6.31,5.894c-0.2,0-0.743,0.028-1.432,0.292C3.874,6.566,3.501,7.37,3.164,8.72   c-0.339,1.352-0.547,4.995-0.461,5.68c0.1,0.811,0.549,1.189,1.414,1.189c0.091,0,0.189-0.004,0.295-0.012   c1.257-0.101,1.619-1.229,2.004-2.422c0.443-1.371,0.971-3.989,1.105-4.799c0.071-0.428,0.183-1.488-0.322-2.084   C6.99,6.026,6.705,5.896,6.375,5.896L6.31,5.894z"/>
</svg>