<svg version="1.2" baseProfile="tiny" viewBox="0 0 23.422 45.458" xmlns:xlink="http://www.w3.org/1999/xlink" xmlns="http://www.w3.org/2000/svg">
<path style="fill:#ffffff;" d="M11.551,3.5548L15.2409,3.5548C15.2409,3.5548,15.2409,3.0939,15.2409,2.8461C15.2409,2.597,14.85,2.597,14.85,2.597C14.85,2.597,14.85,1.781,14.85,1.4969C14.851,1.2128,14.8149,1.0001,14.283,1.0001C13.7511,1.0001,11.551,1.0001,11.551,1.0001C11.551,1.0001,9.351,1.0001,8.8191,1.0001C8.2869,1.0001,8.2511,1.2128,8.2511,1.4969C8.2511,1.781,8.2511,2.597,8.2511,2.597C8.2511,2.597,7.86,2.597,7.86,2.8461C7.86,3.0939,7.86,3.5548,7.86,3.5548L11.551,3.5548L11.551,3.5548Z"/>
</svg>