<svg version="1.2" baseProfile="tiny" viewBox="0 0 23.422 45.458" xmlns:xlink="http://www.w3.org/1999/xlink" xmlns="http://www.w3.org/2000/svg">
<path style="fill:#ffffff;" d="M22.417,39.3771C22.469,41.6732,22.119,43.7811,21.522,44.1211C20.925,44.4579,20.814,44.4579,20.034,44.4579C19.2501,44.4579,15.044,44.4579,14.1869,44.4579C13.3299,44.4579,12.8069,43.4428,11.763,43.4428C10.7231,43.4428,10.2,44.4579,9.344,44.4579C8.487,44.4579,4.279,44.4579,3.496,44.4579C2.713,44.4579,2.601,44.4579,2.0061,44.1211C1.41,43.7811,1.1121,41.6741,1.1121,39.3771C1.113,37.081,0.9999,27.0698,0.9999,24.5491C0.9999,22.028,1.113,21.8389,1.2259,21.3871C1.339,20.9348,1.5651,20.1829,1.83,18.601C2.093,17.0199,2.242,15.4021,2.394,13.5201C2.5441,11.6382,2.7319,10.3581,2.958,8.852C3.1831,7.3469,3.4461,7.1592,4.2291,6.8251C5.8269,6.145,7.499,5.46,7.499,5.46C7.499,5.46,7.3929,5.3531,7.499,5.1722C7.6079,4.9931,7.93,5.1008,7.93,4.8131C7.93,4.5249,7.5351,4.5258,7.5351,4.1671C7.5351,3.5921,7.715,3.5921,8.5059,3.5921C8.7209,3.5921,8.7399,3.4839,8.7399,3.358C8.7399,3.2321,8.398,3.2689,8.398,3.017C8.398,2.7661,8.72,2.837,8.72,2.6579C8.72,2.4788,8.72,2.0111,8.72,1.832C8.72,1.6519,8.828,1.6169,9.2599,1.6169C9.692,1.6169,11.5241,1.6169,11.5241,1.6169C11.5241,1.6169,13.3559,1.6169,13.789,1.6169C14.22,1.6169,14.327,1.6529,14.327,1.832C14.327,2.0111,14.327,2.4788,14.327,2.6579C14.327,2.8379,14.65,2.7661,14.65,3.017C14.65,3.2689,14.3099,3.2321,14.3099,3.358C14.3099,3.4839,14.327,3.5921,14.542,3.5921C15.333,3.5921,15.5131,3.5921,15.5131,4.1671C15.5131,4.5258,15.118,4.5258,15.118,4.8131C15.118,5.0999,15.44,4.9931,15.5489,5.1722C15.656,5.3522,15.5489,5.46,15.5489,5.46C15.5489,5.46,16.654,6.0768,18.101,7.041C19.292,7.8351,19.4431,7.9488,19.819,8.2488C20.1949,8.5502,20.308,8.6261,20.535,9.6421C20.761,10.6581,21.137,12.8042,21.399,14.7611C21.6639,16.7181,22.153,19.842,22.116,22.5149C22.079,25.1869,22.153,28.4608,22.2279,31.7001C22.3041,34.9372,22.379,37.7229,22.417,39.3771M6.4209,8.1752C5.629,8.4761,5.291,9.078,4.9521,10.4331C4.613,11.7882,4.4249,15.3639,4.5001,15.9662C4.5741,16.5681,4.8399,16.869,5.781,16.794C6.7221,16.7181,7.0231,15.928,7.4351,14.6479C7.8489,13.3678,8.3759,10.809,8.527,9.9048C8.6781,9.0011,8.565,7.9101,7.7749,7.9101C7.7749,7.912,7.21,7.8738,6.4209,8.1752Z"/>
</svg>