<svg version="1.2" baseProfile="tiny" id="EdgeSVG_lwwOw" x="0px" y="0px" width="23.422px" height="45.458px" viewBox="0 0 23.422 45.458" xmlns:xlink="http://www.w3.org/1999/xlink" xmlns="http://www.w3.org/2000/svg">
  <linearGradient id="SVGID_1_" gradientUnits="userSpaceOnUse" x1="0" y1="23.0371" x2="23.4229" y2="23.0371">
    <stop offset="0" style="stop-color:#000000;stop-opacity:0.5"/>
    <stop offset="1" style="stop-color:#000000;stop-opacity:0.5"/>
  </linearGradient>
  <path fill="url(#SVGID_1_)" d="M23.417,39.354l-0.188-7.677c-0.07-3.021-0.15-6.445-0.112-9.147&#xD;&#xA;&#x9;&#x9;c0.033-2.432-0.347-5.166-0.624-7.163l-0.102-0.738c-0.274-2.042-0.657-4.204-0.88-5.204c-0.26-1.165-0.467-1.476-1.067-1.957&#xD;&#xA;&#x9;&#x9;c-0.418-0.334-0.618-0.479-1.787-1.259c-0.911-0.607-1.685-1.077-2.15-1.352c-0.023-0.06-0.053-0.12-0.087-0.179&#xD;&#xA;&#x9;&#x9;c0.058-0.144,0.095-0.313,0.095-0.512c0-0.452-0.106-0.772-0.272-1.002c-0.164-0.226-0.386-0.364-0.626-0.446&#xD;&#xA;&#x9;&#x9;c-0.041-0.167-0.125-0.353-0.288-0.522V1.831c0-0.454-0.2-1.215-1.538-1.215H9.261c-1.34,0-1.54,0.761-1.54,1.215v0.363&#xD;&#xA;&#x9;&#x9;C7.558,2.363,7.475,2.55,7.434,2.718C7.216,2.793,7.019,2.923,6.86,3.113C6.667,3.346,6.535,3.674,6.535,4.167&#xD;&#xA;&#x9;&#x9;c0,0.198,0.037,0.367,0.095,0.511c-0.015,0.025-0.028,0.05-0.04,0.075C5.967,5.01,4.887,5.458,3.838,5.905&#xD;&#xA;&#x9;&#x9;c-1.231,0.524-1.615,1.1-1.869,2.798c-0.249,1.661-0.424,2.888-0.572,4.737c-0.166,2.054-0.31,3.53-0.554,4.996&#xD;&#xA;&#x9;&#x9;c-0.215,1.286-0.4,1.991-0.522,2.457l-0.092,0.355C0.086,21.792,0,22.284,0,24.549c0,1.292,0.029,4.547,0.059,7.726&#xD;&#xA;&#x9;&#x9;c0.027,3.026,0.055,5.983,0.055,7.103c0,4.815,1.053,5.415,1.401,5.614c0.789,0.447,1.084,0.467,1.982,0.467h5.848&#xD;&#xA;&#x9;&#x9;c0.72,0,1.239-0.359,1.656-0.648c0.328-0.227,0.541-0.366,0.763-0.366c0.225,0,0.428,0.133,0.768,0.367&#xD;&#xA;&#x9;&#x9;c0.417,0.289,0.937,0.647,1.656,0.647h5.847c0.896,0,1.189-0.02,1.983-0.468C23.378,44.215,23.449,40.791,23.417,39.354z&#xD;&#xA;&#x9;&#x9; M7.541,9.743c-0.155,0.932-0.669,3.399-1.058,4.6c-0.415,1.289-0.563,1.438-0.781,1.455c-0.066,0.005-0.204,0.008-0.213,0.008&#xD;&#xA;&#x9;&#x9;c-0.042-0.583,0.122-3.885,0.433-5.129C6.266,9.304,6.514,9.21,6.777,9.109C7.116,8.98,7.395,8.935,7.56,8.918&#xD;&#xA;&#x9;&#x9;C7.589,9.083,7.604,9.369,7.541,9.743z"/>
</svg>