<svg version="1.2" baseProfile="tiny" id="EdgeSVG_lwwOw" x="0px" y="0px" width="23.422px" height="45.458px" viewBox="0 0 23.422 45.458" xmlns:xlink="http://www.w3.org/1999/xlink" xmlns="http://www.w3.org/2000/svg">
  <linearGradient id="SVGID_3_" gradientUnits="userSpaceOnUse" x1="1" y1="23.0371" x2="22.4219" y2="23.0371">
    <stop offset="0" style="stop-color:#000000;stop-opacity:0.07"/>
    <stop offset="0.1297" style="stop-color:#000000;stop-opacity:0.03"/>
    <stop offset="0.3107" style="stop-color:#000000;stop-opacity:0.05"/>
    <stop offset="0.5" style="stop-color:#FFFFFF;stop-opacity:0.05"/>
    <stop offset="0.6953" style="stop-color:#000000;stop-opacity:0.05"/>
    <stop offset="0.8989" style="stop-color:#000000;stop-opacity:0.03"/>
    <stop offset="1" style="stop-color:#000000;stop-opacity:0.07"/>
  </linearGradient>
  <path fill="url(#SVGID_3_)" d="M22.417,39.377c0.052,2.296-0.298,4.404-0.895,4.744c-0.597,0.337-0.708,0.337-1.488,0.337&#xD;&#xA;&#x9;&#x9;c-0.784,0-4.99,0-5.847,0c-0.857,0-1.38-1.015-2.424-1.015c-1.04,0-1.563,1.015-2.419,1.015c-0.857,0-5.065,0-5.848,0&#xD;&#xA;&#x9;&#x9;s-0.895,0-1.49-0.337c-0.596-0.34-0.894-2.447-0.894-4.744C1.113,37.081,1,27.07,1,24.549s0.113-2.71,0.226-3.162&#xD;&#xA;&#x9;&#x9;c0.113-0.452,0.339-1.204,0.604-2.786c0.263-1.581,0.412-3.199,0.564-5.081c0.15-1.882,0.338-3.162,0.564-4.668&#xD;&#xA;&#x9;&#x9;c0.225-1.505,0.488-1.693,1.271-2.027c1.598-0.68,3.27-1.365,3.27-1.365s-0.106-0.107,0-0.288C7.608,4.993,7.93,5.101,7.93,4.813&#xD;&#xA;&#x9;&#x9;S7.535,4.526,7.535,4.167c0-0.575,0.18-0.575,0.971-0.575c0.215,0,0.234-0.108,0.234-0.234S8.398,3.269,8.398,3.017&#xD;&#xA;&#x9;&#x9;c0-0.251,0.322-0.18,0.322-0.359c0-0.179,0-0.647,0-0.826c0-0.18,0.108-0.215,0.54-0.215s2.264,0,2.264,0s1.832,0,2.265,0&#xD;&#xA;&#x9;&#x9;c0.431,0,0.538,0.036,0.538,0.215c0,0.179,0,0.647,0,0.826c0,0.18,0.323,0.108,0.323,0.359c0,0.252-0.34,0.215-0.34,0.341&#xD;&#xA;&#x9;&#x9;s0.017,0.234,0.232,0.234c0.791,0,0.971,0,0.971,0.575c0,0.359-0.395,0.359-0.395,0.646s0.322,0.18,0.431,0.359&#xD;&#xA;&#x9;&#x9;c0.107,0.18,0,0.288,0,0.288s1.105,0.617,2.552,1.581c1.191,0.794,1.342,0.908,1.718,1.208c0.376,0.301,0.489,0.377,0.716,1.393&#xD;&#xA;&#x9;&#x9;c0.226,1.016,0.602,3.162,0.864,5.119c0.265,1.957,0.754,5.081,0.717,7.754c-0.037,2.672,0.037,5.946,0.112,9.185&#xD;&#xA;&#x9;&#x9;C22.304,34.937,22.379,37.723,22.417,39.377z M6.421,8.175c-0.792,0.301-1.13,0.903-1.469,2.258&#xD;&#xA;&#x9;&#x9;c-0.339,1.355-0.527,4.931-0.452,5.533c0.074,0.602,0.34,0.903,1.281,0.828c0.941-0.076,1.242-0.866,1.654-2.146&#xD;&#xA;&#x9;&#x9;c0.414-1.28,0.941-3.839,1.092-4.743s0.038-1.995-0.752-1.995C7.775,7.912,7.21,7.874,6.421,8.175z"/>
  <linearGradient id="SVGID_4_" gradientUnits="userSpaceOnUse" x1="11.7109" y1="1.6147" x2="11.7109" y2="44.2085">
    <stop offset="0" style="stop-color:#FFFFFF;stop-opacity:0"/>
    <stop offset="0.1448" style="stop-color:#FFFFFF;stop-opacity:0.05"/>
    <stop offset="0.7929" style="stop-color:#FFFFFF;stop-opacity:0.05"/>
    <stop offset="0.8567" style="stop-color:#FFFFFF;stop-opacity:0.05"/>
    <stop offset="1" style="stop-color:#FFFFFF;stop-opacity:0"/>
  </linearGradient>
  <path fill="url(#SVGID_4_)" d="M14.188,44.208c-0.33,0-0.615-0.197-0.945-0.426c-0.4-0.276-0.853-0.589-1.479-0.589&#xD;&#xA;&#x9;&#x9;c-0.623,0-1.075,0.313-1.474,0.589c-0.331,0.229-0.616,0.426-0.945,0.426H3.497c-0.767,0-0.829,0-1.367-0.305&#xD;&#xA;&#x9;&#x9;c-0.381-0.217-0.767-1.842-0.767-4.526c0-1.121-0.027-4.083-0.055-7.113c-0.029-3.175-0.059-6.425-0.059-7.715&#xD;&#xA;&#x9;&#x9;c0-2.267,0.091-2.615,0.188-2.983l0.092-0.355c0.128-0.488,0.322-1.226,0.546-2.568c0.252-1.511,0.398-3.015,0.567-5.102&#xD;&#xA;&#x9;&#x9;c0.145-1.809,0.316-3.016,0.563-4.651c0.216-1.448,0.444-1.545,1.122-1.834c1.597-0.68,3.267-1.363,3.267-1.363L7.939,5.55&#xD;&#xA;&#x9;&#x9;c0,0,0.24-0.384,0.24-0.737c0-0.255-0.164-0.389-0.273-0.477c-0.1-0.082-0.121-0.105-0.121-0.169c0-0.325,0-0.325,0.721-0.325&#xD;&#xA;&#x9;&#x9;c0.181,0,0.484-0.063,0.484-0.484c0-0.219-0.021-1.742-0.021-1.742l5.126-0.001c0,0-0.035,1.524-0.035,1.743&#xD;&#xA;&#x9;&#x9;c0,0.421,0.303,0.484,0.482,0.484c0.721,0,0.721,0,0.721,0.325c0,0.064-0.021,0.088-0.121,0.169&#xD;&#xA;&#x9;&#x9;c-0.109,0.088-0.273,0.222-0.273,0.477c0,0.353,0.166,0.708,0.166,0.708l0.393,0.157c0.011,0.006,1.115,0.624,2.535,1.571&#xD;&#xA;&#x9;&#x9;c1.186,0.791,1.331,0.9,1.7,1.195c0.347,0.277,0.425,0.34,0.628,1.252c0.216,0.974,0.591,3.091,0.86,5.098l0.103,0.744&#xD;&#xA;&#x9;&#x9;c0.272,1.957,0.645,4.636,0.612,6.973c-0.038,2.726,0.042,6.162,0.112,9.194l0.188,7.677c0.057,2.49-0.355,4.286-0.769,4.521&#xD;&#xA;&#x9;&#x9;c-0.538,0.304-0.601,0.304-1.364,0.304H14.188z M7.71,7.66c-0.192,0-0.713,0.027-1.378,0.282C5.39,8.299,5.035,9.072,4.71,10.373&#xD;&#xA;&#x9;&#x9;c-0.354,1.413-0.533,5.025-0.458,5.625c0.09,0.732,0.48,1.059,1.266,1.059c0.088,0,0.182-0.004,0.283-0.012&#xD;&#xA;&#x9;&#x9;c1.156-0.093,1.488-1.124,1.873-2.318c0.406-1.256,0.939-3.815,1.101-4.778C8.827,9.63,8.963,8.549,8.485,7.985&#xD;&#xA;&#x9;&#x9;c-0.18-0.212-0.425-0.324-0.71-0.324L7.71,7.66z"/>
  <linearGradient id="SVGID_5_" gradientUnits="userSpaceOnUse" x1="11.7119" y1="1.6172" x2="11.7119" y2="44.4575">
    <stop offset="0" style="stop-color:#000000;stop-opacity:0.05"/>
    <stop offset="0.009" style="stop-color:#000000;stop-opacity:0.1"/>
    <stop offset="0.0241" style="stop-color:#000000;stop-opacity:0.08"/>
    <stop offset="0.0332" style="stop-color:#000000;stop-opacity:0.15"/>
    <stop offset="0.04" style="stop-color:#000000;stop-opacity:0.0863"/>
    <stop offset="0.0407" style="stop-color:#000000;stop-opacity:0.08"/>
    <stop offset="0.0528" style="stop-color:#000000;stop-opacity:0.15"/>
    <stop offset="0.083" style="stop-color:#000000;stop-opacity:0.08"/>
    <stop offset="0.0935" style="stop-color:#000000;stop-opacity:0.15"/>
    <stop offset="0.0997" style="stop-color:#000000;stop-opacity:0.14"/>
    <stop offset="0.1357" style="stop-color:#000000;stop-opacity:0.0819"/>
    <stop offset="0.1704" style="stop-color:#000000;stop-opacity:0.15"/>
    <stop offset="0.3741" style="stop-color:#000000;stop-opacity:0"/>
    <stop offset="0.7602" style="stop-color:#000000;stop-opacity:0.15"/>
    <stop offset="0.9367" style="stop-color:#000000;stop-opacity:0.09"/>
    <stop offset="1" style="stop-color:#000000;stop-opacity:0.2"/>
  </linearGradient>
  <path fill="url(#SVGID_5_)" d="M22.419,39.377c-0.04-1.649-0.12-4.439-0.189-7.68c-0.08-3.24-0.15-6.51-0.11-9.18&#xD;&#xA;&#x9;&#x9;c0.03-2.67-0.46-5.8-0.72-7.76c-0.261-1.95-0.641-4.1-0.86-5.11c-0.229-1.02-0.34-1.1-0.72-1.4c-0.38-0.3-0.53-0.41-1.721-1.21&#xD;&#xA;&#x9;&#x9;c-1.439-0.96-2.55-1.58-2.55-1.58s0.11-0.1,0-0.28c-0.109-0.18-0.43-0.08-0.43-0.36c0-0.29,0.39-0.29,0.39-0.65&#xD;&#xA;&#x9;&#x9;c0-0.58-0.18-0.58-0.97-0.58c-0.21,0-0.229-0.1-0.229-0.23s0.34-0.09,0.34-0.34s-0.32-0.18-0.32-0.36v-0.83&#xD;&#xA;&#x9;&#x9;c0-0.18-0.11-0.21-0.54-0.21s-2.26,0-2.26,0s-1.84,0-2.271,0c-0.43,0-0.54,0.03-0.54,0.21v0.83c0,0.18-0.319,0.11-0.319,0.36&#xD;&#xA;&#x9;&#x9;s0.34,0.21,0.34,0.34s-0.021,0.23-0.23,0.23c-0.79,0-0.97,0-0.97,0.58c0,0.36,0.39,0.36,0.39,0.65c0,0.28-0.319,0.18-0.43,0.36&#xD;&#xA;&#x9;&#x9;c-0.11,0.18,0,0.28,0,0.28s-1.67,0.69-3.27,1.37c-0.78,0.33-1.051,0.52-1.271,2.02c-0.229,1.51-0.42,2.79-0.57,4.67&#xD;&#xA;&#x9;&#x9;c-0.149,1.88-0.3,3.5-0.56,5.08c-0.26,1.59-0.49,2.34-0.6,2.79c-0.12,0.45-0.23,0.64-0.23,3.16c0,2.521,0.11,12.53,0.11,14.83&#xD;&#xA;&#x9;&#x9;c0,2.301,0.3,4.4,0.899,4.74c0.59,0.34,0.71,0.34,1.49,0.34h5.85c0.851,0,1.37-1.01,2.41-1.01c1.051,0,1.57,1.01,2.431,1.01h5.85&#xD;&#xA;&#x9;&#x9;c0.78,0,0.89,0,1.48-0.34C22.119,43.777,22.469,41.678,22.419,39.377z M2.989,15.837c0.18-1.84,0.75-7.22,1-7.81&#xD;&#xA;&#x9;&#x9;s2.56-1.31,3.18-1.47c0.63-0.15,1.66,0.09,1.82,1c0.149,0.91-0.29,4.56-0.97,6.5c-0.69,1.94-0.891,2.23-1.25,2.53&#xD;&#xA;&#x9;&#x9;c-0.351,0.29-2.57,1.6-3.131,1.35C3.079,17.688,2.799,17.688,2.989,15.837z"/>
  <linearGradient id="SVGID_6_" gradientUnits="userSpaceOnUse" x1="11.5244" y1="1.6172" x2="11.5244" y2="5.4575">
    <stop offset="0" style="stop-color:#FFFFFF;stop-opacity:0.1"/>
    <stop offset="0.0181" style="stop-color:#FFFFFF;stop-opacity:0.45"/>
    <stop offset="0.0215" style="stop-color:#FFFFFF;stop-opacity:0.4183"/>
    <stop offset="0.0664" style="stop-color:#FFFFFF;stop-opacity:0"/>
    <stop offset="0.2489" style="stop-color:#FFFFFF;stop-opacity:0"/>
    <stop offset="0.2715" style="stop-color:#FFFFFF;stop-opacity:0"/>
    <stop offset="0.3409" style="stop-color:#FFFFFF;stop-opacity:0.35"/>
    <stop offset="0.3635" style="stop-color:#FFFFFF;stop-opacity:0.1"/>
    <stop offset="0.4751" style="stop-color:#FFFFFF;stop-opacity:0"/>
    <stop offset="0.5158" style="stop-color:#FFFFFF;stop-opacity:0.35"/>
    <stop offset="0.6501" style="stop-color:#FFFFFF;stop-opacity:0.0343"/>
    <stop offset="0.8492" style="stop-color:#FFFFFF;stop-opacity:0"/>
    <stop offset="0.9035" style="stop-color:#FFFFFF;stop-opacity:0.35"/>
    <stop offset="0.9698" style="stop-color:#FFFFFF;stop-opacity:0"/>
  </linearGradient>
  <path fill="url(#SVGID_6_)" d="M15.549,5.458h-8.05c0,0-0.11-0.1,0-0.28c0.11-0.18,0.43-0.08,0.43-0.36c0-0.29-0.39-0.29-0.39-0.65&#xD;&#xA;&#x9;&#x9;c0-0.58,0.18-0.58,0.97-0.58c0.21,0,0.23-0.1,0.23-0.23s-0.34-0.09-0.34-0.34s0.319-0.18,0.319-0.36v-0.83&#xD;&#xA;&#x9;&#x9;c0-0.18,0.11-0.21,0.54-0.21c0.431,0,2.271,0,2.271,0s1.83,0,2.26,0s0.54,0.03,0.54,0.21v0.83c0,0.18,0.32,0.11,0.32,0.36&#xD;&#xA;&#x9;&#x9;s-0.34,0.21-0.34,0.34s0.02,0.23,0.229,0.23c0.79,0,0.97,0,0.97,0.58c0,0.36-0.39,0.36-0.39,0.65c0,0.28,0.32,0.18,0.43,0.36&#xD;&#xA;&#x9;&#x9;C15.659,5.357,15.549,5.458,15.549,5.458z"/>
  <linearGradient id="SVGID_7_" gradientUnits="userSpaceOnUse" x1="5.5303" y1="5.4575" x2="5.5303" y2="21.3872">
    <stop offset="0.6848" style="stop-color:#FFFFFF;stop-opacity:0"/>
    <stop offset="0.7722" style="stop-color:#FFFFFF;stop-opacity:0.25"/>
  </linearGradient>
  <path fill="url(#SVGID_7_)" d="M7.499,5.458c0,0-1.67,0.69-3.27,1.37c-0.78,0.33-1.051,0.52-1.271,2.02&#xD;&#xA;&#x9;&#x9;c-0.229,1.51-0.42,2.79-0.57,4.67c-0.149,1.88-0.3,3.5-0.56,5.08c-0.26,1.59-0.49,2.34-0.6,2.79c0.71-1.52,5.409-3.05,6.27-3.8&#xD;&#xA;&#x9;&#x9;s2.271-8.56,2.33-9.37S8.77,5.967,7.499,5.458z M6.77,16.587c-0.351,0.29-2.57,1.6-3.131,1.35c-0.56-0.25-0.84-0.25-0.649-2.1&#xD;&#xA;&#x9;&#x9;c0.18-1.84,0.75-7.22,1-7.81s2.56-1.31,3.18-1.47c0.63-0.15,1.66,0.09,1.82,1c0.149,0.91-0.29,4.56-0.97,6.5&#xD;&#xA;&#x9;&#x9;C7.329,15.998,7.129,16.287,6.77,16.587z"/>
  <linearGradient id="SVGID_8_" gradientUnits="userSpaceOnUse" x1="5.9736" y1="6.5156" x2="5.9736" y2="17.9692">
    <stop offset="0.092" style="stop-color:#000000;stop-opacity:0.2"/>
    <stop offset="0.6757" style="stop-color:#000000;stop-opacity:0.05"/>
    <stop offset="0.8929" style="stop-color:#FFFFFF;stop-opacity:0.05"/>
    <stop offset="1" style="stop-color:#FFFFFF;stop-opacity:0.25"/>
  </linearGradient>
  <path fill="url(#SVGID_8_)" d="M8.989,7.557c-0.16-0.91-1.19-1.15-1.82-1c-0.62,0.16-2.93,0.88-3.18,1.47s-0.82,5.97-1,7.81&#xD;&#xA;&#x9;&#x9;c-0.19,1.85,0.09,1.85,0.649,2.1c0.561,0.25,2.78-1.06,3.131-1.35c0.359-0.3,0.56-0.59,1.25-2.53&#xD;&#xA;&#x9;&#x9;C8.699,12.117,9.139,8.467,8.989,7.557z M8.529,9.907c-0.15,0.9-0.681,3.46-1.09,4.74c-0.42,1.28-0.721,2.07-1.66,2.15&#xD;&#xA;&#x9;&#x9;c-0.94,0.07-1.2-0.23-1.28-0.83c-0.07-0.6,0.11-4.18,0.45-5.53c0.34-1.36,0.68-1.96,1.47-2.26c0.79-0.3,1.36-0.27,1.36-0.27&#xD;&#xA;&#x9;&#x9;C8.569,7.907,8.679,9.007,8.529,9.907z"/>
  <linearGradient id="SVGID_9_" gradientUnits="userSpaceOnUse" x1="11.7998" y1="40.4072" x2="11.7998" y2="44.377">
    <stop offset="0" style="stop-color:#000000;stop-opacity:0.1"/>
    <stop offset="0.0896" style="stop-color:#000000;stop-opacity:0.0955"/>
    <stop offset="1" style="stop-color:#000000;stop-opacity:0.05"/>
  </linearGradient>
  <path fill="url(#SVGID_9_)" d="M14.579,44.377h-0.81c-0.641-0.239-1.141-0.93-2.011-0.93c-0.859,0-1.359,0.69-1.989,0.93H9.02&#xD;&#xA;&#x9;&#x9;c1.56,0,1.76-3.97,2.689-3.97S12.959,44.377,14.579,44.377z"/>
</svg>