<svg version="1.2" baseProfile="tiny" id="EdgeSVG_WGV6e" x="0px" y="0px" width="43.52px" height="206.461px" viewBox="0 0 43.52 206.461" xmlns:xlink="http://www.w3.org/1999/xlink" xmlns="http://www.w3.org/2000/svg">
  <linearGradient id="SVGID_71_" gradientUnits="userSpaceOnUse" x1="21.7583" y1="135.3442" x2="21.7583" y2="140.5039">
    <stop offset="0.0061" style="stop-color:#FFFFFF;stop-opacity:0.35"/>
    <stop offset="0.1098" style="stop-color:#FFFFFF;stop-opacity:0.1"/>
    <stop offset="1" style="stop-color:#FFFFFF;stop-opacity:0"/>
  </linearGradient>
  <path style="fill:url(#SVGID_71_);" d="M34.809,135.945c0-0.362,0-0.601-0.241-0.601H8.95c-0.242,0-0.242,0.239-0.242,0.601v3.959&#xD;&#xA;&#x9;&#x9;c0,0.361,0,0.6,0.242,0.6h25.618c0.241,0,0.241-0.238,0.241-0.6V135.945z"/>
  <radialGradient id="SVGID_72_" cx="21.8188" cy="117.6152" r="7.8811" gradientUnits="userSpaceOnUse">
    <stop offset="0.0305" style="stop-color:#FFFFFF;stop-opacity:0.9"/>
    <stop offset="0.3841" style="stop-color:#FFFFFF;stop-opacity:0.4"/>
    <stop offset="1" style="stop-color:#FFFFFF;stop-opacity:0"/>
  </radialGradient>
  <path style="fill:url(#SVGID_72_);" d="M34.309,131.416c0,0.132-0.108,0.24-0.24,0.24H9.449c-0.132,0-0.24-0.108-0.24-0.24v-16.32&#xD;&#xA;&#x9;&#x9;c0-0.132,0.108-0.24,0.24-0.24h24.62c0.132,0,0.24,0.108,0.24,0.24V131.416z"/>
  <radialGradient id="SVGID_73_" cx="21.6987" cy="125.4155" r="6.895" gradientUnits="userSpaceOnUse">
    <stop offset="0.0305" style="stop-color:#FFFFFF;stop-opacity:0.9"/>
    <stop offset="0.3841" style="stop-color:#FFFFFF;stop-opacity:0.4"/>
    <stop offset="1" style="stop-color:#FFFFFF;stop-opacity:0"/>
  </radialGradient>
  <path style="fill:url(#SVGID_73_);" d="M34.309,131.416c0,0.132-0.108,0.24-0.24,0.24H9.449c-0.132,0-0.24-0.108-0.24-0.24v-16.32&#xD;&#xA;&#x9;&#x9;c0-0.132,0.108-0.24,0.24-0.24h24.62c0.132,0,0.24,0.108,0.24,0.24V131.416z"/>
  <radialGradient id="SVGID_74_" cx="21.7588" cy="120.9155" r="12.0553" gradientUnits="userSpaceOnUse">
    <stop offset="0.0305" style="stop-color:#FFFFFF;stop-opacity:0.9"/>
    <stop offset="0.3841" style="stop-color:#FFFFFF;stop-opacity:0.4"/>
    <stop offset="1" style="stop-color:#FFFFFF;stop-opacity:0"/>
  </radialGradient>
  <path style="fill:url(#SVGID_74_);" d="M34.309,131.416c0,0.132-0.108,0.24-0.24,0.24H9.449c-0.132,0-0.24-0.108-0.24-0.24v-16.32&#xD;&#xA;&#x9;&#x9;c0-0.132,0.108-0.24,0.24-0.24h24.62c0.132,0,0.24,0.108,0.24,0.24V131.416z"/>
  <radialGradient id="SVGID_75_" cx="21.7588" cy="123.2554" r="14.5753" gradientUnits="userSpaceOnUse">
    <stop offset="0" style="stop-color:#FFFFFF;stop-opacity:0.4"/>
    <stop offset="1" style="stop-color:#FFFFFF;stop-opacity:0"/>
  </radialGradient>
  <path style="fill:url(#SVGID_75_);" d="M34.309,131.416c0,0.132-0.108,0.24-0.24,0.24H9.449c-0.132,0-0.24-0.108-0.24-0.24v-16.32&#xD;&#xA;&#x9;&#x9;c0-0.132,0.108-0.24,0.24-0.24h24.62c0.132,0,0.24,0.108,0.24,0.24V131.416z"/>
</svg>