<svg version="1.2" baseProfile="tiny" viewBox="0 0 30.000 30.000" xmlns:xlink="http://www.w3.org/1999/xlink" xmlns="http://www.w3.org/2000/svg">
<path style="fill:#ffffff;" d="M15,0C6.716,0,0,6.716,0,15c0,8.285,6.716,15,15,15c8.284,0,15-6.715,15-15C30,6.716,23.284,0,15,0z     M26.434,23.579C23.826,27.05,19.676,29.295,15,29.295C7.105,29.295,0.706,22.894,0.706,15C0.706,7.105,7.105,0.706,15,0.706    c7.894,0,14.294,6.399,14.294,14.294c0,3.123-1.005,6.008-2.703,8.359C26.539,23.434,26.488,23.508,26.434,23.579z"/>
</svg>