<svg version="1.2" baseProfile="tiny" viewBox="0 0 110.0 110.0" xmlns:xlink="http://www.w3.org/1999/xlink" xmlns="http://www.w3.org/2000/svg">
<path style="fill:#ffffff;" d="M108.4996,55.0C108.4996,84.5471,84.5471,108.4996,55.0,108.4996C25.4529,108.4996,1.5004,84.5471,1.5004,55.0C1.5004,25.4529,25.4529,1.5004,55.0,1.5004C84.5471,1.5004,108.4996,25.4529,108.4996,55.0M40.1203,102.212L40.1203,7.788C20.075,14.1196,5.5022,32.8889,5.5022,55.0C5.5022,77.1111,20.075,95.8804,40.1203,102.212M104.4978,55.0C104.4978,27.7068,82.2932,5.5022,55.0,5.5022C50.4229,5.5022,45.991,6.1292,41.7813,7.2963C43.4533,6.8354,45.1605,6.4603,46.8963,6.1732L46.8963,38.8025L63.3897,38.8025L63.3897,6.2227C65.6062,6.6033,67.7743,7.1236,69.8797,7.788L69.8797,48.0975C69.6003,48.2229,69.333,48.3824,69.0767,48.5683L69.0767,43.0133C69.0767,41.6372,67.9514,40.5119,66.5764,40.5119L43.1937,40.5119L43.1937,40.5119C40.6923,41.6372,40.6923,43.0133,40.6923,40.5119L40.6923,66.3949C40.6923,67.771,41.8176,68.8963,43.1937,68.8963L66.5753,68.8963C67.9514,68.8963,69.0767,67.771,69.0767,66.3949L69.0767,61.7397C69.333,61.9267,69.6003,62.0906,69.8786,62.216L69.8786,102.212C67.7732,102.8764,65.6051,103.3967,63.3897,103.7762L63.3897,70.84L46.8963,70.84L46.8963,103.8279L46.8963,103.8279C45.1605,103.5397,43.4533,103.1657,41.7813,102.7037C45.991,103.8719,50.4229,104.4989,55.0,104.4989C82.2932,104.4978,104.4978,82.2932,104.4978,55.0M41.7791,102.7026C41.2236,102.5486,40.6714,102.3847,40.1236,102.2131C40.6714,102.3847,41.2236,102.5486,41.7791,102.7026M41.7791,7.2974C41.2236,7.4514,40.6714,7.6142,40.1236,7.7869C40.6714,7.6142,41.2236,7.4503,41.7791,7.2974Z"/>
</svg>