<svg version="1.2" baseProfile="tiny" id="EdgeSVG_lzWcX" x="0px" y="0px" width="47.558px" height="39.525px" viewBox="0 0 47.558 39.525" xmlns:xlink="http://www.w3.org/1999/xlink" xmlns="http://www.w3.org/2000/svg">
  <linearGradient id="SVGID_2_" gradientUnits="userSpaceOnUse" x1="35.3096" y1="7.2397" x2="41.6018" y2="12.5195">
    <stop offset="0.2086" style="stop-color:#FFFFFF;stop-opacity:0"/>
    <stop offset="0.2615" style="stop-color:#FFFFFF;stop-opacity:0.0071"/>
    <stop offset="0.5828" style="stop-color:#FFFFFF;stop-opacity:0.05"/>
    <stop offset="0.5914" style="stop-color:#E8E9EA;stop-opacity:0.05"/>
    <stop offset="0.6186" style="stop-color:#AEB1B3;stop-opacity:0.05"/>
    <stop offset="0.6443" style="stop-color:#828486;stop-opacity:0.05"/>
    <stop offset="0.6677" style="stop-color:#5F6062;stop-opacity:0.05"/>
    <stop offset="0.6886" style="stop-color:#424243;stop-opacity:0.05"/>
    <stop offset="0.706" style="stop-color:#1A1A1B;stop-opacity:0.05"/>
    <stop offset="0.7178" style="stop-color:#000000;stop-opacity:0.05"/>
    <stop offset="0.7478" style="stop-color:#0F0F10;stop-opacity:0.05"/>
    <stop offset="0.7758" style="stop-color:#2D2D2E;stop-opacity:0.05"/>
    <stop offset="0.8031" style="stop-color:#49494B;stop-opacity:0.05"/>
    <stop offset="0.8299" style="stop-color:#606164;stop-opacity:0.05"/>
    <stop offset="0.8563" style="stop-color:#7B7D7F;stop-opacity:0.05"/>
    <stop offset="0.8825" style="stop-color:#9B9D9F;stop-opacity:0.05"/>
    <stop offset="0.9085" style="stop-color:#C3C5C7;stop-opacity:0.05"/>
    <stop offset="0.9338" style="stop-color:#F2F2F3;stop-opacity:0.05"/>
    <stop offset="0.9387" style="stop-color:#FFFFFF;stop-opacity:0.05"/>
    <stop offset="0.9693" style="stop-color:#FFFFFF;stop-opacity:0.05"/>
  </linearGradient>
  <path fill="url(#SVGID_2_)" d="M29.325,14.372l11.74-12.993c0.356-0.438,1.007-0.506,1.445-0.15l3.668,2.978&#xD;&#xA;&#x9;&#x9;c0.438,0.356,0.506,1.007,0.15,1.446l-6.772,9.304l-1.871-0.585L29.325,14.372z"/>
  <linearGradient id="SVGID_3_" gradientUnits="userSpaceOnUse" x1="35.0117" y1="7.0918" x2="41.649" y2="12.2774">
    <stop offset="0.2086" style="stop-color:#FFFFFF;stop-opacity:0"/>
    <stop offset="0.2615" style="stop-color:#FFFFFF;stop-opacity:0.0071"/>
    <stop offset="0.5828" style="stop-color:#FFFFFF;stop-opacity:0.05"/>
    <stop offset="0.908" style="stop-color:#FFFFFF;stop-opacity:0.2"/>
  </linearGradient>
  <path fill="url(#SVGID_3_)" d="M29.325,14.372l11.74-12.993c0.356-0.438,1.007-0.506,1.445-0.15l3.668,2.978&#xD;&#xA;&#x9;&#x9;c0.438,0.356,0.506,1.007,0.15,1.446l-6.772,9.304l-1.871-0.585L29.325,14.372z"/>
  <linearGradient id="SVGID_4_" gradientUnits="userSpaceOnUse" x1="37.9414" y1="14.9565" x2="37.9414" y2="1">
    <stop offset="0.0061" style="stop-color:#000000;stop-opacity:0.1"/>
    <stop offset="0.0717" style="stop-color:#5A5B5E;stop-opacity:0.0943"/>
    <stop offset="0.1451" style="stop-color:#848588;stop-opacity:0.088"/>
    <stop offset="0.2197" style="stop-color:#A6A8AB;stop-opacity:0.0815"/>
    <stop offset="0.2938" style="stop-color:#C5C7C9;stop-opacity:0.0751"/>
    <stop offset="0.3674" style="stop-color:#DDDEDF;stop-opacity:0.0687"/>
    <stop offset="0.4404" style="stop-color:#EEEFEF;stop-opacity:0.0623"/>
    <stop offset="0.5125" style="stop-color:#F9F9F9;stop-opacity:0.0561"/>
    <stop offset="0.5828" style="stop-color:#FFFFFF;stop-opacity:0.05"/>
    <stop offset="0.908" style="stop-color:#FFFFFF;stop-opacity:0.2"/>
  </linearGradient>
  <path fill="url(#SVGID_4_)" d="M29.325,14.372l11.74-12.993c0.356-0.438,1.007-0.506,1.445-0.15l3.668,2.978&#xD;&#xA;&#x9;&#x9;c0.438,0.356,0.506,1.007,0.15,1.446l-6.772,9.304l-1.871-0.585L29.325,14.372z"/>
  <linearGradient id="SVGID_5_" gradientUnits="userSpaceOnUse" x1="37.9414" y1="14.9565" x2="37.9414" y2="1">
    <stop offset="0.0429" style="stop-color:#000000;stop-opacity:0.1"/>
    <stop offset="0.0439" style="stop-color:#080808;stop-opacity:0.0998"/>
    <stop offset="0.0797" style="stop-color:#66676A;stop-opacity:0.0914"/>
    <stop offset="0.1148" style="stop-color:#919396;stop-opacity:0.0833"/>
    <stop offset="0.1485" style="stop-color:#B6B8BA;stop-opacity:0.0754"/>
    <stop offset="0.1804" style="stop-color:#D4D6D7;stop-opacity:0.068"/>
    <stop offset="0.21" style="stop-color:#EAEBEC;stop-opacity:0.0611"/>
    <stop offset="0.2367" style="stop-color:#F8F8F8;stop-opacity:0.0549"/>
    <stop offset="0.2577" style="stop-color:#FFFFFF;stop-opacity:0.05"/>
    <stop offset="0.908" style="stop-color:#FFFFFF;stop-opacity:0.2"/>
  </linearGradient>
  <path fill="url(#SVGID_5_)" d="M29.325,14.372l11.74-12.993c0.356-0.438,1.007-0.506,1.445-0.15l3.668,2.978&#xD;&#xA;&#x9;&#x9;c0.438,0.356,0.506,1.007,0.15,1.446l-6.772,9.304l-1.871-0.585L29.325,14.372z"/>
  <linearGradient id="SVGID_6_" gradientUnits="userSpaceOnUse" x1="43.6777" y1="3.5186" x2="44.329" y2="2.7143">
    <stop offset="0.1227" style="stop-color:#000000;stop-opacity:0.01"/>
    <stop offset="0.1348" style="stop-color:#3E3E3F;stop-opacity:0.0094"/>
    <stop offset="0.1731" style="stop-color:#797B7E;stop-opacity:0.0074"/>
    <stop offset="0.2093" style="stop-color:#A5A7AA;stop-opacity:0.0054"/>
    <stop offset="0.2424" style="stop-color:#CACCCE;stop-opacity:0.0037"/>
    <stop offset="0.2717" style="stop-color:#E5E6E7;stop-opacity:0.0022"/>
    <stop offset="0.2962" style="stop-color:#F6F6F7;stop-opacity:8.769762e-004"/>
    <stop offset="0.3129" style="stop-color:#FFFFFF;stop-opacity:0"/>
    <stop offset="0.3311" style="stop-color:#FFFFFF;stop-opacity:0.0424"/>
    <stop offset="0.4417" style="stop-color:#FFFFFF;stop-opacity:0.3"/>
  </linearGradient>
  <path fill="url(#SVGID_6_)" d="M41.049,1.378c0.356-0.438,1.007-0.506,1.445-0.15l3.668,2.978c0.438,0.356,0.506,1.007,0.15,1.446&#xD;&#xA;&#x9;&#x9;L41.049,1.378z"/>
  <linearGradient id="SVGID_7_" gradientUnits="userSpaceOnUse" x1="43.7236" y1="3.4624" x2="44.2841" y2="2.7703">
    <stop offset="0.2761" style="stop-color:#FFFFFF;stop-opacity:0.3"/>
    <stop offset="0.6871" style="stop-color:#FFFFFF;stop-opacity:0"/>
  </linearGradient>
  <path fill="url(#SVGID_7_)" d="M41.463,1.622c0.307-0.377,0.865-0.435,1.243-0.129l3.154,2.562&#xD;&#xA;&#x9;&#x9;c0.377,0.306,0.435,0.866,0.129,1.243L41.463,1.622z"/>
  <linearGradient id="SVGID_8_" gradientUnits="userSpaceOnUse" x1="21.6475" y1="17.1758" x2="21.6475" y2="14.3711">
    <stop offset="0" style="stop-color:#FFFFFF;stop-opacity:0"/>
    <stop offset="0.1288" style="stop-color:#000000;stop-opacity:0.08"/>
    <stop offset="0.5701" style="stop-color:#B8B8B8;stop-opacity:0.0219"/>
    <stop offset="0.7362" style="stop-color:#FFFFFF;stop-opacity:0"/>
  </linearGradient>
  <path fill="url(#SVGID_8_)" d="M42.264,16.616c-0.163,0.453-0.5,0.672-1.145,0.504l-3.496-1.001H2.25&#xD;&#xA;&#x9;&#x9;c-0.688,0-1.25-0.393-1.25-0.874c0-0.48,0.563-0.874,1.25-0.874l35.436,0l3.767,1.148C42.118,15.736,42.396,16.247,42.264,16.616z"/>
  <linearGradient id="SVGID_9_" gradientUnits="userSpaceOnUse" x1="21.7207" y1="16.3921" x2="21.7207" y2="14.4785">
    <stop offset="0" style="stop-color:#FFFFFF;stop-opacity:0.3"/>
    <stop offset="0.7362" style="stop-color:#FFFFFF;stop-opacity:0.8"/>
  </linearGradient>
  <path fill="url(#SVGID_9_)" d="M42.227,16.246c0,0.422-0.64-0.184-1.239-0.358l-3.364-1.001H2.453c-0.681,0-1.239,0.78-1.239,0.358&#xD;&#xA;&#x9;&#x9;c0-0.421,0.558-0.766,1.239-0.766l35.17,0l3.364,1.001C41.686,15.678,42.227,15.975,42.227,16.246z"/>
  <linearGradient id="SVGID_10_" gradientUnits="userSpaceOnUse" x1="40.1836" y1="27.3218" x2="2.3213" y2="27.3218">
    <stop offset="0" style="stop-color:#FFFFFF;stop-opacity:0"/>
    <stop offset="0.043" style="stop-color:#FBFBFB;stop-opacity:0.0061"/>
    <stop offset="0.0868" style="stop-color:#EFEFEF;stop-opacity:0.0124"/>
    <stop offset="0.1309" style="stop-color:#DADADA;stop-opacity:0.0187"/>
    <stop offset="0.1754" style="stop-color:#BEBEBE;stop-opacity:0.0251"/>
    <stop offset="0.22" style="stop-color:#999999;stop-opacity:0.0315"/>
    <stop offset="0.2649" style="stop-color:#6C6C6C;stop-opacity:0.0379"/>
    <stop offset="0.3091" style="stop-color:#373737;stop-opacity:0.0442"/>
    <stop offset="0.3497" style="stop-color:#000000;stop-opacity:0.05"/>
    <stop offset="0.4284" style="stop-color:#040404;stop-opacity:0.0439"/>
    <stop offset="0.5097" style="stop-color:#111111;stop-opacity:0.0377"/>
    <stop offset="0.5922" style="stop-color:#252525;stop-opacity:0.0314"/>
    <stop offset="0.6755" style="stop-color:#424242;stop-opacity:0.025"/>
    <stop offset="0.7594" style="stop-color:#686868;stop-opacity:0.0185"/>
    <stop offset="0.844" style="stop-color:#959595;stop-opacity:0.012"/>
    <stop offset="0.9273" style="stop-color:#CACACA;stop-opacity:0.0056"/>
    <stop offset="1" style="stop-color:#FFFFFF;stop-opacity:0"/>
  </linearGradient>
  <path fill="url(#SVGID_10_)" d="M2.321,16.119L2.55,17.57c0,0.93,2.078,14.609,8.232,18.802c0.185,0.15,0.106,0.307-0.048,0.343&#xD;&#xA;&#x9;&#x9;c-0.664,0.134-1.816,0.544-1.816,1.811h23.617c0-1.277-1.405-1.703-2.002-1.828c-0.191-0.065-0.223-0.237-0.07-0.34&#xD;&#xA;&#x9;&#x9;c4.924-3.479,6.995-13.488,8.045-17.141c0.457-1.594,1.676-2.371,1.676-2.371l-2.467-0.726H2.321z"/>
  <linearGradient id="SVGID_11_" gradientUnits="userSpaceOnUse" x1="21.252" y1="38.5249" x2="21.252" y2="16.1191">
    <stop offset="0" style="stop-color:#000000;stop-opacity:0.2"/>
    <stop offset="0.0015" style="stop-color:#040404;stop-opacity:0.1758"/>
    <stop offset="0.003" style="stop-color:#111111;stop-opacity:0.1508"/>
    <stop offset="0.0046" style="stop-color:#252525;stop-opacity:0.1254"/>
    <stop offset="0.0061" style="stop-color:#424242;stop-opacity:0.0998"/>
    <stop offset="0.0077" style="stop-color:#686868;stop-opacity:0.074"/>
    <stop offset="0.0093" style="stop-color:#959595;stop-opacity:0.048"/>
    <stop offset="0.0109" style="stop-color:#CACACA;stop-opacity:0.0224"/>
    <stop offset="0.0123" style="stop-color:#FFFFFF;stop-opacity:0"/>
  </linearGradient>
  <path fill="url(#SVGID_11_)" d="M2.321,16.119L2.55,17.57c0,0.93,2.078,14.609,8.232,18.802c0.185,0.15,0.106,0.307-0.048,0.343&#xD;&#xA;&#x9;&#x9;c-0.664,0.134-1.816,0.544-1.816,1.811h23.617c0-1.277-1.405-1.703-2.002-1.828c-0.191-0.065-0.223-0.237-0.07-0.34&#xD;&#xA;&#x9;&#x9;c4.924-3.479,6.995-13.488,8.045-17.141c0.457-1.594,1.676-2.371,1.676-2.371l-2.467-0.726H2.321z"/>
  <linearGradient id="SVGID_12_" gradientUnits="userSpaceOnUse" x1="21.5664" y1="36.8032" x2="21.5664" y2="16.1191">
    <stop offset="0.0061" style="stop-color:#000000;stop-opacity:0.08"/>
    <stop offset="0.0798" style="stop-color:#000000;stop-opacity:0.05"/>
    <stop offset="0.0927" style="stop-color:#181818;stop-opacity:0.0468"/>
    <stop offset="0.1334" style="stop-color:#5D5D5D;stop-opacity:0.0368"/>
    <stop offset="0.1719" style="stop-color:#979797;stop-opacity:0.0272"/>
    <stop offset="0.2071" style="stop-color:#C4C4C4;stop-opacity:0.0185"/>
    <stop offset="0.2384" style="stop-color:#E4E4E4;stop-opacity:0.0108"/>
    <stop offset="0.2645" style="stop-color:#F8F8F8;stop-opacity:0.0044"/>
    <stop offset="0.2822" style="stop-color:#FFFFFF;stop-opacity:0"/>
  </linearGradient>
  <path fill="url(#SVGID_12_)" d="M2.946,16.119l0.222,1.451c0,0.93,2.01,14.609,7.966,18.802c0.178,0.15,0.103,0.307-0.046,0.343&#xD;&#xA;&#x9;&#x9;c-0.643,0.134,19.737,0.107,19.16-0.018c-0.186-0.065-0.216-0.237-0.068-0.34c4.765-3.479,6.77-13.488,7.785-17.141&#xD;&#xA;&#x9;&#x9;c0.442-1.594,2.223-2.37,2.223-2.37l-2.564-0.728H2.946z"/>
  <linearGradient id="SVGID_13_" gradientUnits="userSpaceOnUse" x1="21.3457" y1="16.1187" x2="21.3457" y2="36.8037">
    <stop offset="0.0061" style="stop-color:#000000;stop-opacity:0.08"/>
    <stop offset="0.0127" style="stop-color:#121212;stop-opacity:0.0781"/>
    <stop offset="0.0322" style="stop-color:#444444;stop-opacity:0.0725"/>
    <stop offset="0.0532" style="stop-color:#707070;stop-opacity:0.0664"/>
    <stop offset="0.0752" style="stop-color:#979797;stop-opacity:0.06"/>
    <stop offset="0.0986" style="stop-color:#B7B7B7;stop-opacity:0.0532"/>
    <stop offset="0.1236" style="stop-color:#D1D1D1;stop-opacity:0.0459"/>
    <stop offset="0.1511" style="stop-color:#E6E6E6;stop-opacity:0.038"/>
    <stop offset="0.1821" style="stop-color:#F4F4F4;stop-opacity:0.029"/>
    <stop offset="0.2197" style="stop-color:#FCFCFC;stop-opacity:0.0181"/>
    <stop offset="0.2822" style="stop-color:#FFFFFF;stop-opacity:0"/>
  </linearGradient>
  <path fill="url(#SVGID_13_)" d="M2.508,16.119l0.228,1.451c0,0.93,2.057,14.609,8.153,18.802c0.182,0.15,0.104,0.307-0.048,0.343&#xD;&#xA;&#x9;&#x9;c-0.657,0.134,20.199,0.107,19.608-0.018c-0.19-0.065-0.221-0.237-0.07-0.34c4.876-3.479,6.928-13.488,7.967-17.141&#xD;&#xA;&#x9;&#x9;c0.453-1.594,1.839-2.371,1.839-2.371l-2.467-0.726H2.508z"/>
  <linearGradient id="SVGID_14_" gradientUnits="userSpaceOnUse" x1="21.3457" y1="16.1187" x2="21.3457" y2="36.8037">
    <stop offset="0.0184" style="stop-color:#000000;stop-opacity:0.05"/>
    <stop offset="0.0416" style="stop-color:#121212;stop-opacity:0.0488"/>
    <stop offset="0.1099" style="stop-color:#444444;stop-opacity:0.0453"/>
    <stop offset="0.1835" style="stop-color:#707070;stop-opacity:0.0415"/>
    <stop offset="0.2609" style="stop-color:#979797;stop-opacity:0.0375"/>
    <stop offset="0.3429" style="stop-color:#B7B7B7;stop-opacity:0.0333"/>
    <stop offset="0.431" style="stop-color:#D1D1D1;stop-opacity:0.0287"/>
    <stop offset="0.5273" style="stop-color:#E6E6E6;stop-opacity:0.0237"/>
    <stop offset="0.6362" style="stop-color:#F4F4F4;stop-opacity:0.0181"/>
    <stop offset="0.7683" style="stop-color:#FCFCFC;stop-opacity:0.0113"/>
    <stop offset="0.9877" style="stop-color:#FFFFFF;stop-opacity:0"/>
  </linearGradient>
  <path fill="url(#SVGID_14_)" d="M2.508,16.119l0.228,1.451c0,0.93,2.057,14.609,8.153,18.802c0.182,0.15,0.104,0.307-0.048,0.343&#xD;&#xA;&#x9;&#x9;c-0.658,0.134,20.198,0.107,19.607-0.018c-0.19-0.065-0.221-0.237-0.07-0.34c4.876-3.479,6.928-13.488,7.967-17.141&#xD;&#xA;&#x9;&#x9;c0.453-1.594,1.839-2.371,1.839-2.371l-2.467-0.726H2.508z"/>
  <linearGradient id="SVGID_15_" gradientUnits="userSpaceOnUse" x1="40.1836" y1="26.4604" x2="2.5088" y2="26.4605">
    <stop offset="0.0123" style="stop-color:#000000;stop-opacity:0.05"/>
    <stop offset="0.0381" style="stop-color:#181818;stop-opacity:0.0468"/>
    <stop offset="0.1195" style="stop-color:#5D5D5D;stop-opacity:0.0368"/>
    <stop offset="0.1966" style="stop-color:#979797;stop-opacity:0.0272"/>
    <stop offset="0.267" style="stop-color:#C4C4C4;stop-opacity:0.0185"/>
    <stop offset="0.3295" style="stop-color:#E4E4E4;stop-opacity:0.0108"/>
    <stop offset="0.3817" style="stop-color:#F8F8F8;stop-opacity:0.0044"/>
    <stop offset="0.4172" style="stop-color:#FFFFFF;stop-opacity:0"/>
    <stop offset="0.5767" style="stop-color:#FFFFFF;stop-opacity:0"/>
    <stop offset="1" style="stop-color:#000000;stop-opacity:0.05"/>
  </linearGradient>
  <path fill="url(#SVGID_15_)" d="M2.508,16.119l0.228,1.451c0,0.93,2.057,14.609,8.153,18.802c0.182,0.15,0.104,0.307-0.048,0.343&#xD;&#xA;&#x9;&#x9;c-0.658,0.134,20.198,0.107,19.607-0.018c-0.19-0.065-0.221-0.237-0.07-0.34c4.876-3.479,6.928-13.488,7.967-17.141&#xD;&#xA;&#x9;&#x9;c0.453-1.594,1.839-2.371,1.839-2.371l-2.467-0.726H2.508z"/>
  <linearGradient id="SVGID_16_" gradientUnits="userSpaceOnUse" x1="10.8804" y1="36.3257" x2="10.8804" y2="16.7676">
    <stop offset="0.454" style="stop-color:#FFFFFF;stop-opacity:0.15"/>
    <stop offset="0.5274" style="stop-color:#FFFFFF;stop-opacity:0.1981"/>
    <stop offset="0.9877" style="stop-color:#FFFFFF;stop-opacity:0.5"/>
  </linearGradient>
  <path fill="url(#SVGID_16_)" d="M3.997,16.767v1.064c0,1.453,1.886,13.295,7.704,18.405c0.139,0.148,5.949,0.087,6.063-0.013&#xD;&#xA;&#x9;&#x9;c-2.433-9.832-1.659-19.457-1.659-19.457H3.997z"/>
  <linearGradient id="SVGID_17_" gradientUnits="userSpaceOnUse" x1="17.9375" y1="25.9233" x2="6.2168" y2="25.9233">
    <stop offset="0.454" style="stop-color:#FFFFFF;stop-opacity:0.1"/>
    <stop offset="0.5274" style="stop-color:#FFFFFF;stop-opacity:0.155"/>
    <stop offset="0.9877" style="stop-color:#FFFFFF;stop-opacity:0.5"/>
  </linearGradient>
  <path fill="url(#SVGID_17_)" d="M6.217,16.767v0.996c0,1.368,1.887,12.506,7.705,17.318l4.016-0.013&#xD;&#xA;&#x9;&#x9;c-2.433-9.257-1.659-18.301-1.659-18.301H6.217z"/>
  <linearGradient id="SVGID_18_" gradientUnits="userSpaceOnUse" x1="30.3701" y1="26.0356" x2="39.4717" y2="26.0356">
    <stop offset="0.454" style="stop-color:#FFFFFF;stop-opacity:0.3"/>
    <stop offset="0.5274" style="stop-color:#FFFFFF;stop-opacity:0.3275"/>
    <stop offset="0.9877" style="stop-color:#FFFFFF;stop-opacity:0.5"/>
  </linearGradient>
  <path fill="url(#SVGID_18_)" d="M39.456,16.973c-1.27,0.481-1.541,1.585-1.541,1.585c-1.21,7.794-3.77,11.956-6.576,16.665&#xD;&#xA;&#x9;&#x9;c-0.067,0.137-0.914,0.08-0.969-0.012c6.897-9.151,4.232-18.444,4.232-18.444h3.021C37.624,16.767,39.666,16.959,39.456,16.973z"/>
  <linearGradient id="SVGID_19_" gradientUnits="userSpaceOnUse" x1="20.625" y1="36.8228" x2="20.625" y2="36.2456">
    <stop offset="0" style="stop-color:#FFFFFF;stop-opacity:0"/>
    <stop offset="0.0079" style="stop-color:#F3F3F3;stop-opacity:7.900148e-004"/>
    <stop offset="0.045" style="stop-color:#C1C1C1;stop-opacity:0.0045"/>
    <stop offset="0.0849" style="stop-color:#939393;stop-opacity:0.0085"/>
    <stop offset="0.1266" style="stop-color:#6B6B6B;stop-opacity:0.0127"/>
    <stop offset="0.1705" style="stop-color:#4A4A4A;stop-opacity:0.0172"/>
    <stop offset="0.2173" style="stop-color:#2F2F2F;stop-opacity:0.0219"/>
    <stop offset="0.268" style="stop-color:#1A1A1A;stop-opacity:0.027"/>
    <stop offset="0.3246" style="stop-color:#0B0B0B;stop-opacity:0.0327"/>
    <stop offset="0.3918" style="stop-color:#030303;stop-opacity:0.0394"/>
    <stop offset="0.4969" style="stop-color:#000000;stop-opacity:0.05"/>
    <stop offset="0.6634" style="stop-color:#020202;stop-opacity:0.0335"/>
    <stop offset="0.7321" style="stop-color:#090909;stop-opacity:0.0266"/>
    <stop offset="0.7828" style="stop-color:#151515;stop-opacity:0.0216"/>
    <stop offset="0.8247" style="stop-color:#272727;stop-opacity:0.0174"/>
    <stop offset="0.8611" style="stop-color:#3E3E3E;stop-opacity:0.0138"/>
    <stop offset="0.8937" style="stop-color:#5A5A5A;stop-opacity:0.0106"/>
    <stop offset="0.9235" style="stop-color:#7C7C7C;stop-opacity:0.0076"/>
    <stop offset="0.9511" style="stop-color:#A3A3A3;stop-opacity:0.0049"/>
    <stop offset="0.9759" style="stop-color:#CECECE;stop-opacity:0.0024"/>
    <stop offset="0.9992" style="stop-color:#FDFDFD;stop-opacity:8.418262e-005"/>
    <stop offset="1" style="stop-color:#FFFFFF;stop-opacity:0"/>
  </linearGradient>
  <rect x="10.88" y="36.246" fill="url(#SVGID_19_)" width="19.49" height="0.577"/>
  <linearGradient id="SVGID_20_" gradientUnits="userSpaceOnUse" x1="21.3457" y1="36.8032" x2="21.3457" y2="16.1191">
    <stop offset="0.9448" style="stop-color:#000000;stop-opacity:0"/>
    <stop offset="0.9939" style="stop-color:#000000;stop-opacity:0.05"/>
  </linearGradient>
  <path fill="url(#SVGID_20_)" d="M2.508,16.119l0.228,1.451c0,0.93,2.057,14.609,8.153,18.802c0.182,0.15,0.104,0.307-0.048,0.343&#xD;&#xA;&#x9;&#x9;c-0.658,0.134,20.198,0.107,19.607-0.018c-0.19-0.065-0.221-0.237-0.07-0.34c4.876-3.479,6.928-13.488,7.967-17.141&#xD;&#xA;&#x9;&#x9;c0.453-1.594,1.839-2.371,1.839-2.371l-2.561-0.726H2.508z"/>
  <linearGradient id="SVGID_21_" gradientUnits="userSpaceOnUse" x1="39.9316" y1="26.2896" x2="2.5088" y2="26.2896">
    <stop offset="0.0368" style="stop-color:#FFFFFF;stop-opacity:0"/>
    <stop offset="0.101" style="stop-color:#FFFFFF;stop-opacity:0.0141"/>
    <stop offset="0.4908" style="stop-color:#FFFFFF;stop-opacity:0.1"/>
    <stop offset="0.9228" style="stop-color:#FFFFFF;stop-opacity:0.0571"/>
    <stop offset="0.9939" style="stop-color:#FFFFFF;stop-opacity:0.05"/>
  </linearGradient>
  <path fill="url(#SVGID_21_)" d="M2.508,16.119l0.228,1.451c0,0.93,2.057,14.609,8.153,18.802c0.182,0.15,19.339,0.088,19.489-0.015&#xD;&#xA;&#x9;&#x9;c4.876-3.479,6.928-13.488,7.967-17.141c0.453-1.594,1.587-2.436,1.587-2.436l-2.322-0.6l-0.236-0.062h-0.186H2.508z"/>
  <linearGradient id="SVGID_22_" gradientUnits="userSpaceOnUse" x1="20.6152" y1="36.2456" x2="20.6152" y2="32.2456">
    <stop offset="0" style="stop-color:#FFFFFF;stop-opacity:0"/>
    <stop offset="0.4479" style="stop-color:#FFFFFF;stop-opacity:0.3"/>
    <stop offset="1" style="stop-color:#FFFFFF;stop-opacity:0"/>
  </linearGradient>
  <polygon fill="url(#SVGID_22_)" points="30.463,36.246 10.782,36.246 7.301,32.246 33.931,32.246 &#x9;"/>
  <linearGradient id="SVGID_23_" gradientUnits="userSpaceOnUse" x1="20.6152" y1="36.2456" x2="20.6152" y2="32.2456">
    <stop offset="0" style="stop-color:#FFFFFF;stop-opacity:0"/>
    <stop offset="0.4479" style="stop-color:#FFFFFF;stop-opacity:0.3"/>
    <stop offset="1" style="stop-color:#FFFFFF;stop-opacity:0"/>
  </linearGradient>
  <polygon fill="url(#SVGID_23_)" points="30.463,36.246 10.782,36.246 7.301,32.246 33.931,32.246 &#x9;"/>
  <linearGradient id="SVGID_24_" gradientUnits="userSpaceOnUse" x1="17.9375" y1="37.645" x2="12.3086" y2="37.645">
    <stop offset="0.0368" style="stop-color:#FFFFFF;stop-opacity:0.3"/>
    <stop offset="0.101" style="stop-color:#FFFFFF;stop-opacity:0.3"/>
    <stop offset="0.4908" style="stop-color:#FFFFFF;stop-opacity:0.3"/>
    <stop offset="0.9228" style="stop-color:#FFFFFF;stop-opacity:0.3"/>
    <stop offset="0.9939" style="stop-color:#FFFFFF;stop-opacity:0.3"/>
  </linearGradient>
  <path fill="url(#SVGID_24_)" d="M13.711,36.945c0,0-1.403,0.366-1.403,1.4l5.629-0.029v-1.371H13.711z"/>
  <linearGradient id="SVGID_25_" gradientUnits="userSpaceOnUse" x1="16.5088" y1="37.645" x2="10.8799" y2="37.645">
    <stop offset="0.0368" style="stop-color:#FFFFFF;stop-opacity:0.3"/>
    <stop offset="0.101" style="stop-color:#FFFFFF;stop-opacity:0.3"/>
    <stop offset="0.4908" style="stop-color:#FFFFFF;stop-opacity:0.3"/>
    <stop offset="0.9228" style="stop-color:#FFFFFF;stop-opacity:0.3"/>
    <stop offset="0.9939" style="stop-color:#FFFFFF;stop-opacity:0.3"/>
  </linearGradient>
  <path fill="url(#SVGID_25_)" d="M12.283,36.945c0,0-1.403,0.366-1.403,1.4l5.629-0.029v-1.371H12.283z"/>
  <linearGradient id="SVGID_26_" gradientUnits="userSpaceOnUse" x1="30.6152" y1="38.2876" x2="30.6152" y2="36.9448">
    <stop offset="0" style="stop-color:#FFFFFF;stop-opacity:0"/>
    <stop offset="0.4479" style="stop-color:#FFFFFF;stop-opacity:0.6"/>
    <stop offset="1" style="stop-color:#FFFFFF;stop-opacity:0"/>
  </linearGradient>
  <path fill="url(#SVGID_26_)" d="M29.279,36.945h0.688c0,0,1.719,0.515,1.984,1.343l-2.281-0.063L29.279,36.945z"/>
  <linearGradient id="SVGID_27_" gradientUnits="userSpaceOnUse" x1="30.1143" y1="38.2876" x2="30.1143" y2="36.9448">
    <stop offset="0" style="stop-color:#FFFFFF;stop-opacity:0"/>
    <stop offset="0.4479" style="stop-color:#FFFFFF;stop-opacity:0.6"/>
    <stop offset="1" style="stop-color:#FFFFFF;stop-opacity:0"/>
  </linearGradient>
  <path fill="url(#SVGID_27_)" d="M28.778,36.945h0.688c0,0,1.719,0.515,1.984,1.343l-2.281-0.063L28.778,36.945z"/>
  <g>
    <linearGradient id="SVGID_28_" gradientUnits="userSpaceOnUse" x1="1.3369" y1="16.2354" x2="41.8057" y2="16.2354">
      <stop offset="0.0368" style="stop-color:#000000;stop-opacity:0.02"/>
      <stop offset="0.101" style="stop-color:#000000;stop-opacity:0.0242"/>
      <stop offset="0.4908" style="stop-color:#000000;stop-opacity:0.05"/>
      <stop offset="0.9228" style="stop-color:#000000;stop-opacity:0.05"/>
      <stop offset="0.9939" style="stop-color:#000000;stop-opacity:0.05"/>
    </linearGradient>
    <path fill="url(#SVGID_28_)" d="M40.4,16.842l-2.84-0.888H1.988c0,0-1.087-0.518-0.452-0.518s35.899,0,35.899,0l4.37,1.332&#xD;&#xA;&#x9;&#x9;&#x9;C41.806,16.767,41.806,17.317,40.4,16.842z"/>
  </g>
  <linearGradient id="SVGID_29_" gradientUnits="userSpaceOnUse" x1="35.7012" y1="14.2588" x2="35.7012" y2="1.7046">
    <stop offset="0.1779" style="stop-color:#FFFFFF;stop-opacity:0.1"/>
    <stop offset="0.4663" style="stop-color:#FFFFFF;stop-opacity:0.5"/>
    <stop offset="0.908" style="stop-color:#FFFFFF;stop-opacity:0.2"/>
  </linearGradient>
  <polygon fill="url(#SVGID_29_)" points="30.214,14.222 41.049,1.705 41.188,2.686 31.328,14.259 &#x9;"/>
  <linearGradient id="SVGID_30_" gradientUnits="userSpaceOnUse" x1="35.7051" y1="14.7466" x2="35.7051" y2="11.418">
    <stop offset="0.2638" style="stop-color:#000000;stop-opacity:0.05"/>
    <stop offset="0.6626" style="stop-color:#000000;stop-opacity:0.05"/>
  </linearGradient>
  <path fill="url(#SVGID_30_)" d="M29.978,13.955l7.819-0.438c0,0,1.587-0.375,2.627-1.415s1.249-0.584,1.249-0.584l-2.201,3.229&#xD;&#xA;&#x9;&#x9;l-1.798-0.554l-7.937,0.031L29.978,13.955z"/>
  <linearGradient id="SVGID_31_" gradientUnits="userSpaceOnUse" x1="35.7051" y1="14.7466" x2="35.7051" y2="11.418">
    <stop offset="0.2638" style="stop-color:#000000;stop-opacity:0.03"/>
    <stop offset="0.6626" style="stop-color:#000000;stop-opacity:0.03"/>
  </linearGradient>
  <path fill="url(#SVGID_31_)" d="M29.978,13.955l7.819-0.438c0,0,1.587-0.375,2.627-1.415s1.249-0.584,1.249-0.584l-2.201,3.229&#xD;&#xA;&#x9;&#x9;l-1.798-0.554l-7.937,0.031L29.978,13.955z"/>
  <linearGradient id="SVGID_32_" gradientUnits="userSpaceOnUse" x1="31.9512" y1="37.8413" x2="9.4385" y2="37.8413">
    <stop offset="0" style="stop-color:#FFFFFF;stop-opacity:0"/>
    <stop offset="0.0633" style="stop-color:#FFFFFF;stop-opacity:0.0848"/>
    <stop offset="0.4479" style="stop-color:#FFFFFF;stop-opacity:0.6"/>
    <stop offset="0.922" style="stop-color:#FFFFFF;stop-opacity:0.0848"/>
    <stop offset="1" style="stop-color:#FFFFFF;stop-opacity:0"/>
  </linearGradient>
  <rect x="9.438" y="37.616" fill="url(#SVGID_32_)" width="22.513" height="0.452"/>
</svg>