<svg version="1.2" baseProfile="tiny" viewBox="0 0 47.558 39.525" xmlns:xlink="http://www.w3.org/1999/xlink" xmlns="http://www.w3.org/2000/svg">
<path style="fill:#ffffff;" d="M46.1788,4.207L42.5111,1.2288C42.0731,0.8731,41.4221,0.9399,41.0659,1.379L29.3262,14.3721L2.25,14.3721L2.25,14.3721C1.5618,14.3721,1.0001,14.765,1.0001,15.246C1.0001,15.727,1.5632,16.1199,2.25,16.1199L2.3208,16.1199L2.5501,17.57C2.5501,18.5001,4.6279,32.1789,10.7819,36.3721C10.9669,36.5219,10.8879,36.6788,10.7338,36.7152C10.0699,36.8492,8.9181,37.259,8.9181,38.5258L32.5349,38.5258C32.5349,37.2492,31.13,36.8231,30.5332,36.6982C30.342,36.633,30.3101,36.461,30.4628,36.3579C35.387,32.8789,37.4581,22.87,38.5082,19.2171C38.7688,18.306,39.5559,17.4349,40.1879,16.8471L41.0492,17.1001C41.686,17.272,42.1079,17.1001,42.2638,16.6159C42.4108,16.159,42.1388,15.7681,41.3241,15.51L39.5578,14.9571L46.3291,5.6529C46.6848,5.213,46.6168,4.5632,46.1788,4.207Z"/>
</svg>