<svg version="1.2" baseProfile="tiny" id="EdgeSVG_lzWcX" x="0px" y="0px" width="47.558px" height="39.525px" viewBox="0 0 47.558 39.525" xmlns:xlink="http://www.w3.org/1999/xlink" xmlns="http://www.w3.org/2000/svg">
  <linearGradient id="SVGID_1_" gradientUnits="userSpaceOnUse" x1="0" y1="19.7622" x2="47.5576" y2="19.7622">
    <stop offset="0" style="stop-color:#000000;stop-opacity:0.5"/>
    <stop offset="1" style="stop-color:#000000;stop-opacity:0.5"/>
  </linearGradient>
  <path fill="url(#SVGID_1_)" d="M7.918,39.525v-1c0-0.931,0.422-1.699,1.176-2.212c-5.554-5.01-7.452-17.046-7.54-18.644&#xD;&#xA;&#x9;&#x9;L1.446,16.99C0.578,16.719,0,16.048,0,15.245c0-1.051,0.988-1.874,2.25-1.874h26.631L40.323,0.708C40.676,0.272,41.25,0,41.864,0&#xD;&#xA;&#x9;&#x9;c0.464,0,0.918,0.161,1.276,0.452l3.668,2.978c0.867,0.704,1.001,1.983,0.298,2.852l-5.921,8.137l0.437,0.137&#xD;&#xA;&#x9;&#x9;c0.755,0.239,1.244,0.598,1.501,1.097c0.202,0.392,0.234,0.832,0.093,1.271c-0.252,0.778-0.896,1.242-1.726,1.242l0,0&#xD;&#xA;&#x9;&#x9;c-0.222,0-0.458-0.033-0.703-0.1l-0.316-0.093c-0.527,0.556-0.877,1.084-1.002,1.519c-0.131,0.456-0.277,1.01-0.443,1.639&#xD;&#xA;&#x9;&#x9;c-1.083,4.094-3.021,11.415-6.87,15.117c0.883,0.522,1.38,1.319,1.38,2.278v1H7.918z"/>
</svg>