<svg version="1.2" baseProfile="tiny" id="EdgeSVG_loCxz" x="0px" y="0px" width="23.042px" height="26.27px" viewBox="0 0 23.042 26.27" xmlns:xlink="http://www.w3.org/1999/xlink" xmlns="http://www.w3.org/2000/svg">
  <g display="none">
    <linearGradient id="SVGID_2_" gradientUnits="userSpaceOnUse" x1="11.521" y1="25.1094" x2="11.521" y2="17.2841">
      <stop offset="0" style="stop-color:#3C2415;stop-opacity:0.2"/>
      <stop offset="1" style="stop-color:#3C2415;stop-opacity:0"/>
    </linearGradient>
    <path display="inline" fill="url(#SVGID_2_)" d="M18.494,13.603c-0.372-0.172-0.723-0.327-1.063-0.48&#xD;&#xA;&#x9;&#x9;&#x9;c-0.995,2.506-3.264,4.266-5.898,4.267v-0.002c-0.004,0-0.008,0.001-0.012,0.001s-0.008-0.001-0.012-0.001v0.002&#xD;&#xA;&#x9;&#x9;&#x9;c-2.634-0.001-4.903-1.76-5.898-4.267c-0.34,0.153-0.69,0.309-1.063,0.48C2.356,14.637,1,19.629,1,21.2&#xD;&#xA;&#x9;&#x9;&#x9;c0,1.572,1.356,1.213,3.548,2.244c2.197,1.03,3.608,1.825,6.955,1.825c0.006,0,0.012,0,0.018-0.001&#xD;&#xA;&#x9;&#x9;&#x9;c0.005,0.001,0.011,0.001,0.018,0.001c3.347,0,4.758-0.795,6.955-1.825c2.191-1.031,3.548-0.672,3.548-2.244&#xD;&#xA;&#x9;&#x9;&#x9;C22.042,19.629,20.685,14.637,18.494,13.603z"/>
    <linearGradient id="SVGID_3_" gradientUnits="userSpaceOnUse" x1="11.5205" y1="1.1929" x2="11.5205" y2="15.9959">
      <stop offset="0" style="stop-color:#3C2415;stop-opacity:0"/>
      <stop offset="1" style="stop-color:#3C2415;stop-opacity:0.2"/>
    </linearGradient>
    <path display="inline" fill="url(#SVGID_3_)" d="M5.943,8.588c0,3.863,2.628,7.313,5.549,7.313c0.01,0,0.019-0.001,0.029-0.002&#xD;&#xA;&#x9;&#x9;&#x9;c0.009,0.001,0.019,0.002,0.028,0.002c2.921,0,5.549-3.451,5.549-7.313c0-0.079-0.008-0.136-0.021-0.179&#xD;&#xA;&#x9;&#x9;&#x9;c0.014-0.043,0.022-0.101,0.022-0.177c0-3.86-0.579-7.227-5.566-7.232l0,0c-0.003,0-0.006,0-0.009,0c-0.001,0-0.002,0-0.003,0l0,0&#xD;&#xA;&#x9;&#x9;&#x9;c0,0,0,0,0,0c-0.002,0-0.003,0-0.005,0c-0.002,0-0.004,0-0.006,0l0,0C6.521,1.005,5.942,4.372,5.942,8.232&#xD;&#xA;&#x9;&#x9;&#x9;c0,0.077,0.009,0.134,0.022,0.177C5.951,8.452,5.943,8.509,5.943,8.588z"/>
  </g>
  <linearGradient id="SVGID_4_" gradientUnits="userSpaceOnUse" x1="6.585" y1="3.9551" x2="16.5853" y2="3.9551">
    <stop offset="0" style="stop-color:#FFFFFF;stop-opacity:0"/>
    <stop offset="0.5" style="stop-color:#FFFFFF;stop-opacity:0.5"/>
    <stop offset="1" style="stop-color:#FFFFFF;stop-opacity:0"/>
  </linearGradient>
  <path fill="url(#SVGID_4_)" d="M16.596,6.323c-0.623-2.464-1.146-4.737-5.061-4.737c-0.005,0-0.01,0-0.014,0&#xD;&#xA;&#x9;&#x9;c-0.005,0-0.01,0-0.015,0c-3.914,0-4.438,2.273-5.061,4.737c0,0,1.431-2.349,5.076-2.298C15.166,3.975,16.596,6.323,16.596,6.323z"/>
  <linearGradient id="SVGID_5_" gradientUnits="userSpaceOnUse" x1="5.1348" y1="20.0947" x2="17.8916" y2="20.0947">
    <stop offset="0" style="stop-color:#FFFFFF;stop-opacity:0"/>
    <stop offset="0.5" style="stop-color:#FFFFFF;stop-opacity:0.5"/>
    <stop offset="1" style="stop-color:#FFFFFF;stop-opacity:0"/>
  </linearGradient>
  <path fill="url(#SVGID_5_)" d="M17.521,16.396c-0.7-2.463-1.583,1.626-5.983,1.626c-0.001,0-0.003,0-0.005,0v-0.002&#xD;&#xA;&#x9;&#x9;c-0.004,0-0.008,0-0.012,0.001c-0.004-0.001-0.008-0.001-0.012-0.001v0.002c-0.001,0-0.003,0-0.005,0&#xD;&#xA;&#x9;&#x9;c-4.4,0-5.283-4.089-5.983-1.626c0,0-2.66,8.114,5.988,8.184v0.001c0.004,0,0.008,0,0.012,0s0.008,0,0.012,0V24.58&#xD;&#xA;&#x9;&#x9;C20.181,24.511,17.521,16.396,17.521,16.396z"/>
</svg>