<svg version="1.2" baseProfile="tiny" id="EdgeSVG_loCxz" x="0px" y="0px" width="23.042px" height="26.27px" viewBox="0 0 23.042 26.27" xmlns:xlink="http://www.w3.org/1999/xlink" xmlns="http://www.w3.org/2000/svg">
  <linearGradient id="SVGID_1_" gradientUnits="userSpaceOnUse" x1="0" y1="13.1348" x2="23.0415" y2="13.1348">
    <stop offset="0" style="stop-color:#000000;stop-opacity:0.5"/>
    <stop offset="1" style="stop-color:#000000;stop-opacity:0.5"/>
  </linearGradient>
  <path fill="url(#SVGID_1_)" d="M11.449,26.27c-3.287-0.008-4.862-0.754-6.853-1.696L4.124,24.35&#xD;&#xA;&#x9;&#x9;c-0.652-0.307-1.225-0.479-1.73-0.63C1.327,23.399,0,23.001,0,21.2c0-1.527,1.285-7.163,4.121-8.502l1.458-0.659&#xD;&#xA;&#x9;&#x9;c-0.406-1.063-0.636-2.237-0.636-3.451c0-0.061,0.002-0.119,0.008-0.175C4.945,8.354,4.942,8.294,4.942,8.232&#xD;&#xA;&#x9;&#x9;c0-2.654,0-8.158,6.446-8.231l0.213,0c6.498,0.046,6.498,5.572,6.498,8.232c0,0.063-0.003,0.123-0.009,0.181&#xD;&#xA;&#x9;&#x9;c0.005,0.056,0.008,0.114,0.008,0.175c0,1.214-0.23,2.388-0.636,3.451l1.45,0.656c2.845,1.342,4.129,6.978,4.129,8.505&#xD;&#xA;&#x9;&#x9;c0,1.801-1.327,2.199-2.394,2.52c-0.505,0.151-1.077,0.323-1.729,0.63l-0.475,0.224c-2.001,0.947-3.583,1.696-6.906,1.696H11.449z"/>
</svg>