<svg version="1.2" baseProfile="tiny" viewBox="0 0 23.042 26.27" xmlns:xlink="http://www.w3.org/1999/xlink" xmlns="http://www.w3.org/2000/svg">
<path style="fill:#ffffff;" d="M18.494,13.6029C18.1221,13.4311,17.7709,13.2761,17.431,13.1229C16.4361,15.6291,14.1669,17.3889,11.533,17.39L11.533,17.3881C11.5291,17.3881,11.5249,17.3889,11.521,17.3889C11.5171,17.3889,11.5129,17.3881,11.509,17.3881L11.509,17.39C8.8751,17.3889,6.6059,15.6301,5.611,13.1229C5.2711,13.2761,4.9211,13.4321,4.548,13.6029C2.356,14.6371,1.0,19.6289,1.0,21.1999C1.0,22.7719,2.356,22.413,4.548,23.4439C6.7451,24.4739,8.1559,25.2691,11.503,25.2691C11.509,25.2691,11.515,25.2691,11.521,25.2681C11.5261,25.2691,11.5321,25.2691,11.539,25.2691C14.8861,25.2691,16.2969,24.4739,18.494,23.4439C20.685,22.413,22.042,22.7719,22.042,21.1999C22.042,19.6289,20.685,14.6371,18.494,13.6029M5.943,8.5879C5.943,12.4509,8.5709,15.901,11.492,15.901C11.5021,15.901,11.5111,15.8999,11.521,15.8991C11.53,15.8999,11.5399,15.901,11.5491,15.901C14.4699,15.901,17.0981,12.4499,17.0981,8.5879C17.0981,8.5091,17.09,8.4521,17.0769,8.409C17.0909,8.3659,17.099,8.3079,17.099,8.232C17.099,4.3721,16.52,1.0051,11.533,1.0001L11.533,1.0001C11.53,1.0001,11.527,1.0001,11.524,1.0001C11.5231,1.0001,11.5219,1.0001,11.521,1.0001L11.521,1.0001C11.521,1.0001,11.521,1.0001,11.521,1.0001C11.5189,1.0001,11.518,1.0001,11.5159,1.0001C11.5141,1.0001,11.512,1.0001,11.5099,1.0001L11.5099,1.0001C6.5209,1.0051,5.9421,4.3721,5.9421,8.232C5.9421,8.3089,5.9511,8.3659,5.964,8.409C5.9511,8.4521,5.943,8.5091,5.943,8.5879Z"/>
</svg>