<svg version="1.2" baseProfile="tiny" id="EdgeSVG_yUrmC" x="0px" y="0px" width="14.151px" height="28.071px" viewBox="0 0 14.151 28.071" xmlns:xlink="http://www.w3.org/1999/xlink" xmlns="http://www.w3.org/2000/svg">
  <linearGradient id="SVGID_2_" gradientUnits="userSpaceOnUse" x1="7.0762" y1="9.8379" x2="7.0762" y2="22.6323">
    <stop offset="0" style="stop-color:#231F20;stop-opacity:0"/>
    <stop offset="0.066" style="stop-color:#201D1E;stop-opacity:0.0066"/>
    <stop offset="1" style="stop-color:#000000;stop-opacity:0.1"/>
  </linearGradient>
  <path fill="url(#SVGID_2_)" d="M7.076,11.975c-1.681,0-3.162-0.848-4.044-2.137v12.794h8.088V9.838&#xD;&#xA;&#x9;&#x9;C10.237,11.127,8.757,11.975,7.076,11.975z"/>
  <linearGradient id="SVGID_3_" gradientUnits="userSpaceOnUse" x1="6.8462" y1="5.3857" x2="7.3687" y2="8.3488">
    <stop offset="0" style="stop-color:#FFFFFF;stop-opacity:0.35"/>
    <stop offset="0.9816" style="stop-color:#FFFFFF;stop-opacity:0.05"/>
  </linearGradient>
  <rect x="5.809" y="5.568" fill="url(#SVGID_3_)" width="2.597" height="2.597"/>
  <linearGradient id="SVGID_4_" gradientUnits="userSpaceOnUse" x1="5.4551" y1="24.8516" x2="8.6963" y2="24.8516">
    <stop offset="0" style="stop-color:#231F20;stop-opacity:0.3"/>
    <stop offset="0.066" style="stop-color:#201D1E;stop-opacity:0.3033"/>
    <stop offset="1" style="stop-color:#000000;stop-opacity:0.35"/>
  </linearGradient>
  <rect x="5.455" y="22.632" fill="url(#SVGID_4_)" width="3.241" height="4.439"/>
  <g>
    <linearGradient id="SVGID_5_" gradientUnits="userSpaceOnUse" x1="7.0757" y1="1" x2="7.0757" y2="11.9751">
      <stop offset="0" style="stop-color:#231F20;stop-opacity:0.15"/>
      <stop offset="0.3526" style="stop-color:#1A1718;stop-opacity:0.2039"/>
      <stop offset="0.9152" style="stop-color:#030303;stop-opacity:0.2899"/>
      <stop offset="0.9816" style="stop-color:#000000;stop-opacity:0.3"/>
    </linearGradient>
    <path fill="url(#SVGID_5_)" d="M7.075,1C3.721,1,1,3.72,1,7.076c0,1.77,0.762,3.358,1.97,4.469V9.838&#xD;&#xA;&#x9;&#x9;&#x9;c0.882,1.29,2.363,2.137,4.044,2.137c0.013,0,0.025-0.002,0.038-0.002c-2.694-0.013-4.875-2.199-4.875-4.897&#xD;&#xA;&#x9;&#x9;&#x9;c0-2.706,2.193-4.899,4.899-4.899s4.899,2.193,4.899,4.899c0,1.061-0.345,2.036-0.918,2.838v1.744&#xD;&#xA;&#x9;&#x9;&#x9;c1.28-1.114,2.094-2.751,2.094-4.582C13.151,3.72,10.432,1,7.075,1z"/>
    <linearGradient id="SVGID_6_" gradientUnits="userSpaceOnUse" x1="7.5029" y1="11.8994" x2="7.5029" y2="11.9648">
      <stop offset="0" style="stop-color:#231F20;stop-opacity:0.15"/>
      <stop offset="0.3526" style="stop-color:#1A1718;stop-opacity:0.2039"/>
      <stop offset="0.9152" style="stop-color:#030303;stop-opacity:0.2899"/>
      <stop offset="0.9816" style="stop-color:#000000;stop-opacity:0.3"/>
    </linearGradient>
    <path fill="url(#SVGID_6_)" d="M7.826,11.899C7.614,11.933,7.4,11.96,7.18,11.965C7.399,11.957,7.615,11.935,7.826,11.899z"/>
  </g>
  <linearGradient id="SVGID_7_" gradientUnits="userSpaceOnUse" x1="7.0762" y1="2.1768" x2="7.0762" y2="11.9756">
    <stop offset="0" style="stop-color:#FFFFFF;stop-opacity:0.4"/>
    <stop offset="0.2393" style="stop-color:#FFFFFF;stop-opacity:0.05"/>
    <stop offset="0.4601" style="stop-color:#FFFFFF;stop-opacity:0.15"/>
    <stop offset="0.4883" style="stop-color:#D7D7D7;stop-opacity:0.1666"/>
    <stop offset="0.5287" style="stop-color:#A5A5A5;stop-opacity:0.1905"/>
    <stop offset="0.571" style="stop-color:#797979;stop-opacity:0.2155"/>
    <stop offset="0.6147" style="stop-color:#545454;stop-opacity:0.2413"/>
    <stop offset="0.66" style="stop-color:#353535;stop-opacity:0.268"/>
    <stop offset="0.7073" style="stop-color:#1E1E1E;stop-opacity:0.296"/>
    <stop offset="0.7577" style="stop-color:#0D0D0D;stop-opacity:0.3257"/>
    <stop offset="0.8131" style="stop-color:#030303;stop-opacity:0.3585"/>
    <stop offset="0.8834" style="stop-color:#000000;stop-opacity:0.4"/>
    <stop offset="1" style="stop-color:#000000;stop-opacity:0.3"/>
  </linearGradient>
  <circle fill="url(#SVGID_7_)" cx="7.076" cy="7.076" r="4.899"/>
  <linearGradient id="SVGID_8_" gradientUnits="userSpaceOnUse" x1="2.1768" y1="7.0757" x2="11.9756" y2="7.0757">
    <stop offset="0" style="stop-color:#000000;stop-opacity:0.35"/>
    <stop offset="0.129" style="stop-color:#0A0909;stop-opacity:0.2613"/>
    <stop offset="0.5092" style="stop-color:#231F20;stop-opacity:0"/>
    <stop offset="0.9816" style="stop-color:#000000;stop-opacity:0.35"/>
  </linearGradient>
  <circle fill="url(#SVGID_8_)" cx="7.076" cy="7.076" r="4.899"/>
  <linearGradient id="SVGID_9_" gradientUnits="userSpaceOnUse" x1="7.0762" y1="2.1763" x2="7.0762" y2="11.9751">
    <stop offset="0.3067" style="stop-color:#231F20;stop-opacity:0"/>
    <stop offset="0.5492" style="stop-color:#1A1718;stop-opacity:0.1257"/>
    <stop offset="0.936" style="stop-color:#030303;stop-opacity:0.3263"/>
    <stop offset="0.9816" style="stop-color:#000000;stop-opacity:0.35"/>
  </linearGradient>
  <circle fill="url(#SVGID_9_)" cx="7.076" cy="7.076" r="4.899"/>
  <linearGradient id="SVGID_10_" gradientUnits="userSpaceOnUse" x1="5.4551" y1="24.8516" x2="8.6963" y2="24.8516">
    <stop offset="0" style="stop-color:#000000;stop-opacity:0.2"/>
    <stop offset="0.0876" style="stop-color:#343434;stop-opacity:0.2"/>
    <stop offset="0.2425" style="stop-color:#8A8A8A;stop-opacity:0.2"/>
    <stop offset="0.3693" style="stop-color:#C9C9C9;stop-opacity:0.2"/>
    <stop offset="0.4613" style="stop-color:#F0F0F0;stop-opacity:0.2"/>
    <stop offset="0.5092" style="stop-color:#FFFFFF;stop-opacity:0.2"/>
    <stop offset="0.5856" style="stop-color:#DBDBDB;stop-opacity:0.2"/>
    <stop offset="0.7559" style="stop-color:#818181;stop-opacity:0.2"/>
    <stop offset="0.9816" style="stop-color:#000000;stop-opacity:0.2"/>
  </linearGradient>
  <rect x="5.455" y="22.632" fill="url(#SVGID_10_)" width="3.241" height="4.439"/>
  <radialGradient id="SVGID_11_" cx="7.0762" cy="7.0757" r="4.8994" gradientUnits="userSpaceOnUse">
    <stop offset="0.3067" style="stop-color:#231F20;stop-opacity:0"/>
    <stop offset="0.4852" style="stop-color:#1A1718;stop-opacity:0.1257"/>
    <stop offset="0.7701" style="stop-color:#030303;stop-opacity:0.3263"/>
    <stop offset="0.8037" style="stop-color:#000000;stop-opacity:0.35"/>
    <stop offset="0.8479" style="stop-color:#030303;stop-opacity:0.2419"/>
    <stop offset="0.8855" style="stop-color:#0E0C0D;stop-opacity:0.1499"/>
    <stop offset="0.9206" style="stop-color:#1F1C1D;stop-opacity:0.0641"/>
    <stop offset="0.9264" style="stop-color:#231F20;stop-opacity:0.05"/>
    <stop offset="1" style="stop-color:#231F20;stop-opacity:0.4"/>
  </radialGradient>
  <circle fill="url(#SVGID_11_)" cx="7.076" cy="7.076" r="4.899"/>
  <linearGradient id="SVGID_12_" gradientUnits="userSpaceOnUse" x1="7.0137" y1="2.3901" x2="7.0137" y2="3.8979">
    <stop offset="0" style="stop-color:#FFFFFF;stop-opacity:0.35"/>
    <stop offset="0.9816" style="stop-color:#FFFFFF;stop-opacity:0.05"/>
  </linearGradient>
  <path fill="url(#SVGID_12_)" d="M9.686,3.357c0,0.396-1.021,0.541-2.496,0.541S4.342,3.752,4.342,3.357S5.538,2.39,7.014,2.39&#xD;&#xA;&#x9;&#x9;S9.686,2.961,9.686,3.357z"/>
  <g>
    <linearGradient id="SVGID_13_" gradientUnits="userSpaceOnUse" x1="3.0322" y1="16.2354" x2="3.7109" y2="16.2354">
      <stop offset="0" style="stop-color:#000000;stop-opacity:0.2"/>
      <stop offset="0.9816" style="stop-color:#000000;stop-opacity:0.2"/>
    </linearGradient>
    <path fill="url(#SVGID_13_)" d="M3.032,9.838L3.032,9.838v12.794l0.679-0.609V10.622C3.459,10.384,3.229,10.125,3.032,9.838z"/>
    <linearGradient id="SVGID_14_" gradientUnits="userSpaceOnUse" x1="10.5029" y1="16.2979" x2="11.1201" y2="16.2979">
      <stop offset="0" style="stop-color:#000000;stop-opacity:0.2"/>
      <stop offset="0.9816" style="stop-color:#000000;stop-opacity:0.2"/>
    </linearGradient>
    <path fill="url(#SVGID_14_)" d="M10.503,10.657v11.366l0.617,0.609V9.963C10.936,10.214,10.73,10.445,10.503,10.657z"/>
  </g>
  <linearGradient id="SVGID_15_" gradientUnits="userSpaceOnUse" x1="3.0322" y1="22.3276" x2="11.1201" y2="22.3276">
    <stop offset="0" style="stop-color:#000000;stop-opacity:0.35"/>
    <stop offset="0.9816" style="stop-color:#000000;stop-opacity:0.35"/>
  </linearGradient>
  <polygon fill="url(#SVGID_15_)" points="10.503,22.023 3.711,22.023 3.032,22.632 11.12,22.632 &#x9;"/>
  <g>
    <linearGradient id="SVGID_16_" gradientUnits="userSpaceOnUse" x1="2.1768" y1="10.2441" x2="11.9756" y2="10.2441">
      <stop offset="0" style="stop-color:#000000;stop-opacity:0.45"/>
      <stop offset="0.9816" style="stop-color:#000000;stop-opacity:0.45"/>
    </linearGradient>
    <path fill="url(#SVGID_16_)" d="M2.177,6.911v3.748c0,0,0.509,0.634,0.855,0.943v1.474l0.679-0.111c0,0,1.604,0.612,3.303,0.612&#xD;&#xA;&#x9;&#x9;&#x9;s3.489-0.601,3.489-0.601l0.617,0.099v-1.475c0,0,0.602-0.566,0.855-0.941V7.076c0,2.372-1.962,4.897-4.924,4.897&#xD;&#xA;&#x9;&#x9;&#x9;C4.264,11.973,2.177,9.744,2.177,6.911z"/>
    <linearGradient id="SVGID_17_" gradientUnits="userSpaceOnUse" x1="5.4551" y1="23.2383" x2="8.6963" y2="23.2383">
      <stop offset="0" style="stop-color:#000000;stop-opacity:0.45"/>
      <stop offset="0.9816" style="stop-color:#000000;stop-opacity:0.45"/>
    </linearGradient>
    <path fill="url(#SVGID_17_)" d="M5.455,22.632v1.125c0,0,0.609-0.389,1.725-0.389s1.517,0.475,1.517,0.475v-1.212H5.455z"/>
  </g>
  <linearGradient id="SVGID_18_" gradientUnits="userSpaceOnUse" x1="5.1084" y1="6.8662" x2="5.6528" y2="6.8662">
    <stop offset="0" style="stop-color:#000000;stop-opacity:0.2"/>
    <stop offset="0.9816" style="stop-color:#000000;stop-opacity:0.2"/>
  </linearGradient>
  <polygon fill="url(#SVGID_18_)" points="5.653,8.347 5.628,8.443 5.108,8.866 5.108,4.866 5.628,5.386 5.628,8.347 &#x9;"/>
  <linearGradient id="SVGID_19_" gradientUnits="userSpaceOnUse" x1="8.5771" y1="6.8662" x2="9.1084" y2="6.8662">
    <stop offset="0" style="stop-color:#000000;stop-opacity:0.2"/>
    <stop offset="0.9816" style="stop-color:#000000;stop-opacity:0.2"/>
  </linearGradient>
  <polygon fill="url(#SVGID_19_)" points="9.108,4.866 9.108,8.866 8.577,8.347 8.577,5.386 &#x9;"/>
  <linearGradient id="SVGID_20_" gradientUnits="userSpaceOnUse" x1="5.1084" y1="8.6064" x2="9.1084" y2="8.6064">
    <stop offset="0" style="stop-color:#FFFFFF;stop-opacity:0.35"/>
    <stop offset="0.9816" style="stop-color:#FFFFFF;stop-opacity:0.35"/>
  </linearGradient>
  <polygon fill="url(#SVGID_20_)" points="9.108,8.866 5.108,8.866 5.628,8.443 5.653,8.347 8.577,8.347 &#x9;"/>
  <linearGradient id="SVGID_21_" gradientUnits="userSpaceOnUse" x1="5.1084" y1="5.126" x2="9.1084" y2="5.126">
    <stop offset="0" style="stop-color:#000000;stop-opacity:0.35"/>
    <stop offset="0.9816" style="stop-color:#000000;stop-opacity:0.35"/>
  </linearGradient>
  <polygon fill="url(#SVGID_21_)" points="9.108,4.866 8.577,5.386 5.628,5.386 5.108,4.866 &#x9;"/>
  <linearGradient id="SVGID_22_" gradientUnits="userSpaceOnUse" x1="5.6313" y1="6.8667" x2="8.5815" y2="6.8667">
    <stop offset="0" style="stop-color:#000000;stop-opacity:0.35"/>
    <stop offset="0.9816" style="stop-color:#000000;stop-opacity:0.35"/>
  </linearGradient>
  <path fill="url(#SVGID_22_)" d="M8.582,8.342h-2.95v-2.95h2.95V8.342z M8.405,5.568H5.809v2.597h2.597V5.568z"/>
</svg>