<svg version="1.2" baseProfile="tiny" viewBox="0 0 30.0 44.447" xmlns:xlink="http://www.w3.org/1999/xlink" xmlns="http://www.w3.org/2000/svg">
<path style="fill:#ffffff;" d="M27.3,17.8788C27.3,17.8788,27.3,27.4411,27.3,27.7638C27.3,28.0869,27.261,28.319,27.0999,28.5039C26.94,28.6892,21.0321,32.813,21.0321,32.813L9.153,32.813L9.153,32.813C9.153,32.813,3.2469,28.6879,3.0861,28.5039C2.925,28.319,2.8839,28.0869,2.8839,27.7638C2.8839,27.4411,2.8839,17.8788,2.8839,17.8788C2.8839,17.8788,2.8839,17.537,3.3111,17.537C3.7389,17.537,26.5869,17.537,26.9289,17.537C27.3,17.5379,27.3,17.8788,27.3,17.8788Z"/>
</svg>