<svg version="1.2" baseProfile="tiny" id="EdgeSVG_2J4vS" x="0px" y="0px" width="87.001px" height="87.001px" viewBox="0 0 87.001 87.001" xmlns:xlink="http://www.w3.org/1999/xlink" xmlns="http://www.w3.org/2000/svg">
  <path fill="#009444" d="M28.421,66.058l-0.13-0.556c-1.608-6.848-5.479-13.291-10.349-17.218l-0.573-0.465l0.479-0.563&#xD;&#xA;&#x9;&#x9;c0.788-0.93,4.8-3.97,8.097-4.667l0.422-0.084l1.204,1.415c1.671,1.942,3.709,4.313,5.355,7.065&#xD;&#xA;&#x9;&#x9;c7.235-11.105,17.06-20.585,31.677-30.607l0.838-0.57l1.978,7.256l-0.387,0.295c-12.806,9.796-23.193,23.035-30.038,38.275&#xD;&#xA;&#x9;&#x9;l-0.19,0.422H28.421z"/>
  <path fill="#FFFFFF" d="M18.396,47.721c0.676-0.788,4.589-3.772,7.696-4.419c2.055,2.428,4.817,5.418,6.798,9.072&#xD;&#xA;&#x9;&#x9;c8.048-12.725,18.942-22.366,32.12-31.396l1.584,5.813C53.147,37.08,42.901,50.719,36.335,65.34c-2.439,0-4.948,0-7.344,0&#xD;&#xA;&#x9;&#x9;C27.457,58.802,23.709,52.007,18.396,47.721z"/>
</svg>