<svg version="1.2" baseProfile="tiny" viewBox="0 0 100.523 301.61" xmlns:xlink="http://www.w3.org/1999/xlink" xmlns="http://www.w3.org/2000/svg">
<path style="fill:#ffffff;" d="M99.0232,12.5982L99.0232,10.4538L98.0511,10.4538C97.1907,4.5,88.5779,1.499,83.3275,1.499L17.3322,1.499C12.0809,1.499,3.468,4.5,2.4095,10.4538L1.4998,10.4538L1.4998,12.5982L2.303,12.5982L2.303,38.1868L1.4998,38.1868L1.4998,40.3313L2.303,40.3313L2.303,65.9229L1.4998,65.9229L1.4998,68.0673L2.303,68.0673L2.303,93.6559L1.4998,93.6559L1.4998,95.8004L2.303,95.8004L2.303,121.389L1.4998,121.389L1.4998,123.5334L2.303,123.5334L2.303,149.125L1.4998,149.125L1.4998,151.2695L2.303,151.2695L2.303,176.8581L1.4998,176.8581L1.4998,179.0025L2.303,179.0025L2.303,204.5911L1.4998,204.5911L1.4998,206.7355L2.303,206.7355L8.1293,212.0047L8.1293,299.185L4.8201,299.185L4.8201,300.111L18.653,300.111L18.653,299.185L14.8975,299.185L14.8975,270.0887L47.2498,270.0887L47.2498,299.185L44.1728,299.185L44.1728,300.111L56.1521,300.111L56.1521,299.185L53.1445,299.185L53.1445,270.0887L85.3028,269.9801L85.3028,299.0764L82.1384,299.185L82.1384,300.111L95.9703,300.111L95.9703,299.185L92.4249,299.185L92.4239,211.881L98.1175,206.7355L99.0232,206.7355L99.0232,204.5911L98.1175,204.5911L98.1175,179.0025L99.0232,179.0025L99.0232,176.8581L98.1175,176.8581L98.1175,151.2695L99.0232,151.2695L99.0232,149.125L98.1175,149.125L98.1175,123.5334L99.0232,123.5334L99.0232,121.389L98.1175,121.389L98.1175,95.8004L99.0232,95.8004L99.0232,93.6559L98.1175,93.6559L98.1175,68.0643L99.0232,68.0643L99.0232,65.9199L98.1175,65.9199L98.1175,40.3313L99.0232,40.3313L99.0232,38.1868L98.1175,38.1868L98.1175,12.5982L99.0232,12.5982M47.2498,249.1027L14.8975,249.1027L14.8975,218.1304L47.2498,247.3896L47.2498,249.1027M85.3038,248.9941L53.1445,249.1027L53.1445,247.3654L85.3038,218.3023L85.3038,248.9941M14.8975,267.6216L14.8975,251.5699L17.5724,251.5699L41.0415,267.6216L14.8975,267.6216M45.4173,267.6216L21.9452,251.5699L47.2498,251.5699L47.2498,267.6216L45.4173,267.6216M53.1445,267.6216L53.1445,251.5699L78.1777,251.5699L54.7056,267.6216L53.1445,267.6216M59.0794,267.6216L82.5505,251.5699L85.3038,251.4643L85.3038,267.513L59.0794,267.6216Z"/>
</svg>