<svg version="1.2" baseProfile="tiny" viewBox="0 0 18.000 18.000" xmlns:xlink="http://www.w3.org/1999/xlink" xmlns="http://www.w3.org/2000/svg">
<path style="fill:#ffffff;" d="M9,0C4.029,0,0,4.029,0,9c0,4.971,4.029,9,9,9s9-4.029,9-9C18,4.029,13.971,0,9,0z M11.25,4.273   c0.72,0,1.302,0.909,1.302,2.03c0,1.121-0.582,2.029-1.302,2.029S9.948,7.423,9.948,6.303C9.948,5.182,10.53,4.273,11.25,4.273z    M6.75,4.273c0.719,0,1.302,0.909,1.302,2.03c0,1.121-0.583,2.029-1.302,2.029c-0.72,0-1.303-0.909-1.303-2.029   C5.447,5.182,6.03,4.273,6.75,4.273z M9,16.185c-3.963,0-7.176-3.213-7.176-7.176l1.787-0.007c0,2.976,2.412,5.389,5.389,5.389   s5.389-2.413,5.389-5.389l1.787,0.007C16.176,12.972,12.963,16.185,9,16.185z"/>
</svg>