<svg version="1.2" baseProfile="tiny" id="EdgeSVG_Bp7FQ" x="0px" y="0px" width="120px" height="200px" viewBox="0 0 120 200" xmlns:xlink="http://www.w3.org/1999/xlink" xmlns="http://www.w3.org/2000/svg">
  <linearGradient id="SVGID_1_" gradientUnits="userSpaceOnUse" x1="56.1777" y1="150.3667" x2="63.8223" y2="150.3667">
    <stop offset="0" style="stop-color:#000000;stop-opacity:0.2"/>
    <stop offset="0.1534" style="stop-color:#000000;stop-opacity:0.3"/>
    <stop offset="0.3926" style="stop-color:#FFFFFF;stop-opacity:0.25"/>
    <stop offset="0.5" style="stop-color:#FFFFFF;stop-opacity:0.1"/>
    <stop offset="0.6196" style="stop-color:#FFFFFF;stop-opacity:0.25"/>
    <stop offset="0.8405" style="stop-color:#000000;stop-opacity:0.3"/>
    <stop offset="1" style="stop-color:#000000;stop-opacity:0.2"/>
  </linearGradient>
  <path fill="url(#SVGID_1_)" d="M61.434,164.919c0,1.324,1.07,2.398,2.389,2.398v20.576c-1.252,0.163-2.532,0.307-3.822,0.441v2.072&#xD;&#xA;&#x9;&#x9;c-1.318,0-2.389,1.075-2.389,2.398s1.07,2.398,2.389,2.398s2.389-1.074,2.389-2.398s-1.07-2.398-2.389-2.398&#xD;&#xA;&#x9;&#x9;c1.29-0.096,2.561-0.192,3.822-0.307V200h-7.645v-72.262c1.318,0,2.389-1.075,2.389-2.398s-1.07-2.398-2.389-2.398v-21.459&#xD;&#xA;&#x9;&#x9;c1.089-0.144,2.198-0.269,3.316-0.384c-1.08,0.23-1.882,1.19-1.882,2.341c0,1.324,1.07,2.398,2.389,2.398s2.389-1.074,2.389-2.398&#xD;&#xA;&#x9;&#x9;c0-1.324-1.07-2.398-2.389-2.398c1.29-0.096,2.561-0.201,3.822-0.307v61.788C62.504,162.521,61.434,163.595,61.434,164.919z"/>
  <linearGradient id="SVGID_2_" gradientUnits="userSpaceOnUse" x1="56.1777" y1="49.6382" x2="63.8223" y2="49.6382">
    <stop offset="0" style="stop-color:#000000;stop-opacity:0.2"/>
    <stop offset="0.1534" style="stop-color:#000000;stop-opacity:0.3"/>
    <stop offset="0.3926" style="stop-color:#FFFFFF;stop-opacity:0.25"/>
    <stop offset="0.5" style="stop-color:#FFFFFF;stop-opacity:0.1"/>
    <stop offset="0.6196" style="stop-color:#FFFFFF;stop-opacity:0.25"/>
    <stop offset="0.8405" style="stop-color:#000000;stop-opacity:0.3"/>
    <stop offset="1" style="stop-color:#000000;stop-opacity:0.2"/>
  </linearGradient>
  <path fill="url(#SVGID_2_)" d="M61.434,75.553c0,1.324,1.07,2.398,2.389,2.398v20.577C62.57,98.691,61.29,98.834,60,98.969&#xD;&#xA;&#x9;&#x9;c-1.29,0.095-2.561,0.191-3.822,0.307V38.362c1.318,0,2.389-1.075,2.389-2.398s-1.07-2.398-2.389-2.398V12.097&#xD;&#xA;&#x9;&#x9;c1.089-0.134,2.198-0.259,3.316-0.375c-1.08,0.23-1.882,1.19-1.882,2.341c0,1.324,1.07,2.398,2.389,2.398s2.389-1.074,2.389-2.398&#xD;&#xA;&#x9;&#x9;s-1.07-2.398-2.389-2.398V9.593c-1.29,0.096-2.561,0.192-3.822,0.307V0h7.645v73.155C62.504,73.155,61.434,74.229,61.434,75.553z"/>
  <g>
    <linearGradient id="SVGID_3_" gradientUnits="userSpaceOnUse" x1="84.7876" y1="162.5215" x2="84.7876" y2="167.3179">
      <stop offset="0" style="stop-color:#000000;stop-opacity:0.1"/>
      <stop offset="0.1043" style="stop-color:#FFFFFF;stop-opacity:0.35"/>
      <stop offset="0.2945" style="stop-color:#FFFFFF;stop-opacity:0.1"/>
      <stop offset="0.5706" style="stop-color:#000000;stop-opacity:0.3"/>
      <stop offset="1" style="stop-color:#000000;stop-opacity:0.2"/>
    </linearGradient>
    <path fill="url(#SVGID_3_)" d="M108.141,165.879c0,0.172-0.009,0.335-0.028,0.508c0,0.067-0.01,0.134-0.019,0.201&#xD;&#xA;&#x9;&#x9;&#x9;c-0.019,0.24-0.058,0.49-0.096,0.729H63.822c-1.318,0-2.389-1.075-2.389-2.398c0-1.324,1.07-2.398,2.389-2.398h43.45&#xD;&#xA;&#x9;&#x9;&#x9;c0.392,0.767,0.659,1.544,0.774,2.34v0.009c0.029,0.105,0.039,0.211,0.048,0.317c0.009,0.058,0.019,0.125,0.019,0.182&#xD;&#xA;&#x9;&#x9;&#x9;C108.132,165.543,108.141,165.706,108.141,165.879z"/>
  </g>
  <g>
    <linearGradient id="SVGID_4_" gradientUnits="userSpaceOnUse" x1="31.1704" y1="122.9414" x2="31.1704" y2="127.7378">
      <stop offset="0" style="stop-color:#000000;stop-opacity:0.1"/>
      <stop offset="0.1043" style="stop-color:#FFFFFF;stop-opacity:0.35"/>
      <stop offset="0.2945" style="stop-color:#FFFFFF;stop-opacity:0.1"/>
      <stop offset="0.5706" style="stop-color:#000000;stop-opacity:0.3"/>
      <stop offset="1" style="stop-color:#000000;stop-opacity:0.2"/>
    </linearGradient>
    <path fill="url(#SVGID_4_)" d="M58.566,125.339c0,1.324-1.07,2.398-2.389,2.398H6.164c-1.318,0-2.389-1.075-2.389-2.398&#xD;&#xA;&#x9;&#x9;&#x9;s1.07-2.398,2.389-2.398h50.014C57.496,122.941,58.566,124.016,58.566,125.339z"/>
  </g>
  <g>
    <linearGradient id="SVGID_5_" gradientUnits="userSpaceOnUse" x1="7.8267" y1="122.9414" x2="7.8267" y2="127.7378">
      <stop offset="0" style="stop-color:#000000;stop-opacity:0.1"/>
      <stop offset="0.1043" style="stop-color:#FFFFFF;stop-opacity:0.35"/>
      <stop offset="0.2945" style="stop-color:#FFFFFF;stop-opacity:0.1"/>
      <stop offset="0.5706" style="stop-color:#000000;stop-opacity:0.3"/>
      <stop offset="1" style="stop-color:#000000;stop-opacity:0.2"/>
    </linearGradient>
    <path fill="url(#SVGID_5_)" d="M10.865,127.738H6.164c-1.318,0-2.389-1.075-2.389-2.398s1.07-2.398,2.389-2.398h5.714&#xD;&#xA;&#x9;&#x9;&#x9;C10.091,123.296,8.438,127.239,10.865,127.738z"/>
  </g>
  <g>
    <linearGradient id="SVGID_6_" gradientUnits="userSpaceOnUse" x1="84.7876" y1="73.1548" x2="84.7876" y2="77.9512">
      <stop offset="0" style="stop-color:#000000;stop-opacity:0.1"/>
      <stop offset="0.1043" style="stop-color:#FFFFFF;stop-opacity:0.35"/>
      <stop offset="0.2945" style="stop-color:#FFFFFF;stop-opacity:0.1"/>
      <stop offset="0.5706" style="stop-color:#000000;stop-opacity:0.3"/>
      <stop offset="1" style="stop-color:#000000;stop-opacity:0.2"/>
    </linearGradient>
    <path fill="url(#SVGID_6_)" d="M108.141,76.512c0,0.173-0.009,0.336-0.028,0.508c0,0.067-0.01,0.134-0.019,0.201&#xD;&#xA;&#x9;&#x9;&#x9;c-0.019,0.24-0.058,0.49-0.096,0.729H63.822c-1.318,0-2.389-1.075-2.389-2.398s1.07-2.398,2.389-2.398h43.45&#xD;&#xA;&#x9;&#x9;&#x9;c0.392,0.767,0.659,1.544,0.774,2.34c0.029,0.105,0.039,0.221,0.048,0.317c0.009,0.067,0.019,0.125,0.019,0.191&#xD;&#xA;&#x9;&#x9;&#x9;C108.132,76.176,108.141,76.339,108.141,76.512z"/>
  </g>
  <g>
    <linearGradient id="SVGID_7_" gradientUnits="userSpaceOnUse" x1="31.1704" y1="33.5649" x2="31.1704" y2="38.3618">
      <stop offset="0" style="stop-color:#000000;stop-opacity:0.1"/>
      <stop offset="0.1043" style="stop-color:#FFFFFF;stop-opacity:0.35"/>
      <stop offset="0.2945" style="stop-color:#FFFFFF;stop-opacity:0.1"/>
      <stop offset="0.5706" style="stop-color:#000000;stop-opacity:0.3"/>
      <stop offset="1" style="stop-color:#000000;stop-opacity:0.2"/>
    </linearGradient>
    <path fill="url(#SVGID_7_)" d="M58.566,35.963c0,1.324-1.07,2.398-2.389,2.398H6.164c-1.318,0-2.389-1.075-2.389-2.398&#xD;&#xA;&#x9;&#x9;&#x9;s1.07-2.398,2.389-2.398h50.014C57.496,33.565,58.566,34.64,58.566,35.963z"/>
  </g>
  <linearGradient id="SVGID_8_" gradientUnits="userSpaceOnUse" x1="60" y1="178.6606" x2="120" y2="178.6606">
    <stop offset="0" style="stop-color:#000000;stop-opacity:0"/>
    <stop offset="1" style="stop-color:#000000;stop-opacity:0.2"/>
  </linearGradient>
  <path fill="url(#SVGID_8_)" d="M120,167.951c0,10.456-23.669,19.281-56.178,22.15c-1.261,0.115-2.532,0.211-3.822,0.307v-2.072&#xD;&#xA;&#x9;&#x9;c1.29-0.096,2.561-0.192,3.822-0.307c15.079-1.333,28.266-3.942,38.06-7.415c10.607-3.751,17.258-8.499,18.032-13.699&#xD;&#xA;&#x9;&#x9;C119.972,167.26,120,167.605,120,167.951z"/>
  <linearGradient id="SVGID_9_" gradientUnits="userSpaceOnUse" x1="90" y1="144.0068" x2="90" y2="188.3354">
    <stop offset="0" style="stop-color:#FFFFFF;stop-opacity:0.25"/>
    <stop offset="1" style="stop-color:#FFFFFF;stop-opacity:0.35"/>
  </linearGradient>
  <path fill="url(#SVGID_9_)" d="M120,165.879c0,0.345-0.028,0.7-0.086,1.036c-0.774,5.2-7.425,9.948-18.032,13.699&#xD;&#xA;&#x9;&#x9;c-9.794,3.473-22.981,6.082-38.06,7.415c-1.261,0.115-2.532,0.211-3.822,0.307c1.29-0.134,2.57-0.278,3.822-0.441&#xD;&#xA;&#x9;&#x9;c24.597-3.089,42.513-11.185,44.176-20.576c0.038-0.24,0.077-0.49,0.096-0.729c0.009-0.067,0.019-0.134,0.019-0.201&#xD;&#xA;&#x9;&#x9;c0.019-0.173,0.028-0.336,0.028-0.508c0-0.173-0.009-0.336-0.028-0.509c0-0.058-0.01-0.125-0.019-0.182&#xD;&#xA;&#x9;&#x9;c-0.009-0.105-0.019-0.211-0.048-0.317v-0.009c-0.029-0.192-0.057-0.394-0.095-0.585c-0.039-0.201-0.086-0.393-0.144-0.594&#xD;&#xA;&#x9;&#x9;c-0.048-0.192-0.105-0.394-0.182-0.585c-0.066-0.192-0.143-0.384-0.22-0.575c-0.085-0.211-0.181-0.423-0.295-0.633&#xD;&#xA;&#x9;&#x9;c-0.058-0.125-0.115-0.25-0.191-0.365c-0.249-0.46-0.544-0.921-0.879-1.362c-0.115-0.164-0.23-0.317-0.354-0.47&#xD;&#xA;&#x9;&#x9;c-0.124-0.154-0.248-0.297-0.382-0.451c-0.45-0.518-0.946-1.036-1.51-1.544c-0.134-0.125-0.286-0.249-0.43-0.374&#xD;&#xA;&#x9;&#x9;c-1.166-1.007-2.532-1.986-4.08-2.916c-0.258-0.153-0.525-0.307-0.793-0.461c-0.144-0.086-0.296-0.172-0.458-0.258&#xD;&#xA;&#x9;&#x9;c-0.239-0.135-0.478-0.259-0.717-0.394c-0.497-0.259-1.003-0.518-1.52-0.768c-0.506-0.25-1.032-0.489-1.567-0.729&#xD;&#xA;&#x9;&#x9;c-0.277-0.125-0.573-0.259-0.87-0.384c-0.277-0.115-0.563-0.24-0.851-0.355c-0.392-0.163-0.793-0.316-1.194-0.479&#xD;&#xA;&#x9;&#x9;s-0.813-0.317-1.223-0.47c-0.697-0.259-1.424-0.508-2.16-0.757c-0.851-0.288-1.72-0.566-2.618-0.835&#xD;&#xA;&#x9;&#x9;c-0.344-0.105-0.688-0.211-1.042-0.316c-0.554-0.154-1.118-0.317-1.691-0.47c-0.43-0.115-0.86-0.23-1.29-0.345&#xD;&#xA;&#x9;&#x9;c-0.373-0.096-0.746-0.192-1.118-0.278c-0.506-0.125-1.022-0.249-1.548-0.374c-1.347-0.316-2.742-0.614-4.167-0.892&#xD;&#xA;&#x9;&#x9;c-0.382-0.086-0.783-0.154-1.175-0.23c-0.736-0.144-1.481-0.278-2.236-0.403c-0.468-0.086-0.937-0.163-1.414-0.24&#xD;&#xA;&#x9;&#x9;c-0.258-0.048-0.516-0.086-0.784-0.125c-0.545-0.086-1.099-0.173-1.653-0.25c-1.109-0.163-2.227-0.316-3.374-0.46v-0.125&#xD;&#xA;&#x9;&#x9;C96.331,146.856,120,155.432,120,165.879z"/>
  <linearGradient id="SVGID_10_" gradientUnits="userSpaceOnUse" x1="63.8223" y1="154.4966" x2="108.0459" y2="154.4966">
    <stop offset="0" style="stop-color:#000000;stop-opacity:0.2"/>
    <stop offset="1" style="stop-color:#000000;stop-opacity:0.3"/>
  </linearGradient>
  <path fill="url(#SVGID_10_)" d="M108.046,164.862c-0.115-0.796-0.382-1.573-0.774-2.34c-3.889-7.626-20.851-13.881-43.45-16.442&#xD;&#xA;&#x9;&#x9;v-1.948c1.147,0.145,2.265,0.298,3.374,0.46c0.554,0.077,1.108,0.164,1.653,0.25c0.268,0.038,0.525,0.077,0.784,0.125&#xD;&#xA;&#x9;&#x9;c0.478,0.077,0.946,0.153,1.414,0.24c0.755,0.125,1.5,0.259,2.236,0.403c0.392,0.077,0.793,0.144,1.175,0.23&#xD;&#xA;&#x9;&#x9;c1.424,0.278,2.819,0.576,4.167,0.892c0.525,0.125,1.042,0.25,1.548,0.374c0.373,0.086,0.746,0.182,1.118,0.278&#xD;&#xA;&#x9;&#x9;c0.43,0.115,0.86,0.23,1.29,0.345c0.573,0.153,1.137,0.316,1.691,0.47c0.354,0.105,0.697,0.211,1.042,0.316&#xD;&#xA;&#x9;&#x9;c0.898,0.269,1.768,0.547,2.618,0.835c0.736,0.249,1.462,0.499,2.16,0.757c0.411,0.153,0.822,0.307,1.223,0.47&#xD;&#xA;&#x9;&#x9;s0.802,0.316,1.194,0.479c0.287,0.115,0.574,0.24,0.851,0.355c0.296,0.125,0.593,0.259,0.87,0.384&#xD;&#xA;&#x9;&#x9;c0.535,0.24,1.061,0.479,1.567,0.729c0.516,0.25,1.023,0.508,1.52,0.768c0.239,0.134,0.478,0.259,0.717,0.394&#xD;&#xA;&#x9;&#x9;c0.163,0.086,0.315,0.172,0.458,0.258c0.268,0.154,0.535,0.308,0.793,0.461c1.548,0.93,2.915,1.909,4.08,2.916&#xD;&#xA;&#x9;&#x9;c0.144,0.125,0.296,0.25,0.43,0.374c0.564,0.509,1.061,1.027,1.51,1.544c0.134,0.154,0.258,0.297,0.382,0.451&#xD;&#xA;&#x9;&#x9;c0.124,0.153,0.239,0.307,0.354,0.47c0.334,0.441,0.63,0.901,0.879,1.362c0.066,0.125,0.134,0.24,0.191,0.365&#xD;&#xA;&#x9;&#x9;c0.114,0.21,0.21,0.422,0.295,0.633c0.077,0.191,0.153,0.383,0.22,0.575c0.077,0.192,0.134,0.393,0.182,0.585&#xD;&#xA;&#x9;&#x9;c0.057,0.201,0.105,0.393,0.144,0.594C107.989,164.468,108.017,164.67,108.046,164.862z"/>
  <linearGradient id="SVGID_11_" gradientUnits="userSpaceOnUse" x1="0" y1="100.0049" x2="120" y2="100.0049">
    <stop offset="0" style="stop-color:#000000;stop-opacity:0.2"/>
    <stop offset="0.4908" style="stop-color:#000000;stop-opacity:0"/>
    <stop offset="1" style="stop-color:#000000;stop-opacity:0.2"/>
  </linearGradient>
  <path fill="url(#SVGID_11_)" d="M120,78.584c0,10.446-23.669,19.271-56.178,22.149c-1.261,0.105-2.532,0.211-3.822,0.307&#xD;&#xA;&#x9;&#x9;c-1.29,0.096-2.561,0.192-3.822,0.308c-15.079,1.333-28.275,3.942-38.06,7.415c-10.625,3.75-17.258,8.499-18.041,13.698&#xD;&#xA;&#x9;&#x9;C0.019,122.116,0,121.771,0,121.425c0-10.456,23.66-19.281,56.178-22.149c1.262-0.115,2.532-0.211,3.822-0.307&#xD;&#xA;&#x9;&#x9;c1.29-0.096,2.561-0.202,3.822-0.317c15.079-1.333,28.266-3.943,38.06-7.406c10.607-3.76,17.258-8.499,18.032-13.698&#xD;&#xA;&#x9;&#x9;C119.972,77.884,120,78.239,120,78.584z"/>
  <linearGradient id="SVGID_12_" gradientUnits="userSpaceOnUse" x1="30" y1="145.3691" x2="30" y2="101.0405">
    <stop offset="0" style="stop-color:#000000;stop-opacity:0.35"/>
    <stop offset="1" style="stop-color:#000000;stop-opacity:0.45"/>
  </linearGradient>
  <path fill="url(#SVGID_12_)" d="M3.775,125.339c0,1.324,1.07,2.398,2.389,2.398h6.852c0.076,0.173,0.172,0.335,0.277,0.499&#xD;&#xA;&#x9;&#x9;c0.077,0.105,0.144,0.221,0.21,0.336c0.774,1.199,1.825,2.369,3.125,3.482c0.392,0.345,0.803,0.672,1.232,0.998&#xD;&#xA;&#x9;&#x9;c0.22,0.163,0.439,0.326,0.659,0.489c0.679,0.489,1.415,0.959,2.188,1.429c0.258,0.153,0.516,0.307,0.784,0.46&#xD;&#xA;&#x9;&#x9;c0.535,0.307,1.099,0.604,1.672,0.912c0.458,0.23,0.927,0.47,1.414,0.7c0.555,0.259,1.127,0.518,1.72,0.777&#xD;&#xA;&#x9;&#x9;c0.468,0.202,0.946,0.403,1.433,0.604c1.367,0.556,2.81,1.094,4.329,1.602c2.417,0.815,5.007,1.563,7.759,2.245&#xD;&#xA;&#x9;&#x9;c0.439,0.115,0.889,0.221,1.338,0.327c0.688,0.163,1.385,0.316,2.092,0.47c0.784,0.173,1.577,0.336,2.379,0.489&#xD;&#xA;&#x9;&#x9;c0.354,0.077,0.716,0.144,1.08,0.211c0.402,0.077,0.803,0.154,1.204,0.221c0.382,0.077,0.774,0.144,1.166,0.211&#xD;&#xA;&#x9;&#x9;c0.382,0.067,0.764,0.125,1.156,0.191c0.306,0.048,0.611,0.096,0.917,0.144c0.544,0.086,1.099,0.172,1.653,0.25&#xD;&#xA;&#x9;&#x9;c1.108,0.163,2.227,0.316,3.373,0.46v0.125C23.66,142.52,0,133.935,0,123.498c0-0.345,0.019-0.7,0.077-1.036&#xD;&#xA;&#x9;&#x9;c0.783-5.199,7.416-9.948,18.041-13.698c9.785-3.473,22.981-6.082,38.06-7.415c1.262-0.115,2.532-0.211,3.822-0.308&#xD;&#xA;&#x9;&#x9;c-1.29,0.135-2.57,0.278-3.822,0.441c-25.237,3.166-43.44,11.598-44.281,21.306c-0.01,0.048-0.019,0.106-0.019,0.154H6.164&#xD;&#xA;&#x9;&#x9;C4.845,122.941,3.775,124.016,3.775,125.339z"/>
  <linearGradient id="SVGID_13_" gradientUnits="userSpaceOnUse" x1="13.0151" y1="136.4912" x2="56.1777" y2="136.4912">
    <stop offset="0" style="stop-color:#000000;stop-opacity:0.3"/>
    <stop offset="1" style="stop-color:#000000;stop-opacity:0.2"/>
  </linearGradient>
  <path fill="url(#SVGID_13_)" d="M56.178,143.297v1.947c-1.146-0.144-2.265-0.298-3.373-0.46c-0.554-0.077-1.108-0.163-1.653-0.25&#xD;&#xA;&#x9;&#x9;c-0.306-0.048-0.612-0.096-0.917-0.144c-0.392-0.067-0.774-0.125-1.156-0.191c-0.392-0.068-0.784-0.135-1.166-0.211&#xD;&#xA;&#x9;&#x9;c-0.401-0.067-0.802-0.144-1.204-0.221c-0.363-0.067-0.726-0.134-1.08-0.211c-0.803-0.153-1.596-0.316-2.379-0.489&#xD;&#xA;&#x9;&#x9;c-0.707-0.154-1.405-0.307-2.092-0.47c-0.45-0.106-0.899-0.211-1.338-0.327c-2.752-0.681-5.341-1.429-7.759-2.245&#xD;&#xA;&#x9;&#x9;c-1.52-0.508-2.962-1.045-4.329-1.602c-0.487-0.202-0.965-0.403-1.433-0.604c-0.593-0.259-1.166-0.518-1.72-0.777&#xD;&#xA;&#x9;&#x9;c-0.487-0.24-0.956-0.47-1.414-0.7c-0.573-0.308-1.137-0.605-1.672-0.912c-0.268-0.154-0.526-0.307-0.784-0.46&#xD;&#xA;&#x9;&#x9;c-0.773-0.47-1.509-0.94-2.188-1.429c-0.22-0.164-0.439-0.327-0.659-0.489c-0.43-0.326-0.841-0.662-1.232-0.998&#xD;&#xA;&#x9;&#x9;c-1.3-1.113-2.351-2.283-3.125-3.482c-0.066-0.115-0.133-0.23-0.21-0.336c-0.105-0.163-0.201-0.326-0.277-0.499h0.21&#xD;&#xA;&#x9;&#x9;C17.927,134.961,34.448,140.832,56.178,143.297z"/>
  <linearGradient id="SVGID_14_" gradientUnits="userSpaceOnUse" x1="90" y1="54.6309" x2="90" y2="98.9692">
    <stop offset="0" style="stop-color:#FFFFFF;stop-opacity:0.25"/>
    <stop offset="1" style="stop-color:#FFFFFF;stop-opacity:0.35"/>
  </linearGradient>
  <path fill="url(#SVGID_14_)" d="M120,76.512c0,0.345-0.028,0.69-0.086,1.036c-0.774,5.199-7.425,9.938-18.032,13.698&#xD;&#xA;&#x9;&#x9;c-9.794,3.463-22.981,6.072-38.06,7.406c-1.261,0.115-2.532,0.221-3.822,0.317c1.29-0.135,2.57-0.278,3.822-0.441&#xD;&#xA;&#x9;&#x9;c24.597-3.089,42.513-11.186,44.176-20.577c0.038-0.24,0.077-0.49,0.096-0.729c0.009-0.067,0.019-0.134,0.019-0.201&#xD;&#xA;&#x9;&#x9;c0.019-0.172,0.028-0.335,0.028-0.508s-0.009-0.336-0.028-0.509c0-0.067-0.01-0.125-0.019-0.191&#xD;&#xA;&#x9;&#x9;c-0.009-0.096-0.019-0.211-0.048-0.317c-0.029-0.192-0.057-0.393-0.095-0.585c-0.039-0.201-0.086-0.394-0.144-0.595&#xD;&#xA;&#x9;&#x9;c-0.048-0.192-0.105-0.394-0.182-0.585c-0.066-0.192-0.143-0.384-0.22-0.576c-0.334-0.806-0.792-1.602-1.366-2.37&#xD;&#xA;&#x9;&#x9;c-0.115-0.153-0.23-0.307-0.354-0.46c-0.889-1.112-2.007-2.187-3.354-3.213c-0.144-0.115-0.287-0.221-0.43-0.326&#xD;&#xA;&#x9;&#x9;c-1.242-0.931-2.656-1.823-4.224-2.667c-0.258-0.134-0.516-0.278-0.774-0.413c-1.176-0.604-2.427-1.199-3.756-1.755&#xD;&#xA;&#x9;&#x9;c-0.649-0.278-1.318-0.557-2.007-0.815c-0.344-0.134-0.697-0.269-1.051-0.393c-0.697-0.269-1.424-0.518-2.16-0.768&#xD;&#xA;&#x9;&#x9;c-0.851-0.288-1.72-0.566-2.618-0.834c-0.439-0.134-0.898-0.269-1.347-0.394c-0.459-0.134-0.917-0.268-1.386-0.383&#xD;&#xA;&#x9;&#x9;c-0.468-0.135-0.937-0.259-1.415-0.375c-0.478-0.125-0.956-0.249-1.442-0.364c-0.736-0.182-1.472-0.355-2.227-0.518&#xD;&#xA;&#x9;&#x9;c-0.745-0.163-1.51-0.336-2.274-0.489c-0.516-0.105-1.032-0.202-1.557-0.307c-2.179-0.422-4.434-0.806-6.756-1.132&#xD;&#xA;&#x9;&#x9;c-0.975-0.144-1.968-0.278-2.972-0.403c-0.038-0.01-0.077-0.01-0.115-0.01v-0.134C96.331,57.49,120,66.065,120,76.512z"/>
  <linearGradient id="SVGID_15_" gradientUnits="userSpaceOnUse" x1="63.8223" y1="65.1304" x2="108.0459" y2="65.1304">
    <stop offset="0" style="stop-color:#000000;stop-opacity:0.2"/>
    <stop offset="1" style="stop-color:#000000;stop-opacity:0.3"/>
  </linearGradient>
  <path fill="url(#SVGID_15_)" d="M108.046,75.495c-0.115-0.796-0.382-1.573-0.774-2.34c-3.889-7.626-20.851-13.881-43.45-16.442&#xD;&#xA;&#x9;&#x9;v-1.947c0.038,0,0.077,0,0.115,0.01c1.003,0.134,1.997,0.259,2.972,0.403c2.322,0.326,4.577,0.71,6.756,1.132&#xD;&#xA;&#x9;&#x9;c0.525,0.105,1.041,0.202,1.557,0.307c0.765,0.153,1.529,0.326,2.274,0.489c0.755,0.163,1.491,0.336,2.227,0.518&#xD;&#xA;&#x9;&#x9;c0.487,0.115,0.965,0.24,1.442,0.364c0.478,0.115,0.946,0.24,1.415,0.375c0.468,0.115,0.927,0.249,1.386,0.383&#xD;&#xA;&#x9;&#x9;c0.449,0.125,0.908,0.259,1.347,0.394c0.898,0.269,1.768,0.547,2.618,0.834c0.736,0.25,1.462,0.499,2.16,0.768&#xD;&#xA;&#x9;&#x9;c0.354,0.125,0.707,0.259,1.051,0.393c0.679,0.269,1.348,0.537,2.007,0.815c1.329,0.556,2.58,1.151,3.756,1.755&#xD;&#xA;&#x9;&#x9;c0.258,0.135,0.516,0.278,0.774,0.413c1.567,0.844,2.981,1.736,4.224,2.667c0.143,0.105,0.286,0.211,0.43,0.326&#xD;&#xA;&#x9;&#x9;c1.347,1.026,2.465,2.101,3.354,3.213c0.124,0.153,0.239,0.307,0.354,0.46c0.573,0.768,1.032,1.564,1.366,2.37&#xD;&#xA;&#x9;&#x9;c0.077,0.192,0.153,0.383,0.22,0.576c0.077,0.191,0.134,0.393,0.182,0.585c0.057,0.201,0.105,0.394,0.144,0.595&#xD;&#xA;&#x9;&#x9;C107.989,75.102,108.017,75.303,108.046,75.495z"/>
  <linearGradient id="SVGID_16_" gradientUnits="userSpaceOnUse" x1="30" y1="56.0029" x2="30" y2="11.6646">
    <stop offset="0" style="stop-color:#000000;stop-opacity:0.35"/>
    <stop offset="1" style="stop-color:#000000;stop-opacity:0.45"/>
  </linearGradient>
  <path fill="url(#SVGID_16_)" d="M60,11.665L60,11.665c-1.29,0.134-2.57,0.278-3.822,0.432&#xD;&#xA;&#x9;&#x9;c-25.237,3.156-43.44,11.617-44.281,21.315c-0.01,0.048-0.019,0.106-0.019,0.153H6.164c-1.318,0-2.389,1.075-2.389,2.398&#xD;&#xA;&#x9;&#x9;s1.07,2.398,2.389,2.398h6.842c0.315,0.595,0.707,1.189,1.156,1.765c0.268,0.346,0.554,0.691,0.87,1.027&#xD;&#xA;&#x9;&#x9;c0.478,0.518,1.013,1.026,1.596,1.534c0.392,0.336,0.803,0.672,1.232,0.998c1.729,1.305,3.803,2.552,6.183,3.722&#xD;&#xA;&#x9;&#x9;c0.268,0.134,0.535,0.269,0.813,0.393c0.172,0.077,0.334,0.154,0.506,0.23c0.507,0.24,1.032,0.47,1.567,0.69&#xD;&#xA;&#x9;&#x9;c0.296,0.125,0.602,0.25,0.907,0.374c0.334,0.144,0.669,0.278,1.013,0.403c1.032,0.403,2.102,0.787,3.211,1.161&#xD;&#xA;&#x9;&#x9;c0.516,0.173,1.032,0.346,1.567,0.509c0.468,0.144,0.936,0.288,1.414,0.432c2.571,0.768,5.313,1.468,8.208,2.101&#xD;&#xA;&#x9;&#x9;c0.784,0.173,1.577,0.336,2.379,0.49c0.354,0.077,0.716,0.144,1.08,0.211c0.402,0.076,0.803,0.153,1.204,0.221&#xD;&#xA;&#x9;&#x9;c0.382,0.076,0.774,0.144,1.166,0.211c0.382,0.067,0.764,0.125,1.156,0.192c0.306,0.048,0.611,0.096,0.917,0.144&#xD;&#xA;&#x9;&#x9;c0.544,0.086,1.099,0.173,1.653,0.25c1.108,0.164,2.227,0.316,3.373,0.46v0.125C23.66,53.144,0,44.568,0,34.122&#xD;&#xA;&#x9;&#x9;c0-0.345,0.019-0.691,0.077-1.036c1.5-9.986,24.672-18.332,56.101-21.104C57.439,11.857,58.71,11.761,60,11.665z"/>
  <linearGradient id="SVGID_17_" gradientUnits="userSpaceOnUse" x1="0" y1="21.3394" x2="60" y2="21.3394">
    <stop offset="0" style="stop-color:#000000;stop-opacity:0.2"/>
    <stop offset="1" style="stop-color:#000000;stop-opacity:0"/>
  </linearGradient>
  <path fill="url(#SVGID_17_)" d="M60,9.593v2.072c-1.29,0.096-2.561,0.192-3.822,0.317C24.749,14.754,1.577,23.099,0.077,33.085&#xD;&#xA;&#x9;&#x9;C0.019,32.75,0,32.404,0,32.049C0,21.603,23.66,12.778,56.178,9.9C57.439,9.785,58.71,9.688,60,9.593z"/>
  <linearGradient id="SVGID_18_" gradientUnits="userSpaceOnUse" x1="13.0054" y1="47.1196" x2="56.1777" y2="47.1196">
    <stop offset="0" style="stop-color:#000000;stop-opacity:0.3"/>
    <stop offset="1" style="stop-color:#000000;stop-opacity:0.2"/>
  </linearGradient>
  <path fill="url(#SVGID_18_)" d="M56.178,53.921v1.957c-1.146-0.144-2.265-0.297-3.373-0.46c-0.554-0.077-1.108-0.163-1.653-0.25&#xD;&#xA;&#x9;&#x9;c-0.306-0.047-0.612-0.096-0.917-0.144c-0.392-0.067-0.774-0.125-1.156-0.192c-0.392-0.067-0.784-0.135-1.166-0.211&#xD;&#xA;&#x9;&#x9;c-0.401-0.067-0.802-0.145-1.204-0.221c-0.363-0.067-0.726-0.134-1.08-0.211c-0.803-0.154-1.596-0.317-2.379-0.49&#xD;&#xA;&#x9;&#x9;c-2.896-0.633-5.638-1.333-8.208-2.101c-0.478-0.144-0.946-0.288-1.414-0.432c-0.535-0.163-1.051-0.336-1.567-0.509&#xD;&#xA;&#x9;&#x9;c-1.109-0.374-2.179-0.758-3.211-1.161c-0.344-0.125-0.679-0.259-1.013-0.403c-0.306-0.125-0.611-0.249-0.907-0.374&#xD;&#xA;&#x9;&#x9;c-0.535-0.221-1.061-0.451-1.567-0.69c-0.172-0.077-0.334-0.154-0.506-0.23c-0.277-0.125-0.545-0.259-0.813-0.393&#xD;&#xA;&#x9;&#x9;c-2.379-1.17-4.453-2.417-6.183-3.722c-0.43-0.326-0.841-0.662-1.232-0.998c-0.583-0.508-1.118-1.016-1.596-1.534&#xD;&#xA;&#x9;&#x9;c-0.315-0.336-0.602-0.681-0.87-1.027c-0.449-0.576-0.841-1.17-1.156-1.765h0.22C17.927,45.585,34.448,51.465,56.178,53.921z"/>
  <linearGradient id="SVGID_19_" gradientUnits="userSpaceOnUse" x1="3.7749" y1="125.3394" x2="11.8779" y2="125.3394">
    <stop offset="0" style="stop-color:#000000;stop-opacity:0.45"/>
    <stop offset="1" style="stop-color:#000000;stop-opacity:0.45"/>
  </linearGradient>
  <path fill="url(#SVGID_19_)" d="M10.865,127.738H6.164c-1.318,0-2.389-1.075-2.389-2.398s1.07-2.398,2.389-2.398h5.714&#xD;&#xA;&#x9;&#x9;C10.091,123.296,8.438,127.239,10.865,127.738z"/>
  <linearGradient id="SVGID_20_" gradientUnits="userSpaceOnUse" x1="3.7749" y1="35.9634" x2="11.8779" y2="35.9634">
    <stop offset="0" style="stop-color:#000000;stop-opacity:0.45"/>
    <stop offset="1" style="stop-color:#000000;stop-opacity:0.45"/>
  </linearGradient>
  <path fill="url(#SVGID_20_)" d="M10.865,38.362H6.164c-1.318,0-2.389-1.075-2.389-2.398s1.07-2.398,2.389-2.398h5.714&#xD;&#xA;&#x9;&#x9;C10.091,33.92,8.438,37.863,10.865,38.362z"/>
  <linearGradient id="SVGID_21_" gradientUnits="userSpaceOnUse" x1="107.1978" y1="76.1333" x2="108.2109" y2="76.1333">
    <stop offset="0" style="stop-color:#000000;stop-opacity:0.45"/>
    <stop offset="1" style="stop-color:#000000;stop-opacity:0.45"/>
  </linearGradient>
  <path fill="url(#SVGID_21_)" d="M107.807,74.315c0.287,1.497-0.072,2.834-0.609,3.636h0.8&#xD;&#xA;&#x9;&#x9;C107.998,77.951,108.586,76.276,107.807,74.315z"/>
  <linearGradient id="SVGID_22_" gradientUnits="userSpaceOnUse" x1="107.1284" y1="165.5" x2="108.1416" y2="165.5">
    <stop offset="0" style="stop-color:#000000;stop-opacity:0.45"/>
    <stop offset="1" style="stop-color:#000000;stop-opacity:0.45"/>
  </linearGradient>
  <path fill="url(#SVGID_22_)" d="M107.738,163.682c0.287,1.497-0.072,2.834-0.609,3.636h0.8&#xD;&#xA;&#x9;&#x9;C107.929,167.318,108.517,165.643,107.738,163.682z"/>
  <linearGradient id="SVGID_23_" gradientUnits="userSpaceOnUse" x1="60" y1="101.0405" x2="60" y2="105.8374">
    <stop offset="0" style="stop-color:#FFFFFF;stop-opacity:0.1"/>
    <stop offset="1" style="stop-color:#000000;stop-opacity:0"/>
  </linearGradient>
  <ellipse fill="url(#SVGID_23_)" cx="60" cy="103.439" rx="2.389" ry="2.398"/>
  <linearGradient id="SVGID_24_" gradientUnits="userSpaceOnUse" x1="60" y1="190.4072" x2="60" y2="195.2036">
    <stop offset="0" style="stop-color:#FFFFFF;stop-opacity:0.1"/>
    <stop offset="1" style="stop-color:#000000;stop-opacity:0"/>
  </linearGradient>
  <ellipse fill="url(#SVGID_24_)" cx="60" cy="192.806" rx="2.389" ry="2.398"/>
  <linearGradient id="SVGID_25_" gradientUnits="userSpaceOnUse" x1="60" y1="11.6646" x2="60" y2="16.4609">
    <stop offset="0" style="stop-color:#FFFFFF;stop-opacity:0.1"/>
    <stop offset="1" style="stop-color:#000000;stop-opacity:0"/>
  </linearGradient>
  <ellipse fill="url(#SVGID_25_)" cx="60" cy="14.063" rx="2.389" ry="2.398"/>
  <linearGradient id="SVGID_26_" gradientUnits="userSpaceOnUse" x1="60.0005" y1="14.4082" x2="60.0005" y2="26.9556">
    <stop offset="0" style="stop-color:#000000;stop-opacity:0.45"/>
    <stop offset="1" style="stop-color:#000000;stop-opacity:0"/>
  </linearGradient>
  <path fill="url(#SVGID_26_)" d="M62.36,14.408l-0.927,12.547h-2.867L57.64,14.408c0.162,1.161,1.156,2.053,2.36,2.053&#xD;&#xA;&#x9;&#x9;C61.204,16.461,62.198,15.569,62.36,14.408z"/>
  <linearGradient id="SVGID_27_" gradientUnits="userSpaceOnUse" x1="60.0005" y1="103.7842" x2="60.0005" y2="116.3315">
    <stop offset="0" style="stop-color:#000000;stop-opacity:0.45"/>
    <stop offset="1" style="stop-color:#000000;stop-opacity:0"/>
  </linearGradient>
  <path fill="url(#SVGID_27_)" d="M62.36,103.784l-0.927,12.547h-2.867l-0.926-12.547c0.162,1.161,1.156,2.053,2.36,2.053&#xD;&#xA;&#x9;&#x9;C61.204,105.837,62.198,104.945,62.36,103.784z"/>
  <linearGradient id="SVGID_28_" gradientUnits="userSpaceOnUse" x1="60.0005" y1="193.1509" x2="60.0005" y2="200">
    <stop offset="0" style="stop-color:#000000;stop-opacity:0.45"/>
    <stop offset="1" style="stop-color:#000000;stop-opacity:0.2"/>
  </linearGradient>
  <path fill="url(#SVGID_28_)" d="M62.36,193.151L61.854,200h-3.708l-0.506-6.849c0.162,1.161,1.156,2.053,2.36,2.053&#xD;&#xA;&#x9;&#x9;C61.204,195.204,62.198,194.312,62.36,193.151z"/>
</svg>