<svg version="1.2" baseProfile="tiny" viewBox="0 0 120.0 200.0" xmlns:xlink="http://www.w3.org/1999/xlink" xmlns="http://www.w3.org/2000/svg">
<path style="fill:#ffffff;" d="M63.822,100.734L63.822,162.522C62.5044,162.522,61.4328,163.596,61.4328,164.92C61.4328,166.244,62.5032,167.318,63.822,167.318L63.822,187.894C62.5704,188.056,61.29,188.2,60.0,188.336L60.0,190.408C61.29,190.312,62.5608,190.216,63.822,190.1L63.822,200.0L56.1768,200.0L56.1768,127.738C57.4944,127.738,58.566,126.662,58.566,125.34C58.566,124.016,57.4956,122.942,56.1768,122.942L56.1768,101.484C57.4296,101.32,58.7088,101.176,59.9988,101.042C61.29,100.944,62.5608,100.838,63.822,100.734M56.178,0.0L56.178,9.9C57.4392,9.786,58.71,9.688,60.0,9.594L60.0,11.664C58.71,11.798,57.4296,11.942,56.178,12.096L56.178,33.566C57.4956,33.566,58.5672,34.64,58.5672,35.964C58.5672,37.286,57.4968,38.362,56.178,38.362L56.178,99.276C57.4404,99.16,58.71,99.066,60.0,98.968C61.29,98.834,62.5704,98.692,63.822,98.528L63.822,77.95C62.5044,77.95,61.4328,76.876,61.4328,75.552C61.4328,74.23,62.5032,73.156,63.822,73.156L63.822,0.0L56.178,0.0L56.178,0.0M108.1128,165.37C108.1128,165.312,108.1032,165.244,108.0936,165.188C108.0852,165.084,108.0756,164.976,108.0456,164.872L108.0456,164.862C107.9316,164.066,107.664,163.288,107.2716,162.522L63.822,162.522C62.5044,162.522,61.4328,163.596,61.4328,164.92C61.4328,166.244,62.5032,167.318,63.822,167.318L107.9976,167.318C108.036,167.078,108.0756,166.828,108.0936,166.59C108.1032,166.522,108.1128,166.456,108.1128,166.388C108.132,166.216,108.1416,166.052,108.1416,165.88C108.1416,165.706,108.132,165.542,108.1128,165.37M56.178,122.942L6.1644,122.942L6.1644,122.942C4.8456,122.942,3.7752,124.016,3.7752,125.34C3.7752,126.662,4.8456,127.736,6.1644,127.736L56.178,127.736C57.4956,127.736,58.5672,126.662,58.5672,125.34C58.5672,124.016,57.4956,122.942,56.178,122.942M108.1128,76.002C108.1128,75.936,108.1032,75.878,108.0936,75.812C108.0852,75.716,108.0756,75.6,108.0456,75.496C107.9316,74.698,107.664,73.922,107.2716,73.156L63.822,73.156C62.5044,73.156,61.4328,74.23,61.4328,75.552C61.4328,76.876,62.5032,77.95,63.822,77.95L107.9976,77.95C108.036,77.71,108.0756,77.462,108.0936,77.222C108.1032,77.154,108.1128,77.088,108.1128,77.022C108.132,76.85,108.1416,76.686,108.1416,76.514C108.1416,76.34,108.132,76.176,108.1128,76.002M56.178,33.566L6.1644,33.566L6.1644,33.566C4.8456,33.566,3.7752,34.64,3.7752,35.964C3.7752,37.286,4.8456,38.36,6.1644,38.36L56.178,38.36C57.4956,38.36,58.5672,37.286,58.5672,35.964C58.5672,34.64,57.4956,33.566,56.178,33.566Z"/>
</svg>