<svg version="1.2" baseProfile="tiny" viewBox="0 0 120.0 200.0" xmlns:xlink="http://www.w3.org/1999/xlink" xmlns="http://www.w3.org/2000/svg">
<path style="fill:#ffffff;" d="M120.0,167.95C120.0,178.408,96.3312,187.232,63.822,190.102C62.5608,190.216,61.29,190.312,60.0,190.408L60.0,188.336C61.29,188.24,62.5608,188.144,63.822,188.03C78.9012,186.696,92.088,184.086,101.8824,180.614C112.4892,176.862,119.1396,172.116,119.9136,166.914C119.9724,167.26,120.0,167.604,120.0,167.95M63.822,144.006L63.822,144.132C64.9692,144.276,66.0876,144.43,67.1964,144.592C67.7496,144.67,68.304,144.756,68.8488,144.842C69.1176,144.88,69.3744,144.92,69.6324,144.968C70.1112,145.044,70.5792,145.12,71.0472,145.206C71.802,145.332,72.5472,145.466,73.2828,145.61C73.6752,145.688,74.076,145.754,74.4576,145.84C75.882,146.118,77.2764,146.416,78.6252,146.732C79.1496,146.856,79.6668,146.982,80.1732,147.106C80.5464,147.192,80.9184,147.288,81.2904,147.384C81.7212,147.5,82.1508,147.614,82.5804,147.73C83.154,147.882,83.718,148.044,84.2724,148.2C84.6264,148.304,84.9684,148.41,85.314,148.514C86.2116,148.784,87.0816,149.062,87.9324,149.35C88.668,149.598,89.394,149.848,90.0924,150.106C90.5028,150.26,90.9144,150.414,91.3152,150.578C91.716,150.74,92.1168,150.894,92.5092,151.056C92.796,151.17,93.0828,151.296,93.36,151.412C93.6564,151.536,93.9528,151.67,94.23,151.794C94.7652,152.034,95.2908,152.274,95.7972,152.524C96.3132,152.774,96.8196,153.032,97.3164,153.292C97.5564,153.426,97.7952,153.55,98.034,153.686C98.1972,153.772,98.3496,153.858,98.4924,153.944C98.76,154.098,99.0264,154.252,99.2844,154.404C100.8324,155.336,102.2004,156.314,103.3656,157.32C103.5084,157.446,103.6608,157.57,103.7952,157.694C104.3592,158.204,104.856,158.722,105.3048,159.238C105.4392,159.394,105.5628,159.536,105.6864,159.69C105.8112,159.842,105.9264,159.998,106.0404,160.16C106.3752,160.6,106.6716,161.062,106.92,161.522C106.9968,161.638,107.0544,161.762,107.1108,161.888C107.2248,162.098,107.3208,162.308,107.406,162.52C107.4828,162.712,107.5584,162.902,107.6256,163.094C107.7036,163.288,107.76,163.488,107.808,163.68C107.8644,163.882,107.9124,164.074,107.952,164.274C107.9904,164.466,108.018,164.668,108.0468,164.858L108.0468,164.868C108.0756,164.974,108.0864,165.078,108.0948,165.186C108.1044,165.242,108.114,165.31,108.114,165.366C108.1332,165.54,108.1416,165.704,108.1416,165.876C108.1416,166.048,108.1332,166.212,108.114,166.384C108.114,166.45,108.1044,166.518,108.0948,166.586C108.0756,166.824,108.0372,167.074,107.9988,167.314C106.3356,176.706,88.4196,184.8,63.8232,187.89C62.5716,188.054,61.2912,188.196,60.0012,188.33C61.2912,188.236,62.562,188.14,63.8232,188.024C78.9024,186.692,92.0892,184.082,101.8824,180.61C112.4904,176.858,119.1408,172.11,119.9148,166.91C119.9724,166.574,120.0012,166.22,120.0012,165.874C120.0,155.432,96.3312,146.856,63.822,144.006M107.9508,164.276C107.9124,164.074,107.8644,163.884,107.8068,163.682C107.7588,163.49,107.7024,163.288,107.6244,163.098C107.5584,162.906,107.4816,162.712,107.4048,162.522C107.3196,162.312,107.2236,162.098,107.1096,161.89C107.052,161.764,106.9848,161.648,106.9188,161.524C106.6704,161.064,106.3752,160.604,106.0404,160.162C105.9252,159.998,105.81,159.844,105.6864,159.692C105.5616,159.538,105.438,159.396,105.3036,159.242C104.8536,158.724,104.358,158.206,103.794,157.696C103.6596,157.572,103.5084,157.448,103.3644,157.324C102.198,156.316,100.8324,155.336,99.2844,154.408C99.0264,154.254,98.7588,154.1,98.4912,153.946C98.3472,153.86,98.1948,153.774,98.0328,153.688C97.794,153.554,97.5552,153.428,97.3164,153.294C96.8196,153.034,96.3132,152.776,95.796,152.526C95.2896,152.276,94.764,152.036,94.2288,151.798C93.9516,151.672,93.6564,151.538,93.3588,151.414C93.0816,151.298,92.796,151.174,92.508,151.058C92.1156,150.896,91.7148,150.742,91.314,150.58C90.9132,150.416,90.5016,150.262,90.0912,150.11C89.394,149.85,88.6668,149.602,87.9312,149.352C87.0804,149.064,86.2104,148.786,85.3128,148.516C84.9684,148.412,84.6252,148.306,84.2712,148.2C83.7168,148.046,83.1528,147.884,82.5804,147.73C82.1496,147.616,81.72,147.502,81.2904,147.386C80.9172,147.29,80.544,147.194,80.172,147.108C79.6656,146.982,79.1496,146.86,78.624,146.734C77.2764,146.418,75.882,146.12,74.4564,145.842C74.0748,145.756,73.674,145.688,73.2816,145.612C72.546,145.468,71.8008,145.334,71.046,145.21C70.578,145.122,70.1088,145.046,69.6324,144.968C69.3744,144.92,69.1164,144.884,68.8476,144.844C68.3028,144.758,67.7484,144.67,67.1952,144.594C66.0864,144.432,64.968,144.278,63.8208,144.134L63.8208,146.082C86.4204,148.642,103.3824,154.898,107.2704,162.524C107.6628,163.29,107.9304,164.068,108.0456,164.864C108.0168,164.67,107.9892,164.468,107.9508,164.276M119.9136,77.548C119.1396,82.748,112.4892,87.486,101.8824,91.246C92.088,94.708,78.9012,97.318,63.822,98.652C62.5608,98.766,61.29,98.872,60.0,98.968C58.71,99.064,57.4392,99.16,56.178,99.276C23.6604,102.144,0.0,110.968,0.0,121.426C0.0,121.772,0.0192,122.116,0.0768,122.46C0.8604,117.262,7.4928,112.512,18.1176,108.764C27.9024,105.29,41.0988,102.682,56.178,101.348C57.4404,101.232,58.71,101.138,60.0,101.04C61.29,100.944,62.5608,100.838,63.822,100.734C96.3312,97.856,120.0,89.032,120.0,78.584C120.0,78.24,119.9724,77.884,119.9136,77.548M6.1644,122.942L11.8776,122.942C11.8776,122.894,11.8872,122.836,11.8968,122.788C12.738,113.078,30.9408,104.648,56.178,101.48C57.4296,101.318,58.71,101.174,60.0,101.04C58.71,101.136,57.4392,101.232,56.178,101.348C41.0988,102.682,27.9024,105.29,18.1176,108.764C7.4928,112.512,0.8604,117.262,0.0768,122.46C0.0192,122.798,0.0,123.152,0.0,123.498C0.0,133.936,23.6604,142.52,56.178,145.37L56.178,145.246C55.032,145.1,53.9124,144.948,52.8048,144.784C52.2516,144.708,51.6972,144.622,51.1524,144.534C50.8464,144.486,50.5404,144.438,50.2344,144.39C49.8432,144.324,49.4616,144.266,49.0788,144.2C48.6876,144.132,48.2952,144.064,47.9124,143.99C47.5116,143.922,47.1108,143.846,46.7088,143.768C46.3464,143.7,45.9828,143.634,45.6288,143.556C44.826,143.404,44.0328,143.242,43.2504,143.068C42.5424,142.914,41.8452,142.762,41.1576,142.598C40.7076,142.492,40.2588,142.386,39.8196,142.27C37.068,141.59,34.4784,140.842,32.0604,140.026C30.5412,139.518,29.0988,138.98,27.732,138.424C27.2448,138.222,26.7672,138.02,26.2992,137.82C25.7064,137.56,25.1328,137.302,24.5796,137.044C24.0924,136.812,23.6232,136.574,23.1648,136.342C22.5924,136.034,22.0284,135.738,21.4932,135.432C21.2256,135.276,20.9664,135.124,20.7096,134.97C19.9356,134.502,19.2,134.032,18.5208,133.542C18.3012,133.378,18.0816,133.214,17.862,133.052C17.4324,132.726,17.0208,132.4,16.6296,132.056C15.33,130.942,14.2788,129.772,13.5048,128.574C13.4388,128.458,13.3716,128.342,13.2948,128.238C13.1904,128.074,13.0944,127.91,13.0176,127.738L6.1644,127.738L6.1644,127.738C4.8456,127.738,3.7752,126.662,3.7752,125.34C3.7752,126.662,4.8456,122.942,6.1644,122.942M13.2264,127.738L13.0164,127.738C13.092,127.91,13.188,128.074,13.2924,128.238C13.3704,128.342,13.4364,128.458,13.5036,128.574C14.2764,129.772,15.3276,130.942,16.6284,132.056C17.0196,132.39,17.4312,132.726,17.8596,133.052C18.0804,133.216,18.2988,133.378,18.5184,133.542C19.1976,134.032,19.9344,134.502,20.7072,134.97C20.9652,135.124,21.2232,135.278,21.4908,135.432C22.026,135.738,22.59,136.034,23.1636,136.342C23.6208,136.574,24.09,136.804,24.5772,137.044C25.1316,137.302,25.704,137.56,26.2968,137.82C26.7648,138.022,27.2424,138.224,27.7296,138.424C29.0976,138.98,30.54,139.518,32.0592,140.026C34.476,140.842,37.0656,141.59,39.8184,142.27C40.2564,142.386,40.7064,142.492,41.1564,142.598C41.844,142.762,42.5412,142.914,43.248,143.068C44.0316,143.242,44.8248,143.404,45.6276,143.556C45.9804,143.634,46.3428,143.7,46.7064,143.768C47.1096,143.846,47.5104,143.922,47.9112,143.99C48.2928,144.066,48.6852,144.134,49.0764,144.2C49.4592,144.266,49.8408,144.324,50.2332,144.39C50.5392,144.438,50.844,144.486,51.15,144.534C51.6936,144.62,52.2492,144.706,52.8024,144.784C53.9112,144.948,55.0296,145.1,56.1756,145.246L56.1756,143.298C34.4484,140.832,17.9268,134.962,13.2264,127.738M63.822,54.63L63.822,54.764C63.8604,54.764,63.8988,54.764,63.9372,54.774C64.9404,54.9,65.934,55.034,66.9096,55.178C69.2304,55.504,71.4864,55.888,73.6656,56.31C74.19,56.416,74.706,56.512,75.222,56.616C75.9864,56.77,76.7508,56.942,77.496,57.106C78.2508,57.27,78.9864,57.442,79.7232,57.624C80.2104,57.738,80.688,57.864,81.1656,57.988C81.6432,58.104,82.1112,58.228,82.5804,58.362C83.0484,58.478,83.5068,58.612,83.9664,58.746C84.4152,58.872,84.8736,59.006,85.3128,59.14C86.2104,59.41,87.0816,59.688,87.9312,59.974C88.6668,60.224,89.3928,60.472,90.0912,60.742C90.4452,60.866,90.798,61.0,91.1424,61.134C91.83,61.394,92.4984,61.672,93.1488,61.95C94.4784,62.506,95.7288,63.1,96.9048,63.706C97.1628,63.84,97.4208,63.984,97.6788,64.118C99.246,64.962,100.6596,65.854,101.9028,66.784C102.0456,66.89,102.1884,66.996,102.3324,67.112C103.68,68.138,104.7984,69.212,105.6864,70.324C105.8112,70.478,105.9264,70.63,106.0404,70.784C106.614,71.552,107.0724,72.348,107.4072,73.154C107.484,73.346,107.5596,73.538,107.6268,73.73C107.7036,73.922,107.7612,74.124,107.8092,74.314C107.8656,74.516,107.9136,74.71,107.9532,74.91C107.9904,75.102,108.0192,75.302,108.048,75.496C108.0768,75.6,108.0864,75.716,108.096,75.812C108.1044,75.88,108.1152,75.936,108.1152,76.002C108.1344,76.176,108.1428,76.34,108.1428,76.512C108.1428,76.686,108.1344,76.848,108.1152,77.02C108.1152,77.088,108.1044,77.154,108.096,77.222C108.0768,77.462,108.0384,77.71,108.0,77.95C106.3368,87.34,88.4208,95.438,63.8244,98.526C62.5704,98.692,61.29,98.834,60.0,98.968C61.29,98.872,62.5608,98.766,63.822,98.652C78.9012,97.318,92.088,94.708,101.8824,91.246C112.4892,87.486,119.1396,82.748,119.9136,77.548C119.9724,77.202,120.0,76.856,120.0,76.512C120.0,66.064,96.3312,57.49,63.822,54.63M107.9508,74.91C107.9124,74.71,107.8644,74.516,107.8068,74.314C107.7588,74.124,107.7024,73.922,107.6244,73.73C107.5584,73.538,107.4816,73.346,107.4048,73.154C107.0712,72.348,106.6128,71.552,106.0392,70.784C105.924,70.63,105.8088,70.478,105.6852,70.324C104.796,69.212,103.6776,68.138,102.3312,67.112C102.1872,66.996,102.0444,66.89,101.9016,66.784C100.6596,65.854,99.2448,64.962,97.6776,64.118C97.4196,63.984,97.1616,63.84,96.9036,63.706C95.7276,63.1,94.476,62.506,93.1476,61.95C92.4876,61.672,91.8192,61.402,91.14,61.134C90.7956,61.0,90.4428,60.866,90.0888,60.742C89.3916,60.472,88.6656,60.224,87.9288,59.974C87.078,59.686,86.2092,59.408,85.3116,59.14C84.8724,59.006,84.4128,58.872,83.964,58.746C83.5044,58.612,83.0472,58.478,82.578,58.362C82.11,58.228,81.6408,58.104,81.1632,57.988C80.6856,57.862,80.2068,57.738,79.7208,57.624C78.9852,57.442,78.2484,57.27,77.4936,57.106C76.7496,56.942,75.984,56.77,75.2196,56.616C74.7036,56.512,74.1876,56.416,73.6632,56.31C71.484,55.888,69.2292,55.504,66.9072,55.178C65.9316,55.034,64.9392,54.908,63.9348,54.774C63.8976,54.764,63.858,54.764,63.8196,54.764L63.8196,56.712C86.4192,59.274,103.3812,65.528,107.2704,73.154C107.6616,73.922,107.9292,74.698,108.0444,75.494C108.0168,75.302,107.9892,75.102,107.9508,74.91M56.178,11.98C24.7488,14.754,1.5768,23.1,0.0768,33.086C0.0192,33.43,0.0,33.776,0.0,34.122C0.0,44.57,23.6604,53.144,56.178,56.004L56.178,55.878C55.032,55.734,53.9124,55.582,52.8048,55.418C52.2516,55.34,51.6972,55.254,51.1524,55.168C50.8464,55.12,50.5404,55.072,50.2344,55.024C49.8432,54.958,49.4616,54.898,49.0788,54.832C48.6876,54.764,48.2952,54.698,47.9124,54.62C47.5116,54.554,47.1108,54.476,46.7088,54.4C46.3464,54.332,45.9828,54.266,45.6288,54.188C44.826,54.034,44.0328,53.872,43.2504,53.698C40.3536,53.066,37.6116,52.366,35.0424,51.598C34.5636,51.454,34.0956,51.31,33.6276,51.166C33.0936,51.002,32.5764,50.83,32.0604,50.656C30.9516,50.282,29.8824,49.898,28.8504,49.496C28.506,49.372,28.1712,49.238,27.8364,49.094C27.5304,48.968,27.2256,48.844,26.9304,48.72C26.3952,48.498,25.8684,48.268,25.3632,48.03C25.1916,47.952,25.0296,47.876,24.8568,47.798C24.5796,47.674,24.312,47.54,24.0444,47.406C21.6648,46.236,19.5912,44.988,17.8608,43.684C17.4312,43.358,17.0196,43.022,16.6296,42.686C16.0464,42.178,15.5112,41.67,15.0324,41.152C14.718,40.816,14.4312,40.47,14.1636,40.124C13.7136,39.55,13.3224,38.956,13.0068,38.36L6.1644,38.36L6.1644,38.36C4.8456,38.36,3.7752,37.284,3.7752,35.962C3.7752,34.64,4.8456,33.564,6.1644,33.564L11.8776,33.564C11.8776,33.518,11.8872,33.46,11.8968,33.412C12.738,23.714,30.9408,15.252,56.178,12.096C57.4296,11.942,58.71,11.798,60.0,11.664L60.0,11.664C58.71,11.76,57.4392,11.856,56.178,11.98M56.178,9.9C23.6604,12.778,0.0,21.604,0.0,32.048C0.0,32.404,0.0192,32.75,0.0768,33.086C1.5768,23.1,24.7488,14.752,56.178,11.98C57.4404,11.856,58.71,11.76,60.0,11.664L60.0,9.594C58.71,9.688,57.4392,9.786,56.178,9.9M13.2264,38.362L13.0056,38.362C13.3212,38.958,13.7124,39.552,14.1624,40.128C14.43,40.472,14.7156,40.818,15.0324,41.154C15.51,41.672,16.0452,42.18,16.6284,42.688C17.0196,43.024,17.4312,43.36,17.8596,43.686C19.5888,44.99,21.6624,46.238,24.0432,47.408C24.3108,47.542,24.5784,47.676,24.8556,47.802C25.0284,47.878,25.1904,47.954,25.362,48.032C25.8684,48.272,26.394,48.5,26.9292,48.72C27.2256,48.846,27.5304,48.97,27.8364,49.094C28.17,49.238,28.5048,49.374,28.8492,49.498C29.8812,49.902,30.9516,50.286,32.0604,50.658C32.5764,50.832,33.0924,51.006,33.6276,51.168C34.0956,51.312,34.5636,51.456,35.0412,51.6C37.6116,52.368,40.3536,53.068,43.2492,53.7C44.0328,53.874,44.826,54.038,45.6276,54.192C45.9816,54.268,46.344,54.334,46.7076,54.402C47.1096,54.478,47.5116,54.554,47.9124,54.622C48.294,54.698,48.6864,54.766,49.0776,54.834C49.4604,54.9,49.842,54.96,50.2344,55.026C50.5404,55.074,50.8452,55.122,51.1512,55.17C51.6948,55.256,52.2504,55.344,52.8036,55.42C53.9124,55.584,55.0308,55.736,56.1768,55.88L56.1768,53.922C34.4484,51.466,17.9268,45.586,13.2264,38.362Z"/>
</svg>