<svg version="1.2" baseProfile="tiny" viewBox="0 0 43.520 206.461" xmlns:xlink="http://www.w3.org/1999/xlink" xmlns="http://www.w3.org/2000/svg">
<path style="fill:#ffffff;" d="M27.118,197.364c0.18,0,0.21,0.21,0.21,0.51c0,0.66,0.153,1.047,1.02,1.2    c6.27,1.11,6.464,1.378,6.464,2.232c0,0,0,2.348,0,3.01c0,0.664-0.603,1.146-1.567,1.146H10.278c-0.964,0-1.567-0.481-1.567-1.146    c0-0.662,0-3.01,0-3.01c0-0.854,0.193-1.122,6.463-2.232c0.866-0.153,1.02-0.54,1.02-1.2c0-0.3,0.03-0.51,0.21-0.51    S26.938,197.364,27.118,197.364z M32.701,1c1.04,0,1.112,0.152,1.6,1.36c0.624,1.544,0.444,4.726,0.444,4.726H8.76    c0,0-0.121-2.999,0.462-4.726C9.639,1.127,9.783,1,10.823,1S31.661,1,32.701,1z M34.562,28.609h-0.689    c-0.16,0-0.28-0.049-0.28-0.289c0-0.046,0-0.158,0-0.241s0.061-0.086,0.061-0.086c0.232,0,0.42-0.188,0.42-0.42    s-0.188-0.42-0.42-0.42c0,0-0.061,0-0.061-0.086s0-1.256,0-1.386c0-0.24-0.08-0.4-0.4-0.4c-0.301,0-22.56,0-22.88,0    c-0.32,0-0.4,0.16-0.4,0.4c0,0.13,0,1.303,0,1.386c0,0.084-0.061,0.086-0.061,0.086c-0.232,0-0.42,0.188-0.42,0.42    s0.188,0.42,0.42,0.42c0,0,0.061,0.005,0.061,0.086c0,0.081,0,0.194,0,0.241c0,0.24-0.12,0.289-0.28,0.289H8.944    c-0.242,0-0.242,0.239-0.242,0.601v3.958c0,0.362,0,0.6,0.242,0.6h25.618c0.241,0,0.241-0.238,0.241-0.6V29.21    C34.803,28.848,34.803,28.609,34.562,28.609z M34.562,55.293h-0.689c-0.16,0-0.28-0.049-0.28-0.289c0-0.046,0-0.158,0-0.241    s0.061-0.086,0.061-0.086c0.232,0,0.42-0.188,0.42-0.42s-0.188-0.42-0.42-0.42c0,0-0.061,0-0.061-0.086s0-1.256,0-1.386    c0-0.24-0.08-0.4-0.4-0.4c-0.301,0-22.56,0-22.88,0c-0.32,0-0.4,0.16-0.4,0.4c0,0.13,0,1.303,0,1.386    c0,0.084-0.061,0.086-0.061,0.086c-0.232,0-0.42,0.188-0.42,0.42s0.188,0.42,0.42,0.42c0,0,0.061,0.005,0.061,0.086    c0,0.081,0,0.194,0,0.241c0,0.24-0.12,0.289-0.28,0.289H8.944c-0.242,0-0.242,0.239-0.242,0.601v3.958c0,0.362,0,0.6,0.242,0.6    h25.618c0.241,0,0.241-0.238,0.241-0.6v-3.958C34.803,55.532,34.803,55.293,34.562,55.293z M34.562,81.977h-0.689    c-0.16,0-0.28-0.049-0.28-0.289c0-0.046,0-0.158,0-0.241s0.061-0.086,0.061-0.086c0.232,0,0.42-0.188,0.42-0.42    s-0.188-0.42-0.42-0.42c0,0-0.061,0-0.061-0.086s0-1.256,0-1.386c0-0.24-0.08-0.4-0.4-0.4c-0.301,0-22.56,0-22.88,0    c-0.32,0-0.4,0.16-0.4,0.4c0,0.13,0,1.303,0,1.386c0,0.084-0.061,0.086-0.061,0.086c-0.232,0-0.42,0.188-0.42,0.42    s0.188,0.42,0.42,0.42c0,0,0.061,0.005,0.061,0.086c0,0.081,0,0.194,0,0.241c0,0.24-0.12,0.289-0.28,0.289H8.944    c-0.242,0-0.242,0.239-0.242,0.601v3.958c0,0.362,0,0.6,0.242,0.6h25.618c0.241,0,0.241-0.238,0.241-0.6v-3.958    C34.803,82.215,34.803,81.977,34.562,81.977z M34.562,108.66h-0.689c-0.16,0-0.28-0.049-0.28-0.289c0-0.046,0-0.158,0-0.241    s0.061-0.086,0.061-0.086c0.232,0,0.42-0.188,0.42-0.42s-0.188-0.42-0.42-0.42c0,0-0.061,0-0.061-0.086s0-1.256,0-1.386    c0-0.24-0.08-0.4-0.4-0.4c-0.301,0-22.56,0-22.88,0c-0.32,0-0.4,0.16-0.4,0.4c0,0.13,0,1.303,0,1.386    c0,0.084-0.061,0.086-0.061,0.086c-0.232,0-0.42,0.188-0.42,0.42s0.188,0.42,0.42,0.42c0,0,0.061,0.005,0.061,0.086    c0,0.081,0,0.194,0,0.241c0,0.24-0.12,0.289-0.28,0.289H8.944c-0.242,0-0.242,0.239-0.242,0.601v3.958c0,0.362,0,0.6,0.242,0.6    h25.618c0.241,0,0.241-0.238,0.241-0.6v-3.958C34.803,108.899,34.803,108.66,34.562,108.66z M34.562,135.344h-0.689    c-0.16,0-0.28-0.049-0.28-0.289c0-0.046,0-0.158,0-0.241s0.061-0.086,0.061-0.086c0.232,0,0.42-0.188,0.42-0.42    s-0.188-0.42-0.42-0.42c0,0-0.061,0-0.061-0.086s0-1.256,0-1.386c0-0.24-0.08-0.4-0.4-0.4c-0.301,0-22.56,0-22.88,0    c-0.32,0-0.4,0.16-0.4,0.4c0,0.13,0,1.303,0,1.386c0,0.084-0.061,0.086-0.061,0.086c-0.232,0-0.42,0.188-0.42,0.42    s0.188,0.42,0.42,0.42c0,0,0.061,0.005,0.061,0.086c0,0.081,0,0.194,0,0.241c0,0.24-0.12,0.289-0.28,0.289H8.944    c-0.242,0-0.242,0.239-0.242,0.601v3.958c0,0.362,0,0.6,0.242,0.6h0.015c0.045,0.58,0.282,3.349,0.838,4.727    c0.488,1.208,0.56,1.36,1.6,1.36s19.686,0,20.726,0s1.184-0.127,1.6-1.36c0.519-1.535,0.783-4.162,0.835-4.727h0.003    c0.241,0,0.241-0.237,0.241-0.6v-3.958C34.803,135.583,34.803,135.344,34.562,135.344z"/>
</svg>