<svg version="1.2" baseProfile="tiny" id="EdgeSVG_WGV6e" x="0px" y="0px" width="43.52px" height="206.461px" viewBox="0 0 43.52 206.461" xmlns:xlink="http://www.w3.org/1999/xlink" xmlns="http://www.w3.org/2000/svg">
  <linearGradient id="SVGID_148_" gradientUnits="userSpaceOnUse" x1="8.709" y1="17.8452" x2="34.8101" y2="17.8452">
    <stop offset="0" style="stop-color:#000000;stop-opacity:0.6"/>
    <stop offset="1" style="stop-color:#000000;stop-opacity:0.6"/>
  </linearGradient>
  <path style="fill:url(#SVGID_148_);" d="M34.81,7.686c0-0.361,0-0.6-0.241-0.6H8.951c-0.242,0-0.242,0.239-0.242,0.6v20.319&#xD;&#xA;&#x9;&#x9;c0,0.362,0,0.6,0.242,0.6h25.618c0.241,0,0.241-0.238,0.241-0.6V7.686z"/>
  <linearGradient id="SVGID_149_" gradientUnits="userSpaceOnUse" x1="9.21" y1="17.8452" x2="34.3096" y2="17.8452">
    <stop offset="0" style="stop-color:#000000;stop-opacity:0.05"/>
    <stop offset="0.0699" style="stop-color:#000000;stop-opacity:0.057"/>
    <stop offset="0.5" style="stop-color:#000000;stop-opacity:0.1"/>
    <stop offset="0.9839" style="stop-color:#000000;stop-opacity:0.0516"/>
    <stop offset="1" style="stop-color:#000000;stop-opacity:0.05"/>
  </linearGradient>
  <path style="fill:url(#SVGID_149_);" d="M34.31,7.686c0-0.361,0-0.6-0.232-0.6H9.442c-0.232,0-0.232,0.239-0.232,0.6v20.319&#xD;&#xA;&#x9;&#x9;c0,0.362,0,0.6,0.232,0.6h24.636c0.232,0,0.232-0.238,0.232-0.6V7.686z"/>
  <linearGradient id="SVGID_150_" gradientUnits="userSpaceOnUse" x1="21.7598" y1="8.1162" x2="21.7598" y2="24.9165">
    <stop offset="0" style="stop-color:#000000;stop-opacity:0.25"/>
    <stop offset="0.0305" style="stop-color:#000000;stop-opacity:0"/>
    <stop offset="0.9394" style="stop-color:#000000;stop-opacity:0"/>
    <stop offset="0.9695" style="stop-color:#000000;stop-opacity:0"/>
    <stop offset="1" style="stop-color:#000000;stop-opacity:0.25"/>
  </linearGradient>
  <path style="fill:url(#SVGID_150_);" d="M34.31,24.676c0,0.132-0.108,0.24-0.24,0.24H9.45c-0.132,0-0.24-0.108-0.24-0.24V8.356&#xD;&#xA;&#x9;&#x9;c0-0.132,0.108-0.24,0.24-0.24h24.62c0.132,0,0.24,0.108,0.24,0.24V24.676z"/>
  <linearGradient id="SVGID_151_" gradientUnits="userSpaceOnUse" x1="9.21" y1="16.5161" x2="34.3096" y2="16.5161">
    <stop offset="0" style="stop-color:#000000;stop-opacity:0.1"/>
    <stop offset="0.01" style="stop-color:#000000;stop-opacity:0"/>
    <stop offset="0.0294" style="stop-color:#000000;stop-opacity:0.0968"/>
    <stop offset="0.03" style="stop-color:#000000;stop-opacity:0.1"/>
    <stop offset="0.04" style="stop-color:#000000;stop-opacity:0"/>
    <stop offset="0.06" style="stop-color:#000000;stop-opacity:0.12"/>
    <stop offset="0.08" style="stop-color:#000000;stop-opacity:0"/>
    <stop offset="0.1" style="stop-color:#000000;stop-opacity:0.15"/>
    <stop offset="0.12" style="stop-color:#000000;stop-opacity:0"/>
    <stop offset="0.15" style="stop-color:#000000;stop-opacity:0.15"/>
    <stop offset="0.17" style="stop-color:#000000;stop-opacity:0"/>
    <stop offset="0.2" style="stop-color:#000000;stop-opacity:0.15"/>
    <stop offset="0.23" style="stop-color:#000000;stop-opacity:0"/>
    <stop offset="0.26" style="stop-color:#000000;stop-opacity:0.2"/>
    <stop offset="0.3" style="stop-color:#000000;stop-opacity:0"/>
    <stop offset="0.34" style="stop-color:#000000;stop-opacity:0.2"/>
    <stop offset="0.38" style="stop-color:#000000;stop-opacity:0"/>
    <stop offset="0.43" style="stop-color:#000000;stop-opacity:0.2"/>
    <stop offset="0.48" style="stop-color:#000000;stop-opacity:0"/>
    <stop offset="0.52" style="stop-color:#000000;stop-opacity:0.17"/>
    <stop offset="0.56" style="stop-color:#000000;stop-opacity:0"/>
    <stop offset="0.6" style="stop-color:#000000;stop-opacity:0.15"/>
    <stop offset="0.63" style="stop-color:#000000;stop-opacity:0"/>
    <stop offset="0.66" style="stop-color:#000000;stop-opacity:0.12"/>
    <stop offset="0.69" style="stop-color:#000000;stop-opacity:0"/>
    <stop offset="0.73" style="stop-color:#000000;stop-opacity:0.1"/>
    <stop offset="0.76" style="stop-color:#000000;stop-opacity:0"/>
    <stop offset="0.79" style="stop-color:#000000;stop-opacity:0.08"/>
    <stop offset="0.82" style="stop-color:#000000;stop-opacity:0"/>
    <stop offset="0.84" style="stop-color:#000000;stop-opacity:0.06"/>
    <stop offset="0.86" style="stop-color:#000000;stop-opacity:0"/>
    <stop offset="0.88" style="stop-color:#000000;stop-opacity:0.06"/>
    <stop offset="0.9" style="stop-color:#000000;stop-opacity:0"/>
    <stop offset="0.92" style="stop-color:#000000;stop-opacity:0.06"/>
    <stop offset="0.94" style="stop-color:#000000;stop-opacity:0"/>
    <stop offset="0.96" style="stop-color:#000000;stop-opacity:0.06"/>
    <stop offset="0.97" style="stop-color:#000000;stop-opacity:0"/>
    <stop offset="0.98" style="stop-color:#000000;stop-opacity:0.06"/>
    <stop offset="0.99" style="stop-color:#000000;stop-opacity:0"/>
  </linearGradient>
  <path style="fill:url(#SVGID_151_);" d="M34.31,24.676c0,0.132-0.108,0.24-0.24,0.24H9.45c-0.132,0-0.24-0.108-0.24-0.24V8.356&#xD;&#xA;&#x9;&#x9;c0-0.132,0.108-0.24,0.24-0.24h24.62c0.132,0,0.24,0.108,0.24,0.24V24.676z"/>
  <linearGradient id="SVGID_152_" gradientUnits="userSpaceOnUse" x1="21.7598" y1="25.2764" x2="21.7598" y2="28.2104">
    <stop offset="0" style="stop-color:#000000;stop-opacity:0.25"/>
    <stop offset="0.122" style="stop-color:#000000;stop-opacity:0"/>
    <stop offset="0.8715" style="stop-color:#000000;stop-opacity:0"/>
    <stop offset="0.8963" style="stop-color:#000000;stop-opacity:0"/>
  </linearGradient>
  <path style="fill:url(#SVGID_152_);" d="M34.31,27.97c0,0.132-0.108,0.24-0.24,0.24H9.45c-0.132,0-0.24-0.108-0.24-0.24v-2.454&#xD;&#xA;&#x9;&#x9;c0-0.132,0.108-0.24,0.24-0.24h24.62c0.132,0,0.24,0.108,0.24,0.24V27.97z"/>
  <linearGradient id="SVGID_153_" gradientUnits="userSpaceOnUse" x1="8.709" y1="26.7437" x2="21.1068" y2="26.7437">
    <stop offset="0" style="stop-color:#000000;stop-opacity:0.1"/>
    <stop offset="0.02" style="stop-color:#000000;stop-opacity:0"/>
    <stop offset="0.04" style="stop-color:#000000;stop-opacity:0.1"/>
    <stop offset="0.06" style="stop-color:#000000;stop-opacity:0"/>
    <stop offset="0.08" style="stop-color:#000000;stop-opacity:0.1"/>
    <stop offset="0.1" style="stop-color:#000000;stop-opacity:0"/>
    <stop offset="0.12" style="stop-color:#000000;stop-opacity:0.1"/>
    <stop offset="0.14" style="stop-color:#000000;stop-opacity:0"/>
    <stop offset="0.16" style="stop-color:#000000;stop-opacity:0.1"/>
    <stop offset="0.18" style="stop-color:#000000;stop-opacity:0"/>
    <stop offset="0.2" style="stop-color:#000000;stop-opacity:0.1"/>
    <stop offset="0.22" style="stop-color:#000000;stop-opacity:0"/>
    <stop offset="0.24" style="stop-color:#000000;stop-opacity:0.1"/>
    <stop offset="0.26" style="stop-color:#000000;stop-opacity:0"/>
    <stop offset="0.28" style="stop-color:#000000;stop-opacity:0.1"/>
    <stop offset="0.3" style="stop-color:#000000;stop-opacity:0"/>
    <stop offset="0.32" style="stop-color:#000000;stop-opacity:0.1"/>
    <stop offset="0.34" style="stop-color:#000000;stop-opacity:0"/>
    <stop offset="0.36" style="stop-color:#000000;stop-opacity:0.1"/>
    <stop offset="0.38" style="stop-color:#000000;stop-opacity:0"/>
    <stop offset="0.4" style="stop-color:#000000;stop-opacity:0.1"/>
    <stop offset="0.42" style="stop-color:#000000;stop-opacity:0"/>
    <stop offset="0.44" style="stop-color:#000000;stop-opacity:0.1"/>
    <stop offset="0.46" style="stop-color:#000000;stop-opacity:0"/>
    <stop offset="0.48" style="stop-color:#000000;stop-opacity:0.1"/>
    <stop offset="0.5" style="stop-color:#000000;stop-opacity:0"/>
    <stop offset="0.7256" style="stop-color:#000000;stop-opacity:0"/>
    <stop offset="0.9085" style="stop-color:#000000;stop-opacity:0"/>
    <stop offset="0.9268" style="stop-color:#000000;stop-opacity:0.1"/>
  </linearGradient>
  <path style="fill:url(#SVGID_153_);" d="M14.924,28.21H8.949c-0.132,0-0.24-0.108-0.24-0.24v-2.454c0-0.132,0.108-0.24,0.24-0.24&#xD;&#xA;&#x9;&#x9;h5.975V28.21z"/>
  <linearGradient id="SVGID_154_" gradientUnits="userSpaceOnUse" x1="34.8101" y1="26.7432" x2="22.4665" y2="26.7432">
    <stop offset="0" style="stop-color:#000000;stop-opacity:0.1"/>
    <stop offset="0.02" style="stop-color:#000000;stop-opacity:0"/>
    <stop offset="0.04" style="stop-color:#000000;stop-opacity:0.1"/>
    <stop offset="0.06" style="stop-color:#000000;stop-opacity:0"/>
    <stop offset="0.08" style="stop-color:#000000;stop-opacity:0.1"/>
    <stop offset="0.1" style="stop-color:#000000;stop-opacity:0"/>
    <stop offset="0.12" style="stop-color:#000000;stop-opacity:0.1"/>
    <stop offset="0.14" style="stop-color:#000000;stop-opacity:0"/>
    <stop offset="0.16" style="stop-color:#000000;stop-opacity:0.1"/>
    <stop offset="0.18" style="stop-color:#000000;stop-opacity:0"/>
    <stop offset="0.2" style="stop-color:#000000;stop-opacity:0.1"/>
    <stop offset="0.22" style="stop-color:#000000;stop-opacity:0"/>
    <stop offset="0.24" style="stop-color:#000000;stop-opacity:0.1"/>
    <stop offset="0.26" style="stop-color:#000000;stop-opacity:0"/>
    <stop offset="0.28" style="stop-color:#000000;stop-opacity:0.1"/>
    <stop offset="0.3" style="stop-color:#000000;stop-opacity:0"/>
    <stop offset="0.32" style="stop-color:#000000;stop-opacity:0.1"/>
    <stop offset="0.34" style="stop-color:#000000;stop-opacity:0"/>
    <stop offset="0.36" style="stop-color:#000000;stop-opacity:0.1"/>
    <stop offset="0.38" style="stop-color:#000000;stop-opacity:0"/>
    <stop offset="0.4" style="stop-color:#000000;stop-opacity:0.1"/>
    <stop offset="0.42" style="stop-color:#000000;stop-opacity:0"/>
    <stop offset="0.44" style="stop-color:#000000;stop-opacity:0.1"/>
    <stop offset="0.46" style="stop-color:#000000;stop-opacity:0"/>
    <stop offset="0.48" style="stop-color:#000000;stop-opacity:0.1"/>
    <stop offset="0.5" style="stop-color:#000000;stop-opacity:0"/>
    <stop offset="0.7256" style="stop-color:#000000;stop-opacity:0"/>
    <stop offset="0.9085" style="stop-color:#000000;stop-opacity:0"/>
    <stop offset="0.9268" style="stop-color:#000000;stop-opacity:0.1"/>
  </linearGradient>
  <path style="fill:url(#SVGID_154_);" d="M28.595,28.21h5.975c0.132,0,0.24-0.108,0.24-0.24v-2.454c0-0.132-0.108-0.24-0.24-0.24&#xD;&#xA;&#x9;&#x9;h-5.975V28.21z"/>
  <linearGradient id="SVGID_155_" gradientUnits="userSpaceOnUse" x1="14.6045" y1="26.7437" x2="29.0267" y2="26.7437">
    <stop offset="0" style="stop-color:#000000;stop-opacity:0.1"/>
    <stop offset="0.02" style="stop-color:#000000;stop-opacity:0"/>
    <stop offset="0.04" style="stop-color:#000000;stop-opacity:0.1"/>
    <stop offset="0.06" style="stop-color:#000000;stop-opacity:0"/>
    <stop offset="0.08" style="stop-color:#000000;stop-opacity:0.1"/>
    <stop offset="0.1" style="stop-color:#000000;stop-opacity:0"/>
    <stop offset="0.12" style="stop-color:#000000;stop-opacity:0.1"/>
    <stop offset="0.14" style="stop-color:#000000;stop-opacity:0"/>
    <stop offset="0.16" style="stop-color:#000000;stop-opacity:0.1"/>
    <stop offset="0.18" style="stop-color:#000000;stop-opacity:0"/>
    <stop offset="0.2" style="stop-color:#000000;stop-opacity:0.1"/>
    <stop offset="0.22" style="stop-color:#000000;stop-opacity:0"/>
    <stop offset="0.24" style="stop-color:#000000;stop-opacity:0.1"/>
    <stop offset="0.26" style="stop-color:#000000;stop-opacity:0"/>
    <stop offset="0.28" style="stop-color:#000000;stop-opacity:0.1"/>
    <stop offset="0.3" style="stop-color:#000000;stop-opacity:0"/>
    <stop offset="0.32" style="stop-color:#000000;stop-opacity:0.1"/>
    <stop offset="0.34" style="stop-color:#000000;stop-opacity:0"/>
    <stop offset="0.36" style="stop-color:#000000;stop-opacity:0.1"/>
    <stop offset="0.38" style="stop-color:#000000;stop-opacity:0"/>
    <stop offset="0.4" style="stop-color:#000000;stop-opacity:0.1"/>
    <stop offset="0.42" style="stop-color:#000000;stop-opacity:0"/>
    <stop offset="0.44" style="stop-color:#000000;stop-opacity:0.1"/>
    <stop offset="0.46" style="stop-color:#000000;stop-opacity:0"/>
    <stop offset="0.48" style="stop-color:#000000;stop-opacity:0.1"/>
    <stop offset="0.5" style="stop-color:#000000;stop-opacity:0"/>
    <stop offset="0.7256" style="stop-color:#000000;stop-opacity:0"/>
    <stop offset="0.9085" style="stop-color:#000000;stop-opacity:0"/>
    <stop offset="0.9268" style="stop-color:#000000;stop-opacity:0.1"/>
  </linearGradient>
  <rect x="14.924" y="25.276" style="fill:url(#SVGID_155_);" width="6.836" height="2.934"/>
  <linearGradient id="SVGID_156_" gradientUnits="userSpaceOnUse" x1="21.48" y1="26.7437" x2="35.7461" y2="26.7437">
    <stop offset="0" style="stop-color:#000000;stop-opacity:0.1"/>
    <stop offset="0.02" style="stop-color:#000000;stop-opacity:0"/>
    <stop offset="0.04" style="stop-color:#000000;stop-opacity:0.1"/>
    <stop offset="0.06" style="stop-color:#000000;stop-opacity:0"/>
    <stop offset="0.08" style="stop-color:#000000;stop-opacity:0.1"/>
    <stop offset="0.1" style="stop-color:#000000;stop-opacity:0"/>
    <stop offset="0.12" style="stop-color:#000000;stop-opacity:0.1"/>
    <stop offset="0.14" style="stop-color:#000000;stop-opacity:0"/>
    <stop offset="0.16" style="stop-color:#000000;stop-opacity:0.1"/>
    <stop offset="0.18" style="stop-color:#000000;stop-opacity:0"/>
    <stop offset="0.2" style="stop-color:#000000;stop-opacity:0.1"/>
    <stop offset="0.22" style="stop-color:#000000;stop-opacity:0"/>
    <stop offset="0.24" style="stop-color:#000000;stop-opacity:0.1"/>
    <stop offset="0.26" style="stop-color:#000000;stop-opacity:0"/>
    <stop offset="0.28" style="stop-color:#000000;stop-opacity:0.1"/>
    <stop offset="0.3" style="stop-color:#000000;stop-opacity:0"/>
    <stop offset="0.32" style="stop-color:#000000;stop-opacity:0.1"/>
    <stop offset="0.34" style="stop-color:#000000;stop-opacity:0"/>
    <stop offset="0.36" style="stop-color:#000000;stop-opacity:0.1"/>
    <stop offset="0.38" style="stop-color:#000000;stop-opacity:0"/>
    <stop offset="0.4" style="stop-color:#000000;stop-opacity:0.1"/>
    <stop offset="0.42" style="stop-color:#000000;stop-opacity:0"/>
    <stop offset="0.44" style="stop-color:#000000;stop-opacity:0.1"/>
    <stop offset="0.46" style="stop-color:#000000;stop-opacity:0"/>
    <stop offset="0.48" style="stop-color:#000000;stop-opacity:0.1"/>
    <stop offset="0.5" style="stop-color:#000000;stop-opacity:0"/>
    <stop offset="0.7256" style="stop-color:#000000;stop-opacity:0"/>
    <stop offset="0.9085" style="stop-color:#000000;stop-opacity:0"/>
    <stop offset="0.9268" style="stop-color:#000000;stop-opacity:0.1"/>
  </linearGradient>
  <rect x="21.76" y="25.276" style="fill:url(#SVGID_156_);" width="6.835" height="2.934"/>
  <linearGradient id="SVGID_157_" gradientUnits="userSpaceOnUse" x1="21.7598" y1="7.0859" x2="21.7598" y2="7.8105">
    <stop offset="0.5061" style="stop-color:#000000;stop-opacity:0"/>
    <stop offset="0.9841" style="stop-color:#000000;stop-opacity:0.242"/>
    <stop offset="1" style="stop-color:#000000;stop-opacity:0.25"/>
  </linearGradient>
  <path style="fill:url(#SVGID_157_);" d="M34.31,7.57c0,0.132-0.108,0.24-0.24,0.24H9.45c-0.132,0-0.24-0.108-0.24-0.24V7.326&#xD;&#xA;&#x9;&#x9;c0-0.132,0.108-0.24,0.24-0.24h24.62c0.132,0,0.24,0.108,0.24,0.24V7.57z"/>
  <linearGradient id="SVGID_158_" gradientUnits="userSpaceOnUse" x1="21.7593" y1="7.0859" x2="21.7593" y2="28.605">
    <stop offset="0" style="stop-color:#FFFFFF;stop-opacity:0"/>
    <stop offset="0.005" style="stop-color:#FFFFFF;stop-opacity:0.35"/>
    <stop offset="0.04" style="stop-color:#FFFFFF;stop-opacity:0"/>
    <stop offset="0.1524" style="stop-color:#FFFFFF;stop-opacity:0"/>
    <stop offset="0.8354" style="stop-color:#FFFFFF;stop-opacity:0"/>
    <stop offset="0.846" style="stop-color:#F5F5F5;stop-opacity:0"/>
    <stop offset="0.8643" style="stop-color:#D9D9D9;stop-opacity:0"/>
    <stop offset="0.888" style="stop-color:#ACACAC;stop-opacity:0"/>
    <stop offset="0.9162" style="stop-color:#6E6E6E;stop-opacity:0"/>
    <stop offset="0.9479" style="stop-color:#202020;stop-opacity:0"/>
    <stop offset="0.96" style="stop-color:#000000;stop-opacity:0"/>
    <stop offset="1" style="stop-color:#000000;stop-opacity:0.4"/>
  </linearGradient>
  <path style="fill:url(#SVGID_158_);" d="M34.81,7.686c0-0.361,0-0.6-0.241-0.6H8.951c-0.242,0-0.242,0.239-0.242,0.6v20.319&#xD;&#xA;&#x9;&#x9;c0,0.362,0,0.6,0.242,0.6h25.618c0.241,0,0.241-0.238,0.241-0.6V7.686z"/>
  <linearGradient id="SVGID_159_" gradientUnits="userSpaceOnUse" x1="8.709" y1="17.8022" x2="34.8101" y2="17.8022">
    <stop offset="0" style="stop-color:#FFFFFF;stop-opacity:0.1"/>
    <stop offset="0.1047" style="stop-color:#FFFFFF;stop-opacity:0.0141"/>
    <stop offset="0.122" style="stop-color:#FFFFFF;stop-opacity:0"/>
    <stop offset="0.7659" style="stop-color:#FFFFFF;stop-opacity:0"/>
    <stop offset="0.872" style="stop-color:#FFFFFF;stop-opacity:0"/>
    <stop offset="0.89" style="stop-color:#FFFFFF;stop-opacity:0.0141"/>
    <stop offset="1" style="stop-color:#FFFFFF;stop-opacity:0.1"/>
  </linearGradient>
  <path style="fill:url(#SVGID_159_);" d="M34.81,8.032c0-0.361,0-0.6-0.241-0.6H8.951c-0.242,0-0.242,0.239-0.242,0.6v19.541&#xD;&#xA;&#x9;&#x9;c0,0.361,0,0.601,0.242,0.601h25.618c0.241,0,0.241-0.239,0.241-0.601V8.032z"/>
  <linearGradient id="SVGID_160_" gradientUnits="userSpaceOnUse" x1="17.1987" y1="7.4316" x2="17.1987" y2="28.1733">
    <stop offset="0" style="stop-color:#FFFFFF;stop-opacity:0.12"/>
    <stop offset="0.2622" style="stop-color:#FFFFFF;stop-opacity:0.2"/>
    <stop offset="1" style="stop-color:#FFFFFF;stop-opacity:0.05"/>
  </linearGradient>
  <path style="fill:url(#SVGID_160_);" d="M14.17,7.448c-0.42,0-0.54,0.208-0.42,2.368c0.12,2.16,0.316,8.7,0.188,11.28&#xD;&#xA;&#x9;&#x9;s-0.396,5.986-0.232,6.473c0.164,0.487,0.464,0.604,1.724,0.604s3.91-0.117,4.63-0.117c0.72,0,0.72-1.38,0.66-6.36&#xD;&#xA;&#x9;&#x9;c-0.06-4.98-0.308-11.64-0.304-12.72c0.004-1.08,0.064-1.544-1.196-1.544C17.96,7.432,14.59,7.448,14.17,7.448z"/>
  <linearGradient id="SVGID_161_" gradientUnits="userSpaceOnUse" x1="27.1157" y1="7.4316" x2="27.1157" y2="28.1733">
    <stop offset="0" style="stop-color:#FFFFFF;stop-opacity:0.17"/>
    <stop offset="0.2622" style="stop-color:#FFFFFF;stop-opacity:0.3"/>
    <stop offset="1" style="stop-color:#FFFFFF;stop-opacity:0.07"/>
  </linearGradient>
  <path style="fill:url(#SVGID_161_);" d="M23.931,7.448c-0.42,0-0.54,0.208-0.42,2.368c0.12,2.16,0.214,5.941,0.199,10.26&#xD;&#xA;&#x9;&#x9;c-0.009,2.583-0.148,7.006,0.016,7.493c0.164,0.487,0.464,0.604,1.724,0.604s3.91-0.117,4.63-0.117c0.72,0,0.72-1.38,0.66-6.36&#xD;&#xA;&#x9;&#x9;s-0.308-11.64-0.304-12.72c0.004-1.08,0.064-1.544-1.196-1.544C27.98,7.432,24.351,7.448,23.931,7.448z"/>
  <linearGradient id="SVGID_162_" gradientUnits="userSpaceOnUse" x1="33.3188" y1="7.4316" x2="33.3188" y2="28.1733">
    <stop offset="0" style="stop-color:#FFFFFF;stop-opacity:0.08"/>
    <stop offset="0.2622" style="stop-color:#FFFFFF;stop-opacity:0.15"/>
    <stop offset="1" style="stop-color:#FFFFFF;stop-opacity:0.05"/>
  </linearGradient>
  <path style="fill:url(#SVGID_162_);" d="M32.524,7.448c-0.11,0-0.142,0.208-0.11,2.368c0.031,2.16,0.083,8.7,0.049,11.28&#xD;&#xA;&#x9;&#x9;s-0.104,5.986-0.061,6.473c0.043,0.487,0.122,0.604,0.453,0.604s1.026-0.117,1.215-0.117s0.189-1.38,0.173-6.36&#xD;&#xA;&#x9;&#x9;s-0.081-11.64-0.08-12.72c0.001-1.08,0.017-1.544-0.313-1.544C33.519,7.432,32.634,7.448,32.524,7.448z"/>
</svg>