<svg version="1.2" baseProfile="tiny" id="EdgeSVG_QX8R4" x="0px" y="0px" width="26.271px" height="25.24px" viewBox="0 0 26.271 25.24" xmlns:xlink="http://www.w3.org/1999/xlink" xmlns="http://www.w3.org/2000/svg">
  <linearGradient id="SVGID_1_" gradientUnits="userSpaceOnUse" x1="0" y1="12.6201" x2="26.2715" y2="12.6201">
    <stop offset="0" style="stop-color:#000000;stop-opacity:0.5"/>
    <stop offset="1" style="stop-color:#000000;stop-opacity:0.5"/>
  </linearGradient>
  <path fill="url(#SVGID_1_)" d="M6.603,25.24c-0.544,0-1.064-0.17-1.504-0.49c-0.904-0.655-1.276-1.812-0.926-2.875l1.78-5.459&#xD;&#xA;&#x9;&#x9;c0.086-0.286,0.003-0.532-0.188-0.671l-4.683-3.395C0.159,11.68-0.216,10.53,0.124,9.471C0.469,8.411,1.448,7.7,2.561,7.7h0.901&#xD;&#xA;&#x9;&#x9;l1.001-0.014L8.33,7.69c0.297-0.006,0.505-0.162,0.578-0.386l0.016-0.051l0.022-0.048l1.744-5.404C11.039,0.713,12.018,0,13.134,0&#xD;&#xA;&#x9;&#x9;c1.12,0,2.1,0.717,2.44,1.784l1.773,5.475c0.097,0.278,0.305,0.428,0.538,0.431l5.792-0.006c1.145,0,2.124,0.712,2.468,1.771&#xD;&#xA;&#x9;&#x9;c0.346,1.065-0.033,2.219-0.94,2.872l-4.742,3.437c-0.155,0.121-0.232,0.369-0.159,0.594l1.794,5.498&#xD;&#xA;&#x9;&#x9;c0.354,1.089-0.021,2.24-0.922,2.895c-0.439,0.319-0.958,0.488-1.501,0.488l0,0c-0.543,0-1.082-0.176-1.518-0.497l-4.732-3.445&#xD;&#xA;&#x9;&#x9;c-0.063-0.042-0.171-0.075-0.282-0.075c-0.119,0-0.236,0.038-0.331,0.106l-4.675,3.405C7.678,25.065,7.142,25.24,6.603,25.24z"/>
</svg>