<svg version="1.2" baseProfile="tiny" viewBox="0 0 26.271 25.24" xmlns:xlink="http://www.w3.org/1999/xlink" xmlns="http://www.w3.org/2000/svg">
<path style="fill:#ffffff;" d="M23.6799,9.385L17.8619,9.39C16.924,9.3769,16.081,8.7739,15.766,7.89L13.9541,2.3001C13.8401,1.942,13.5109,1.6999,13.135,1.6999C12.7601,1.6999,12.432,1.9389,12.3069,2.3251L10.526,7.8269C10.2331,8.7351,9.394,9.364,8.439,9.391L2.5609,9.3999C2.186,9.3999,1.8571,9.6379,1.742,9.992C1.627,10.3489,1.7541,10.7381,2.0791,10.9741L6.7401,14.352L6.7301,14.3459L6.7611,14.3671C6.8181,14.408,6.8659,14.456,6.9179,14.5009C13.2219,11.464,19.9321,10.275,24.4431,9.8141C24.291,9.5561,24.0141,9.385,23.6799,9.385Z"/>
</svg>