<svg version="1.2" baseProfile="tiny" viewBox="0 0 26.271 25.24" xmlns:xlink="http://www.w3.org/1999/xlink" xmlns="http://www.w3.org/2000/svg">
<path style="fill:#ffffff;" d="M25.1939,9.7641C24.979,9.1031,24.3661,8.6841,23.708,8.6841L17.8719,8.6899C17.2359,8.6821,16.649,8.282,16.4249,7.654L15.1681,3.7799L15.1681,3.7799L14.6211,2.0881C14.4199,1.4581,13.8309,1.0,13.1339,1.0C12.4401,1.0,11.8511,1.4541,11.6499,2.081C11.6499,2.081,9.8629,7.603,9.859,7.6119C9.6609,8.226,9.094,8.672,8.418,8.6899L2.5701,8.7C1.907,8.6959,1.2899,9.1159,1.075,9.778C0.863,10.44,1.111,11.1369,1.644,11.5261C1.644,11.5261,6.3429,14.931,6.351,14.937C6.8741,15.3159,7.1221,15.9931,6.9321,16.64L5.1221,22.189C4.915,22.818,5.1231,23.534,5.6869,23.9429C6.2491,24.3521,6.991,24.3301,7.5219,23.9419C7.5219,23.9419,12.2139,20.5259,12.221,20.5209C12.7409,20.142,13.456,20.114,14.0119,20.4891L18.7459,23.9371C19.28,24.3291,20.023,24.3521,20.587,23.9419C21.15,23.534,21.3581,22.821,21.155,22.1961L19.351,16.669C19.1521,16.0569,19.3491,15.3611,19.8819,14.9499L24.6201,11.516C25.1579,11.1281,25.409,10.4259,25.1939,9.7641Z"/>
</svg>