<svg version="1.2" baseProfile="tiny" viewBox="0 0 6.0 201.5" xmlns:xlink="http://www.w3.org/1999/xlink" xmlns="http://www.w3.org/2000/svg">
<path style="fill:#ffffff;stroke:#231F20;stroke-width:1;" d="M6.0,10.75L3.051,10.75L3.051,10.75M3.051,30.7509L6.0,30.7509L6.0,30.7509M3.051,50.7498L6.0,50.7498L6.0,50.7498M3.051,70.7507L6.0,70.7507L6.0,70.7507M3.051,90.7496L6.0,90.7496L6.0,90.7496M3.051,110.7504L6.0,110.7504L6.0,110.7504M3.051,130.7493L6.0,130.7493L6.0,130.7493M3.051,150.7502L6.0,150.7502L6.0,150.7502M6.0,170.7491L3.051,170.7491L3.051,170.7491M3.051,190.75L6.0,190.75L6.0,190.75M6.0,0.7496L0.0,0.7496L0.0,0.7496M1.018,20.7505L6.0,20.7505L6.0,20.7505M6.0,40.7493L1.018,40.7493L1.018,40.7493M6.0,60.7502L1.018,60.7502L1.018,60.7502M1.018,80.7491L6.0,80.7491L6.0,80.7491M1.018,100.75L6.0,100.75L6.0,100.75M6.0,120.7509L1.018,120.7509L1.018,120.7509M6.0,140.7498L1.018,140.7498L1.018,140.7498M6.0,160.7507L1.018,160.7507L1.018,160.7507M6.0,180.7495L1.018,180.7495L1.018,180.7495M0.0,200.7504L6.0,200.7504"/>
</svg>