<svg version="1.2" baseProfile="tiny" viewBox="0 0 101.5 6.0" xmlns:xlink="http://www.w3.org/1999/xlink" xmlns="http://www.w3.org/2000/svg">
<path style="fill:#ffffff;stroke:#231F20;stroke-width:1;" d="M100.7499,0.0L100.7499,6.0M80.7514,6.0L80.7514,1.017M60.7498,1.017L60.7498,6.0M40.7502,1.017L40.7502,6.0M20.7507,6.0L20.7507,1.017M96.7508,6.0L96.7508,3.05M92.7497,3.05L92.7497,6.0M88.7496,3.05L88.7496,6.0M84.7515,6.0L84.7515,3.05M76.7513,6.0L76.7513,3.05M72.7511,6.0L72.7511,3.05M68.75,6.0L68.75,3.05M64.7499,6.0L64.7499,3.05M56.7507,6.0L56.7507,3.05M52.7495,3.05L52.7495,6.0M48.7505,3.05L48.7505,6.0M44.7503,3.05L44.7503,6.0M36.7501,6.0L36.7501,3.05M32.75,6.0L32.75,3.05M28.7509,6.0L28.7509,3.05M24.7508,6.0L24.7508,3.05M16.7505,3.05L16.7505,6.0M12.7504,3.05L12.7504,6.0M8.7503,6.0L8.7503,3.05M4.7502,3.05L4.7502,6.0M0.7501,0.0L0.7501,6.0"/>
</svg>