<svg version="1.2" baseProfile="tiny" viewBox="0 0 6.0 201.5" xmlns:xlink="http://www.w3.org/1999/xlink" xmlns="http://www.w3.org/2000/svg">
<path style="fill:#ffffff;stroke:#231F20;stroke-width:1;" d="M0.0,0.7496L6.0,0.7496M1.017,20.7505L6.0,20.7505M1.017,40.7493L6.0,40.7493M1.017,60.7502L6.0,60.7502M1.017,80.7491L6.0,80.7491M1.017,100.75L6.0,100.75M6.0,120.7509L1.017,120.7509M6.0,140.7498L1.017,140.7498M6.0,160.7507L1.017,160.7507M6.0,180.7495L1.017,180.7495M6.0,4.7494L3.05,4.7494M6.0,8.7491L3.05,8.7491M3.05,12.7509L6.0,12.7509M6.0,16.7507L3.05,16.7507M6.0,24.7502L3.05,24.7502M6.0,28.75L3.05,28.75M6.0,32.7498L3.05,32.7498M3.05,36.7496L6.0,36.7496M6.0,44.7491L3.05,44.7491M6.0,48.7509L3.05,48.7509M6.0,52.7507L3.05,52.7507M6.0,56.7505L3.05,56.7505M6.0,64.75L3.05,64.75M6.0,68.7498L3.05,68.7498M3.05,72.7496L6.0,72.7496M6.0,76.7493L3.05,76.7493M6.0,84.7509L3.05,84.7509M6.0,88.7507L3.05,88.7507M6.0,92.7505L3.05,92.7505M3.05,96.7502L6.0,96.7502M3.05,104.7498L6.0,104.7498M6.0,108.7495L3.05,108.7495M3.05,112.7493L6.0,112.7493M3.05,116.7491L6.0,116.7491M3.05,124.7507L6.0,124.7507M3.05,128.7504L6.0,128.7504M6.0,132.7502L3.05,132.7502M3.05,136.75L6.0,136.75M3.05,144.7495L6.0,144.7495M6.0,148.7493L3.05,148.7493M6.0,152.7491L3.05,152.7491M6.0,156.7509L3.05,156.7509M3.05,164.7504L6.0,164.7504M3.05,168.7502L6.0,168.7502M3.05,172.75L6.0,172.75M3.05,176.7498L6.0,176.7498M6.0,184.7493L3.05,184.7493M6.0,188.7491L3.05,188.7491M3.05,192.7509L6.0,192.7509M6.0,196.7506L3.05,196.7506M0.0,200.7504L6.0,200.7504"/>
</svg>