<svg version="1.2" baseProfile="tiny" id="EdgeSVG_c28KQ" x="0px" y="0px" width="22.261px" height="152px" viewBox="0 0 22.261 152" xmlns:xlink="http://www.w3.org/1999/xlink" xmlns="http://www.w3.org/2000/svg">
  <linearGradient id="SVGID_8_" gradientUnits="userSpaceOnUse" x1="4.2363" y1="76.0742" x2="17.999" y2="76.0742">
    <stop offset="0" style="stop-color:#000000;stop-opacity:0.1"/>
    <stop offset="0.4969" style="stop-color:#000000;stop-opacity:0"/>
    <stop offset="1" style="stop-color:#000000;stop-opacity:0.1"/>
  </linearGradient>
  <path fill="url(#SVGID_8_)" d="M17.999,108.338c0,0.279-0.229,0.507-0.508,0.507H4.744c-0.279,0-0.508-0.228-0.508-0.507V43.811&#xD;&#xA;&#x9;&#x9;c0-0.279,0.229-0.508,0.508-0.508h12.747c0.279,0,0.508,0.229,0.508,0.508V108.338z M12.472,46.586&#xD;&#xA;&#x9;&#x9;c0-0.465-0.381-0.846-0.847-0.846H10.61c-0.466,0-0.847,0.38-0.847,0.846v26.186c0,0.465,0.381,0.846,0.847,0.846h1.015&#xD;&#xA;&#x9;&#x9;c0.466,0,0.847-0.38,0.847-0.846V46.586z M12.472,79.377c0-0.465-0.381-0.846-0.847-0.846H10.61c-0.466,0-0.847,0.381-0.847,0.846&#xD;&#xA;&#x9;&#x9;v26.186c0,0.465,0.381,0.846,0.847,0.846h1.015c0.466,0,0.847-0.381,0.847-0.846V79.377z"/>
  <linearGradient id="SVGID_9_" gradientUnits="userSpaceOnUse" x1="11.1172" y1="43.3032" x2="11.1172" y2="108.8452">
    <stop offset="0" style="stop-color:#000000;stop-opacity:0.15"/>
    <stop offset="0.3804" style="stop-color:#FFFFFF;stop-opacity:0.15"/>
    <stop offset="0.6196" style="stop-color:#000000;stop-opacity:0.3"/>
    <stop offset="1" style="stop-color:#000000;stop-opacity:0.1"/>
  </linearGradient>
  <path fill="url(#SVGID_9_)" d="M17.999,108.338c0,0.279-0.229,0.507-0.508,0.507H4.744c-0.279,0-0.508-0.228-0.508-0.507V43.811&#xD;&#xA;&#x9;&#x9;c0-0.279,0.229-0.508,0.508-0.508h12.747c0.279,0,0.508,0.229,0.508,0.508V108.338z M12.472,46.586&#xD;&#xA;&#x9;&#x9;c0-0.465-0.381-0.846-0.847-0.846H10.61c-0.466,0-0.847,0.38-0.847,0.846v26.186c0,0.465,0.381,0.846,0.847,0.846h1.015&#xD;&#xA;&#x9;&#x9;c0.466,0,0.847-0.38,0.847-0.846V46.586z M12.472,79.377c0-0.465-0.381-0.846-0.847-0.846H10.61c-0.466,0-0.847,0.381-0.847,0.846&#xD;&#xA;&#x9;&#x9;v26.186c0,0.465,0.381,0.846,0.847,0.846h1.015c0.466,0,0.847-0.381,0.847-0.846V79.377z"/>
  <linearGradient id="SVGID_10_" gradientUnits="userSpaceOnUse" x1="4.3525" y1="43.502" x2="17.876" y2="43.502">
    <stop offset="0" style="stop-color:#FFFFFF;stop-opacity:0.25"/>
    <stop offset="0.5153" style="stop-color:#FFFFFF;stop-opacity:0.35"/>
    <stop offset="1" style="stop-color:#FFFFFF;stop-opacity:0.25"/>
  </linearGradient>
  <path fill="url(#SVGID_10_)" d="M17.876,43.479l-0.286,0.196c-0.028-0.022-0.063-0.034-0.098-0.034H4.743&#xD;&#xA;&#x9;&#x9;c-0.051,0-0.097,0.024-0.125,0.06l-0.266-0.213c0.093-0.112,0.233-0.185,0.391-0.185h12.749&#xD;&#xA;&#x9;&#x9;C17.645,43.303,17.783,43.371,17.876,43.479z"/>
  <linearGradient id="SVGID_11_" gradientUnits="userSpaceOnUse" x1="4.3291" y1="108.6279" x2="17.834" y2="108.6279">
    <stop offset="0" style="stop-color:#000000;stop-opacity:0.35"/>
    <stop offset="0.0551" style="stop-color:#000000;stop-opacity:0.35"/>
    <stop offset="1" style="stop-color:#000000;stop-opacity:0.35"/>
  </linearGradient>
  <path fill="url(#SVGID_11_)" d="M17.834,108.711c-0.092,0.083-0.21,0.134-0.342,0.134H4.743c-0.171,0-0.321-0.084-0.414-0.215&#xD;&#xA;&#x9;&#x9;l0.285-0.185c0.031,0.038,0.078,0.061,0.129,0.061h12.749c0.065,0,0.123-0.039,0.15-0.095L17.834,108.711z"/>
  <g>
    <linearGradient id="SVGID_12_" gradientUnits="userSpaceOnUse" x1="11.1172" y1="78.1919" x2="11.1172" y2="79.1343">
      <stop offset="0" style="stop-color:#000000;stop-opacity:0.35"/>
      <stop offset="1" style="stop-color:#000000;stop-opacity:0.15"/>
    </linearGradient>
    <path fill="url(#SVGID_12_)" d="M12.784,79.134h-0.351c-0.103-0.349-0.428-0.604-0.809-0.604H10.61&#xD;&#xA;&#x9;&#x9;&#x9;c-0.381,0-0.706,0.255-0.81,0.604h-0.35c0.111-0.538,0.589-0.942,1.159-0.942h1.015C12.195,78.192,12.673,78.596,12.784,79.134z"/>
    <linearGradient id="SVGID_13_" gradientUnits="userSpaceOnUse" x1="11.1172" y1="45.4014" x2="11.1172" y2="46.4336">
      <stop offset="0" style="stop-color:#000000;stop-opacity:0.35"/>
      <stop offset="1" style="stop-color:#000000;stop-opacity:0.15"/>
    </linearGradient>
    <path fill="url(#SVGID_13_)" d="M12.798,46.434h-0.34c-0.073-0.393-0.42-0.693-0.833-0.693H10.61c-0.413,0-0.76,0.301-0.833,0.693&#xD;&#xA;&#x9;&#x9;&#x9;h-0.34c0.072-0.582,0.57-1.032,1.173-1.032h1.015C12.228,45.401,12.726,45.852,12.798,46.434z"/>
  </g>
  <g>
    <linearGradient id="SVGID_14_" gradientUnits="userSpaceOnUse" x1="11.1172" y1="105.7856" x2="11.1172" y2="106.7466">
      <stop offset="0" style="stop-color:#000000;stop-opacity:0.25"/>
      <stop offset="0.0371" style="stop-color:#141414;stop-opacity:0.2519"/>
      <stop offset="0.1456" style="stop-color:#4B4B4B;stop-opacity:0.2573"/>
      <stop offset="0.2581" style="stop-color:#7B7B7B;stop-opacity:0.2629"/>
      <stop offset="0.3721" style="stop-color:#A4A4A4;stop-opacity:0.2686"/>
      <stop offset="0.4881" style="stop-color:#C5C5C5;stop-opacity:0.2744"/>
      <stop offset="0.6066" style="stop-color:#DEDEDE;stop-opacity:0.2803"/>
      <stop offset="0.7287" style="stop-color:#F1F1F1;stop-opacity:0.2864"/>
      <stop offset="0.8566" style="stop-color:#FBFBFB;stop-opacity:0.2928"/>
      <stop offset="1" style="stop-color:#FFFFFF;stop-opacity:0.3"/>
    </linearGradient>
    <path fill="url(#SVGID_14_)" d="M12.788,105.786c-0.104,0.546-0.586,0.961-1.163,0.961H10.61c-0.577,0-1.06-0.415-1.163-0.961&#xD;&#xA;&#x9;&#x9;&#x9;h0.349c0.097,0.358,0.427,0.623,0.814,0.623h1.015c0.388,0,0.718-0.264,0.814-0.623H12.788z"/>
    <linearGradient id="SVGID_15_" gradientUnits="userSpaceOnUse" x1="11.1172" y1="73.0425" x2="11.1172" y2="73.9565">
      <stop offset="0" style="stop-color:#000000;stop-opacity:0.25"/>
      <stop offset="0.0371" style="stop-color:#141414;stop-opacity:0.2519"/>
      <stop offset="0.1456" style="stop-color:#4B4B4B;stop-opacity:0.2573"/>
      <stop offset="0.2581" style="stop-color:#7B7B7B;stop-opacity:0.2629"/>
      <stop offset="0.3721" style="stop-color:#A4A4A4;stop-opacity:0.2686"/>
      <stop offset="0.4881" style="stop-color:#C5C5C5;stop-opacity:0.2744"/>
      <stop offset="0.6066" style="stop-color:#DEDEDE;stop-opacity:0.2803"/>
      <stop offset="0.7287" style="stop-color:#F1F1F1;stop-opacity:0.2864"/>
      <stop offset="0.8566" style="stop-color:#FBFBFB;stop-opacity:0.2928"/>
      <stop offset="1" style="stop-color:#FFFFFF;stop-opacity:0.3"/>
    </linearGradient>
    <path fill="url(#SVGID_15_)" d="M12.777,73.042c-0.122,0.523-0.592,0.914-1.152,0.914H10.61c-0.561,0-1.031-0.391-1.152-0.914&#xD;&#xA;&#x9;&#x9;&#x9;H9.81c0.113,0.333,0.43,0.576,0.801,0.576h1.015c0.371,0,0.688-0.242,0.801-0.576H12.777z"/>
  </g>
  <linearGradient id="SVGID_16_" gradientUnits="userSpaceOnUse" x1="9.6133" y1="79.1343" x2="9.6133" y2="105.7856">
    <stop offset="0" style="stop-color:#000000;stop-opacity:0.2"/>
    <stop offset="1" style="stop-color:#000000;stop-opacity:0.25"/>
  </linearGradient>
  <path fill="url(#SVGID_16_)" d="M9.764,105.562c0,0.078,0.011,0.152,0.032,0.224H9.447c-0.015-0.073-0.021-0.147-0.021-0.224&#xD;&#xA;&#x9;&#x9;V79.376c0-0.083,0.008-0.165,0.025-0.242h0.35c-0.025,0.076-0.037,0.157-0.037,0.242V105.562z"/>
  <linearGradient id="SVGID_17_" gradientUnits="userSpaceOnUse" x1="12.6211" y1="79.1343" x2="12.6211" y2="105.7856">
    <stop offset="0" style="stop-color:#000000;stop-opacity:0.2"/>
    <stop offset="1" style="stop-color:#000000;stop-opacity:0.25"/>
  </linearGradient>
  <path fill="url(#SVGID_17_)" d="M12.81,79.376v26.186c0,0.076-0.007,0.151-0.021,0.224h-0.349c0.021-0.071,0.032-0.146,0.032-0.224&#xD;&#xA;&#x9;&#x9;V79.376c0-0.085-0.012-0.166-0.038-0.242h0.351C12.802,79.212,12.81,79.293,12.81,79.376z"/>
  <linearGradient id="SVGID_18_" gradientUnits="userSpaceOnUse" x1="9.6172" y1="46.4336" x2="9.6172" y2="73.0425">
    <stop offset="0" style="stop-color:#000000;stop-opacity:0.2"/>
    <stop offset="1" style="stop-color:#000000;stop-opacity:0.25"/>
  </linearGradient>
  <path fill="url(#SVGID_18_)" d="M9.81,73.042H9.458c-0.022-0.086-0.032-0.177-0.032-0.271V46.586c0-0.051,0.003-0.103,0.012-0.152&#xD;&#xA;&#x9;&#x9;h0.34c-0.009,0.049-0.014,0.1-0.014,0.152v26.186C9.764,72.867,9.779,72.958,9.81,73.042z"/>
  <linearGradient id="SVGID_19_" gradientUnits="userSpaceOnUse" x1="4.4268" y1="43.4878" x2="4.4268" y2="108.6299">
    <stop offset="0" style="stop-color:#000000;stop-opacity:0.2"/>
    <stop offset="1" style="stop-color:#000000;stop-opacity:0.25"/>
  </linearGradient>
  <path fill="url(#SVGID_19_)" d="M4.574,108.337c0,0.041,0.015,0.079,0.04,0.108l-0.285,0.185c-0.058-0.083-0.094-0.183-0.094-0.292&#xD;&#xA;&#x9;&#x9;V43.811c0-0.122,0.044-0.235,0.117-0.323l0.266,0.213c-0.029,0.03-0.044,0.069-0.044,0.11V108.337z"/>
  <linearGradient id="SVGID_20_" gradientUnits="userSpaceOnUse" x1="12.6172" y1="46.4336" x2="12.6172" y2="73.0425">
    <stop offset="0" style="stop-color:#000000;stop-opacity:0.2"/>
    <stop offset="1" style="stop-color:#000000;stop-opacity:0.25"/>
  </linearGradient>
  <path fill="url(#SVGID_20_)" d="M12.81,46.586v26.186c0,0.093-0.01,0.185-0.032,0.271h-0.352c0.03-0.084,0.046-0.176,0.046-0.271&#xD;&#xA;&#x9;&#x9;V46.586c0-0.052-0.006-0.103-0.014-0.152h0.34C12.807,46.483,12.81,46.535,12.81,46.586z"/>
  <g>
    <g>
      <linearGradient id="SVGID_21_" gradientUnits="userSpaceOnUse" x1="9.7637" y1="92.3169" x2="12.4717" y2="92.3169">
        <stop offset="0" style="stop-color:#000000;stop-opacity:0.6"/>
        <stop offset="1" style="stop-color:#000000;stop-opacity:0.6"/>
      </linearGradient>
      <path fill="url(#SVGID_21_)" d="M12.472,79.376v26.186c0,0.078-0.011,0.152-0.032,0.224c-0.032,0.118-0.09,0.227-0.168,0.318&#xD;&#xA;&#x9;&#x9;&#x9;&#x9;V79.994c0-0.073-0.01-0.142-0.032-0.207c-0.088-0.298-0.363-0.516-0.688-0.516h-0.866c-0.325,0-0.601,0.218-0.688,0.516&#xD;&#xA;&#x9;&#x9;&#x9;&#x9;c-0.022,0.064-0.032,0.133-0.032,0.207v26.109c-0.078-0.091-0.136-0.2-0.168-0.318c-0.021-0.071-0.032-0.146-0.032-0.224V79.376&#xD;&#xA;&#x9;&#x9;&#x9;&#x9;c0-0.085,0.012-0.166,0.037-0.242c0.104-0.349,0.429-0.604,0.81-0.604h1.015c0.381,0,0.706,0.255,0.809,0.604&#xD;&#xA;&#x9;&#x9;&#x9;&#x9;C12.46,79.21,12.472,79.292,12.472,79.376z"/>
    </g>
    <linearGradient id="SVGID_22_" gradientUnits="userSpaceOnUse" x1="9.7637" y1="59.5273" x2="12.4717" y2="59.5273">
      <stop offset="0" style="stop-color:#000000;stop-opacity:0.6"/>
      <stop offset="1" style="stop-color:#000000;stop-opacity:0.6"/>
    </linearGradient>
    <path fill="url(#SVGID_22_)" d="M12.472,46.586v26.186c0,0.095-0.016,0.186-0.046,0.271c-0.034,0.102-0.086,0.193-0.154,0.272&#xD;&#xA;&#x9;&#x9;&#x9;V47.192c0-0.044-0.003-0.088-0.012-0.128c-0.061-0.335-0.357-0.592-0.709-0.592h-0.866c-0.353,0-0.648,0.257-0.709,0.592&#xD;&#xA;&#x9;&#x9;&#x9;c-0.009,0.041-0.012,0.084-0.012,0.128v26.123c-0.068-0.08-0.12-0.171-0.154-0.272c-0.03-0.084-0.046-0.176-0.046-0.271V46.586&#xD;&#xA;&#x9;&#x9;&#x9;c0-0.052,0.005-0.103,0.014-0.152c0.073-0.393,0.42-0.693,0.833-0.693h1.015c0.413,0,0.76,0.301,0.833,0.693&#xD;&#xA;&#x9;&#x9;&#x9;C12.466,46.483,12.472,46.534,12.472,46.586z"/>
  </g>
  <linearGradient id="SVGID_23_" gradientUnits="userSpaceOnUse" x1="17.7949" y1="43.4795" x2="17.7949" y2="108.7109">
    <stop offset="0" style="stop-color:#000000;stop-opacity:0.2"/>
    <stop offset="1" style="stop-color:#000000;stop-opacity:0.25"/>
  </linearGradient>
  <path fill="url(#SVGID_23_)" d="M18,43.811v64.526c0,0.147-0.064,0.281-0.166,0.374l-0.191-0.299&#xD;&#xA;&#x9;&#x9;c0.012-0.022,0.019-0.047,0.019-0.074V43.811c0-0.056-0.028-0.105-0.071-0.135l0.286-0.196C17.952,43.569,18,43.686,18,43.811z"/>
  <g>
    <g>
      <linearGradient id="SVGID_24_" gradientUnits="userSpaceOnUse" x1="5.8721" y1="92.3672" x2="5.8721" y2="94.3135">
        <stop offset="0" style="stop-color:#FFFFFF;stop-opacity:0.3"/>
        <stop offset="0.0852" style="stop-color:#F7F7F7;stop-opacity:0.3043"/>
        <stop offset="0.22" style="stop-color:#E0E0E0;stop-opacity:0.311"/>
        <stop offset="0.3875" style="stop-color:#BBBBBB;stop-opacity:0.3194"/>
        <stop offset="0.5812" style="stop-color:#878787;stop-opacity:0.3291"/>
        <stop offset="0.7939" style="stop-color:#464646;stop-opacity:0.3397"/>
        <stop offset="1" style="stop-color:#000000;stop-opacity:0.35"/>
      </linearGradient>
      <path fill="url(#SVGID_24_)" d="M5.872,92.367c-0.538,0-0.973,0.435-0.973,0.973s0.435,0.973,0.973,0.973&#xD;&#xA;&#x9;&#x9;&#x9;&#x9;s0.973-0.435,0.973-0.973S6.41,92.367,5.872,92.367z M5.872,94.154c-0.45,0-0.814-0.364-0.814-0.814&#xD;&#xA;&#x9;&#x9;&#x9;&#x9;c0-0.45,0.364-0.814,0.814-0.814s0.813,0.364,0.813,0.814C6.686,93.791,6.322,94.154,5.872,94.154z"/>
      <linearGradient id="SVGID_25_" gradientUnits="userSpaceOnUse" x1="16.3633" y1="92.3672" x2="16.3633" y2="94.3135">
        <stop offset="0" style="stop-color:#FFFFFF;stop-opacity:0.3"/>
        <stop offset="0.0852" style="stop-color:#F7F7F7;stop-opacity:0.3043"/>
        <stop offset="0.22" style="stop-color:#E0E0E0;stop-opacity:0.311"/>
        <stop offset="0.3875" style="stop-color:#BBBBBB;stop-opacity:0.3194"/>
        <stop offset="0.5812" style="stop-color:#878787;stop-opacity:0.3291"/>
        <stop offset="0.7939" style="stop-color:#464646;stop-opacity:0.3397"/>
        <stop offset="1" style="stop-color:#000000;stop-opacity:0.35"/>
      </linearGradient>
      <path fill="url(#SVGID_25_)" d="M16.363,92.367c-0.538,0-0.973,0.435-0.973,0.973s0.435,0.973,0.973,0.973&#xD;&#xA;&#x9;&#x9;&#x9;&#x9;s0.973-0.435,0.973-0.973S16.901,92.367,16.363,92.367z M16.363,94.154c-0.45,0-0.814-0.364-0.814-0.814&#xD;&#xA;&#x9;&#x9;&#x9;&#x9;c0-0.45,0.364-0.814,0.814-0.814s0.813,0.364,0.813,0.814C17.177,93.791,16.813,94.154,16.363,94.154z"/>
      <linearGradient id="SVGID_26_" gradientUnits="userSpaceOnUse" x1="5.8721" y1="44.0479" x2="5.8721" y2="45.9937">
        <stop offset="0" style="stop-color:#FFFFFF;stop-opacity:0.3"/>
        <stop offset="0.0852" style="stop-color:#F7F7F7;stop-opacity:0.3043"/>
        <stop offset="0.22" style="stop-color:#E0E0E0;stop-opacity:0.311"/>
        <stop offset="0.3875" style="stop-color:#BBBBBB;stop-opacity:0.3194"/>
        <stop offset="0.5812" style="stop-color:#878787;stop-opacity:0.3291"/>
        <stop offset="0.7939" style="stop-color:#464646;stop-opacity:0.3397"/>
        <stop offset="1" style="stop-color:#000000;stop-opacity:0.35"/>
      </linearGradient>
      <path fill="url(#SVGID_26_)" d="M5.872,44.048c-0.538,0-0.973,0.435-0.973,0.973s0.435,0.973,0.973,0.973&#xD;&#xA;&#x9;&#x9;&#x9;&#x9;s0.973-0.435,0.973-0.973S6.41,44.048,5.872,44.048z M5.872,45.835c-0.45,0-0.814-0.364-0.814-0.814s0.364-0.814,0.814-0.814&#xD;&#xA;&#x9;&#x9;&#x9;&#x9;s0.813,0.364,0.813,0.814S6.322,45.835,5.872,45.835z"/>
      <linearGradient id="SVGID_27_" gradientUnits="userSpaceOnUse" x1="16.3633" y1="44.0479" x2="16.3633" y2="45.9937">
        <stop offset="0" style="stop-color:#FFFFFF;stop-opacity:0.3"/>
        <stop offset="0.0852" style="stop-color:#F7F7F7;stop-opacity:0.3043"/>
        <stop offset="0.22" style="stop-color:#E0E0E0;stop-opacity:0.311"/>
        <stop offset="0.3875" style="stop-color:#BBBBBB;stop-opacity:0.3194"/>
        <stop offset="0.5812" style="stop-color:#878787;stop-opacity:0.3291"/>
        <stop offset="0.7939" style="stop-color:#464646;stop-opacity:0.3397"/>
        <stop offset="1" style="stop-color:#000000;stop-opacity:0.35"/>
      </linearGradient>
      <path fill="url(#SVGID_27_)" d="M16.363,44.048c-0.538,0-0.973,0.435-0.973,0.973s0.435,0.973,0.973,0.973&#xD;&#xA;&#x9;&#x9;&#x9;&#x9;s0.973-0.435,0.973-0.973S16.901,44.048,16.363,44.048z M16.363,45.835c-0.45,0-0.814-0.364-0.814-0.814s0.364-0.814,0.814-0.814&#xD;&#xA;&#x9;&#x9;&#x9;&#x9;s0.813,0.364,0.813,0.814S16.813,45.835,16.363,45.835z"/>
      <linearGradient id="SVGID_28_" gradientUnits="userSpaceOnUse" x1="5.8721" y1="99.2705" x2="5.8721" y2="101.2163">
        <stop offset="0" style="stop-color:#FFFFFF;stop-opacity:0.3"/>
        <stop offset="0.0852" style="stop-color:#F7F7F7;stop-opacity:0.3043"/>
        <stop offset="0.22" style="stop-color:#E0E0E0;stop-opacity:0.311"/>
        <stop offset="0.3875" style="stop-color:#BBBBBB;stop-opacity:0.3194"/>
        <stop offset="0.5812" style="stop-color:#878787;stop-opacity:0.3291"/>
        <stop offset="0.7939" style="stop-color:#464646;stop-opacity:0.3397"/>
        <stop offset="1" style="stop-color:#000000;stop-opacity:0.35"/>
      </linearGradient>
      <path fill="url(#SVGID_28_)" d="M5.872,99.271c-0.538,0-0.973,0.435-0.973,0.973s0.435,0.973,0.973,0.973&#xD;&#xA;&#x9;&#x9;&#x9;&#x9;s0.973-0.435,0.973-0.973S6.41,99.271,5.872,99.271z M5.872,101.057c-0.45,0-0.814-0.364-0.814-0.814s0.364-0.814,0.814-0.814&#xD;&#xA;&#x9;&#x9;&#x9;&#x9;s0.813,0.364,0.813,0.814S6.322,101.057,5.872,101.057z"/>
      <linearGradient id="SVGID_29_" gradientUnits="userSpaceOnUse" x1="16.3633" y1="99.2705" x2="16.3633" y2="101.2163">
        <stop offset="0" style="stop-color:#FFFFFF;stop-opacity:0.3"/>
        <stop offset="0.0852" style="stop-color:#F7F7F7;stop-opacity:0.3043"/>
        <stop offset="0.22" style="stop-color:#E0E0E0;stop-opacity:0.311"/>
        <stop offset="0.3875" style="stop-color:#BBBBBB;stop-opacity:0.3194"/>
        <stop offset="0.5812" style="stop-color:#878787;stop-opacity:0.3291"/>
        <stop offset="0.7939" style="stop-color:#464646;stop-opacity:0.3397"/>
        <stop offset="1" style="stop-color:#000000;stop-opacity:0.35"/>
      </linearGradient>
      <path fill="url(#SVGID_29_)" d="M16.363,99.271c-0.538,0-0.973,0.435-0.973,0.973s0.435,0.973,0.973,0.973&#xD;&#xA;&#x9;&#x9;&#x9;&#x9;s0.973-0.435,0.973-0.973S16.901,99.271,16.363,99.271z M16.363,101.057c-0.45,0-0.814-0.364-0.814-0.814&#xD;&#xA;&#x9;&#x9;&#x9;&#x9;s0.364-0.814,0.814-0.814s0.813,0.364,0.813,0.814S16.813,101.057,16.363,101.057z"/>
      <linearGradient id="SVGID_30_" gradientUnits="userSpaceOnUse" x1="5.8721" y1="78.562" x2="5.8721" y2="80.5078">
        <stop offset="0" style="stop-color:#FFFFFF;stop-opacity:0.3"/>
        <stop offset="0.0852" style="stop-color:#F7F7F7;stop-opacity:0.3043"/>
        <stop offset="0.22" style="stop-color:#E0E0E0;stop-opacity:0.311"/>
        <stop offset="0.3875" style="stop-color:#BBBBBB;stop-opacity:0.3194"/>
        <stop offset="0.5812" style="stop-color:#878787;stop-opacity:0.3291"/>
        <stop offset="0.7939" style="stop-color:#464646;stop-opacity:0.3397"/>
        <stop offset="1" style="stop-color:#000000;stop-opacity:0.35"/>
      </linearGradient>
      <path fill="url(#SVGID_30_)" d="M5.872,78.562c-0.538,0-0.973,0.435-0.973,0.973s0.435,0.973,0.973,0.973&#xD;&#xA;&#x9;&#x9;&#x9;&#x9;s0.973-0.435,0.973-0.973S6.41,78.562,5.872,78.562z M5.872,80.349c-0.45,0-0.814-0.364-0.814-0.814&#xD;&#xA;&#x9;&#x9;&#x9;&#x9;c0-0.45,0.364-0.814,0.814-0.814s0.813,0.364,0.813,0.814C6.686,79.985,6.322,80.349,5.872,80.349z"/>
      <linearGradient id="SVGID_31_" gradientUnits="userSpaceOnUse" x1="16.3633" y1="78.562" x2="16.3633" y2="80.5078">
        <stop offset="0" style="stop-color:#FFFFFF;stop-opacity:0.3"/>
        <stop offset="0.0852" style="stop-color:#F7F7F7;stop-opacity:0.3043"/>
        <stop offset="0.22" style="stop-color:#E0E0E0;stop-opacity:0.311"/>
        <stop offset="0.3875" style="stop-color:#BBBBBB;stop-opacity:0.3194"/>
        <stop offset="0.5812" style="stop-color:#878787;stop-opacity:0.3291"/>
        <stop offset="0.7939" style="stop-color:#464646;stop-opacity:0.3397"/>
        <stop offset="1" style="stop-color:#000000;stop-opacity:0.35"/>
      </linearGradient>
      <path fill="url(#SVGID_31_)" d="M16.363,78.562c-0.538,0-0.973,0.435-0.973,0.973s0.435,0.973,0.973,0.973&#xD;&#xA;&#x9;&#x9;&#x9;&#x9;s0.973-0.435,0.973-0.973S16.901,78.562,16.363,78.562z M16.363,80.349c-0.45,0-0.814-0.364-0.814-0.814&#xD;&#xA;&#x9;&#x9;&#x9;&#x9;c0-0.45,0.364-0.814,0.814-0.814s0.813,0.364,0.813,0.814C17.177,79.985,16.813,80.349,16.363,80.349z"/>
      <linearGradient id="SVGID_32_" gradientUnits="userSpaceOnUse" x1="5.8721" y1="50.9507" x2="5.8721" y2="52.8965">
        <stop offset="0" style="stop-color:#FFFFFF;stop-opacity:0.3"/>
        <stop offset="0.0852" style="stop-color:#F7F7F7;stop-opacity:0.3043"/>
        <stop offset="0.22" style="stop-color:#E0E0E0;stop-opacity:0.311"/>
        <stop offset="0.3875" style="stop-color:#BBBBBB;stop-opacity:0.3194"/>
        <stop offset="0.5812" style="stop-color:#878787;stop-opacity:0.3291"/>
        <stop offset="0.7939" style="stop-color:#464646;stop-opacity:0.3397"/>
        <stop offset="1" style="stop-color:#000000;stop-opacity:0.35"/>
      </linearGradient>
      <path fill="url(#SVGID_32_)" d="M5.872,50.951c-0.538,0-0.973,0.435-0.973,0.973s0.435,0.973,0.973,0.973&#xD;&#xA;&#x9;&#x9;&#x9;&#x9;s0.973-0.435,0.973-0.973S6.41,50.951,5.872,50.951z M5.872,52.738c-0.45,0-0.814-0.364-0.814-0.814s0.364-0.814,0.814-0.814&#xD;&#xA;&#x9;&#x9;&#x9;&#x9;s0.813,0.364,0.813,0.814S6.322,52.738,5.872,52.738z"/>
      <linearGradient id="SVGID_33_" gradientUnits="userSpaceOnUse" x1="16.3633" y1="50.9507" x2="16.3633" y2="52.8965">
        <stop offset="0" style="stop-color:#FFFFFF;stop-opacity:0.3"/>
        <stop offset="0.0852" style="stop-color:#F7F7F7;stop-opacity:0.3043"/>
        <stop offset="0.22" style="stop-color:#E0E0E0;stop-opacity:0.311"/>
        <stop offset="0.3875" style="stop-color:#BBBBBB;stop-opacity:0.3194"/>
        <stop offset="0.5812" style="stop-color:#878787;stop-opacity:0.3291"/>
        <stop offset="0.7939" style="stop-color:#464646;stop-opacity:0.3397"/>
        <stop offset="1" style="stop-color:#000000;stop-opacity:0.35"/>
      </linearGradient>
      <path fill="url(#SVGID_33_)" d="M16.363,50.951c-0.538,0-0.973,0.435-0.973,0.973s0.435,0.973,0.973,0.973&#xD;&#xA;&#x9;&#x9;&#x9;&#x9;s0.973-0.435,0.973-0.973S16.901,50.951,16.363,50.951z M16.363,52.738c-0.45,0-0.814-0.364-0.814-0.814s0.364-0.814,0.814-0.814&#xD;&#xA;&#x9;&#x9;&#x9;&#x9;s0.813,0.364,0.813,0.814S16.813,52.738,16.363,52.738z"/>
      <linearGradient id="SVGID_34_" gradientUnits="userSpaceOnUse" x1="5.8721" y1="57.8535" x2="5.8721" y2="59.7993">
        <stop offset="0" style="stop-color:#FFFFFF;stop-opacity:0.3"/>
        <stop offset="0.0852" style="stop-color:#F7F7F7;stop-opacity:0.3043"/>
        <stop offset="0.22" style="stop-color:#E0E0E0;stop-opacity:0.311"/>
        <stop offset="0.3875" style="stop-color:#BBBBBB;stop-opacity:0.3194"/>
        <stop offset="0.5812" style="stop-color:#878787;stop-opacity:0.3291"/>
        <stop offset="0.7939" style="stop-color:#464646;stop-opacity:0.3397"/>
        <stop offset="1" style="stop-color:#000000;stop-opacity:0.35"/>
      </linearGradient>
      <path fill="url(#SVGID_34_)" d="M5.872,57.854c-0.538,0-0.973,0.435-0.973,0.973c0,0.539,0.435,0.973,0.973,0.973&#xD;&#xA;&#x9;&#x9;&#x9;&#x9;s0.973-0.435,0.973-0.973C6.845,58.288,6.41,57.854,5.872,57.854z M5.872,59.641c-0.45,0-0.814-0.364-0.814-0.814&#xD;&#xA;&#x9;&#x9;&#x9;&#x9;c0-0.45,0.364-0.813,0.814-0.813s0.813,0.364,0.813,0.813C6.686,59.276,6.322,59.641,5.872,59.641z"/>
      <linearGradient id="SVGID_35_" gradientUnits="userSpaceOnUse" x1="16.3633" y1="57.8535" x2="16.3633" y2="59.7993">
        <stop offset="0" style="stop-color:#FFFFFF;stop-opacity:0.3"/>
        <stop offset="0.0852" style="stop-color:#F7F7F7;stop-opacity:0.3043"/>
        <stop offset="0.22" style="stop-color:#E0E0E0;stop-opacity:0.311"/>
        <stop offset="0.3875" style="stop-color:#BBBBBB;stop-opacity:0.3194"/>
        <stop offset="0.5812" style="stop-color:#878787;stop-opacity:0.3291"/>
        <stop offset="0.7939" style="stop-color:#464646;stop-opacity:0.3397"/>
        <stop offset="1" style="stop-color:#000000;stop-opacity:0.35"/>
      </linearGradient>
      <path fill="url(#SVGID_35_)" d="M16.363,57.854c-0.538,0-0.973,0.435-0.973,0.973c0,0.539,0.435,0.973,0.973,0.973&#xD;&#xA;&#x9;&#x9;&#x9;&#x9;s0.973-0.435,0.973-0.973C17.336,58.288,16.901,57.854,16.363,57.854z M16.363,59.641c-0.45,0-0.814-0.364-0.814-0.814&#xD;&#xA;&#x9;&#x9;&#x9;&#x9;c0-0.45,0.364-0.813,0.814-0.813s0.813,0.364,0.813,0.813C17.177,59.276,16.813,59.641,16.363,59.641z"/>
      <linearGradient id="SVGID_36_" gradientUnits="userSpaceOnUse" x1="5.8721" y1="64.7563" x2="5.8721" y2="66.7021">
        <stop offset="0" style="stop-color:#FFFFFF;stop-opacity:0.3"/>
        <stop offset="0.0852" style="stop-color:#F7F7F7;stop-opacity:0.3043"/>
        <stop offset="0.22" style="stop-color:#E0E0E0;stop-opacity:0.311"/>
        <stop offset="0.3875" style="stop-color:#BBBBBB;stop-opacity:0.3194"/>
        <stop offset="0.5812" style="stop-color:#878787;stop-opacity:0.3291"/>
        <stop offset="0.7939" style="stop-color:#464646;stop-opacity:0.3397"/>
        <stop offset="1" style="stop-color:#000000;stop-opacity:0.35"/>
      </linearGradient>
      <path fill="url(#SVGID_36_)" d="M5.872,64.756c-0.538,0-0.973,0.435-0.973,0.973s0.435,0.973,0.973,0.973&#xD;&#xA;&#x9;&#x9;&#x9;&#x9;s0.973-0.435,0.973-0.973S6.41,64.756,5.872,64.756z M5.872,66.543c-0.45,0-0.814-0.364-0.814-0.814&#xD;&#xA;&#x9;&#x9;&#x9;&#x9;c0-0.45,0.364-0.814,0.814-0.814s0.813,0.364,0.813,0.814C6.686,66.179,6.322,66.543,5.872,66.543z"/>
      <linearGradient id="SVGID_37_" gradientUnits="userSpaceOnUse" x1="16.3633" y1="64.7563" x2="16.3633" y2="66.7021">
        <stop offset="0" style="stop-color:#FFFFFF;stop-opacity:0.3"/>
        <stop offset="0.0852" style="stop-color:#F7F7F7;stop-opacity:0.3043"/>
        <stop offset="0.22" style="stop-color:#E0E0E0;stop-opacity:0.311"/>
        <stop offset="0.3875" style="stop-color:#BBBBBB;stop-opacity:0.3194"/>
        <stop offset="0.5812" style="stop-color:#878787;stop-opacity:0.3291"/>
        <stop offset="0.7939" style="stop-color:#464646;stop-opacity:0.3397"/>
        <stop offset="1" style="stop-color:#000000;stop-opacity:0.35"/>
      </linearGradient>
      <path fill="url(#SVGID_37_)" d="M16.363,64.756c-0.538,0-0.973,0.435-0.973,0.973s0.435,0.973,0.973,0.973&#xD;&#xA;&#x9;&#x9;&#x9;&#x9;s0.973-0.435,0.973-0.973S16.901,64.756,16.363,64.756z M16.363,66.543c-0.45,0-0.814-0.364-0.814-0.814&#xD;&#xA;&#x9;&#x9;&#x9;&#x9;c0-0.45,0.364-0.814,0.814-0.814s0.813,0.364,0.813,0.814C17.177,66.179,16.813,66.543,16.363,66.543z"/>
      <linearGradient id="SVGID_38_" gradientUnits="userSpaceOnUse" x1="5.8721" y1="71.6592" x2="5.8721" y2="73.605">
        <stop offset="0" style="stop-color:#FFFFFF;stop-opacity:0.3"/>
        <stop offset="0.0852" style="stop-color:#F7F7F7;stop-opacity:0.3043"/>
        <stop offset="0.22" style="stop-color:#E0E0E0;stop-opacity:0.311"/>
        <stop offset="0.3875" style="stop-color:#BBBBBB;stop-opacity:0.3194"/>
        <stop offset="0.5812" style="stop-color:#878787;stop-opacity:0.3291"/>
        <stop offset="0.7939" style="stop-color:#464646;stop-opacity:0.3397"/>
        <stop offset="1" style="stop-color:#000000;stop-opacity:0.35"/>
      </linearGradient>
      <path fill="url(#SVGID_38_)" d="M5.872,71.659c-0.538,0-0.973,0.435-0.973,0.973s0.435,0.973,0.973,0.973&#xD;&#xA;&#x9;&#x9;&#x9;&#x9;s0.973-0.435,0.973-0.973S6.41,71.659,5.872,71.659z M5.872,73.446c-0.45,0-0.814-0.364-0.814-0.814&#xD;&#xA;&#x9;&#x9;&#x9;&#x9;c0-0.45,0.364-0.814,0.814-0.814s0.813,0.364,0.813,0.814C6.686,73.082,6.322,73.446,5.872,73.446z"/>
      <linearGradient id="SVGID_39_" gradientUnits="userSpaceOnUse" x1="16.3633" y1="71.6592" x2="16.3633" y2="73.605">
        <stop offset="0" style="stop-color:#FFFFFF;stop-opacity:0.3"/>
        <stop offset="0.0852" style="stop-color:#F7F7F7;stop-opacity:0.3043"/>
        <stop offset="0.22" style="stop-color:#E0E0E0;stop-opacity:0.311"/>
        <stop offset="0.3875" style="stop-color:#BBBBBB;stop-opacity:0.3194"/>
        <stop offset="0.5812" style="stop-color:#878787;stop-opacity:0.3291"/>
        <stop offset="0.7939" style="stop-color:#464646;stop-opacity:0.3397"/>
        <stop offset="1" style="stop-color:#000000;stop-opacity:0.35"/>
      </linearGradient>
      <path fill="url(#SVGID_39_)" d="M16.363,71.659c-0.538,0-0.973,0.435-0.973,0.973s0.435,0.973,0.973,0.973&#xD;&#xA;&#x9;&#x9;&#x9;&#x9;s0.973-0.435,0.973-0.973S16.901,71.659,16.363,71.659z M16.363,73.446c-0.45,0-0.814-0.364-0.814-0.814&#xD;&#xA;&#x9;&#x9;&#x9;&#x9;c0-0.45,0.364-0.814,0.814-0.814s0.813,0.364,0.813,0.814C17.177,73.082,16.813,73.446,16.363,73.446z"/>
      <linearGradient id="SVGID_40_" gradientUnits="userSpaceOnUse" x1="5.8721" y1="85.4648" x2="5.8721" y2="87.4106">
        <stop offset="0" style="stop-color:#FFFFFF;stop-opacity:0.3"/>
        <stop offset="0.0852" style="stop-color:#F7F7F7;stop-opacity:0.3043"/>
        <stop offset="0.22" style="stop-color:#E0E0E0;stop-opacity:0.311"/>
        <stop offset="0.3875" style="stop-color:#BBBBBB;stop-opacity:0.3194"/>
        <stop offset="0.5812" style="stop-color:#878787;stop-opacity:0.3291"/>
        <stop offset="0.7939" style="stop-color:#464646;stop-opacity:0.3397"/>
        <stop offset="1" style="stop-color:#000000;stop-opacity:0.35"/>
      </linearGradient>
      <path fill="url(#SVGID_40_)" d="M5.872,85.465c-0.538,0-0.973,0.435-0.973,0.973s0.435,0.973,0.973,0.973&#xD;&#xA;&#x9;&#x9;&#x9;&#x9;s0.973-0.435,0.973-0.973S6.41,85.465,5.872,85.465z M5.872,87.251c-0.45,0-0.814-0.364-0.814-0.814s0.364-0.814,0.814-0.814&#xD;&#xA;&#x9;&#x9;&#x9;&#x9;s0.813,0.364,0.813,0.814S6.322,87.251,5.872,87.251z"/>
      <linearGradient id="SVGID_41_" gradientUnits="userSpaceOnUse" x1="16.3633" y1="85.4648" x2="16.3633" y2="87.4106">
        <stop offset="0" style="stop-color:#FFFFFF;stop-opacity:0.3"/>
        <stop offset="0.0852" style="stop-color:#F7F7F7;stop-opacity:0.3043"/>
        <stop offset="0.22" style="stop-color:#E0E0E0;stop-opacity:0.311"/>
        <stop offset="0.3875" style="stop-color:#BBBBBB;stop-opacity:0.3194"/>
        <stop offset="0.5812" style="stop-color:#878787;stop-opacity:0.3291"/>
        <stop offset="0.7939" style="stop-color:#464646;stop-opacity:0.3397"/>
        <stop offset="1" style="stop-color:#000000;stop-opacity:0.35"/>
      </linearGradient>
      <path fill="url(#SVGID_41_)" d="M16.363,85.465c-0.538,0-0.973,0.435-0.973,0.973s0.435,0.973,0.973,0.973&#xD;&#xA;&#x9;&#x9;&#x9;&#x9;s0.973-0.435,0.973-0.973S16.901,85.465,16.363,85.465z M16.363,87.251c-0.45,0-0.814-0.364-0.814-0.814s0.364-0.814,0.814-0.814&#xD;&#xA;&#x9;&#x9;&#x9;&#x9;s0.813,0.364,0.813,0.814S16.813,87.251,16.363,87.251z"/>
      <linearGradient id="SVGID_42_" gradientUnits="userSpaceOnUse" x1="5.8721" y1="106.1733" x2="5.8721" y2="108.1191">
        <stop offset="0" style="stop-color:#FFFFFF;stop-opacity:0.3"/>
        <stop offset="0.0852" style="stop-color:#F7F7F7;stop-opacity:0.3043"/>
        <stop offset="0.22" style="stop-color:#E0E0E0;stop-opacity:0.311"/>
        <stop offset="0.3875" style="stop-color:#BBBBBB;stop-opacity:0.3194"/>
        <stop offset="0.5812" style="stop-color:#878787;stop-opacity:0.3291"/>
        <stop offset="0.7939" style="stop-color:#464646;stop-opacity:0.3397"/>
        <stop offset="1" style="stop-color:#000000;stop-opacity:0.35"/>
      </linearGradient>
      <path fill="url(#SVGID_42_)" d="M5.872,106.173c-0.538,0-0.973,0.435-0.973,0.973s0.435,0.973,0.973,0.973&#xD;&#xA;&#x9;&#x9;&#x9;&#x9;s0.973-0.435,0.973-0.973S6.41,106.173,5.872,106.173z M5.872,107.96c-0.45,0-0.814-0.364-0.814-0.814s0.364-0.814,0.814-0.814&#xD;&#xA;&#x9;&#x9;&#x9;&#x9;s0.813,0.364,0.813,0.814S6.322,107.96,5.872,107.96z"/>
      <linearGradient id="SVGID_43_" gradientUnits="userSpaceOnUse" x1="16.3633" y1="106.1733" x2="16.3633" y2="108.1191">
        <stop offset="0" style="stop-color:#FFFFFF;stop-opacity:0.3"/>
        <stop offset="0.0852" style="stop-color:#F7F7F7;stop-opacity:0.3043"/>
        <stop offset="0.22" style="stop-color:#E0E0E0;stop-opacity:0.311"/>
        <stop offset="0.3875" style="stop-color:#BBBBBB;stop-opacity:0.3194"/>
        <stop offset="0.5812" style="stop-color:#878787;stop-opacity:0.3291"/>
        <stop offset="0.7939" style="stop-color:#464646;stop-opacity:0.3397"/>
        <stop offset="1" style="stop-color:#000000;stop-opacity:0.35"/>
      </linearGradient>
      <path fill="url(#SVGID_43_)" d="M16.363,106.173c-0.538,0-0.973,0.435-0.973,0.973s0.435,0.973,0.973,0.973&#xD;&#xA;&#x9;&#x9;&#x9;&#x9;s0.973-0.435,0.973-0.973S16.901,106.173,16.363,106.173z M16.363,107.96c-0.45,0-0.814-0.364-0.814-0.814&#xD;&#xA;&#x9;&#x9;&#x9;&#x9;s0.364-0.814,0.814-0.814s0.813,0.364,0.813,0.814S16.813,107.96,16.363,107.96z"/>
    </g>
    <g>
      <linearGradient id="SVGID_44_" gradientUnits="userSpaceOnUse" x1="5.8711" y1="92.5264" x2="5.8711" y2="94.1543">
        <stop offset="0" style="stop-color:#FFFFFF;stop-opacity:0.02"/>
        <stop offset="1" style="stop-color:#000000;stop-opacity:0.02"/>
      </linearGradient>
      <path fill="url(#SVGID_44_)" d="M5.872,92.526c-0.45,0-0.814,0.364-0.814,0.814c0,0.45,0.364,0.814,0.814,0.814&#xD;&#xA;&#x9;&#x9;&#x9;&#x9;s0.813-0.364,0.813-0.814C6.686,92.891,6.322,92.526,5.872,92.526z M5.872,94c-0.364,0-0.66-0.296-0.66-0.66&#xD;&#xA;&#x9;&#x9;&#x9;&#x9;s0.296-0.66,0.66-0.66c0.363,0,0.66,0.296,0.66,0.66S6.235,94,5.872,94z"/>
      <linearGradient id="SVGID_45_" gradientUnits="userSpaceOnUse" x1="16.3633" y1="92.5264" x2="16.3633" y2="94.1543">
        <stop offset="0" style="stop-color:#FFFFFF;stop-opacity:0.02"/>
        <stop offset="1" style="stop-color:#000000;stop-opacity:0.02"/>
      </linearGradient>
      <path fill="url(#SVGID_45_)" d="M16.363,92.526c-0.45,0-0.814,0.364-0.814,0.814c0,0.45,0.364,0.814,0.814,0.814&#xD;&#xA;&#x9;&#x9;&#x9;&#x9;s0.813-0.364,0.813-0.814C17.177,92.891,16.813,92.526,16.363,92.526z M16.363,94c-0.364,0-0.66-0.296-0.66-0.66&#xD;&#xA;&#x9;&#x9;&#x9;&#x9;s0.296-0.66,0.66-0.66c0.363,0,0.66,0.296,0.66,0.66S16.727,94,16.363,94z"/>
      <linearGradient id="SVGID_46_" gradientUnits="userSpaceOnUse" x1="5.8711" y1="44.207" x2="5.8711" y2="45.835">
        <stop offset="0" style="stop-color:#FFFFFF;stop-opacity:0.02"/>
        <stop offset="1" style="stop-color:#000000;stop-opacity:0.02"/>
      </linearGradient>
      <path fill="url(#SVGID_46_)" d="M5.872,44.207c-0.45,0-0.814,0.364-0.814,0.814s0.364,0.814,0.814,0.814s0.813-0.364,0.813-0.814&#xD;&#xA;&#x9;&#x9;&#x9;&#x9;S6.322,44.207,5.872,44.207z M5.872,45.681c-0.364,0-0.66-0.296-0.66-0.66s0.296-0.66,0.66-0.66c0.363,0,0.66,0.296,0.66,0.66&#xD;&#xA;&#x9;&#x9;&#x9;&#x9;S6.235,45.681,5.872,45.681z"/>
      <linearGradient id="SVGID_47_" gradientUnits="userSpaceOnUse" x1="16.3633" y1="44.207" x2="16.3633" y2="45.835">
        <stop offset="0" style="stop-color:#FFFFFF;stop-opacity:0.02"/>
        <stop offset="1" style="stop-color:#000000;stop-opacity:0.02"/>
      </linearGradient>
      <path fill="url(#SVGID_47_)" d="M16.363,44.207c-0.45,0-0.814,0.364-0.814,0.814s0.364,0.814,0.814,0.814&#xD;&#xA;&#x9;&#x9;&#x9;&#x9;s0.813-0.364,0.813-0.814S16.813,44.207,16.363,44.207z M16.363,45.681c-0.364,0-0.66-0.296-0.66-0.66s0.296-0.66,0.66-0.66&#xD;&#xA;&#x9;&#x9;&#x9;&#x9;c0.363,0,0.66,0.296,0.66,0.66S16.727,45.681,16.363,45.681z"/>
      <linearGradient id="SVGID_48_" gradientUnits="userSpaceOnUse" x1="5.8711" y1="99.4292" x2="5.8711" y2="101.0571">
        <stop offset="0" style="stop-color:#FFFFFF;stop-opacity:0.02"/>
        <stop offset="1" style="stop-color:#000000;stop-opacity:0.02"/>
      </linearGradient>
      <path fill="url(#SVGID_48_)" d="M5.872,99.429c-0.45,0-0.814,0.364-0.814,0.814s0.364,0.814,0.814,0.814s0.813-0.364,0.813-0.814&#xD;&#xA;&#x9;&#x9;&#x9;&#x9;S6.322,99.429,5.872,99.429z M5.872,100.903c-0.364,0-0.66-0.296-0.66-0.66s0.296-0.66,0.66-0.66c0.363,0,0.66,0.296,0.66,0.66&#xD;&#xA;&#x9;&#x9;&#x9;&#x9;S6.235,100.903,5.872,100.903z"/>
      <linearGradient id="SVGID_49_" gradientUnits="userSpaceOnUse" x1="16.3633" y1="99.4292" x2="16.3633" y2="101.0571">
        <stop offset="0" style="stop-color:#FFFFFF;stop-opacity:0.02"/>
        <stop offset="1" style="stop-color:#000000;stop-opacity:0.02"/>
      </linearGradient>
      <path fill="url(#SVGID_49_)" d="M16.363,99.429c-0.45,0-0.814,0.364-0.814,0.814s0.364,0.814,0.814,0.814&#xD;&#xA;&#x9;&#x9;&#x9;&#x9;s0.813-0.364,0.813-0.814S16.813,99.429,16.363,99.429z M16.363,100.903c-0.364,0-0.66-0.296-0.66-0.66s0.296-0.66,0.66-0.66&#xD;&#xA;&#x9;&#x9;&#x9;&#x9;c0.363,0,0.66,0.296,0.66,0.66S16.727,100.903,16.363,100.903z"/>
      <linearGradient id="SVGID_50_" gradientUnits="userSpaceOnUse" x1="5.8711" y1="78.7207" x2="5.8711" y2="80.3486">
        <stop offset="0" style="stop-color:#FFFFFF;stop-opacity:0.02"/>
        <stop offset="1" style="stop-color:#000000;stop-opacity:0.02"/>
      </linearGradient>
      <path fill="url(#SVGID_50_)" d="M5.872,78.721c-0.45,0-0.814,0.364-0.814,0.814c0,0.45,0.364,0.814,0.814,0.814&#xD;&#xA;&#x9;&#x9;&#x9;&#x9;s0.813-0.364,0.813-0.814C6.686,79.085,6.322,78.721,5.872,78.721z M5.872,80.195c-0.364,0-0.66-0.296-0.66-0.66&#xD;&#xA;&#x9;&#x9;&#x9;&#x9;s0.296-0.66,0.66-0.66c0.363,0,0.66,0.296,0.66,0.66S6.235,80.195,5.872,80.195z"/>
      <linearGradient id="SVGID_51_" gradientUnits="userSpaceOnUse" x1="16.3633" y1="78.7207" x2="16.3633" y2="80.3486">
        <stop offset="0" style="stop-color:#FFFFFF;stop-opacity:0.02"/>
        <stop offset="1" style="stop-color:#000000;stop-opacity:0.02"/>
      </linearGradient>
      <path fill="url(#SVGID_51_)" d="M16.363,78.721c-0.45,0-0.814,0.364-0.814,0.814c0,0.45,0.364,0.814,0.814,0.814&#xD;&#xA;&#x9;&#x9;&#x9;&#x9;s0.813-0.364,0.813-0.814C17.177,79.085,16.813,78.721,16.363,78.721z M16.363,80.195c-0.364,0-0.66-0.296-0.66-0.66&#xD;&#xA;&#x9;&#x9;&#x9;&#x9;s0.296-0.66,0.66-0.66c0.363,0,0.66,0.296,0.66,0.66S16.727,80.195,16.363,80.195z"/>
      <linearGradient id="SVGID_52_" gradientUnits="userSpaceOnUse" x1="5.8711" y1="51.1099" x2="5.8711" y2="52.7378">
        <stop offset="0" style="stop-color:#FFFFFF;stop-opacity:0.02"/>
        <stop offset="1" style="stop-color:#000000;stop-opacity:0.02"/>
      </linearGradient>
      <path fill="url(#SVGID_52_)" d="M5.872,51.11c-0.45,0-0.814,0.364-0.814,0.814s0.364,0.814,0.814,0.814s0.813-0.364,0.813-0.814&#xD;&#xA;&#x9;&#x9;&#x9;&#x9;S6.322,51.11,5.872,51.11z M5.872,52.583c-0.364,0-0.66-0.296-0.66-0.66s0.296-0.66,0.66-0.66c0.363,0,0.66,0.296,0.66,0.66&#xD;&#xA;&#x9;&#x9;&#x9;&#x9;S6.235,52.583,5.872,52.583z"/>
      <linearGradient id="SVGID_53_" gradientUnits="userSpaceOnUse" x1="16.3633" y1="51.1099" x2="16.3633" y2="52.7378">
        <stop offset="0" style="stop-color:#FFFFFF;stop-opacity:0.02"/>
        <stop offset="1" style="stop-color:#000000;stop-opacity:0.02"/>
      </linearGradient>
      <path fill="url(#SVGID_53_)" d="M16.363,51.11c-0.45,0-0.814,0.364-0.814,0.814s0.364,0.814,0.814,0.814s0.813-0.364,0.813-0.814&#xD;&#xA;&#x9;&#x9;&#x9;&#x9;S16.813,51.11,16.363,51.11z M16.363,52.583c-0.364,0-0.66-0.296-0.66-0.66s0.296-0.66,0.66-0.66c0.363,0,0.66,0.296,0.66,0.66&#xD;&#xA;&#x9;&#x9;&#x9;&#x9;S16.727,52.583,16.363,52.583z"/>
      <linearGradient id="SVGID_54_" gradientUnits="userSpaceOnUse" x1="5.8711" y1="58.0127" x2="5.8711" y2="59.6406">
        <stop offset="0" style="stop-color:#FFFFFF;stop-opacity:0.02"/>
        <stop offset="1" style="stop-color:#000000;stop-opacity:0.02"/>
      </linearGradient>
      <path fill="url(#SVGID_54_)" d="M5.872,58.013c-0.45,0-0.814,0.364-0.814,0.813c0,0.45,0.364,0.814,0.814,0.814&#xD;&#xA;&#x9;&#x9;&#x9;&#x9;s0.813-0.364,0.813-0.814C6.686,58.376,6.322,58.013,5.872,58.013z M5.872,59.486c-0.364,0-0.66-0.296-0.66-0.66&#xD;&#xA;&#x9;&#x9;&#x9;&#x9;c0-0.363,0.296-0.66,0.66-0.66c0.363,0,0.66,0.296,0.66,0.66C6.532,59.19,6.235,59.486,5.872,59.486z"/>
      <linearGradient id="SVGID_55_" gradientUnits="userSpaceOnUse" x1="16.3633" y1="58.0127" x2="16.3633" y2="59.6406">
        <stop offset="0" style="stop-color:#FFFFFF;stop-opacity:0.02"/>
        <stop offset="1" style="stop-color:#000000;stop-opacity:0.02"/>
      </linearGradient>
      <path fill="url(#SVGID_55_)" d="M16.363,58.013c-0.45,0-0.814,0.364-0.814,0.813c0,0.45,0.364,0.814,0.814,0.814&#xD;&#xA;&#x9;&#x9;&#x9;&#x9;s0.813-0.364,0.813-0.814C17.177,58.376,16.813,58.013,16.363,58.013z M16.363,59.486c-0.364,0-0.66-0.296-0.66-0.66&#xD;&#xA;&#x9;&#x9;&#x9;&#x9;c0-0.363,0.296-0.66,0.66-0.66c0.363,0,0.66,0.296,0.66,0.66C17.023,59.19,16.727,59.486,16.363,59.486z"/>
      <linearGradient id="SVGID_56_" gradientUnits="userSpaceOnUse" x1="5.8711" y1="64.915" x2="5.8711" y2="66.543">
        <stop offset="0" style="stop-color:#FFFFFF;stop-opacity:0.02"/>
        <stop offset="1" style="stop-color:#000000;stop-opacity:0.02"/>
      </linearGradient>
      <path fill="url(#SVGID_56_)" d="M5.872,64.915c-0.45,0-0.814,0.364-0.814,0.814c0,0.45,0.364,0.814,0.814,0.814&#xD;&#xA;&#x9;&#x9;&#x9;&#x9;s0.813-0.364,0.813-0.814C6.686,65.279,6.322,64.915,5.872,64.915z M5.872,66.389c-0.364,0-0.66-0.296-0.66-0.66&#xD;&#xA;&#x9;&#x9;&#x9;&#x9;s0.296-0.66,0.66-0.66c0.363,0,0.66,0.296,0.66,0.66S6.235,66.389,5.872,66.389z"/>
      <linearGradient id="SVGID_57_" gradientUnits="userSpaceOnUse" x1="16.3633" y1="64.915" x2="16.3633" y2="66.543">
        <stop offset="0" style="stop-color:#FFFFFF;stop-opacity:0.02"/>
        <stop offset="1" style="stop-color:#000000;stop-opacity:0.02"/>
      </linearGradient>
      <path fill="url(#SVGID_57_)" d="M16.363,64.915c-0.45,0-0.814,0.364-0.814,0.814c0,0.45,0.364,0.814,0.814,0.814&#xD;&#xA;&#x9;&#x9;&#x9;&#x9;s0.813-0.364,0.813-0.814C17.177,65.279,16.813,64.915,16.363,64.915z M16.363,66.389c-0.364,0-0.66-0.296-0.66-0.66&#xD;&#xA;&#x9;&#x9;&#x9;&#x9;s0.296-0.66,0.66-0.66c0.363,0,0.66,0.296,0.66,0.66S16.727,66.389,16.363,66.389z"/>
      <linearGradient id="SVGID_58_" gradientUnits="userSpaceOnUse" x1="5.8711" y1="71.8179" x2="5.8711" y2="73.4458">
        <stop offset="0" style="stop-color:#FFFFFF;stop-opacity:0.02"/>
        <stop offset="1" style="stop-color:#000000;stop-opacity:0.02"/>
      </linearGradient>
      <path fill="url(#SVGID_58_)" d="M5.872,71.818c-0.45,0-0.814,0.364-0.814,0.814c0,0.45,0.364,0.814,0.814,0.814&#xD;&#xA;&#x9;&#x9;&#x9;&#x9;s0.813-0.364,0.813-0.814C6.686,72.182,6.322,71.818,5.872,71.818z M5.872,73.292c-0.364,0-0.66-0.296-0.66-0.66&#xD;&#xA;&#x9;&#x9;&#x9;&#x9;s0.296-0.66,0.66-0.66c0.363,0,0.66,0.296,0.66,0.66S6.235,73.292,5.872,73.292z"/>
      <linearGradient id="SVGID_59_" gradientUnits="userSpaceOnUse" x1="16.3633" y1="71.8179" x2="16.3633" y2="73.4458">
        <stop offset="0" style="stop-color:#FFFFFF;stop-opacity:0.02"/>
        <stop offset="1" style="stop-color:#000000;stop-opacity:0.02"/>
      </linearGradient>
      <path fill="url(#SVGID_59_)" d="M16.363,71.818c-0.45,0-0.814,0.364-0.814,0.814c0,0.45,0.364,0.814,0.814,0.814&#xD;&#xA;&#x9;&#x9;&#x9;&#x9;s0.813-0.364,0.813-0.814C17.177,72.182,16.813,71.818,16.363,71.818z M16.363,73.292c-0.364,0-0.66-0.296-0.66-0.66&#xD;&#xA;&#x9;&#x9;&#x9;&#x9;s0.296-0.66,0.66-0.66c0.363,0,0.66,0.296,0.66,0.66S16.727,73.292,16.363,73.292z"/>
      <linearGradient id="SVGID_60_" gradientUnits="userSpaceOnUse" x1="5.8711" y1="85.6235" x2="5.8711" y2="87.2515">
        <stop offset="0" style="stop-color:#FFFFFF;stop-opacity:0.02"/>
        <stop offset="1" style="stop-color:#000000;stop-opacity:0.02"/>
      </linearGradient>
      <path fill="url(#SVGID_60_)" d="M5.872,85.624c-0.45,0-0.814,0.364-0.814,0.814s0.364,0.814,0.814,0.814s0.813-0.364,0.813-0.814&#xD;&#xA;&#x9;&#x9;&#x9;&#x9;S6.322,85.624,5.872,85.624z M5.872,87.098c-0.364,0-0.66-0.296-0.66-0.66s0.296-0.66,0.66-0.66c0.363,0,0.66,0.296,0.66,0.66&#xD;&#xA;&#x9;&#x9;&#x9;&#x9;S6.235,87.098,5.872,87.098z"/>
      <linearGradient id="SVGID_61_" gradientUnits="userSpaceOnUse" x1="16.3633" y1="85.6235" x2="16.3633" y2="87.2515">
        <stop offset="0" style="stop-color:#FFFFFF;stop-opacity:0.02"/>
        <stop offset="1" style="stop-color:#000000;stop-opacity:0.02"/>
      </linearGradient>
      <path fill="url(#SVGID_61_)" d="M16.363,85.624c-0.45,0-0.814,0.364-0.814,0.814s0.364,0.814,0.814,0.814&#xD;&#xA;&#x9;&#x9;&#x9;&#x9;s0.813-0.364,0.813-0.814S16.813,85.624,16.363,85.624z M16.363,87.098c-0.364,0-0.66-0.296-0.66-0.66s0.296-0.66,0.66-0.66&#xD;&#xA;&#x9;&#x9;&#x9;&#x9;c0.363,0,0.66,0.296,0.66,0.66S16.727,87.098,16.363,87.098z"/>
      <linearGradient id="SVGID_62_" gradientUnits="userSpaceOnUse" x1="5.8711" y1="106.332" x2="5.8711" y2="107.96">
        <stop offset="0" style="stop-color:#FFFFFF;stop-opacity:0.02"/>
        <stop offset="1" style="stop-color:#000000;stop-opacity:0.02"/>
      </linearGradient>
      <path fill="url(#SVGID_62_)" d="M5.872,106.332c-0.45,0-0.814,0.364-0.814,0.814s0.364,0.814,0.814,0.814&#xD;&#xA;&#x9;&#x9;&#x9;&#x9;s0.813-0.364,0.813-0.814S6.322,106.332,5.872,106.332z M5.872,107.806c-0.364,0-0.66-0.296-0.66-0.66s0.296-0.66,0.66-0.66&#xD;&#xA;&#x9;&#x9;&#x9;&#x9;c0.363,0,0.66,0.296,0.66,0.66S6.235,107.806,5.872,107.806z"/>
      <linearGradient id="SVGID_63_" gradientUnits="userSpaceOnUse" x1="16.3633" y1="106.332" x2="16.3633" y2="107.96">
        <stop offset="0" style="stop-color:#FFFFFF;stop-opacity:0.02"/>
        <stop offset="1" style="stop-color:#000000;stop-opacity:0.02"/>
      </linearGradient>
      <path fill="url(#SVGID_63_)" d="M16.363,106.332c-0.45,0-0.814,0.364-0.814,0.814s0.364,0.814,0.814,0.814&#xD;&#xA;&#x9;&#x9;&#x9;&#x9;s0.813-0.364,0.813-0.814S16.813,106.332,16.363,106.332z M16.363,107.806c-0.364,0-0.66-0.296-0.66-0.66s0.296-0.66,0.66-0.66&#xD;&#xA;&#x9;&#x9;&#x9;&#x9;c0.363,0,0.66,0.296,0.66,0.66S16.727,107.806,16.363,107.806z"/>
    </g>
    <g>
      <linearGradient id="SVGID_64_" gradientUnits="userSpaceOnUse" x1="5.8721" y1="94.0005" x2="5.8721" y2="92.6807">
        <stop offset="0" style="stop-color:#FFFFFF;stop-opacity:0.2"/>
        <stop offset="1" style="stop-color:#000000;stop-opacity:0.2"/>
      </linearGradient>
      <circle fill="url(#SVGID_64_)" cx="5.872" cy="93.34" r="0.66"/>
      <linearGradient id="SVGID_65_" gradientUnits="userSpaceOnUse" x1="16.3633" y1="94.0005" x2="16.3633" y2="92.6807">
        <stop offset="0" style="stop-color:#FFFFFF;stop-opacity:0.2"/>
        <stop offset="1" style="stop-color:#000000;stop-opacity:0.2"/>
      </linearGradient>
      <circle fill="url(#SVGID_65_)" cx="16.363" cy="93.34" r="0.66"/>
      <linearGradient id="SVGID_66_" gradientUnits="userSpaceOnUse" x1="5.8721" y1="45.6807" x2="5.8721" y2="44.3608">
        <stop offset="0" style="stop-color:#FFFFFF;stop-opacity:0.2"/>
        <stop offset="1" style="stop-color:#000000;stop-opacity:0.2"/>
      </linearGradient>
      <circle fill="url(#SVGID_66_)" cx="5.872" cy="45.021" r="0.66"/>
      <linearGradient id="SVGID_67_" gradientUnits="userSpaceOnUse" x1="16.3633" y1="45.6807" x2="16.3633" y2="44.3608">
        <stop offset="0" style="stop-color:#FFFFFF;stop-opacity:0.2"/>
        <stop offset="1" style="stop-color:#000000;stop-opacity:0.2"/>
      </linearGradient>
      <circle fill="url(#SVGID_67_)" cx="16.363" cy="45.021" r="0.66"/>
      <linearGradient id="SVGID_68_" gradientUnits="userSpaceOnUse" x1="5.8721" y1="100.9033" x2="5.8721" y2="99.583">
        <stop offset="0" style="stop-color:#FFFFFF;stop-opacity:0.2"/>
        <stop offset="1" style="stop-color:#000000;stop-opacity:0.2"/>
      </linearGradient>
      <circle fill="url(#SVGID_68_)" cx="5.872" cy="100.243" r="0.66"/>
      <linearGradient id="SVGID_69_" gradientUnits="userSpaceOnUse" x1="16.3633" y1="100.9033" x2="16.3633" y2="99.583">
        <stop offset="0" style="stop-color:#FFFFFF;stop-opacity:0.2"/>
        <stop offset="1" style="stop-color:#000000;stop-opacity:0.2"/>
      </linearGradient>
      <circle fill="url(#SVGID_69_)" cx="16.363" cy="100.243" r="0.66"/>
      <linearGradient id="SVGID_70_" gradientUnits="userSpaceOnUse" x1="5.8721" y1="80.1948" x2="5.8721" y2="78.875">
        <stop offset="0" style="stop-color:#FFFFFF;stop-opacity:0.2"/>
        <stop offset="1" style="stop-color:#000000;stop-opacity:0.2"/>
      </linearGradient>
      <circle fill="url(#SVGID_70_)" cx="5.872" cy="79.535" r="0.66"/>
      <linearGradient id="SVGID_71_" gradientUnits="userSpaceOnUse" x1="16.3633" y1="80.1948" x2="16.3633" y2="78.875">
        <stop offset="0" style="stop-color:#FFFFFF;stop-opacity:0.2"/>
        <stop offset="1" style="stop-color:#000000;stop-opacity:0.2"/>
      </linearGradient>
      <circle fill="url(#SVGID_71_)" cx="16.363" cy="79.535" r="0.66"/>
      <linearGradient id="SVGID_72_" gradientUnits="userSpaceOnUse" x1="5.8721" y1="52.5835" x2="5.8721" y2="51.2637">
        <stop offset="0" style="stop-color:#FFFFFF;stop-opacity:0.2"/>
        <stop offset="1" style="stop-color:#000000;stop-opacity:0.2"/>
      </linearGradient>
      <circle fill="url(#SVGID_72_)" cx="5.872" cy="51.924" r="0.66"/>
      <linearGradient id="SVGID_73_" gradientUnits="userSpaceOnUse" x1="16.3633" y1="52.5835" x2="16.3633" y2="51.2637">
        <stop offset="0" style="stop-color:#FFFFFF;stop-opacity:0.2"/>
        <stop offset="1" style="stop-color:#000000;stop-opacity:0.2"/>
      </linearGradient>
      <circle fill="url(#SVGID_73_)" cx="16.363" cy="51.924" r="0.66"/>
      <linearGradient id="SVGID_74_" gradientUnits="userSpaceOnUse" x1="5.8721" y1="59.4863" x2="5.8721" y2="58.1665">
        <stop offset="0" style="stop-color:#FFFFFF;stop-opacity:0.2"/>
        <stop offset="1" style="stop-color:#000000;stop-opacity:0.2"/>
      </linearGradient>
      <circle fill="url(#SVGID_74_)" cx="5.872" cy="58.826" r="0.66"/>
      <linearGradient id="SVGID_75_" gradientUnits="userSpaceOnUse" x1="16.3633" y1="59.4863" x2="16.3633" y2="58.1665">
        <stop offset="0" style="stop-color:#FFFFFF;stop-opacity:0.2"/>
        <stop offset="1" style="stop-color:#000000;stop-opacity:0.2"/>
      </linearGradient>
      <circle fill="url(#SVGID_75_)" cx="16.363" cy="58.826" r="0.66"/>
      <linearGradient id="SVGID_76_" gradientUnits="userSpaceOnUse" x1="5.8721" y1="66.3892" x2="5.8721" y2="65.0693">
        <stop offset="0" style="stop-color:#FFFFFF;stop-opacity:0.2"/>
        <stop offset="1" style="stop-color:#000000;stop-opacity:0.2"/>
      </linearGradient>
      <circle fill="url(#SVGID_76_)" cx="5.872" cy="65.729" r="0.66"/>
      <linearGradient id="SVGID_77_" gradientUnits="userSpaceOnUse" x1="16.3633" y1="66.3892" x2="16.3633" y2="65.0693">
        <stop offset="0" style="stop-color:#FFFFFF;stop-opacity:0.2"/>
        <stop offset="1" style="stop-color:#000000;stop-opacity:0.2"/>
      </linearGradient>
      <circle fill="url(#SVGID_77_)" cx="16.363" cy="65.729" r="0.66"/>
      <linearGradient id="SVGID_78_" gradientUnits="userSpaceOnUse" x1="5.8721" y1="73.292" x2="5.8721" y2="71.9722">
        <stop offset="0" style="stop-color:#FFFFFF;stop-opacity:0.2"/>
        <stop offset="1" style="stop-color:#000000;stop-opacity:0.2"/>
      </linearGradient>
      <circle fill="url(#SVGID_78_)" cx="5.872" cy="72.632" r="0.66"/>
      <linearGradient id="SVGID_79_" gradientUnits="userSpaceOnUse" x1="16.3633" y1="73.292" x2="16.3633" y2="71.9722">
        <stop offset="0" style="stop-color:#FFFFFF;stop-opacity:0.2"/>
        <stop offset="1" style="stop-color:#000000;stop-opacity:0.2"/>
      </linearGradient>
      <circle fill="url(#SVGID_79_)" cx="16.363" cy="72.632" r="0.66"/>
      <linearGradient id="SVGID_80_" gradientUnits="userSpaceOnUse" x1="5.8721" y1="87.0977" x2="5.8721" y2="85.7778">
        <stop offset="0" style="stop-color:#FFFFFF;stop-opacity:0.2"/>
        <stop offset="1" style="stop-color:#000000;stop-opacity:0.2"/>
      </linearGradient>
      <circle fill="url(#SVGID_80_)" cx="5.872" cy="86.438" r="0.66"/>
      <linearGradient id="SVGID_81_" gradientUnits="userSpaceOnUse" x1="16.3633" y1="87.0977" x2="16.3633" y2="85.7778">
        <stop offset="0" style="stop-color:#FFFFFF;stop-opacity:0.2"/>
        <stop offset="1" style="stop-color:#000000;stop-opacity:0.2"/>
      </linearGradient>
      <circle fill="url(#SVGID_81_)" cx="16.363" cy="86.438" r="0.66"/>
      <linearGradient id="SVGID_82_" gradientUnits="userSpaceOnUse" x1="5.8721" y1="107.8062" x2="5.8721" y2="106.4863">
        <stop offset="0" style="stop-color:#FFFFFF;stop-opacity:0.2"/>
        <stop offset="1" style="stop-color:#000000;stop-opacity:0.2"/>
      </linearGradient>
      <circle fill="url(#SVGID_82_)" cx="5.872" cy="107.146" r="0.66"/>
      <linearGradient id="SVGID_83_" gradientUnits="userSpaceOnUse" x1="16.3633" y1="107.8062" x2="16.3633" y2="106.4863">
        <stop offset="0" style="stop-color:#FFFFFF;stop-opacity:0.2"/>
        <stop offset="1" style="stop-color:#000000;stop-opacity:0.2"/>
      </linearGradient>
      <circle fill="url(#SVGID_83_)" cx="16.363" cy="107.146" r="0.66"/>
    </g>
    <g>
      <linearGradient id="SVGID_84_" gradientUnits="userSpaceOnUse" x1="4.8994" y1="94.0068" x2="6.8447" y2="94.0068">
        <stop offset="0" style="stop-color:#000000;stop-opacity:0.45"/>
        <stop offset="1" style="stop-color:#000000;stop-opacity:0.45"/>
      </linearGradient>
      <path fill="url(#SVGID_84_)" d="M6.845,93.581c0,0.538-0.435,0.973-0.973,0.973s-0.973-0.435-0.973-0.973&#xD;&#xA;&#x9;&#x9;&#x9;&#x9;c0-0.041,0.001-0.081,0.008-0.12c0.058,0.481,0.468,0.853,0.965,0.853s0.907-0.372,0.965-0.853&#xD;&#xA;&#x9;&#x9;&#x9;&#x9;C6.844,93.5,6.845,93.54,6.845,93.581z"/>
      <linearGradient id="SVGID_85_" gradientUnits="userSpaceOnUse" x1="15.3906" y1="94.0068" x2="17.3359" y2="94.0068">
        <stop offset="0" style="stop-color:#000000;stop-opacity:0.45"/>
        <stop offset="1" style="stop-color:#000000;stop-opacity:0.45"/>
      </linearGradient>
      <path fill="url(#SVGID_85_)" d="M17.336,93.581c0,0.538-0.435,0.973-0.973,0.973s-0.973-0.435-0.973-0.973&#xD;&#xA;&#x9;&#x9;&#x9;&#x9;c0-0.041,0.001-0.081,0.008-0.12c0.058,0.481,0.468,0.853,0.965,0.853s0.907-0.372,0.965-0.853&#xD;&#xA;&#x9;&#x9;&#x9;&#x9;C17.335,93.5,17.336,93.54,17.336,93.581z"/>
      <linearGradient id="SVGID_86_" gradientUnits="userSpaceOnUse" x1="4.8994" y1="45.6875" x2="6.8447" y2="45.6875">
        <stop offset="0" style="stop-color:#000000;stop-opacity:0.45"/>
        <stop offset="1" style="stop-color:#000000;stop-opacity:0.45"/>
      </linearGradient>
      <path fill="url(#SVGID_86_)" d="M6.845,45.261c0,0.538-0.435,0.973-0.973,0.973s-0.973-0.435-0.973-0.973&#xD;&#xA;&#x9;&#x9;&#x9;&#x9;c0-0.041,0.001-0.082,0.008-0.12c0.058,0.48,0.468,0.853,0.965,0.853s0.907-0.372,0.965-0.853&#xD;&#xA;&#x9;&#x9;&#x9;&#x9;C6.844,45.18,6.845,45.221,6.845,45.261z"/>
      <linearGradient id="SVGID_87_" gradientUnits="userSpaceOnUse" x1="15.3906" y1="45.6875" x2="17.3359" y2="45.6875">
        <stop offset="0" style="stop-color:#000000;stop-opacity:0.45"/>
        <stop offset="1" style="stop-color:#000000;stop-opacity:0.45"/>
      </linearGradient>
      <path fill="url(#SVGID_87_)" d="M17.336,45.261c0,0.538-0.435,0.973-0.973,0.973s-0.973-0.435-0.973-0.973&#xD;&#xA;&#x9;&#x9;&#x9;&#x9;c0-0.041,0.001-0.082,0.008-0.12c0.058,0.48,0.468,0.853,0.965,0.853s0.907-0.372,0.965-0.853&#xD;&#xA;&#x9;&#x9;&#x9;&#x9;C17.335,45.18,17.336,45.221,17.336,45.261z"/>
      <linearGradient id="SVGID_88_" gradientUnits="userSpaceOnUse" x1="4.8994" y1="100.9102" x2="6.8447" y2="100.9102">
        <stop offset="0" style="stop-color:#000000;stop-opacity:0.45"/>
        <stop offset="1" style="stop-color:#000000;stop-opacity:0.45"/>
      </linearGradient>
      <path fill="url(#SVGID_88_)" d="M6.845,100.483c0,0.538-0.435,0.973-0.973,0.973s-0.973-0.435-0.973-0.973&#xD;&#xA;&#x9;&#x9;&#x9;&#x9;c0-0.041,0.001-0.081,0.008-0.12c0.058,0.48,0.468,0.853,0.965,0.853s0.907-0.373,0.965-0.853&#xD;&#xA;&#x9;&#x9;&#x9;&#x9;C6.844,100.402,6.845,100.443,6.845,100.483z"/>
      <linearGradient id="SVGID_89_" gradientUnits="userSpaceOnUse" x1="15.3906" y1="100.9102" x2="17.3359" y2="100.9102">
        <stop offset="0" style="stop-color:#000000;stop-opacity:0.45"/>
        <stop offset="1" style="stop-color:#000000;stop-opacity:0.45"/>
      </linearGradient>
      <path fill="url(#SVGID_89_)" d="M17.336,100.483c0,0.538-0.435,0.973-0.973,0.973s-0.973-0.435-0.973-0.973&#xD;&#xA;&#x9;&#x9;&#x9;&#x9;c0-0.041,0.001-0.081,0.008-0.12c0.058,0.48,0.468,0.853,0.965,0.853s0.907-0.373,0.965-0.853&#xD;&#xA;&#x9;&#x9;&#x9;&#x9;C17.335,100.402,17.336,100.443,17.336,100.483z"/>
      <linearGradient id="SVGID_90_" gradientUnits="userSpaceOnUse" x1="4.8994" y1="80.2012" x2="6.8447" y2="80.2012">
        <stop offset="0" style="stop-color:#000000;stop-opacity:0.45"/>
        <stop offset="1" style="stop-color:#000000;stop-opacity:0.45"/>
      </linearGradient>
      <path fill="url(#SVGID_90_)" d="M6.845,79.775c0,0.538-0.435,0.973-0.973,0.973s-0.973-0.435-0.973-0.973&#xD;&#xA;&#x9;&#x9;&#x9;&#x9;c0-0.041,0.001-0.081,0.008-0.12c0.058,0.481,0.468,0.853,0.965,0.853s0.907-0.372,0.965-0.853&#xD;&#xA;&#x9;&#x9;&#x9;&#x9;C6.844,79.694,6.845,79.734,6.845,79.775z"/>
      <linearGradient id="SVGID_91_" gradientUnits="userSpaceOnUse" x1="15.3906" y1="80.2012" x2="17.3359" y2="80.2012">
        <stop offset="0" style="stop-color:#000000;stop-opacity:0.45"/>
        <stop offset="1" style="stop-color:#000000;stop-opacity:0.45"/>
      </linearGradient>
      <path fill="url(#SVGID_91_)" d="M17.336,79.775c0,0.538-0.435,0.973-0.973,0.973s-0.973-0.435-0.973-0.973&#xD;&#xA;&#x9;&#x9;&#x9;&#x9;c0-0.041,0.001-0.081,0.008-0.12c0.058,0.481,0.468,0.853,0.965,0.853s0.907-0.372,0.965-0.853&#xD;&#xA;&#x9;&#x9;&#x9;&#x9;C17.335,79.694,17.336,79.734,17.336,79.775z"/>
      <linearGradient id="SVGID_92_" gradientUnits="userSpaceOnUse" x1="4.8994" y1="52.5903" x2="6.8447" y2="52.5903">
        <stop offset="0" style="stop-color:#000000;stop-opacity:0.45"/>
        <stop offset="1" style="stop-color:#000000;stop-opacity:0.45"/>
      </linearGradient>
      <path fill="url(#SVGID_92_)" d="M6.845,52.164c0,0.538-0.435,0.973-0.973,0.973s-0.973-0.435-0.973-0.973&#xD;&#xA;&#x9;&#x9;&#x9;&#x9;c0-0.041,0.001-0.082,0.008-0.12c0.058,0.48,0.468,0.853,0.965,0.853s0.907-0.372,0.965-0.853&#xD;&#xA;&#x9;&#x9;&#x9;&#x9;C6.844,52.083,6.845,52.124,6.845,52.164z"/>
      <linearGradient id="SVGID_93_" gradientUnits="userSpaceOnUse" x1="15.3906" y1="52.5903" x2="17.3359" y2="52.5903">
        <stop offset="0" style="stop-color:#000000;stop-opacity:0.45"/>
        <stop offset="1" style="stop-color:#000000;stop-opacity:0.45"/>
      </linearGradient>
      <path fill="url(#SVGID_93_)" d="M17.336,52.164c0,0.538-0.435,0.973-0.973,0.973s-0.973-0.435-0.973-0.973&#xD;&#xA;&#x9;&#x9;&#x9;&#x9;c0-0.041,0.001-0.082,0.008-0.12c0.058,0.48,0.468,0.853,0.965,0.853s0.907-0.372,0.965-0.853&#xD;&#xA;&#x9;&#x9;&#x9;&#x9;C17.335,52.083,17.336,52.124,17.336,52.164z"/>
      <linearGradient id="SVGID_94_" gradientUnits="userSpaceOnUse" x1="4.8994" y1="59.4932" x2="6.8447" y2="59.4932">
        <stop offset="0" style="stop-color:#000000;stop-opacity:0.45"/>
        <stop offset="1" style="stop-color:#000000;stop-opacity:0.45"/>
      </linearGradient>
      <path fill="url(#SVGID_94_)" d="M6.845,59.066c0,0.539-0.435,0.973-0.973,0.973s-0.973-0.435-0.973-0.973&#xD;&#xA;&#x9;&#x9;&#x9;&#x9;c0-0.04,0.001-0.081,0.008-0.12c0.058,0.481,0.468,0.853,0.965,0.853s0.907-0.372,0.965-0.853&#xD;&#xA;&#x9;&#x9;&#x9;&#x9;C6.844,58.985,6.845,59.026,6.845,59.066z"/>
      <linearGradient id="SVGID_95_" gradientUnits="userSpaceOnUse" x1="15.3906" y1="59.4932" x2="17.3359" y2="59.4932">
        <stop offset="0" style="stop-color:#000000;stop-opacity:0.45"/>
        <stop offset="1" style="stop-color:#000000;stop-opacity:0.45"/>
      </linearGradient>
      <path fill="url(#SVGID_95_)" d="M17.336,59.066c0,0.539-0.435,0.973-0.973,0.973s-0.973-0.435-0.973-0.973&#xD;&#xA;&#x9;&#x9;&#x9;&#x9;c0-0.04,0.001-0.081,0.008-0.12c0.058,0.481,0.468,0.853,0.965,0.853s0.907-0.372,0.965-0.853&#xD;&#xA;&#x9;&#x9;&#x9;&#x9;C17.335,58.985,17.336,59.026,17.336,59.066z"/>
      <linearGradient id="SVGID_96_" gradientUnits="userSpaceOnUse" x1="4.8994" y1="66.3955" x2="6.8447" y2="66.3955">
        <stop offset="0" style="stop-color:#000000;stop-opacity:0.45"/>
        <stop offset="1" style="stop-color:#000000;stop-opacity:0.45"/>
      </linearGradient>
      <path fill="url(#SVGID_96_)" d="M6.845,65.969c0,0.539-0.435,0.973-0.973,0.973s-0.973-0.435-0.973-0.973&#xD;&#xA;&#x9;&#x9;&#x9;&#x9;c0-0.041,0.001-0.081,0.008-0.12c0.058,0.481,0.468,0.853,0.965,0.853s0.907-0.372,0.965-0.853&#xD;&#xA;&#x9;&#x9;&#x9;&#x9;C6.844,65.888,6.845,65.929,6.845,65.969z"/>
      <linearGradient id="SVGID_97_" gradientUnits="userSpaceOnUse" x1="15.3906" y1="66.3955" x2="17.3359" y2="66.3955">
        <stop offset="0" style="stop-color:#000000;stop-opacity:0.45"/>
        <stop offset="1" style="stop-color:#000000;stop-opacity:0.45"/>
      </linearGradient>
      <path fill="url(#SVGID_97_)" d="M17.336,65.969c0,0.539-0.435,0.973-0.973,0.973s-0.973-0.435-0.973-0.973&#xD;&#xA;&#x9;&#x9;&#x9;&#x9;c0-0.041,0.001-0.081,0.008-0.12c0.058,0.481,0.468,0.853,0.965,0.853s0.907-0.372,0.965-0.853&#xD;&#xA;&#x9;&#x9;&#x9;&#x9;C17.335,65.888,17.336,65.929,17.336,65.969z"/>
      <linearGradient id="SVGID_98_" gradientUnits="userSpaceOnUse" x1="4.8994" y1="73.2988" x2="6.8447" y2="73.2988">
        <stop offset="0" style="stop-color:#000000;stop-opacity:0.45"/>
        <stop offset="1" style="stop-color:#000000;stop-opacity:0.45"/>
      </linearGradient>
      <path fill="url(#SVGID_98_)" d="M6.845,72.872c0,0.538-0.435,0.973-0.973,0.973s-0.973-0.435-0.973-0.973&#xD;&#xA;&#x9;&#x9;&#x9;&#x9;c0-0.041,0.001-0.081,0.008-0.12c0.058,0.481,0.468,0.853,0.965,0.853s0.907-0.372,0.965-0.853&#xD;&#xA;&#x9;&#x9;&#x9;&#x9;C6.844,72.791,6.845,72.832,6.845,72.872z"/>
      <linearGradient id="SVGID_99_" gradientUnits="userSpaceOnUse" x1="15.3906" y1="73.2988" x2="17.3359" y2="73.2988">
        <stop offset="0" style="stop-color:#000000;stop-opacity:0.45"/>
        <stop offset="1" style="stop-color:#000000;stop-opacity:0.45"/>
      </linearGradient>
      <path fill="url(#SVGID_99_)" d="M17.336,72.872c0,0.538-0.435,0.973-0.973,0.973s-0.973-0.435-0.973-0.973&#xD;&#xA;&#x9;&#x9;&#x9;&#x9;c0-0.041,0.001-0.081,0.008-0.12c0.058,0.481,0.468,0.853,0.965,0.853s0.907-0.372,0.965-0.853&#xD;&#xA;&#x9;&#x9;&#x9;&#x9;C17.335,72.791,17.336,72.832,17.336,72.872z"/>
      <linearGradient id="SVGID_100_" gradientUnits="userSpaceOnUse" x1="4.8994" y1="87.1045" x2="6.8447" y2="87.1045">
        <stop offset="0" style="stop-color:#000000;stop-opacity:0.45"/>
        <stop offset="1" style="stop-color:#000000;stop-opacity:0.45"/>
      </linearGradient>
      <path fill="url(#SVGID_100_)" d="M6.845,86.678c0,0.538-0.435,0.973-0.973,0.973s-0.973-0.435-0.973-0.973&#xD;&#xA;&#x9;&#x9;&#x9;&#x9;c0-0.041,0.001-0.081,0.008-0.12c0.058,0.48,0.468,0.853,0.965,0.853s0.907-0.373,0.965-0.853&#xD;&#xA;&#x9;&#x9;&#x9;&#x9;C6.844,86.597,6.845,86.637,6.845,86.678z"/>
      <linearGradient id="SVGID_101_" gradientUnits="userSpaceOnUse" x1="15.3906" y1="87.1045" x2="17.3359" y2="87.1045">
        <stop offset="0" style="stop-color:#000000;stop-opacity:0.45"/>
        <stop offset="1" style="stop-color:#000000;stop-opacity:0.45"/>
      </linearGradient>
      <path fill="url(#SVGID_101_)" d="M17.336,86.678c0,0.538-0.435,0.973-0.973,0.973s-0.973-0.435-0.973-0.973&#xD;&#xA;&#x9;&#x9;&#x9;&#x9;c0-0.041,0.001-0.081,0.008-0.12c0.058,0.48,0.468,0.853,0.965,0.853s0.907-0.373,0.965-0.853&#xD;&#xA;&#x9;&#x9;&#x9;&#x9;C17.335,86.597,17.336,86.637,17.336,86.678z"/>
      <linearGradient id="SVGID_102_" gradientUnits="userSpaceOnUse" x1="4.8994" y1="107.8125" x2="6.8447" y2="107.8125">
        <stop offset="0" style="stop-color:#000000;stop-opacity:0.45"/>
        <stop offset="1" style="stop-color:#000000;stop-opacity:0.45"/>
      </linearGradient>
      <path fill="url(#SVGID_102_)" d="M6.845,107.386c0,0.538-0.435,0.973-0.973,0.973s-0.973-0.435-0.973-0.973&#xD;&#xA;&#x9;&#x9;&#x9;&#x9;c0-0.041,0.001-0.081,0.008-0.12c0.058,0.48,0.468,0.853,0.965,0.853s0.907-0.373,0.965-0.853&#xD;&#xA;&#x9;&#x9;&#x9;&#x9;C6.844,107.305,6.845,107.346,6.845,107.386z"/>
      <linearGradient id="SVGID_103_" gradientUnits="userSpaceOnUse" x1="15.3906" y1="107.8125" x2="17.3359" y2="107.8125">
        <stop offset="0" style="stop-color:#000000;stop-opacity:0.45"/>
        <stop offset="1" style="stop-color:#000000;stop-opacity:0.45"/>
      </linearGradient>
      <path fill="url(#SVGID_103_)" d="M17.336,107.386c0,0.538-0.435,0.973-0.973,0.973s-0.973-0.435-0.973-0.973&#xD;&#xA;&#x9;&#x9;&#x9;&#x9;c0-0.041,0.001-0.081,0.008-0.12c0.058,0.48,0.468,0.853,0.965,0.853s0.907-0.373,0.965-0.853&#xD;&#xA;&#x9;&#x9;&#x9;&#x9;C17.335,107.305,17.336,107.346,17.336,107.386z"/>
    </g>
  </g>
</svg>