<svg version="1.2" baseProfile="tiny" viewBox="0 0 22.261 152.0" xmlns:xlink="http://www.w3.org/1999/xlink" xmlns="http://www.w3.org/2000/svg">
<path style="fill:#ffffff;stroke:#333333;stroke-width:0.3572;" d="M11.354,106.6326L12.539,106.6326M11.354,99.8473L12.539,99.8473M11.72,105.2767L12.5381,105.2767M11.72,103.9194L12.5381,103.9194M11.72,102.5635L12.5381,102.5635M11.72,101.2046L12.5381,101.2046M11.354,93.0635L12.539,93.0635M11.72,98.4914L12.5381,98.4914M11.72,97.1341L12.5381,97.1341M11.72,95.7767L12.5381,95.7767M11.72,94.4194L12.5381,94.4194M11.354,86.2767L12.539,86.2767M11.72,91.7062L12.5381,91.7062M11.72,90.3473L12.5381,90.3473M11.72,88.9914L12.5381,88.9914M11.72,87.6356L12.5381,87.6356M11.354,79.4914L12.539,79.4914M11.72,84.9209L12.5381,84.9209M11.72,83.5635L12.5381,83.5635M11.72,82.2062L12.5381,82.2062M11.72,80.8488L12.5381,80.8488M11.354,72.7062L12.539,72.7062M11.72,78.1356L12.5381,78.1356M11.72,76.7782L12.5381,76.7782M11.72,75.4194L12.5381,75.4194M11.72,74.0635L12.5381,74.0635M11.354,65.9209L12.539,65.9209M11.72,71.3503L12.5381,71.3503M11.72,69.9914L12.5381,69.9914M11.72,68.6356L12.5381,68.6356M11.72,67.2782L12.5381,67.2782M11.354,59.1356L12.539,59.1356M11.72,64.5635L12.5381,64.5635M11.72,63.2077L12.5381,63.2077M11.72,61.8503L12.5381,61.8503M11.72,60.493L12.5381,60.493M11.354,52.3503L12.539,52.3503M11.72,57.7798L12.5381,57.7798M11.72,56.4209L12.5381,56.4209M11.72,55.065L12.5381,55.065M11.72,53.7077L12.5381,53.7077M11.354,45.565L12.539,45.565M11.72,50.9945L12.5381,50.9945M11.72,49.6371L12.5381,49.6371M11.72,48.2798L12.5381,48.2798M11.72,46.9224L12.5381,46.9224"/>
</svg>