<svg version="1.2" baseProfile="tiny" id="EdgeSVG_c28KQ" x="0px" y="0px" width="22.261px" height="152px" viewBox="0 0 22.261 152" xmlns:xlink="http://www.w3.org/1999/xlink" xmlns="http://www.w3.org/2000/svg">
  <linearGradient id="SVGID_153_" gradientUnits="userSpaceOnUse" x1="11.1172" y1="19.1279" x2="11.1172" y2="35.6558">
    <stop offset="0" style="stop-color:#FFFFFF;stop-opacity:0.35"/>
    <stop offset="1" style="stop-color:#000000;stop-opacity:0.35"/>
  </linearGradient>
  <path fill="url(#SVGID_153_)" d="M19.508,25.224c-0.449-1.381-1.814-2.21-3.207-2.031c-0.632-0.689-1.399-1.249-2.261-1.644&#xD;&#xA;&#x9;&#x9;c-0.26-1.378-1.47-2.421-2.923-2.421s-2.662,1.043-2.922,2.421c-0.862,0.395-1.63,0.955-2.262,1.644&#xD;&#xA;&#x9;&#x9;c-1.391-0.179-2.756,0.65-3.206,2.033c-0.449,1.382,0.169,2.854,1.399,3.527c0.109,0.958,0.41,1.857,0.863,2.659&#xD;&#xA;&#x9;&#x9;c-0.6,1.268-0.234,2.822,0.942,3.676c1.176,0.855,2.767,0.723,3.786-0.239c0.452,0.091,0.92,0.139,1.398,0.139&#xD;&#xA;&#x9;&#x9;c0.479,0,0.946-0.048,1.398-0.139c1.021,0.961,2.611,1.094,3.788,0.239c1.175-0.854,1.541-2.409,0.94-3.676&#xD;&#xA;&#x9;&#x9;c0.454-0.802,0.755-1.701,0.863-2.659C19.339,28.08,19.958,26.606,19.508,25.224z M17.996,28.549l-0.105,0.058l-0.013,0.12&#xD;&#xA;&#x9;&#x9;c-0.104,0.908-0.385,1.773-0.836,2.569L16.983,31.4l0.051,0.109c0.563,1.19,0.198,2.616-0.867,3.389&#xD;&#xA;&#x9;&#x9;c-0.473,0.343-1.028,0.524-1.609,0.524c-0.353,0-0.694-0.066-1.014-0.192s-0.613-0.312-0.869-0.552l-0.087-0.083l-0.117,0.024&#xD;&#xA;&#x9;&#x9;c-0.444,0.089-0.898,0.135-1.354,0.135c-0.453,0-0.908-0.045-1.353-0.135l-0.118-0.024L9.56,34.679&#xD;&#xA;&#x9;&#x9;c-0.51,0.48-1.178,0.745-1.882,0.745c-0.581,0-1.138-0.181-1.608-0.523C5.003,34.125,4.638,32.7,5.2,31.51L5.251,31.4l-0.059-0.104&#xD;&#xA;&#x9;&#x9;c-0.45-0.795-0.731-1.661-0.834-2.57l-0.014-0.12l-0.106-0.057c-1.155-0.632-1.697-2-1.29-3.252&#xD;&#xA;&#x9;&#x9;C3.316,24.162,4.365,23.4,5.557,23.4c0.115,0,0.232,0.008,0.348,0.022l0.118,0.016l0.081-0.089c0.62-0.674,1.355-1.208,2.188-1.589&#xD;&#xA;&#x9;&#x9;L8.4,21.71l0.022-0.118C8.666,20.3,9.8,19.36,11.117,19.36c1.318,0,2.451,0.94,2.694,2.232l0.023,0.118l0.109,0.05&#xD;&#xA;&#x9;&#x9;c0.831,0.381,1.568,0.916,2.187,1.589l0.081,0.089l0.119-0.016c0.115-0.014,0.232-0.022,0.349-0.022&#xD;&#xA;&#x9;&#x9;c1.191,0,2.238,0.762,2.607,1.895C19.694,26.549,19.151,27.917,17.996,28.549z"/>
  <linearGradient id="SVGID_154_" gradientUnits="userSpaceOnUse" x1="11.1172" y1="19.3599" x2="11.1172" y2="35.4233">
    <stop offset="0" style="stop-color:#FFFFFF;stop-opacity:0.2"/>
    <stop offset="1" style="stop-color:#000000;stop-opacity:0.2"/>
  </linearGradient>
  <path fill="url(#SVGID_154_)" d="M19.287,25.295c-0.369-1.133-1.416-1.895-2.607-1.895c-0.116,0-0.233,0.008-0.349,0.022&#xD;&#xA;&#x9;&#x9;l-0.119,0.016l-0.081-0.089c-0.618-0.674-1.355-1.208-2.187-1.589l-0.109-0.05l-0.023-0.118c-0.243-1.292-1.376-2.232-2.694-2.232&#xD;&#xA;&#x9;&#x9;c-1.317,0-2.451,0.94-2.694,2.232L8.4,21.71l-0.109,0.05c-0.832,0.381-1.567,0.916-2.188,1.589l-0.081,0.089l-0.118-0.016&#xD;&#xA;&#x9;&#x9;C5.789,23.408,5.672,23.4,5.557,23.4c-1.191,0-2.24,0.762-2.608,1.896c-0.407,1.252,0.135,2.62,1.29,3.252l0.106,0.057l0.014,0.12&#xD;&#xA;&#x9;&#x9;c0.103,0.91,0.384,1.775,0.834,2.57L5.251,31.4L5.2,31.51C4.638,32.7,5.003,34.125,6.069,34.9c0.471,0.342,1.027,0.523,1.608,0.523&#xD;&#xA;&#x9;&#x9;c0.704,0,1.372-0.264,1.882-0.745l0.087-0.083l0.118,0.024c0.444,0.089,0.899,0.135,1.353,0.135c0.455,0,0.909-0.045,1.354-0.135&#xD;&#xA;&#x9;&#x9;l0.117-0.024l0.087,0.083c0.256,0.24,0.55,0.426,0.869,0.552s0.661,0.192,1.014,0.192c0.581,0,1.137-0.181,1.609-0.524&#xD;&#xA;&#x9;&#x9;c1.065-0.773,1.431-2.199,0.867-3.389L16.983,31.4l0.059-0.104c0.451-0.795,0.732-1.661,0.836-2.569l0.013-0.12l0.105-0.058&#xD;&#xA;&#x9;&#x9;C19.151,27.917,19.694,26.549,19.287,25.295z M11.117,33.955c-3.316,0-6.004-2.689-6.004-6.004c0-3.316,2.688-6.005,6.004-6.005&#xD;&#xA;&#x9;&#x9;s6.004,2.689,6.004,6.005C17.121,31.266,14.434,33.955,11.117,33.955z"/>
  <linearGradient id="SVGID_155_" gradientUnits="userSpaceOnUse" x1="11.1172" y1="33.9551" x2="11.1172" y2="21.9453">
    <stop offset="0" style="stop-color:#FFFFFF;stop-opacity:0.05"/>
    <stop offset="1" style="stop-color:#000000;stop-opacity:0.05"/>
  </linearGradient>
  <path fill="url(#SVGID_155_)" d="M11.117,21.945c-3.316,0-6.004,2.689-6.004,6.005c0,3.315,2.688,6.004,6.004,6.004&#xD;&#xA;&#x9;&#x9;s6.004-2.689,6.004-6.004C17.121,24.634,14.434,21.945,11.117,21.945z M11.117,32.244c-2.371,0-4.293-1.922-4.293-4.293&#xD;&#xA;&#x9;&#x9;c0-2.372,1.922-4.294,4.293-4.294s4.293,1.922,4.293,4.294C15.41,30.322,13.488,32.244,11.117,32.244z"/>
  <linearGradient id="SVGID_156_" gradientUnits="userSpaceOnUse" x1="11.1172" y1="32.2441" x2="11.1172" y2="23.6567">
    <stop offset="0" style="stop-color:#FFFFFF;stop-opacity:0.25"/>
    <stop offset="1" style="stop-color:#000000;stop-opacity:0.35"/>
  </linearGradient>
  <path fill="url(#SVGID_156_)" d="M11.117,23.657c-2.371,0-4.293,1.922-4.293,4.294c0,2.371,1.922,4.293,4.293,4.293&#xD;&#xA;&#x9;&#x9;s4.293-1.922,4.293-4.293C15.41,25.579,13.488,23.657,11.117,23.657z M11.117,31.813c-2.133,0-3.861-1.729-3.861-3.862&#xD;&#xA;&#x9;&#x9;c0-2.133,1.729-3.863,3.861-3.863s3.862,1.73,3.862,3.863C14.979,30.083,13.25,31.813,11.117,31.813z"/>
  <linearGradient id="SVGID_157_" gradientUnits="userSpaceOnUse" x1="11.1172" y1="24.0879" x2="11.1172" y2="31.8125">
    <stop offset="0" style="stop-color:#000000;stop-opacity:0.1"/>
    <stop offset="1" style="stop-color:#000000;stop-opacity:0.3"/>
  </linearGradient>
  <path fill="url(#SVGID_157_)" d="M11.117,24.088c-2.133,0-3.861,1.73-3.861,3.863c0,2.132,1.729,3.862,3.861,3.862&#xD;&#xA;&#x9;&#x9;s3.862-1.729,3.862-3.862C14.979,25.818,13.25,24.088,11.117,24.088z M11.117,30.232c-1.26,0-2.281-1.022-2.281-2.282&#xD;&#xA;&#x9;&#x9;c0-1.261,1.021-2.283,2.281-2.283c1.261,0,2.283,1.022,2.283,2.283C13.4,29.21,12.378,30.232,11.117,30.232z"/>
  <linearGradient id="SVGID_158_" gradientUnits="userSpaceOnUse" x1="11.1182" y1="30.2324" x2="11.1182" y2="25.668">
    <stop offset="0" style="stop-color:#FFFFFF;stop-opacity:0.1"/>
    <stop offset="0.0309" style="stop-color:#E6E6E6;stop-opacity:0.1093"/>
    <stop offset="0.0971" style="stop-color:#B6B6B6;stop-opacity:0.1291"/>
    <stop offset="0.169" style="stop-color:#8B8B8B;stop-opacity:0.1507"/>
    <stop offset="0.2449" style="stop-color:#656565;stop-opacity:0.1735"/>
    <stop offset="0.3259" style="stop-color:#464646;stop-opacity:0.1978"/>
    <stop offset="0.4134" style="stop-color:#2C2C2C;stop-opacity:0.224"/>
    <stop offset="0.5101" style="stop-color:#181818;stop-opacity:0.253"/>
    <stop offset="0.6208" style="stop-color:#0B0B0B;stop-opacity:0.2862"/>
    <stop offset="0.7577" style="stop-color:#020202;stop-opacity:0.3273"/>
    <stop offset="1" style="stop-color:#000000;stop-opacity:0.4"/>
  </linearGradient>
  <path fill="url(#SVGID_158_)" d="M11.117,25.668c-1.26,0-2.281,1.022-2.281,2.283c0,1.26,1.021,2.282,2.281,2.282&#xD;&#xA;&#x9;&#x9;c1.261,0,2.283-1.022,2.283-2.282C13.4,26.69,12.378,25.668,11.117,25.668z M11.117,29.958c-1.107,0-2.007-0.899-2.007-2.007&#xD;&#xA;&#x9;&#x9;c0-1.109,0.899-2.007,2.007-2.007c1.109,0,2.007,0.898,2.007,2.007C13.124,29.059,12.227,29.958,11.117,29.958z"/>
  <linearGradient id="SVGID_159_" gradientUnits="userSpaceOnUse" x1="11.1172" y1="25.9438" x2="11.1172" y2="29.9575">
    <stop offset="0" style="stop-color:#000000;stop-opacity:0.8"/>
    <stop offset="1" style="stop-color:#000000;stop-opacity:0.8"/>
  </linearGradient>
  <path fill="url(#SVGID_159_)" d="M11.117,25.944c-1.107,0-2.007,0.898-2.007,2.007c0,1.108,0.899,2.007,2.007,2.007&#xD;&#xA;&#x9;&#x9;c1.109,0,2.007-0.899,2.007-2.007C13.124,26.842,12.227,25.944,11.117,25.944z M11.117,29.802c-1.023,0-1.852-0.83-1.852-1.852&#xD;&#xA;&#x9;&#x9;c0-1.023,0.828-1.853,1.852-1.853s1.853,0.83,1.853,1.853C12.97,28.973,12.141,29.802,11.117,29.802z"/>
  <linearGradient id="SVGID_160_" gradientUnits="userSpaceOnUse" x1="11.1172" y1="26.0981" x2="11.1172" y2="29.8022">
    <stop offset="0" style="stop-color:#FFFFFF;stop-opacity:0.3"/>
    <stop offset="1" style="stop-color:#000000;stop-opacity:0.35"/>
  </linearGradient>
  <path fill="url(#SVGID_160_)" d="M11.117,26.098c-1.023,0-1.852,0.83-1.852,1.853c0,1.022,0.828,1.852,1.852,1.852&#xD;&#xA;&#x9;&#x9;s1.853-0.83,1.853-1.852C12.97,26.928,12.141,26.098,11.117,26.098z M11.117,29.475c-0.842,0-1.524-0.682-1.524-1.524&#xD;&#xA;&#x9;&#x9;s0.683-1.525,1.524-1.525s1.525,0.683,1.525,1.525S11.959,29.475,11.117,29.475z"/>
  <linearGradient id="SVGID_161_" gradientUnits="userSpaceOnUse" x1="11.1172" y1="26.4253" x2="11.1172" y2="29.4751">
    <stop offset="0" style="stop-color:#FFFFFF;stop-opacity:0.1"/>
    <stop offset="1" style="stop-color:#000000;stop-opacity:0.1"/>
  </linearGradient>
  <circle fill="url(#SVGID_161_)" cx="11.118" cy="27.951" r="1.525"/>
  <linearGradient id="SVGID_162_" gradientUnits="userSpaceOnUse" x1="11.1172" y1="116.1802" x2="11.1172" y2="132.7085">
    <stop offset="0" style="stop-color:#FFFFFF;stop-opacity:0.35"/>
    <stop offset="1" style="stop-color:#000000;stop-opacity:0.35"/>
  </linearGradient>
  <path fill="url(#SVGID_162_)" d="M19.508,122.276c-0.449-1.382-1.814-2.21-3.207-2.031c-0.632-0.689-1.399-1.25-2.261-1.644&#xD;&#xA;&#x9;&#x9;c-0.26-1.378-1.47-2.421-2.923-2.421s-2.662,1.043-2.922,2.421c-0.862,0.395-1.63,0.955-2.262,1.644&#xD;&#xA;&#x9;&#x9;c-1.391-0.179-2.756,0.649-3.206,2.032c-0.449,1.383,0.169,2.854,1.399,3.527c0.109,0.958,0.41,1.857,0.863,2.659&#xD;&#xA;&#x9;&#x9;c-0.6,1.268-0.234,2.822,0.942,3.676c1.176,0.854,2.767,0.723,3.786-0.239c0.452,0.092,0.92,0.139,1.398,0.139&#xD;&#xA;&#x9;&#x9;c0.479,0,0.946-0.047,1.398-0.139c1.021,0.962,2.611,1.094,3.788,0.239c1.175-0.854,1.541-2.409,0.94-3.676&#xD;&#xA;&#x9;&#x9;c0.454-0.802,0.755-1.701,0.863-2.659C19.339,125.132,19.958,123.659,19.508,122.276z M17.996,125.602l-0.105,0.059l-0.013,0.119&#xD;&#xA;&#x9;&#x9;c-0.104,0.908-0.385,1.773-0.836,2.569l-0.059,0.104l0.051,0.109c0.563,1.189,0.198,2.615-0.867,3.389&#xD;&#xA;&#x9;&#x9;c-0.473,0.344-1.028,0.524-1.609,0.524c-0.353,0-0.694-0.065-1.014-0.192c-0.319-0.126-0.613-0.313-0.869-0.552l-0.087-0.083&#xD;&#xA;&#x9;&#x9;l-0.117,0.024c-0.444,0.09-0.898,0.135-1.354,0.135c-0.453,0-0.908-0.045-1.353-0.135l-0.118-0.024l-0.087,0.083&#xD;&#xA;&#x9;&#x9;c-0.51,0.479-1.178,0.744-1.882,0.744c-0.581,0-1.138-0.181-1.608-0.523c-1.066-0.774-1.432-2.2-0.869-3.39l0.051-0.109&#xD;&#xA;&#x9;&#x9;l-0.059-0.104c-0.45-0.796-0.731-1.661-0.834-2.57l-0.014-0.12l-0.106-0.057c-1.155-0.632-1.697-2-1.29-3.253&#xD;&#xA;&#x9;&#x9;c0.368-1.134,1.417-1.896,2.608-1.896c0.115,0,0.232,0.008,0.348,0.022l0.118,0.016l0.081-0.089&#xD;&#xA;&#x9;&#x9;c0.62-0.674,1.355-1.208,2.188-1.589l0.109-0.05l0.022-0.119c0.243-1.292,1.377-2.231,2.694-2.231c1.318,0,2.451,0.939,2.694,2.231&#xD;&#xA;&#x9;&#x9;l0.023,0.119l0.109,0.05c0.831,0.38,1.568,0.915,2.187,1.589l0.081,0.089l0.119-0.016c0.115-0.014,0.232-0.022,0.349-0.022&#xD;&#xA;&#x9;&#x9;c1.191,0,2.238,0.762,2.607,1.895C19.694,123.602,19.151,124.97,17.996,125.602z"/>
  <linearGradient id="SVGID_163_" gradientUnits="userSpaceOnUse" x1="11.1172" y1="116.4126" x2="11.1172" y2="132.4761">
    <stop offset="0" style="stop-color:#FFFFFF;stop-opacity:0.2"/>
    <stop offset="1" style="stop-color:#000000;stop-opacity:0.2"/>
  </linearGradient>
  <path fill="url(#SVGID_163_)" d="M19.287,122.348c-0.369-1.133-1.416-1.895-2.607-1.895c-0.116,0-0.233,0.008-0.349,0.022&#xD;&#xA;&#x9;&#x9;l-0.119,0.016l-0.081-0.089c-0.618-0.674-1.355-1.208-2.187-1.589l-0.109-0.05l-0.023-0.119c-0.243-1.292-1.376-2.231-2.694-2.231&#xD;&#xA;&#x9;&#x9;c-1.317,0-2.451,0.939-2.694,2.231L8.4,118.763l-0.109,0.05c-0.832,0.38-1.567,0.915-2.188,1.589l-0.081,0.089l-0.118-0.016&#xD;&#xA;&#x9;&#x9;c-0.115-0.014-0.232-0.022-0.348-0.022c-1.191,0-2.24,0.762-2.608,1.896c-0.407,1.253,0.135,2.621,1.29,3.253l0.106,0.057&#xD;&#xA;&#x9;&#x9;l0.014,0.12c0.103,0.909,0.384,1.774,0.834,2.57l0.059,0.104L5.2,128.563c-0.563,1.189-0.197,2.615,0.869,3.39&#xD;&#xA;&#x9;&#x9;c0.471,0.343,1.027,0.523,1.608,0.523c0.704,0,1.372-0.265,1.882-0.744l0.087-0.083l0.118,0.024&#xD;&#xA;&#x9;&#x9;c0.444,0.09,0.899,0.135,1.353,0.135c0.455,0,0.909-0.045,1.354-0.135l0.117-0.024l0.087,0.083c0.256,0.239,0.55,0.426,0.869,0.552&#xD;&#xA;&#x9;&#x9;c0.319,0.127,0.661,0.192,1.014,0.192c0.581,0,1.137-0.181,1.609-0.524c1.065-0.773,1.431-2.199,0.867-3.389l-0.051-0.109&#xD;&#xA;&#x9;&#x9;l0.059-0.104c0.451-0.796,0.732-1.661,0.836-2.569l0.013-0.119l0.105-0.059C19.151,124.97,19.694,123.602,19.287,122.348z&#xD;&#xA;&#x9;&#x9; M11.117,131.007c-3.316,0-6.004-2.688-6.004-6.004c0-3.316,2.688-6.005,6.004-6.005s6.004,2.688,6.004,6.005&#xD;&#xA;&#x9;&#x9;C17.121,128.318,14.434,131.007,11.117,131.007z"/>
  <linearGradient id="SVGID_164_" gradientUnits="userSpaceOnUse" x1="11.1172" y1="131.0068" x2="11.1172" y2="118.9985">
    <stop offset="0" style="stop-color:#FFFFFF;stop-opacity:0.05"/>
    <stop offset="1" style="stop-color:#000000;stop-opacity:0.05"/>
  </linearGradient>
  <path fill="url(#SVGID_164_)" d="M11.117,118.998c-3.316,0-6.004,2.688-6.004,6.005c0,3.315,2.688,6.004,6.004,6.004&#xD;&#xA;&#x9;&#x9;s6.004-2.688,6.004-6.004C17.121,121.687,14.434,118.998,11.117,118.998z M11.117,129.297c-2.371,0-4.293-1.923-4.293-4.294&#xD;&#xA;&#x9;&#x9;c0-2.372,1.922-4.294,4.293-4.294s4.293,1.922,4.293,4.294C15.41,127.374,13.488,129.297,11.117,129.297z"/>
  <linearGradient id="SVGID_165_" gradientUnits="userSpaceOnUse" x1="11.1172" y1="129.2969" x2="11.1172" y2="120.7095">
    <stop offset="0" style="stop-color:#FFFFFF;stop-opacity:0.25"/>
    <stop offset="1" style="stop-color:#000000;stop-opacity:0.35"/>
  </linearGradient>
  <path fill="url(#SVGID_165_)" d="M11.117,120.709c-2.371,0-4.293,1.922-4.293,4.294c0,2.371,1.922,4.294,4.293,4.294&#xD;&#xA;&#x9;&#x9;s4.293-1.923,4.293-4.294C15.41,122.631,13.488,120.709,11.117,120.709z M11.117,128.865c-2.133,0-3.861-1.729-3.861-3.862&#xD;&#xA;&#x9;&#x9;s1.729-3.862,3.861-3.862s3.862,1.729,3.862,3.862S13.25,128.865,11.117,128.865z"/>
  <linearGradient id="SVGID_166_" gradientUnits="userSpaceOnUse" x1="11.1172" y1="121.1406" x2="11.1172" y2="128.8652">
    <stop offset="0" style="stop-color:#000000;stop-opacity:0.1"/>
    <stop offset="1" style="stop-color:#000000;stop-opacity:0.3"/>
  </linearGradient>
  <path fill="url(#SVGID_166_)" d="M11.117,121.141c-2.133,0-3.861,1.729-3.861,3.862s1.729,3.862,3.861,3.862&#xD;&#xA;&#x9;&#x9;s3.862-1.729,3.862-3.862S13.25,121.141,11.117,121.141z M11.117,127.285c-1.26,0-2.281-1.022-2.281-2.282&#xD;&#xA;&#x9;&#x9;c0-1.261,1.021-2.282,2.281-2.282c1.261,0,2.283,1.021,2.283,2.282C13.4,126.263,12.378,127.285,11.117,127.285z"/>
  <linearGradient id="SVGID_167_" gradientUnits="userSpaceOnUse" x1="11.1182" y1="127.2852" x2="11.1182" y2="122.7207">
    <stop offset="0" style="stop-color:#FFFFFF;stop-opacity:0.1"/>
    <stop offset="0.0309" style="stop-color:#E6E6E6;stop-opacity:0.1093"/>
    <stop offset="0.0971" style="stop-color:#B6B6B6;stop-opacity:0.1291"/>
    <stop offset="0.169" style="stop-color:#8B8B8B;stop-opacity:0.1507"/>
    <stop offset="0.2449" style="stop-color:#656565;stop-opacity:0.1735"/>
    <stop offset="0.3259" style="stop-color:#464646;stop-opacity:0.1978"/>
    <stop offset="0.4134" style="stop-color:#2C2C2C;stop-opacity:0.224"/>
    <stop offset="0.5101" style="stop-color:#181818;stop-opacity:0.253"/>
    <stop offset="0.6208" style="stop-color:#0B0B0B;stop-opacity:0.2862"/>
    <stop offset="0.7577" style="stop-color:#020202;stop-opacity:0.3273"/>
    <stop offset="1" style="stop-color:#000000;stop-opacity:0.4"/>
  </linearGradient>
  <path fill="url(#SVGID_167_)" d="M11.117,122.721c-1.26,0-2.281,1.021-2.281,2.282c0,1.26,1.021,2.282,2.281,2.282&#xD;&#xA;&#x9;&#x9;c1.261,0,2.283-1.022,2.283-2.282C13.4,123.742,12.378,122.721,11.117,122.721z M11.117,127.01c-1.107,0-2.007-0.898-2.007-2.007&#xD;&#xA;&#x9;&#x9;s0.899-2.007,2.007-2.007c1.109,0,2.007,0.898,2.007,2.007S12.227,127.01,11.117,127.01z"/>
  <linearGradient id="SVGID_168_" gradientUnits="userSpaceOnUse" x1="9.1104" y1="125.0029" x2="13.124" y2="125.0029">
    <stop offset="0" style="stop-color:#000000;stop-opacity:0.8"/>
    <stop offset="1" style="stop-color:#000000;stop-opacity:0.8"/>
  </linearGradient>
  <path fill="url(#SVGID_168_)" d="M11.117,122.996c-1.107,0-2.007,0.898-2.007,2.007s0.899,2.007,2.007,2.007&#xD;&#xA;&#x9;&#x9;c1.109,0,2.007-0.898,2.007-2.007S12.227,122.996,11.117,122.996z M11.117,126.854c-1.023,0-1.852-0.829-1.852-1.852&#xD;&#xA;&#x9;&#x9;s0.828-1.853,1.852-1.853s1.853,0.83,1.853,1.853S12.141,126.854,11.117,126.854z"/>
  <linearGradient id="SVGID_169_" gradientUnits="userSpaceOnUse" x1="11.1172" y1="123.1504" x2="11.1172" y2="126.8545">
    <stop offset="0" style="stop-color:#FFFFFF;stop-opacity:0.3"/>
    <stop offset="1" style="stop-color:#000000;stop-opacity:0.35"/>
  </linearGradient>
  <path fill="url(#SVGID_169_)" d="M11.117,123.15c-1.023,0-1.852,0.83-1.852,1.853s0.828,1.852,1.852,1.852s1.853-0.829,1.853-1.852&#xD;&#xA;&#x9;&#x9;S12.141,123.15,11.117,123.15z M11.117,126.527c-0.842,0-1.524-0.682-1.524-1.524c0-0.842,0.683-1.525,1.524-1.525&#xD;&#xA;&#x9;&#x9;s1.525,0.684,1.525,1.525C12.643,125.846,11.959,126.527,11.117,126.527z"/>
  <linearGradient id="SVGID_170_" gradientUnits="userSpaceOnUse" x1="11.1172" y1="123.4775" x2="11.1172" y2="126.5273">
    <stop offset="0" style="stop-color:#FFFFFF;stop-opacity:0.1"/>
    <stop offset="1" style="stop-color:#000000;stop-opacity:0.1"/>
  </linearGradient>
  <circle fill="url(#SVGID_170_)" cx="11.118" cy="125.003" r="1.525"/>
  <linearGradient id="SVGID_171_" gradientUnits="userSpaceOnUse" x1="7.8457" y1="40.5488" x2="14.3887" y2="40.5488">
    <stop offset="0" style="stop-color:#000000;stop-opacity:0.45"/>
    <stop offset="1" style="stop-color:#000000;stop-opacity:0.45"/>
  </linearGradient>
  <path fill="url(#SVGID_171_)" d="M14.389,40.277H7.846v0.543c0,0,0.822-0.206,3.284-0.206c2.463,0,3.259,0.206,3.259,0.206V40.277z&#xD;&#xA;&#x9;&#x9;"/>
  <linearGradient id="SVGID_172_" gradientUnits="userSpaceOnUse" x1="7.1123" y1="35.9146" x2="15.123" y2="35.9146">
    <stop offset="0" style="stop-color:#000000;stop-opacity:0.45"/>
    <stop offset="1" style="stop-color:#000000;stop-opacity:0.45"/>
  </linearGradient>
  <path fill="url(#SVGID_172_)" d="M15.123,35.601v1.327c-0.924,0.179-1.9-0.09-2.606-0.753c-0.453,0.089-0.92,0.139-1.399,0.139&#xD;&#xA;&#x9;&#x9;c-0.479,0-0.945-0.049-1.399-0.139c-0.705,0.663-1.682,0.932-2.605,0.753v-1.327c0.924,0.179,1.9-0.09,2.605-0.753&#xD;&#xA;&#x9;&#x9;c0.454,0.091,0.921,0.14,1.399,0.14c0.479,0,0.946-0.049,1.399-0.14C13.223,35.511,14.199,35.78,15.123,35.601z"/>
  <linearGradient id="SVGID_173_" gradientUnits="userSpaceOnUse" x1="7.8457" y1="111.5811" x2="14.3887" y2="111.5811">
    <stop offset="0" style="stop-color:#000000;stop-opacity:0.45"/>
    <stop offset="1" style="stop-color:#000000;stop-opacity:0.45"/>
  </linearGradient>
  <path fill="url(#SVGID_173_)" d="M14.389,111.291H7.846v0.581c0,0,0.822-0.244,3.284-0.244c2.463,0,3.259,0.244,3.259,0.244&#xD;&#xA;&#x9;&#x9;V111.291z"/>
  <linearGradient id="SVGID_174_" gradientUnits="userSpaceOnUse" x1="5.8721" y1="109.4116" x2="16.3633" y2="109.4116">
    <stop offset="0" style="stop-color:#000000;stop-opacity:0.45"/>
    <stop offset="1" style="stop-color:#000000;stop-opacity:0.45"/>
  </linearGradient>
  <path fill="url(#SVGID_174_)" d="M16.363,109.183v0.773c0,0-0.795-0.64-5.221-0.64c-4.425,0-5.271,0.662-5.271,0.662v-0.795&#xD;&#xA;&#x9;&#x9;c0-0.186,0.152-0.338,0.338-0.338h9.814C16.211,108.845,16.363,108.997,16.363,109.183z"/>
  <linearGradient id="SVGID_175_" gradientUnits="userSpaceOnUse" x1="7.1123" y1="114.583" x2="15.123" y2="114.583">
    <stop offset="0" style="stop-color:#000000;stop-opacity:0.45"/>
    <stop offset="1" style="stop-color:#000000;stop-opacity:0.45"/>
  </linearGradient>
  <path fill="url(#SVGID_175_)" d="M15.123,114.353H7.112v0.46c0,0,1.006-0.244,4.021-0.244s3.99,0.244,3.99,0.244V114.353z"/>
  <linearGradient id="SVGID_176_" gradientUnits="userSpaceOnUse" x1="7.1123" y1="132.9688" x2="15.123" y2="132.9688">
    <stop offset="0" style="stop-color:#000000;stop-opacity:0.45"/>
    <stop offset="1" style="stop-color:#000000;stop-opacity:0.45"/>
  </linearGradient>
  <path fill="url(#SVGID_176_)" d="M15.123,132.655v1.326c-0.924,0.18-1.9-0.09-2.606-0.753c-0.453,0.09-0.92,0.139-1.399,0.139&#xD;&#xA;&#x9;&#x9;c-0.479,0-0.945-0.049-1.399-0.139c-0.705,0.663-1.682,0.933-2.605,0.753v-1.326c0.924,0.179,1.9-0.09,2.605-0.753&#xD;&#xA;&#x9;&#x9;c0.454,0.091,0.921,0.14,1.399,0.14c0.479,0,0.946-0.049,1.399-0.14C13.223,132.565,14.199,132.834,15.123,132.655z"/>
</svg>