<svg version="1.2" baseProfile="tiny" viewBox="0 0 22.261 152.0" xmlns:xlink="http://www.w3.org/1999/xlink" xmlns="http://www.w3.org/2000/svg">
<path style="fill:#ffffff;" d="M19.508,25.2244C19.059,23.8427,17.693,23.0143,16.302,23.1922C15.6691,22.5036,14.902,21.9427,14.04,21.549C13.78,20.1704,12.571,19.1277,11.1169,19.1277C9.6639,19.1277,8.455,20.1704,8.1941,21.549C7.3341,21.9427,6.565,22.5036,5.933,23.1922C4.541,23.0128,3.176,23.8412,2.727,25.2244C2.278,26.6061,2.8959,28.079,4.1261,28.7523C4.2349,29.7099,4.5359,30.6082,4.9889,31.4093C4.389,32.6785,4.7561,34.2319,5.931,35.0877C7.1059,35.9404,8.6969,35.8097,9.7169,34.8475C10.169,34.9387,10.637,34.9874,11.1149,34.9874C11.594,34.9874,12.0619,34.9387,12.514,34.8475C13.5349,35.8097,15.1239,35.9404,16.2999,35.0877C17.4771,34.2319,17.842,32.6785,17.2409,31.4093C17.695,30.6082,17.996,29.7099,18.104,28.7523C19.339,28.0805,19.957,26.6076,19.508,25.2244Z"/>
</svg>