<svg version="1.2" baseProfile="tiny" viewBox="0 0 22.261 152.0" xmlns:xlink="http://www.w3.org/1999/xlink" xmlns="http://www.w3.org/2000/svg">
<path style="fill:#ffffff;" d="M17.9989,108.338C17.9989,108.6177,17.7701,108.8457,17.4909,108.8457L4.744,108.8457L4.744,108.8457C4.4649,108.8457,4.236,108.6177,4.236,108.338L4.236,43.811C4.236,43.5313,4.4649,43.3033,4.744,43.3033L17.4909,43.3033C17.7701,43.3033,17.9989,43.5313,17.9989,43.811L17.9989,108.338M12.4719,46.5865C12.4719,46.1214,12.0911,45.7398,11.6249,45.7398L10.61,45.7398L10.61,45.7398C10.1439,45.7398,9.763,46.1198,9.763,46.5865L9.763,72.7715C9.763,73.2366,10.1439,73.6182,10.61,73.6182L11.6249,73.6182C12.0911,73.6182,12.4719,73.2382,12.4719,72.7715L12.4719,46.5865M12.4719,79.3774C12.4719,78.9123,12.0911,78.5308,11.6249,78.5308L10.61,78.5308L10.61,78.5308C10.1439,78.5308,9.763,78.9123,9.763,79.3774L9.763,105.5625C9.763,106.0276,10.1439,106.4091,10.61,106.4091L11.6249,106.4091C12.0911,106.4091,12.4719,106.0276,12.4719,105.5625L12.4719,79.3774Z"/>
</svg>