<svg version="1.2" baseProfile="tiny" id="EdgeSVG_c28KQ" x="0px" y="0px" width="22.261px" height="152px" viewBox="0 0 22.261 152" xmlns:xlink="http://www.w3.org/1999/xlink" xmlns="http://www.w3.org/2000/svg">
  <linearGradient id="SVGID_3_" gradientUnits="userSpaceOnUse" x1="11.1172" y1="107.6045" x2="11.1172" y2="44.5493">
    <stop offset="0" style="stop-color:#000000;stop-opacity:0.02"/>
    <stop offset="0.4601" style="stop-color:#000000;stop-opacity:0.1"/>
    <stop offset="1" style="stop-color:#000000;stop-opacity:0"/>
  </linearGradient>
  <path fill="url(#SVGID_3_)" d="M13.6,105.122c0,1.371-1.111,2.482-2.482,2.482c-1.37,0-2.481-1.112-2.481-2.482v-58.09&#xD;&#xA;&#x9;&#x9;c0-1.371,1.111-2.482,2.481-2.482c1.371,0,2.482,1.111,2.482,2.482V105.122z"/>
  <linearGradient id="SVGID_4_" gradientUnits="userSpaceOnUse" x1="8.9736" y1="76.0771" x2="13.2617" y2="76.0771">
    <stop offset="0" style="stop-color:#000000;stop-opacity:0.02"/>
    <stop offset="0.4601" style="stop-color:#000000;stop-opacity:0.05"/>
    <stop offset="1" style="stop-color:#000000;stop-opacity:0.02"/>
  </linearGradient>
  <path fill="url(#SVGID_4_)" d="M11.117,107.266c-1.182,0-2.144-0.962-2.144-2.144v-58.09c0-1.182,0.962-2.144,2.144-2.144&#xD;&#xA;&#x9;&#x9;c1.183,0,2.145,0.962,2.145,2.144v58.09C13.262,106.304,12.3,107.266,11.117,107.266z"/>
  <linearGradient id="SVGID_5_" gradientUnits="userSpaceOnUse" x1="11.1172" y1="107.2661" x2="11.1172" y2="44.8877">
    <stop offset="0" style="stop-color:#000000;stop-opacity:0.02"/>
    <stop offset="0.4601" style="stop-color:#000000;stop-opacity:0.05"/>
    <stop offset="1" style="stop-color:#000000;stop-opacity:0.02"/>
  </linearGradient>
  <path fill="url(#SVGID_5_)" d="M11.117,107.266c-1.182,0-2.144-0.962-2.144-2.144v-58.09c0-1.182,0.962-2.144,2.144-2.144&#xD;&#xA;&#x9;&#x9;c1.183,0,2.145,0.962,2.145,2.144v58.09C13.262,106.304,12.3,107.266,11.117,107.266z M12.508,105.122v-58.09&#xD;&#xA;&#x9;&#x9;c0-1.182-0.624-2.144-1.391-2.144c-0.766,0-1.39,0.962-1.39,2.144v58.09c0,1.182,0.624,2.144,1.39,2.144&#xD;&#xA;&#x9;&#x9;C11.884,107.266,12.508,106.304,12.508,105.122z"/>
  <g>
    <linearGradient id="SVGID_6_" gradientUnits="userSpaceOnUse" x1="10.2344" y1="44.8872" x2="10.2344" y2="107.2661">
      <stop offset="0" style="stop-color:#FFFFFF;stop-opacity:0.25"/>
      <stop offset="0.0368" style="stop-color:#FFFFFF;stop-opacity:0.45"/>
      <stop offset="0.0859" style="stop-color:#FFFFFF;stop-opacity:0.25"/>
      <stop offset="1" style="stop-color:#FFFFFF;stop-opacity:0.15"/>
    </linearGradient>
    <path fill="url(#SVGID_6_)" d="M11.117,107.266c-0.973,0-1.765-0.961-1.765-2.144V47.031c0-1.181,0.792-2.144,1.765-2.144&#xD;&#xA;&#x9;&#x9;&#x9;c-0.407,0-0.739,0.963-0.739,2.144v58.091C10.378,106.305,10.71,107.266,11.117,107.266z"/>
    <linearGradient id="SVGID_7_" gradientUnits="userSpaceOnUse" x1="12" y1="44.8872" x2="12" y2="107.2661">
      <stop offset="0" style="stop-color:#FFFFFF;stop-opacity:0.25"/>
      <stop offset="0.0368" style="stop-color:#FFFFFF;stop-opacity:0.45"/>
      <stop offset="0.0859" style="stop-color:#FFFFFF;stop-opacity:0.25"/>
      <stop offset="1" style="stop-color:#FFFFFF;stop-opacity:0.15"/>
    </linearGradient>
    <path fill="url(#SVGID_7_)" d="M12.883,47.031v58.091c0,1.183-0.792,2.144-1.766,2.144c0.408,0,0.74-0.961,0.74-2.144V47.031&#xD;&#xA;&#x9;&#x9;&#x9;c0-1.181-0.332-2.144-0.74-2.144C12.091,44.887,12.883,45.85,12.883,47.031z"/>
  </g>
</svg>