<svg version="1.2" baseProfile="tiny" id="EdgeSVG_c28KQ" x="0px" y="0px" width="22.261px" height="152px" viewBox="0 0 22.261 152" xmlns:xlink="http://www.w3.org/1999/xlink" xmlns="http://www.w3.org/2000/svg">
  <path fill="none" d="M16.771,112.07c0.005,0.048,0.028,0.09,0.028,0.14v-0.141C16.789,112.071,16.78,112.063,16.771,112.07z"/>
  <linearGradient id="SVGID_1_" gradientUnits="userSpaceOnUse" x1="0" y1="76" x2="22.2607" y2="76">
    <stop offset="0" style="stop-color:#000000;stop-opacity:0.5"/>
    <stop offset="1" style="stop-color:#000000;stop-opacity:0.5"/>
  </linearGradient>
  <path fill="url(#SVGID_1_)" d="M17.811,132.007c0.7-1.003,0.912-2.291,0.531-3.481c0.33-0.674,0.561-1.386,0.69-2.126&#xD;&#xA;&#x9;&#x9;c1.365-1.001,1.963-2.785,1.427-4.433c-0.532-1.635-2.041-2.737-3.76-2.746c-0.182-0.175-0.381-0.328-0.576-0.484v-3.584&#xD;&#xA;&#x9;&#x9;c0.396-0.233,0.676-0.646,0.676-1.137v-2.037h0.07c0.44,0,0.483-0.198,0.483-0.484s0-1.63,0-1.63h0.264&#xD;&#xA;&#x9;&#x9;c1.121,0,1.386-0.58,1.386-1.152c0-0.141,0-0.324,0-0.514c0-0.001-0.002-0.003-0.002-0.005c0,0,0.002-64.876,0.002-65.017&#xD;&#xA;&#x9;&#x9;c0-0.572-0.265-1.152-1.386-1.152h-0.264c0,0,0-1.129,0-1.415s-0.043-0.484-0.483-0.484h-0.07v-0.041c-0.01-0.004,0-1.951,0-1.951&#xD;&#xA;&#x9;&#x9;c0-0.492-0.279-0.905-0.676-1.138v-0.675c0.268-0.116,0.527-0.25,0.769-0.425c1.401-1.018,1.966-2.812,1.45-4.423&#xD;&#xA;&#x9;&#x9;c0.33-0.674,0.561-1.386,0.69-2.126c1.365-1.001,1.963-2.786,1.427-4.433c-0.532-1.636-2.041-2.737-3.76-2.746&#xD;&#xA;&#x9;&#x9;c-0.182-0.175-0.381-0.327-0.576-0.484v-0.652c3.62-1.835,6.112-5.585,6.112-9.914C22.235,4.988,17.248,0,11.117,0&#xD;&#xA;&#x9;&#x9;C4.987,0,0,4.988,0,11.119c0,4.329,2.492,8.078,6.112,9.914v0.651c-0.196,0.157-0.396,0.31-0.577,0.485&#xD;&#xA;&#x9;&#x9;c-1.717,0.009-3.226,1.111-3.759,2.748c-0.535,1.647,0.063,3.431,1.427,4.431c0.13,0.74,0.36,1.452,0.69,2.125&#xD;&#xA;&#x9;&#x9;c-0.517,1.613,0.05,3.407,1.451,4.423c0.24,0.175,0.5,0.31,0.768,0.426v0.675c-0.396,0.233-0.676,0.646-0.676,1.138v1.805l-0.001,0&#xD;&#xA;&#x9;&#x9;v0.187h-0.07c-0.44,0-0.483,0.198-0.483,0.484s0,1.415,0,1.415H4.618c-1.121,0-1.386,0.58-1.386,1.152&#xD;&#xA;&#x9;&#x9;c0,0.162,0.003,64.826,0.003,64.826l-0.003,0.003c0,0.259,0,0.517,0,0.707c0,0.572,0.265,1.152,1.386,1.152h0.264&#xD;&#xA;&#x9;&#x9;c0,0,0,1.345,0,1.63s0.043,0.484,0.483,0.484h0.07v0.231c0,0.001,0.001,0,0.001,0v1.805c0,0.492,0.279,0.904,0.676,1.137v3.584&#xD;&#xA;&#x9;&#x9;c-0.196,0.157-0.396,0.31-0.577,0.485c-1.717,0.009-3.226,1.11-3.759,2.748c-0.535,1.646,0.063,3.43,1.427,4.431&#xD;&#xA;&#x9;&#x9;c0.13,0.74,0.36,1.452,0.69,2.126c-0.385,1.2-0.167,2.501,0.546,3.507c-2.676,2.032-4.415,5.237-4.415,8.85&#xD;&#xA;&#x9;&#x9;c0,6.131,4.987,11.118,11.118,11.118s11.118-4.987,11.118-11.118C22.261,137.254,20.507,134.037,17.811,132.007z"/>
</svg>