<svg version="1.2" baseProfile="tiny" viewBox="0 0 22.261 152.0" xmlns:xlink="http://www.w3.org/1999/xlink" xmlns="http://www.w3.org/2000/svg">
<path style="fill:#ffffff;" d="M19.508,122.2764C19.059,120.8932,17.693,120.0663,16.302,120.2457C15.6691,119.5571,14.902,118.9947,14.04,118.601C13.78,117.2224,12.571,116.1812,11.1169,116.1812C9.6639,116.1812,8.455,117.2224,8.1941,118.601C7.3341,118.9947,6.565,119.5556,5.933,120.2442C4.541,120.0648,3.176,120.8947,2.727,122.2764C2.278,123.6596,2.8959,125.131,4.1261,125.8043C4.2349,126.7619,4.5359,127.6602,4.9889,128.4613C4.389,129.7305,4.7561,131.2839,5.931,132.1397C7.1059,132.9924,8.6969,132.8617,9.7169,131.8995C10.169,131.9907,10.637,132.0394,11.1149,132.0394C11.594,132.0394,12.0619,131.9907,12.514,131.8995C13.5349,132.8617,15.1239,132.9939,16.2999,132.1397C17.4771,131.2854,17.842,129.7305,17.2409,128.4613C17.695,127.6602,17.996,126.7619,18.104,125.8043C19.339,125.1325,19.957,123.6596,19.508,122.2764Z"/>
</svg>